<?xml version="1.0" encoding="utf-8"?>
<!-- Generator: Adobe Illustrator 16.0.0, SVG Export Plug-In . SVG Version: 6.00 Build 0)  -->
<!DOCTYPE svg PUBLIC "-//W3C//DTD SVG 1.1//EN" "http://www.w3.org/Graphics/SVG/1.1/DTD/svg11.dtd">
<svg version="1.1" id="Layer_1" xmlns="http://www.w3.org/2000/svg" xmlns:xlink="http://www.w3.org/1999/xlink" x="0px" y="0px"
	 width="1280px" height="960px" viewBox="0 0 1280 960" enable-background="new 0 0 1280 960" xml:space="preserve">
<rect x="1.5" y="453.5" stroke="#FFFFFF" stroke-miterlimit="10" width="1280" height="507"/>
<text transform="matrix(1 0 0 1 66.6069 322.3276)" font-family="'Verdana'" font-size="30">Find out what you can do to STOP human trafficking and help those in need. </text>
<text transform="matrix(1 0 0 1 947.2617 933.8691)" fill="#FFE400" font-family="'Verdana'" font-size="14">Created by Jesus Jimenez and Amanda Fisher</text>
<text transform="matrix(1 0 0 1 37.2622 618.8203)" fill="#FFE400" font-family="'Verdana'" font-size="28">Check out these sites for more INFO:</text>
<g>
</g>
<g>
	<g>
		<path fill-rule="evenodd" clip-rule="evenodd" fill="#FFFFFF" d="M1071.56,669.781c-28.672-0.048-57.331-0.096-85.978-0.145
			c0.049-29.338,0.098-58.661,0.146-87.975c28.672,0.048,57.33,0.096,85.979,0.144
			C1071.657,611.144,1071.608,640.469,1071.56,669.781z M1033.678,621.492c0.006-3.319-0.111-6.435,0.045-9.536
			c0.228-4.453,2.791-7.997,7.099-8.779c4.315-0.783,8.78-0.723,13.229-1.035c-0.007,3.89-0.013,7.223-0.019,10.656
			c-1.964-0.003-3.745-0.04-5.523-0.002c-2.061,0.046-3.026,1.04-3.08,3.114c-0.033,1.236,0.069,2.481-0.036,3.711
			c-0.124,1.456,0.387,1.969,1.827,1.904c2.266-0.104,4.533-0.021,7.081-0.018c-0.363,3.207-0.634,6.108-1.081,8.983
			c-0.063,0.406-0.969,0.931-1.509,0.958c-2.066,0.11-4.144,0.04-6.219,0.036c-0.01,5.876-0.019,11.441-0.028,17.158
			c6.548,0.012,12.972-0.03,19.394,0.068c1.726,0.025,2.086-0.598,2.084-2.266c-0.034-16.744,0.02-33.49,0.041-50.235
			c0.005-5.926-3.595-9.62-9.396-9.633c-19.229-0.041-38.459-0.076-57.691-0.103c-5.953-0.008-9.5,3.617-9.511,9.708
			c-0.034,16.68-0.057,33.36-0.084,50.041c-0.001,0.688-0.002,1.375-0.004,2.19c1.151,0.059,2.03,0.141,2.907,0.144
			c8.851,0.021,17.703,0.032,26.555,0.049c3.947,0.009,7.896,0.021,11.844,0.049c1.057,0.006,1.875-0.129,1.869-1.543
			c-0.021-4.756-0.001-9.513,0.038-14.27c0.01-1.146-0.535-1.438-1.543-1.392c-1.3,0.058-2.601,0.011-3.862,0.009
			c0.006-3.541,0.011-6.698,0.017-9.978c0.978,0.001,1.8,0.003,2.623,0.004C1031.615,621.489,1032.489,621.49,1033.678,621.492z
			 M991.369,660.007c1.628,3.14,4.345,4.831,7.615,4.854c5.156,0.037,10.313,0.026,15.47,0.035
			c14.452,0.024,28.902,0.054,43.354,0.069c3.692,0.005,6.726-1.862,7.788-4.834C1040.909,660.089,1016.268,660.048,991.369,660.007
			z"/>
		<path fill-rule="evenodd" clip-rule="evenodd" d="M1033.678,621.492c-1.188-0.002-2.063-0.003-2.935-0.005
			c-0.823-0.001-1.646-0.003-2.623-0.004c-0.006,3.279-0.011,6.437-0.017,9.978c1.262,0.002,2.563,0.049,3.862-0.009
			c1.008-0.046,1.553,0.245,1.543,1.392c-0.039,4.757-0.06,9.514-0.038,14.27c0.006,1.414-0.813,1.549-1.869,1.543
			c-3.948-0.027-7.896-0.04-11.844-0.049c-8.852-0.017-17.704-0.027-26.555-0.049c-0.877-0.003-1.756-0.085-2.907-0.144
			c0.002-0.815,0.003-1.503,0.004-2.19c0.027-16.681,0.05-33.361,0.084-50.041c0.011-6.091,3.558-9.716,9.511-9.708
			c19.232,0.026,38.462,0.062,57.691,0.103c5.802,0.013,9.401,3.707,9.396,9.633c-0.021,16.745-0.075,33.491-0.041,50.235
			c0.002,1.668-0.358,2.291-2.084,2.266c-6.422-0.099-12.846-0.057-19.394-0.068c0.01-5.717,0.019-11.282,0.028-17.158
			c2.075,0.004,4.152,0.074,6.219-0.036c0.54-0.027,1.445-0.552,1.509-0.958c0.447-2.875,0.718-5.776,1.081-8.983
			c-2.548-0.004-4.815-0.086-7.081,0.018c-1.44,0.064-1.951-0.448-1.827-1.904c0.105-1.229,0.003-2.475,0.036-3.711
			c0.054-2.074,1.02-3.068,3.08-3.114c1.778-0.038,3.56-0.001,5.523,0.002c0.006-3.434,0.012-6.767,0.019-10.656
			c-4.449,0.313-8.914,0.252-13.229,1.035c-4.308,0.782-6.871,4.326-7.099,8.779
			C1033.566,615.058,1033.684,618.173,1033.678,621.492z"/>
		<path fill-rule="evenodd" clip-rule="evenodd" d="M991.369,660.007c24.898,0.041,49.54,0.082,74.227,0.124
			c-1.063,2.972-4.096,4.839-7.788,4.834c-14.451-0.016-28.901-0.045-43.354-0.069c-5.156-0.009-10.313,0.002-15.47-0.035
			C995.714,664.838,992.997,663.146,991.369,660.007z"/>
	</g>
</g>
<path fill="#FFFFFF" d="M1169.889,622.195c-0.537-1.86-1.353-3.415-2.326-4.978c0.681-3.056,0.441-6.27-1.056-9.216
	c-1.739-3.428-5.89-3.857-8.613-1.966c-1.556-1.542-3.05-3.055-3.872-4.861c-0.445-0.977-1.157-1.724-2.008-2.241
	c-1.62-2.249-4.255-3.501-7.091-3.862c-3.424-0.438-7.285,1.46-10.247,2.993c-3.877,2.006-7.736,4.732-11.096,7.964
	c-0.526-0.111-1.066-0.149-1.604-0.115c-0.677-1.784-2.012-3.197-3.919-3.75c-0.114-0.034-0.225-0.054-0.337-0.079
	c-0.262-0.553-0.626-1.092-1.092-1.609c-0.106-0.33-0.24-0.645-0.4-0.943c0.004-0.09-0.047-0.182-0.129-0.231
	c-2.085-3.535-7.589-4.633-9.989-0.796c-1.428,0.801-2.739,2.011-3.811,3.568c-2.305,3.35-3.728,8.4-3.414,12.543
	c0.083,1.105,0.388,2.104,0.85,2.966c-1.942,4.019-3.861,8.086-4.922,12.463c-1.565,6.47-0.312,17.28,6.386,19.618
	c2.946,3.271,7.647,3.818,11.651,3.066c0.339-0.062,0.674-0.147,1.008-0.239c0.744,1.551,2.092,2.782,3.777,3.352
	c13.131,4.454,27.058,0.511,35.93-9.8c0.048,0.015,0.092,0.033,0.142,0.047c2.399,0.696,5.684-0.365,6.789-2.913
	c1.343-3.097,2.343-6.224,3.101-9.442c0.737-0.705,1.328-1.633,1.667-2.801c0.097-0.331,0.182-0.664,0.262-0.995
	C1168.528,629.068,1170.962,625.921,1169.889,622.195z"/>
<path fill="#FFFFFF" d="M1103.972,577.064c-3.561,0.059-7.295,0.741-10.202,3.061c-2.942,2.348-4.896,5.416-6.549,8.856
	c-1.16,2.418-0.984,5.251,0.566,7.244v31.069c0,8.177,12.023,8.177,12.023,0v-35.113c0-0.256-0.012-0.504-0.035-0.745
	c0.063-0.091,0.122-0.175,0.164-0.234c0.111-0.128,0.222-0.258,0.341-0.379c-0.073,0.091,0.532-0.458,0.743-0.59
	c0.048-0.03,0.08-0.052,0.117-0.077c0.076-0.022,0.165-0.05,0.282-0.091c0.112-0.039,1.213-0.261,1.028-0.264
	c0.507-0.043,1.016-0.05,1.521-0.058C1111.72,589.617,1111.73,576.936,1103.972,577.064z"/>
<path fill="#FFFFFF" d="M1168.655,578.534c-8.888-4.172-19.344-2.286-28.711-1.499c-10.998,0.924-22.183-0.432-33.197-0.459
	c-7.755-0.018-7.753,12.662,0,12.68c12.967,0.03,25.839,1.115,38.784-0.063c4.7-0.427,9.452-0.72,14.161-0.244
	c0.096,0.025,0.933,0.142,1.051,0.165c0.503,0.097,0.996,0.229,1.49,0.363c0.251,0.069,0.499,0.15,0.744,0.236
	c-0.155-0.045,0.565,0.256,0.78,0.382c0.027,0.015,0.043,0.023,0.068,0.037c0.009,0.01,0.012,0.014,0.021,0.023
	c0.043,0.047,0.076,0.079,0.109,0.113c0.014,0.018,0.021,0.031,0.035,0.054c0.243,0.376,0.44,0.785,0.637,1.189
	c0.104,0.301,0.199,0.603,0.285,0.908c0.27,0.9,0.444,1.83,0.594,2.761c-0.083-0.467,0.094,0.928,0.105,1.076
	c0.052,0.601,0.076,1.203,0.102,1.805c0.116,2.719-0.021,5.447-0.211,8.158c-0.328,4.648-1.012,9.26-1.361,13.906
	c-0.545,7.251-0.478,14.591-0.506,21.859c-0.013,3.275,0.029,6.553-0.03,9.83c-0.007,0.386-0.163,2.104-0.149,2.337
	c-0.036,0.158-0.073,0.316-0.113,0.476c0,0.001,0,0.002-0.002,0.004c-0.005,0.01-0.006,0.016-0.014,0.027
	c-0.027,0.029-0.05,0.053-0.079,0.087c-0.171,0.18-0.349,0.355-0.531,0.522c-0.042,0.04-0.071,0.069-0.103,0.1
	c-1.001,0.774-2.05,1.487-3.098,2.192c-19.497,0.782-38.952-1.263-58.439-1.472c-1.143-3.155-1.717-7.102-1.961-10.512
	c-0.353-4.943-0.237-9.916-0.231-14.869c0.009-8.176-12.016-8.176-12.024,0c-0.011,11.251-0.453,23.133,4.521,33.436
	c0.572,1.186,1.523,2.04,2.631,2.551c0.97,1.226,2.438,2.05,4.41,2.054c20.668,0.034,41.293,2.381,61.967,1.462
	c0.117-0.005,0.23-0.02,0.344-0.032c1.24,0.157,2.518-0.084,3.617-0.834c3.518-2.397,8.039-4.888,9.769-9.168
	c2.17-5.373,1.525-11.564,1.538-17.276c0.016-7.448,0.051-14.916,0.48-22.352C1176.403,615.969,1178.409,583.111,1168.655,578.534z"
	/>
<path fill="#FFFFFF" d="M1171.414,600.666c1.891-1.52,2.563-4.13,2.172-6.756c-0.616-4.176-2.156-8.256-5.242-11.087
	c-0.452-0.414-0.938-0.745-1.448-1.005c-0.479-0.736-1.157-1.404-2.083-1.938c-4.3-2.484-9.847-2.792-14.596-3.313
	c-6.877-0.756-13.819-0.98-20.73-0.825c-6.609,0.15-13.415,0.616-19.839,2.35c-2.203,0.594-4.476,1.487-6.425,2.779
	c-2.17,0.175-4.286,0.777-6.225,2.022c-3.877,2.491-5.86,7.068-6.638,11.621c-0.821,4.812-0.836,9.715-1.112,14.581
	c-0.391,6.827-0.942,13.646-1.299,20.476c-0.62,11.89-1.203,26.866,9.273,34.349c7.488,5.347,17.934,3.723,26.446,3.813
	c7.209,0.077,14.361,0.464,21.563-0.152c3.188-0.272,6.371-0.73,9.518-1.351c0.515,0.378,1.092,0.666,1.73,0.828
	c6.566,1.666,10.687-1.191,13.268-5.891c0.051-0.039,0.102-0.073,0.152-0.113c2.207-1.704,3.533-4.201,2.763-7.159
	c-0.044-0.17-0.099-0.334-0.157-0.495c1.203-5.377,1.477-11.219,1.519-15.452C1174.15,625.477,1172.8,613.046,1171.414,600.666z
	 M1125.246,655.093c-4.414-0.163-8.828,0.132-13.24-0.004c-1.011-0.032-2.02-0.104-3.025-0.201c-0.101-0.01-0.399-0.052-0.645-0.087
	c-0.365-0.067-0.729-0.141-1.092-0.219c-0.873-0.191-1.727-0.465-2.565-0.778c-0.062-0.035-0.139-0.078-0.255-0.139
	c-0.333-0.174-0.651-0.378-0.965-0.587c-0.134-0.108-0.531-0.414-0.666-0.545c-0.203-0.2-0.393-0.415-0.577-0.634
	c0.314,0.362-0.351-0.525-0.477-0.739c-0.21-0.358-0.387-0.736-0.562-1.116c0.328,0.692-0.235-0.737-0.283-0.896
	c-0.181-0.593-0.308-1.201-0.438-1.808c-0.297-1.384-0.342-2.279-0.491-4.215c-0.545-7.091-0.003-14.26,0.499-21.336
	c0.42-5.917,0.785-11.835,1.045-17.764c0.088-1.973,0.2-3.942,0.409-5.904c-0.032,0.494,0.306-1.657,0.399-2.065
	c0.025-0.112,0.058-0.227,0.087-0.341c2.028,0.442,4.308-0.107,5.833-1.645c0.358,0.104,0.716,0.214,1.072,0.324
	c3.938,1.223,6.677-1.617,7.293-4.905c0.396-0.069,0.788-0.139,1.186-0.202c0.27-0.032,1.312-0.178,1.566-0.207
	c0.732-0.086,1.467-0.156,2.201-0.223c3.275-0.301,6.567-0.426,9.855-0.47c6.137-0.08,12.291,0.188,18.401,0.815
	c0.659,0.069,1.315,0.146,1.975,0.227c0.192,0.022,0.716,0.094,1.084,0.144c0.92,0.141,1.836,0.298,2.75,0.479
	c0.857,0.17,1.71,0.372,2.551,0.615c0.02,0.007,0.038,0.013,0.056,0.018c0.263,3.408,0.813,6.831,1.189,10.191
	c0.849,7.578,1.625,15.171,2.12,22.788c0.493,7.582,0.77,15.261,0.054,22.838c-0.031,0.339-0.068,0.676-0.108,1.014
	c-0.098,0.708-0.22,1.414-0.353,2.116c-0.098,0.52-0.212,1.035-0.335,1.549c-1.679,0.716-3.353,1.434-5.146,1.907
	c-3.162,0.838-6.376,1.399-9.617,1.737C1139.133,655.546,1132.165,655.349,1125.246,655.093z"/>
<g>
	<g>
		<path fill-rule="evenodd" clip-rule="evenodd" fill="none" d="M1079.477,678.799c0-36.654,0-73.309,0-110.007
			c34.617,0,69.25,0,103.953,0c0,36.64,0,73.323,0,110.007C1148.812,678.799,1114.15,678.799,1079.477,678.799z M1086.057,623.352
			c-0.019,0-0.036,0-0.055,0c0,10.787,0.006,21.574-0.003,32.362c-0.002,3.366,1.244,6.391,3.094,9.021
			c3.357,4.775,8.312,7.034,14.021,7.072c18.646,0.126,37.295,0.05,55.941,0.046c2.293-0.001,4.448-0.243,6.692-1.156
			c7.185-2.926,11.238-8.289,11.246-16.069c0.02-20.958,0.023-41.917-0.208-62.873c-0.029-2.694-1.349-5.427-2.33-8.043
			c-1.017-2.711-3.397-3.993-5.782-5.519c-2.335-1.494-4.516-2.391-7.218-2.389c-20.034,0.016-40.07,0.134-60.103-0.069
			c-7.879-0.08-15.264,8.353-15.288,15.486C1086.03,601.932,1086.057,612.642,1086.057,623.352z"/>
		<path fill-rule="evenodd" clip-rule="evenodd" d="M1086.057,623.352c0-10.71-0.026-21.42,0.009-32.13
			c0.024-7.134,7.409-15.566,15.288-15.486c20.032,0.203,40.068,0.085,60.103,0.069c2.702-0.002,4.883,0.895,7.218,2.389
			c2.385,1.525,4.766,2.808,5.782,5.519c0.981,2.616,2.301,5.349,2.33,8.043c0.231,20.956,0.228,41.915,0.208,62.873
			c-0.008,7.78-4.062,13.144-11.246,16.069c-2.244,0.913-4.399,1.155-6.692,1.156c-18.646,0.004-37.295,0.08-55.941-0.046
			c-5.71-0.038-10.664-2.297-14.021-7.072c-1.85-2.631-3.096-5.655-3.094-9.021c0.009-10.788,0.003-21.575,0.003-32.362
			C1086.021,623.352,1086.038,623.352,1086.057,623.352z M1131.28,669.563c0,0.006,0,0.012,0,0.017c8.934,0,17.868,0,26.803,0
			c0.231,0,0.463-0.013,0.692,0.001c9.607,0.557,16.538-7.327,16.457-16.329c-0.102-11.167-0.031-22.336-0.023-33.503
			c0.003-3.543,0.053-7.085,0.064-10.627c0.019-5.454,0.205-10.915-0.006-16.36c-0.361-9.309-6.79-15.63-16.756-15.657
			c-18.176-0.049-36.354-0.109-54.529,0.095c-2.878,0.032-6.079,0.85-8.542,2.304c-5.597,3.305-8.047,8.744-8.062,15.166
			c-0.014,5.689,0.325,11.38,0.348,17.07c0.058,14.018-0.024,28.036,0.042,42.053c0.041,8.534,6.779,16.01,15.554,15.817
			C1112.638,669.404,1121.961,669.563,1131.28,669.563z"/>
		<path fill-rule="evenodd" clip-rule="evenodd" fill="none" d="M1131.28,669.563c-9.319,0-18.643-0.158-27.958,0.046
			c-8.774,0.192-15.513-7.283-15.554-15.817c-0.066-14.017,0.016-28.035-0.042-42.053c-0.022-5.69-0.361-11.381-0.348-17.07
			c0.015-6.422,2.465-11.861,8.062-15.166c2.463-1.454,5.664-2.271,8.542-2.304c18.175-0.204,36.354-0.144,54.529-0.095
			c9.966,0.027,16.395,6.349,16.756,15.657c0.211,5.445,0.024,10.906,0.006,16.36c-0.012,3.542-0.062,7.084-0.064,10.627
			c-0.008,11.167-0.078,22.336,0.023,33.503c0.081,9.002-6.85,16.886-16.457,16.329c-0.229-0.014-0.461-0.001-0.692-0.001
			c-8.935,0-17.869,0-26.803,0C1131.28,669.574,1131.28,669.568,1131.28,669.563z M1131.482,580.806c0-0.012,0-0.023,0-0.035
			c-8.709,0-17.44,0.394-26.117-0.127c-6.804-0.408-14.871,7.488-14.417,14.208c0.371,5.507-0.225,11.072-0.215,16.611
			c0.024,14.096,0.09,28.193,0.269,42.289c0.057,4.479,2.578,7.803,5.982,10.45c2.834,2.205,6.252,2.483,9.668,2.489
			c15.876,0.028,31.751,0.024,47.626-0.002c1.998-0.004,4.018-0.061,5.989-0.349c3.186-0.466,5.867-1.711,8.104-4.342
			c3.088-3.631,3.953-7.78,3.933-12.235c-0.086-18.564-0.263-37.127-0.407-55.69c-0.003-0.309-0.012-0.617-0.031-0.925
			c-0.373-5.866-7.112-12.616-13.336-12.416C1149.521,581.021,1140.498,580.806,1131.482,580.806z"/>
		<path fill-rule="evenodd" clip-rule="evenodd" d="M1131.482,580.806c9.016,0,18.039,0.215,27.047-0.073
			c6.224-0.2,12.963,6.55,13.336,12.416c0.02,0.308,0.028,0.616,0.031,0.925c0.145,18.563,0.321,37.126,0.407,55.69
			c0.021,4.455-0.845,8.604-3.933,12.235c-2.236,2.631-4.918,3.876-8.104,4.342c-1.972,0.288-3.991,0.345-5.989,0.349
			c-15.875,0.026-31.75,0.03-47.626,0.002c-3.416-0.006-6.834-0.284-9.668-2.489c-3.404-2.647-5.926-5.971-5.982-10.45
			c-0.179-14.096-0.244-28.193-0.269-42.289c-0.01-5.539,0.586-11.104,0.215-16.611c-0.454-6.72,7.613-14.616,14.417-14.208
			c8.677,0.521,17.408,0.127,26.117,0.127C1131.482,580.782,1131.482,580.794,1131.482,580.806z M1095.092,635.774
			c6.267,9.335,15.258,14.876,28.584,14.718c17.42-0.206,30.492-7.573,36.192-25.074c3.005-0.557,6.118-0.705,8.248-3.819
			c-2.192-0.154-3.952-0.278-6.112-0.43c2.22-1.59,5.419-1.175,5.737-4.816c-2.935,0-5.618,0-8.405,0
			c-1.385-7.711-5.245-12.845-13.01-14.546c1.882-0.737,3.305-1.608,3.776-3.813c-1.122-0.138-2.012-0.247-2.92-0.358
			c-0.503-0.403-1.024-0.82-1.672-1.339c-2.011,0.629-4.745,0.649-5.888,2.008c-2.824,3.359-5.011,7.277-7.269,11.08
			c-1.057,1.779-1.687,3.812-2.452,5.594c-7.275-5.729-15.185-10.028-24.5-12.432c-0.076,4.185,1.882,6.785,4.175,9.308
			c-0.834,0.431-1.496,0.771-2.24,1.155c0.672,3.783,2.896,6.193,6.231,7.675c-1.116,0.724-2.105,1.364-3.557,2.304
			c1.473,1.382,2.503,2.614,3.783,3.475c1.258,0.845,2.768,1.312,4.151,1.938c-2.116,2.859-1.713,3.873,2.616,6.354
			C1117.225,641.235,1105.173,641.858,1095.092,635.774z"/>
		<path fill-rule="evenodd" clip-rule="evenodd" fill="none" d="M1095.092,635.774c10.081,6.084,22.133,5.461,25.471-1.021
			c-4.329-2.48-4.732-3.494-2.616-6.354c-1.384-0.626-2.894-1.093-4.151-1.938c-1.28-0.86-2.311-2.093-3.783-3.475
			c1.451-0.939,2.44-1.58,3.557-2.304c-3.336-1.481-5.56-3.892-6.231-7.675c0.744-0.384,1.406-0.725,2.24-1.155
			c-2.293-2.522-4.251-5.123-4.175-9.308c9.315,2.403,17.225,6.702,24.5,12.432c0.766-1.782,1.396-3.814,2.452-5.594
			c2.258-3.803,4.444-7.721,7.269-11.08c1.143-1.358,3.877-1.379,5.888-2.008c0.647,0.519,1.169,0.936,1.672,1.339
			c0.908,0.111,1.798,0.221,2.92,0.358c-0.472,2.204-1.895,3.075-3.776,3.813c7.765,1.701,11.625,6.835,13.01,14.546
			c2.787,0,5.471,0,8.405,0c-0.318,3.642-3.518,3.227-5.737,4.816c2.16,0.151,3.92,0.275,6.112,0.43
			c-2.13,3.114-5.243,3.263-8.248,3.819c-5.7,17.501-18.772,24.868-36.192,25.074C1110.35,650.65,1101.358,645.109,1095.092,635.774
			z"/>
	</g>
</g>
<g>
	<g>
		<path fill-rule="evenodd" clip-rule="evenodd" d="M888.367,597.687c29.657,0,59.314,0,88.972,0c0,26.666,0,53.333,0,79.999
			c-29.657,0-59.314,0-88.972,0C888.367,651.02,888.367,624.353,888.367,597.687z M919.057,642.013
			c-0.083,0.178-0.167,0.355-0.251,0.533c-1.158,0-2.321-0.063-3.473,0.011c-5.107,0.328-9.668,1.822-13.097,5.397
			c-4.259,4.44-3.213,9.788,2.58,12.442c6.772,3.102,13.896,3.545,21.065,1.24c6.719-2.16,9.851-7.375,8.32-13.336
			c-0.777-3.027-3.076-4.994-5.665-6.818c-1.335-0.939-2.604-2.002-3.696-3.164c-1.309-1.395-1.227-2.805,0.127-4.178
			c0.822-0.834,1.828-1.528,2.778-2.256c5.768-4.422,6.004-11.358,0.547-16.034c-0.153-0.131-0.206-0.359-0.409-0.735
			c2.826,0.084,5.455,0.093,7.211-2.447c-0.844-0.038-1.484-0.09-2.126-0.091c-4.874-0.011-9.749,0.015-14.623-0.021
			c-4.009-0.029-7.49,1.193-10.5,3.506c-2.598,1.997-4.368,4.444-4.428,7.631c-0.119,6.476,5.155,11.404,12.386,11.631
			c0.63,0.02,1.259,0.066,2.161,0.116C916.905,637.94,917.368,640.069,919.057,642.013z M951.893,625.193
			c0.382,3.475-0.106,6.719,0.322,9.963c0.948,0,1.627,0,2.663,0c0-3.348,0-6.557,0-10.044c3.864,0,7.379,0,11.079,0
			c0.05-0.936,0.085-1.589,0.137-2.563c-3.813,0-7.384,0-11.307,0c0-3.452,0-6.604,0-9.925c-1.109,0.071-1.842,0.117-2.847,0.183
			c0,3.307,0,6.41,0,9.77c-3.799,0-7.315,0-11.129,0c0.054,0.965,0.092,1.65,0.145,2.617
			C944.735,625.193,948.248,625.193,951.893,625.193z"/>
		<path fill-rule="evenodd" clip-rule="evenodd" fill="#FFFFFF" d="M919.057,642.013c-1.688-1.943-2.151-4.072-1.092-6.573
			c-0.902-0.05-1.531-0.097-2.161-0.116c-7.23-0.227-12.505-5.155-12.386-11.631c0.06-3.187,1.83-5.634,4.428-7.631
			c3.01-2.313,6.491-3.535,10.5-3.506c4.874,0.036,9.749,0.011,14.623,0.021c0.642,0.001,1.282,0.053,2.126,0.091
			c-1.756,2.54-4.385,2.531-7.211,2.447c0.203,0.376,0.256,0.604,0.409,0.735c5.457,4.676,5.221,11.612-0.547,16.034
			c-0.95,0.728-1.956,1.422-2.778,2.256c-1.354,1.373-1.436,2.783-0.127,4.178c1.093,1.162,2.361,2.225,3.696,3.164
			c2.589,1.824,4.888,3.791,5.665,6.818c1.53,5.961-1.602,11.176-8.32,13.336c-7.17,2.305-14.293,1.861-21.065-1.24
			c-5.793-2.654-6.839-8.002-2.58-12.442c3.429-3.575,7.989-5.069,13.097-5.397c1.151-0.074,2.314-0.011,3.473-0.011
			C918.89,642.368,918.974,642.19,919.057,642.013z M917.914,660.337c2.813,0.078,5.453-0.286,7.915-1.413
			c3.841-1.762,5.577-6.712,3.192-9.731c-1.811-2.291-4.305-4.126-7.366-4.792c-4.48-0.975-8.773-0.261-12.468,2.391
			c-4.294,3.083-4.204,8.16,0.128,11.233C911.869,659.837,914.793,660.498,917.914,660.337z M909.469,622.081
			c0.005,3.873,2.265,8.199,5.466,10.23c4.04,2.564,8.497,1.417,10.311-2.655c2.074-4.653-0.439-11.365-5.204-13.901
			c-4.048-2.153-8.338-0.773-9.846,3.223C909.82,619.972,909.704,621.043,909.469,622.081z"/>
		<path fill-rule="evenodd" clip-rule="evenodd" fill="#FFFFFF" d="M951.893,625.193c-3.645,0-7.157,0-10.937,0
			c-0.053-0.967-0.091-1.652-0.145-2.617c3.813,0,7.33,0,11.129,0c0-3.359,0-6.463,0-9.77c1.005-0.065,1.737-0.111,2.847-0.183
			c0,3.321,0,6.473,0,9.925c3.923,0,7.494,0,11.307,0c-0.052,0.975-0.087,1.628-0.137,2.563c-3.7,0-7.215,0-11.079,0
			c0,3.487,0,6.696,0,10.044c-1.036,0-1.715,0-2.663,0C951.786,631.912,952.274,628.668,951.893,625.193z"/>
		<path fill-rule="evenodd" clip-rule="evenodd" d="M917.914,660.337c-3.121,0.161-6.045-0.5-8.599-2.313
			c-4.332-3.073-4.422-8.15-0.128-11.233c3.694-2.651,7.987-3.365,12.468-2.391c3.062,0.666,5.556,2.501,7.366,4.792
			c2.385,3.02,0.648,7.97-3.192,9.731C923.367,660.051,920.727,660.415,917.914,660.337z"/>
		<path fill-rule="evenodd" clip-rule="evenodd" d="M909.469,622.081c0.235-1.038,0.352-2.109,0.727-3.104
			c1.508-3.996,5.798-5.376,9.846-3.223c4.765,2.536,7.278,9.248,5.204,13.901c-1.813,4.072-6.271,5.22-10.311,2.655
			C911.733,630.28,909.474,625.954,909.469,622.081z"/>
	</g>
</g>
</svg>
