<?xml version="1.0" encoding="utf-8"?>
<!-- Generator: Adobe Illustrator 16.0.0, SVG Export Plug-In . SVG Version: 6.00 Build 0)  -->
<!DOCTYPE svg PUBLIC "-//W3C//DTD SVG 1.1//EN" "http://www.w3.org/Graphics/SVG/1.1/DTD/svg11.dtd">
<svg version="1.1" id="Airplane_xA0_Image_1_" xmlns="http://www.w3.org/2000/svg" xmlns:xlink="http://www.w3.org/1999/xlink"
	 x="0px" y="0px" width="800px" height="600px" viewBox="0 0 800 600" enable-background="new 0 0 800 600" xml:space="preserve">
<g>
	<g>
		<path fill="#FFFFFF" stroke="#BCBCBC" stroke-miterlimit="10" d="M402.448,313.645c0.564,6.764-2.311,9.756-7.695,10.631
			c-3.101,0.502-6.188,1.307-9.305,1.436c-4.462,0.186-6.828-1.961-7.425-6.313c-0.488-3.559-0.195-6.988,2.447-9.836
			c0.638-0.688,1.02-1.611,1.555-2.484c-0.531-0.477-0.832-0.947-1.243-1.084c-8.272-2.746-16.565-5.432-24.833-8.189
			c-1.393-0.466-2.643-1.356-4.035-1.826c-5.824-1.965-11.649-3.525-17.964-3.449c-17.995,0.215-35.995-0.018-53.993,0.039
			c-17.023,0.056-34.004-1.194-50.686-4.207c-12.179-2.199-24.346-5.361-34.583-13.432c-3.942-3.105-5.976-7.072-7.895-11.229
			c-1.348-2.917,0.471-5.65,2.531-7.6c1.894-1.791,4.208-3.381,6.623-4.34c16.061-6.375,32.611-10.508,50.042-10.479
			c22.498,0.038,44.996-0.029,67.494-0.053c1.951-0.002,3.902,0,6.293,0c0.112-2.375,0.274-4.153,0.268-5.933
			c-0.062-16.332-0.097-32.664-0.262-48.994c-0.066-6.658-0.325-13.318-0.709-19.966c-0.193-3.368,0.886-5.403,4.322-6.12
			c2.552-0.531,5.047-1.33,7.388-1.963c0.396,0.579,0.585,0.729,0.569,0.854c-0.993,8.113,2.39,15.283,4.872,22.645
			c6.172,18.305,12.352,36.604,18.549,54.897c1.537,4.539,1.571,4.57,6.298,4.572c26.498,0.015,52.997,0.094,79.495-0.031
			c13.652-0.063,27.305-0.495,40.955-0.791c0.936-0.02,1.865-0.282,3.141-0.487c-1.867-5.614-3.631-10.922-5.662-17.037
			c6.221-0.165,11.93-2.477,16.744,3.251c5.059-7.354,9.965-14.461,14.844-21.586c3.107-4.536,6.332-9.003,9.207-13.685
			c1.881-3.066,4.422-4.33,7.832-4.326c2.965,0.004,5.93,0.001,9.551,0.001c-0.131,2.132-0.047,3.885-0.371,5.559
			c-3.031,15.681-6.145,31.348-9.203,47.022c-0.285,1.458-0.375,2.954-0.578,4.63c5.926,1.324,11.703,2.617,17.57,3.929
			c0.451,4.044-0.807,6.677-4.014,8.666c-4.934,3.062-9.707,6.382-15.34,10.117c18.732,7.824,37.344,14.056,56.279,22.078
			c-4.668,2.122-8.127,2.593-12.045,1.44c-16.93-4.978-33.939-9.676-50.879-14.619c-3.215-0.938-5.832-0.648-8.961,0.779
			c-8.471,3.87-17.174,7.246-25.875,10.584c-2.105,0.807-4.557,0.941-6.855,0.98c-8.496,0.141-17.002,0.301-25.494,0.104
			c-13.521-0.313-26.844,1.418-40.691,3.26c3.063,5.166,5.967,9.49,11.771,11.787c19.504,7.717,38.822,15.908,58.215,23.908
			c15.854,6.541,31.715,13.057,47.563,19.605c10.305,4.258,20.516,8.748,30.91,12.768c6.191,2.396,12.662,4.076,19.006,6.084
			c0.764,0.242,1.518,0.525,2.336,0.811c-2.301,3.428-8.521,5.521-12.691,4.191c-7.373-2.352-14.709-4.824-22.035-7.32
			c-9.621-3.279-19.195-6.697-28.834-9.93c-7.498-2.518-15.09-4.758-22.582-7.293c-3.07-1.037-5.988-2.525-8.84-3.752
			c-0.574,0.715-0.926,0.947-0.947,1.207c-0.656,7.875-0.615,7.994-8.229,10.234c-2.832,0.834-5.859,1.252-8.816,1.354
			c-4.686,0.16-7.051-2.078-7.578-6.715c-0.406-3.596,0.031-6.98,2.779-9.729c0.676-0.678,1.1-1.605,2.131-3.158
			C444.082,327.963,423.672,320.943,402.448,313.645z M191.573,263.944c5.153,1.978,10.011,0.566,14.823-0.008
			c0.573-0.067,1.263-1.106,1.485-1.824c0.773-2.484,1.364-5.025,2.03-7.565C199.137,252.451,194.789,255.955,191.573,263.944z
			 M399.713,267.971c0-3.925,0-7.269,0-10.722c-3.605,0-6.678,0-10.079,0c0,3.702,0,7.062,0,10.722
			C393.106,267.971,396.179,267.971,399.713,267.971z M330.014,259.167c-3.255,0.264-6.777,0.547-10.282,0.83
			c0,3.689,0,6.753,0,9.751c12.635,1.64,11.75-0.281,10.91-9.849C330.631,259.766,330.435,259.649,330.014,259.167z
			 M284.984,270.911c3.362,0,6.434,0,9.772,0c0-3.727,0-7.076,0-10.338c-9.884-1.803-11.039-0.799-10.277,8.484
			C284.518,269.536,284.73,270,284.984,270.911z M469.52,265.903c0-3.957,0-7.33,0-10.898c-2.764,0-5.125-0.305-7.346,0.127
			c-1.127,0.219-2.668,1.65-2.85,2.73c-0.422,2.521-0.135,5.158-0.135,8.041C462.984,265.903,466.057,265.903,469.52,265.903z
			 M354.637,268.827c3.564,0,6.757,0,10.115,0c0-3.791,0-7.145,0-11.223c-3.704,0.438-6.859,0.811-10.115,1.193
			C354.637,262.54,354.637,265.593,354.637,268.827z M261.535,271.403c0-3.496,0-6.868,0-10.795
			c-3.579,0.461-6.604,0.852-9.434,1.216c-1.519,10.327-0.59,11.315,8.7,10.053C260.947,271.856,261.075,271.707,261.535,271.403z
			 M278.473,270.928c0-3.556,0-6.617,0-9.835c-3.447,0-6.504,0-9.956,0c0,3.726,0,7.075,0,10.729
			c2.664-0.139,4.95-0.227,7.232-0.389C276.551,271.377,277.34,271.145,278.473,270.928z M372.472,268.459
			c2.486,0,4.465,0.087,6.434-0.02c3.977-0.211,4.156-0.438,4.315-4.32c0.255-6.236-0.036-6.559-6.114-6.371
			c-1.438,0.045-2.871,0.271-4.635,0.445C372.472,261.733,372.472,264.942,372.472,268.459z M476.809,254.925
			c0,3.474,0,6.759,0,10.152c3.451,0,6.502,0,9.826,0c0-3.586,0-6.746,0-10.152C483.215,254.925,480.281,254.925,476.809,254.925z
			 M425.428,267.3c2.09-0.103,4.443,0.071,6.635-0.446c1.129-0.269,2.625-1.66,2.801-2.733c0.414-2.515,0.133-5.146,0.133-7.72
			c-11.301,0.121-11.633-1.076-10.439,9.822C424.57,266.356,424.75,266.475,425.428,267.3z M441.688,255.961
			c0,3.673,0,6.73,0,10.419c2.93,0,5.541,0.175,8.104-0.103c0.82-0.088,2.09-1.321,2.154-2.112c0.219-2.687-0.008-5.407-0.068-8.204
			C448.084,255.961,445.148,255.961,441.688,255.961z M337.953,258.957c-2.244,9.748-0.894,11.358,8.136,10.382
			c0.454-0.049,0.875-0.396,1.411-0.652c0-3.215,0-6.39,0-9.729C344.067,258.957,341.125,258.957,337.953,258.957z M312.508,269.854
			c0-3.477,0-6.647,0-9.756c-3.598,0-6.663,0-9.614,0c-2.165,9.613-1.093,10.948,7.762,10.211
			C311.139,270.27,311.609,270.08,312.508,269.854z M417.17,267.065c-0.51-3.676,1.494-6.776-0.287-10.486
			c-2.716,0.134-5.428,0.268-8.31,0.408c0,3.648,0,6.697,0,10.078C411.373,267.065,413.779,267.065,417.17,267.065z"/>
	</g>
</g>
</svg>
