<?xml version="1.0" encoding="utf-8"?>
<!-- Generator: Adobe Illustrator 16.0.3, SVG Export Plug-In . SVG Version: 6.00 Build 0)  -->
<!DOCTYPE svg PUBLIC "-//W3C//DTD SVG 1.1//EN" "http://www.w3.org/Graphics/SVG/1.1/DTD/svg11.dtd">
<svg version="1.1" id="Layer_1" xmlns="http://www.w3.org/2000/svg" xmlns:xlink="http://www.w3.org/1999/xlink" x="0px" y="0px"
	 width="612px" height="792px" viewBox="0 0 612 792" enable-background="new 0 0 612 792" xml:space="preserve">
<g>
	<g>
		<path fill="none" d="M306.649,599.439c-101.423,0-202.846-0.004-304.269,0.041c-1.623,0-1.988-0.365-1.988-1.988
			c0.043-132.152,0.043-264.306,0-396.458c0-1.623,0.365-1.988,1.988-1.988c202.846,0.042,405.691,0.042,608.538,0
			c1.622,0,1.988,0.365,1.988,1.988c-0.044,132.153-0.044,264.306,0,396.458c0,1.623-0.366,1.988-1.988,1.988
			C509.495,599.436,408.071,599.439,306.649,599.439z M291.931,484.054c0.171,0.158,0.342,0.317,0.513,0.476
			c-0.344,0.979-0.689,1.958-1.173,3.333c1.008-0.402,1.636-0.652,2.264-0.904c3.789-1.521,7.562-3.082,11.378-4.528
			c0.876-0.333,1.902-0.271,2.858-0.39c4.062,9.546,9.214,18.477,15.225,26.922c0.246,0.301,0.493,0.603,0.741,0.903
			c0.597,0.853,1.194,1.705,1.792,2.558c0.247,0.344,0.493,0.688,0.74,1.031c0.186,0.233,0.371,0.467,0.558,0.7
			c0.379,0.512,0.758,1.022,1.136,1.534c-0.028,0.121,0.02,0.192,0.143,0.211c0.435,0.55,0.868,1.099,1.302,1.647
			c0.153,0.167,0.307,0.333,0.459,0.499c0.158,0.314,0.264,0.671,0.48,0.937c16.686,20.434,36.772,36.626,60.839,47.485
			c12.171,5.492,24.83,9.9,37.233,14.886c1.554,0.625,2.076,0.298,2.634-1.178c3.87-10.236,7.77-20.463,11.8-30.637
			c0.765-1.929,0.582-2.914-1.499-3.303c-0.037-0.768-0.074-1.534-0.111-2.302c-0.803-0.297-1.605-0.593-2.408-0.89
			c-1.293-0.5-2.586-1-3.879-1.5c-1.016-0.367-2.03-0.733-3.045-1.101c-1.183-0.463-2.366-0.927-3.549-1.39
			c-1.988-0.721-3.978-1.44-5.966-2.161c-1.487-0.556-2.974-1.111-4.461-1.668c-0.82-0.318-1.642-0.638-2.463-0.956
			c-1.151-0.462-2.303-0.924-3.455-1.386c-0.29-0.121-0.58-0.241-0.87-0.362c-1.538-0.654-3.076-1.308-4.614-1.961
			c-0.479-0.229-0.959-0.459-1.438-0.689c-0.249-0.142-0.491-0.299-0.747-0.424c-26.782-13.14-47.742-32.242-60.841-59.397
			c-0.188-0.389-0.375-0.777-0.562-1.165c-0.14-0.329-0.279-0.659-0.419-0.989c-0.144-0.396-0.286-0.791-0.43-1.187
			c-0.112-0.33-0.225-0.659-0.337-0.989c2.74-1.502,5.436-3.096,8.233-4.482c3.111-1.541,6.315-2.895,9.94-4.539
			c-1.213-0.532-2.012-0.8-2.714-1.226c-0.355-0.217-0.537-0.722-0.797-1.096c0.234-0.086,0.468-0.171,0.701-0.257
			c0.208-0.125,0.415-0.251,0.622-0.376c-0.227-0.188-0.453-0.374-0.68-0.561c-0.457-0.207-0.908-0.428-1.372-0.617
			c-9.046-3.709-18.227-7.11-26.348-12.763c-6.513-4.532-12.419-9.588-16.091-16.802c-1.254-2.464-2.404-4.981-3.534-7.334
			c-1.331,6.411-2.448,12.938-4.063,19.342c-4.158,16.478-9.57,32.567-15.593,48.453c-0.125,0.303-0.25,0.606-0.374,0.91
			c0.294,0.061,0.606,0.215,0.877,0.162C291.035,484.442,291.478,484.221,291.931,484.054z M193.075,344.672
			c1.992,4.859,3.985,9.719,5.977,14.578c0.636,1.081,1.271,2.161,2.033,3.457c0.55-1.118,1.057-2.106,1.525-3.112
			c3.952-8.464,7.745-16.999,13.496-24.488c5.235-6.817,11.107-12.805,19.196-16.21c1.745-0.734,3.478-1.496,4.991-2.147
			c-1.382-0.659-2.907-1.385-4.431-2.112c0.994-0.259,1.988-0.519,2.982-0.779c-23.136-5.806-45.125-14.452-67.238-24.088
			c0.442,1.204,0.731,1.921,0.972,2.655c1.392,4.237,2.753,8.483,4.167,12.712c0.409,1.223,0.074,1.724-1.172,2.195
			c-3.966,1.497-7.963,2.976-11.764,4.836c-33.134,16.216-58.502,40.635-75.771,73.17c-6.288,11.845-11.254,24.39-16.91,36.576
			c-0.812,1.751-0.221,2.326,1.347,2.63c0.365,1.032-0.465,2.277,1.329,3.046c10.264,4.397,20.449,8.98,30.626,13.576
			c1.452,0.655,2.002,0.491,2.652-1.051c3.327-7.888,6.789-15.72,10.237-23.557c12.926-29.376,33.171-51.987,61.958-66.557
			C183.655,347.788,188.465,346.428,193.075,344.672z M430.815,350.295c-0.264-0.621-0.526-1.241-0.79-1.862
			c-0.254-0.577-0.507-1.154-0.761-1.732c-0.174-0.433-0.348-0.866-0.521-1.299c-0.561-1.779-1.055-3.582-1.704-5.329
			c-0.506-1.363-0.222-1.965,1.207-2.564c12.342-5.178,23.67-12.103,34.142-20.404c20.79-16.483,37.289-36.512,48.382-60.644
			c5.604-12.191,10.1-24.892,15.092-37.364c0.665-1.662,1.892-3.474-1.038-4.29c-0.117-0.033-0.146-0.382-0.216-0.583
			c0.763-1.62-0.604-1.837-1.538-2.2c-10.338-4.012-20.693-7.979-31.029-11.997c-1.148-0.447-1.712-0.41-2.191,0.936
			c-1.955,5.488-4.191,10.877-6.073,16.389c-7.893,23.118-19.646,43.793-37.832,60.465c-10.536,9.66-22.127,17.659-35.496,22.949
			c-1.364,0.54-1.901,0.308-2.434-0.914c-0.805-1.846-1.714-3.646-2.583-5.465c-1.711-3.582-3.425-7.162-5.383-11.255
			c-0.535,1.208-0.83,1.833-1.093,2.471c-1.703,4.125-3.315,8.289-5.115,12.371c-4.284,9.712-9.609,18.771-17.874,25.661
			c-3.12,2.602-6.79,4.546-10.209,6.79c-1.413,0.413-2.826,0.826-4.239,1.239c0.021,0.172,0.041,0.344,0.061,0.517
			c0.962,0,1.924,0,2.885,0c0.285,0.039,0.57,0.079,0.854,0.118c0.539,0.406,1.078,0.812,1.777,1.338
			c-1.284,0.449-2.373,0.829-3.659,1.278c24.075,3.506,46.616,11.609,69.608,19.994
			C432.156,353.071,431.486,351.683,430.815,350.295z"/>
		<path fill-rule="evenodd" clip-rule="evenodd" fill="#050505" d="M322.996,508.962c-6.011-8.445-11.162-17.376-15.225-26.922
			c-1.07-3.605-1.313-3.821-4.655-2.714c-2.707,0.897-5.299,2.141-8.003,3.048c-1.622,0.544-3.361,0.737-5.048,1.089
			c6.023-15.886,11.435-31.976,15.593-48.453c1.615-6.403,2.732-12.931,4.063-19.342c1.13,2.353,2.28,4.87,3.534,7.334
			c3.672,7.214,9.578,12.27,16.091,16.802c8.121,5.652,17.302,9.054,26.348,12.763c0.464,0.189,0.915,0.41,1.372,0.617
			c0.02,0.312,0.038,0.625,0.058,0.937c-0.233,0.086-0.467,0.171-0.701,0.257c-4.729,2.21-9.475,4.389-14.182,6.644
			c-2.552,1.222-2.65,2.538-0.481,4.699c0.112,0.33,0.225,0.659,0.337,0.989c0.144,0.396,0.286,0.791,0.43,1.187
			c0.14,0.33,0.279,0.66,0.419,0.989c0.188,0.388,0.375,0.776,0.562,1.165c13.099,27.155,34.059,46.258,60.841,59.397
			c0.256,0.125,0.498,0.282,0.747,0.424c0.479,0.23,0.958,0.46,1.438,0.689c1.538,0.653,3.076,1.307,4.614,1.961
			c0.29,0.121,0.58,0.241,0.87,0.362c1.152,0.462,2.304,0.924,3.455,1.386c0.821,0.318,1.643,0.638,2.463,0.956
			c1.487,0.557,2.974,1.112,4.461,1.668c1.988,0.721,3.978,1.44,5.966,2.161c1.183,0.463,2.366,0.927,3.549,1.39
			c1.015,0.367,2.029,0.733,3.045,1.101c1.293,0.5,2.586,1,3.879,1.5c0.803,0.297,1.605,0.593,2.408,0.89
			c0.037,0.768,0.074,1.534,0.111,2.302c-1.535,3.782-3.114,7.547-4.596,11.349c-2.529,6.488-4.994,13.001-7.498,19.498
			c-0.415,1.077-0.843,1.871-2.371,1.259c-12.038-4.828-24.248-9.253-36.117-14.46c-7.548-3.311-14.84-7.372-21.81-11.786
			c-6.335-4.014-12.322-8.676-18.018-13.57c-5.704-4.903-10.859-10.446-16.251-15.713c-1.617-1.58-3.218-3.177-4.827-4.767
			c-0.152-0.166-0.306-0.332-0.459-0.499c-0.434-0.549-0.867-1.098-1.302-1.647c-0.123-0.019-0.171-0.09-0.143-0.211
			c-0.378-0.512-0.757-1.022-1.136-1.534c-0.187-0.233-0.372-0.467-0.558-0.7c-0.247-0.344-0.493-0.688-0.74-1.031
			c-0.598-0.853-1.195-1.705-1.793-2.558C323.489,509.564,323.242,509.263,322.996,508.962z"/>
		<path fill-rule="evenodd" clip-rule="evenodd" fill="#040404" d="M365.317,332.298c-0.284-0.039-0.569-0.079-0.854-0.118
			c0.432-0.585,0.862-1.17,1.294-1.756c3.419-2.244,7.089-4.188,10.209-6.79c8.265-6.891,13.59-15.949,17.874-25.661
			c1.8-4.082,3.412-8.246,5.115-12.371c0.263-0.638,0.558-1.264,1.093-2.471c1.958,4.093,3.672,7.673,5.383,11.255
			c0.869,1.818,1.778,3.619,2.583,5.465c0.532,1.222,1.069,1.453,2.434,0.914c13.369-5.291,24.96-13.29,35.496-22.949
			c18.186-16.672,29.939-37.347,37.832-60.465c1.882-5.512,4.118-10.901,6.073-16.389c0.479-1.345,1.043-1.382,2.191-0.936
			c10.336,4.018,20.691,7.985,31.029,11.997c0.935,0.362,2.301,0.58,1.538,2.2c-0.336,1.071-0.619,2.161-1.016,3.209
			c-1.827,4.829-3.724,9.632-5.525,14.471c-3.919,10.526-8.228,20.857-13.683,30.716c-4.63,8.367-9.915,16.273-15.854,23.724
			c-6.055,7.594-12.615,14.768-20.093,21.006c-5.392,4.499-10.829,8.973-16.523,13.074c-7.878,5.672-16.447,10.194-25.362,14.058
			c-0.63,0.273-1.551,1.307-1.424,1.67c1.086,3.125,2.383,6.177,3.616,9.251c0.174,0.433,0.348,0.866,0.521,1.299
			c0.254,0.578,0.507,1.155,0.761,1.732c0.264,0.621,0.526,1.242,0.79,1.862c-0.424,1.924-1.662,0.872-2.501,0.575
			c-7.368-2.604-14.623-5.564-22.085-7.855c-10.679-3.279-21.488-6.132-32.272-9.056C371.135,333.194,368.2,332.841,365.317,332.298
			z"/>
		<path fill-rule="evenodd" clip-rule="evenodd" fill="#040404" d="M199.052,359.25c-1.992-4.859-3.985-9.719-5.977-14.578
			c-1.443-3.582-1.455-3.612-5.046-2.299c-10.364,3.789-19.83,9.191-28.75,15.673c-7.958,5.782-14.974,12.522-21.486,19.847
			c-9.088,10.22-16.02,21.818-21.697,34.18c-3.768,8.203-7.239,16.544-10.745,24.864c-0.59,1.399-1.197,1.792-2.571,1.174
			c-10.096-4.534-20.202-9.046-30.305-13.564c-1.567-0.304-2.159-0.879-1.347-2.63c5.656-12.186,10.623-24.73,16.91-36.576
			c17.269-32.535,42.637-56.955,75.771-73.17c3.801-1.86,7.798-3.339,11.764-4.836c1.247-0.471,1.581-0.972,1.172-2.195
			c-1.415-4.229-2.776-8.476-4.167-12.712c-0.241-0.733-0.53-1.451-0.972-2.655c22.113,9.636,44.102,18.282,67.238,24.088
			c-0.994,0.26-1.988,0.52-2.982,0.779c-2.476,1.262-5.187,2.212-7.375,3.856c-3.584,2.694-7.209,5.512-10.123,8.878
			c-3.692,4.265-7.026,8.932-9.893,13.792c-3.023,5.124-5.3,10.687-7.945,16.038C200.158,357.946,199.549,358.57,199.052,359.25z"/>
		<path fill-rule="evenodd" clip-rule="evenodd" fill="#363434" d="M428.743,345.401c-1.233-3.074-2.53-6.126-3.616-9.251
			c-0.127-0.363,0.794-1.397,1.424-1.67c8.915-3.863,17.484-8.385,25.362-14.058c5.694-4.101,11.132-8.575,16.523-13.074
			c7.478-6.239,14.038-13.412,20.093-21.006c5.939-7.451,11.225-15.357,15.854-23.724c5.455-9.858,9.764-20.19,13.683-30.716
			c1.802-4.838,3.698-9.642,5.525-14.471c0.396-1.048,0.68-2.139,1.016-3.209c0.069,0.202,0.099,0.551,0.216,0.583
			c2.93,0.816,1.703,2.628,1.038,4.29c-4.992,12.472-9.488,25.173-15.092,37.364c-11.093,24.132-27.592,44.161-48.382,60.644
			c-10.472,8.301-21.8,15.226-34.142,20.404c-1.429,0.6-1.713,1.202-1.207,2.564C427.688,341.819,428.183,343.623,428.743,345.401z"
			/>
		<path fill-rule="evenodd" clip-rule="evenodd" fill="#363434" d="M72.475,424.546c10.103,4.519,20.209,9.03,30.305,13.564
			c1.374,0.618,1.981,0.226,2.571-1.174c3.505-8.32,6.977-16.661,10.745-24.864c5.677-12.361,12.609-23.959,21.697-34.18
			c6.513-7.325,13.529-14.064,21.486-19.847c8.92-6.482,18.386-11.885,28.75-15.673c3.592-1.313,3.603-1.282,5.046,2.299
			c-4.61,1.756-9.42,3.116-13.798,5.332c-28.788,14.57-49.033,37.181-61.958,66.557c-3.448,7.837-6.91,15.669-10.237,23.557
			c-0.65,1.542-1.2,1.706-2.652,1.051c-10.178-4.596-20.362-9.179-30.626-13.576C72.009,426.823,72.84,425.578,72.475,424.546z"/>
		<path fill-rule="evenodd" clip-rule="evenodd" fill="#3A3838" d="M329.866,518.046c1.609,1.59,3.21,3.187,4.827,4.767
			c5.392,5.267,10.547,10.81,16.251,15.713c5.695,4.895,11.683,9.557,18.018,13.57c6.97,4.414,14.262,8.476,21.81,11.786
			c11.869,5.207,24.079,9.632,36.117,14.46c1.528,0.612,1.956-0.182,2.371-1.259c2.504-6.497,4.969-13.01,7.498-19.498
			c1.481-3.802,3.061-7.566,4.596-11.349c2.081,0.389,2.264,1.374,1.499,3.303c-4.03,10.174-7.93,20.4-11.8,30.637
			c-0.558,1.476-1.08,1.803-2.634,1.178c-12.403-4.985-25.062-9.394-37.233-14.886c-24.066-10.859-44.153-27.052-60.839-47.485
			C330.13,518.717,330.024,518.36,329.866,518.046z"/>
		<path fill-rule="evenodd" clip-rule="evenodd" fill="#363434" d="M199.052,359.25c0.497-0.68,1.105-1.304,1.473-2.047
			c2.645-5.351,4.921-10.914,7.945-16.038c2.867-4.86,6.201-9.527,9.893-13.792c2.913-3.366,6.538-6.184,10.123-8.878
			c2.188-1.645,4.899-2.594,7.375-3.856c1.524,0.727,3.049,1.453,4.431,2.112c-1.513,0.651-3.246,1.413-4.991,2.147
			c-8.088,3.405-13.961,9.393-19.196,16.21c-5.751,7.489-9.544,16.024-13.496,24.488c-0.469,1.005-0.976,1.994-1.525,3.112
			C200.323,361.411,199.688,360.331,199.052,359.25z"/>
		<path fill-rule="evenodd" clip-rule="evenodd" fill="#3A3838" d="M365.317,332.298c2.883,0.542,5.817,0.896,8.64,1.661
			c10.784,2.924,21.594,5.777,32.272,9.056c7.462,2.291,14.717,5.25,22.085,7.855c0.839,0.297,2.077,1.349,2.501-0.575
			c0.671,1.388,1.341,2.776,2.229,4.613c-22.992-8.385-45.533-16.488-69.608-19.994c1.286-0.449,2.375-0.829,3.659-1.278
			C366.396,333.11,365.856,332.704,365.317,332.298z"/>
		<path fill-rule="evenodd" clip-rule="evenodd" fill="#363534" d="M341.759,465.72c-2.169-2.161-2.07-3.478,0.481-4.699
			c4.707-2.255,9.452-4.434,14.182-6.644c0.26,0.374,0.441,0.879,0.797,1.096c0.702,0.426,1.501,0.693,2.714,1.226
			c-3.625,1.645-6.829,2.998-9.94,4.539C347.194,462.624,344.499,464.218,341.759,465.72z"/>
		<path fill-rule="evenodd" clip-rule="evenodd" fill="#393837" d="M290.064,483.463c1.687-0.352,3.427-0.545,5.048-1.089
			c2.704-0.907,5.296-2.15,8.003-3.048c3.342-1.107,3.585-0.892,4.655,2.714c-0.956,0.119-1.982,0.057-2.858,0.39
			c-3.816,1.446-7.589,3.008-11.378,4.528c-0.628,0.252-1.256,0.502-2.264,0.904c0.484-1.375,0.829-2.354,1.173-3.333
			c-0.007-0.226-0.014-0.451-0.021-0.677c-0.165,0.066-0.329,0.134-0.493,0.201c-0.453,0.167-0.896,0.389-1.363,0.481
			c-0.271,0.053-0.583-0.102-0.877-0.162C289.815,484.069,289.94,483.766,290.064,483.463z"/>
		<path fill-rule="evenodd" clip-rule="evenodd" fill="#3A3838" d="M365.757,330.425c-0.432,0.585-0.862,1.171-1.294,1.756
			c-0.961,0-1.923,0-2.885,0c-0.02-0.172-0.04-0.344-0.061-0.517C362.931,331.251,364.344,330.838,365.757,330.425z"/>
		<path fill-rule="evenodd" clip-rule="evenodd" fill="#3A3838" d="M428.361,539.055c-1.988-0.721-3.978-1.44-5.966-2.161
			C424.384,537.614,426.373,538.334,428.361,539.055z"/>
		<path fill-rule="evenodd" clip-rule="evenodd" fill="#3A3838" d="M434.955,541.545c-1.016-0.367-2.03-0.733-3.045-1.101
			C432.925,540.812,433.939,541.178,434.955,541.545z"/>
		<path fill-rule="evenodd" clip-rule="evenodd" fill="#3A3838" d="M441.242,543.935c-0.803-0.297-1.605-0.593-2.408-0.89
			C439.637,543.342,440.439,543.638,441.242,543.935z"/>
		<path fill-rule="evenodd" clip-rule="evenodd" fill="#3A3838" d="M417.935,535.226c-0.82-0.318-1.642-0.638-2.463-0.956
			C416.293,534.588,417.114,534.907,417.935,535.226z"/>
		<path fill-rule="evenodd" clip-rule="evenodd" fill="#363434" d="M430.025,348.433c-0.254-0.577-0.507-1.154-0.761-1.732
			C429.519,347.278,429.771,347.855,430.025,348.433z"/>
		<path fill-rule="evenodd" clip-rule="evenodd" fill="#3A3838" d="M328.105,515.899c0.435,0.55,0.868,1.099,1.302,1.647
			C328.974,516.998,328.54,516.449,328.105,515.899z"/>
		<path fill-rule="evenodd" clip-rule="evenodd" fill="#3A3838" d="M326.827,514.154c0.379,0.512,0.758,1.022,1.136,1.534
			C327.585,515.177,327.206,514.666,326.827,514.154z"/>
		<path fill-rule="evenodd" clip-rule="evenodd" fill="#3A3838" d="M406.532,530.561c-0.479-0.229-0.959-0.459-1.438-0.689
			C405.573,530.102,406.053,530.331,406.532,530.561z"/>
		<path fill-rule="evenodd" clip-rule="evenodd" fill="#3A3838" d="M412.017,532.884c-0.29-0.121-0.58-0.241-0.87-0.362
			C411.437,532.643,411.727,532.763,412.017,532.884z"/>
		<path fill-rule="evenodd" clip-rule="evenodd" fill="#3A3838" d="M325.529,512.423c0.247,0.344,0.493,0.688,0.74,1.031
			C326.022,513.11,325.776,512.767,325.529,512.423z"/>
		<path fill-rule="evenodd" clip-rule="evenodd" fill="#3A3838" d="M322.996,508.962c0.246,0.301,0.493,0.603,0.74,0.903
			C323.489,509.564,323.242,509.263,322.996,508.962z"/>
		<path fill-rule="evenodd" clip-rule="evenodd" fill="#363534" d="M343.507,470.05c-0.188-0.389-0.375-0.777-0.562-1.165
			C343.132,469.272,343.319,469.661,343.507,470.05z"/>
		<path fill-rule="evenodd" clip-rule="evenodd" fill="#363534" d="M342.525,467.896c-0.144-0.396-0.286-0.791-0.43-1.187
			C342.239,467.104,342.382,467.5,342.525,467.896z"/>
		<path fill-rule="evenodd" clip-rule="evenodd" fill="#363534" d="M357.123,454.12c-0.02-0.312-0.038-0.625-0.058-0.937
			c0.227,0.187,0.453,0.373,0.68,0.561C357.538,453.869,357.331,453.995,357.123,454.12z"/>
		<path fill-rule="evenodd" clip-rule="evenodd" fill="none" d="M291.931,484.054c0.164-0.067,0.328-0.135,0.493-0.201
			c0.007,0.226,0.014,0.451,0.021,0.677C292.273,484.371,292.102,484.212,291.931,484.054z"/>
	</g>
</g>
</svg>
