<?xml version="1.0" encoding="utf-8"?>
<!-- Generator: Adobe Illustrator 16.0.0, SVG Export Plug-In . SVG Version: 6.00 Build 0)  -->
<!DOCTYPE svg PUBLIC "-//W3C//DTD SVG 1.1//EN" "http://www.w3.org/Graphics/SVG/1.1/DTD/svg11.dtd">
<svg version="1.1" id="Layer_1" xmlns="http://www.w3.org/2000/svg" xmlns:xlink="http://www.w3.org/1999/xlink" x="0px" y="0px"
	 width="960px" height="560px" viewBox="0 0 960 560" enable-background="new 0 0 960 560" xml:space="preserve">
<g>
	<g>
		<path fill="none" d="M81,611c0-200,0-400,0-600c266.667,0,533.333,0,800,0c0,200,0,400,0,600C614.333,611,347.667,611,81,611z
			 M481.129,183.684c-1.12,1.622-1.693,2.114-1.837,2.709c-3.271,13.517-8.961,25.997-16.002,37.925
			c-9.48,16.059-18.932,32.135-28.332,48.24c-10.304,17.655-20.515,35.331-27.657,54.625c-6.672,18.024-7.416,35.988-0.607,54.002
			c8.563,22.658,23.607,39.453,45.815,49.618c13.406,6.138,27.26,7.96,41.649,4.583c18.115-4.253,33.56-12.697,45.595-27.45
			c12.518-15.341,19.063-32.796,20.092-52.229c0.608-11.466-2.464-22.548-6.719-33.257c-7.73-19.451-19.339-36.698-30.411-54.267
			c-13.938-22.115-27.378-44.492-35.812-69.459C485.328,194.063,483.385,189.526,481.129,183.684z"/>
		<path fill="#EF2525" d="M481.129,183.684c2.256,5.843,4.199,10.38,5.773,15.041c8.434,24.967,21.873,47.344,35.812,69.459
			c11.072,17.568,22.681,34.815,30.411,54.267c4.255,10.709,7.327,21.791,6.719,33.257c-1.028,19.433-7.574,36.888-20.092,52.229
			c-12.035,14.753-27.479,23.197-45.595,27.45c-14.39,3.377-28.243,1.555-41.649-4.583c-22.208-10.165-37.253-26.96-45.815-49.618
			c-6.808-18.014-6.063-35.978,0.607-54.002c7.143-19.294,17.354-36.97,27.657-54.625c9.4-16.105,18.852-32.182,28.332-48.24
			c7.042-11.928,12.733-24.408,16.002-37.925C479.436,185.798,480.009,185.306,481.129,183.684z M504.508,414.86
			c-22.335,7.299-43.842,6.429-62.912-8.101c-18.812-14.332-28.644-33.11-23.359-58.747c-8.391,10.117-8.38,38.638,9.769,57.33
			C448.101,426.044,480.324,430.193,504.508,414.86z"/>
		<path fill="none" d="M504.508,414.86c-24.184,15.333-56.407,11.184-76.503-9.518c-18.148-18.692-18.159-47.213-9.769-57.33
			c-5.283,25.637,4.548,44.415,23.359,58.747C460.666,421.289,482.173,422.159,504.508,414.86z"/>
	</g>
</g>
</svg>
