<?xml version="1.0" encoding="utf-8"?>
<!-- Generator: Adobe Illustrator 16.0.3, SVG Export Plug-In . SVG Version: 6.00 Build 0)  -->
<!DOCTYPE svg PUBLIC "-//W3C//DTD SVG 1.1//EN" "http://www.w3.org/Graphics/SVG/1.1/DTD/svg11.dtd">
<svg version="1.1" id="Boat_xA0_Image_1_" xmlns="http://www.w3.org/2000/svg" xmlns:xlink="http://www.w3.org/1999/xlink" x="0px"
	 y="0px" width="800px" height="600px" viewBox="0 0 800 600" enable-background="new 0 0 800 600" xml:space="preserve">
<g>
	<g>
		<path fill="#FFFFFF" stroke="#757575" stroke-miterlimit="10" d="M338.184,286.165c0-3.975,0-7.553,0-11.098
			c16.784,0,32.995,0,49.76,0c0,3.722,0,7.016,0,10.31c0.298-0.004,0.599-0.008,0.897-0.013c0.148-3.41,0.298-6.818,0.452-10.352
			c16.558,0,32.771,0,49.555,0c0,3.945,0,7.52,0,11.152c5.638,0,10.693,0,16.32,0c0-6.967,0-13.543,0-20.098
			c21.457,0,42.332,0,63.769,0c0,7.01,0,13.595,0,20.235c3.621,0.208,6.685,0.386,10.397,0.599
			c-9.532,31.096-18.877,61.569-28.242,92.124c-84.577,0-168.698,0-253.27,0c-23.588-30.385-47.33-60.969-71.848-92.551
			c6.701,0,12.1,0,18.051,0c0-10.801,0-21.043,0-31.966c4.935,0,9.315,0,14.187,0c0-7.939,0-15.192,0-22.947
			c9.096,0,17.682,0,26.748,0c0-35.77,0-71.027,0-106.582c1.713,0,2.934,0,4.807,0c0,35.492,0,70.881,0,106.779
			c8.226,0,15.812,0,24.078,0c0,7.882,0,15.265,0,23.126c5.946,0,11.198,0,16.833,0c0,10.631,0,20.752,0,31.279
			C300.17,286.161,318.894,286.161,338.184,286.165z M253.843,302.83c-5.215-6.624-24.338-6.51-29.002,0.172
			C230.054,309.627,249.179,309.514,253.843,302.83z M220.851,302.963c-4.807-6.668-23.916-6.73-29.021-0.092
			C196.64,309.539,215.753,309.602,220.851,302.963z"/>
		<g>
			<g>
				<defs>
					<path id="SVGID_1_" d="M191.83,302.869c5.104-6.636,24.214-6.575,29.021,0.094"/>
				</defs>
				<clipPath id="SVGID_2_">
					<use xlink:href="#SVGID_1_"  overflow="visible"/>
				</clipPath>
				<path clip-path="url(#SVGID_2_)" fill="#FFFFFF" stroke="#757575" stroke-miterlimit="10" d="M486.457,244.066
					c10.914,0,21.422,0,31.858,0c0,6.841,0,13.244,0,19.888c-10.698,0-21.087,0-31.858,0
					C486.457,256.981,486.457,250.461,486.457,244.066z"/>
			</g>
			<g>
				<defs>
					<path id="SVGID_3_" d="M191.83,302.869c5.104-6.636,24.214-6.575,29.021,0.094"/>
				</defs>
				<clipPath id="SVGID_4_">
					<use xlink:href="#SVGID_3_"  overflow="visible"/>
				</clipPath>
				<path clip-path="url(#SVGID_4_)" fill="#FFFFFF" stroke="#757575" stroke-miterlimit="10" d="M456.457,263.907
					c0-6.834,0-13.372,0-19.979c9.123,0,17.867,0,26.877,0c0,6.708,0,13.125,0,19.979
					C474.105,263.907,465.361,263.907,456.457,263.907z"/>
			</g>
			<g>
				<defs>
					<path id="SVGID_5_" d="M191.83,302.869c5.104-6.636,24.214-6.575,29.021,0.094"/>
				</defs>
				<clipPath id="SVGID_6_">
					<use xlink:href="#SVGID_5_"  overflow="visible"/>
				</clipPath>
				<path clip-path="url(#SVGID_6_)" fill="#FFFFFF" stroke="#757575" stroke-miterlimit="10" d="M413.181,272.858
					c-8.174,0-15.92,0-23.676,0c0-6.553,0-12.758,0-19.061c8.051,0,15.679,0,23.676,0
					C413.181,260.532,413.181,266.737,413.181,272.858z"/>
			</g>
			<g>
				<defs>
					<path id="SVGID_7_" d="M191.83,302.869c5.104-6.636,24.214-6.575,29.021,0.094"/>
				</defs>
				<clipPath id="SVGID_8_">
					<use xlink:href="#SVGID_7_"  overflow="visible"/>
				</clipPath>
				<path clip-path="url(#SVGID_8_)" fill="#FFFFFF" stroke="#757575" stroke-miterlimit="10" d="M387.19,263.989
					c0,3.177,0,6.035,0,8.855c-16.511,0-32.584,0-48.885,0c0-3.058,0-5.806,0-8.855C355.006,263.989,371.078,263.989,387.19,263.989
					z"/>
			</g>
			<g>
				<defs>
					<path id="SVGID_9_" d="M191.83,302.869c5.104-6.636,24.214-6.575,29.021,0.094"/>
				</defs>
				<clipPath id="SVGID_10_">
					<use xlink:href="#SVGID_9_"  overflow="visible"/>
				</clipPath>
				<path clip-path="url(#SVGID_10_)" fill="#FFFFFF" stroke="#757575" stroke-miterlimit="10" d="M416.336,272.796
					c0-6.474,0-12.539,0-18.846c7.455,0,14.634,0,22.046,0c0.093,1.419,0.226,2.548,0.231,3.678c0.024,4.946,0.01,9.894,0.01,15.168
					C430.711,272.796,423.529,272.796,416.336,272.796z"/>
			</g>
			<g>
				<defs>
					<path id="SVGID_11_" d="M191.83,302.869c5.104-6.636,24.214-6.575,29.021,0.094"/>
				</defs>
				<clipPath id="SVGID_12_">
					<use xlink:href="#SVGID_11_"  overflow="visible"/>
				</clipPath>
				<path clip-path="url(#SVGID_12_)" fill="#FFFFFF" stroke="#757575" stroke-miterlimit="10" d="M253.843,302.83
					c-4.664,6.684-23.789,6.797-29.002,0.172C229.505,296.321,248.628,296.207,253.843,302.83z"/>
			</g>
		</g>
	</g>
</g>
<rect x="391.476" y="268.5" fill="#FFFFFF" stroke="#757575" stroke-miterlimit="10" width="48" height="4"/>
<rect x="417.809" y="248.5" fill="#FFFFFF" stroke="#757575" stroke-miterlimit="10" width="20.667" height="17"/>
<rect x="390.475" y="248.5" fill="#FFFFFF" stroke="#757575" stroke-miterlimit="10" width="20.667" height="17"/>
<rect x="357.809" y="259.833" fill="#FFFFFF" stroke="#757575" stroke-miterlimit="10" width="29.333" height="11.333"/>
<rect x="341.398" y="259.833" fill="#FFFFFF" stroke="#757575" stroke-miterlimit="10" width="14.513" height="11.333"/>
<rect x="455.809" y="250.833" fill="#FFFFFF" stroke="#757575" stroke-miterlimit="10" width="62.667" height="12.333"/>
<rect x="487.143" y="238.103" fill="#FFFFFF" stroke="#757575" stroke-miterlimit="10" width="31.333" height="9.667"/>
<rect x="455.809" y="238.103" fill="#FFFFFF" stroke="#757575" stroke-miterlimit="10" width="27" height="9.667"/>
</svg>
