<?xml version="1.0" encoding="utf-8"?>
<!-- Generator: Adobe Illustrator 16.0.0, SVG Export Plug-In . SVG Version: 6.00 Build 0)  -->
<!DOCTYPE svg PUBLIC "-//W3C//DTD SVG 1.1//EN" "http://www.w3.org/Graphics/SVG/1.1/DTD/svg11.dtd">
<svg version="1.1" id="Layer_1" xmlns="http://www.w3.org/2000/svg" xmlns:xlink="http://www.w3.org/1999/xlink" x="0px" y="0px"
	 width="1199.85px" height="1584px" viewBox="0 0 1199.85 1584" enable-background="new 0 0 1199.85 1584" xml:space="preserve">
<g>
	<g>
		<path fill-rule="evenodd" clip-rule="evenodd" fill="none" d="M1,1c400.283,0,800.565,0,1200.85,0
			c0,533.599,0,1067.199,0,1600.799c-400.283,0-800.566,0-1200.849,0C1,1068.199,1,534.6,1,1z M513.88,887.475
			c4.781-8.661,9.02-16.35,13.27-24.033c1.918-3.469,1.93-3.467,5.711-2.139c8.102,2.846,16.231,5.614,24.283,8.593
			c2.444,0.904,4.246,0.85,6.302-0.987c4.088-3.65,8.792-6.664,12.594-10.569c4.507-4.629,8.916-5.554,14.249-1.856
			c5.538,3.838,10.625,3.576,15.081-1.79c0.202-0.243,0.303-0.569,0.693-1.329c-0.657-2.325-1.581-4.985-2.153-7.717
			c-2.758-13.152-5.438-26.32-8.111-39.489c-1.086-5.352-2.112-10.715-3.113-16.083c-1.304-6.993-2.524-14.003-3.837-20.995
			c-0.945-5.031-1.999-10.041-2.972-15.067c-0.348-1.796-0.415-3.664-0.923-5.409c-3.941-13.534-3.61-27.445-3.665-41.309
			c-0.025-6.389,0.373-12.778,0.572-19.167c0.35-11.208,0.705-22.416,1.033-33.625c0.135-4.605,0.397-9.217,0.264-13.815
			c-0.295-10.119-0.777-20.233-1.237-30.347c-0.286-6.285-0.285-12.617-1.115-18.834c-0.98-7.342,0.048-14.758-1.653-22.098
			c-1.25-5.395-1.239-11.085-1.756-16.647c-1.187-12.747-2.352-25.495-3.53-38.243c-0.092-0.984-0.109-1.993-0.35-2.942
			c-1.899-7.52-3.94-15.005-5.743-22.548c-1.31-5.483-2.287-11.045-3.479-16.558c-1.467-6.785-3.353-13.5-4.407-20.346
			c-0.97-6.303-0.66-12.807-1.669-19.101c-1.354-8.435,0.158-15.877,4.812-23.069c3.927-6.07,7.987-12.21,9.132-19.654
			c0.446-2.9,0.676-5.956,1.796-8.604c3.195-7.555,2.225-14.803-1-21.925c-1.635-3.609-3.476-7.001-0.744-10.856
			c0.355-0.501,0.318-1.275,0.494-1.914c1.331-4.816,1.016-10.206,5.275-14.007c0.82-0.732,0.67-2.488,1.119-3.715
			c1.406-3.841,1.971-8.503,4.549-11.28c3.879-4.177,3.819-9.202,5.322-13.907c0.892-2.789,1.05-6.076,2.672-8.318
			c5.033-6.95,10.415-13.678,16.091-20.114c1.7-1.927,4.755-2.74,7.291-3.824c1.662-0.71,3.558-0.856,5.26-1.491
			c2.947-1.097,5.789-1.084,8.7,0.105c2.696,1.1,5.416,2.79,8.187,2.921c5.622,0.269,11.729,2.584,16.66-2.509
			c0.58-0.598,1.924-0.398,2.852-0.738c0.872-0.32,1.771-0.736,2.466-1.334c2.763-2.372,5.391-4.901,8.177-7.241
			c5.251-4.408,9.213-9.904,13.255-15.344c5.472-7.366,6.946-16.453,10.606-24.598c0.271-0.604,0.605-1.269,0.586-1.896
			c-0.158-5.091-0.326-10.184-0.624-15.268c-0.319-5.451-1.578-10.99-0.926-16.308c0.504-4.111-0.941-6.944-2.52-10.169
			c-1.139-2.324-1.867-4.846-2.949-7.201c-1.777-3.867-3.716-7.658-5.543-11.502c-2.442-5.14-6.974-8.351-11.251-11.616
			c-6.42-4.903-11.948-11.113-20.399-13.143c-6.216-1.493-12.13-4.206-18.288-5.999c-3.11-0.906-6.484-1.443-9.706-1.315
			c-5.077,0.202-10.124,1.137-15.19,1.706c-7.688,0.863-14.877,3.103-21.48,7.245c-4.299,2.697-8.596,5.5-13.197,7.593
			c-7.058,3.209-11.511,8.598-14.775,15.34c-3.105,6.414-6.072,12.922-9.664,19.059c-1.767,3.016-4.072,6.563-8.942,5.107
			c-0.565,2.678-1.816,4.226-4.876,3.588c-4.451-0.927-4.871-0.42-5.103,4.159c-0.058,1.141-0.524,2.898-1.306,3.248
			c-2.534,1.134-5.271,2.303-7.984,2.449c-7.103,0.384-14.048-0.464-20.719-3.438c-6.149-2.74-7.391-4.703-7.246-11.622
			c0.123-5.884,0.071-11.876-4.521-16.623c-4.173-4.313-9.289-7.349-14.995-5.316c-4.696,1.674-8.975,2.915-14.056,2.765
			c-3.805-0.111-7.586,0.368-11.234-1.017c-3.556-1.349-6.736-0.31-9.24,2.007c-2.121,1.962-3.796,4.515-5.271,7.039
			c-3.08,5.27-5.726,10.797-8.861,16.031c-5.443,9.087-12.166,17.507-13.956,28.399c-0.236,1.434-0.955,2.825-1.629,4.145
			c-2.362,4.625-4.817,9.201-7.209,13.811c-2.48,4.78-5.212,9.455-7.324,14.395c-3.027,7.081-3.521,14.674-3.906,22.309
			c-0.259,5.155,1.37,10.537-1.664,15.511c-0.576,0.944,0.113,2.914,0.649,4.236c1.7,4.194,5.306,7.495,5.73,12.327
			c0.064,0.736,0.791,1.435,1.266,2.111c3.122,4.436,6.566,8.68,9.302,13.34c2.65,4.513,5.272,9.255,6.665,14.244
			c2.394,8.576,3.955,17.396,5.617,26.162c1.399,7.385,2.623,14.762,2.273,22.407c-0.262,5.72,0.661,11.505,1.203,17.246
			c0.309,3.278,1.09,6.514,1.346,9.794c0.539,6.874,0.949,13.762,1.261,20.65c0.225,4.946,0.114,9.906,0.316,14.854
			c0.235,5.766,0.587,11.529,1.01,17.284c0.262,3.567,0.997,7.111,1.083,10.676c0.151,6.28-0.673,12.647,0.104,18.828
			c0.772,6.139-0.755,12.5,1.811,18.454c0.291,0.677-0.147,1.638-0.122,2.464c0.05,1.66,0.024,3.346,0.313,4.971
			c2.219,12.536,4.573,25.046,6.752,37.588c1.544,8.887,2.801,17.823,4.336,26.711c1.041,6.03,2.229,12.039,3.556,18.012
			c1.323,5.949,2.944,11.832,4.36,17.76c1.383,5.794,2.579,11.633,4.031,17.409c1.155,4.596,2.588,9.123,3.868,13.688
			c0.885,3.16,1.704,6.338,2.581,9.5c0.397,1.432,0.891,2.837,1.294,4.268c1.603,5.688,2.907,11.479,4.838,17.053
			c3.401,9.816,7.192,19.497,10.797,29.243c3.245,8.774,6.475,17.553,9.672,26.344c0.726,1.995,1.313,4.042,1.929,6.075
			c0.854,2.82,1.061,6.069,2.64,8.388c3.174,4.66,3.958,10.076,5.867,15.118c2.365,6.246,2.639,12.995,3.944,19.479
			c1.274,6.331,2.472,12.771,3.108,19.281c0.488,4.994,2.295,9.847,3.279,14.809c0.471,2.374,0.21,4.887,0.601,7.283
			c0.604,3.705,1.334,7.403,2.281,11.034c1.177,4.504-0.706,9.502,2.32,13.718c0.382,0.532,0.389,1.915-0.015,2.319
			c-1.213,1.213-0.397,2.331-0.417,3.579c-0.102,6.603,3.423,12.349,4.098,18.782C511.251,877.204,512.643,881.741,513.88,887.475z
			 M558.78,901.367c-0.237,1.417-0.558,2.229-0.472,2.995c0.402,3.563,1.027,7.104,1.342,10.673
			c0.141,1.592-0.418,3.236-0.386,4.853c0.174,8.697,0.458,17.393,0.659,26.089c0.358,15.471,0.691,30.941,1.009,46.412
			c0.027,1.324,0.011,2.681-0.244,3.971c-1.037,5.246-0.895,10.486-0.441,15.786c0.433,5.062,0.618,10.161,0.591,15.242
			c-0.024,4.615-0.486,9.227-0.744,13.84c-0.484,8.671,0.892,17.597-3.664,25.716c-0.396,0.706-0.096,1.905,0.104,2.827
			c0.756,3.488,1.36,7.037,2.469,10.416c1.871,5.701-0.22,11.319-0.038,16.994c0.299,9.347-0.518,18.726-0.771,28.095
			c-0.193,7.209,0.254,14.473-0.49,21.619c-0.794,7.626-2.108,15.161-1.835,22.898c0.161,4.578-0.54,9.185-0.808,13.781
			c-0.455,7.754-0.688,15.526-1.359,23.262c-0.713,8.218-1.719,16.415-2.81,24.594c-0.57,4.275-2.306,8.43-1.007,12.853
			c0.079,0.272-0.146,0.63-0.213,0.951c-1.515,7.244-3.717,14.431-4.328,21.75c-0.515,6.18-3.253,11.43-5.593,16.623
			c-3.83,8.504-8.249,16.813-14.464,24.145c-3.613,4.263-7.459,8.109-11.646,11.665c-4.903,4.161-9.59,8.666-10.494,15.185
			c-0.752,5.421-2.421,10.484-3.822,15.679c-2.158,8.004-3.625,16.076-3.019,24.457c0.292,4.05-0.174,8.15-0.027,12.219
			c0.07,1.943,0.516,3.963,1.231,5.773c1.498,3.797,3.18,7.53,4.989,11.189c1.305,2.639,1.688,5.124,0.972,8.091
			c-2.012,8.341-2.135,16.818,0.695,24.958c1.321,3.802,3.833,7.415,7.913,8.986c3.18,1.224,6.541,2.222,9.908,2.665
			c5.268,0.692,10.413,1.613,15.41,3.499c2.798,1.055,5.597,3.011,8.889,1.084c0.444-0.26,1.449,0.623,2.223,0.709
			c4.198,0.465,8.599,1.811,12.559,1.013c4.968-1.001,9.32-4.081,14.919-3.897c2.435,0.08,5.088-0.379,7.725-0.275
			c1.964,0.076,5.209-0.365,5.71-1.52c1.241-2.857,3.227-2.32,5.279-2.464c1.479-0.103,3.31,0.237,4.363-0.503
			c3.221-2.267,6.757-1.555,10.1-1.347c5.602,0.347,11.491,1.212,15.897,4.687c5.776,4.557,12.488,7.256,18.669,10.96
			c2.988,1.791,7.021,1.904,9.888,3.816c5.642,3.764,11.934,5.263,18.316,6.646c4.872,1.056,10.096,1.065,14.662,2.832
			c7.52,2.909,18.458-2.176,22.217-7.674c5.291-7.736,9.956-15.902,14.922-23.862c0.783-1.255,1.728-2.413,2.634-3.588
			c4.599-5.964,9.489-11.729,13.737-17.933c4.014-5.864,6.633-12.597,7.564-19.603c0.822-6.183,0.38-12.535,0.444-18.813
			c0.036-3.464-0.602-7.048,0.096-10.36c0.781-3.718,0.965-7.23-0.336-10.694c-2.307-6.14-4.466-12.383-7.392-18.231
			c-4.431-8.86-11.483-15.073-20.782-18.849c-5.878-2.385-8.754-7.692-10.917-13.281c-2.362-6.104-3.979-12.545-6.82-18.402
			c-3.15-6.496-6.26-12.95-8.05-19.945c-2.11-8.251-4.216-16.512-5.949-24.847c-1.336-6.427-2.159-12.965-3.088-19.472
			c-0.789-5.532-1.402-11.09-2.095-16.636c-1.286-10.318-2.683-20.625-3.825-30.959c-0.817-7.398-1.276-14.836-1.93-22.254
			c-0.682-7.732-1.421-15.461-2.105-23.193c-0.468-5.282-0.849-10.572-1.334-15.854c-0.864-9.409-1.896-18.806-2.64-28.226
			c-0.898-11.378-1.538-22.776-2.355-34.162c-0.494-6.891-1.135-13.771-1.669-20.658c-1.063-13.721-2.063-27.445-3.159-41.164
			c-0.897-11.231-1.932-22.453-2.833-33.685c-0.489-6.097-0.748-12.211-1.252-18.306c-0.788-9.517-1.838-19.012-2.518-28.534
			c-0.864-12.104-1.469-24.225-2.251-37.451c-3.437,4.171-6.128,7.438-9.003,10.929c-5.111-5.007-10.015-9.811-15.023-14.717
			c-6.148,9.185-11.923,17.808-17.965,26.831c-9.153-9.142-18.018-17.996-26.996-26.964c-8.229,10.259-16.004,19.949-23.792,29.658
			C561.036,902.439,560.19,902.038,558.78,901.367z"/>
		<path fill-rule="evenodd" clip-rule="evenodd" fill="#010101" d="M513.88,887.475c-1.237-5.733-2.628-10.271-3.114-14.901
			c-0.675-6.434-4.2-12.18-4.098-18.782c0.02-1.248-0.796-2.366,0.417-3.579c0.403-0.404,0.396-1.787,0.015-2.319
			c-3.026-4.216-1.144-9.214-2.32-13.718c-0.947-3.631-1.677-7.329-2.281-11.034c-0.391-2.396-0.13-4.909-0.601-7.283
			c-0.983-4.962-2.791-9.814-3.279-14.809c-0.636-6.51-1.834-12.95-3.108-19.281c-1.305-6.484-1.579-13.233-3.944-19.479
			c-1.909-5.042-2.693-10.458-5.867-15.118c-1.58-2.319-1.787-5.567-2.64-8.388c-0.616-2.034-1.203-4.08-1.929-6.075
			c-3.198-8.791-6.428-17.57-9.672-26.344c-3.605-9.746-7.396-19.426-10.797-29.243c-1.932-5.574-3.236-11.365-4.838-17.053
			c-0.403-1.431-0.896-2.836-1.294-4.268c-0.876-3.162-1.696-6.34-2.581-9.5c-1.279-4.566-2.712-9.093-3.868-13.688
			c-1.452-5.776-2.648-11.615-4.031-17.409c-1.416-5.929-3.037-11.811-4.36-17.76c-1.328-5.973-2.515-11.982-3.556-18.012
			c-1.535-8.888-2.792-17.825-4.336-26.711c-2.179-12.542-4.533-25.052-6.752-37.588c-0.288-1.625-0.263-3.311-0.313-4.971
			c-0.025-0.826,0.413-1.788,0.122-2.464c-2.566-5.955-1.038-12.315-1.811-18.454c-0.778-6.181,0.047-12.548-0.104-18.828
			c-0.085-3.565-0.821-7.109-1.083-10.676c-0.423-5.755-0.774-11.518-1.01-17.284c-0.202-4.947-0.092-9.908-0.316-14.854
			c-0.312-6.889-0.722-13.776-1.261-20.65c-0.256-3.28-1.038-6.516-1.346-9.794c-0.542-5.741-1.465-11.526-1.203-17.246
			c0.35-7.646-0.874-15.022-2.273-22.407c-1.662-8.766-3.223-17.585-5.617-26.162c-1.393-4.989-4.015-9.731-6.665-14.244
			c-2.736-4.661-6.18-8.904-9.302-13.34c-0.476-0.677-1.202-1.375-1.266-2.111c-0.424-4.832-4.03-8.133-5.73-12.327
			c-0.536-1.322-1.226-3.292-0.649-4.236c3.034-4.974,1.405-10.356,1.664-15.511c0.385-7.635,0.878-15.229,3.906-22.309
			c2.112-4.939,4.844-9.615,7.324-14.395c2.392-4.609,4.847-9.186,7.209-13.811c0.674-1.32,1.393-2.711,1.629-4.145
			c1.791-10.892,8.513-19.312,13.956-28.399c3.135-5.234,5.781-10.761,8.861-16.031c1.474-2.524,3.15-5.077,5.271-7.039
			c2.504-2.317,5.684-3.356,9.24-2.007c3.648,1.385,7.429,0.905,11.234,1.017c5.082,0.149,9.36-1.091,14.056-2.765
			c5.706-2.033,10.822,1.003,14.995,5.316c4.593,4.746,4.645,10.739,4.521,16.623c-0.146,6.918,1.097,8.882,7.246,11.622
			c6.671,2.974,13.616,3.821,20.719,3.438c2.714-0.146,5.451-1.315,7.984-2.449c0.781-0.35,1.248-2.107,1.306-3.248
			c0.232-4.579,0.652-5.085,5.103-4.159c3.06,0.638,4.311-0.91,4.876-3.588c4.871,1.456,7.176-2.091,8.942-5.107
			c3.592-6.137,6.559-12.646,9.664-19.059c3.264-6.742,7.718-12.13,14.775-15.34c4.601-2.092,8.898-4.896,13.197-7.593
			c6.603-4.142,13.792-6.382,21.48-7.245c5.066-0.569,10.113-1.504,15.19-1.706c3.222-0.128,6.596,0.409,9.706,1.315
			c6.158,1.792,12.072,4.505,18.288,5.999c8.451,2.03,13.979,8.24,20.399,13.143c4.277,3.265,8.809,6.476,11.251,11.616
			c1.827,3.844,3.766,7.636,5.543,11.502c1.082,2.355,1.811,4.877,2.949,7.201c1.578,3.225,3.023,6.058,2.52,10.169
			c-0.652,5.317,0.606,10.857,0.926,16.308c0.298,5.084,0.466,10.176,0.624,15.268c0.02,0.627-0.315,1.292-0.586,1.896
			c-3.66,8.145-5.135,17.231-10.606,24.598c-4.042,5.44-8.004,10.936-13.255,15.344c-2.786,2.34-5.414,4.87-8.177,7.241
			c-0.695,0.598-1.594,1.014-2.466,1.334c-0.928,0.339-2.271,0.14-2.852,0.738c-4.932,5.093-11.038,2.777-16.66,2.509
			c-2.771-0.132-5.49-1.821-8.187-2.921c-2.911-1.189-5.753-1.202-8.7-0.105c-1.702,0.634-3.598,0.781-5.26,1.491
			c-2.536,1.084-5.591,1.896-7.291,3.824c-5.676,6.436-11.058,13.164-16.091,20.114c-1.623,2.242-1.781,5.53-2.672,8.318
			c-1.503,4.706-1.442,9.73-5.322,13.907c-2.579,2.777-3.143,7.439-4.549,11.28c-0.449,1.227-0.298,2.983-1.119,3.715
			c-4.259,3.801-3.944,9.191-5.275,14.007c-0.176,0.639-0.139,1.412-0.494,1.914c-2.732,3.855-0.891,7.248,0.744,10.856
			c3.225,7.122,4.195,14.37,1,21.925c-1.12,2.649-1.35,5.705-1.796,8.604c-1.145,7.443-5.206,13.584-9.132,19.654
			c-4.654,7.192-6.166,14.635-4.812,23.069c1.009,6.294,0.699,12.798,1.669,19.101c1.054,6.846,2.939,13.562,4.407,20.346
			c1.192,5.513,2.169,11.075,3.479,16.558c1.803,7.543,3.843,15.029,5.743,22.548c0.24,0.949,0.258,1.958,0.35,2.942
			c1.178,12.749,2.343,25.497,3.53,38.243c0.518,5.562,0.506,11.252,1.756,16.647c1.701,7.34,0.673,14.756,1.653,22.098
			c0.83,6.217,0.829,12.549,1.115,18.834c0.459,10.114,0.942,20.228,1.237,30.347c0.134,4.599-0.129,9.21-0.264,13.815
			c-0.328,11.208-0.683,22.416-1.033,33.625c-0.199,6.389-0.598,12.779-0.572,19.167c0.055,13.864-0.276,27.775,3.665,41.309
			c0.508,1.745,0.575,3.613,0.923,5.409c0.973,5.026,2.027,10.036,2.972,15.067c1.313,6.992,2.534,14.002,3.837,20.995
			c1.001,5.368,2.027,10.731,3.113,16.083c2.672,13.169,5.353,26.337,8.111,39.489c0.572,2.731,1.496,5.392,2.153,7.717
			c-0.391,0.76-0.491,1.086-0.693,1.329c-4.456,5.366-9.543,5.628-15.081,1.79c-5.333-3.697-9.742-2.772-14.249,1.856
			c-3.802,3.905-8.506,6.919-12.594,10.569c-2.056,1.837-3.858,1.892-6.302,0.987c-8.052-2.979-16.182-5.747-24.283-8.593
			c-3.781-1.328-3.792-1.33-5.711,2.139C522.899,871.125,518.661,878.813,513.88,887.475z"/>
		<path fill-rule="evenodd" clip-rule="evenodd" d="M558.78,901.367c1.411,0.671,2.256,1.072,3.351,1.593
			c7.788-9.709,15.563-19.399,23.792-29.658c8.978,8.968,17.843,17.822,26.996,26.964c6.042-9.023,11.816-17.646,17.965-26.831
			c5.009,4.906,9.912,9.71,15.023,14.717c2.875-3.491,5.566-6.758,9.003-10.929c0.782,13.227,1.387,25.348,2.251,37.451
			c0.68,9.522,1.729,19.018,2.518,28.534c0.504,6.095,0.763,12.209,1.252,18.306c0.901,11.231,1.936,22.453,2.833,33.685
			c1.096,13.719,2.096,27.443,3.159,41.164c0.534,6.888,1.175,13.768,1.669,20.658c0.817,11.386,1.457,22.784,2.355,34.162
			c0.744,9.42,1.775,18.816,2.64,28.226c0.485,5.281,0.866,10.571,1.334,15.854c0.685,7.732,1.424,15.461,2.105,23.193
			c0.653,7.418,1.112,14.855,1.93,22.254c1.143,10.334,2.539,20.641,3.825,30.959c0.692,5.546,1.306,11.104,2.095,16.636
			c0.929,6.507,1.752,13.045,3.088,19.472c1.733,8.335,3.839,16.596,5.949,24.847c1.79,6.995,4.899,13.449,8.05,19.945
			c2.841,5.857,4.458,12.298,6.82,18.402c2.163,5.589,5.039,10.896,10.917,13.281c9.299,3.775,16.352,9.988,20.782,18.849
			c2.926,5.849,5.085,12.092,7.392,18.231c1.301,3.464,1.117,6.977,0.336,10.694c-0.697,3.313-0.06,6.896-0.096,10.36
			c-0.064,6.278,0.378,12.631-0.444,18.813c-0.932,7.006-3.551,13.738-7.564,19.603c-4.248,6.204-9.139,11.969-13.737,17.933
			c-0.906,1.175-1.851,2.333-2.634,3.588c-4.966,7.96-9.631,16.126-14.922,23.862c-3.759,5.498-14.697,10.583-22.217,7.674
			c-4.566-1.767-9.79-1.776-14.662-2.832c-6.383-1.384-12.675-2.883-18.316-6.646c-2.867-1.912-6.899-2.025-9.888-3.816
			c-6.181-3.704-12.893-6.403-18.669-10.96c-4.406-3.475-10.296-4.34-15.897-4.687c-3.343-0.208-6.879-0.92-10.1,1.347
			c-1.053,0.74-2.884,0.4-4.363,0.503c-2.052,0.144-4.039-0.394-5.279,2.464c-0.501,1.154-3.747,1.596-5.71,1.52
			c-2.636-0.104-5.29,0.355-7.725,0.275c-5.599-0.184-9.951,2.896-14.919,3.897c-3.96,0.798-8.361-0.548-12.559-1.013
			c-0.774-0.086-1.779-0.969-2.223-0.709c-3.292,1.927-6.09-0.029-8.889-1.084c-4.998-1.886-10.142-2.807-15.41-3.499
			c-3.367-0.443-6.728-1.441-9.908-2.665c-4.08-1.571-6.592-5.185-7.913-8.986c-2.83-8.14-2.707-16.617-0.695-24.958
			c0.716-2.967,0.333-5.452-0.972-8.091c-1.809-3.659-3.491-7.393-4.989-11.189c-0.715-1.811-1.161-3.83-1.231-5.773
			c-0.146-4.068,0.319-8.169,0.027-12.219c-0.605-8.381,0.861-16.453,3.019-24.457c1.4-5.194,3.07-10.258,3.822-15.679
			c0.903-6.519,5.591-11.023,10.494-15.185c4.187-3.556,8.033-7.402,11.646-11.665c6.215-7.332,10.634-15.641,14.464-24.145
			c2.339-5.193,5.078-10.443,5.593-16.623c0.61-7.319,2.813-14.506,4.328-21.75c0.066-0.321,0.292-0.679,0.213-0.951
			c-1.299-4.423,0.437-8.577,1.007-12.853c1.091-8.179,2.097-16.376,2.81-24.594c0.672-7.735,0.904-15.508,1.359-23.262
			c0.269-4.597,0.969-9.203,0.808-13.781c-0.273-7.737,1.041-15.272,1.835-22.898c0.744-7.146,0.297-14.41,0.49-21.619
			c0.253-9.369,1.07-18.748,0.771-28.095c-0.182-5.675,1.909-11.293,0.038-16.994c-1.109-3.379-1.713-6.928-2.469-10.416
			c-0.199-0.922-0.5-2.121-0.104-2.827c4.555-8.119,3.179-17.045,3.664-25.716c0.258-4.613,0.72-9.225,0.744-13.84
			c0.027-5.081-0.158-10.181-0.591-15.242c-0.453-5.3-0.596-10.54,0.441-15.786c0.255-1.29,0.271-2.646,0.244-3.971
			c-0.317-15.471-0.65-30.941-1.009-46.412c-0.201-8.696-0.485-17.392-0.659-26.089c-0.032-1.616,0.526-3.261,0.386-4.853
			c-0.315-3.569-0.94-7.109-1.342-10.673C558.222,903.596,558.542,902.784,558.78,901.367z"/>
	</g>
</g>
</svg>
