<?xml version="1.0" encoding="utf-8"?>
<!-- Generator: Adobe Illustrator 16.0.0, SVG Export Plug-In . SVG Version: 6.00 Build 0)  -->
<!DOCTYPE svg PUBLIC "-//W3C//DTD SVG 1.1//EN" "http://www.w3.org/Graphics/SVG/1.1/DTD/svg11.dtd">
<svg version="1.1" id="boy.slave_xA0_Image_1_" xmlns="http://www.w3.org/2000/svg" xmlns:xlink="http://www.w3.org/1999/xlink"
	 x="0px" y="0px" width="306.031px" height="801.08px" viewBox="213.304 175.282 306.031 801.08"
	 enable-background="new 213.304 175.282 306.031 801.08" xml:space="preserve">
<g>
	<g>
		<path fill="none" d="M1,1097C1,731.667,1,366.333,1,1c242.667,0,485.333,0,728,0c0,365.333,0,730.666,0,1096
			C486.333,1097,243.667,1097,1,1097z M450.565,624.644c1.405,0.371,2.922,1.287,4.199,1.028
			c10.657-2.158,22.195-3.031,27.346-15.032c3.382-7.882,7.104-15.714,5.007-24.841c-1.261-5.486-2.792-11.188-2.507-16.707
			c1.312-25.459,3.327-50.881,4.845-76.331c0.413-6.924,0.737-14.007-0.224-20.83c-2.753-19.561-10.057-38.307-10.674-58.271
			c-0.049-1.555,0.255-3.742,1.27-4.6c4.641-3.922,5.454-5.515,1.645-10.247c-5.623-6.987-7.392-15.183-8.601-23.548
			c-2.1-14.532-6.066-28.459-12.289-41.737c-0.438-0.934-1.521-1.733-2.491-2.22c-13.376-6.688-26.769-13.343-40.191-19.936
			c-6.441-3.164-12.955-6.18-19.622-9.351c0-0.513-0.137-1.351,0.021-2.129c2.279-11.367,5.213-22.645,6.733-34.11
			c1.502-11.33,2.203-22.933-1.291-34.114c-1.613-5.162-3.137-11.084-6.67-14.771c-8.702-9.078-18.853-16.032-32.64-10.52
			c-0.814,0.326-1.953-0.011-2.908-0.205c-7.571-1.541-27.306,10.498-30.335,17.476c-2.858,6.581-5.776,12.729-5.803,20.217
			c-0.031,8.89,0.385,17.404,4.112,25.735c5.286,11.814,9.941,23.911,14.786,35.92c0.384,0.952,0.609,2.761,0.109,3.152
			c-5.429,4.258-10.786,8.688-16.645,12.287c-3.881,2.384-9.539,2.449-12.646,5.4c-6.45,6.13-13.938,9.423-22.159,11.816
			c-1.498,0.438-3.539,1.169-4.092,2.348c-3.812,8.111-8.326,16.101-10.638,24.661c-3.284,12.162-4.561,24.853-7.325,37.175
			c-1.192,5.315-0.627,9.25,3.565,12.836c1.142,0.978,1.999,3.206,1.797,4.699c-3.067,22.765-6.267,45.51-15.002,67.021
			c-0.914,2.251-1.335,4.811-1.466,7.254c-1.752,32.731-4.027,65.404-9.645,97.757c-0.448,2.581-0.498,5.43,0.107,7.952
			c1.23,5.13,2.795,10.216,4.701,15.135c0.973,2.513,2.483,5.385,4.612,6.771c6.429,4.192,13.279,7.737,19.965,11.534
			c0.63-0.339,1.261-0.679,1.891-1.018c-0.192-2.59-0.384-5.179-0.57-7.687c2.854,0.413,4.056-2.162,2.915-4.386
			c-2.969-5.786-0.59-11.176,0.372-16.636c0.91-5.166,0-9.837-2.146-14.489c-1.811-3.925-3.389-7.957-4.991-11.976
			c-3.584-8.987-4.62-17.008,0.361-26.868c7.368-14.587,12.724-30.429,17.063-46.249c6.685-24.372,11.779-49.182,17.567-73.8
			c0.316-1.346,0.815-2.648,1.229-3.971c2.34,12.063,5.065,23.938,1.345,36.003c-0.511,1.657-0.524,3.479-0.681,5.231
			c-0.433,4.86,0.008,9.992-1.454,14.514c-1.515,4.684-2.619,8.976-2.069,13.99c0.649,5.931,0.536,11.999,0.15,17.97
			c-0.287,4.431-0.343,9.608-2.644,13.002c-3.25,4.79-3.931,9.398-3.689,14.749c0.24,5.317-0.17,10.666,0.071,15.983
			c0.117,2.583,1.733,5.187,1.515,7.68c-0.579,6.618-2.502,13.171-2.607,19.77c-0.287,18.027-2.326,35.79-4.964,53.62
			c-1.635,11.049,0.188,22.565-0.309,33.838c-0.572,12.994,1.346,25.921-2.248,39.098c-1.9,6.966,2.166,15.56,3.665,24.141
			c-3.347,2.699-7.907,5.946-5.708,13.104c0.625,2.032-1.659,4.894-2.41,7.433c-0.737,2.495-2.195,5.311-1.626,7.552
			c1.429,5.629,1.19,10.76-1.6,15.83c-0.466,0.847-0.832,1.888-0.823,2.835c0.092,10.45,0.365,20.9,0.377,31.351
			c0.006,4.789-0.492,9.578-0.69,14.37c-0.15,3.62-0.05,7.255-0.308,10.863c-0.343,4.796-0.348,9.729-1.562,14.319
			c-1.344,5.079-4.533,9.686-5.761,14.776c-1.834,7.606-3.498,15.122,0.602,23.119c3.734,7.284,7.641,15.588,7.595,23.419
			c-0.056,9.669-2.917,19.835-6.811,28.813c-3.42,7.886,0.146,12.096,7.419,13.274c9.166,1.487,18.57,1.561,27.881,2.067
			c3.969,0.216,9.51-3.599,9.905-7.4c0.804-7.709,1.235-15.49,1.188-23.238c-0.021-3.609-1.661-7.085,3.146-9.053
			c1.047-0.429,1.481-2.827,1.834-4.4c1.601-7.141,3.02-14.241,8.01-20.131c2.481-2.929,3.367-6.519,2.224-10.719
			c-0.881-3.234-0.898-6.917-0.412-10.271c1.125-7.775,3.584-15.424,4.064-23.212c0.932-15.088-0.343-30.394,1.569-45.316
			c1.862-14.529,2.862-29.294,7.832-43.499c3.035-8.676,3.271-18.386,4.314-27.682c0.533-4.752-0.421-9.677,0.164-14.416
			c1.384-11.222,3.26-22.384,4.984-33.563c1.09-7.057,2.134-14.126,3.445-21.143c1.117-5.968,3.057-11.812,3.807-17.813
			c1.365-10.913,2.117-21.904,3.125-32.863c1.216,3.812,1.43,7.62,1.959,11.383c1.982,14.064,0.311,28.697,6.627,42.107
			c0.896,1.9,1.063,4.182,1.386,6.313c1.916,12.666,3.728,25.35,5.676,38.012c1.933,12.568-0.262,25.426,2.8,37.923
			c1.297,5.299,2.055,10.729,3.311,16.038c1.221,5.165,3.808,10.224,3.962,15.384c0.396,13.247,2.631,26.291,2.852,39.635
			c0.299,18.005-0.385,36.548,6.212,54.003c-3.645,11.204,0.821,20.524,6.729,29.578c0.77,1.181,0.68,2.896,1.113,4.327
			c1.387,4.577,0.598,10.234,6.37,12.697c0.476,0.202,0.75,1.863,0.494,2.644c-2.877,8.805-0.313,17.491,0.48,26.204
			c0.359,3.928,5.597,8.674,9.5,8.469c9.644-0.508,19.3-1.004,28.905-1.969c6.797-0.684,9.718-6.021,7.786-11.449
			c-2.876-8.085-5.077-16.42-7.327-24.713c-0.64-2.354-1.146-5.127-0.517-7.372c1.925-6.854,3.557-14.021,6.918-20.183
			c5.064-9.284,4.021-18.25,0.689-27.247c-3.869-10.454-7.75-20.753-6.063-32.225c0.232-1.576-0.391-3.274-0.599-4.921
			c-0.415-3.288-1.233-6.588-1.155-9.865c0.369-15.641,2.756-31.38-2.924-46.651c-0.309-0.828-0.021-2.006,0.293-2.916
			c1.787-5.185,0.838-9.957-1.285-14.907c-1.149-2.681-0.804-5.979-1.332-8.961c-0.306-1.729-0.646-3.641-1.615-5.016
			c-1.602-2.271-3.724-4.175-5.813-6.437c0.697-1.425,1.69-3.151,2.414-4.987c2.464-6.255,3.985-12.616,2.546-19.438
			c-1.014-4.799-2.112-9.653-2.357-14.524c-0.389-7.646-0.73-15.394,0.052-22.979c1.658-16.069,0.952-31.906-2.545-47.647
			L450.565,624.644z"/>
		<path d="M450.612,624.547c3.497,15.741,4.203,31.578,2.545,47.647c-0.782,7.586-0.439,15.333-0.052,22.979
			c0.245,4.871,1.345,9.727,2.357,14.524c1.439,6.821-0.082,13.185-2.546,19.438c-0.724,1.835-1.717,3.563-2.414,4.987
			c2.091,2.262,4.213,4.165,5.813,6.436c0.97,1.375,1.311,3.288,1.615,5.017c0.528,2.982,0.183,6.28,1.332,8.961
			c2.123,4.95,3.072,9.724,1.285,14.907c-0.313,0.909-0.602,2.088-0.293,2.916c5.68,15.271,3.293,31.012,2.924,46.651
			c-0.078,3.277,0.74,6.577,1.155,9.865c0.208,1.646,0.831,3.345,0.599,4.921c-1.688,11.471,2.192,21.771,6.063,32.224
			c3.331,8.997,4.375,17.964-0.689,27.247c-3.361,6.163-4.993,13.33-6.918,20.184c-0.63,2.245-0.123,5.019,0.517,7.372
			c2.25,8.293,4.451,16.628,7.327,24.713c1.932,5.43-0.989,10.767-7.786,11.449c-9.605,0.965-19.263,1.461-28.905,1.969
			c-3.903,0.205-9.141-4.541-9.5-8.469c-0.795-8.714-3.357-17.399-0.48-26.204c0.256-0.779-0.02-2.44-0.494-2.644
			c-5.772-2.463-4.983-8.121-6.37-12.698c-0.435-1.43-0.345-3.146-1.113-4.326c-5.907-9.055-10.373-18.374-6.729-29.578
			c-6.597-17.455-5.913-35.998-6.212-54.003c-0.221-13.345-2.456-26.389-2.852-39.636c-0.154-5.159-2.741-10.218-3.962-15.383
			c-1.256-5.311-2.014-10.74-3.311-16.038c-3.062-12.498-0.867-25.354-2.8-37.923c-1.948-12.662-3.76-25.346-5.676-38.012
			c-0.323-2.133-0.487-4.413-1.385-6.314c-6.317-13.41-4.646-28.043-6.628-42.106c-0.529-3.764-0.743-7.57-1.959-11.383
			c-1.008,10.959-1.76,21.949-3.125,32.863c-0.75,6.002-2.688,11.847-3.807,17.813c-1.312,7.017-2.354,14.086-3.445,21.143
			c-1.726,11.18-3.602,22.341-4.984,33.563c-0.585,4.738,0.369,9.664-0.164,14.416c-1.043,9.296-1.279,19.006-4.314,27.682
			c-4.97,14.205-5.97,28.969-7.832,43.499c-1.912,14.924-0.638,30.229-1.569,45.316c-0.48,7.788-2.939,15.437-4.064,23.212
			c-0.486,3.354-0.469,7.037,0.412,10.271c1.144,4.2,0.258,7.79-2.224,10.719c-4.99,5.89-6.409,12.99-8.01,20.131
			c-0.353,1.572-0.787,3.973-1.834,4.4c-4.808,1.967-3.168,5.442-3.146,9.053c0.048,7.747-0.384,15.529-1.188,23.238
			c-0.396,3.803-5.937,7.616-9.905,7.4c-9.311-0.508-18.715-0.58-27.881-2.067c-7.273-1.18-10.84-5.39-7.419-13.274
			c3.894-8.979,6.754-19.146,6.811-28.813c0.046-7.831-3.861-16.135-7.595-23.419c-4.1-7.997-2.437-15.513-0.602-23.119
			c1.228-5.092,4.417-9.698,5.761-14.776c1.214-4.593,1.219-9.523,1.562-14.319c0.258-3.609,0.158-7.243,0.308-10.863
			c0.198-4.792,0.696-9.581,0.69-14.37c-0.013-10.45-0.285-20.899-0.377-31.351c-0.008-0.947,0.357-1.988,0.823-2.835
			c2.79-5.07,3.028-10.201,1.6-15.83c-0.569-2.241,0.889-5.058,1.626-7.552c0.751-2.539,3.034-5.399,2.41-7.433
			c-2.199-7.158,2.361-10.405,5.708-13.104c-1.499-8.581-5.564-17.175-3.665-24.142c3.594-13.176,1.675-26.103,2.248-39.097
			c0.497-11.271-1.326-22.789,0.309-33.838c2.639-17.83,4.677-35.593,4.964-53.62c0.105-6.599,2.028-13.151,2.607-19.77
			c0.218-2.493-1.397-5.097-1.515-7.68c-0.241-5.317,0.169-10.666-0.071-15.983c-0.241-5.351,0.439-9.959,3.689-14.749
			c2.301-3.394,2.356-8.571,2.644-13.002c0.386-5.971,0.499-12.039-0.15-17.97c-0.55-5.016,0.555-9.308,2.069-13.99
			c1.462-4.521,1.021-9.652,1.454-14.514c0.156-1.754,0.17-3.575,0.681-5.231c3.721-12.063,0.995-23.939-1.345-36.003
			c-0.414,1.321-0.913,2.625-1.229,3.971c-5.788,24.618-10.882,49.428-17.567,73.8c-4.339,15.82-9.696,31.662-17.063,46.249
			c-4.98,9.86-3.945,17.881-0.361,26.868c1.602,4.018,3.18,8.051,4.991,11.976c2.146,4.652,3.056,9.323,2.146,14.489
			c-0.962,5.46-3.341,10.85-0.372,16.635c1.141,2.225-0.062,4.8-2.915,4.387c0.186,2.508,0.378,5.097,0.57,7.687
			c-0.63,0.339-1.261,0.678-1.891,1.018c-6.686-3.798-13.537-7.343-19.965-11.534c-2.129-1.389-3.639-4.26-4.612-6.771
			c-1.906-4.919-3.471-10.005-4.701-15.135c-0.605-2.523-0.556-5.371-0.107-7.952c5.618-32.353,7.893-65.024,9.645-97.757
			c0.131-2.443,0.553-5.003,1.466-7.254c8.735-21.512,11.935-44.257,15.002-67.021c0.201-1.494-0.655-3.723-1.797-4.699
			c-4.192-3.587-4.758-7.521-3.565-12.837c2.764-12.321,4.041-25.012,7.325-37.174c2.312-8.562,6.826-16.55,10.638-24.662
			c0.553-1.178,2.594-1.909,4.092-2.347c8.222-2.395,15.709-5.688,22.159-11.816c3.106-2.951,8.765-3.018,12.646-5.4
			c5.858-3.6,11.216-8.029,16.645-12.287c0.5-0.392,0.274-2.2-0.109-3.152c-4.845-12.009-9.5-24.105-14.786-35.92
			c-3.728-8.331-4.144-16.846-4.112-25.735c0.026-7.487,2.944-13.636,5.803-20.217c3.029-6.978,22.764-19.017,30.335-17.476
			c0.955,0.194,2.094,0.531,2.908,0.205c13.788-5.513,23.938,1.441,32.64,10.52c3.533,3.688,5.057,9.609,6.67,14.771
			c3.494,11.182,2.793,22.784,1.291,34.114c-1.521,11.466-4.454,22.743-6.733,34.11c-0.156,0.778-0.021,1.616-0.021,2.129
			c6.667,3.171,13.181,6.187,19.622,9.351c13.424,6.593,26.815,13.247,40.191,19.936c0.972,0.485,2.056,1.286,2.491,2.22
			c6.223,13.278,10.189,27.204,12.289,41.737c1.209,8.365,2.978,16.561,8.601,23.547c3.811,4.733,2.996,6.326-1.645,10.247
			c-1.015,0.857-1.317,3.045-1.27,4.601c0.617,19.964,7.921,38.71,10.674,58.271c0.961,6.823,0.637,13.906,0.224,20.83
			c-1.518,25.45-3.532,50.872-4.845,76.331c-0.285,5.52,1.246,11.22,2.507,16.707c2.097,9.127-1.625,16.959-5.007,24.841
			c-5.149,12.001-16.688,12.874-27.346,15.032c-1.277,0.259-2.794-0.657-4.187-1.051c1.604-2.354,3.197-4.685,4.939-7.234
			c-1.763,0-3.42,0-6.762,0c6.848-5.434,3.565-10.349,2.218-15.647c-1.32-5.197-2.4-11.129-1.149-16.128
			c1.4-5.599,5.323-10.647,8.532-15.692c6.71-10.548,7.69-22.137,6.032-33.992c-2.099-14.99-5.671-29.81-7.127-44.847
			c-1.816-18.766-3.613-37.425-9.55-55.437c-0.509-1.544-0.975-3.103-1.46-4.653c-0.648,0.094-1.299,0.187-1.948,0.279
			c-0.208,8.76-0.434,17.518-0.614,26.275c-0.068,3.309,0.071,6.625-0.071,9.929c-0.263,6.075-1.064,12.155-0.912,18.214
			c0.212,8.416,2.537,16.744-0.457,25.218c-1.827,5.169-3.786,10.845,1.846,15.398c0.545,0.44,0.646,1.511,0.819,2.317
			c2.439,11.267,3.467,22.546,0.392,33.89c-0.291,1.073-0.169,2.303-0.046,3.438c0.907,8.425,2.012,16.831,2.77,25.269
			C449.026,602.315,449.763,613.438,450.612,624.547z"/>
		<path fill="none" d="M450.612,624.547c-0.851-11.109-1.586-22.23-2.583-33.329c-0.758-8.438-1.861-16.844-2.77-25.269
			c-0.123-1.136-0.245-2.365,0.046-3.438c3.075-11.344,2.048-22.623-0.392-33.89c-0.175-0.807-0.274-1.877-0.819-2.317
			c-5.632-4.555-3.673-10.229-1.846-15.398c2.994-8.474,0.669-16.801,0.457-25.217c-0.152-6.06,0.648-12.14,0.912-18.215
			c0.144-3.304,0.003-6.619,0.071-9.929c0.182-8.759,0.406-17.517,0.614-26.274c0.649-0.095,1.299-0.188,1.948-0.28
			c0.485,1.552,0.951,3.109,1.46,4.654c5.937,18.011,7.732,36.671,9.55,55.436c1.456,15.037,5.028,29.855,7.127,44.847
			c1.658,11.855,0.678,23.444-6.033,33.992c-3.209,5.045-7.131,10.095-8.531,15.692c-1.251,4.999-0.171,10.931,1.149,16.128
			c1.349,5.3,4.629,10.215-2.218,15.647c3.342,0,4.999,0,6.762,0c-1.742,2.552-3.335,4.881-4.939,7.234
			C450.565,624.644,450.612,624.547,450.612,624.547z"/>
	</g>
</g>
</svg>
