<?xml version="1.0" encoding="utf-8"?>
<!-- Generator: Adobe Illustrator 16.0.0, SVG Export Plug-In . SVG Version: 6.00 Build 0)  -->
<!DOCTYPE svg PUBLIC "-//W3C//DTD SVG 1.1//EN" "http://www.w3.org/Graphics/SVG/1.1/DTD/svg11.dtd">
<svg version="1.1" id="Layer_1" xmlns="http://www.w3.org/2000/svg" xmlns:xlink="http://www.w3.org/1999/xlink" x="0px" y="0px"
	 width="587.926px" height="411.949px" viewBox="0 0 587.926 411.949" enable-background="new 0 0 587.926 411.949"
	 xml:space="preserve">
<g>
	<g>
		<path fill="none" d="M1,1.032c196.238,0,392.477,0,588.821,0c0,137.513,0,275.057,0,412.76c-196.203,0-392.513,0-588.821,0
			C1,276.292,1,138.679,1,1.032z M588.926,188.404c0-29.494-0.037-58.987,0.053-88.48c0.01-3.13-0.574-5.574-4.143-5.178
			c-10.014,1.111-20.08,2.064-29.961,3.944c-8.695,1.655-17.102,4.786-25.762,6.687c-7.209,1.582-14.598,2.367-21.916,3.419
			c-5.873,0.845-11.758,1.653-17.654,2.31c-5.934,0.66-12.229,0.08-17.762,1.893c-9.006,2.952-18.031,4.135-27.377,4.168
			c-19.656,0.067-39.313,0.332-58.968,0.318c-29.487-0.021-58.976-0.152-88.463-0.358c-11.963-0.084-24.158-2.06-35.824-0.324
			c-12.636,1.879-21.247-5.206-31.184-9.592c-4.732-2.088-8.641-6.245-13.46-7.884c-7.095-2.413-11.843-7.622-17.354-11.97
			c-4.407-3.479-8.944-6.864-12.922-10.797c-6.573-6.499-14.043-12.628-18.683-20.381c-3.951-6.603-9.911-9.157-15.585-11.995
			c-4.759-2.379-10.912-2.45-16.478-2.634c-11.152-0.367-22.379-0.806-33.476,0.058c-14.092,1.098-18.55,2.405-23.993,15.592
			c-4.648,11.261-12.489,20.174-23.288,26.097c-10.497,5.756-17.175,13.573-15.24,26.375c0.815,5.396,1.896,10.753,2.893,16.121
			c0.238,1.282,0.927,2.542,0.895,3.801c-0.199,7.964-0.923,15.938-0.66,23.88c0.114,3.416,1.292,7.613,3.542,9.968
			c4.433,4.639,4.3,9.526,2.827,14.798c-3.261,11.669,4.547,27.097,16.213,31.171c2.958,1.032,4.018,2.623,4.533,5.662
			c1.444,8.523,1.735,17.416,8.954,24.024c6.637,6.077,13.198,12.271,22.883,11.419c7.226-0.635,12.417,3.928,18.272,6.32
			c3.403,1.391,5.586,1.359,8.599,0.439c4.168-1.271,8.379-2.637,12.672-3.188c3.354-0.43,6.92,0.841,10.284,0.443
			c9.066-1.068,18.046-3.418,27.113-3.732c6.882-0.237,12.303-3.523,18.358-5.512c5.677-1.861,11.253-4.836,17.049-5.35
			c9.875-0.873,19.888-0.207,29.844-0.171c0.826,0.003,1.714-0.036,2.468,0.237c5.521,2.004,11.216,2.188,17.008,2.011
			c8.573-0.263,17.178-0.757,25.723-0.289c9.149,0.5,18.25,1.935,27.358,3.084c7.602,0.96,15.184,2.056,22.764,3.171
			c9.266,1.363,18.498,2.971,27.783,4.163c6.411,0.823,12.938,0.797,19.327,1.731c9.218,1.349,18.358,3.229,27.534,4.863
			c0.65,0.116,1.352-0.021,1.992,0.112c11.371,2.396,22.67,5.229,34.121,7.129c14.314,2.374,28.766,3.899,43.127,6.004
			c2.623,0.384,5.037,2.298,7.654,2.612c7.322,0.878,14.707,1.227,22.057,1.898c9.053,0.828,18.086,1.838,27.141,2.651
			c10.869,0.978,21.744,1.894,32.629,2.716c6.393,0.484,6.477,0.325,6.477-5.982C588.93,246.725,588.926,217.564,588.926,188.404z"
			/>
		<path d="M588.926,188.404c0,29.16,0.004,58.32-0.004,87.48c0,6.309-0.084,6.468-6.477,5.982
			c-10.883-0.822-21.76-1.738-32.629-2.716c-9.055-0.813-18.088-1.823-27.141-2.651c-7.35-0.672-14.732-1.021-22.057-1.898
			c-2.617-0.314-5.031-2.229-7.654-2.611c-14.361-2.105-28.813-3.631-43.127-6.005c-11.451-1.899-22.75-4.731-34.121-7.129
			c-0.643-0.136-1.342,0.004-1.992-0.112c-9.176-1.634-18.316-3.516-27.534-4.863c-6.39-0.936-12.916-0.908-19.327-1.731
			c-9.285-1.192-18.52-2.8-27.783-4.163c-7.58-1.115-15.162-2.211-22.764-3.171c-9.107-1.149-18.209-2.584-27.358-3.084
			c-8.545-0.468-17.149,0.026-25.723,0.289c-5.792,0.179-11.488-0.007-17.008-2.011c-0.754-0.273-1.642-0.234-2.468-0.237
			c-9.956-0.036-19.968-0.702-29.844,0.171c-5.795,0.514-11.372,3.487-17.049,5.35c-6.055,1.988-11.476,5.273-18.358,5.513
			c-9.067,0.313-18.047,2.663-27.113,3.731c-3.364,0.396-6.931-0.873-10.284-0.443c-4.292,0.551-8.504,1.916-12.672,3.188
			c-3.012,0.92-5.196,0.95-8.599-0.439c-5.854-2.393-11.046-6.955-18.272-6.32c-9.685,0.852-16.247-5.342-22.883-11.419
			c-7.218-6.608-7.51-15.501-8.954-24.024c-0.515-3.039-1.576-4.63-4.533-5.662c-11.666-4.075-19.474-19.501-16.213-31.171
			c1.473-5.271,1.606-10.159-2.827-14.798c-2.25-2.355-3.429-6.552-3.542-9.968c-0.263-7.943,0.461-15.917,0.66-23.88
			c0.032-1.259-0.657-2.52-0.895-3.801c-0.998-5.368-2.078-10.726-2.893-16.121c-1.935-12.802,4.743-20.62,15.24-26.375
			c10.799-5.922,18.64-14.835,23.288-26.097c5.443-13.187,9.901-14.494,23.993-15.592c11.097-0.864,22.323-0.425,33.476-0.058
			c5.566,0.184,11.719,0.255,16.478,2.634c5.674,2.837,11.634,5.392,15.585,11.995c4.639,7.753,12.11,13.882,18.683,20.381
			c3.978,3.933,8.515,7.318,12.922,10.797c5.511,4.348,10.259,9.557,17.354,11.97c4.82,1.639,8.729,5.795,13.46,7.884
			c9.938,4.386,18.547,11.471,31.184,9.592c11.666-1.735,23.86,0.24,35.824,0.324c29.487,0.206,58.976,0.338,88.463,0.358
			c19.655,0.014,39.312-0.251,58.968-0.318c9.346-0.033,18.371-1.217,27.377-4.168c5.531-1.813,11.828-1.232,17.762-1.893
			c5.896-0.657,11.781-1.465,17.654-2.31c7.318-1.053,14.707-1.838,21.916-3.419c8.66-1.9,17.064-5.032,25.762-6.687
			c9.881-1.88,19.947-2.833,29.961-3.944c3.566-0.396,4.152,2.047,4.143,5.178C588.889,129.417,588.926,158.911,588.926,188.404z"/>
	</g>
</g>
<g>
	<g>
		<path fill-rule="evenodd" clip-rule="evenodd" fill="#FFFFFF" d="M272.158,172.926c0.161-11.753,0.325-23.506,0.471-35.26
			c0.006-0.445,0.086-0.525,0.514-0.519c14.498,0.213,28.995,0.412,43.493,0.595c0.429,0.005,0.506,0.088,0.5,0.533
			c-0.307,21.327-0.597,42.654-0.89,63.981c-0.03,2.222-0.07,4.444-0.08,6.667c-0.002,0.34-0.061,0.396-0.387,0.39
			c-9.35-0.141-18.699-0.266-28.049-0.394c-5.189-0.071-10.379-0.149-15.569-0.2c-0.429-0.004-0.506-0.088-0.5-0.533
			C271.839,196.433,271.997,184.68,272.158,172.926z M289.824,173.553c-4.978-0.068-9.956-0.139-14.934-0.201
			c-0.648-0.008-1.297,0.029-1.945,0.045c-0.028,0.761-0.056,1.522-0.081,2.283c-0.001,0.038,0.012,0.102,0.033,0.109
			c0.053,0.017,0.138,0.036,0.169,0.007c0.361-0.331,0.785-0.144,1.173-0.139c10.367,0.131,20.734,0.272,31.101,0.425
			c0.388,0.006,0.816-0.167,1.173,0.166c0.021,0.02,0.195-0.063,0.196-0.103c0.021-0.512,0.025-1.024,0.03-1.537
			c0.006-0.818,0.005-0.823-0.747-0.834C300.602,173.7,295.213,173.626,289.824,173.553z M289.466,190.476
			c5.104,0.07,10.208,0.142,15.313,0.206c0.565,0.007,1.131-0.036,1.697-0.056c0.022-0.634,0.039-1.269,0.072-1.903
			c0.017-0.305-0.146-0.338-0.378-0.33c-0.288,0.009-0.576-0.005-0.864-0.009c-10.332-0.141-20.664-0.284-30.996-0.42
			c-0.524-0.007-1.049,0.038-1.573,0.058c-0.022,0.549-0.055,1.098-0.063,1.646c-0.009,0.57,0.001,0.577,0.616,0.585
			C278.682,190.329,284.074,190.402,289.466,190.476z M290.006,159.449c-5.146-0.07-10.291-0.143-15.436-0.208
			c-0.482-0.006-0.965,0.043-1.447,0.067c-0.02,0.55-0.053,1.1-0.046,1.65c0.001,0.106,0.152,0.284,0.252,0.3
			c0.282,0.044,0.574,0.022,0.862,0.026c10.538,0.144,21.076,0.289,31.613,0.432c1.12,0.016,1.12,0.015,1.128-1.213
			c0.005-0.817,0.006-0.822-0.75-0.833C300.791,159.595,295.398,159.522,290.006,159.449z M289.919,156.882
			c5.31,0.073,10.62,0.146,15.93,0.218c0.288,0.004,0.577,0.022,0.864,0.003c0.092-0.006,0.252-0.107,0.256-0.173
			c0.029-0.469,0.035-0.939,0.021-1.409c-0.003-0.071-0.147-0.185-0.237-0.195c-0.243-0.03-0.492-0.016-0.739-0.02
			c-10.62-0.145-21.24-0.291-31.86-0.436c-0.206-0.003-0.415,0.016-0.617-0.013c-0.353-0.051-0.417,0.136-0.398,0.44
			c0.013,0.212-0.004,0.427-0.005,0.641c-0.003,0.708-0.002,0.712,0.733,0.723C279.217,156.737,284.568,156.81,289.919,156.882z
			 M289.432,192.527c5.31,0.073,10.619,0.146,15.93,0.218c0.288,0.004,0.579,0.035,0.862-0.003c0.101-0.013,0.232-0.18,0.259-0.298
			c0.045-0.204,0.006-0.425,0.023-0.638c0.023-0.3-0.132-0.351-0.373-0.336c-0.204,0.013-0.411-0.002-0.616-0.005
			c-10.621-0.146-21.24-0.291-31.86-0.436c-0.247-0.003-0.494-0.013-0.741-0.006c-0.073,0.001-0.206,0.042-0.208,0.072
			c-0.022,0.371-0.05,0.747-0.008,1.112c0.006,0.056,0.361,0.093,0.555,0.096C278.647,192.381,284.04,192.454,289.432,192.527z
			 M290.121,151.243c-5.228-0.071-10.455-0.143-15.683-0.214c-0.289-0.004-0.577,0.004-0.864-0.016
			c-0.241-0.017-0.398,0.027-0.38,0.327c0.01,0.17,0.009,0.343-0.007,0.512c-0.03,0.303,0.031,0.493,0.385,0.451
			c0.203-0.023,0.411,0.001,0.617,0.004c10.62,0.146,21.24,0.291,31.859,0.436c0.247,0.003,0.494,0.013,0.741,0.006
			c0.071-0.002,0.2-0.047,0.204-0.083c0.032-0.334,0.103-0.683,0.045-1.004c-0.063-0.351-0.404-0.186-0.617-0.189
			C300.988,151.389,295.554,151.317,290.121,151.243z M289.69,183.554c5.228,0.071,10.456,0.143,15.683,0.214
			c0.288,0.004,0.577-0.004,0.864,0.016c0.238,0.016,0.399-0.023,0.382-0.325c-0.01-0.17-0.009-0.343,0.008-0.512
			c0.028-0.3-0.025-0.496-0.383-0.454c-0.203,0.024-0.412-0.001-0.617-0.003c-10.62-0.146-21.24-0.291-31.859-0.436
			c-0.248-0.003-0.495-0.013-0.741-0.006c-0.072,0.002-0.201,0.046-0.204,0.081c-0.033,0.334-0.104,0.682-0.047,1.003
			c0.062,0.355,0.403,0.188,0.615,0.191C278.824,183.407,284.257,183.479,289.69,183.554z M289.86,180.479
			c-5.31-0.073-10.62-0.146-15.93-0.218c-0.288-0.004-0.579-0.035-0.862,0.002c-0.102,0.013-0.235,0.178-0.261,0.295
			c-0.045,0.204-0.006,0.425-0.023,0.638c-0.024,0.297,0.125,0.355,0.37,0.339c0.205-0.013,0.411,0.002,0.617,0.005
			c10.62,0.145,21.24,0.291,31.86,0.436c0.247,0.003,0.494,0.013,0.74,0.007c0.073-0.002,0.207-0.042,0.209-0.07
			c0.023-0.371,0.053-0.746,0.012-1.112c-0.006-0.056-0.36-0.095-0.554-0.098C300.645,180.625,295.253,180.552,289.86,180.479z
			 M290.146,149.96c5.228,0.072,10.455,0.143,15.683,0.215c0.288,0.004,0.577-0.002,0.864,0.015
			c0.231,0.014,0.402-0.013,0.388-0.319c-0.011-0.213-0.007-0.428,0.009-0.641c0.022-0.306-0.148-0.339-0.379-0.329
			c-0.206,0.01-0.412-0.003-0.618-0.005c-10.619-0.146-21.239-0.291-31.859-0.436c-0.248-0.003-0.494-0.013-0.741-0.006
			c-0.072,0.002-0.204,0.046-0.206,0.077c-0.019,0.371-0.044,0.747,0.002,1.112c0.007,0.056,0.362,0.088,0.557,0.091
			C279.279,149.813,284.712,149.886,290.146,149.96z M290.17,148.166c5.228,0.071,10.455,0.143,15.683,0.214
			c0.288,0.004,0.577-0.002,0.864,0.015c0.232,0.014,0.402-0.013,0.388-0.319c-0.01-0.213-0.007-0.428,0.009-0.64
			c0.023-0.306-0.147-0.339-0.379-0.329c-0.205,0.01-0.412-0.003-0.617-0.006c-10.62-0.145-21.24-0.291-31.86-0.436
			c-0.247-0.003-0.494-0.013-0.741-0.006c-0.072,0.002-0.204,0.046-0.206,0.077c-0.02,0.371-0.044,0.747,0.002,1.112
			c0.007,0.056,0.362,0.088,0.557,0.091C279.304,148.018,284.737,148.091,290.17,148.166z M290.07,146.112
			c5.267,0.072,10.535,0.144,15.801,0.216c0.288,0.004,0.58-0.02,0.863,0.018c0.495,0.066,0.38-0.292,0.399-0.567
			c0.021-0.276,0.021-0.51-0.365-0.471c-0.285,0.029-0.575-0.001-0.863-0.005c-10.369-0.142-20.74-0.28-31.109-0.437
			c-0.427-0.006-0.897,0.183-1.295-0.162c-0.037-0.032-0.113-0.014-0.172-0.02c-0.004,0.372-0.034,0.747,0.012,1.112
			c0.007,0.056,0.362,0.088,0.557,0.091C279.289,145.966,284.68,146.039,290.07,146.112z M289.484,198.684
			c4.034,0.055,8.067,0.11,12.102,0.165c1.481,0.021,2.964,0.027,4.445,0.07c0.375,0.012,0.397-0.176,0.382-0.459
			c-0.015-0.273,0.118-0.638-0.38-0.58c-0.203,0.022-0.411-0.002-0.617-0.005c-10.619-0.145-21.239-0.29-31.859-0.436
			c-0.206-0.003-0.413,0.006-0.618-0.012c-0.238-0.021-0.368,0.026-0.387,0.324c-0.043,0.668-0.04,0.697,0.632,0.707
			C278.617,198.537,284.05,198.61,289.484,198.684z M292.73,141.789c-6.257-0.086-12.514-0.172-18.771-0.254
			c-0.295-0.004-0.681-0.164-0.645,0.437c0.034,0.551,0.413,0.316,0.632,0.319c12.432,0.182,24.863,0.351,37.295,0.518
			c0.296,0.004,0.682,0.164,0.645-0.437c-0.033-0.551-0.412-0.315-0.632-0.319C305.08,141.955,298.905,141.873,292.73,141.789z
			 M291.731,202.049c6.053,0.082,12.104,0.165,18.157,0.248c0.288,0.004,0.577-0.003,0.864,0.015c0.301,0.019,0.304-0.17,0.314-0.4
			c0.013-0.268-0.065-0.394-0.337-0.374c-0.362,0.025-0.753-0.047-1.079,0.073c-0.401,0.147-0.699-0.118-1.063-0.122
			c-11.364-0.13-22.729-0.29-34.093-0.441c-0.235-0.003-0.526-0.031-0.695,0.093c-0.261,0.192-0.393,0.16-0.616-0.043
			c-0.269-0.244-0.433,0.057-0.585,0.228c-0.067,0.075-0.106,0.31-0.08,0.324c0.131,0.074,0.287,0.126,0.437,0.138
			c0.287,0.022,0.576,0.014,0.864,0.018C279.79,201.885,285.76,201.967,291.731,202.049z M289.642,186.631
			c-5.433-0.075-10.867-0.152-16.3-0.212c-0.22-0.002-0.592-0.248-0.64,0.302c-0.052,0.6,0.337,0.45,0.633,0.455
			c10.867,0.151,21.733,0.301,32.6,0.438c0.22,0.003,0.592,0.248,0.641-0.302c0.053-0.6-0.338-0.45-0.633-0.455
			C300.509,186.779,295.076,186.706,289.642,186.631z M291.803,200.767c6.051,0.083,12.103,0.166,18.153,0.249
			c0.329,0.004,0.659,0.017,0.987,0.005c0.047-0.002,0.13-0.128,0.123-0.187c-0.014-0.11-0.061-0.281-0.131-0.304
			c-0.15-0.049-0.324-0.019-0.489-0.021c-12.432-0.17-24.863-0.34-37.295-0.51c-0.165-0.002-0.332-0.021-0.493,0.002
			c-0.051,0.008-0.131,0.128-0.124,0.187c0.014,0.109,0.073,0.298,0.127,0.304c0.327,0.033,0.657,0.022,0.987,0.027
			C279.701,200.602,285.751,200.685,291.803,200.767z M292.332,171.022c-6.257-0.086-12.514-0.174-18.771-0.246
			c-0.22-0.002-0.67-0.248-0.62,0.296c0.035,0.371,0.398,0.194,0.606,0.197c12.432,0.179,24.864,0.35,37.295,0.508
			c0.221,0.003,0.671,0.247,0.62-0.296c-0.035-0.372-0.398-0.194-0.606-0.197C304.681,171.189,298.506,171.107,292.332,171.022z
			 M292.047,172.814c6.256,0.085,12.514,0.174,18.771,0.246c0.222,0.002,0.665,0.246,0.627-0.29c-0.027-0.384-0.394-0.201-0.6-0.204
			c-12.432-0.18-24.863-0.351-37.295-0.508c-0.221-0.003-0.665-0.247-0.626,0.289c0.027,0.384,0.394,0.201,0.6,0.204
			C279.697,172.647,285.872,172.729,292.047,172.814z M292.448,143.58c6.257,0.085,12.514,0.174,18.771,0.246
			c0.222,0.003,0.666,0.247,0.627-0.289c-0.027-0.384-0.394-0.201-0.599-0.204c-12.432-0.18-24.864-0.35-37.296-0.508
			c-0.221-0.003-0.665-0.247-0.627,0.289c0.027,0.384,0.394,0.201,0.6,0.204C280.098,143.413,286.273,143.496,292.448,143.58z
			 M289.875,170.219c5.31,0.073,10.619,0.146,15.93,0.218c0.288,0.004,0.576,0.017,0.863,0.003c0.047-0.002,0.13-0.128,0.122-0.187
			c-0.014-0.109-0.061-0.28-0.131-0.303c-0.151-0.048-0.325-0.019-0.49-0.021c-10.866-0.148-21.733-0.297-32.6-0.446
			c-0.165-0.002-0.332-0.02-0.493,0.002c-0.051,0.007-0.13,0.128-0.123,0.187c0.014,0.109,0.073,0.297,0.128,0.303
			c0.327,0.033,0.657,0.023,0.987,0.027C279.337,170.075,284.605,170.147,289.875,170.219z M289.908,167.142
			c-5.31-0.073-10.62-0.146-15.93-0.218c-0.288-0.004-0.576-0.017-0.864-0.003c-0.047,0.002-0.132,0.125-0.125,0.183
			c0.013,0.11,0.058,0.284,0.127,0.307c0.151,0.049,0.325,0.019,0.49,0.021c10.867,0.149,21.734,0.297,32.6,0.446
			c0.165,0.002,0.331,0.02,0.492-0.002c0.053-0.007,0.134-0.125,0.127-0.183c-0.013-0.111-0.07-0.302-0.124-0.307
			c-0.327-0.033-0.657-0.023-0.986-0.028C300.445,167.286,295.176,167.214,289.908,167.142z M289.799,165.858
			c5.474,0.075,10.949,0.153,16.423,0.214c0.221,0.002,0.668,0.246,0.622-0.293c-0.032-0.376-0.396-0.197-0.604-0.2
			c-10.867-0.158-21.733-0.307-32.601-0.443c-0.22-0.003-0.668-0.246-0.622,0.293c0.032,0.376,0.397,0.197,0.604,0.2
			C279.014,165.713,284.406,165.784,289.799,165.858z M290.158,158.425c-5.474-0.075-10.949-0.153-16.423-0.214
			c-0.221-0.002-0.669-0.247-0.621,0.294c0.033,0.375,0.397,0.196,0.604,0.199c10.867,0.158,21.734,0.307,32.6,0.443
			c0.221,0.003,0.669,0.247,0.621-0.294c-0.033-0.375-0.397-0.196-0.604-0.199C300.942,158.57,295.55,158.499,290.158,158.425z
			 M289.959,153.805c5.475,0.075,10.948,0.153,16.424,0.214c0.221,0.002,0.665,0.247,0.626-0.289
			c-0.027-0.384-0.394-0.201-0.6-0.204c-10.866-0.158-21.733-0.307-32.6-0.444c-0.221-0.003-0.665-0.246-0.627,0.29
			c0.028,0.384,0.394,0.201,0.6,0.204C279.175,153.66,284.567,153.731,289.959,153.805z M289.822,163.806
			c5.474,0.075,10.949,0.153,16.423,0.214c0.221,0.003,0.665,0.247,0.627-0.289c-0.027-0.384-0.394-0.201-0.6-0.204
			c-10.866-0.158-21.733-0.307-32.6-0.444c-0.221-0.002-0.665-0.246-0.626,0.29c0.027,0.384,0.394,0.201,0.599,0.204
			C279.038,163.661,284.43,163.732,289.822,163.806z M289.388,196.118c5.475,0.075,10.949,0.153,16.424,0.214
			c0.22,0.002,0.672,0.247,0.617-0.298c-0.036-0.368-0.399-0.193-0.608-0.196c-10.866-0.158-21.733-0.307-32.6-0.443
			c-0.22-0.002-0.671-0.247-0.617,0.298c0.036,0.368,0.399,0.192,0.608,0.196C278.604,195.972,283.996,196.044,289.388,196.118z
			 M289.541,194.324c5.31,0.073,10.62,0.146,15.93,0.218c0.288,0.004,0.576,0.017,0.864,0.003c0.047-0.002,0.132-0.125,0.125-0.184
			c-0.013-0.11-0.059-0.284-0.128-0.306c-0.15-0.049-0.325-0.019-0.489-0.021c-10.866-0.148-21.733-0.297-32.601-0.446
			c-0.165-0.002-0.331-0.02-0.493,0.002c-0.052,0.007-0.133,0.125-0.125,0.183c0.013,0.11,0.07,0.301,0.124,0.307
			c0.327,0.033,0.658,0.023,0.987,0.027C279.003,194.18,284.272,194.252,289.541,194.324z M289.65,186.118
			c5.434,0.075,10.866,0.151,16.301,0.215c0.209,0.002,0.566,0.187,0.614-0.178c0.071-0.544-0.388-0.313-0.607-0.316
			c-10.867-0.161-21.733-0.309-32.601-0.448c-0.209-0.003-0.566-0.187-0.614,0.178c-0.071,0.544,0.388,0.313,0.607,0.316
			C278.784,185.973,284.217,186.044,289.65,186.118z M289.762,177.912c-5.433-0.074-10.867-0.15-16.3-0.215
			c-0.209-0.002-0.567-0.187-0.614,0.179c-0.07,0.544,0.388,0.313,0.608,0.315c10.867,0.161,21.733,0.309,32.6,0.449
			c0.209,0.002,0.566,0.187,0.614-0.179c0.07-0.544-0.389-0.312-0.608-0.315C300.628,178.058,295.196,177.987,289.762,177.912z
			 M289.642,177.141c5.474,0.075,10.949,0.153,16.423,0.214c0.221,0.002,0.667,0.246,0.625-0.291
			c-0.029-0.38-0.396-0.199-0.602-0.202c-10.866-0.158-21.733-0.308-32.6-0.444c-0.221-0.003-0.667-0.246-0.625,0.292
			c0.03,0.38,0.396,0.199,0.602,0.202C278.857,176.996,284.25,177.067,289.642,177.141z M308.947,175.816
			c-0.026,1.226,0.425,1.734,1.655,1.868c0.156,0.017,0.387-0.022,0.458,0.069c0.431,0.551,0.797-0.104,1.181-0.038
			c0.459,0.081,0.855-0.1,1.249-0.263c0.161-0.067,0.28-0.287,0.381-0.46c0.411-0.707,0.345-1.625-0.14-2.138
			c-0.461-0.488-1.405-0.635-2.083-0.325c-0.354,0.162-0.58,0.338-0.769,0.79c-0.262,0.627-0.172,1.068,0.123,1.558
			c0.094,0.157,0.22,0.238-0.062,0.303c-0.576,0.133-0.9-0.236-1.228-0.623c-0.444-0.524-0.426-1.136,0.18-1.411
			c0.338-0.154,0.299-0.317,0.298-0.545c-0.001-0.068-0.119-0.204-0.161-0.194C309.439,174.532,308.961,175.167,308.947,175.816z
			 M312.889,166.428c0.011-0.001,0.362,0.078,0.556-0.069c0.523-0.398,0.891-0.935,0.848-1.672
			c-0.021-0.364-0.519-1.086-0.797-1.339c-0.357-0.323-0.782-0.338-1.13-0.226c-0.301,0.097-0.813,0.093-0.833,0.65
			c-0.141-0.012-0.28-0.024-0.421-0.036c0.054-0.478-0.273-0.428-0.552-0.411c-0.314,0.019-0.71-0.045-0.926,0.125
			c-0.629,0.494-0.849,2.059-0.098,2.519c0.263,0.161,1.244,0.254,1.494,0.068c0.044-0.032-0.002-0.172,0.035-0.236
			c0.138-0.238,0.434-0.232,0.461-0.034C311.627,166.519,312.137,166.42,312.889,166.428z M311.734,158.72
			c-1.331-0.018-1.633,0.098-2.313,0.861c-0.261,0.292-0.376,1.318-0.185,1.636c0.488,0.805,1.532,1.09,2.423,0.653
			c0.158-0.078,0.346-0.157,0.44-0.294c0.401-0.582,0.373-1.434-0.054-2.038c-0.105-0.15-0.229-0.257,0.058-0.298
			c0.499-0.07,0.942,0.125,1.292,0.447c0.643,0.59,0.558,1.107-0.206,1.655c-0.033,0.024-0.069,0.053-0.087,0.089
			c-0.057,0.117-0.181,0.297-0.145,0.347c0.134,0.183,0.292,0.47,0.574,0.221c0.497-0.438,0.964-0.989,0.786-1.677
			c-0.161-0.625-0.382-1.396-1.293-1.328C312.647,158.494,312.108,158.842,311.734,158.72z M313.892,193.699
			c0.007-0.468,0.03-0.938,0.003-1.405c-0.004-0.076-0.229-0.19-0.353-0.192c-0.123-0.001-0.345,0.103-0.355,0.185
			c-0.045,0.335-0.01,0.681-0.035,1.02c-0.033,0.444-0.096,0.886-0.146,1.329c-0.314-0.335-0.629-0.671-0.943-1.007
			c-0.029-0.031-0.076-0.057-0.083-0.092c-0.151-0.75-0.764-0.958-1.326-1.235c-0.808-0.397-1.276-0.253-1.692,0.546
			c-0.507,0.974-0.32,1.831,0.556,2.476c0.071,0.053,0.217-0.002,0.328-0.007c-0.008-0.146,0.027-0.394-0.031-0.421
			c-0.671-0.313-0.708-0.887-0.563-1.496c0.124-0.521,0.31-0.602,0.847-0.593c0.701,0.011,1.253,0.379,1.546,0.965
			c0.332,0.663,0.895,1.067,1.34,1.597c0.121,0.145,0.449,0.282,0.563,0.212c0.166-0.101,0.287-0.385,0.315-0.606
			C313.914,194.556,313.886,194.125,313.892,193.699z M314.524,147.601c0.007-0.47,0.03-0.941,0.005-1.41
			c-0.005-0.093-0.187-0.226-0.304-0.25c-0.184-0.038-0.423-0.079-0.425,0.261c-0.004,0.641-0.011,1.283-0.029,1.923
			c-0.003,0.114-0.067,0.227-0.103,0.339c-0.086-0.077-0.213-0.137-0.253-0.234c-0.328-0.805-0.989-1.321-1.563-1.895
			c-0.704-0.704-1.482-0.59-2.199,0.09c-0.457,0.433-0.284,0.932-0.314,1.413c-0.027,0.416,0.534,1.275,0.904,1.35
			c0.141,0.028,0.326-0.186,0.491-0.289c-0.095-0.066-0.19-0.131-0.283-0.2c-0.502-0.376-0.761-0.857-0.618-1.518
			c0.129-0.596,0.732-0.895,1.271-0.627c0.747,0.372,1.252,0.998,1.683,1.705c0.213,0.349,0.467,0.607,0.867,0.783
			c0.804,0.354,0.84,0.366,0.858-0.543C314.518,148.199,314.52,147.9,314.524,147.601z M311.084,208.726
			c0.369,0.005,0.738,0.022,1.106,0.013c0.712-0.02,1.369-0.57,1.513-1.249c0.127-0.601-0.369-1.603-0.958-1.812
			c-1.186-0.42-2.364-0.449-3.537,0.121c-0.265,0.129-0.396,0.271-0.515,0.53c-0.531,1.153,0.074,2.302,1.284,2.378
			C310.346,208.731,310.715,208.721,311.084,208.726z M311.879,154.364c-0.897-0.041-1.696,0.084-2.323,0.778
			c-0.522,0.578-0.502,1.631,0.112,2.087c0.3,0.222,0.61,0.49,1.052,0.463c0.313-0.019,0.635,0.112,0.952,0.113
			c0.396,0.002,0.791-0.074,1.188-0.093c0.798-0.04,1.438-0.595,1.543-1.359c0.107-0.774-0.372-1.377-1.183-1.737
			C312.758,154.41,312.312,154.364,311.879,154.364z M308.886,180.225c-0.003,0.213-0.008,0.427-0.008,0.641
			c-0.002,0.469,0.186,0.846,0.583,0.862c0.563,0.023,1.075,0.223,1.614,0.315c0.5,0.085,0.585-0.053,0.382-0.505
			c-0.081-0.179-0.152-0.366-0.257-0.53c-0.331-0.517,0.069-0.939,0.187-1.381c0.066-0.252,1.083-0.505,1.308-0.368
			c0.466,0.284,0.807,0.778,0.833,1.269c0.018,0.324-0.185,0.905-0.677,1.022c-0.283,0.067-0.348,0.216-0.235,0.414
			c0.054,0.094,0.302,0.142,0.434,0.104c0.604-0.175,1.193-1.293,1.028-1.898c-0.235-0.865-1.402-1.617-2.236-1.442
			c-0.89,0.188-1.466,1.127-1.167,2.183c0.111,0.394,0.107,0.365-0.207,0.366c-0.996,0.002-1.091-0.093-1.085-1.15
			c0.003-0.342,0.023-0.685,0-1.024c-0.003-0.058-0.18-0.127-0.284-0.146c-0.057-0.01-0.185,0.071-0.188,0.117
			C308.89,179.456,308.892,179.84,308.886,180.225z M310.499,183.839c-0.123-0.002-0.247-0.014-0.369-0.003
			c-0.432,0.037-0.863,0.082-1.294,0.123c-0.06,0.652,0.622,0.542,0.857,0.894c0.093,0.138,0.215,0.261,0.343,0.367
			c0.491,0.405,0.985,0.806,1.487,1.195c0.247,0.191,0.566,0.544,0.763,0.488c0.461-0.133,0.075-0.672,0.243-0.963
			c0.175-0.304,0.095-0.521,0.021-0.825c-0.102-0.422,0.173-0.688,0.601-0.723c0.204-0.017,0.413,0.022,0.615-0.004
			c0.092-0.012,0.171-0.12,0.257-0.184c-0.086-0.106-0.169-0.303-0.258-0.305c-0.565-0.014-1.162,0.071-1.284-0.75
			c-0.141,0.023-0.281,0.047-0.422,0.071c0.146,0.799-0.404,0.624-0.82,0.628C310.992,183.851,310.746,183.842,310.499,183.839z
			 M313.952,189.194c-0.072-0.516-0.244-1.089-0.958-1.35c-0.621-0.228-1.457-0.242-1.654,0.184c-0.22,0.472-0.31,0.562-0.723,0.184
			c-0.583-0.536-1.334-0.306-1.682,0.438c-0.399,0.852-0.146,1.643,0.678,2.106c0.109,0.062,0.231,0.098,0.347,0.146
			c-0.016-0.201-0.005-0.411-0.061-0.6c-0.019-0.061-0.219-0.048-0.317-0.104c-0.405-0.229-0.362-0.639-0.313-1.009
			c0.043-0.326,0.586-0.757,0.875-0.734c0.44,0.034,0.621,0.309,0.602,0.753c-0.004,0.074,0.021,0.181,0.071,0.22
			c0.151,0.121,0.367,0.341,0.478,0.298c0.405-0.157-0.119-0.256-0.058-0.408c0.06-0.146,0.139-0.282,0.21-0.422
			c0.349-0.691,0.488-0.726,1.198-0.681c0.627,0.04,0.618,0.629,0.777,0.969c0.175,0.372-0.067,0.837-0.467,1.102
			c-0.165,0.109-0.34,0.215-0.47,0.362c-0.05,0.057-0.007,0.231,0.035,0.334c0.019,0.046,0.152,0.087,0.209,0.063
			C313.511,190.723,313.958,190.278,313.952,189.194z M309.041,169.007c-0.007,0.513-0.023,1.025-0.01,1.537
			c0.002,0.068,0.159,0.183,0.243,0.182c0.081-0.001,0.209-0.113,0.229-0.198c0.039-0.161,0.011-0.339,0.019-0.51
			c0.024-0.589,0.053-1.179,0.08-1.769c0.452,0.262,0.906,0.522,1.355,0.79c0.068,0.041,0.127,0.18,0.172,0.171
			c0.438-0.086,0.728,0.253,1.088,0.385c0.359,0.132,0.721,0.259,1.085,0.377c0.54,0.174,0.987,0.073,0.909-0.187
			c-0.118-0.398-0.523-0.385-0.819-0.525c-0.034-0.016-0.082-0.007-0.122-0.003c-0.693,0.056-1.29-0.305-1.872-0.576
			c-0.59-0.274-1.216-0.574-1.642-1.159c-0.086-0.118-0.376-0.125-0.559-0.094c-0.067,0.011-0.126,0.274-0.136,0.426
			C309.039,168.238,309.045,168.623,309.041,169.007z M311.896,151.028c-0.736-0.01-1.474-0.029-2.21-0.023
			c-0.134,0.001-0.268,0.103-0.401,0.158c0.065,0.142,0.106,0.306,0.201,0.421c0.212,0.258,0.479,0.47,0.672,0.741
			c0.21,0.294,0.226,0.984,0.742,0.647c0.392-0.255-0.228-0.574-0.288-0.923c-0.08-0.454-0.13-0.522,0.281-0.519
			c1.104,0.008,2.21,0.035,3.314,0.029c0.09,0,0.178-0.193,0.267-0.296c-0.082-0.068-0.162-0.192-0.245-0.194
			C313.452,151.043,312.673,151.038,311.896,151.028z M311.248,197.443c-0.368-0.005-0.739-0.043-1.104-0.008
			c-0.498,0.049-1.029-0.218-1.494,0.156c0.296,0.384,0.527,0.881,0.909,1.118c0.333,0.208,0.179,0.977,0.621,0.733
			c0.559-0.308-0.157-0.637-0.213-0.989c-0.071-0.441-0.12-0.512,0.303-0.509c1.105,0.008,2.21,0.032,3.315,0.034
			c0.084,0,0.168-0.121,0.252-0.187c-0.086-0.105-0.167-0.3-0.257-0.304C312.803,197.454,312.025,197.454,311.248,197.443z"/>
		<path fill-rule="evenodd" clip-rule="evenodd" d="M289.824,173.553c5.39,0.074,10.778,0.147,16.168,0.222
			c0.752,0.011,0.753,0.016,0.747,0.834c-0.005,0.512-0.01,1.025-0.03,1.537c-0.001,0.04-0.175,0.123-0.196,0.103
			c-0.356-0.333-0.785-0.16-1.173-0.166c-10.366-0.153-20.733-0.294-31.101-0.425c-0.388-0.005-0.812-0.192-1.173,0.139
			c-0.032,0.029-0.116,0.01-0.169-0.007c-0.021-0.007-0.034-0.071-0.033-0.109c0.025-0.761,0.053-1.522,0.081-2.283
			c0.648-0.016,1.297-0.053,1.945-0.045C279.868,173.414,284.846,173.485,289.824,173.553z"/>
		<path fill-rule="evenodd" clip-rule="evenodd" d="M289.466,190.476c-5.393-0.074-10.785-0.147-16.177-0.223
			c-0.614-0.008-0.625-0.016-0.616-0.585c0.008-0.549,0.042-1.098,0.063-1.646c0.524-0.02,1.049-0.064,1.573-0.058
			c10.332,0.137,20.664,0.279,30.996,0.42c0.288,0.004,0.576,0.018,0.864,0.009c0.232-0.008,0.395,0.025,0.378,0.33
			c-0.033,0.634-0.05,1.269-0.072,1.903c-0.566,0.02-1.132,0.063-1.697,0.056C299.674,190.618,294.571,190.546,289.466,190.476z"/>
		<path fill-rule="evenodd" clip-rule="evenodd" d="M290.006,159.449c5.392,0.074,10.785,0.146,16.176,0.222
			c0.756,0.01,0.755,0.016,0.75,0.833c-0.008,1.228-0.008,1.229-1.128,1.213c-10.537-0.144-21.076-0.288-31.613-0.432
			c-0.288-0.004-0.58,0.019-0.862-0.026c-0.101-0.016-0.251-0.194-0.252-0.3c-0.007-0.55,0.027-1.1,0.046-1.65
			c0.482-0.023,0.965-0.073,1.447-0.067C279.715,159.306,284.86,159.378,290.006,159.449z"/>
		<path fill-rule="evenodd" clip-rule="evenodd" d="M289.919,156.882c-5.351-0.073-10.702-0.146-16.053-0.22
			c-0.736-0.01-0.736-0.015-0.733-0.723c0.001-0.213,0.019-0.428,0.005-0.641c-0.019-0.304,0.046-0.492,0.398-0.44
			c0.202,0.029,0.411,0.01,0.617,0.013c10.62,0.145,21.24,0.291,31.86,0.436c0.247,0.003,0.496-0.011,0.739,0.02
			c0.09,0.011,0.234,0.125,0.237,0.195c0.015,0.469,0.009,0.94-0.021,1.409c-0.004,0.066-0.164,0.167-0.256,0.173
			c-0.287,0.019-0.576,0-0.864-0.003C300.54,157.028,295.229,156.955,289.919,156.882z"/>
		<path fill-rule="evenodd" clip-rule="evenodd" d="M289.432,192.527c-5.393-0.074-10.785-0.146-16.177-0.225
			c-0.194-0.002-0.549-0.04-0.555-0.096c-0.042-0.365-0.014-0.741,0.008-1.112c0.002-0.029,0.135-0.07,0.208-0.072
			c0.247-0.006,0.494,0.003,0.741,0.006c10.62,0.145,21.239,0.291,31.86,0.436c0.205,0.002,0.412,0.018,0.616,0.005
			c0.241-0.015,0.396,0.037,0.373,0.336c-0.018,0.212,0.021,0.434-0.023,0.638c-0.026,0.119-0.158,0.285-0.259,0.298
			c-0.283,0.038-0.574,0.007-0.862,0.003C300.051,192.673,294.742,192.6,289.432,192.527z"/>
		<path fill-rule="evenodd" clip-rule="evenodd" d="M290.121,151.243c5.434,0.074,10.867,0.146,16.3,0.23
			c0.213,0.003,0.554-0.162,0.617,0.189c0.058,0.322-0.013,0.67-0.045,1.004c-0.004,0.036-0.133,0.081-0.204,0.083
			c-0.247,0.007-0.494-0.002-0.741-0.006c-10.619-0.146-21.239-0.291-31.859-0.436c-0.206-0.003-0.414-0.027-0.617-0.004
			c-0.354,0.042-0.416-0.148-0.385-0.451c0.017-0.169,0.018-0.342,0.007-0.512c-0.018-0.3,0.14-0.344,0.38-0.327
			c0.287,0.02,0.576,0.011,0.864,0.016C279.666,151.1,284.893,151.171,290.121,151.243z"/>
		<path fill-rule="evenodd" clip-rule="evenodd" d="M289.69,183.554c-5.433-0.075-10.867-0.147-16.3-0.23
			c-0.212-0.003-0.553,0.164-0.615-0.191c-0.056-0.322,0.014-0.669,0.047-1.003c0.003-0.035,0.132-0.079,0.204-0.081
			c0.247-0.007,0.494,0.002,0.741,0.006c10.62,0.146,21.239,0.291,31.859,0.436c0.205,0.002,0.414,0.027,0.617,0.003
			c0.357-0.042,0.411,0.154,0.383,0.454c-0.017,0.169-0.018,0.342-0.008,0.512c0.018,0.302-0.144,0.341-0.382,0.325
			c-0.287-0.02-0.576-0.012-0.864-0.016C300.146,183.697,294.918,183.625,289.69,183.554z"/>
		<path fill-rule="evenodd" clip-rule="evenodd" d="M289.86,180.479c5.393,0.074,10.785,0.146,16.177,0.225
			c0.193,0.003,0.548,0.042,0.554,0.098c0.041,0.366,0.012,0.741-0.012,1.112c-0.002,0.029-0.136,0.068-0.209,0.07
			c-0.246,0.006-0.493-0.003-0.74-0.007c-10.62-0.145-21.24-0.291-31.86-0.436c-0.206-0.003-0.412-0.019-0.617-0.005
			c-0.244,0.016-0.394-0.042-0.37-0.339c0.017-0.212-0.021-0.434,0.023-0.638c0.026-0.118,0.16-0.282,0.261-0.295
			c0.283-0.037,0.574-0.006,0.862-0.002C279.241,180.333,284.551,180.406,289.86,180.479z"/>
		<path fill-rule="evenodd" clip-rule="evenodd" d="M290.146,149.96c-5.434-0.074-10.867-0.147-16.3-0.227
			c-0.195-0.002-0.55-0.035-0.557-0.091c-0.046-0.365-0.021-0.741-0.002-1.112c0.001-0.031,0.133-0.075,0.206-0.077
			c0.247-0.006,0.494,0.003,0.741,0.006c10.62,0.146,21.24,0.291,31.859,0.436c0.206,0.002,0.412,0.016,0.618,0.005
			c0.23-0.011,0.401,0.022,0.379,0.329c-0.016,0.212-0.02,0.428-0.009,0.641c0.015,0.306-0.156,0.333-0.388,0.319
			c-0.287-0.017-0.576-0.011-0.864-0.015C300.601,150.104,295.374,150.032,290.146,149.96z"/>
		<path fill-rule="evenodd" clip-rule="evenodd" d="M290.17,148.166c-5.433-0.074-10.867-0.148-16.3-0.227
			c-0.195-0.003-0.55-0.035-0.557-0.091c-0.046-0.365-0.021-0.741-0.002-1.112c0.001-0.031,0.133-0.075,0.206-0.077
			c0.247-0.007,0.494,0.003,0.741,0.006c10.62,0.145,21.24,0.291,31.86,0.436c0.205,0.003,0.412,0.016,0.617,0.006
			c0.231-0.011,0.402,0.022,0.379,0.329c-0.016,0.212-0.019,0.427-0.009,0.64c0.015,0.307-0.155,0.333-0.388,0.319
			c-0.287-0.017-0.576-0.011-0.864-0.015C300.625,148.309,295.398,148.237,290.17,148.166z"/>
		<path fill-rule="evenodd" clip-rule="evenodd" d="M290.07,146.112c-5.391-0.074-10.781-0.146-16.172-0.225
			c-0.195-0.003-0.55-0.035-0.557-0.091c-0.046-0.365-0.016-0.74-0.012-1.112c0.059,0.005,0.135-0.012,0.172,0.02
			c0.398,0.345,0.868,0.156,1.295,0.162c10.37,0.156,20.74,0.295,31.109,0.437c0.288,0.004,0.578,0.035,0.863,0.005
			c0.386-0.04,0.386,0.195,0.365,0.471c-0.02,0.275,0.096,0.633-0.399,0.567c-0.283-0.038-0.575-0.014-0.863-0.018
			C300.605,146.256,295.337,146.184,290.07,146.112z"/>
		<path fill-rule="evenodd" clip-rule="evenodd" d="M289.484,198.684c-5.434-0.074-10.867-0.147-16.3-0.225
			c-0.671-0.01-0.675-0.039-0.632-0.707c0.02-0.298,0.149-0.345,0.387-0.324c0.205,0.018,0.412,0.009,0.618,0.012
			c10.62,0.146,21.24,0.291,31.859,0.436c0.206,0.003,0.414,0.027,0.617,0.005c0.498-0.058,0.365,0.307,0.38,0.58
			c0.016,0.283-0.007,0.471-0.382,0.459c-1.481-0.043-2.964-0.05-4.445-0.07C297.551,198.794,293.518,198.739,289.484,198.684z"/>
		<path fill-rule="evenodd" clip-rule="evenodd" d="M292.73,141.789c6.174,0.084,12.349,0.166,18.524,0.264
			c0.22,0.004,0.599-0.231,0.632,0.319c0.037,0.601-0.349,0.441-0.645,0.437c-12.432-0.167-24.863-0.336-37.295-0.518
			c-0.22-0.003-0.599,0.231-0.632-0.319c-0.037-0.601,0.349-0.441,0.645-0.437C280.216,141.617,286.473,141.703,292.73,141.789z"/>
		<path fill-rule="evenodd" clip-rule="evenodd" d="M291.731,202.049c-5.971-0.082-11.941-0.164-17.911-0.245
			c-0.288-0.004-0.577,0.005-0.864-0.018c-0.15-0.012-0.305-0.063-0.437-0.138c-0.026-0.015,0.013-0.249,0.08-0.324
			c0.152-0.171,0.317-0.472,0.585-0.228c0.223,0.203,0.355,0.235,0.616,0.043c0.168-0.124,0.459-0.096,0.695-0.093
			c11.364,0.151,22.729,0.312,34.093,0.441c0.363,0.004,0.661,0.27,1.063,0.122c0.326-0.12,0.717-0.048,1.079-0.073
			c0.271-0.02,0.35,0.106,0.337,0.374c-0.011,0.23-0.014,0.419-0.314,0.4c-0.287-0.018-0.576-0.011-0.864-0.015
			C303.835,202.214,297.784,202.131,291.731,202.049z"/>
		<path fill-rule="evenodd" clip-rule="evenodd" d="M289.642,186.631c5.434,0.074,10.868,0.147,16.3,0.225
			c0.295,0.004,0.686-0.146,0.633,0.455c-0.049,0.55-0.421,0.305-0.641,0.302c-10.867-0.136-21.733-0.286-32.6-0.438
			c-0.295-0.004-0.685,0.146-0.633-0.455c0.048-0.55,0.42-0.304,0.64-0.302C278.775,186.479,284.208,186.557,289.642,186.631z"/>
		<path fill-rule="evenodd" clip-rule="evenodd" d="M291.803,200.767c-6.052-0.082-12.103-0.165-18.154-0.248
			c-0.33-0.005-0.66,0.006-0.987-0.027c-0.055-0.006-0.114-0.194-0.127-0.304c-0.007-0.059,0.072-0.179,0.124-0.187
			c0.162-0.022,0.328-0.004,0.493-0.002c12.432,0.17,24.863,0.34,37.295,0.51c0.165,0.003,0.339-0.027,0.489,0.021
			c0.07,0.022,0.117,0.193,0.131,0.304c0.007,0.059-0.076,0.185-0.123,0.187c-0.328,0.012-0.658-0.001-0.987-0.005
			C303.906,200.933,297.854,200.85,291.803,200.767z"/>
		<path fill-rule="evenodd" clip-rule="evenodd" d="M292.332,171.022c6.174,0.084,12.349,0.167,18.524,0.262
			c0.208,0.003,0.571-0.174,0.606,0.197c0.051,0.543-0.399,0.299-0.62,0.296c-12.431-0.158-24.863-0.329-37.295-0.508
			c-0.208-0.003-0.572,0.174-0.606-0.197c-0.051-0.544,0.399-0.299,0.62-0.296C279.818,170.849,286.075,170.937,292.332,171.022z"/>
		<path fill-rule="evenodd" clip-rule="evenodd" d="M292.047,172.814c-6.175-0.084-12.35-0.167-18.524-0.262
			c-0.206-0.003-0.572,0.18-0.6-0.204c-0.039-0.536,0.406-0.292,0.626-0.289c12.432,0.158,24.864,0.329,37.295,0.508
			c0.206,0.003,0.572-0.18,0.6,0.204c0.038,0.536-0.405,0.292-0.627,0.29C304.561,172.988,298.303,172.899,292.047,172.814z"/>
		<path fill-rule="evenodd" clip-rule="evenodd" d="M292.448,143.58c-6.175-0.084-12.35-0.167-18.524-0.262
			c-0.206-0.003-0.572,0.18-0.6-0.204c-0.038-0.536,0.406-0.292,0.627-0.289c12.432,0.158,24.864,0.328,37.296,0.508
			c0.205,0.003,0.571-0.18,0.599,0.204c0.039,0.536-0.405,0.292-0.627,0.289C304.961,143.754,298.705,143.666,292.448,143.58z"/>
		<path fill-rule="evenodd" clip-rule="evenodd" d="M289.875,170.219c-5.269-0.072-10.538-0.144-15.806-0.216
			c-0.33-0.004-0.66,0.005-0.987-0.027c-0.055-0.006-0.114-0.194-0.128-0.303c-0.008-0.059,0.071-0.18,0.123-0.187
			c0.161-0.022,0.328-0.005,0.493-0.002c10.867,0.148,21.733,0.297,32.6,0.446c0.165,0.002,0.339-0.027,0.49,0.021
			c0.07,0.022,0.117,0.193,0.131,0.303c0.008,0.059-0.075,0.185-0.122,0.187c-0.287,0.014-0.575,0.001-0.863-0.003
			C300.494,170.365,295.184,170.292,289.875,170.219z"/>
		<path fill-rule="evenodd" clip-rule="evenodd" d="M289.908,167.142c5.269,0.072,10.537,0.144,15.807,0.216
			c0.329,0.005,0.659-0.005,0.986,0.028c0.054,0.005,0.111,0.196,0.124,0.307c0.007,0.058-0.074,0.176-0.127,0.183
			c-0.161,0.022-0.327,0.004-0.492,0.002c-10.866-0.149-21.733-0.297-32.6-0.446c-0.165-0.002-0.339,0.028-0.49-0.021
			c-0.069-0.022-0.114-0.196-0.127-0.307c-0.007-0.058,0.078-0.181,0.125-0.183c0.288-0.014,0.576-0.001,0.864,0.003
			C279.288,166.997,284.598,167.069,289.908,167.142z"/>
		<path fill-rule="evenodd" clip-rule="evenodd" d="M289.799,165.858c-5.393-0.074-10.785-0.145-16.177-0.23
			c-0.207-0.003-0.572,0.176-0.604-0.2c-0.046-0.54,0.402-0.296,0.622-0.293c10.867,0.136,21.733,0.285,32.601,0.443
			c0.207,0.003,0.571-0.176,0.604,0.2c0.046,0.54-0.401,0.296-0.622,0.293C300.748,166.011,295.273,165.933,289.799,165.858z"/>
		<path fill-rule="evenodd" clip-rule="evenodd" d="M290.158,158.425c5.393,0.074,10.784,0.145,16.177,0.229
			c0.207,0.003,0.571-0.175,0.604,0.199c0.048,0.542-0.4,0.297-0.621,0.294c-10.866-0.136-21.733-0.285-32.6-0.443
			c-0.208-0.003-0.572,0.175-0.604-0.199c-0.048-0.541,0.4-0.297,0.621-0.294C279.209,158.272,284.684,158.35,290.158,158.425z"/>
		<path fill-rule="evenodd" clip-rule="evenodd" d="M289.959,153.805c-5.392-0.074-10.785-0.145-16.177-0.23
			c-0.206-0.003-0.572,0.18-0.6-0.204c-0.038-0.536,0.406-0.292,0.627-0.29c10.867,0.137,21.733,0.286,32.6,0.444
			c0.206,0.003,0.572-0.18,0.6,0.204c0.039,0.536-0.405,0.292-0.626,0.289C300.908,153.958,295.434,153.88,289.959,153.805z"/>
		<path fill-rule="evenodd" clip-rule="evenodd" d="M289.822,163.806c-5.392-0.074-10.785-0.145-16.177-0.23
			c-0.206-0.003-0.572,0.18-0.599-0.204c-0.039-0.536,0.406-0.292,0.626-0.29c10.867,0.137,21.734,0.286,32.6,0.444
			c0.206,0.003,0.572-0.18,0.6,0.204c0.038,0.536-0.406,0.292-0.627,0.289C300.771,163.959,295.296,163.881,289.822,163.806z"/>
		<path fill-rule="evenodd" clip-rule="evenodd" d="M289.388,196.118c-5.392-0.074-10.784-0.146-16.176-0.229
			c-0.209-0.003-0.572,0.172-0.608-0.196c-0.054-0.545,0.397-0.301,0.617-0.298c10.867,0.137,21.733,0.286,32.6,0.443
			c0.209,0.003,0.572-0.172,0.608,0.196c0.055,0.545-0.397,0.3-0.617,0.298C300.337,196.271,294.863,196.192,289.388,196.118z"/>
		<path fill-rule="evenodd" clip-rule="evenodd" d="M289.541,194.324c-5.269-0.072-10.538-0.144-15.806-0.216
			c-0.329-0.004-0.66,0.005-0.987-0.027c-0.054-0.005-0.111-0.196-0.124-0.307c-0.007-0.058,0.074-0.176,0.125-0.183
			c0.162-0.022,0.328-0.004,0.493-0.002c10.867,0.149,21.734,0.297,32.601,0.446c0.164,0.002,0.339-0.027,0.489,0.021
			c0.069,0.022,0.115,0.196,0.128,0.306c0.007,0.058-0.078,0.181-0.125,0.184c-0.288,0.014-0.576,0.001-0.864-0.003
			C300.161,194.47,294.85,194.397,289.541,194.324z"/>
		<path fill-rule="evenodd" clip-rule="evenodd" d="M289.65,186.118c-5.433-0.074-10.866-0.146-16.3-0.233
			c-0.22-0.004-0.679,0.228-0.607-0.316c0.048-0.365,0.405-0.181,0.614-0.178c10.867,0.139,21.733,0.288,32.601,0.448
			c0.22,0.003,0.679-0.228,0.607,0.316c-0.048,0.365-0.405,0.18-0.614,0.178C300.516,186.269,295.083,186.193,289.65,186.118z"/>
		<path fill-rule="evenodd" clip-rule="evenodd" d="M289.762,177.912c5.434,0.075,10.867,0.146,16.3,0.234
			c0.22,0.003,0.679-0.229,0.608,0.315c-0.048,0.366-0.405,0.181-0.614,0.179c-10.867-0.14-21.733-0.288-32.6-0.449
			c-0.22-0.003-0.678,0.229-0.608-0.315c0.047-0.366,0.405-0.181,0.614-0.179C278.895,177.762,284.329,177.838,289.762,177.912z"/>
		<path fill-rule="evenodd" clip-rule="evenodd" d="M289.642,177.141c-5.392-0.074-10.784-0.145-16.176-0.23
			c-0.207-0.003-0.572,0.178-0.602-0.202c-0.042-0.537,0.404-0.294,0.625-0.292c10.867,0.136,21.734,0.286,32.6,0.444
			c0.206,0.003,0.572-0.178,0.602,0.202c0.042,0.537-0.404,0.293-0.625,0.291C300.59,177.294,295.116,177.216,289.642,177.141z"/>
		<path fill-rule="evenodd" clip-rule="evenodd" d="M308.947,175.816c0.015-0.65,0.492-1.284,1.083-1.411
			c0.042-0.009,0.16,0.126,0.161,0.194c0.001,0.228,0.04,0.392-0.298,0.545c-0.605,0.275-0.624,0.887-0.18,1.411
			c0.327,0.387,0.651,0.756,1.228,0.623c0.281-0.064,0.155-0.146,0.062-0.303c-0.295-0.489-0.385-0.93-0.123-1.558
			c0.188-0.452,0.414-0.628,0.769-0.79c0.678-0.31,1.622-0.163,2.083,0.325c0.484,0.514,0.551,1.432,0.14,2.138
			c-0.101,0.173-0.22,0.393-0.381,0.46c-0.394,0.163-0.79,0.344-1.249,0.263c-0.384-0.067-0.75,0.589-1.181,0.038
			c-0.071-0.091-0.302-0.052-0.458-0.069C309.372,177.551,308.92,177.042,308.947,175.816z M312.116,177.191
			c1.031,0.02,1.563-0.476,1.525-1.19c-0.03-0.57-0.628-1.106-1.241-1.113c-0.427-0.005-1.254,0.714-1.206,1.14
			c0.037,0.332,0.199,0.693,0.411,0.946C311.757,177.155,312.083,177.179,312.116,177.191z"/>
		<path fill-rule="evenodd" clip-rule="evenodd" d="M312.889,166.428c-0.752-0.007-1.262,0.091-1.362-0.662
			c-0.027-0.198-0.323-0.204-0.461,0.034c-0.037,0.064,0.009,0.204-0.035,0.236c-0.25,0.187-1.231,0.093-1.494-0.068
			c-0.751-0.46-0.531-2.025,0.098-2.519c0.216-0.169,0.611-0.106,0.926-0.125c0.278-0.017,0.605-0.067,0.552,0.411
			c0.141,0.012,0.28,0.024,0.421,0.036c0.021-0.557,0.532-0.553,0.833-0.65c0.348-0.112,0.772-0.097,1.13,0.226
			c0.278,0.252,0.776,0.975,0.797,1.339c0.043,0.738-0.324,1.274-0.848,1.672C313.251,166.506,312.9,166.427,312.889,166.428z
			 M312.686,165.915c0.643,0.005,1.087-0.447,1.108-1.127c0.016-0.5-0.562-1.146-1.055-1.18c-0.528-0.037-1.199,0.645-1.17,1.19
			C311.606,165.487,312.028,165.91,312.686,165.915z M311.076,164.76c0.001-0.085,0.009-0.171,0.003-0.256
			c-0.028-0.437-0.244-0.649-0.68-0.672c-0.519-0.028-0.76,0.172-0.801,0.673c-0.014,0.17-0.028,0.345-0.004,0.512
			c0.052,0.359,0.219,0.59,0.614,0.614C310.833,165.669,311.061,165.458,311.076,164.76z"/>
		<path fill-rule="evenodd" clip-rule="evenodd" d="M311.734,158.72c0.374,0.122,0.913-0.226,1.292,0.274
			c0.911-0.068,1.132,0.703,1.293,1.328c0.178,0.688-0.289,1.238-0.786,1.677c-0.282,0.249-0.44-0.038-0.574-0.221
			c-0.036-0.05,0.088-0.23,0.145-0.347c0.018-0.036,0.054-0.065,0.087-0.089c0.764-0.547,0.849-1.065,0.206-1.655
			c-0.35-0.322-0.793-0.517-1.292-0.447c-0.287,0.041-0.163,0.148-0.058,0.298c0.427,0.604,0.455,1.456,0.054,2.038
			c-0.095,0.138-0.282,0.217-0.44,0.294c-0.891,0.437-1.935,0.152-2.423-0.653c-0.191-0.317-0.076-1.343,0.185-1.636
			C310.101,158.818,310.403,158.702,311.734,158.72z M311.877,160.383c0.009-0.67-0.384-1.15-0.949-1.162
			c-0.754-0.015-1.291,0.545-1.277,1.333c0.009,0.552,0.556,0.977,1.257,0.976C311.473,161.529,311.868,161.063,311.877,160.383z"/>
		<path fill-rule="evenodd" clip-rule="evenodd" d="M313.892,193.699c-0.006,0.426,0.021,0.856-0.03,1.276
			c-0.028,0.221-0.149,0.505-0.315,0.606c-0.114,0.07-0.442-0.067-0.563-0.212c-0.445-0.53-1.008-0.935-1.34-1.597
			c-0.293-0.585-0.845-0.954-1.546-0.965c-0.537-0.009-0.723,0.072-0.847,0.593c-0.146,0.609-0.108,1.183,0.563,1.496
			c0.059,0.028,0.023,0.275,0.031,0.421c-0.111,0.004-0.257,0.06-0.328,0.007c-0.876-0.646-1.063-1.502-0.556-2.476
			c0.416-0.799,0.885-0.943,1.692-0.546c0.563,0.277,1.175,0.484,1.326,1.235c0.007,0.035,0.054,0.062,0.083,0.092
			c0.314,0.335,0.629,0.671,0.943,1.007c0.051-0.443,0.113-0.885,0.146-1.329c0.025-0.339-0.01-0.685,0.035-1.02
			c0.011-0.082,0.232-0.187,0.355-0.185c0.124,0.001,0.349,0.116,0.353,0.192C313.922,192.761,313.899,193.231,313.892,193.699z"/>
		<path fill-rule="evenodd" clip-rule="evenodd" d="M314.524,147.601c-0.004,0.299-0.006,0.598-0.013,0.897
			c-0.019,0.909-0.055,0.896-0.858,0.543c-0.4-0.176-0.654-0.435-0.867-0.783c-0.431-0.707-0.936-1.333-1.683-1.705
			c-0.538-0.268-1.142,0.032-1.271,0.627c-0.143,0.661,0.116,1.142,0.618,1.518c0.093,0.069,0.188,0.133,0.283,0.2
			c-0.165,0.104-0.351,0.317-0.491,0.289c-0.37-0.074-0.932-0.934-0.904-1.35c0.03-0.481-0.143-0.98,0.314-1.413
			c0.717-0.68,1.495-0.794,2.199-0.09c0.574,0.574,1.235,1.09,1.563,1.895c0.04,0.098,0.167,0.157,0.253,0.234
			c0.035-0.113,0.1-0.226,0.103-0.339c0.019-0.641,0.025-1.282,0.029-1.923c0.002-0.339,0.241-0.298,0.425-0.261
			c0.117,0.024,0.299,0.157,0.304,0.25C314.554,146.66,314.531,147.131,314.524,147.601z"/>
		<path fill-rule="evenodd" clip-rule="evenodd" d="M311.084,208.726c-0.369-0.005-0.738,0.005-1.106-0.019
			c-1.21-0.076-1.815-1.225-1.284-2.378c0.119-0.259,0.25-0.401,0.515-0.53c1.173-0.57,2.352-0.541,3.537-0.121
			c0.589,0.209,1.085,1.211,0.958,1.812c-0.144,0.679-0.801,1.229-1.513,1.249C311.823,208.749,311.454,208.731,311.084,208.726z
			 M311.032,208.212c1.411,0.019,1.414,0.021,2.021-0.714c0.072-0.087,0.179-0.248,0.148-0.307
			c-0.184-0.348-0.332-0.783-0.624-0.988c-0.632-0.443-2.357-0.431-2.962-0.011c-0.313,0.219-0.617,0.488-0.624,1.007
			c-0.008,0.574,0.401,0.616,0.712,0.842C310.161,208.374,310.658,208.1,311.032,208.212z"/>
		<path fill-rule="evenodd" clip-rule="evenodd" d="M311.879,154.364c0.433,0,0.879,0.046,1.342,0.252
			c0.811,0.36,1.29,0.963,1.183,1.737c-0.104,0.764-0.745,1.32-1.543,1.359c-0.397,0.02-0.793,0.095-1.188,0.093
			c-0.317-0.001-0.639-0.132-0.952-0.113c-0.441,0.027-0.752-0.242-1.052-0.463c-0.614-0.456-0.635-1.509-0.112-2.087
			C310.183,154.448,310.982,154.323,311.879,154.364z M311.654,157.18c0.453,0.006,0.909,0.048,1.356,0.002
			c0.212-0.021,0.447-0.17,0.598-0.334c0.149-0.163,0.255-0.409,0.293-0.634c0.062-0.364-0.51-0.982-0.922-1.071
			c-0.379-0.081-0.753-0.249-1.13-0.251c-0.419-0.002-0.839,0.143-1.259,0.22c-0.54,0.1-0.922,0.589-0.881,1.133
			c0.035,0.461,0.476,0.893,0.957,0.918C310.995,157.181,311.325,157.175,311.654,157.18z"/>
		<path fill-rule="evenodd" clip-rule="evenodd" d="M308.886,180.225c0.006-0.385,0.004-0.77,0.024-1.153
			c0.003-0.045,0.131-0.127,0.188-0.117c0.104,0.019,0.281,0.087,0.284,0.146c0.023,0.34,0.003,0.683,0,1.024
			c-0.006,1.057,0.089,1.152,1.085,1.15c0.314,0,0.318,0.028,0.207-0.366c-0.299-1.056,0.277-1.996,1.167-2.183
			c0.834-0.175,2.001,0.577,2.236,1.442c0.165,0.605-0.425,1.723-1.028,1.898c-0.132,0.038-0.38-0.01-0.434-0.104
			c-0.112-0.198-0.048-0.347,0.235-0.414c0.492-0.118,0.694-0.698,0.677-1.022c-0.026-0.49-0.367-0.985-0.833-1.269
			c-0.225-0.137-1.241,0.116-1.308,0.368c-0.117,0.442-0.518,0.864-0.187,1.381c0.104,0.164,0.176,0.351,0.257,0.53
			c0.203,0.452,0.118,0.59-0.382,0.505c-0.539-0.092-1.051-0.292-1.614-0.315c-0.397-0.016-0.585-0.393-0.583-0.862
			C308.878,180.652,308.883,180.438,308.886,180.225z"/>
		<path fill-rule="evenodd" clip-rule="evenodd" d="M310.499,183.839c0.247,0.003,0.493,0.012,0.74,0.009
			c0.416-0.004,0.966,0.17,0.82-0.628c0.141-0.023,0.281-0.047,0.422-0.071c0.122,0.821,0.719,0.736,1.284,0.75
			c0.089,0.002,0.172,0.199,0.258,0.305c-0.086,0.064-0.165,0.172-0.257,0.184c-0.202,0.026-0.411-0.013-0.615,0.004
			c-0.428,0.035-0.702,0.3-0.601,0.723c0.073,0.305,0.153,0.521-0.021,0.825c-0.168,0.291,0.218,0.831-0.243,0.963
			c-0.196,0.057-0.516-0.297-0.763-0.488c-0.502-0.389-0.996-0.791-1.487-1.195c-0.128-0.105-0.25-0.229-0.343-0.367
			c-0.235-0.353-0.917-0.242-0.857-0.894c0.431-0.042,0.862-0.086,1.294-0.123C310.251,183.825,310.375,183.837,310.499,183.839z
			 M311.058,184.359c-0.205-0.003-0.411-0.015-0.615-0.005c-0.113,0.006-0.225,0.05-0.336,0.077c0.058,0.091,0.1,0.202,0.176,0.27
			c0.42,0.374,0.844,0.743,1.277,1.099c0.083,0.069,0.233,0.127,0.317,0.094c0.075-0.029,0.134-0.189,0.144-0.297
			C312.132,184.374,312.129,184.374,311.058,184.359z"/>
		<path fill-rule="evenodd" clip-rule="evenodd" d="M313.952,189.194c0.006,1.084-0.44,1.529-1.223,1.851
			c-0.057,0.023-0.19-0.018-0.209-0.063c-0.042-0.103-0.085-0.277-0.035-0.334c0.13-0.146,0.305-0.252,0.47-0.362
			c0.399-0.264,0.642-0.729,0.467-1.102c-0.159-0.34-0.15-0.93-0.777-0.969c-0.71-0.044-0.85-0.01-1.198,0.681
			c-0.071,0.14-0.15,0.277-0.21,0.422c-0.062,0.152,0.463,0.251,0.058,0.408c-0.11,0.042-0.326-0.178-0.478-0.298
			c-0.051-0.04-0.075-0.146-0.071-0.22c0.02-0.445-0.161-0.719-0.602-0.753c-0.289-0.023-0.832,0.409-0.875,0.734
			c-0.049,0.371-0.092,0.78,0.313,1.009c0.099,0.056,0.299,0.042,0.317,0.104c0.056,0.189,0.045,0.398,0.061,0.6
			c-0.115-0.048-0.237-0.085-0.347-0.146c-0.824-0.463-1.077-1.254-0.678-2.106c0.348-0.743,1.099-0.973,1.682-0.438
			c0.413,0.378,0.503,0.289,0.723-0.184c0.197-0.426,1.033-0.412,1.654-0.184C313.708,188.105,313.879,188.678,313.952,189.194z"/>
		<path fill-rule="evenodd" clip-rule="evenodd" d="M309.041,169.007c0.005-0.384-0.002-0.77,0.021-1.153
			c0.01-0.152,0.068-0.416,0.136-0.426c0.183-0.03,0.473-0.024,0.559,0.094c0.426,0.584,1.052,0.884,1.642,1.159
			c0.582,0.271,1.179,0.632,1.872,0.576c0.04-0.003,0.088-0.013,0.122,0.003c0.296,0.14,0.701,0.127,0.819,0.525
			c0.078,0.26-0.369,0.361-0.909,0.187c-0.364-0.118-0.726-0.245-1.085-0.377c-0.36-0.132-0.649-0.472-1.088-0.385
			c-0.045,0.009-0.104-0.13-0.172-0.171c-0.449-0.268-0.903-0.527-1.355-0.79c-0.027,0.59-0.056,1.179-0.08,1.769
			c-0.008,0.171,0.021,0.349-0.019,0.51c-0.021,0.085-0.148,0.197-0.229,0.198c-0.084,0.001-0.241-0.113-0.243-0.182
			C309.017,170.033,309.034,169.52,309.041,169.007z"/>
		<path fill-rule="evenodd" clip-rule="evenodd" d="M311.896,151.028c0.777,0.01,1.556,0.015,2.333,0.041
			c0.083,0.002,0.163,0.126,0.245,0.194c-0.089,0.103-0.177,0.295-0.267,0.296c-1.104,0.005-2.21-0.021-3.314-0.029
			c-0.411-0.003-0.361,0.065-0.281,0.519c0.061,0.35,0.68,0.668,0.288,0.923c-0.517,0.337-0.532-0.353-0.742-0.647
			c-0.192-0.271-0.46-0.483-0.672-0.741c-0.095-0.115-0.136-0.279-0.201-0.421c0.134-0.055,0.268-0.156,0.401-0.158
			C310.422,150.999,311.16,151.018,311.896,151.028z"/>
		<path fill-rule="evenodd" clip-rule="evenodd" d="M311.248,197.443c0.777,0.011,1.556,0.011,2.332,0.046
			c0.09,0.004,0.171,0.198,0.257,0.304c-0.084,0.065-0.168,0.187-0.252,0.187c-1.105-0.002-2.21-0.026-3.315-0.034
			c-0.423-0.003-0.374,0.067-0.303,0.509c0.056,0.353,0.771,0.682,0.213,0.989c-0.442,0.243-0.288-0.525-0.621-0.733
			c-0.382-0.237-0.613-0.734-0.909-1.118c0.465-0.374,0.996-0.107,1.494-0.156C310.508,197.4,310.879,197.438,311.248,197.443z"/>
		<path fill-rule="evenodd" clip-rule="evenodd" fill="#FFFFFF" d="M312.116,177.191c-0.032-0.012-0.358-0.036-0.511-0.217
			c-0.212-0.253-0.374-0.614-0.411-0.946c-0.048-0.426,0.779-1.145,1.206-1.14c0.613,0.007,1.211,0.542,1.241,1.113
			C313.678,176.715,313.147,177.21,312.116,177.191z"/>
		<path fill-rule="evenodd" clip-rule="evenodd" fill="#FFFFFF" d="M312.686,165.915c-0.658-0.005-1.08-0.428-1.116-1.118
			c-0.029-0.545,0.642-1.227,1.17-1.19c0.493,0.034,1.07,0.68,1.055,1.18C313.773,165.467,313.329,165.919,312.686,165.915z"/>
		<path fill-rule="evenodd" clip-rule="evenodd" fill="#FFFFFF" d="M311.076,164.76c-0.015,0.698-0.242,0.909-0.867,0.871
			c-0.396-0.024-0.563-0.255-0.614-0.614c-0.024-0.167-0.01-0.342,0.004-0.512c0.041-0.501,0.282-0.701,0.801-0.673
			c0.436,0.023,0.651,0.235,0.68,0.672C311.084,164.588,311.077,164.674,311.076,164.76z"/>
		<path fill-rule="evenodd" clip-rule="evenodd" fill="#FFFFFF" d="M311.877,160.383c-0.01,0.68-0.404,1.146-0.97,1.146
			c-0.701,0.001-1.248-0.424-1.257-0.976c-0.014-0.787,0.523-1.347,1.277-1.333C311.494,159.233,311.886,159.713,311.877,160.383z"
			/>
		<path fill-rule="evenodd" clip-rule="evenodd" fill="#FFFFFF" d="M311.032,208.212c-0.374-0.112-0.871,0.161-1.328-0.171
			c-0.311-0.226-0.72-0.268-0.712-0.842c0.007-0.519,0.311-0.788,0.624-1.007c0.604-0.42,2.33-0.433,2.962,0.011
			c0.292,0.205,0.44,0.641,0.624,0.988c0.03,0.059-0.076,0.22-0.148,0.307C312.446,208.233,312.443,208.231,311.032,208.212z"/>
		<path fill-rule="evenodd" clip-rule="evenodd" fill="#FFFFFF" d="M311.654,157.18c-0.329-0.005-0.659,0.001-0.987-0.016
			c-0.481-0.026-0.922-0.458-0.957-0.918c-0.041-0.544,0.341-1.033,0.881-1.133c0.42-0.077,0.84-0.222,1.259-0.22
			c0.377,0.002,0.751,0.17,1.13,0.251c0.412,0.089,0.983,0.707,0.922,1.071c-0.038,0.225-0.144,0.471-0.293,0.634
			c-0.15,0.164-0.386,0.313-0.598,0.334C312.563,157.228,312.107,157.186,311.654,157.18z"/>
		<path fill-rule="evenodd" clip-rule="evenodd" fill="#FFFFFF" d="M311.058,184.359c1.071,0.015,1.074,0.015,0.963,1.237
			c-0.01,0.108-0.068,0.268-0.144,0.297c-0.084,0.034-0.234-0.025-0.317-0.094c-0.434-0.356-0.857-0.725-1.277-1.099
			c-0.076-0.068-0.118-0.179-0.176-0.27c0.111-0.027,0.223-0.071,0.336-0.077C310.647,184.344,310.853,184.356,311.058,184.359z"/>
	</g>
</g>
<g>
	<g>
		<path fill-rule="evenodd" clip-rule="evenodd" fill="#FFFFFF" d="M272.158,172.926c0.161-11.753,0.325-23.506,0.471-35.26
			c0.006-0.445,0.086-0.525,0.514-0.519c14.498,0.213,28.995,0.412,43.493,0.595c0.429,0.005,0.506,0.088,0.5,0.533
			c-0.307,21.327-0.597,42.654-0.89,63.981c-0.03,2.222-0.07,4.444-0.08,6.667c-0.002,0.34-0.061,0.396-0.387,0.39
			c-9.35-0.141-18.699-0.266-28.049-0.394c-5.189-0.071-10.379-0.149-15.569-0.2c-0.429-0.004-0.506-0.088-0.5-0.533
			C271.839,196.433,271.997,184.68,272.158,172.926z M289.824,173.553c-4.978-0.068-9.956-0.139-14.934-0.201
			c-0.648-0.008-1.297,0.029-1.945,0.045c-0.028,0.761-0.056,1.522-0.081,2.283c-0.001,0.038,0.012,0.102,0.033,0.109
			c0.053,0.017,0.138,0.036,0.169,0.007c0.361-0.331,0.785-0.144,1.173-0.139c10.367,0.131,20.734,0.272,31.101,0.425
			c0.388,0.006,0.816-0.167,1.173,0.166c0.021,0.02,0.195-0.063,0.196-0.103c0.021-0.512,0.025-1.024,0.03-1.537
			c0.006-0.818,0.005-0.823-0.747-0.834C300.602,173.7,295.213,173.626,289.824,173.553z M289.466,190.476
			c5.104,0.07,10.208,0.142,15.313,0.206c0.565,0.007,1.131-0.036,1.697-0.056c0.022-0.634,0.039-1.269,0.072-1.903
			c0.017-0.305-0.146-0.338-0.378-0.33c-0.288,0.009-0.576-0.005-0.864-0.009c-10.332-0.141-20.664-0.284-30.996-0.42
			c-0.524-0.007-1.049,0.038-1.573,0.058c-0.022,0.549-0.055,1.098-0.063,1.646c-0.009,0.57,0.001,0.577,0.616,0.585
			C278.682,190.329,284.074,190.402,289.466,190.476z M290.006,159.449c-5.146-0.07-10.291-0.143-15.436-0.208
			c-0.482-0.006-0.965,0.043-1.447,0.067c-0.02,0.55-0.053,1.1-0.046,1.65c0.001,0.106,0.152,0.284,0.252,0.3
			c0.282,0.044,0.574,0.022,0.862,0.026c10.538,0.144,21.076,0.289,31.613,0.432c1.12,0.016,1.12,0.015,1.128-1.213
			c0.005-0.817,0.006-0.822-0.75-0.833C300.791,159.595,295.398,159.522,290.006,159.449z M289.919,156.882
			c5.31,0.073,10.62,0.146,15.93,0.218c0.288,0.004,0.577,0.022,0.864,0.003c0.092-0.006,0.252-0.107,0.256-0.173
			c0.029-0.469,0.035-0.939,0.021-1.409c-0.003-0.071-0.147-0.185-0.237-0.195c-0.243-0.03-0.492-0.016-0.739-0.02
			c-10.62-0.145-21.24-0.291-31.86-0.436c-0.206-0.003-0.415,0.016-0.617-0.013c-0.353-0.051-0.417,0.136-0.398,0.44
			c0.013,0.212-0.004,0.427-0.005,0.641c-0.003,0.708-0.002,0.712,0.733,0.723C279.217,156.737,284.568,156.81,289.919,156.882z
			 M289.432,192.527c5.31,0.073,10.619,0.146,15.93,0.218c0.288,0.004,0.579,0.035,0.862-0.003c0.101-0.013,0.232-0.18,0.259-0.298
			c0.045-0.204,0.006-0.425,0.023-0.638c0.023-0.3-0.132-0.351-0.373-0.336c-0.204,0.013-0.411-0.002-0.616-0.005
			c-10.621-0.146-21.24-0.291-31.86-0.436c-0.247-0.003-0.494-0.013-0.741-0.006c-0.073,0.001-0.206,0.042-0.208,0.072
			c-0.022,0.371-0.05,0.747-0.008,1.112c0.006,0.056,0.361,0.093,0.555,0.096C278.647,192.381,284.04,192.454,289.432,192.527z
			 M290.121,151.243c-5.228-0.071-10.455-0.143-15.683-0.214c-0.289-0.004-0.577,0.004-0.864-0.016
			c-0.241-0.017-0.398,0.027-0.38,0.327c0.01,0.17,0.009,0.343-0.007,0.512c-0.03,0.303,0.031,0.493,0.385,0.451
			c0.203-0.023,0.411,0.001,0.617,0.004c10.62,0.146,21.24,0.291,31.859,0.436c0.247,0.003,0.494,0.013,0.741,0.006
			c0.071-0.002,0.2-0.047,0.204-0.083c0.032-0.334,0.103-0.683,0.045-1.004c-0.063-0.351-0.404-0.186-0.617-0.189
			C300.988,151.389,295.554,151.317,290.121,151.243z M289.69,183.554c5.228,0.071,10.456,0.143,15.683,0.214
			c0.288,0.004,0.577-0.004,0.864,0.016c0.238,0.016,0.399-0.023,0.382-0.325c-0.01-0.17-0.009-0.343,0.008-0.512
			c0.028-0.3-0.025-0.496-0.383-0.454c-0.203,0.024-0.412-0.001-0.617-0.003c-10.62-0.146-21.24-0.291-31.859-0.436
			c-0.248-0.003-0.495-0.013-0.741-0.006c-0.072,0.002-0.201,0.046-0.204,0.081c-0.033,0.334-0.104,0.682-0.047,1.003
			c0.062,0.355,0.403,0.188,0.615,0.191C278.824,183.407,284.257,183.479,289.69,183.554z M289.86,180.479
			c-5.31-0.073-10.62-0.146-15.93-0.218c-0.288-0.004-0.579-0.035-0.862,0.002c-0.102,0.013-0.235,0.178-0.261,0.295
			c-0.045,0.204-0.006,0.425-0.023,0.638c-0.024,0.297,0.125,0.355,0.37,0.339c0.205-0.013,0.411,0.002,0.617,0.005
			c10.62,0.145,21.24,0.291,31.86,0.436c0.247,0.003,0.494,0.013,0.74,0.007c0.073-0.002,0.207-0.042,0.209-0.07
			c0.023-0.371,0.053-0.746,0.012-1.112c-0.006-0.056-0.36-0.095-0.554-0.098C300.645,180.625,295.253,180.552,289.86,180.479z
			 M290.146,149.96c5.228,0.072,10.455,0.143,15.683,0.215c0.288,0.004,0.577-0.002,0.864,0.015
			c0.231,0.014,0.402-0.013,0.388-0.319c-0.011-0.213-0.007-0.428,0.009-0.641c0.022-0.306-0.148-0.339-0.379-0.329
			c-0.206,0.01-0.412-0.003-0.618-0.005c-10.619-0.146-21.239-0.291-31.859-0.436c-0.248-0.003-0.494-0.013-0.741-0.006
			c-0.072,0.002-0.204,0.046-0.206,0.077c-0.019,0.371-0.044,0.747,0.002,1.112c0.007,0.056,0.362,0.088,0.557,0.091
			C279.279,149.813,284.712,149.886,290.146,149.96z M290.17,148.166c5.228,0.071,10.455,0.143,15.683,0.214
			c0.288,0.004,0.577-0.002,0.864,0.015c0.232,0.014,0.402-0.013,0.388-0.319c-0.01-0.213-0.007-0.428,0.009-0.64
			c0.023-0.306-0.147-0.339-0.379-0.329c-0.205,0.01-0.412-0.003-0.617-0.006c-10.62-0.145-21.24-0.291-31.86-0.436
			c-0.247-0.003-0.494-0.013-0.741-0.006c-0.072,0.002-0.204,0.046-0.206,0.077c-0.02,0.371-0.044,0.747,0.002,1.112
			c0.007,0.056,0.362,0.088,0.557,0.091C279.304,148.018,284.737,148.091,290.17,148.166z M290.07,146.112
			c5.267,0.072,10.535,0.144,15.801,0.216c0.288,0.004,0.58-0.02,0.863,0.018c0.495,0.066,0.38-0.292,0.399-0.567
			c0.021-0.276,0.021-0.51-0.365-0.471c-0.285,0.029-0.575-0.001-0.863-0.005c-10.369-0.142-20.74-0.28-31.109-0.437
			c-0.427-0.006-0.897,0.183-1.295-0.162c-0.037-0.032-0.113-0.014-0.172-0.02c-0.004,0.372-0.034,0.747,0.012,1.112
			c0.007,0.056,0.362,0.088,0.557,0.091C279.289,145.966,284.68,146.039,290.07,146.112z M289.484,198.684
			c4.034,0.055,8.067,0.11,12.102,0.165c1.481,0.021,2.964,0.027,4.445,0.07c0.375,0.012,0.397-0.176,0.382-0.459
			c-0.015-0.273,0.118-0.638-0.38-0.58c-0.203,0.022-0.411-0.002-0.617-0.005c-10.619-0.145-21.239-0.29-31.859-0.436
			c-0.206-0.003-0.413,0.006-0.618-0.012c-0.238-0.021-0.368,0.026-0.387,0.324c-0.043,0.668-0.04,0.697,0.632,0.707
			C278.617,198.537,284.05,198.61,289.484,198.684z M292.73,141.789c-6.257-0.086-12.514-0.172-18.771-0.254
			c-0.295-0.004-0.681-0.164-0.645,0.437c0.034,0.551,0.413,0.316,0.632,0.319c12.432,0.182,24.863,0.351,37.295,0.518
			c0.296,0.004,0.682,0.164,0.645-0.437c-0.033-0.551-0.412-0.315-0.632-0.319C305.08,141.955,298.905,141.873,292.73,141.789z
			 M291.731,202.049c6.053,0.082,12.104,0.165,18.157,0.248c0.288,0.004,0.577-0.003,0.864,0.015c0.301,0.019,0.304-0.17,0.314-0.4
			c0.013-0.268-0.065-0.394-0.337-0.374c-0.362,0.025-0.753-0.047-1.079,0.073c-0.401,0.147-0.699-0.118-1.063-0.122
			c-11.364-0.13-22.729-0.29-34.093-0.441c-0.235-0.003-0.526-0.031-0.695,0.093c-0.261,0.192-0.393,0.16-0.616-0.043
			c-0.269-0.244-0.433,0.057-0.585,0.228c-0.067,0.075-0.106,0.31-0.08,0.324c0.131,0.074,0.287,0.126,0.437,0.138
			c0.287,0.022,0.576,0.014,0.864,0.018C279.79,201.885,285.76,201.967,291.731,202.049z M289.642,186.631
			c-5.433-0.075-10.867-0.152-16.3-0.212c-0.22-0.002-0.592-0.248-0.64,0.302c-0.052,0.6,0.337,0.45,0.633,0.455
			c10.867,0.151,21.733,0.301,32.6,0.438c0.22,0.003,0.592,0.248,0.641-0.302c0.053-0.6-0.338-0.45-0.633-0.455
			C300.509,186.779,295.076,186.706,289.642,186.631z M291.803,200.767c6.051,0.083,12.103,0.166,18.153,0.249
			c0.329,0.004,0.659,0.017,0.987,0.005c0.047-0.002,0.13-0.128,0.123-0.187c-0.014-0.11-0.061-0.281-0.131-0.304
			c-0.15-0.049-0.324-0.019-0.489-0.021c-12.432-0.17-24.863-0.34-37.295-0.51c-0.165-0.002-0.332-0.021-0.493,0.002
			c-0.051,0.008-0.131,0.128-0.124,0.187c0.014,0.109,0.073,0.298,0.127,0.304c0.327,0.033,0.657,0.022,0.987,0.027
			C279.701,200.602,285.751,200.685,291.803,200.767z M292.332,171.022c-6.257-0.086-12.514-0.174-18.771-0.246
			c-0.22-0.002-0.67-0.248-0.62,0.296c0.035,0.371,0.398,0.194,0.606,0.197c12.432,0.179,24.864,0.35,37.295,0.508
			c0.221,0.003,0.671,0.247,0.62-0.296c-0.035-0.372-0.398-0.194-0.606-0.197C304.681,171.189,298.506,171.107,292.332,171.022z
			 M292.047,172.814c6.256,0.085,12.514,0.174,18.771,0.246c0.222,0.002,0.665,0.246,0.627-0.29c-0.027-0.384-0.394-0.201-0.6-0.204
			c-12.432-0.18-24.863-0.351-37.295-0.508c-0.221-0.003-0.665-0.247-0.626,0.289c0.027,0.384,0.394,0.201,0.6,0.204
			C279.697,172.647,285.872,172.729,292.047,172.814z M292.448,143.58c6.257,0.085,12.514,0.174,18.771,0.246
			c0.222,0.003,0.666,0.247,0.627-0.289c-0.027-0.384-0.394-0.201-0.599-0.204c-12.432-0.18-24.864-0.35-37.296-0.508
			c-0.221-0.003-0.665-0.247-0.627,0.289c0.027,0.384,0.394,0.201,0.6,0.204C280.098,143.413,286.273,143.496,292.448,143.58z
			 M289.875,170.219c5.31,0.073,10.619,0.146,15.93,0.218c0.288,0.004,0.576,0.017,0.863,0.003c0.047-0.002,0.13-0.128,0.122-0.187
			c-0.014-0.109-0.061-0.28-0.131-0.303c-0.151-0.048-0.325-0.019-0.49-0.021c-10.866-0.148-21.733-0.297-32.6-0.446
			c-0.165-0.002-0.332-0.02-0.493,0.002c-0.051,0.007-0.13,0.128-0.123,0.187c0.014,0.109,0.073,0.297,0.128,0.303
			c0.327,0.033,0.657,0.023,0.987,0.027C279.337,170.075,284.605,170.147,289.875,170.219z M289.908,167.142
			c-5.31-0.073-10.62-0.146-15.93-0.218c-0.288-0.004-0.576-0.017-0.864-0.003c-0.047,0.002-0.132,0.125-0.125,0.183
			c0.013,0.11,0.058,0.284,0.127,0.307c0.151,0.049,0.325,0.019,0.49,0.021c10.867,0.149,21.734,0.297,32.6,0.446
			c0.165,0.002,0.331,0.02,0.492-0.002c0.053-0.007,0.134-0.125,0.127-0.183c-0.013-0.111-0.07-0.302-0.124-0.307
			c-0.327-0.033-0.657-0.023-0.986-0.028C300.445,167.286,295.176,167.214,289.908,167.142z M289.799,165.858
			c5.474,0.075,10.949,0.153,16.423,0.214c0.221,0.002,0.668,0.246,0.622-0.293c-0.032-0.376-0.396-0.197-0.604-0.2
			c-10.867-0.158-21.733-0.307-32.601-0.443c-0.22-0.003-0.668-0.246-0.622,0.293c0.032,0.376,0.397,0.197,0.604,0.2
			C279.014,165.713,284.406,165.784,289.799,165.858z M290.158,158.425c-5.474-0.075-10.949-0.153-16.423-0.214
			c-0.221-0.002-0.669-0.247-0.621,0.294c0.033,0.375,0.397,0.196,0.604,0.199c10.867,0.158,21.734,0.307,32.6,0.443
			c0.221,0.003,0.669,0.247,0.621-0.294c-0.033-0.375-0.397-0.196-0.604-0.199C300.942,158.57,295.55,158.499,290.158,158.425z
			 M289.959,153.805c5.475,0.075,10.948,0.153,16.424,0.214c0.221,0.002,0.665,0.247,0.626-0.289
			c-0.027-0.384-0.394-0.201-0.6-0.204c-10.866-0.158-21.733-0.307-32.6-0.444c-0.221-0.003-0.665-0.246-0.627,0.29
			c0.028,0.384,0.394,0.201,0.6,0.204C279.175,153.66,284.567,153.731,289.959,153.805z M289.822,163.806
			c5.474,0.075,10.949,0.153,16.423,0.214c0.221,0.003,0.665,0.247,0.627-0.289c-0.027-0.384-0.394-0.201-0.6-0.204
			c-10.866-0.158-21.733-0.307-32.6-0.444c-0.221-0.002-0.665-0.246-0.626,0.29c0.027,0.384,0.394,0.201,0.599,0.204
			C279.038,163.661,284.43,163.732,289.822,163.806z M289.388,196.118c5.475,0.075,10.949,0.153,16.424,0.214
			c0.22,0.002,0.672,0.247,0.617-0.298c-0.036-0.368-0.399-0.193-0.608-0.196c-10.866-0.158-21.733-0.307-32.6-0.443
			c-0.22-0.002-0.671-0.247-0.617,0.298c0.036,0.368,0.399,0.192,0.608,0.196C278.604,195.972,283.996,196.044,289.388,196.118z
			 M289.541,194.324c5.31,0.073,10.62,0.146,15.93,0.218c0.288,0.004,0.576,0.017,0.864,0.003c0.047-0.002,0.132-0.125,0.125-0.184
			c-0.013-0.11-0.059-0.284-0.128-0.306c-0.15-0.049-0.325-0.019-0.489-0.021c-10.866-0.148-21.733-0.297-32.601-0.446
			c-0.165-0.002-0.331-0.02-0.493,0.002c-0.052,0.007-0.133,0.125-0.125,0.183c0.013,0.11,0.07,0.301,0.124,0.307
			c0.327,0.033,0.658,0.023,0.987,0.027C279.003,194.18,284.272,194.252,289.541,194.324z M289.65,186.118
			c5.434,0.075,10.866,0.151,16.301,0.215c0.209,0.002,0.566,0.187,0.614-0.178c0.071-0.544-0.388-0.313-0.607-0.316
			c-10.867-0.161-21.733-0.309-32.601-0.448c-0.209-0.003-0.566-0.187-0.614,0.178c-0.071,0.544,0.388,0.313,0.607,0.316
			C278.784,185.973,284.217,186.044,289.65,186.118z M289.762,177.912c-5.433-0.074-10.867-0.15-16.3-0.215
			c-0.209-0.002-0.567-0.187-0.614,0.179c-0.07,0.544,0.388,0.313,0.608,0.315c10.867,0.161,21.733,0.309,32.6,0.449
			c0.209,0.002,0.566,0.187,0.614-0.179c0.07-0.544-0.389-0.312-0.608-0.315C300.628,178.058,295.196,177.987,289.762,177.912z
			 M289.642,177.141c5.474,0.075,10.949,0.153,16.423,0.214c0.221,0.002,0.667,0.246,0.625-0.291
			c-0.029-0.38-0.396-0.199-0.602-0.202c-10.866-0.158-21.733-0.308-32.6-0.444c-0.221-0.003-0.667-0.246-0.625,0.292
			c0.03,0.38,0.396,0.199,0.602,0.202C278.857,176.996,284.25,177.067,289.642,177.141z M308.947,175.816
			c-0.026,1.226,0.425,1.734,1.655,1.868c0.156,0.017,0.387-0.022,0.458,0.069c0.431,0.551,0.797-0.104,1.181-0.038
			c0.459,0.081,0.855-0.1,1.249-0.263c0.161-0.067,0.28-0.287,0.381-0.46c0.411-0.707,0.345-1.625-0.14-2.138
			c-0.461-0.488-1.405-0.635-2.083-0.325c-0.354,0.162-0.58,0.338-0.769,0.79c-0.262,0.627-0.172,1.068,0.123,1.558
			c0.094,0.157,0.22,0.238-0.062,0.303c-0.576,0.133-0.9-0.236-1.228-0.623c-0.444-0.524-0.426-1.136,0.18-1.411
			c0.338-0.154,0.299-0.317,0.298-0.545c-0.001-0.068-0.119-0.204-0.161-0.194C309.439,174.532,308.961,175.167,308.947,175.816z
			 M312.889,166.428c0.011-0.001,0.362,0.078,0.556-0.069c0.523-0.398,0.891-0.935,0.848-1.672
			c-0.021-0.364-0.519-1.086-0.797-1.339c-0.357-0.323-0.782-0.338-1.13-0.226c-0.301,0.097-0.813,0.093-0.833,0.65
			c-0.141-0.012-0.28-0.024-0.421-0.036c0.054-0.478-0.273-0.428-0.552-0.411c-0.314,0.019-0.71-0.045-0.926,0.125
			c-0.629,0.494-0.849,2.059-0.098,2.519c0.263,0.161,1.244,0.254,1.494,0.068c0.044-0.032-0.002-0.172,0.035-0.236
			c0.138-0.238,0.434-0.232,0.461-0.034C311.627,166.519,312.137,166.42,312.889,166.428z M311.734,158.72
			c-1.331-0.018-1.633,0.098-2.313,0.861c-0.261,0.292-0.376,1.318-0.185,1.636c0.488,0.805,1.532,1.09,2.423,0.653
			c0.158-0.078,0.346-0.157,0.44-0.294c0.401-0.582,0.373-1.434-0.054-2.038c-0.105-0.15-0.229-0.257,0.058-0.298
			c0.499-0.07,0.942,0.125,1.292,0.447c0.643,0.59,0.558,1.107-0.206,1.655c-0.033,0.024-0.069,0.053-0.087,0.089
			c-0.057,0.117-0.181,0.297-0.145,0.347c0.134,0.183,0.292,0.47,0.574,0.221c0.497-0.438,0.964-0.989,0.786-1.677
			c-0.161-0.625-0.382-1.396-1.293-1.328C312.647,158.494,312.108,158.842,311.734,158.72z M313.892,193.699
			c0.007-0.468,0.03-0.938,0.003-1.405c-0.004-0.076-0.229-0.19-0.353-0.192c-0.123-0.001-0.345,0.103-0.355,0.185
			c-0.045,0.335-0.01,0.681-0.035,1.02c-0.033,0.444-0.096,0.886-0.146,1.329c-0.314-0.335-0.629-0.671-0.943-1.007
			c-0.029-0.031-0.076-0.057-0.083-0.092c-0.151-0.75-0.764-0.958-1.326-1.235c-0.808-0.397-1.276-0.253-1.692,0.546
			c-0.507,0.974-0.32,1.831,0.556,2.476c0.071,0.053,0.217-0.002,0.328-0.007c-0.008-0.146,0.027-0.394-0.031-0.421
			c-0.671-0.313-0.708-0.887-0.563-1.496c0.124-0.521,0.31-0.602,0.847-0.593c0.701,0.011,1.253,0.379,1.546,0.965
			c0.332,0.663,0.895,1.067,1.34,1.597c0.121,0.145,0.449,0.282,0.563,0.212c0.166-0.101,0.287-0.385,0.315-0.606
			C313.914,194.556,313.886,194.125,313.892,193.699z M314.524,147.601c0.007-0.47,0.03-0.941,0.005-1.41
			c-0.005-0.093-0.187-0.226-0.304-0.25c-0.184-0.038-0.423-0.079-0.425,0.261c-0.004,0.641-0.011,1.283-0.029,1.923
			c-0.003,0.114-0.067,0.227-0.103,0.339c-0.086-0.077-0.213-0.137-0.253-0.234c-0.328-0.805-0.989-1.321-1.563-1.895
			c-0.704-0.704-1.482-0.59-2.199,0.09c-0.457,0.433-0.284,0.932-0.314,1.413c-0.027,0.416,0.534,1.275,0.904,1.35
			c0.141,0.028,0.326-0.186,0.491-0.289c-0.095-0.066-0.19-0.131-0.283-0.2c-0.502-0.376-0.761-0.857-0.618-1.518
			c0.129-0.596,0.732-0.895,1.271-0.627c0.747,0.372,1.252,0.998,1.683,1.705c0.213,0.349,0.467,0.607,0.867,0.783
			c0.804,0.354,0.84,0.366,0.858-0.543C314.518,148.199,314.52,147.9,314.524,147.601z M311.084,208.726
			c0.369,0.005,0.738,0.022,1.106,0.013c0.712-0.02,1.369-0.57,1.513-1.249c0.127-0.601-0.369-1.603-0.958-1.812
			c-1.186-0.42-2.364-0.449-3.537,0.121c-0.265,0.129-0.396,0.271-0.515,0.53c-0.531,1.153,0.074,2.302,1.284,2.378
			C310.346,208.731,310.715,208.721,311.084,208.726z M311.879,154.364c-0.897-0.041-1.696,0.084-2.323,0.778
			c-0.522,0.578-0.502,1.631,0.112,2.087c0.3,0.222,0.61,0.49,1.052,0.463c0.313-0.019,0.635,0.112,0.952,0.113
			c0.396,0.002,0.791-0.074,1.188-0.093c0.798-0.04,1.438-0.595,1.543-1.359c0.107-0.774-0.372-1.377-1.183-1.737
			C312.758,154.41,312.312,154.364,311.879,154.364z M308.886,180.225c-0.003,0.213-0.008,0.427-0.008,0.641
			c-0.002,0.469,0.186,0.846,0.583,0.862c0.563,0.023,1.075,0.223,1.614,0.315c0.5,0.085,0.585-0.053,0.382-0.505
			c-0.081-0.179-0.152-0.366-0.257-0.53c-0.331-0.517,0.069-0.939,0.187-1.381c0.066-0.252,1.083-0.505,1.308-0.368
			c0.466,0.284,0.807,0.778,0.833,1.269c0.018,0.324-0.185,0.905-0.677,1.022c-0.283,0.067-0.348,0.216-0.235,0.414
			c0.054,0.094,0.302,0.142,0.434,0.104c0.604-0.175,1.193-1.293,1.028-1.898c-0.235-0.865-1.402-1.617-2.236-1.442
			c-0.89,0.188-1.466,1.127-1.167,2.183c0.111,0.394,0.107,0.365-0.207,0.366c-0.996,0.002-1.091-0.093-1.085-1.15
			c0.003-0.342,0.023-0.685,0-1.024c-0.003-0.058-0.18-0.127-0.284-0.146c-0.057-0.01-0.185,0.071-0.188,0.117
			C308.89,179.456,308.892,179.84,308.886,180.225z M310.499,183.839c-0.123-0.002-0.247-0.014-0.369-0.003
			c-0.432,0.037-0.863,0.082-1.294,0.123c-0.06,0.652,0.622,0.542,0.857,0.894c0.093,0.138,0.215,0.261,0.343,0.367
			c0.491,0.405,0.985,0.806,1.487,1.195c0.247,0.191,0.566,0.544,0.763,0.488c0.461-0.133,0.075-0.672,0.243-0.963
			c0.175-0.304,0.095-0.521,0.021-0.825c-0.102-0.422,0.173-0.688,0.601-0.723c0.204-0.017,0.413,0.022,0.615-0.004
			c0.092-0.012,0.171-0.12,0.257-0.184c-0.086-0.106-0.169-0.303-0.258-0.305c-0.565-0.014-1.162,0.071-1.284-0.75
			c-0.141,0.023-0.281,0.047-0.422,0.071c0.146,0.799-0.404,0.624-0.82,0.628C310.992,183.851,310.746,183.842,310.499,183.839z
			 M313.952,189.194c-0.072-0.516-0.244-1.089-0.958-1.35c-0.621-0.228-1.457-0.242-1.654,0.184c-0.22,0.472-0.31,0.562-0.723,0.184
			c-0.583-0.536-1.334-0.306-1.682,0.438c-0.399,0.852-0.146,1.643,0.678,2.106c0.109,0.062,0.231,0.098,0.347,0.146
			c-0.016-0.201-0.005-0.411-0.061-0.6c-0.019-0.061-0.219-0.048-0.317-0.104c-0.405-0.229-0.362-0.639-0.313-1.009
			c0.043-0.326,0.586-0.757,0.875-0.734c0.44,0.034,0.621,0.309,0.602,0.753c-0.004,0.074,0.021,0.181,0.071,0.22
			c0.151,0.121,0.367,0.341,0.478,0.298c0.405-0.157-0.119-0.256-0.058-0.408c0.06-0.146,0.139-0.282,0.21-0.422
			c0.349-0.691,0.488-0.726,1.198-0.681c0.627,0.04,0.618,0.629,0.777,0.969c0.175,0.372-0.067,0.837-0.467,1.102
			c-0.165,0.109-0.34,0.215-0.47,0.362c-0.05,0.057-0.007,0.231,0.035,0.334c0.019,0.046,0.152,0.087,0.209,0.063
			C313.511,190.723,313.958,190.278,313.952,189.194z M309.041,169.007c-0.007,0.513-0.023,1.025-0.01,1.537
			c0.002,0.068,0.159,0.183,0.243,0.182c0.081-0.001,0.209-0.113,0.229-0.198c0.039-0.161,0.011-0.339,0.019-0.51
			c0.024-0.589,0.053-1.179,0.08-1.769c0.452,0.262,0.906,0.522,1.355,0.79c0.068,0.041,0.127,0.18,0.172,0.171
			c0.438-0.086,0.728,0.253,1.088,0.385c0.359,0.132,0.721,0.259,1.085,0.377c0.54,0.174,0.987,0.073,0.909-0.187
			c-0.118-0.398-0.523-0.385-0.819-0.525c-0.034-0.016-0.082-0.007-0.122-0.003c-0.693,0.056-1.29-0.305-1.872-0.576
			c-0.59-0.274-1.216-0.574-1.642-1.159c-0.086-0.118-0.376-0.125-0.559-0.094c-0.067,0.011-0.126,0.274-0.136,0.426
			C309.039,168.238,309.045,168.623,309.041,169.007z M311.896,151.028c-0.736-0.01-1.474-0.029-2.21-0.023
			c-0.134,0.001-0.268,0.103-0.401,0.158c0.065,0.142,0.106,0.306,0.201,0.421c0.212,0.258,0.479,0.47,0.672,0.741
			c0.21,0.294,0.226,0.984,0.742,0.647c0.392-0.255-0.228-0.574-0.288-0.923c-0.08-0.454-0.13-0.522,0.281-0.519
			c1.104,0.008,2.21,0.035,3.314,0.029c0.09,0,0.178-0.193,0.267-0.296c-0.082-0.068-0.162-0.192-0.245-0.194
			C313.452,151.043,312.673,151.038,311.896,151.028z M311.248,197.443c-0.368-0.005-0.739-0.043-1.104-0.008
			c-0.498,0.049-1.029-0.218-1.494,0.156c0.296,0.384,0.527,0.881,0.909,1.118c0.333,0.208,0.179,0.977,0.621,0.733
			c0.559-0.308-0.157-0.637-0.213-0.989c-0.071-0.441-0.12-0.512,0.303-0.509c1.105,0.008,2.21,0.032,3.315,0.034
			c0.084,0,0.168-0.121,0.252-0.187c-0.086-0.105-0.167-0.3-0.257-0.304C312.803,197.454,312.025,197.454,311.248,197.443z"/>
		<path fill-rule="evenodd" clip-rule="evenodd" d="M289.824,173.553c5.39,0.074,10.778,0.147,16.168,0.222
			c0.752,0.011,0.753,0.016,0.747,0.834c-0.005,0.512-0.01,1.025-0.03,1.537c-0.001,0.04-0.175,0.123-0.196,0.103
			c-0.356-0.333-0.785-0.16-1.173-0.166c-10.366-0.153-20.733-0.294-31.101-0.425c-0.388-0.005-0.812-0.192-1.173,0.139
			c-0.032,0.029-0.116,0.01-0.169-0.007c-0.021-0.007-0.034-0.071-0.033-0.109c0.025-0.761,0.053-1.522,0.081-2.283
			c0.648-0.016,1.297-0.053,1.945-0.045C279.868,173.414,284.846,173.485,289.824,173.553z"/>
		<path fill-rule="evenodd" clip-rule="evenodd" d="M289.466,190.476c-5.393-0.074-10.785-0.147-16.177-0.223
			c-0.614-0.008-0.625-0.016-0.616-0.585c0.008-0.549,0.042-1.098,0.063-1.646c0.524-0.02,1.049-0.064,1.573-0.058
			c10.332,0.137,20.664,0.279,30.996,0.42c0.288,0.004,0.576,0.018,0.864,0.009c0.232-0.008,0.395,0.025,0.378,0.33
			c-0.033,0.634-0.05,1.269-0.072,1.903c-0.566,0.02-1.132,0.063-1.697,0.056C299.674,190.618,294.571,190.546,289.466,190.476z"/>
		<path fill-rule="evenodd" clip-rule="evenodd" d="M290.006,159.449c5.392,0.074,10.785,0.146,16.176,0.222
			c0.756,0.01,0.755,0.016,0.75,0.833c-0.008,1.228-0.008,1.229-1.128,1.213c-10.537-0.144-21.076-0.288-31.613-0.432
			c-0.288-0.004-0.58,0.019-0.862-0.026c-0.101-0.016-0.251-0.194-0.252-0.3c-0.007-0.55,0.027-1.1,0.046-1.65
			c0.482-0.023,0.965-0.073,1.447-0.067C279.715,159.306,284.86,159.378,290.006,159.449z"/>
		<path fill-rule="evenodd" clip-rule="evenodd" d="M289.919,156.882c-5.351-0.073-10.702-0.146-16.053-0.22
			c-0.736-0.01-0.736-0.015-0.733-0.723c0.001-0.213,0.019-0.428,0.005-0.641c-0.019-0.304,0.046-0.492,0.398-0.44
			c0.202,0.029,0.411,0.01,0.617,0.013c10.62,0.145,21.24,0.291,31.86,0.436c0.247,0.003,0.496-0.011,0.739,0.02
			c0.09,0.011,0.234,0.125,0.237,0.195c0.015,0.469,0.009,0.94-0.021,1.409c-0.004,0.066-0.164,0.167-0.256,0.173
			c-0.287,0.019-0.576,0-0.864-0.003C300.54,157.028,295.229,156.955,289.919,156.882z"/>
		<path fill-rule="evenodd" clip-rule="evenodd" d="M289.432,192.527c-5.393-0.074-10.785-0.146-16.177-0.225
			c-0.194-0.002-0.549-0.04-0.555-0.096c-0.042-0.365-0.014-0.741,0.008-1.112c0.002-0.029,0.135-0.07,0.208-0.072
			c0.247-0.006,0.494,0.003,0.741,0.006c10.62,0.145,21.239,0.291,31.86,0.436c0.205,0.002,0.412,0.018,0.616,0.005
			c0.241-0.015,0.396,0.037,0.373,0.336c-0.018,0.212,0.021,0.434-0.023,0.638c-0.026,0.119-0.158,0.285-0.259,0.298
			c-0.283,0.038-0.574,0.007-0.862,0.003C300.051,192.673,294.742,192.6,289.432,192.527z"/>
		<path fill-rule="evenodd" clip-rule="evenodd" d="M290.121,151.243c5.434,0.074,10.867,0.146,16.3,0.23
			c0.213,0.003,0.554-0.162,0.617,0.189c0.058,0.322-0.013,0.67-0.045,1.004c-0.004,0.036-0.133,0.081-0.204,0.083
			c-0.247,0.007-0.494-0.002-0.741-0.006c-10.619-0.146-21.239-0.291-31.859-0.436c-0.206-0.003-0.414-0.027-0.617-0.004
			c-0.354,0.042-0.416-0.148-0.385-0.451c0.017-0.169,0.018-0.342,0.007-0.512c-0.018-0.3,0.14-0.344,0.38-0.327
			c0.287,0.02,0.576,0.011,0.864,0.016C279.666,151.1,284.893,151.171,290.121,151.243z"/>
		<path fill-rule="evenodd" clip-rule="evenodd" d="M289.69,183.554c-5.433-0.075-10.867-0.147-16.3-0.23
			c-0.212-0.003-0.553,0.164-0.615-0.191c-0.056-0.322,0.014-0.669,0.047-1.003c0.003-0.035,0.132-0.079,0.204-0.081
			c0.247-0.007,0.494,0.002,0.741,0.006c10.62,0.146,21.239,0.291,31.859,0.436c0.205,0.002,0.414,0.027,0.617,0.003
			c0.357-0.042,0.411,0.154,0.383,0.454c-0.017,0.169-0.018,0.342-0.008,0.512c0.018,0.302-0.144,0.341-0.382,0.325
			c-0.287-0.02-0.576-0.012-0.864-0.016C300.146,183.697,294.918,183.625,289.69,183.554z"/>
		<path fill-rule="evenodd" clip-rule="evenodd" d="M289.86,180.479c5.393,0.074,10.785,0.146,16.177,0.225
			c0.193,0.003,0.548,0.042,0.554,0.098c0.041,0.366,0.012,0.741-0.012,1.112c-0.002,0.029-0.136,0.068-0.209,0.07
			c-0.246,0.006-0.493-0.003-0.74-0.007c-10.62-0.145-21.24-0.291-31.86-0.436c-0.206-0.003-0.412-0.019-0.617-0.005
			c-0.244,0.016-0.394-0.042-0.37-0.339c0.017-0.212-0.021-0.434,0.023-0.638c0.026-0.118,0.16-0.282,0.261-0.295
			c0.283-0.037,0.574-0.006,0.862-0.002C279.241,180.333,284.551,180.406,289.86,180.479z"/>
		<path fill-rule="evenodd" clip-rule="evenodd" d="M290.146,149.96c-5.434-0.074-10.867-0.147-16.3-0.227
			c-0.195-0.002-0.55-0.035-0.557-0.091c-0.046-0.365-0.021-0.741-0.002-1.112c0.001-0.031,0.133-0.075,0.206-0.077
			c0.247-0.006,0.494,0.003,0.741,0.006c10.62,0.146,21.24,0.291,31.859,0.436c0.206,0.002,0.412,0.016,0.618,0.005
			c0.23-0.011,0.401,0.022,0.379,0.329c-0.016,0.212-0.02,0.428-0.009,0.641c0.015,0.306-0.156,0.333-0.388,0.319
			c-0.287-0.017-0.576-0.011-0.864-0.015C300.601,150.104,295.374,150.032,290.146,149.96z"/>
		<path fill-rule="evenodd" clip-rule="evenodd" d="M290.17,148.166c-5.433-0.074-10.867-0.148-16.3-0.227
			c-0.195-0.003-0.55-0.035-0.557-0.091c-0.046-0.365-0.021-0.741-0.002-1.112c0.001-0.031,0.133-0.075,0.206-0.077
			c0.247-0.007,0.494,0.003,0.741,0.006c10.62,0.145,21.24,0.291,31.86,0.436c0.205,0.003,0.412,0.016,0.617,0.006
			c0.231-0.011,0.402,0.022,0.379,0.329c-0.016,0.212-0.019,0.427-0.009,0.64c0.015,0.307-0.155,0.333-0.388,0.319
			c-0.287-0.017-0.576-0.011-0.864-0.015C300.625,148.309,295.398,148.237,290.17,148.166z"/>
		<path fill-rule="evenodd" clip-rule="evenodd" d="M290.07,146.112c-5.391-0.074-10.781-0.146-16.172-0.225
			c-0.195-0.003-0.55-0.035-0.557-0.091c-0.046-0.365-0.016-0.74-0.012-1.112c0.059,0.005,0.135-0.012,0.172,0.02
			c0.398,0.345,0.868,0.156,1.295,0.162c10.37,0.156,20.74,0.295,31.109,0.437c0.288,0.004,0.578,0.035,0.863,0.005
			c0.386-0.04,0.386,0.195,0.365,0.471c-0.02,0.275,0.096,0.633-0.399,0.567c-0.283-0.038-0.575-0.014-0.863-0.018
			C300.605,146.256,295.337,146.184,290.07,146.112z"/>
		<path fill-rule="evenodd" clip-rule="evenodd" d="M289.484,198.684c-5.434-0.074-10.867-0.147-16.3-0.225
			c-0.671-0.01-0.675-0.039-0.632-0.707c0.02-0.298,0.149-0.345,0.387-0.324c0.205,0.018,0.412,0.009,0.618,0.012
			c10.62,0.146,21.24,0.291,31.859,0.436c0.206,0.003,0.414,0.027,0.617,0.005c0.498-0.058,0.365,0.307,0.38,0.58
			c0.016,0.283-0.007,0.471-0.382,0.459c-1.481-0.043-2.964-0.05-4.445-0.07C297.551,198.794,293.518,198.739,289.484,198.684z"/>
		<path fill-rule="evenodd" clip-rule="evenodd" d="M292.73,141.789c6.174,0.084,12.349,0.166,18.524,0.264
			c0.22,0.004,0.599-0.231,0.632,0.319c0.037,0.601-0.349,0.441-0.645,0.437c-12.432-0.167-24.863-0.336-37.295-0.518
			c-0.22-0.003-0.599,0.231-0.632-0.319c-0.037-0.601,0.349-0.441,0.645-0.437C280.216,141.617,286.473,141.703,292.73,141.789z"/>
		<path fill-rule="evenodd" clip-rule="evenodd" d="M291.731,202.049c-5.971-0.082-11.941-0.164-17.911-0.245
			c-0.288-0.004-0.577,0.005-0.864-0.018c-0.15-0.012-0.305-0.063-0.437-0.138c-0.026-0.015,0.013-0.249,0.08-0.324
			c0.152-0.171,0.317-0.472,0.585-0.228c0.223,0.203,0.355,0.235,0.616,0.043c0.168-0.124,0.459-0.096,0.695-0.093
			c11.364,0.151,22.729,0.312,34.093,0.441c0.363,0.004,0.661,0.27,1.063,0.122c0.326-0.12,0.717-0.048,1.079-0.073
			c0.271-0.02,0.35,0.106,0.337,0.374c-0.011,0.23-0.014,0.419-0.314,0.4c-0.287-0.018-0.576-0.011-0.864-0.015
			C303.835,202.214,297.784,202.131,291.731,202.049z"/>
		<path fill-rule="evenodd" clip-rule="evenodd" d="M289.642,186.631c5.434,0.074,10.868,0.147,16.3,0.225
			c0.295,0.004,0.686-0.146,0.633,0.455c-0.049,0.55-0.421,0.305-0.641,0.302c-10.867-0.136-21.733-0.286-32.6-0.438
			c-0.295-0.004-0.685,0.146-0.633-0.455c0.048-0.55,0.42-0.304,0.64-0.302C278.775,186.479,284.208,186.557,289.642,186.631z"/>
		<path fill-rule="evenodd" clip-rule="evenodd" d="M291.803,200.767c-6.052-0.082-12.103-0.165-18.154-0.248
			c-0.33-0.005-0.66,0.006-0.987-0.027c-0.055-0.006-0.114-0.194-0.127-0.304c-0.007-0.059,0.072-0.179,0.124-0.187
			c0.162-0.022,0.328-0.004,0.493-0.002c12.432,0.17,24.863,0.34,37.295,0.51c0.165,0.003,0.339-0.027,0.489,0.021
			c0.07,0.022,0.117,0.193,0.131,0.304c0.007,0.059-0.076,0.185-0.123,0.187c-0.328,0.012-0.658-0.001-0.987-0.005
			C303.906,200.933,297.854,200.85,291.803,200.767z"/>
		<path fill-rule="evenodd" clip-rule="evenodd" d="M292.332,171.022c6.174,0.084,12.349,0.167,18.524,0.262
			c0.208,0.003,0.571-0.174,0.606,0.197c0.051,0.543-0.399,0.299-0.62,0.296c-12.431-0.158-24.863-0.329-37.295-0.508
			c-0.208-0.003-0.572,0.174-0.606-0.197c-0.051-0.544,0.399-0.299,0.62-0.296C279.818,170.849,286.075,170.937,292.332,171.022z"/>
		<path fill-rule="evenodd" clip-rule="evenodd" d="M292.047,172.814c-6.175-0.084-12.35-0.167-18.524-0.262
			c-0.206-0.003-0.572,0.18-0.6-0.204c-0.039-0.536,0.406-0.292,0.626-0.289c12.432,0.158,24.864,0.329,37.295,0.508
			c0.206,0.003,0.572-0.18,0.6,0.204c0.038,0.536-0.405,0.292-0.627,0.29C304.561,172.988,298.303,172.899,292.047,172.814z"/>
		<path fill-rule="evenodd" clip-rule="evenodd" d="M292.448,143.58c-6.175-0.084-12.35-0.167-18.524-0.262
			c-0.206-0.003-0.572,0.18-0.6-0.204c-0.038-0.536,0.406-0.292,0.627-0.289c12.432,0.158,24.864,0.328,37.296,0.508
			c0.205,0.003,0.571-0.18,0.599,0.204c0.039,0.536-0.405,0.292-0.627,0.289C304.961,143.754,298.705,143.666,292.448,143.58z"/>
		<path fill-rule="evenodd" clip-rule="evenodd" d="M289.875,170.219c-5.269-0.072-10.538-0.144-15.806-0.216
			c-0.33-0.004-0.66,0.005-0.987-0.027c-0.055-0.006-0.114-0.194-0.128-0.303c-0.008-0.059,0.071-0.18,0.123-0.187
			c0.161-0.022,0.328-0.005,0.493-0.002c10.867,0.148,21.733,0.297,32.6,0.446c0.165,0.002,0.339-0.027,0.49,0.021
			c0.07,0.022,0.117,0.193,0.131,0.303c0.008,0.059-0.075,0.185-0.122,0.187c-0.287,0.014-0.575,0.001-0.863-0.003
			C300.494,170.365,295.184,170.292,289.875,170.219z"/>
		<path fill-rule="evenodd" clip-rule="evenodd" d="M289.908,167.142c5.269,0.072,10.537,0.144,15.807,0.216
			c0.329,0.005,0.659-0.005,0.986,0.028c0.054,0.005,0.111,0.196,0.124,0.307c0.007,0.058-0.074,0.176-0.127,0.183
			c-0.161,0.022-0.327,0.004-0.492,0.002c-10.866-0.149-21.733-0.297-32.6-0.446c-0.165-0.002-0.339,0.028-0.49-0.021
			c-0.069-0.022-0.114-0.196-0.127-0.307c-0.007-0.058,0.078-0.181,0.125-0.183c0.288-0.014,0.576-0.001,0.864,0.003
			C279.288,166.997,284.598,167.069,289.908,167.142z"/>
		<path fill-rule="evenodd" clip-rule="evenodd" d="M289.799,165.858c-5.393-0.074-10.785-0.145-16.177-0.23
			c-0.207-0.003-0.572,0.176-0.604-0.2c-0.046-0.54,0.402-0.296,0.622-0.293c10.867,0.136,21.733,0.285,32.601,0.443
			c0.207,0.003,0.571-0.176,0.604,0.2c0.046,0.54-0.401,0.296-0.622,0.293C300.748,166.011,295.273,165.933,289.799,165.858z"/>
		<path fill-rule="evenodd" clip-rule="evenodd" d="M290.158,158.425c5.393,0.074,10.784,0.145,16.177,0.229
			c0.207,0.003,0.571-0.175,0.604,0.199c0.048,0.542-0.4,0.297-0.621,0.294c-10.866-0.136-21.733-0.285-32.6-0.443
			c-0.208-0.003-0.572,0.175-0.604-0.199c-0.048-0.541,0.4-0.297,0.621-0.294C279.209,158.272,284.684,158.35,290.158,158.425z"/>
		<path fill-rule="evenodd" clip-rule="evenodd" d="M289.959,153.805c-5.392-0.074-10.785-0.145-16.177-0.23
			c-0.206-0.003-0.572,0.18-0.6-0.204c-0.038-0.536,0.406-0.292,0.627-0.29c10.867,0.137,21.733,0.286,32.6,0.444
			c0.206,0.003,0.572-0.18,0.6,0.204c0.039,0.536-0.405,0.292-0.626,0.289C300.908,153.958,295.434,153.88,289.959,153.805z"/>
		<path fill-rule="evenodd" clip-rule="evenodd" d="M289.822,163.806c-5.392-0.074-10.785-0.145-16.177-0.23
			c-0.206-0.003-0.572,0.18-0.599-0.204c-0.039-0.536,0.406-0.292,0.626-0.29c10.867,0.137,21.734,0.286,32.6,0.444
			c0.206,0.003,0.572-0.18,0.6,0.204c0.038,0.536-0.406,0.292-0.627,0.289C300.771,163.959,295.296,163.881,289.822,163.806z"/>
		<path fill-rule="evenodd" clip-rule="evenodd" d="M289.388,196.118c-5.392-0.074-10.784-0.146-16.176-0.229
			c-0.209-0.003-0.572,0.172-0.608-0.196c-0.054-0.545,0.397-0.301,0.617-0.298c10.867,0.137,21.733,0.286,32.6,0.443
			c0.209,0.003,0.572-0.172,0.608,0.196c0.055,0.545-0.397,0.3-0.617,0.298C300.337,196.271,294.863,196.192,289.388,196.118z"/>
		<path fill-rule="evenodd" clip-rule="evenodd" d="M289.541,194.324c-5.269-0.072-10.538-0.144-15.806-0.216
			c-0.329-0.004-0.66,0.005-0.987-0.027c-0.054-0.005-0.111-0.196-0.124-0.307c-0.007-0.058,0.074-0.176,0.125-0.183
			c0.162-0.022,0.328-0.004,0.493-0.002c10.867,0.149,21.734,0.297,32.601,0.446c0.164,0.002,0.339-0.027,0.489,0.021
			c0.069,0.022,0.115,0.196,0.128,0.306c0.007,0.058-0.078,0.181-0.125,0.184c-0.288,0.014-0.576,0.001-0.864-0.003
			C300.161,194.47,294.85,194.397,289.541,194.324z"/>
		<path fill-rule="evenodd" clip-rule="evenodd" d="M289.65,186.118c-5.433-0.074-10.866-0.146-16.3-0.233
			c-0.22-0.004-0.679,0.228-0.607-0.316c0.048-0.365,0.405-0.181,0.614-0.178c10.867,0.139,21.733,0.288,32.601,0.448
			c0.22,0.003,0.679-0.228,0.607,0.316c-0.048,0.365-0.405,0.18-0.614,0.178C300.516,186.269,295.083,186.193,289.65,186.118z"/>
		<path fill-rule="evenodd" clip-rule="evenodd" d="M289.762,177.912c5.434,0.075,10.867,0.146,16.3,0.234
			c0.22,0.003,0.679-0.229,0.608,0.315c-0.048,0.366-0.405,0.181-0.614,0.179c-10.867-0.14-21.733-0.288-32.6-0.449
			c-0.22-0.003-0.678,0.229-0.608-0.315c0.047-0.366,0.405-0.181,0.614-0.179C278.895,177.762,284.329,177.838,289.762,177.912z"/>
		<path fill-rule="evenodd" clip-rule="evenodd" d="M289.642,177.141c-5.392-0.074-10.784-0.145-16.176-0.23
			c-0.207-0.003-0.572,0.178-0.602-0.202c-0.042-0.537,0.404-0.294,0.625-0.292c10.867,0.136,21.734,0.286,32.6,0.444
			c0.206,0.003,0.572-0.178,0.602,0.202c0.042,0.537-0.404,0.293-0.625,0.291C300.59,177.294,295.116,177.216,289.642,177.141z"/>
		<path fill-rule="evenodd" clip-rule="evenodd" d="M308.947,175.816c0.015-0.65,0.492-1.284,1.083-1.411
			c0.042-0.009,0.16,0.126,0.161,0.194c0.001,0.228,0.04,0.392-0.298,0.545c-0.605,0.275-0.624,0.887-0.18,1.411
			c0.327,0.387,0.651,0.756,1.228,0.623c0.281-0.064,0.155-0.146,0.062-0.303c-0.295-0.489-0.385-0.93-0.123-1.558
			c0.188-0.452,0.414-0.628,0.769-0.79c0.678-0.31,1.622-0.163,2.083,0.325c0.484,0.514,0.551,1.432,0.14,2.138
			c-0.101,0.173-0.22,0.393-0.381,0.46c-0.394,0.163-0.79,0.344-1.249,0.263c-0.384-0.067-0.75,0.589-1.181,0.038
			c-0.071-0.091-0.302-0.052-0.458-0.069C309.372,177.551,308.92,177.042,308.947,175.816z M312.116,177.191
			c1.031,0.02,1.563-0.476,1.525-1.19c-0.03-0.57-0.628-1.106-1.241-1.113c-0.427-0.005-1.254,0.714-1.206,1.14
			c0.037,0.332,0.199,0.693,0.411,0.946C311.757,177.155,312.083,177.179,312.116,177.191z"/>
		<path fill-rule="evenodd" clip-rule="evenodd" d="M312.889,166.428c-0.752-0.007-1.262,0.091-1.362-0.662
			c-0.027-0.198-0.323-0.204-0.461,0.034c-0.037,0.064,0.009,0.204-0.035,0.236c-0.25,0.187-1.231,0.093-1.494-0.068
			c-0.751-0.46-0.531-2.025,0.098-2.519c0.216-0.169,0.611-0.106,0.926-0.125c0.278-0.017,0.605-0.067,0.552,0.411
			c0.141,0.012,0.28,0.024,0.421,0.036c0.021-0.557,0.532-0.553,0.833-0.65c0.348-0.112,0.772-0.097,1.13,0.226
			c0.278,0.252,0.776,0.975,0.797,1.339c0.043,0.738-0.324,1.274-0.848,1.672C313.251,166.506,312.9,166.427,312.889,166.428z
			 M312.686,165.915c0.643,0.005,1.087-0.447,1.108-1.127c0.016-0.5-0.562-1.146-1.055-1.18c-0.528-0.037-1.199,0.645-1.17,1.19
			C311.606,165.487,312.028,165.91,312.686,165.915z M311.076,164.76c0.001-0.085,0.009-0.171,0.003-0.256
			c-0.028-0.437-0.244-0.649-0.68-0.672c-0.519-0.028-0.76,0.172-0.801,0.673c-0.014,0.17-0.028,0.345-0.004,0.512
			c0.052,0.359,0.219,0.59,0.614,0.614C310.833,165.669,311.061,165.458,311.076,164.76z"/>
		<path fill-rule="evenodd" clip-rule="evenodd" d="M311.734,158.72c0.374,0.122,0.913-0.226,1.292,0.274
			c0.911-0.068,1.132,0.703,1.293,1.328c0.178,0.688-0.289,1.238-0.786,1.677c-0.282,0.249-0.44-0.038-0.574-0.221
			c-0.036-0.05,0.088-0.23,0.145-0.347c0.018-0.036,0.054-0.065,0.087-0.089c0.764-0.547,0.849-1.065,0.206-1.655
			c-0.35-0.322-0.793-0.517-1.292-0.447c-0.287,0.041-0.163,0.148-0.058,0.298c0.427,0.604,0.455,1.456,0.054,2.038
			c-0.095,0.138-0.282,0.217-0.44,0.294c-0.891,0.437-1.935,0.152-2.423-0.653c-0.191-0.317-0.076-1.343,0.185-1.636
			C310.101,158.818,310.403,158.702,311.734,158.72z M311.877,160.383c0.009-0.67-0.384-1.15-0.949-1.162
			c-0.754-0.015-1.291,0.545-1.277,1.333c0.009,0.552,0.556,0.977,1.257,0.976C311.473,161.529,311.868,161.063,311.877,160.383z"/>
		<path fill-rule="evenodd" clip-rule="evenodd" d="M313.892,193.699c-0.006,0.426,0.021,0.856-0.03,1.276
			c-0.028,0.221-0.149,0.505-0.315,0.606c-0.114,0.07-0.442-0.067-0.563-0.212c-0.445-0.53-1.008-0.935-1.34-1.597
			c-0.293-0.585-0.845-0.954-1.546-0.965c-0.537-0.009-0.723,0.072-0.847,0.593c-0.146,0.609-0.108,1.183,0.563,1.496
			c0.059,0.028,0.023,0.275,0.031,0.421c-0.111,0.004-0.257,0.06-0.328,0.007c-0.876-0.646-1.063-1.502-0.556-2.476
			c0.416-0.799,0.885-0.943,1.692-0.546c0.563,0.277,1.175,0.484,1.326,1.235c0.007,0.035,0.054,0.062,0.083,0.092
			c0.314,0.335,0.629,0.671,0.943,1.007c0.051-0.443,0.113-0.885,0.146-1.329c0.025-0.339-0.01-0.685,0.035-1.02
			c0.011-0.082,0.232-0.187,0.355-0.185c0.124,0.001,0.349,0.116,0.353,0.192C313.922,192.761,313.899,193.231,313.892,193.699z"/>
		<path fill-rule="evenodd" clip-rule="evenodd" d="M314.524,147.601c-0.004,0.299-0.006,0.598-0.013,0.897
			c-0.019,0.909-0.055,0.896-0.858,0.543c-0.4-0.176-0.654-0.435-0.867-0.783c-0.431-0.707-0.936-1.333-1.683-1.705
			c-0.538-0.268-1.142,0.032-1.271,0.627c-0.143,0.661,0.116,1.142,0.618,1.518c0.093,0.069,0.188,0.133,0.283,0.2
			c-0.165,0.104-0.351,0.317-0.491,0.289c-0.37-0.074-0.932-0.934-0.904-1.35c0.03-0.481-0.143-0.98,0.314-1.413
			c0.717-0.68,1.495-0.794,2.199-0.09c0.574,0.574,1.235,1.09,1.563,1.895c0.04,0.098,0.167,0.157,0.253,0.234
			c0.035-0.113,0.1-0.226,0.103-0.339c0.019-0.641,0.025-1.282,0.029-1.923c0.002-0.339,0.241-0.298,0.425-0.261
			c0.117,0.024,0.299,0.157,0.304,0.25C314.554,146.66,314.531,147.131,314.524,147.601z"/>
		<path fill-rule="evenodd" clip-rule="evenodd" d="M311.084,208.726c-0.369-0.005-0.738,0.005-1.106-0.019
			c-1.21-0.076-1.815-1.225-1.284-2.378c0.119-0.259,0.25-0.401,0.515-0.53c1.173-0.57,2.352-0.541,3.537-0.121
			c0.589,0.209,1.085,1.211,0.958,1.812c-0.144,0.679-0.801,1.229-1.513,1.249C311.823,208.749,311.454,208.731,311.084,208.726z
			 M311.032,208.212c1.411,0.019,1.414,0.021,2.021-0.714c0.072-0.087,0.179-0.248,0.148-0.307
			c-0.184-0.348-0.332-0.783-0.624-0.988c-0.632-0.443-2.357-0.431-2.962-0.011c-0.313,0.219-0.617,0.488-0.624,1.007
			c-0.008,0.574,0.401,0.616,0.712,0.842C310.161,208.374,310.658,208.1,311.032,208.212z"/>
		<path fill-rule="evenodd" clip-rule="evenodd" d="M311.879,154.364c0.433,0,0.879,0.046,1.342,0.252
			c0.811,0.36,1.29,0.963,1.183,1.737c-0.104,0.764-0.745,1.32-1.543,1.359c-0.397,0.02-0.793,0.095-1.188,0.093
			c-0.317-0.001-0.639-0.132-0.952-0.113c-0.441,0.027-0.752-0.242-1.052-0.463c-0.614-0.456-0.635-1.509-0.112-2.087
			C310.183,154.448,310.982,154.323,311.879,154.364z M311.654,157.18c0.453,0.006,0.909,0.048,1.356,0.002
			c0.212-0.021,0.447-0.17,0.598-0.334c0.149-0.163,0.255-0.409,0.293-0.634c0.062-0.364-0.51-0.982-0.922-1.071
			c-0.379-0.081-0.753-0.249-1.13-0.251c-0.419-0.002-0.839,0.143-1.259,0.22c-0.54,0.1-0.922,0.589-0.881,1.133
			c0.035,0.461,0.476,0.893,0.957,0.918C310.995,157.181,311.325,157.175,311.654,157.18z"/>
		<path fill-rule="evenodd" clip-rule="evenodd" d="M308.886,180.225c0.006-0.385,0.004-0.77,0.024-1.153
			c0.003-0.045,0.131-0.127,0.188-0.117c0.104,0.019,0.281,0.087,0.284,0.146c0.023,0.34,0.003,0.683,0,1.024
			c-0.006,1.057,0.089,1.152,1.085,1.15c0.314,0,0.318,0.028,0.207-0.366c-0.299-1.056,0.277-1.996,1.167-2.183
			c0.834-0.175,2.001,0.577,2.236,1.442c0.165,0.605-0.425,1.723-1.028,1.898c-0.132,0.038-0.38-0.01-0.434-0.104
			c-0.112-0.198-0.048-0.347,0.235-0.414c0.492-0.118,0.694-0.698,0.677-1.022c-0.026-0.49-0.367-0.985-0.833-1.269
			c-0.225-0.137-1.241,0.116-1.308,0.368c-0.117,0.442-0.518,0.864-0.187,1.381c0.104,0.164,0.176,0.351,0.257,0.53
			c0.203,0.452,0.118,0.59-0.382,0.505c-0.539-0.092-1.051-0.292-1.614-0.315c-0.397-0.016-0.585-0.393-0.583-0.862
			C308.878,180.652,308.883,180.438,308.886,180.225z"/>
		<path fill-rule="evenodd" clip-rule="evenodd" d="M310.499,183.839c0.247,0.003,0.493,0.012,0.74,0.009
			c0.416-0.004,0.966,0.17,0.82-0.628c0.141-0.023,0.281-0.047,0.422-0.071c0.122,0.821,0.719,0.736,1.284,0.75
			c0.089,0.002,0.172,0.199,0.258,0.305c-0.086,0.064-0.165,0.172-0.257,0.184c-0.202,0.026-0.411-0.013-0.615,0.004
			c-0.428,0.035-0.702,0.3-0.601,0.723c0.073,0.305,0.153,0.521-0.021,0.825c-0.168,0.291,0.218,0.831-0.243,0.963
			c-0.196,0.057-0.516-0.297-0.763-0.488c-0.502-0.389-0.996-0.791-1.487-1.195c-0.128-0.105-0.25-0.229-0.343-0.367
			c-0.235-0.353-0.917-0.242-0.857-0.894c0.431-0.042,0.862-0.086,1.294-0.123C310.251,183.825,310.375,183.837,310.499,183.839z
			 M311.058,184.359c-0.205-0.003-0.411-0.015-0.615-0.005c-0.113,0.006-0.225,0.05-0.336,0.077c0.058,0.091,0.1,0.202,0.176,0.27
			c0.42,0.374,0.844,0.743,1.277,1.099c0.083,0.069,0.233,0.127,0.317,0.094c0.075-0.029,0.134-0.189,0.144-0.297
			C312.132,184.374,312.129,184.374,311.058,184.359z"/>
		<path fill-rule="evenodd" clip-rule="evenodd" d="M313.952,189.194c0.006,1.084-0.44,1.529-1.223,1.851
			c-0.057,0.023-0.19-0.018-0.209-0.063c-0.042-0.103-0.085-0.277-0.035-0.334c0.13-0.146,0.305-0.252,0.47-0.362
			c0.399-0.264,0.642-0.729,0.467-1.102c-0.159-0.34-0.15-0.93-0.777-0.969c-0.71-0.044-0.85-0.01-1.198,0.681
			c-0.071,0.14-0.15,0.277-0.21,0.422c-0.062,0.152,0.463,0.251,0.058,0.408c-0.11,0.042-0.326-0.178-0.478-0.298
			c-0.051-0.04-0.075-0.146-0.071-0.22c0.02-0.445-0.161-0.719-0.602-0.753c-0.289-0.023-0.832,0.409-0.875,0.734
			c-0.049,0.371-0.092,0.78,0.313,1.009c0.099,0.056,0.299,0.042,0.317,0.104c0.056,0.189,0.045,0.398,0.061,0.6
			c-0.115-0.048-0.237-0.085-0.347-0.146c-0.824-0.463-1.077-1.254-0.678-2.106c0.348-0.743,1.099-0.973,1.682-0.438
			c0.413,0.378,0.503,0.289,0.723-0.184c0.197-0.426,1.033-0.412,1.654-0.184C313.708,188.105,313.879,188.678,313.952,189.194z"/>
		<path fill-rule="evenodd" clip-rule="evenodd" d="M309.041,169.007c0.005-0.384-0.002-0.77,0.021-1.153
			c0.01-0.152,0.068-0.416,0.136-0.426c0.183-0.03,0.473-0.024,0.559,0.094c0.426,0.584,1.052,0.884,1.642,1.159
			c0.582,0.271,1.179,0.632,1.872,0.576c0.04-0.003,0.088-0.013,0.122,0.003c0.296,0.14,0.701,0.127,0.819,0.525
			c0.078,0.26-0.369,0.361-0.909,0.187c-0.364-0.118-0.726-0.245-1.085-0.377c-0.36-0.132-0.649-0.472-1.088-0.385
			c-0.045,0.009-0.104-0.13-0.172-0.171c-0.449-0.268-0.903-0.527-1.355-0.79c-0.027,0.59-0.056,1.179-0.08,1.769
			c-0.008,0.171,0.021,0.349-0.019,0.51c-0.021,0.085-0.148,0.197-0.229,0.198c-0.084,0.001-0.241-0.113-0.243-0.182
			C309.017,170.033,309.034,169.52,309.041,169.007z"/>
		<path fill-rule="evenodd" clip-rule="evenodd" d="M311.896,151.028c0.777,0.01,1.556,0.015,2.333,0.041
			c0.083,0.002,0.163,0.126,0.245,0.194c-0.089,0.103-0.177,0.295-0.267,0.296c-1.104,0.005-2.21-0.021-3.314-0.029
			c-0.411-0.003-0.361,0.065-0.281,0.519c0.061,0.35,0.68,0.668,0.288,0.923c-0.517,0.337-0.532-0.353-0.742-0.647
			c-0.192-0.271-0.46-0.483-0.672-0.741c-0.095-0.115-0.136-0.279-0.201-0.421c0.134-0.055,0.268-0.156,0.401-0.158
			C310.422,150.999,311.16,151.018,311.896,151.028z"/>
		<path fill-rule="evenodd" clip-rule="evenodd" d="M311.248,197.443c0.777,0.011,1.556,0.011,2.332,0.046
			c0.09,0.004,0.171,0.198,0.257,0.304c-0.084,0.065-0.168,0.187-0.252,0.187c-1.105-0.002-2.21-0.026-3.315-0.034
			c-0.423-0.003-0.374,0.067-0.303,0.509c0.056,0.353,0.771,0.682,0.213,0.989c-0.442,0.243-0.288-0.525-0.621-0.733
			c-0.382-0.237-0.613-0.734-0.909-1.118c0.465-0.374,0.996-0.107,1.494-0.156C310.508,197.4,310.879,197.438,311.248,197.443z"/>
		<path fill-rule="evenodd" clip-rule="evenodd" fill="#FFFFFF" d="M312.116,177.191c-0.032-0.012-0.358-0.036-0.511-0.217
			c-0.212-0.253-0.374-0.614-0.411-0.946c-0.048-0.426,0.779-1.145,1.206-1.14c0.613,0.007,1.211,0.542,1.241,1.113
			C313.678,176.715,313.147,177.21,312.116,177.191z"/>
		<path fill-rule="evenodd" clip-rule="evenodd" fill="#FFFFFF" d="M312.686,165.915c-0.658-0.005-1.08-0.428-1.116-1.118
			c-0.029-0.545,0.642-1.227,1.17-1.19c0.493,0.034,1.07,0.68,1.055,1.18C313.773,165.467,313.329,165.919,312.686,165.915z"/>
		<path fill-rule="evenodd" clip-rule="evenodd" fill="#FFFFFF" d="M311.076,164.76c-0.015,0.698-0.242,0.909-0.867,0.871
			c-0.396-0.024-0.563-0.255-0.614-0.614c-0.024-0.167-0.01-0.342,0.004-0.512c0.041-0.501,0.282-0.701,0.801-0.673
			c0.436,0.023,0.651,0.235,0.68,0.672C311.084,164.588,311.077,164.674,311.076,164.76z"/>
		<path fill-rule="evenodd" clip-rule="evenodd" fill="#FFFFFF" d="M311.877,160.383c-0.01,0.68-0.404,1.146-0.97,1.146
			c-0.701,0.001-1.248-0.424-1.257-0.976c-0.014-0.787,0.523-1.347,1.277-1.333C311.494,159.233,311.886,159.713,311.877,160.383z"
			/>
		<path fill-rule="evenodd" clip-rule="evenodd" fill="#FFFFFF" d="M311.032,208.212c-0.374-0.112-0.871,0.161-1.328-0.171
			c-0.311-0.226-0.72-0.268-0.712-0.842c0.007-0.519,0.311-0.788,0.624-1.007c0.604-0.42,2.33-0.433,2.962,0.011
			c0.292,0.205,0.44,0.641,0.624,0.988c0.03,0.059-0.076,0.22-0.148,0.307C312.446,208.233,312.443,208.231,311.032,208.212z"/>
		<path fill-rule="evenodd" clip-rule="evenodd" fill="#FFFFFF" d="M311.654,157.18c-0.329-0.005-0.659,0.001-0.987-0.016
			c-0.481-0.026-0.922-0.458-0.957-0.918c-0.041-0.544,0.341-1.033,0.881-1.133c0.42-0.077,0.84-0.222,1.259-0.22
			c0.377,0.002,0.751,0.17,1.13,0.251c0.412,0.089,0.983,0.707,0.922,1.071c-0.038,0.225-0.144,0.471-0.293,0.634
			c-0.15,0.164-0.386,0.313-0.598,0.334C312.563,157.228,312.107,157.186,311.654,157.18z"/>
		<path fill-rule="evenodd" clip-rule="evenodd" fill="#FFFFFF" d="M311.058,184.359c1.071,0.015,1.074,0.015,0.963,1.237
			c-0.01,0.108-0.068,0.268-0.144,0.297c-0.084,0.034-0.234-0.025-0.317-0.094c-0.434-0.356-0.857-0.725-1.277-1.099
			c-0.076-0.068-0.118-0.179-0.176-0.27c0.111-0.027,0.223-0.071,0.336-0.077C310.647,184.344,310.853,184.356,311.058,184.359z"/>
	</g>
</g>
</svg>
