<?xml version="1.0" encoding="utf-8"?>
<!-- Generator: Adobe Illustrator 16.0.0, SVG Export Plug-In . SVG Version: 6.00 Build 0)  -->
<!DOCTYPE svg PUBLIC "-//W3C//DTD SVG 1.1//EN" "http://www.w3.org/Graphics/SVG/1.1/DTD/svg11.dtd">
<svg version="1.1" id="Layer_1" xmlns="http://www.w3.org/2000/svg" xmlns:xlink="http://www.w3.org/1999/xlink" x="0px" y="0px"
	 width="460.417px" height="87.726px" viewBox="0 -5.518 460.417 87.726" enable-background="new 0 -5.518 460.417 87.726"
	 xml:space="preserve">
<g id="Layer_1_2_">
	<g id="Layer_1_1_">
		<text transform="matrix(1 0 0 1 135.2354 15.502)" font-family="'Verdana'" font-size="14">Threat or use of force, coercion, abduction, </text>
		<text transform="matrix(1 0 0 1 135.2354 32.3018)" font-family="'Verdana'" font-size="14">fraud, deception, abuse of power, or giving </text>
		<text transform="matrix(1 0 0 1 135.2354 49.1021)" font-family="'Verdana'" font-size="14">payments to a person in control of the victim.</text>
		<g>
			<g>
				<path fill="none" d="M9.622-50.566c0.473,0.02,0.896,0.198,1.25,0.461c2.643-2.484,5.897-2.926,8.89-2.048
					c2.414-0.998,4.888-1.798,7.419-2.272c-6.987-0.004-13.974,0.006-20.961,0c-1.031-0.001-1.224,0.189-1.22,1.22
					c0.002,0.917,0.001,1.835,0.003,2.753C6.506-50.683,7.976-50.634,9.622-50.566z"/>
				<path fill="none" d="M6.323-46.193c-0.438,0.073-0.875,0.146-1.313,0.219c0.002,1.374-0.003,2.747-0.001,4.121
					c0.294-0.737,0.661-1.463,1.129-2.168c-0.237-0.437-0.308-0.946-0.091-1.464C6.144-45.719,6.232-45.956,6.323-46.193z"/>
				<path fill="none" d="M18.897-2.083C13.882-2.727,8.532-4.764,5.001-8.297C4.998-6.6,5.004-4.903,5-3.206
					C4.997-2.172,5.189-1.981,6.221-1.983c4.548-0.01,9.097-0.01,13.645-0.015C19.543-2.02,19.22-2.042,18.897-2.083z"/>
				<path fill="none" d="M124.112-53.205c0.003-1.032-0.191-1.221-1.222-1.221c-28.87,0.027-57.739,0.013-86.608,0
					c4.873,1.211,8.662,4.905,8.714,10.4c2.274,0.029,4.376,0.561,6.135,1.548c2.609-1.776,5.566-3.01,8.599-3.427
					c4.789-0.659,8.449,0.502,11.042,3.607c4.403-4.031,10.008-6.3,16.262-6.548c3.341-0.133,6.828,0.455,9.996,1.748
					c5.598-5.204,14.062-4.439,20.583-0.21c3.976,2.579,6.544,7.512,5,12.286c-1.319,4.079-3.718,7.171-5.549,10.95
					c-1.546,3.192,0.027,8.376,0.438,11.658c0.605,4.844-3.496,9.062-7.957,10.418c4.449,0.005,8.897,0.005,13.346,0.015
					c1.033,0.002,1.225-0.191,1.222-1.223C124.068-19.872,124.068-36.538,124.112-53.205z"/>
				<path fill="none" d="M97.96-6.151c-2.625,0.973-5.401,1.404-8.18,1.345c-7.628,2.431-16.381,2.1-22.762-2.52
					c-0.786-0.569-1.527-1.173-2.224-1.806c-3.936,0.438-7.813,0.204-11.057-0.888c-3.148,1.138-6.27,1.794-9.039,1.843
					c-1.782,0.031-3.619-0.248-5.41-0.785C34.349-5.484,28.399-2.415,22.475-2c14.027-0.012,28.054-0.012,42.081-0.012
					c12.963,0,25.927,0.001,38.891,0.01C101.093-2.711,99.256-4.194,97.96-6.151z"/>
			</g>
		</g>
	</g>
	<g id="Layer_2">
	</g>
	<text transform="matrix(1 0 0 1 32.2813 60.2075)" font-family="'Verdana'" font-size="10">is it done?</text>
</g>
<g id="Layer_2_1_">
	<g>
		<g>
			<path fill="none" d="M61.34-5.483c21.737,0,43.473,0.014,65.21-0.035c1.194-0.002,1.417,0.219,1.413,1.413
				c-0.049,19.9-0.049,39.8,0,59.7c0.003,1.192-0.219,1.411-1.413,1.411c-43.473-0.041-86.947-0.041-130.42,0
				c-1.193,0-1.416-0.219-1.413-1.411c0.05-19.9,0.05-39.8,0-59.7C-5.285-5.298-5.063-5.52-3.87-5.518
				C17.866-5.469,39.603-5.483,61.34-5.483z M11.548,12.332c0.398-0.483,0.638-0.642,0.633-0.792
				c-0.015-0.397-0.136-0.791-0.214-1.186c-0.202,0.052-0.578,0.106-0.578,0.156c0.006,0.494,0.073,0.988,12.753,21.604
				c0,1.027-0.207,2.006,0.046,2.847c0.432,1.435,1.916,2.328,2.542,3.468c0.751,1.367-0.091,3.46,1.072,5.041
				c0.668,0.905,2.174,0.866,2.77-0.153c0.288-0.492,0.895-1.02,0.835-1.461c-0.379-2.849,1.755-4.486,2.906-6.624
				c0.859-1.595,1.198-3.471,1.769-5.221c-1.388-0.683-0.753-2.13-1.161-3.186c-0.663-1.716-1.121-3.517-1.578-5.304
				c-0.276-1.079,0.497-1.914,0.803-2.857c0.403-1.244,0.183-2.725,0.073-4.092c-0.094-1.185-1.252-1.459-2.362-0.707
				c-0.355,0.24-1.18,0.461-1.233,0.369c-0.442-0.764-1.969,0.036-1.918-1.423c0.03-0.859-0.22-1.729-0.344-2.595
				c-0.182,0.937-0.706,1.97-0.474,2.789c0.475,1.684-1.151,3.163-0.266,4.85c0.089,0.17-0.846,0.878-1.306,1.336
				c-1.723-1.996-3.088,0.816-4.697,0.351l-4.373-0.236c-0.432-1.044-1.025-2.058-1.227-3.144c-0.104-0.556,0.863-1.362,0.705-1.845
				c-0.436-1.33-1.105-2.619-1.888-3.787c-0.486-0.725-1.234-0.66-1.727,0.245c-0.236,0.434-0.805,0.767-0.867,1.197
				c-0.164,1.151,0.306,2.454-0.958,3.282c0.65,3.309-0.542,4.789-4.012,4.108C7.15,19.339,6.805,20,6.725,20.376
				c-0.044,0.209,0.215,0.672,0.392,0.702c0.59,0.103,1.243-0.055,1.795,0.124c0.267,0.086,0.445,0.688,0.501,1.081
				c0.03,0.21-0.242,0.624-0.448,0.678c-0.699,0.185-1.429,0.249-2.147,0.36c0.743,0.215,1.585,0.283,2.202,0.69
				c0.573,0.378,1.258,1.105,1.286,1.706c0.133,2.897,0.06,5.804,0.06,8.707c-1.751,1.303-0.785,2.803,0.428,3.074
				c1.957,0.438,1.805,1.996,1.202,2.514c-1.727,1.481,0.352,2.359,0.299,3.516c-0.007,0.166,1.23,0.543,1.877,0.514
				c0.28-0.014,0.689-0.785,0.751-1.252c0.12-0.9-0.039-1.837,0.064-2.743c0.057-0.499,0.287-1.109,0.652-1.421
				c3.102-2.646,3.207-2.933,2.085-6.69c-0.084-0.279,0.121-0.734-0.032-0.893c-1.465-1.526-0.768-3.407-0.868-5.143
				c-0.02-0.347,0.4-1.045,0.531-1.025c2.034,0.315,4.074-0.537,6.187,0.555c1.361,0.702,2.113,1.715,1.421,2.507
				C23.725,29.358,24.396,30.813,11.548,12.332z M45.267,26.931c0,0.307-0.001,0.613,0,0.918c0.024,4.431,1.63,6.952,5.259,10.176
				c2.345,2.083,5.667,3.832,4.933,8.06c-0.15,0.869,0.986,2.016,2.195,1.647c1.198-0.362,2.211-1.313,3.401-1.739
				c1.116-0.402,0.759-1.203,0.716-1.845c-0.11-1.638,0.664-2.38,2.167-2.821c1.84-0.541,3.625-1.027,5.597-0.937
				c1.675,0.076,2.883-1.118,4.157-2.13c1.203-0.956,0.939-2.123,0.96-3.297c0.023-1.224-0.043-2.449,0.018-3.67
				c0.069-1.358-0.218-2.559-0.89-3.772c-0.537-0.973-0.375-2.581-1.109-3.144c-1.496-1.15,1.096-2.146-0.274-3.379
				c-0.913-0.822-1.466-2.66-1.295-3.925c0.249-1.844-2.132-2.994-1.413-4.04c1.084-1.575-0.667-2.63-0.033-3.88
				c0.098-0.193,0.112-0.429,0.164-0.646c-2.161-0.092-1.563-1.703-1.584-2.932c-0.077-4.648-0.066-4.648-4.903-4.629
				c-0.153,0.001-0.312,0.028-0.458-0.004c-1.873-0.415-3.189,0.42-4.294,1.835c-1.271,1.625-2.549,3.248-3.9,4.805
				c-1.069,1.232-2.578,2.159-2.09,4.204c0.261,1.091-0.762,0.889-1.387,1.2c-1.664,0.83-3.265,1.71-3.899,3.781
				C46.285,20.099,45.237,23.4,45.267,26.931z M85.668,21.729c0.059,3.04-0.36,5.589,1.413,7.785
				c0.399,0.494,0.393,1.385,0.417,2.097c0.056,1.681,0.113,3.371-0.015,5.043c-0.091,1.212,0.288,2.43,1.267,2.628
				c2.472,0.499,2.463,2.103,2.477,4.027c0.016,2.023,0.793,2.641,2.714,2.643c1.918,0,2.673-0.701,2.752-2.635
				c0.055-1.328-0.482-2.562-0.715-3.784c-0.177-0.936,1.001-2.385,0.689-3.702c-0.484-2.04,1.022-3.66,0.989-5.589
				c-0.004-0.271,0.494-0.747,0.788-0.77c0.32-0.024,0.858,0.29,0.98,0.589c0.748,1.831,1.428,3.689,2.087,5.556
				c0.703,1.991,2.592,3.834,0.059,6.073c-1.07,0.945-0.195,4.303,0.808,4.889c2.533,1.479,6.178-0.478,6.249-3.386
				c0.029-1.166,0.356-2.458-0.906-3.287c0.34-2.459,0.676-4.917,1.032-7.372c0.018-0.122,0.207-0.216,0.312-0.326
				c2.215-2.328,2.388-5.228,2.34-8.207c-0.028-1.767,1.277-4.586,2.144-6.448c3.02-6.489,5.238-6.161,1.536-13.905
				c-0.241-0.503-0.069-1.31-0.413-1.637c-0.63-0.603-3.011,0.027-3.696,0.71c-0.992,0.986,0.42,1.426,0.556,2.145
				c0.173,0.911,0.734,1.769,0.829,2.853c0.287,3.286-1.179,5.854-2.849,8.48c-2.855,4.491-5.004,9.291-5.474,14.698
				c-0.062,0.715-0.252,1.421-0.383,2.13c-0.541-0.496-1.041-1.047-1.63-1.478c-1.35-0.985-1.928-2.248-1.658-3.911
				c0.155-0.95-0.333-1.608-0.848-2.411c-1.073-1.669-1.033-1.827-2.27-0.45c-0.764,0.85-1.26,1.938-1.991,2.823
				c-0.342,0.416-0.936,0.762-1.454,0.825c-0.207,0.025-0.671-0.773-0.754-1.244c-0.751-4.228-2.074-8.354-4.02-12.082
				c-1.169-2.24-1.186-4.689-2.351-6.85c-0.386-0.716-0.461-2.06,0.538-2.927c0.247-0.214,0.331-1.101,0.219-1.16
				c-0.492-0.257-1.281-0.621-1.604-0.406c-1.224,0.813-2.375,1.776-3.373,2.85c-0.14,0.151,0.86,1.185,1.073,1.888
				c0.25,0.832,0.218,1.748,0.309,2.628c0.123,1.171-0.156,2.642,0.448,3.458C86.074,16.996,85.578,19.659,85.668,21.729z"/>
			<path d="M45.267,26.931c-0.03-3.531,1.018-6.832,2.037-10.164c0.634-2.071,2.235-2.952,3.899-3.781
				c0.625-0.312,1.647-0.109,1.387-1.2c-0.488-2.045,1.021-2.972,2.09-4.204c1.351-1.557,2.629-3.18,3.9-4.805
				c1.105-1.415,2.421-2.25,4.294-1.835c0.146,0.032,0.305,0.005,0.458,0.004c4.837-0.019,4.826-0.019,4.903,4.629
				c0.021,1.229-0.577,2.84,1.584,2.932c-0.052,0.217-0.066,0.453-0.164,0.646c-0.634,1.25,1.118,2.305,0.033,3.88
				c-0.719,1.046,1.661,2.196,1.413,4.04c-0.17,1.265,0.382,3.103,1.295,3.925c1.37,1.233-1.222,2.229,0.274,3.379
				c0.734,0.563,0.572,2.171,1.109,3.144c0.672,1.213,0.959,2.414,0.89,3.772c-0.061,1.221,0.005,2.446-0.018,3.67
				c-0.021,1.174,0.242,2.341-0.96,3.297c-1.274,1.012-2.482,2.206-4.157,2.13c-1.972-0.091-3.756,0.396-5.597,0.937
				c-1.503,0.441-2.277,1.185-2.167,2.821c0.043,0.642,0.4,1.44-0.716,1.845c-1.19,0.428-2.203,1.377-3.401,1.739
				c-1.209,0.367-2.345-0.778-2.195-1.647c0.734-4.228-2.588-5.977-4.933-8.06c-3.629-3.224-5.235-5.745-5.259-10.176
				C45.266,27.544,45.267,27.238,45.267,26.931z M65.475,29.398c-0.041-2.347-0.577-4.691-0.716-6.949
				c-0.212-3.439-2.367-5.506-3.822-8.089c-0.427-0.757-1.511-0.939-1.797-0.107c-0.717,2.086-2.252,2.293-4.049,2.333
				c-0.523,0.012-1.43,0.246-1.494,0.529c-0.415,1.814-2.186,2.893-2.031,5.18c0.227,3.347,0.835,6.853-0.744,10.15
				c-0.26,0.543-0.088,1.164,0.883,1.65c2.292,1.146,4.344,2.766,6.528,4.138c1.189,0.746,2.895,0.46,4.034-0.558
				c3.206-2.863,3.206-2.863,3.206-7.362C65.473,30.009,65.473,29.703,65.475,29.398z M57.455,9.236
				c0.351-0.034,1.011,0.089,1.19-0.148c1.091-1.448,2.285-2.766,3.817-3.754c-0.185-0.238-0.359-0.668-0.554-0.677
				c-0.567-0.027-1.316-0.088-1.683,0.227c-1.256,1.078-2.387,2.303-3.542,3.495c-0.127,0.132-0.184,0.57-0.126,0.602
				C56.796,9.114,57.091,9.145,57.455,9.236z M66.391,5.051c-0.107-0.203-0.333-1.203-0.727-1.274
				c-1.511-0.274-1.037,0.99-1.104,1.784c-0.037,0.448-0.08,0.921,0.026,1.347c0.049,0.2,0.463,0.464,0.677,0.435
				c0.391-0.053,0.93-0.208,1.083-0.494C66.535,6.498,66.391,5.969,66.391,5.051z"/>
			<path d="M85.668,21.729c-0.09-2.07,0.406-4.733-1.378-7.15c-0.604-0.817-0.325-2.287-0.448-3.458
				c-0.091-0.88-0.059-1.796-0.309-2.628C83.32,7.789,82.32,6.755,82.46,6.604c0.998-1.074,2.149-2.036,3.373-2.85
				c0.323-0.214,1.112,0.149,1.604,0.406c0.112,0.06,0.028,0.946-0.219,1.16c-0.999,0.867-0.924,2.211-0.538,2.927
				c1.165,2.161,1.182,4.61,2.351,6.85c1.946,3.728,3.269,7.854,4.02,12.082c0.083,0.471,0.548,1.269,0.754,1.244
				c0.518-0.063,1.111-0.409,1.454-0.825c0.731-0.886,1.227-1.973,1.991-2.823c1.237-1.377,1.197-1.219,2.27,0.45
				c0.515,0.803,1.003,1.461,0.848,2.411c-0.271,1.663,0.308,2.925,1.658,3.911c0.589,0.431,1.089,0.981,1.63,1.478
				c0.131-0.709,0.321-1.415,0.383-2.13c0.47-5.407,2.619-10.207,5.474-14.698c1.67-2.626,3.136-5.194,2.849-8.48
				c-0.095-1.083-0.655-1.942-0.829-2.853c-0.136-0.718-1.548-1.159-0.556-2.145c0.686-0.683,3.066-1.313,3.696-0.71
				c0.344,0.327,0.171,1.133,0.413,1.637c3.702,7.744,1.483,7.416-1.536,13.905c-0.867,1.862-2.172,4.681-2.144,6.448
				c0.048,2.979-0.125,5.879-2.34,8.207c-0.105,0.11-0.294,0.204-0.312,0.326c-0.355,2.455-0.692,4.913-1.032,7.372
				c1.262,0.829,0.935,2.121,0.906,3.287c-0.071,2.908-3.716,4.863-6.249,3.386c-1.003-0.586-1.878-3.941-0.808-4.889
				c2.534-2.239,0.645-4.082-0.059-6.073c-0.659-1.866-1.339-3.725-2.087-5.556c-0.122-0.299-0.66-0.613-0.98-0.589
				c-0.293,0.022-0.792,0.499-0.788,0.77c0.033,1.929-1.474,3.549-0.989,5.589c0.312,1.317-0.866,2.767-0.689,3.702
				c0.232,1.223,0.77,2.456,0.715,3.784c-0.08,1.934-0.834,2.635-2.752,2.635c-1.921-0.002-2.698-0.619-2.714-2.643
				c-0.014-1.925-0.005-3.528-2.477-4.027c-0.979-0.198-1.358-1.416-1.267-2.628c0.127-1.672,0.071-3.362,0.015-5.043
				c-0.024-0.712-0.018-1.603-0.417-2.097C85.308,27.318,85.727,24.769,85.668,21.729z"/>
			<path d="M24.143,32.115c0.253-1.303-0.418-2.757,0.822-4.178c0.692-0.792-0.061-1.805-1.421-2.507
				c-2.113-1.092-4.153-0.24-6.187-0.555c-0.131-0.021-0.551,0.678-0.531,1.025c0.101,1.736-0.597,3.616,0.868,5.143
				c0.153,0.158-0.052,0.613,0.032,0.893c1.122,3.758,1.017,4.044-2.085,6.69c-0.365,0.312-0.596,0.922-0.652,1.421
				c-0.104,0.905,0.055,1.842-0.064,2.743c-0.062,0.467-0.471,1.238-0.751,1.252c-0.647,0.029-1.884-0.348-1.877-0.514
				c0.053-1.156-2.025-2.034-0.299-3.516c0.603-0.518,0.755-2.076-1.202-2.514c-1.212-0.271-2.179-1.771-0.428-3.074
				c0-2.903,0.073-5.81-0.06-8.707c-0.028-0.601-0.713-1.328-1.286-1.706c-0.617-0.407-1.458-0.475-2.202-0.69
				c0.718-0.111,1.448-0.176,2.147-0.36c0.206-0.055,0.479-0.468,0.448-0.678c-0.056-0.393-0.234-0.995-0.501-1.081
				c-0.552-0.179-1.205-0.021-1.795-0.124c-0.177-0.03-0.437-0.493-0.392-0.702C6.805,20,7.15,19.339,7.272,19.363
				c3.47,0.681,4.662-0.799,4.012-4.108c1.264-0.828,0.794-2.13,0.958-3.282c0.062-0.43,0.631-0.763,0.867-1.197
				c0.493-0.905,1.241-0.969,1.727-0.245c0.783,1.168,1.453,2.457,1.888,3.787c0.158,0.483-0.809,1.289-0.705,1.845
				c0.202,1.086,0.795,2.1,1.227,3.144l4.373,0.236c1.609,0.466,2.974-2.346,4.697-0.351c0.46-0.458,1.396-1.166,1.306-1.336
				c-0.885-1.687,0.741-3.166,0.266-4.85c-0.232-0.819,0.292-1.852,0.474-2.789c0.124,0.866,0.374,1.735,0.344,2.595
				c-0.051,1.458,1.476,0.659,1.918,1.423c0.053,0.092,0.878-0.128,1.233-0.369c1.11-0.753,2.268-0.478,2.362,0.707
				c0.109,1.367,0.33,2.848-0.073,4.092c-0.306,0.943-1.079,1.778-0.803,2.857c0.457,1.788,0.916,3.588,1.578,5.304
				c0.408,1.056-0.228,2.503,1.161,3.186c-0.571,1.75-0.91,3.626-1.769,5.221c-1.151,2.138-3.285,3.775-2.906,6.624
				c0.059,0.44-0.547,0.968-0.835,1.461c-0.596,1.021-2.102,1.06-2.77,0.153c-1.163-1.581-0.321-3.674-1.072-5.041
				c-0.627-1.14-2.111-2.033-2.542-3.468C23.936,34.121,24.143,33.143,24.143,32.115z"/>
			<path d="M11.548,12.332c-0.085-0.833-0.153-1.327-0.159-1.821c0-0.05,0.376-0.104,0.578-0.156
				c0.078,0.395,0.199,0.789,0.214,1.186C12.187,11.69,11.947,11.849,11.548,12.332z"/>
			<path fill="none" d="M65.474,29.398c-0.001,0.305-0.001,0.61-0.001,0.915c0,4.499,0,4.499-3.206,7.362
				c-1.14,1.018-2.845,1.304-4.034,0.558c-2.184-1.372-4.236-2.991-6.528-4.138c-0.971-0.486-1.143-1.107-0.883-1.65
				c1.579-3.298,0.97-6.803,0.744-10.15c-0.155-2.287,1.616-3.365,2.031-5.18c0.064-0.284,0.971-0.518,1.494-0.529
				c1.797-0.04,3.332-0.247,4.049-2.333c0.287-0.832,1.371-0.65,1.797,0.107c1.455,2.583,3.609,4.65,3.822,8.089
				C64.898,24.708,65.434,27.051,65.474,29.398z"/>
			<path fill="none" d="M57.455,9.236c-0.364-0.091-0.659-0.122-0.896-0.255c-0.058-0.032-0.001-0.47,0.126-0.602
				c1.154-1.192,2.285-2.417,3.542-3.495c0.367-0.315,1.116-0.254,1.683-0.227c0.195,0.009,0.369,0.439,0.554,0.677
				c-1.533,0.988-2.726,2.306-3.817,3.754C58.466,9.325,57.806,9.202,57.455,9.236z"/>
			<path fill="none" d="M66.391,5.051c0,0.918,0.144,1.447-0.044,1.798c-0.153,0.286-0.692,0.441-1.083,0.494
				c-0.213,0.029-0.627-0.235-0.677-0.435c-0.106-0.426-0.063-0.899-0.026-1.347c0.066-0.794-0.408-2.059,1.104-1.784
				C66.059,3.849,66.284,4.849,66.391,5.051z"/>
		</g>
	</g>
</g>
</svg>
