<?xml version="1.0" encoding="utf-8"?>
<!-- Generator: Adobe Illustrator 16.0.3, SVG Export Plug-In . SVG Version: 6.00 Build 0)  -->
<!DOCTYPE svg PUBLIC "-//W3C//DTD SVG 1.1//EN" "http://www.w3.org/Graphics/SVG/1.1/DTD/svg11.dtd">
<svg version="1.1" id="HT_x5F_Tag_xA0_Image_1_" xmlns="http://www.w3.org/2000/svg" xmlns:xlink="http://www.w3.org/1999/xlink"
	 x="0px" y="0px" width="800px" height="600px" viewBox="0 0 800 600" enable-background="new 0 0 800 600" xml:space="preserve">
<g>
	<g>
		<path fill="none" d="M801,333c0,89.316,0,178.634,0,267.975c-266.601,0-533.201,0-799.9,0c0-199.871,0-399.768,0-599.819
			c266.567,0,533.233,0,799.9,0c0,70.871,0,141.858,0,212.845c-11.138-0.03-22.276-0.399-33.404,0.55
			c-12.559,1.071-25.068,2.462-37.546,4.29c-14.257,2.09-28.415,4.641-42.459,7.82c-8.853,2.005-17.653,4.24-26.478,6.372
			c-0.037-5.988-0.104-11.976-0.108-17.963c-0.015-17.47-0.051-34.939,0.036-52.409c0.017-3.343-0.792-6.119-3.179-8.542
			c-2.554-2.593-5.591-3.156-9.06-3.152c-45.588,0.052-91.176,0.033-136.763,0.036c-4.323,0-8.646,0.022-12.968,0.034
			c-1.701-0.318-3.398-0.388-5.092,0.05c-1.832-0.028-3.664-0.082-5.495-0.082c-60.65-0.005-121.301-0.008-181.951-0.001
			c-14.829,0.001-29.658,0.037-44.486,0.057c-1.032-0.523-2.064-0.523-3.096,0c-39.633-0.02-79.267-0.039-118.9-0.059
			c-0.333-0.001-0.666,0.006-0.999,0c-2.457-0.04-4.468,0.958-6.293,2.54c-2.848,2.471-3.811,5.529-3.807,9.281
			c0.065,68.11,0.047,136.221,0.048,204.332c0,0.499,0.017,0.999,0.001,1.498c-0.09,2.835,1.115,5.075,3.017,7.102
			c2.48,2.644,5.506,3.289,9.007,3.285c39.3-0.044,78.601-0.002,117.901,0.017c1.048,1.552,2.097,1.55,3.146,0.001
			c1.832-0.02,3.664-0.055,5.496-0.055c73.639-0.002,147.277-0.001,220.916-0.006c1.832,0,3.663-0.054,5.495-0.082
			c1.692,0.438,3.391,0.368,5.092,0.05c5.99,0.012,11.98,0.034,17.972,0.034c43.787,0.003,87.575-0.004,131.362,0.016
			c2.506,0.001,5.051,0.168,7.219-1.311c3.479-2.373,5.458-5.464,5.43-9.973c-0.122-19.812-0.044-39.625-0.039-59.438
			c0.946,0.301,1.908,0.559,2.836,0.909c35.948,13.567,72.829,22.984,111.365,25.039C783.852,334.701,792.465,334.656,801,333z"/>
		<path fill-rule="evenodd" clip-rule="evenodd" fill="none" d="M801,217c0,35.333,0,70.667,0,106
			c-0.657,0.008-1.344-0.105-1.968,0.043c-12.633,2.995-25.467,2.601-38.222,1.702c-21.74-1.531-43.131-5.493-64.239-10.859
			c-12.043-3.061-24.061-6.278-35.595-11.017c0.041-20.205,0.082-40.41,0.123-60.614c2.679-0.271,5.084-1.476,7.609-2.259
			c28.384-8.808,57.298-15.336,86.657-19.818C770.468,217.872,785.656,216.143,801,217z"/>
		<path fill-rule="evenodd" clip-rule="evenodd" fill="#070707" d="M660.977,302.869c11.534,4.738,23.552,7.956,35.595,11.017
			c21.108,5.366,42.499,9.328,64.239,10.859c12.755,0.898,25.589,1.293,38.222-1.702c0.624-0.148,1.311-0.035,1.968-0.043
			c0,3.333,0,6.667,0,10c-8.535,1.656-17.148,1.701-25.783,1.241c-38.536-2.055-75.417-11.472-111.365-25.039
			c-0.928-0.351-1.89-0.608-2.836-0.909c-2.88-1.246-5.754-2.507-8.642-3.733c-9.751-4.145-18.96-9.325-28.079-14.677
			c-2.441-1.947-4.907-3.865-7.319-5.85c-3.858-3.175-7.406-6.708-9.636-11.206c-3.446-6.95-3.742-11.199,3.182-17.583
			c2.302-2.122,5.029-3.711,7.688-5.389c5.032-3.178,10.703-5.017,15.872-7.885c2.808,2.276,5.759,4.433,6.81,8.173
			c-2.688,1.235-5.396,2.429-8.062,3.715c-5.065,2.444-9.991,5.155-14.117,9.036c-4.904,4.612-5.424,9.557-1.537,15.021
			c3.209,4.512,7.478,7.848,12.438,10.296c0.632,0.522,1.201,1.16,1.907,1.55C640.96,294.979,650.685,299.563,660.977,302.869z"/>
		<path fill-rule="evenodd" clip-rule="evenodd" fill="#070707" d="M801,217c-15.344-0.857-30.532,0.872-45.634,3.178
			c-29.359,4.482-58.273,11.011-86.657,19.818c-2.525,0.783-4.931,1.988-7.609,2.259c0.005-3.074,0.01-6.148,0.014-9.223
			c8.824-2.132,17.625-4.367,26.478-6.372c14.044-3.18,28.202-5.73,42.459-7.82c12.478-1.828,24.987-3.219,37.546-4.29
			c11.128-0.949,22.267-0.58,33.404-0.55C801,215,801,216,801,217z"/>
		<path fill-rule="evenodd" clip-rule="evenodd" fill="#EED822" d="M258.927,379.056c-39.3-0.019-78.601-0.061-117.901-0.017
			c-3.501,0.004-6.526-0.642-9.007-3.285c-1.902-2.026-3.106-4.267-3.017-7.102c0.016-0.499-0.001-0.999-0.001-1.498
			c0-68.111,0.018-136.222-0.048-204.332c-0.003-3.752,0.959-6.811,3.807-9.281c1.825-1.582,3.836-2.58,6.293-2.54
			c0.333,0.006,0.666-0.001,0.999,0c39.633,0.02,79.267,0.039,118.9,0.059c0.024,1.945,0.024,3.893,0.086,5.837
			c0.022,0.718,0.455,1.132,1.22,1.171c0.884,0.045,1.66-0.124,1.702-1.172c0.077-1.943,0.064-3.891,0.088-5.836
			c14.829-0.02,29.658-0.056,44.486-0.057c60.65-0.007,121.301-0.004,181.951,0.001c1.831,0,3.663,0.054,5.495,0.082
			c0,75.942,0,151.886,0,227.828c-1.832,0.028-3.663,0.082-5.495,0.082c-73.639,0.005-147.277,0.004-220.916,0.006
			c-1.832,0-3.664,0.035-5.496,0.055C261.024,378.629,259.976,378.629,258.927,379.056z M261.976,189.436c0.007,0,0.015,0,0.022,0
			c0-1.321,0.003-2.643-0.001-3.965c-0.003-0.956-0.415-1.507-1.446-1.527c-1.002-0.02-1.538,0.414-1.54,1.426
			c-0.005,2.478-0.019,4.956,0.017,7.434c0.016,1.06,0.736,1.311,1.668,1.269c0.775-0.036,1.228-0.439,1.265-1.168
			C262.019,191.75,261.976,190.592,261.976,189.436z M258.999,241.499c0.009,0,0.019,0,0.029,0c0,1.155-0.058,2.314,0.021,3.465
			c0.049,0.722,0.557,1.092,1.319,1.113c0.949,0.026,1.608-0.266,1.614-1.332c0.013-2.146,0.015-4.291,0.002-6.437
			c-0.006-1.047-0.622-1.392-1.594-1.359c-1.054,0.035-1.385,0.653-1.39,1.579C258.995,239.519,258.999,240.509,258.999,241.499z
			 M261.932,207.209c0.018,0,0.036,0,0.054,0c0-0.982,0.014-1.966-0.004-2.948c-0.02-1.063-0.686-1.333-1.62-1.308
			c-0.751,0.021-1.293,0.374-1.313,1.094c-0.059,2.127-0.05,4.257-0.003,6.385c0.021,0.962,0.579,1.453,1.591,1.378
			c0.751-0.057,1.241-0.433,1.28-1.168C261.977,209.501,261.932,208.354,261.932,207.209z M258.919,258.936
			c0.501,1.343-0.994,3.884,1.677,3.757c2.509-0.119,1.337-2.575,1.323-3.946c-0.013-1.304,1.258-3.822-1.517-3.694
			C257.757,255.175,259.508,257.636,258.919,258.936z M262.015,291.336c-0.017,0-0.034,0-0.05,0c0-1.145,0.084-2.297-0.03-3.43
			c-0.073-0.724-0.711-0.97-1.436-0.97c-0.726,0.001-1.366,0.251-1.434,0.973c-0.122,1.298-0.139,2.617-0.057,3.919
			c0.074,1.168-0.577,2.948,1.494,2.947c2.074-0.001,1.328-1.791,1.509-2.949C262.036,291.666,262.015,291.499,262.015,291.336z
			 M261.975,322.949c0.012,0,0.024,0,0.037,0c0-0.654,0.006-1.308-0.001-1.962c-0.011-0.992,0.008-1.973-1.407-2.042
			c-1.364-0.068-1.63,0.724-1.617,1.836c0.017,1.472-0.024,2.944,0.021,4.415c0.026,0.866,0.337,1.566,1.391,1.617
			c1.011,0.048,1.506-0.473,1.566-1.414C262.016,324.586,261.975,323.767,261.975,322.949z M262.014,171.166
			c0-0.657,0.041-1.155-0.008-1.646c-0.104-1.04,0.444-2.448-1.391-2.565c-1.842-0.118-1.599,1.202-1.625,2.335
			c-0.012,0.494-0.131,1.032,0.02,1.476c0.492,1.451-1.437,4.233,1.619,4.184C263.233,174.908,261.49,172.338,262.014,171.166z
			 M261.991,224.297c0-0.652,0.014-1.305-0.003-1.956c-0.023-0.901-0.348-1.529-1.389-1.56c-0.963-0.027-1.551,0.352-1.571,1.356
			c-0.029,1.467-0.027,2.934-0.023,4.4c0.002,0.92,0.362,1.516,1.394,1.544c0.955,0.026,1.563-0.307,1.583-1.341
			C261.998,225.927,261.985,225.111,261.991,224.297z M262.005,339.486c0-1.237,0.021-1.888-0.005-2.535
			c-0.038-0.925-0.463-1.514-1.462-1.532c-0.984-0.018-1.508,0.524-1.528,1.455c-0.028,1.294-0.005,2.595,0.098,3.885
			c0.059,0.733,0.632,1.045,1.354,1.059c0.714,0.014,1.277-0.25,1.421-0.984C262.007,340.202,262,339.546,262.005,339.486z
			 M261.961,275.182c0.008,0,0.016,0,0.023,0c0-0.65,0.011-1.301-0.003-1.95c-0.021-0.959-0.477-1.466-1.482-1.464
			c-1.003,0.001-1.473,0.507-1.48,1.466c-0.01,1.3-0.068,2.607,0.05,3.898c0.065,0.713,0.708,0.964,1.431,0.963
			c0.723,0,1.303-0.25,1.436-0.967C262.054,276.499,261.961,275.832,261.961,275.182z M261.978,306.727
			c-0.251-0.897,0.755-2.703-1.25-2.879c-2.504-0.219-1.52,1.872-1.722,3.105c-0.104,0.631-0.03,1.3,0.028,1.946
			c0.065,0.72,0.467,1.128,1.232,1.169c0.896,0.048,1.613-0.147,1.7-1.189C262.021,308.233,261.978,307.579,261.978,306.727z
			 M261.974,353.741c-0.255-0.96,0.816-3.058-1.661-2.895c-1.996,0.131-1.138,1.916-1.308,3.043
			c-0.095,0.634-0.018,1.299,0.021,1.947c0.064,1.053,0.762,1.268,1.664,1.236c0.759-0.026,1.193-0.421,1.269-1.133
			C262.027,355.298,261.974,354.642,261.974,353.741z M262.037,367.09c0.028-0.498-0.302-1.229-1.65-1.151
			c-1.399,0.079-1.408,1.022-1.386,2.02c0.023,1.06,0.269,1.929,1.613,1.855C262.017,369.736,261.966,368.707,262.037,367.09z"/>
		<path fill-rule="evenodd" clip-rule="evenodd" fill="#EED822" d="M661.113,233.032c-0.004,3.074-0.009,6.148-0.014,9.223
			c-0.041,20.204-0.082,40.409-0.123,60.614c-10.292-3.306-20.017-7.891-29.456-13.107c-0.706-0.39-1.275-1.027-1.907-1.55
			c5.137-2.63,8.744-6.607,11.645-11.646c2.835-4.924,2.662-10.037,2.784-15.3c0.095-4.087-0.92-7.75-3.151-11.123
			c-1.051-3.74-4.002-5.896-6.81-8.173c-6.939-6.914-15.699-6.225-24.387-5.839c-17.055,5.537-23.861,18.433-20.142,34.296
			c3.989,17.012,17.742,22.749,34.141,20.203c0.233-0.036,0.402-0.489,0.602-0.748c9.119,5.352,18.328,10.532,28.079,14.677
			c2.888,1.227,5.762,2.487,8.642,3.733c-0.005,19.812-0.083,39.626,0.039,59.438c0.028,4.509-1.95,7.6-5.43,9.973
			c-2.168,1.479-4.713,1.312-7.219,1.311c-43.787-0.02-87.575-0.013-131.362-0.016c-5.991,0-11.981-0.022-17.972-0.034
			c-0.02-48.318-0.049-96.637-0.054-144.954c-0.003-27.658,0.034-55.315,0.054-82.974c4.322-0.012,8.645-0.034,12.968-0.034
			c45.587-0.003,91.175,0.016,136.763-0.036c3.469-0.004,6.506,0.56,9.06,3.152c2.387,2.423,3.195,5.199,3.179,8.542
			c-0.087,17.47-0.051,34.939-0.036,52.409C661.01,221.057,661.076,227.044,661.113,233.032z"/>
		<path fill-rule="evenodd" clip-rule="evenodd" fill="#070707" d="M499.072,151.036c-0.02,27.658-0.057,55.315-0.054,82.974
			c0.005,48.317,0.034,96.636,0.054,144.954c-1.701,0.318-3.399,0.388-5.092-0.05c0-75.942,0-151.886,0-227.828
			C495.674,150.648,497.371,150.718,499.072,151.036z"/>
		<path fill-rule="evenodd" clip-rule="evenodd" fill="#070707" d="M262.048,151.06c-0.024,1.945-0.011,3.893-0.088,5.836
			c-0.042,1.048-0.818,1.217-1.702,1.172c-0.765-0.039-1.197-0.453-1.22-1.171c-0.062-1.944-0.062-3.892-0.086-5.837
			C259.984,150.536,261.016,150.536,262.048,151.06z"/>
		<path fill-rule="evenodd" clip-rule="evenodd" fill="#070707" d="M258.927,379.056c1.049-0.427,2.098-0.427,3.146,0.001
			C261.024,380.605,259.975,380.607,258.927,379.056z"/>
		<path fill-rule="evenodd" clip-rule="evenodd" fill="none" d="M624.295,289.883c-0.199,0.259-0.368,0.712-0.602,0.748
			c-16.398,2.546-30.151-3.191-34.141-20.203c-3.72-15.863,3.087-28.759,20.142-34.296c8.688-0.386,17.447-1.075,24.387,5.839
			c-5.169,2.868-10.84,4.707-15.872,7.885c-2.658,1.678-5.386,3.267-7.688,5.389c-6.924,6.384-6.628,10.633-3.182,17.583
			c2.229,4.498,5.777,8.031,9.636,11.206C619.388,286.018,621.854,287.936,624.295,289.883z"/>
		<path fill-rule="evenodd" clip-rule="evenodd" fill="none" d="M640.891,250.144c2.231,3.373,3.246,7.036,3.151,11.123
			c-0.122,5.263,0.051,10.376-2.784,15.3c-2.9,5.038-6.508,9.016-11.645,11.646c-4.961-2.448-9.229-5.784-12.438-10.296
			c-3.887-5.465-3.367-10.409,1.537-15.021c4.126-3.881,9.052-6.592,14.117-9.036C635.494,252.572,638.202,251.379,640.891,250.144z
			"/>
		<path fill-rule="evenodd" clip-rule="evenodd" fill="#070707" d="M261.976,189.436c0,1.156,0.043,2.314-0.016,3.468
			c-0.037,0.729-0.49,1.132-1.265,1.168c-0.932,0.042-1.652-0.209-1.668-1.269c-0.036-2.478-0.022-4.956-0.017-7.434
			c0.002-1.012,0.538-1.445,1.54-1.426c1.031,0.021,1.442,0.571,1.446,1.527c0.005,1.322,0.001,2.644,0.001,3.965
			C261.991,189.436,261.983,189.436,261.976,189.436z"/>
		<path fill-rule="evenodd" clip-rule="evenodd" fill="#070707" d="M258.999,241.499c0-0.99-0.004-1.98,0.001-2.971
			c0.005-0.926,0.336-1.544,1.39-1.579c0.973-0.032,1.588,0.312,1.594,1.359c0.013,2.146,0.011,4.291-0.002,6.437
			c-0.006,1.066-0.665,1.358-1.614,1.332c-0.762-0.021-1.27-0.392-1.319-1.113c-0.079-1.15-0.021-2.31-0.021-3.465
			C259.018,241.499,259.008,241.499,258.999,241.499z"/>
		<path fill-rule="evenodd" clip-rule="evenodd" fill="#070707" d="M261.932,207.209c0,1.145,0.045,2.292-0.016,3.433
			c-0.039,0.735-0.528,1.111-1.28,1.168c-1.012,0.075-1.57-0.416-1.591-1.378c-0.047-2.128-0.056-4.258,0.003-6.385
			c0.02-0.72,0.562-1.073,1.313-1.094c0.935-0.025,1.6,0.244,1.62,1.308c0.018,0.982,0.004,1.966,0.004,2.948
			C261.968,207.209,261.95,207.209,261.932,207.209z"/>
		<path fill-rule="evenodd" clip-rule="evenodd" fill="#070707" d="M258.919,258.936c0.589-1.3-1.162-3.761,1.484-3.884
			c2.774-0.128,1.503,2.391,1.517,3.694c0.014,1.371,1.186,3.827-1.323,3.946C257.925,262.819,259.42,260.278,258.919,258.936z"/>
		<path fill-rule="evenodd" clip-rule="evenodd" fill="#070707" d="M262.015,291.336c0,0.163,0.021,0.33-0.004,0.49
			c-0.181,1.158,0.565,2.948-1.509,2.949c-2.071,0.001-1.419-1.779-1.494-2.947c-0.083-1.302-0.065-2.621,0.057-3.919
			c0.068-0.722,0.708-0.972,1.434-0.973c0.725,0,1.362,0.246,1.436,0.97c0.114,1.133,0.03,2.285,0.03,3.43
			C261.981,291.336,261.998,291.336,262.015,291.336z"/>
		<path fill-rule="evenodd" clip-rule="evenodd" fill="#070707" d="M261.975,322.949c0,0.817,0.041,1.637-0.011,2.45
			c-0.06,0.941-0.555,1.462-1.566,1.414c-1.054-0.051-1.365-0.751-1.391-1.617c-0.045-1.471-0.003-2.943-0.021-4.415
			c-0.013-1.112,0.252-1.904,1.617-1.836c1.416,0.069,1.396,1.05,1.407,2.042c0.007,0.654,0.001,1.308,0.001,1.962
			C261.999,322.949,261.987,322.949,261.975,322.949z"/>
		<path fill-rule="evenodd" clip-rule="evenodd" fill="#070707" d="M262.014,171.166c-0.524,1.172,1.22,3.742-1.386,3.783
			c-3.056,0.05-1.127-2.732-1.619-4.184c-0.15-0.443-0.032-0.981-0.02-1.476c0.027-1.133-0.216-2.453,1.625-2.335
			c1.834,0.117,1.287,1.525,1.391,2.565C262.055,170.011,262.014,170.509,262.014,171.166z"/>
		<path fill-rule="evenodd" clip-rule="evenodd" fill="#070707" d="M261.988,224.297c-0.003,0.814,0.01,1.63-0.006,2.444
			c-0.02,1.034-0.629,1.367-1.583,1.341c-1.031-0.028-1.391-0.624-1.394-1.544c-0.004-1.467-0.006-2.934,0.023-4.4
			c0.02-1.005,0.608-1.384,1.571-1.356c1.041,0.03,1.366,0.658,1.389,1.56C262.005,222.992,261.991,223.645,261.988,224.297z"/>
		<path fill-rule="evenodd" clip-rule="evenodd" fill="#070707" d="M262.005,339.486c-0.005,0.06,0.001,0.716-0.123,1.347
			c-0.144,0.734-0.707,0.998-1.421,0.984c-0.722-0.014-1.294-0.325-1.354-1.059c-0.104-1.29-0.126-2.591-0.098-3.885
			c0.02-0.931,0.544-1.473,1.528-1.455c0.999,0.019,1.424,0.607,1.462,1.532C262.027,337.599,262.005,338.249,262.005,339.486z"/>
		<path fill-rule="evenodd" clip-rule="evenodd" fill="#070707" d="M261.961,275.182c0,0.65,0.093,1.317-0.024,1.946
			c-0.133,0.717-0.713,0.967-1.436,0.967c-0.723,0.001-1.366-0.25-1.431-0.963c-0.118-1.291-0.061-2.599-0.05-3.898
			c0.008-0.959,0.477-1.465,1.48-1.466c1.005-0.002,1.461,0.505,1.482,1.464c0.014,0.649,0.003,1.3,0.003,1.95
			C261.977,275.182,261.969,275.182,261.961,275.182z"/>
		<path fill-rule="evenodd" clip-rule="evenodd" fill="#070707" d="M261.978,306.727c0,0.853,0.044,1.507-0.01,2.152
			c-0.087,1.042-0.804,1.237-1.7,1.189c-0.766-0.041-1.167-0.449-1.232-1.169c-0.058-0.646-0.132-1.315-0.028-1.946
			c0.202-1.233-0.783-3.324,1.722-3.105C262.732,304.023,261.726,305.829,261.978,306.727z"/>
		<path fill-rule="evenodd" clip-rule="evenodd" fill="#070707" d="M261.974,353.741c0,0.9,0.054,1.557-0.015,2.199
			c-0.075,0.712-0.509,1.106-1.269,1.133c-0.902,0.031-1.6-0.184-1.664-1.236c-0.04-0.648-0.117-1.313-0.021-1.947
			c0.17-1.127-0.688-2.912,1.308-3.043C262.79,350.684,261.719,352.781,261.974,353.741z"/>
		<path fill-rule="evenodd" clip-rule="evenodd" fill="#070707" d="M262.037,367.09c-0.071,1.617-0.02,2.646-1.423,2.724
			c-1.344,0.073-1.59-0.796-1.613-1.855c-0.022-0.997-0.013-1.94,1.386-2.02C261.735,365.861,262.065,366.592,262.037,367.09z"/>
	</g>
</g>
</svg>
