<?xml version="1.0" encoding="utf-8"?>
<!-- Generator: Adobe Illustrator 16.0.3, SVG Export Plug-In . SVG Version: 6.00 Build 0)  -->
<!DOCTYPE svg PUBLIC "-//W3C//DTD SVG 1.1//EN" "http://www.w3.org/Graphics/SVG/1.1/DTD/svg11.dtd">
<svg version="1.1" id="Layer_1" xmlns="http://www.w3.org/2000/svg" xmlns:xlink="http://www.w3.org/1999/xlink" x="0px" y="0px"
	 width="612px" height="792px" viewBox="0 0 612 792" enable-background="new 0 0 612 792" xml:space="preserve">
<g>
	<g>
		<path fill="none" d="M157.874,792.617c-0.001-262.733-0.001-525.467-0.001-788.236c98.469,0,196.94,0,295.459,0
			c0,262.722,0,525.479,0,788.236C354.864,792.617,256.37,792.617,157.874,792.617z M354.702,302.362
			c-2.078-0.143-4.033-0.241-5.98-0.418c-2.998-0.273-6.011-0.478-8.982-0.936c-3.655-0.562-7.112-1.861-10.523-3.277
			c-8.399-3.485-15.909-8.236-21.812-15.27c-4.875-5.808-7.912-12.381-8.283-20.066c-0.287-5.941,1.139-11.449,3.948-16.652
			c3.222-5.966,7.844-10.67,13.31-14.546c9.196-6.523,19.527-10.224,30.622-11.902c1.714-0.259,1.797-0.262,1.803-1.875
			c0.016-4.371-0.021-8.742,0.026-13.113c0.011-1.014-0.369-1.537-1.261-1.968c-3.278-1.586-6.226-3.683-8.926-6.116
			c-7.714-6.948-13.017-15.568-17.211-24.943c-1.985-4.438-3.731-8.978-4.969-13.679c-1.359-5.169-2.752-10.35-3.695-15.604
			c-0.932-5.194-1.52-10.453-1.898-15.742c-0.746-10.42-0.427-20.777,0.854-31.131c0.694-5.623,1.669-11.187,3.031-16.683
			c2.675-10.79,6.475-21.123,12.328-30.642c3.626-5.896,7.896-11.212,13.27-15.625c1.46-1.198,2.757-2.607,4.049-3.994
			c1.188-1.276,1.034-2.857-0.243-4.057c-1.47-1.381-3.264-2.225-5.143-2.77c-3.06-0.888-6.162-1.645-9.275-2.323
			c-5.541-1.207-11.18-1.786-16.828-2.05c-12.801-0.601-25.596-0.64-38.316,1.299c-3.279,0.5-6.587,0.887-9.816,1.617
			c-3.493,0.79-6.745,2.292-9.548,4.573c-1.117,0.909-1.908,2.046-1.357,3.714c0.26,0.788,0.172,1.705,0.172,2.563
			c0.006,79.108,0.006,158.215,0.006,237.323c0,7.818,0.003,15.637-0.006,23.455c-0.001,0.778-0.08,1.555-0.127,2.417
			c-1.867,0-3.555,0-5.4,0c-0.063,0.814-0.159,1.535-0.17,2.257c-0.153,9.905-0.344,19.81-0.428,29.715
			c-0.103,12.188-0.129,24.377-0.16,36.565c-0.082,32.38-0.174,64.761-0.212,97.141c-0.042,35.398-0.035,70.797-0.036,106.195
			c0,28.072,0.011,56.145,0.033,84.217c0.009,11.265,0.033,22.529,0.101,33.794c0.16,26.402,0.343,52.805,0.535,79.207
			c0.048,6.71,0.138,13.42,0.267,20.129c0.04,2.064,0.272,4.126,0.424,6.292c0.39-0.102,0.753-0.143,1.069-0.287
			c2.169-0.994,4.383-1.909,6.481-3.039c5.611-3.022,10.975-6.463,15.989-10.391c5.93-4.646,11.841-9.332,17.52-14.276
			c5.771-5.024,11.324-10.309,16.835-15.62c4.765-4.591,9.382-9.337,13.983-14.093c3.708-3.831,7.344-7.734,10.921-11.688
			c3.292-3.638,6.49-7.36,9.677-11.091c2.787-3.264,5.571-6.533,8.229-9.902c3.266-4.139,6.465-8.334,9.566-12.597
			c2.525-3.471,4.885-7.061,6.734-10.962c0.706-1.489,0.983-2.996,0.918-4.636c-0.34-8.48-0.646-16.963-0.941-25.445
			c-0.226-6.518-0.409-13.036-0.623-19.555c-0.308-9.41-0.627-18.819-0.938-28.229c-0.253-7.627-0.492-15.254-0.752-22.881
			c-0.232-6.826-0.485-13.65-0.728-20.476c-0.072-2.028-0.136-4.057-0.208-6.085c-0.374-10.449-0.771-20.898-1.118-31.349
			c-0.277-8.364-0.484-16.731-0.741-25.096c-0.294-9.597-0.606-19.192-0.914-28.788c-0.235-7.319-0.473-14.639-0.717-21.957
			c-0.241-7.256-0.492-14.512-0.739-21.768c-0.217-6.393-0.432-12.785-0.651-19.178c-0.204-5.898-0.451-11.796-0.611-17.695
			c-0.207-7.568-0.288-15.14-0.529-22.706c-0.264-8.242-0.699-16.479-0.965-24.721c-0.252-7.812-0.368-15.628-0.568-23.442
			C354.974,308.553,354.827,305.606,354.702,302.362z"/>
		<path fill-rule="evenodd" clip-rule="evenodd" d="M354.702,302.362c0.125,3.244,0.271,6.191,0.348,9.14
			c0.2,7.814,0.316,15.63,0.568,23.442c0.266,8.242,0.701,16.479,0.965,24.721c0.241,7.566,0.322,15.138,0.529,22.706
			c0.16,5.899,0.407,11.797,0.611,17.695c0.22,6.393,0.435,12.785,0.651,19.178c0.247,7.256,0.498,14.512,0.739,21.768
			c0.244,7.318,0.481,14.638,0.717,21.957c0.308,9.596,0.62,19.191,0.914,28.788c0.257,8.364,0.464,16.731,0.741,25.096
			c0.347,10.45,0.744,20.899,1.118,31.349c0.072,2.028,0.136,4.057,0.208,6.085c0.242,6.825,0.495,13.649,0.728,20.476
			c0.26,7.627,0.499,15.254,0.752,22.881c0.312,9.41,0.631,18.819,0.938,28.229c0.214,6.519,0.397,13.037,0.623,19.555
			c0.295,8.482,0.602,16.965,0.941,25.445c0.065,1.64-0.212,3.146-0.918,4.636c-1.85,3.901-4.209,7.491-6.734,10.962
			c-3.102,4.263-6.301,8.458-9.566,12.597c-2.657,3.369-5.441,6.639-8.229,9.902c-3.187,3.73-6.385,7.453-9.677,11.091
			c-3.577,3.953-7.213,7.856-10.921,11.688c-4.602,4.756-9.219,9.502-13.983,14.093c-5.512,5.312-11.064,10.596-16.835,15.62
			c-5.679,4.944-11.59,9.631-17.52,14.276c-5.014,3.928-10.378,7.368-15.989,10.391c-2.098,1.13-4.312,2.045-6.481,3.039
			c-0.316,0.145-0.679,0.186-1.069,0.287c-0.152-2.166-0.384-4.228-0.424-6.292c-0.129-6.709-0.219-13.419-0.267-20.129
			c-0.192-26.402-0.375-52.805-0.535-79.207c-0.068-11.265-0.092-22.529-0.101-33.794c-0.022-28.072-0.033-56.145-0.033-84.217
			c0.001-35.398-0.006-70.797,0.036-106.195c0.038-32.38,0.131-64.761,0.212-97.141c0.031-12.188,0.058-24.377,0.16-36.565
			c0.083-9.906,0.274-19.811,0.428-29.715c0.011-0.722,0.107-1.443,0.17-2.257c1.845,0,3.533,0,5.4,0
			c0.047-0.861,0.126-1.639,0.127-2.417c0.009-7.818,0.006-15.637,0.006-23.455c0-79.108,0-158.215-0.006-237.323
			c0-0.858,0.088-1.775-0.172-2.563c-0.551-1.667,0.24-2.805,1.357-3.714c2.803-2.281,6.055-3.783,9.548-4.573
			c3.229-0.73,6.537-1.117,9.816-1.617c12.72-1.939,25.515-1.9,38.316-1.299c5.648,0.265,11.287,0.844,16.828,2.05
			c3.113,0.678,6.216,1.435,9.275,2.323c1.879,0.545,3.673,1.389,5.143,2.77c1.277,1.2,1.431,2.781,0.243,4.057
			c-1.292,1.387-2.589,2.796-4.049,3.994c-5.374,4.412-9.644,9.729-13.27,15.625c-5.854,9.519-9.653,19.852-12.328,30.642
			c-1.362,5.497-2.337,11.06-3.031,16.683c-1.28,10.354-1.6,20.711-0.854,31.131c0.379,5.29,0.967,10.548,1.898,15.742
			c0.943,5.254,2.336,10.435,3.695,15.604c1.237,4.701,2.983,9.241,4.969,13.679c4.194,9.375,9.497,17.996,17.211,24.943
			c2.7,2.433,5.647,4.529,8.926,6.116c0.892,0.432,1.271,0.954,1.261,1.968c-0.048,4.371-0.011,8.742-0.026,13.113
			c-0.006,1.613-0.089,1.616-1.803,1.875c-11.095,1.679-21.426,5.379-30.622,11.902c-5.466,3.876-10.088,8.58-13.31,14.546
			c-2.809,5.203-4.235,10.711-3.948,16.652c0.371,7.686,3.407,14.258,8.283,20.066c5.903,7.034,13.413,11.785,21.812,15.27
			c3.411,1.416,6.868,2.714,10.523,3.277c2.972,0.458,5.984,0.663,8.982,0.936C350.669,302.121,352.624,302.22,354.702,302.362z
			 M282.331,40.37c0.188,5.858,4.588,10.208,10.229,10.188c5.938-0.021,10.277-4.333,10.288-10.287
			c0.011-5.925-4.705-10.209-10.374-10.188C287.173,30.104,282.384,34.489,282.331,40.37z"/>
		<path fill-rule="evenodd" clip-rule="evenodd" fill="none" d="M282.331,40.37c0.053-5.881,4.842-10.266,10.143-10.286
			c5.669-0.021,10.385,4.262,10.374,10.188c-0.01,5.954-4.35,10.266-10.288,10.287C286.919,50.579,282.52,46.229,282.331,40.37z"/>
	</g>
</g>
</svg>
