<?xml version="1.0" encoding="utf-8"?>
<!-- Generator: Adobe Illustrator 16.0.0, SVG Export Plug-In . SVG Version: 6.00 Build 0)  -->
<!DOCTYPE svg PUBLIC "-//W3C//DTD SVG 1.1//EN" "http://www.w3.org/Graphics/SVG/1.1/DTD/svg11.dtd">
<svg version="1.1" id="Layer_1" xmlns="http://www.w3.org/2000/svg" xmlns:xlink="http://www.w3.org/1999/xlink" x="0px" y="0px"
	 width="1945.667px" height="152px" viewBox="0 0 1945.667 152" enable-background="new 0 0 1945.667 152" xml:space="preserve">
<text transform="matrix(1 0 0 1 298.0278 82)" font-family="'Verdana'" font-size="48">of human trafficking often suffer serious physical and mental issues</text>
<g>
	<g>
		<path fill-rule="evenodd" clip-rule="evenodd" fill="none" d="M133.876-14.037c49.316-5.271,98.634-10.516,147.938-15.898
			c2.301-0.252,2.783,0.232,3.085,3.102c4.767,45.51,9.642,91.008,14.572,136.5c0.233,2.15-0.043,2.585-1.769,2.763
			c-28.095,2.914-56.177,5.941-84.263,8.943c-69.661,7.446-139.322,14.893-208.982,22.339c-1.548,0.166-3.117,0.211-4.637,0.537
			c-1.143,0.243-1.462-0.105-1.545-1.553c-0.142-2.485-0.497-4.964-0.762-7.446C-7.144,91.682-11.784,48.11-16.509,4.548
			c-0.233-2.15,0.045-2.581,1.769-2.762C34.805-3.432,84.34-8.742,133.876-14.037z M183.896,96.083
			c0.261,1.96,1.524,1.975,2.219,1.163c0.782-0.913,1.038-2.52,1.522-3.826c-0.923-0.263-1.845-0.525-2.769-0.788
			c-0.527-4.931-1.069-9.86-1.575-14.792c-0.296-2.886-1.077-5.85,0.428-8.497c-2.962-4.731-2.004-10.407-3.042-15.602
			c-0.191-0.957-0.623-2.218-1.235-2.636c-1.91-1.299-2.071-3.354-2.332-5.573c-0.2-1.708-2.364-2.9-3.369-1.859
			c-0.772,0.8-1.918,2.312-1.71,3.067c1.013,3.688-0.782,6.071-1.861,8.819c-1.271,3.239-1.107,6.538,0.137,9.877
			c1.705,4.582,3.415,9.109,3.826,14.219c0.486,6.05,3.129,11.443,4.505,17.243c0.453,1.911,1.429,1.491,2.481,0.679
			C181.968,96.928,182.966,96.57,183.896,96.083z M69.697,94.902c-0.527-4.931-1.07-9.86-1.575-14.792
			c-0.295-2.886-1.076-5.85,0.428-8.497c-2.962-4.731-2.003-10.407-3.042-15.602c-0.191-0.957-0.622-2.218-1.235-2.636
			c-1.91-1.299-2.071-3.354-2.332-5.574c-0.201-1.706-2.364-2.9-3.369-1.858c-0.771,0.8-1.919,2.313-1.711,3.067
			c1.014,3.688-0.781,6.071-1.861,8.819c-1.271,3.239-1.106,6.537,0.137,9.877c1.706,4.582,3.417,9.109,3.826,14.219
			c0.486,6.05,3.13,11.443,4.506,17.243c0.454,1.91,1.429,1.491,2.482,0.679c0.845-0.649,1.843-1.008,2.773-1.494
			c0.261,1.959,1.524,1.975,2.219,1.163c0.783-0.913,1.038-2.52,1.522-3.826C71.542,95.428,70.619,95.165,69.697,94.902z
			 M247.152,8.997c-2.874,0.307-5.82,0.274-8.594,1.051c-1.627,0.456-3.733,1.762-4.311,3.441
			c-1.867,5.444-2.239,16.39-0.271,21.892c0.951,2.658,1.081,6.547,3.947,7.978c2.917,1.455,5.824,3.451,8.823,3.932
			c1.912,0.307,3.336,0.815,4.715,2.32c2.51,2.74,5.702,3.556,8.688,4.726c1.552,0.607,3.441-0.696,4.864,1.505
			c2.099,3.253-1.563,3.877-1.528,6.071c0.036,2.233-0.722,3.851-2.34,4.076c-3.021,0.421-5.315,2.944-8.02,3.725
			c-3.626,1.046-6.878,4.698-10.914,2.962c-2.943-1.266-5.315-1.618-7.745,1.07c-0.563,0.624-2.94,2-3.526-1.515
			c-0.334-2.002-1.872-1.114-2.761-0.846c-0.49,0.149-0.969,1.414-1.017,2.241c-0.284,4.899,2.596,8.278,4.486,12.051
			c1.033,2.061,2.859,2.363,4.627,1.032c0.857-0.646,1.807-1.366,2.78-1.488c6.178-0.767,12.365-1.487,18.57-1.963
			c1.601-0.122,3.284,0.923,4.927,1.007c1.771,0.092,3.533-0.376,5.307-0.49c3.281-0.212,5.838-2.329,7.114-5.629
			c2.892-7.485,5.004-15.151,1.702-23.981c-2.138-5.714-1.867-6.564-3.48-7.73c-2.208-1.594-4.473-3.601-6.844-4.098
			c-1.472-0.309-3.169,1.901-4.813,2.866c-0.304,0.179-1.19-0.169-1.198-0.294c-0.112-1.918-1.05-1.731-2.248-2.049
			c-3.058-0.814-5.978-1.837-8.915-3.963c-2.966-2.146-3.136-5.998-5.241-8.041c-3.078-2.988,0.309-5.904-0.774-8.709
			c-0.043-0.11,0.853-0.906,1.387-1.127c1.183-0.49,2.521-0.576,3.606-1.257c3.401-2.133,6.886-3.674,10.847-3.709
			c4.079-0.036,8.071-1.537,12.255,0.314c1.553,0.687,2.313-0.94,1.775-2.968c-0.81-3.043-4.219-4.221-3.917-8.042
			c-3.021,0.472-6.151-3.5-9.1-0.184c-2.491,2.803-5.612,3.338-8.885,3.415C249.801,8.621,248.479,8.855,247.152,8.997z
			 M107.722,85.817c-2.321,0.038-4.832,1.617-6.769-1.565c-1.539-2.53-3.733-3.989-5.727-5.811
			c-3.081-2.815-2.997-4.606-0.338-8.542c0.725-1.075,1.083-2.776,1.159-4.252c0.237-4.665-1.306-8.991-3.157-12.9
			c-0.898-1.895-0.85-1.762,0.54-2.293c1.129-0.432,2.075-1.513,3.106-2.3c0.434-0.333,0.956-1.042,1.303-0.916
			c3.502,1.281,7.108,0.832,10.625,1.693c1.428,0.349,2.834,0.987,4.265,1.168c2.721,0.347,4.915,3.23,7.882,2.689
			c0.706-0.129,1.776,1.423,2.526,2.384c1.741,2.232,2.674,2.324,3.42,0.144c0.756-2.208,0.323-7.353-1.089-8.095
			c-2.042-1.073-3.313-3.406-5.403-4.319c-5.543-2.421-11.467-3.397-16.333-8.417c-1.644-1.696-4.274-1.895-6.453-2.777
			c-1.583,3.456-6.304,0.708-7.266,5.391c-3.287,1.473-4.397,5.59-6.594,8.387c-2.848,3.625-3.272,8.24-2.828,13.135
			c0.326,3.582,1.43,7.335,0.974,10.69c-0.642,4.728-1.146,8.738,2.72,11.976c0.482,0.404,0.202,2.129,0.432,3.199
			c0.153,0.713,0.469,1.725,0.913,1.962c5.77,3.085,10.672,8.13,16.242,11.601c1.624,1.012,3.747,2.415,5.556-0.402
			c1.087-1.693,2.965-2.569,4.422-3.92c2.523-2.34,5.791-3.27,8.486-2.262c2.323,0.868,4.645,0.089,6.814,1.382
			c0.364,0.217,0.904-0.056,1.363-0.102c-0.627-2.557,0.821-2.354,2.134-2.768c1.304-0.413,2.904-5.215,2.019-6.1
			c-1.771-1.771-1.257-3.985-1.743-5.999c-0.106-0.438-0.59-1.108-0.833-1.079c-0.591,0.071-1.407,0.276-1.67,0.799
			c-3.374,6.692-5.636,7.938-11.664,6.341c-1.029-0.273-2.636-0.895-3.047-0.321C112.042,85.954,109.793,85.423,107.722,85.817z
			 M134.168,14.361c-3.626,0.839-8.146-1.118-9.562,5.224c-0.134,0.6-1.429,0.917-2.229,1.033c-1.327,0.191-2.279,1.031-3.389,1.751
			c-1.373,0.891-2.139,1.378-1.659,3.361c0.679,2.812,2.516,5.083,4.011,5.091c4.741,0.027,9.482,0.072,14.224,0.2
			c0.261,0.006,0.838,0.946,0.765,1.224c-1.3,4.97,1.803,8.882,2.646,13.315c0.595,3.126,1.92,5.882,0.469,9.079
			c-0.556,1.226-0.092,2.304,1.5,2.616c2.286,0.447,3.153,2.6,3.159,5.395c0.015,9.349,3.33,18.105,4.295,27.295
			c0.054,0.516,0.827,1.323,1.251,1.333c0.476,0.014,1.233-0.612,1.353-1.159c0.532-2.437,0.754-4.998,1.349-7.403
			c0.292-1.188,1.083-2.361,2.263-0.597c1.1,1.645,2.206,3.288,3.393,4.831c0.207,0.269,1.011,0.26,1.213-0.005
			c0.225-0.292,0.246-1.138,0.061-1.553c-1.5-3.366-2.773-6.558-1.959-10.668c0.418-2.11-0.119-5.161-1.14-7.059
			c-1.928-3.587-1.134-7.46-1.999-11.087c2.353-3.189,1.02-7.293,0.029-10.107c-1.657-4.694-2.127-9.389-2.57-14.175
			c-0.179-1.933-0.991-2.933-2.063-4.001c-0.408-0.407-0.64-1.092-0.952-1.65c0.38-0.181,0.748-0.48,1.146-0.526
			c3.534-0.41,7.099-0.601,10.606-1.195c5.045-0.854,5.954-3.576,3.242-9.043c-1.569-3.164-2.066-3.62-4.292-1.975
			c-3.978,2.936-8.587,1.308-12.78,2.499C142.603,12.242,138.254,14.18,134.168,14.361z M8.057,47.942
			c-2.21,0.157-2.344,0.272-2.129,2.7C6.171,53.4,5.78,56.85,6.984,58.725c1.47,2.288,1.333,4.508,1.892,6.776
			c0.552,2.245,1.442,4.381,1.995,6.624c0.812,3.299-0.184,7.177,2.426,9.904c-2.038,3.375,0.426,6.364,1.1,9.338
			c1.627,7.182,3.956,14.033,10.477,16.773c1.35,3.913,5.784,1.127,7.249,5.556c0.463,1.401,3.316-0.493,2.998-2.71
			c-0.561-3.899,1.021-5.973,3.326-7.74c1.377-1.056,2.546-2.653,4.031-3.326c1.707-0.776,2.088-1.716,1.897-3.994
			c-0.539-6.414-2.292-12.796-0.891-19.316c0.332-1.545-0.396-3.737-1.066-5.38c-1.994-4.886-2.217-9.76-0.708-14.574
			c0.827-2.634,2.138-4.989,1.572-8.114c-0.451-2.49-4.667-6.103-6.408-5.317c-0.328,0.147-0.725,0.711-0.734,1.115
			c-0.079,3.944-0.116,7.894-0.092,11.845c0.01,1.62,0.525,3.363,0.245,4.854c-0.694,3.681-1.717,7.249-2.607,10.862
			c2.863,3.758-0.569,6.903-0.519,10.466c0.029,2.087-0.52,4.533-0.302,6.9c0.366,3.968,1.182,7.927-0.866,11.573
			c-0.686,1.221-0.672,3.065-0.979,4.626c-0.319-1.559-0.688-3.106-0.941-4.678c-0.221-1.362-0.186-2.789-0.501-4.113
			c-0.205-0.857-0.757-2.122-1.294-2.277c-3.464-1.006-4.931-4.301-5.759-7.906c-0.824-3.588-1.435-7.376-1.387-11.017
			c0.02-1.471,0.395-2.35-0.31-4.097c-1.98-4.915-3.391-10.167-4.925-15.327C14.41,51.018,11.295,47.711,8.057,47.942z
			 M203.638,54.791c-0.259-2.424-0.375-3.25-0.431-4.077c-0.184-2.706-0.348-5.413-0.519-8.121c1.446,1.715,2.892,3.432,4.342,5.143
			c0.165,0.195,0.39,0.324,0.524,0.542c1.18,1.912,2.835,1.913,4.186,1.149c0.487-0.274,0.311-2.408,0.301-3.698
			c-0.008-1.097-0.284-2.207-0.295-3.304c-0.004-0.429,0.364-1.176,0.614-1.195c0.594-0.044,1.416,0.014,1.788,0.474
			c0.731,0.909,1.61,2.068,1.748,3.212c1.04,8.612,5.403,16.841,2.938,25.898c-0.203,0.748,0.391,2.609,0.854,2.78
			c1.004,0.373,2.161-0.069,3.26-0.084c1.745-0.02,1.152-1.748,1.345-2.891c0.25-1.489,0.689-2.986,0.65-4.487
			c-0.207-7.808-2.887-15.573-1.146-23.432c0.107-0.485,0.07-1.349-0.181-1.605c-2.702-2.749-1.861-6.604-2.313-9.965
			c-0.617-4.59-2.815-8.182-4.628-12.019c-0.955-2.02-2.884-2.187-4.124-1.248c-1.002,0.76-2.769,2.163-1.307,4.557
			c0.266,0.437,1.009,1.031,1.006,1.037c-2.551,4.106-0.981,9.609-2.598,13.988c-0.554,1.5-1.217,3.787-2.148,4.004
			c-1.414,0.328-2.683-1.202-3.049-3.485c-0.189-1.174-1.169-2.162-1.608-3.329c-0.998-2.651-2.187-5.143-2.343-8.251
			c-0.137-2.77-2.126-4.074-4.255-3.595c-2.203,0.496-1.343,2.891-0.882,3.795c0.991,1.942-1.877,3.122-0.154,4.836
			c-0.741,4.122,0.808,8.726-0.933,12.53c-0.885,1.938-0.526,2.725,0.208,4.751c1.664,4.596,2.649,9.674,3.246,14.64
			c0.532,4.439,0.399,9.029,0.071,13.47c-0.102,1.377-1.424,2.878-0.663,4.386c0.661,1.309,2.351,1.937,2.862,3.263
			c0.947,2.461,2.264,1.067,3.375,1.105c1.048,0.036,3.008-0.466,2.995-0.684c-0.148-2.592-0.591-5.174-0.957-7.758
			c-3.848-0.151-2.833-4.252-2.346-5.848C204.906,65.289,204.268,59.299,203.638,54.791z M53.394,30.267
			c0.176,1.646,0.139,3.378,0.59,4.914c0.415,1.412,1.191,2.9,2.143,3.774c0.407,0.374,1.667-0.726,2.539-1.155
			c1.696-0.835,3.33-2.015,5.106-2.415c2.019-0.455,3.436-1.626,3.067-4.061c-0.543-3.585,0.564-7.854-2.622-10.54
			c-0.473-0.398-1.22-0.383-1.833-0.382c-0.884,0.001-1.759,0.195-2.642,0.254C53.286,21.082,52.009,20.945,53.394,30.267z
			 M168.559,27.932c0.235,2.195,0.353,4.416,0.742,6.577c0.284,1.567,2.935,3.231,3.64,2.273c1.965-2.667,4.498-3.251,7.214-4.063
			c2.69-0.804,1.96-4.197,1.6-6.908c-0.384-2.898,0.046-6.39-2.861-7.717c-1.146-0.523-2.607,0.193-3.929,0.287
			C168.616,18.829,167.144,18.5,168.559,27.932z"/>
		<path fill-rule="evenodd" clip-rule="evenodd" fill="#050505" d="M247.152,8.997c1.327-0.142,2.649-0.376,3.981-0.408
			c3.272-0.077,6.394-0.612,8.885-3.415c2.948-3.316,6.079,0.655,9.1,0.184c-0.302,3.821,3.107,5,3.917,8.042
			c0.538,2.028-0.223,3.655-1.775,2.968c-4.184-1.851-8.176-0.351-12.255-0.314c-3.961,0.035-7.445,1.576-10.847,3.709
			c-1.086,0.681-2.424,0.767-3.606,1.257c-0.534,0.221-1.43,1.017-1.387,1.127c1.083,2.806-2.304,5.721,0.774,8.709
			c2.105,2.043,2.275,5.895,5.241,8.041c2.938,2.126,5.857,3.149,8.915,3.963c1.198,0.318,2.136,0.131,2.248,2.049
			c0.008,0.125,0.895,0.473,1.198,0.294c1.644-0.965,3.341-3.175,4.813-2.866c2.371,0.497,4.636,2.503,6.844,4.098
			c1.613,1.166,1.343,2.017,3.48,7.73c3.302,8.83,1.189,16.496-1.702,23.981c-1.276,3.3-3.833,5.417-7.114,5.629
			c-1.773,0.114-3.536,0.582-5.307,0.49c-1.643-0.084-3.326-1.129-4.927-1.007c-6.205,0.476-12.393,1.196-18.57,1.963
			c-0.974,0.122-1.923,0.843-2.78,1.488c-1.768,1.331-3.594,1.028-4.627-1.032c-1.891-3.773-4.771-7.152-4.486-12.051
			c0.048-0.827,0.526-2.092,1.017-2.241c0.889-0.268,2.427-1.157,2.761,0.846c0.586,3.515,2.963,2.139,3.526,1.515
			c2.43-2.688,4.802-2.335,7.745-1.07c4.036,1.736,7.288-1.916,10.914-2.962c2.704-0.781,4.998-3.304,8.02-3.725
			c1.618-0.226,2.376-1.843,2.34-4.076c-0.035-2.194,3.627-2.817,1.528-6.071c-1.423-2.201-3.313-0.898-4.864-1.505
			c-2.986-1.169-6.179-1.985-8.688-4.726c-1.379-1.505-2.803-2.013-4.715-2.32c-2.999-0.48-5.906-2.477-8.823-3.932
			c-2.866-1.431-2.996-5.32-3.947-7.978c-1.969-5.502-1.597-16.448,0.271-21.892c0.577-1.679,2.684-2.985,4.311-3.441
			C241.332,9.271,244.278,9.304,247.152,8.997z"/>
		<path fill-rule="evenodd" clip-rule="evenodd" fill="#080707" d="M107.722,85.817c2.072-0.395,4.32,0.137,5.989-2.197
			c0.412-0.573,2.018,0.048,3.047,0.321c6.028,1.598,8.29,0.352,11.664-6.341c0.264-0.522,1.079-0.728,1.67-0.799
			c0.242-0.029,0.727,0.641,0.833,1.079c0.486,2.014-0.028,4.228,1.743,5.999c0.885,0.885-0.714,5.687-2.019,6.1
			c-1.313,0.414-2.761,0.211-2.134,2.768c-0.459,0.046-0.999,0.318-1.363,0.102c-2.169-1.293-4.491-0.514-6.814-1.382
			c-2.696-1.008-5.963-0.078-8.486,2.262c-1.458,1.351-3.335,2.227-4.422,3.92c-1.809,2.817-3.933,1.414-5.556,0.402
			c-5.57-3.471-10.472-8.516-16.242-11.601c-0.444-0.237-0.76-1.249-0.913-1.962c-0.23-1.07,0.05-2.795-0.432-3.199
			c-3.867-3.237-3.362-7.248-2.72-11.976c0.456-3.354-0.648-7.108-0.974-10.69c-0.445-4.896-0.021-9.51,2.828-13.135
			c2.197-2.797,3.308-6.914,6.594-8.387c0.962-4.684,5.683-1.935,7.266-5.391c2.178,0.883,4.809,1.081,6.453,2.777
			c4.866,5.019,10.79,5.996,16.333,8.417c2.09,0.913,3.361,3.246,5.403,4.319c1.412,0.743,1.845,5.887,1.089,8.095
			c-0.746,2.18-1.68,2.088-3.42-0.144c-0.75-0.961-1.82-2.514-2.526-2.384c-2.967,0.541-5.161-2.342-7.882-2.689
			c-1.431-0.182-2.837-0.819-4.265-1.168c-3.517-0.861-7.123-0.412-10.625-1.693c-0.348-0.126-0.869,0.583-1.303,0.916
			c-1.031,0.787-1.977,1.868-3.106,2.3c-1.39,0.531-1.438,0.398-0.54,2.293c1.852,3.909,3.394,8.235,3.157,12.9
			c-0.075,1.476-0.434,3.177-1.159,4.252c-2.659,3.935-2.743,5.727,0.338,8.542c1.994,1.821,4.188,3.28,5.727,5.811
			C102.89,87.435,105.401,85.855,107.722,85.817z M90.551,60.908c-0.59,0.063-0.989,0.08-0.989,0.109
			c0.041,2.021,0.114,4.042,0.183,6.064c0.437-0.239,1.168-0.355,1.259-0.739c0.338-1.412,0.565-2.904,0.599-4.386
			C91.613,61.572,90.767,61.11,90.551,60.908z M87.399,66.765c-1.025-0.807-1.718-1.447-2.481-1.88
			c-0.163-0.092-0.867,0.797-0.837,0.853c0.682,1.275,1.43,2.498,2.165,3.73C86.554,68.745,86.863,68.022,87.399,66.765z"/>
		<path fill-rule="evenodd" clip-rule="evenodd" fill="#080707" d="M134.168,14.361c4.086-0.181,8.435-2.119,12.376,2.043
			c4.192-1.19,8.802,0.438,12.78-2.499c2.227-1.645,2.724-1.188,4.292,1.975c2.712,5.467,1.803,8.189-3.242,9.043
			c-3.507,0.594-7.072,0.785-10.606,1.195c-0.397,0.046-0.765,0.345-1.146,0.526c0.313,0.558,0.544,1.243,0.952,1.65
			c1.072,1.069,1.884,2.069,2.063,4.001c0.443,4.786,0.914,9.48,2.57,14.175c0.991,2.814,2.324,6.918-0.029,10.107
			c0.865,3.627,0.071,7.5,1.999,11.087c1.021,1.898,1.558,4.949,1.14,7.059c-0.813,4.11,0.459,7.302,1.959,10.668
			c0.185,0.415,0.164,1.261-0.061,1.553c-0.202,0.265-1.006,0.273-1.213,0.005c-1.187-1.543-2.293-3.187-3.393-4.831
			c-1.18-1.765-1.97-0.592-2.263,0.597c-0.595,2.405-0.816,4.967-1.349,7.403c-0.12,0.547-0.877,1.173-1.353,1.159
			c-0.424-0.01-1.198-0.817-1.251-1.333c-0.965-9.189-4.28-17.946-4.295-27.295c-0.005-2.795-0.873-4.948-3.159-5.395
			c-1.592-0.312-2.055-1.39-1.5-2.616c1.451-3.197,0.126-5.953-0.469-9.079c-0.843-4.434-3.946-8.345-2.646-13.315
			c0.073-0.278-0.504-1.218-0.765-1.224c-4.742-0.127-9.483-0.173-14.224-0.2c-1.495-0.008-3.332-2.279-4.011-5.091
			c-0.479-1.983,0.287-2.47,1.659-3.361c1.11-0.72,2.063-1.561,3.389-1.751c0.8-0.115,2.095-0.433,2.229-1.033
			C126.022,13.243,130.542,15.2,134.168,14.361z"/>
		<path fill-rule="evenodd" clip-rule="evenodd" fill="#050505" d="M8.057,47.942c3.238-0.23,6.353,3.076,7.847,8.107
			c1.534,5.16,2.945,10.412,4.925,15.327c0.705,1.747,0.33,2.625,0.31,4.097c-0.048,3.641,0.563,7.429,1.387,11.017
			c0.829,3.605,2.295,6.9,5.759,7.906c0.537,0.155,1.089,1.42,1.294,2.277c0.316,1.324,0.281,2.751,0.501,4.113
			c0.253,1.571,0.622,3.119,0.941,4.678c0.306-1.561,0.292-3.405,0.979-4.626c2.048-3.646,1.232-7.605,0.866-11.573
			c-0.218-2.367,0.331-4.813,0.302-6.9c-0.05-3.563,3.382-6.708,0.519-10.466c0.89-3.613,1.913-7.181,2.607-10.862
			c0.281-1.491-0.234-3.233-0.245-4.854c-0.024-3.951,0.013-7.9,0.092-11.845c0.009-0.404,0.406-0.968,0.734-1.115
			c1.741-0.785,5.957,2.828,6.408,5.317c0.566,3.125-0.745,5.48-1.572,8.114c-1.509,4.814-1.287,9.688,0.708,14.574
			c0.67,1.643,1.397,3.834,1.066,5.38c-1.401,6.521,0.352,12.902,0.891,19.316c0.191,2.278-0.19,3.218-1.897,3.994
			c-1.485,0.673-2.654,2.271-4.031,3.326c-2.305,1.768-3.887,3.841-3.326,7.74c0.318,2.217-2.535,4.111-2.998,2.71
			c-1.465-4.429-5.899-1.643-7.249-5.556c-6.521-2.74-8.85-9.592-10.477-16.773c-0.674-2.974-3.138-5.963-1.1-9.338
			c-2.61-2.727-1.614-6.604-2.426-9.904c-0.553-2.243-1.443-4.379-1.995-6.624c-0.558-2.268-0.421-4.488-1.892-6.776
			C5.78,56.85,6.171,53.4,5.928,50.642C5.713,48.214,5.847,48.099,8.057,47.942z"/>
		<path fill-rule="evenodd" clip-rule="evenodd" fill="#050505" d="M203.638,54.791c0.63,4.508,1.268,10.498-0.563,16.491
			c-0.487,1.596-1.502,5.697,2.346,5.848c0.366,2.584,0.809,5.166,0.957,7.758c0.013,0.218-1.947,0.72-2.995,0.684
			c-1.111-0.038-2.428,1.355-3.375-1.105c-0.512-1.326-2.201-1.954-2.862-3.263c-0.761-1.508,0.562-3.009,0.663-4.386
			c0.328-4.441,0.461-9.031-0.071-13.47c-0.597-4.966-1.582-10.044-3.246-14.64c-0.734-2.026-1.093-2.813-0.208-4.751
			c1.74-3.804,0.191-8.409,0.933-12.53c-1.723-1.715,1.146-2.894,0.154-4.836c-0.461-0.904-1.321-3.299,0.882-3.795
			c2.129-0.479,4.118,0.825,4.255,3.595c0.156,3.108,1.345,5.601,2.343,8.251c0.439,1.167,1.419,2.154,1.608,3.329
			c0.366,2.283,1.635,3.813,3.049,3.485c0.932-0.217,1.595-2.504,2.148-4.004c1.616-4.379,0.047-9.882,2.598-13.988
			c0.003-0.006-0.74-0.601-1.006-1.037c-1.462-2.395,0.305-3.797,1.307-4.557c1.24-0.939,3.169-0.772,4.124,1.248
			c1.813,3.836,4.011,7.429,4.628,12.019c0.451,3.361-0.39,7.216,2.313,9.965c0.251,0.256,0.288,1.12,0.181,1.605
			c-1.741,7.859,0.938,15.624,1.146,23.432c0.039,1.501-0.4,2.998-0.65,4.487c-0.192,1.143,0.4,2.871-1.345,2.891
			c-1.099,0.015-2.256,0.457-3.26,0.084c-0.464-0.171-1.058-2.033-0.854-2.78c2.466-9.057-1.897-17.286-2.938-25.898
			c-0.138-1.144-1.017-2.304-1.748-3.212c-0.372-0.46-1.194-0.518-1.788-0.474c-0.25,0.019-0.618,0.766-0.614,1.195
			c0.011,1.097,0.287,2.207,0.295,3.304c0.01,1.29,0.187,3.423-0.301,3.698c-1.351,0.764-3.006,0.762-4.186-1.149
			c-0.135-0.218-0.359-0.347-0.524-0.542c-1.45-1.711-2.896-3.428-4.342-5.143c0.171,2.708,0.335,5.415,0.519,8.121
			C203.263,51.542,203.379,52.367,203.638,54.791z"/>
		<path fill-rule="evenodd" clip-rule="evenodd" fill="#050505" d="M68.724,98.354c-0.93,0.486-1.928,0.845-2.773,1.494
			c-1.053,0.813-2.028,1.231-2.482-0.679c-1.376-5.8-4.02-11.193-4.506-17.243c-0.41-5.11-2.12-9.638-3.826-14.219
			c-1.243-3.34-1.408-6.638-0.137-9.877c1.08-2.748,2.875-5.131,1.861-8.819c-0.208-0.755,0.939-2.268,1.711-3.067
			c1.005-1.042,3.168,0.152,3.369,1.858c0.26,2.22,0.421,4.275,2.332,5.574c0.613,0.418,1.044,1.68,1.235,2.636
			c1.039,5.195,0.08,10.871,3.042,15.602c-1.504,2.646-0.723,5.611-0.428,8.497c0.505,4.932,1.048,9.861,1.575,14.792
			C67.727,95.256,68.79,97.078,68.724,98.354z"/>
		<path fill-rule="evenodd" clip-rule="evenodd" fill="#050505" d="M183.896,96.083c-0.929,0.487-1.928,0.845-2.773,1.494
			c-1.052,0.813-2.028,1.232-2.481-0.679c-1.376-5.8-4.02-11.193-4.505-17.243c-0.411-5.11-2.122-9.638-3.826-14.219
			c-1.244-3.339-1.408-6.638-0.137-9.877c1.079-2.748,2.874-5.131,1.861-8.819c-0.208-0.756,0.938-2.267,1.71-3.067
			c1.005-1.041,3.169,0.152,3.369,1.859c0.261,2.219,0.422,4.274,2.332,5.573c0.612,0.418,1.043,1.68,1.235,2.636
			c1.039,5.195,0.081,10.871,3.042,15.602c-1.505,2.646-0.724,5.611-0.428,8.497c0.505,4.932,1.048,9.861,1.575,14.792
			C182.899,92.985,183.961,94.808,183.896,96.083z"/>
		<path fill-rule="evenodd" clip-rule="evenodd" fill="#080707" d="M53.394,30.267c-1.385-9.322-0.108-9.185,6.347-9.609
			c0.883-0.059,1.758-0.252,2.642-0.254c0.613-0.001,1.36-0.016,1.833,0.382c3.186,2.685,2.078,6.954,2.622,10.54
			c0.369,2.434-1.048,3.605-3.067,4.061c-1.776,0.4-3.41,1.58-5.106,2.415c-0.872,0.43-2.131,1.529-2.539,1.155
			c-0.952-0.875-1.728-2.362-2.143-3.774C53.532,33.645,53.569,31.914,53.394,30.267z"/>
		<path fill-rule="evenodd" clip-rule="evenodd" fill="#080707" d="M168.559,27.932c-1.415-9.432,0.057-9.103,6.406-9.551
			c1.321-0.093,2.782-0.81,3.929-0.287c2.907,1.327,2.477,4.819,2.861,7.717c0.36,2.711,1.09,6.104-1.6,6.908
			c-2.717,0.811-5.249,1.396-7.214,4.063c-0.705,0.958-3.356-0.706-3.64-2.273C168.911,32.348,168.793,30.127,168.559,27.932z"/>
		<path fill-rule="evenodd" clip-rule="evenodd" fill="#080707" d="M68.724,98.354c0.066-1.275-0.997-3.098,0.973-3.451
			c0.922,0.263,1.846,0.525,2.768,0.788c-0.485,1.307-0.74,2.913-1.522,3.826C70.248,100.328,68.985,100.313,68.724,98.354z"/>
		<path fill-rule="evenodd" clip-rule="evenodd" fill="#080707" d="M183.896,96.083c0.066-1.275-0.997-3.098,0.973-3.451
			c0.924,0.263,1.846,0.525,2.769,0.788c-0.484,1.307-0.74,2.913-1.522,3.826C185.42,98.058,184.156,98.043,183.896,96.083z"/>
		<path fill-rule="evenodd" clip-rule="evenodd" fill="none" d="M90.551,60.908c0.215,0.203,1.062,0.665,1.053,1.048
			c-0.034,1.482-0.261,2.974-0.599,4.386c-0.091,0.384-0.822,0.5-1.259,0.739c-0.069-2.022-0.143-4.044-0.183-6.064
			C89.562,60.987,89.961,60.971,90.551,60.908z"/>
		<path fill-rule="evenodd" clip-rule="evenodd" fill="none" d="M87.399,66.765c-0.536,1.257-0.845,1.979-1.154,2.702
			c-0.735-1.232-1.483-2.455-2.165-3.73c-0.029-0.056,0.675-0.945,0.837-0.853C85.681,65.318,86.374,65.958,87.399,66.765z"/>
	</g>
</g>
</svg>
