<?xml version="1.0" encoding="utf-8"?>
<!-- Generator: Adobe Illustrator 16.0.3, SVG Export Plug-In . SVG Version: 6.00 Build 0)  -->
<!DOCTYPE svg PUBLIC "-//W3C//DTD SVG 1.1//EN" "http://www.w3.org/Graphics/SVG/1.1/DTD/svg11.dtd">
<svg version="1.1" id="Layer_1" xmlns="http://www.w3.org/2000/svg" xmlns:xlink="http://www.w3.org/1999/xlink" x="0px" y="0px"
	 width="1041px" height="1035px" viewBox="-259.5 -155.5 1041 1035" enable-background="new -259.5 -155.5 1041 1035"
	 xml:space="preserve">
<g>
	<g>
		<path fill="none" d="M517.91,587.453c0,67.772-0.005,135.547,0.034,203.321c0.001,1.372-0.31,1.683-1.683,1.682
			c-38.126-0.044-76.253-0.035-114.379-0.035c0.093-1.826-1.315-1.059-2.053-1.059c-131.948-0.034-263.895-0.033-395.842-0.033
			c-2.531,0-2.532,0-2.532-2.491c0-261.637,0-523.274,0-784.912c0-2.468,0-2.468,2.542-2.468c170.073,0,340.146,0,510.22,0
			c2.6,0,2.6,0,2.6,2.596c0,192.522,0,385.044,0,577.566c0,0.609-0.105,1.243,0.021,1.825
			C517.137,584.794,517.547,586.118,517.91,587.453z M16.981,699.968c0.703,4.558,0.053,8.812,1.255,12.985
			c0.607,2.109,0.708,4.405,0.769,6.624c0.117,4.229,0.111,8.438,1.062,12.622c0.502,2.209,0.292,4.575,0.44,6.868
			c0.23,3.557,0.499,7.109,0.735,10.667c0.136,2.049,0.233,4.102,0.362,6.15c0.091,1.45,0.985,1.924,2.229,1.269
			c1.099-0.579,2.207-1.189,3.382-1.555c0.851-0.265,1.357-0.507,1.754-1.433c0.716-1.671,1.748-3.094,4.047-2.802
			c1.01,0.129,2.765-0.042,3.007-0.595c0.521-1.183,1.067-2.266,2.075-2.99c1.154-0.832,1.002-3.008,2.928-2.913
			c0.999,0.049,2.59-0.812,2.665,1.276c1.152-0.309,2.299-0.633,3.46-0.9c0.123-0.028,0.307,0.376,0.49,0.404
			c0.327,0.055,0.879,0.099,0.982-0.069c0.733-1.199,2.616-1.448,2.656-3.226c0.003-0.151,0.406-0.309,0.635-0.44
			c0.52-0.3,1.031-0.62,1.574-0.871c2.822-1.304,5.131-3.964,8.751-3.213c0.534,0.11,1.368-0.301,1.788-0.736
			c1.284-1.333,2.534-2.724,3.607-4.229c1.023-1.435,2.174-2.143,3.998-1.977c1.815,0.166,3.658,0.064,5.486,0.015
			c0.398-0.012,1.018-0.2,1.141-0.48c0.452-1.028,1.596-1.769,1.25-3.185c-0.08-0.325,0.606-1.113,1.065-1.242
			c1.496-0.42,3.039-0.735,4.584-0.896c1.388-0.144,2.819-0.159,4.202,0.009c1.35,0.162,2.03-0.621,2.84-1.404
			c0.491-0.477,1.178-1.185,1.7-1.123c3.329,0.386,4.083-2.644,5.553-4.363c2.189-2.562,3.771-5.645,5.582-8.523
			c0.317-0.503,0.505-1.092,0.733-1.647c0.568-1.382,0.886-2.938,1.734-4.118c1.841-2.56,4.825-4.072,6.549-6.795
			c0.167-0.263,0.497-0.435,0.774-0.613c1.138-0.739,2.322-1.416,3.408-2.224c0.361-0.269,0.67-0.856,0.678-1.306
			c0.031-1.596,0.813-2.209,2.285-2.819c1.638-0.679,3.192-1.911,4.347-3.271c0.718-0.848,0.462-2.534,2.33-2.228
			c0.057,0.01,0.171-0.517,0.309-0.766c0.169-0.304,0.328-0.688,0.602-0.847c0.869-0.512,5.887,0.191,6.607,1.017
			c0.964,1.104,1.727,1.134,2.643-0.015c0.2-0.25,0.722-0.26,1.103-0.349c2.68-0.626,4.223,1.332,5.846,2.791
			c1.904,1.71,3.529,3.73,5.283,5.609c0.905,0.97,1.069,3.913,0.68,5.121c-0.795,2.463-1.365,5.002-1.934,7.529
			c-0.081,0.359,0.36,0.839,0.56,1.263c0.542-0.268,1.258-0.396,1.596-0.823c1.126-1.427,2.106-2.967,3.161-4.45
			c1.042-1.466,2.722-2.392,3.283-4.31c0.272-0.934,1.088-1.817,1.872-2.465c1.885-1.56,4.592-1.508,6.456-3.508
			c0.701-0.752,0.973-1.271,0.926-2.02c-0.167-2.654,0.255-4.819,3.1-6.038c0.759-0.325,1.79-1.344,1.388-2.878
			c-0.316-1.209-0.183-2.535,1.168-3.456c1.669-1.139,3.31-2.383,4.697-3.837c0.462-0.484,1.861-1.996-0.536-2.583
			c-1.173-0.287-1.377-1.842-0.882-2.903c1.778-3.807,3.981-7.358,6.799-10.513c0.395-0.442,0.474-1.152,0.776-1.695
			c0.308-0.55,0.62-1.157,1.09-1.546c1.924-1.593,4.386-2.712,4.093-5.929c-0.069-0.762,0.725-1.607,1.144-2.403
			c0.175-0.331,0.542-0.613,0.591-0.951c0.402-2.784,0.847-3.182,3.662-3.208c0.59-0.006,1.583,0.06,1.703-0.213
			c0.842-1.91,2.57-2.754,4.235-3.519c2.17-0.998,4.433-2.052,6.757-2.394c3.276-0.481,6.645-0.363,9.976-0.434
			c0.761-0.018,1.537,0.207,2.289,0.389c1.333,0.323,2.66,0.68,3.976,1.066c0.39,0.113,1.066,0.412,1.051,0.572
			c-0.126,1.362,0.743,1.211,1.623,1.263c1.252,0.07,2.497,0.263,3.743,0.423c0.169,0.021,0.415,0.263,0.471,0.217
			c0.935-0.776,1.846-1.582,2.426-2.088c-0.993-0.835-2.287-1.745-3.311-2.896c-0.3-0.337-0.714-1.464,0.625-1.997
			c1.45-0.576,2.611-1.858,4.049-2.485c1.146-0.5,2.517-0.557,3.794-0.595c0.164-0.007,0.348,1.276,0.562,1.949
			c0.094,0.297,0.288,0.561,0.436,0.838c0.209-0.156,0.462-0.279,0.622-0.478c0.824-1.024,1.668-2.038,2.412-3.12
			c0.317-0.462,0.474-1.066,0.583-1.632c0.146-0.754,0.132-1.539,0.265-2.297c0.229-1.299,0.468-2.602,0.798-3.878
			c0.267-1.037,0.603-2.069,1.035-3.048c0.412-0.935,1.061-1.763,1.477-2.693c1.541-3.451,3.618-6.363,7.267-7.883
			c0.479-0.199,0.905-0.763,1.143-1.26c0.964-2.015,1.905-4.005,4.103-5.015c1.466-0.674,2.423-1.856,2.999-3.339
			c0.456-1.173,1.042-2.342,1.225-3.562c0.272-1.83,1.936-1.941,3.011-2.72c1.024-0.741,2.272-1.196,3.458-1.689
			c1.998-0.83,3.997-1.68,6.05-2.353c1.581-0.517,3.344-0.551,4.853-1.2c2.64-1.142,3.575-4.17,1.121-6.509
			c-1.54-1.468-3.386-2.827-4.351-4.632c-1.536-2.873-4.03-3.792-6.792-4.493c-1.518-0.385-2.836,0.312-4.15,1.024
			c-1.171,0.636-2.096,1.343-2.333,2.771c-0.449,2.702-1.212,3.312-4.037,3.521c-0.369,0.026-0.716,0.275-1.085,0.38
			c-1.525,0.431-2.373,2.332-4.369,1.831c-1.816-0.456-2.404,0.637-2.196,2.261c0.2,1.565-0.717,2.119-1.994,2.488
			c-0.363,0.104-0.703,0.423-0.966,0.721c-1.024,1.159-1.95,2.412-3.038,3.506c-0.728,0.731-1.668,1.252-2.514,1.866
			c0.578,0.414,0.979,0.439,1.381,0.46c0.965,0.05,1.93,0.098,2.895,0.146c-0.175,0.906-0.355,1.812-0.521,2.724
			c-0.032,0.177,0.035,0.378-0.017,0.546c-0.476,1.537-0.822,3.138-1.492,4.587c-0.859,1.861-2.33,2.868-4.564,2.685
			c-0.777-0.064-1.587,0.639-2.418,0.777c-1.645,0.276-3.265,0.715-4.923-0.339c-1.018-0.646-2.625-1.419-3.495-1.042
			c-2.233,0.97-4.567,2.217-6.17,3.979c-1.48,1.627-3.354,1.894-5.042,2.737c-1.63,0.813-3.412,1.551-5.195,1.773
			c-2.145,0.271-3.043,1.516-3.775,3.227c-0.111,0.26-0.565,0.377-0.865,0.552c-0.743,0.43-1.571,0.758-2.22,1.299
			c-2.647,2.211-5.533,3.432-9.076,2.769c-0.907-0.17-1.911,0.078-2.855,0.228c-1.477,0.231-2.958,0.482-4.404,0.852
			c-0.608,0.154-1.485,0.514-1.637,0.978c-0.616,1.876-2.429,1.535-3.066,1c-1.235-1.038-1.18,0.133-1.329,0.537
			c-0.5,1.354-1.252,1.931-2.812,1.93c-1.115-0.001-2.571,0.455-3.274,1.243c-1.334,1.496-2.239,3.376-3.263,5.002
			c0.547,0.266,1.538,0.59,1.512,0.763c-0.102,0.681-0.374,1.472-0.859,1.929c-0.74,0.698-1.756,1.094-2.571,1.726
			c-1.406,1.09-3.005,0.836-3.764-0.702c-0.124-0.251-0.123-0.563-0.179-0.849c-0.492,0.569-0.525,0.687-0.562,0.802
			c-0.782,2.423,0.556,6.186-3.952,6.26c-0.024,0.001-0.031,0.123-0.072,0.157c-1.596,1.342-3.167,2.484-5.519,2.36
			c-1.538-0.081-2.562,1.188-3.283,2.672c-0.88,1.812-1.177,3.969-2.93,5.314c-0.545,0.419-0.959,1.239-1.534,1.351
			c-3.163,0.603-6.364,1.01-9.538,1.562c-0.731,0.128-1.408,0.567-2.11,0.862c-1.044,0.438-2.075,1.2-3.138,1.25
			c-3.741,0.171-3.7,0.079-3.853,3.812c-0.03,0.729-0.38,1.8-0.914,2.079c-1.137,0.595-2.479,0.833-3.762,1.104
			c-1.051,0.221-2.223,0.069-3.182,0.468c-0.773,0.32-1.865,1.229-1.85,1.854c0.059,2.455-0.229,2.949-2.803,3.197
			c-0.321,0.032-0.63,0.2-0.944,0.305c0.152,0.277,0.277,0.574,0.46,0.829c1.121,1.563,0.596,2.891-1.318,3.218
			c-0.534,0.092-1.1,0.071-1.644,0.021c-1.458-0.132-2.515,0.488-3.463,1.554c-0.509,0.572-1.26,0.931-1.904,1.382
			c-1.325,0.932-2.714,1.784-3.951,2.82c-0.765,0.641-1.299,1.557-1.932,2.354c-0.57,0.717-1.019,1.585-1.72,2.13
			c-1.663,1.293-2.326,3.396-4.282,4.579c-1.228,0.74-3.099,1.822-2.742,4.166c0.078,0.513-1.279,1.318-2.066,1.856
			c-0.351,0.239-1.105-0.027-1.37,0.238c-1.076,1.08-1.95,2.366-3.052,3.415c-2.334,2.225-4.979,3.367-8.381,2.706
			c-1.791-0.349-3.88-0.354-5.559,0.253c-1.755,0.634-3.422,0.725-5.178,0.737c-1.342,0.01-2.689,0.072-4.025-0.017
			c-1.693-0.113-2.311,0.945-2.846,2.259c-0.181,0.443-0.577,1.022-0.975,1.117c-1.803,0.427-3.632,0.856-5.472,0.977
			c-1.095,0.07-2.217-0.553-3.345-0.649c-2.991-0.258-6.01,0.384-8.976-1.006c-1.148-0.538-2.252-0.288-1.403-1.974
			c0.069-0.139-0.071-0.483-0.219-0.611c-1.251-1.084-1.69-2.82-0.715-3.907c2.568-2.862,4.75-5.912,6.231-9.516
			c0.914-2.225,0.899-3.503-1.247-4.387c-1.838-0.757-1.124-2.019-0.835-3.071c0.368-1.341,1.152-2.562,1.616-3.883
			c0.339-0.967,0.758-1.495,1.886-1.349c1.854,0.241,3.151-0.492,3.678-2.381c0.078-0.278,0.324-0.507,0.423-0.784
			c0.675-1.891,2.277-3.65,0.707-5.872c-0.176-0.249,0.36-1.083,0.682-1.568c0.176-0.268,0.868-0.385,0.861-0.551
			c-0.107-2.737,1.833-3.211,3.873-3.603c0.053-0.01,0.093-0.102,0.144-0.106c0.715-0.07,1.617-0.597,1.679,0.812
			c0.013,0.306,0.494,0.59,0.759,0.884c1.569-1.692,2.938,0.24,4.413,0.246c0.289,0,0.617,0.11,0.86,0.009
			c2.305-0.964,4.698-1.774,6.44-3.726c1.553-1.739,3.133-3.318,5.864-2.826c0.601,0.108,1.428-0.783,2.084-1.3
			c1.044-0.822,1.959-1.729,3.507-1.577c1.571,0.153,3.169,0.006,4.754,0.043c0.961,0.021,1.797,0.089,1.81-1.306
			c0.003-0.305,0.788-0.679,1.27-0.886c1.111-0.477,2.285-0.249,3.415-1.354c2.372-2.321,4.06-6.111,8.625-4.968
			c1.055,0.264,2.631-0.184,1.967-2.226c-0.167-0.515,0.32-1.733,0.741-1.862c1.935-0.588,3.963-0.858,5.935-1.34
			c0.857-0.21,1.898-0.432,2.442-1.025c1.813-1.983,3.322-4.269,6.356-4.583c0.415-0.043,1.077-0.646,1.101-1.023
			c0.108-1.704,1.729-2.045,2.652-2.776c2.055-1.635,4.324-2.93,5.299-5.584c0.468-1.273,0.555-2.433,2.351-3.305
			c3.208-1.558,5.939-4.13,8.77-6.401c0.626-0.503,1.341-1.702,1.142-2.279c-0.647-1.87,0.061-2.764,1.651-3.43
			c0.275-0.116,0.534-0.503,0.593-0.806c0.029-0.15-0.379-0.503-0.641-0.576c-1.383-0.386-0.736-1.205-0.46-1.951
			c0.265-0.717,0.658-1.411,0.769-2.149c0.135-0.896-0.013-1.829,0.052-2.739c0.03-0.413,0.226-1.118,0.435-1.151
			c0.437-0.071,0.928,0.229,1.405,0.349c0.549,0.138,1.102,0.309,1.661,0.348c0.963,0.068,2.631-0.242,2.777,0.111
			c0.634,1.536,1.175,0.708,1.89,0.229c0.332-0.223,0.775-0.31,1.182-0.381c1.835-0.322,3.97-0.089,4.577-2.6
			c0.036-0.147,0.386-0.347,0.553-0.317c1.814,0.322,2.707-1.145,3.841-2.028c2.637-2.06,2.104-5.358,2.786-8.116
			c0.524-2.116,0.987-3.345,3.21-3.388c3.618-0.069,6.168-1.821,7.794-4.837c0.511-0.948,0.235-2.359,0.191-3.555
			c-0.026-0.714-0.661-1.619-0.398-2.092c1.126-2.027,2.052-4.333,4.888-4.686c1.294-0.161,2.551-0.889,3.822-0.881
			c0.808,0.006,1.41,0.653,1.967-0.559c0.21-0.459,1.533-0.763,1.66,0.475c0.132,1.279,1.103,1.435,1.938,1.813
			c0.878,0.399,2.016,0.515,2.629,1.15c1.336,1.385,2.769,1.449,4.475,1.091c0.66-0.141,1.407,0.176,2.119,0.233
			c0.409,0.033,1.085,0.115,1.195-0.077c0.698-1.229,1.831-0.858,2.86-0.937c1.167-0.089,1.791-1.499,1.21-2.575
			c-0.184-0.34-0.408-0.92-0.254-1.14c0.87-1.243,1.625-2.815,2.853-3.489c1.224-0.671,1.573-1.229,1.557-2.506
			c-0.008-0.641,0.492-1.766,0.927-1.854c2.027-0.405,1.927-1.962,1.902-3.312c-0.039-2.186,0.917-3.947,1.683-5.891
			c0.646-1.642,2.766-2.398,2.46-4.48c-0.013-0.086,0.495-0.202,0.695-0.378c0.264-0.231,0.676-0.556,0.655-0.81
			c-0.131-1.6,0.263-2.834,1.708-3.779c0.507-0.331,0.592-1.287,0.905-1.94c0.132-0.275,0.38-0.73,0.533-0.714
			c0.327,0.035,0.807,0.257,0.905,0.521c0.427,1.146,0.74,2.338,1.084,3.479c0.735-0.34,1.737-0.602,2.451-1.203
			c0.492-0.414,0.584-1.302,0.855-1.978c-0.449-0.169-0.894-0.345-1.348-0.501c-0.109-0.038-0.275,0.04-0.357-0.019
			c-0.291-0.203-0.555-0.443-0.83-0.67c0.296-0.264,0.577-0.729,0.894-0.755c1.09-0.092,2.699-0.479,3.185,0.067
			c0.995,1.12,1.807,0.382,2.58,0.205c0.974-0.224,2.167-0.595,2.724-1.319c1.593-2.067,2.558-4.554,4.466-6.47
			c1.54-1.547,2.747-3.429,4.08-5.179c0.896-1.178,1.713-2.416,2.641-3.567c1.125-1.396,2.211-2.859,3.528-4.058
			c1.551-1.409,2.111-3.771,4.359-4.478c0.108-1.884,1.79-2.004,2.975-2.747c1.815-1.139,4.055-1.465,5.49-3.386
			c1.597-2.138,3.772-3.688,6.019-5.203c1.319-0.89,2.327-2.047,4.065-2.012c0.185,0.003,0.548-0.355,0.538-0.529
			c-0.121-1.988,1.719-2.521,2.69-3.692c0.176-0.213,0.41-0.376,0.606-0.571c1.18-1.175,2.292-2.428,3.557-3.502
			c0.763-0.647,2.369-0.864,2.539-1.541c0.519-2.062,2.297-2.77,3.604-3.871c2.188-1.844,4.768-3.223,6.963-5.062
			c0.824-0.689,1.506-1.131,2.47-0.938c2.268,0.457,4.517-0.044,6.773-0.019c0.425,0.007,1.028-0.137,1.246,0.086
			c1.687,1.72,3.29,0.188,4.084-0.655c1.749-1.859,3.92-2.815,6.086-3.814c2.056-0.948,3.449-2.271,3.961-4.521
			c0.489-2.151,1.127-2.438,3.399-1.917c1.632,0.373,3.278,0.747,4.939,0.905c1.898,0.185,3.872-0.319,5.523,1.198
			c1.594,1.466,3.317,2.79,4.994,4.164c0.447,0.367,0.931,0.691,1.396,1.035c0.305-0.634,1.002-1.39,0.849-1.879
			c-0.688-2.197,0.657-3.354,2.216-3.897c1.135-0.396,3.196-0.354,3.773,0.358c0.972,1.198,1.366,3.064,1.498,4.69
			c0.154,1.906,1.1,3.336,2.036,4.818c0.129,0.205,0.804,0.26,1.114,0.125c2.144-0.928,4.25-1.941,6.384-2.893
			c1.661-0.738,3.436-1.269,4.997-2.17c2.193-1.269,4.252-2.775,6.336-4.227c0.52-0.361,1.082-0.82,1.341-1.37
			c0.676-1.438,1.516-2.55,3.06-3.242c1.568-0.705,3.158-1.583,4.396-2.75c1.725-1.628,3.146-3.579,4.651-5.431
			c0.191-0.235,0.079-0.705,0.154-1.057c0.139-0.639,0.132-1.412,0.501-1.878c1.62-2.036,2.149-4.357,2.043-6.872
			c-0.039-0.926,0.083-1.505,1.239-1.409c1.124,0.092,1.823-0.381,1.742-1.688c-0.027-0.443,0.188-0.95,0.421-1.354
			c1.871-3.236,3.284-6.812,6.168-9.333c1.25-1.093,2.872-1.76,4.329-2.613c0.482-0.281,1.288-0.443,1.415-0.834
			c0.611-1.885,1.998-2.729,3.71-3.419c0.751-0.304,1.365-1.086,1.897-1.765c1.646-2.101,2.14-4.698,2.851-7.172
			c0.54-1.879,1.14-3.647,2.11-5.397c1.744-3.146,3.716-6.288,3.471-10.203c-0.066-1.062,0.583-2.182,0.951-3.26
			c0.484-1.42,1.102-2.802,1.486-4.247c0.15-0.566,0.021-1.397-0.314-1.869c-1.124-1.573-1.664-5.009-0.529-6.343
			c1.494-1.754,3.177-3.386,4.966-4.841c1.789-1.456,4.359-2.142,4.406-5.094c0.003-0.149,0.296-0.419,0.454-0.42
			c1.625-0.008,2.167-1.029,2.392-2.418c0.053-0.319,0.223-0.645,0.414-0.911c1.746-2.402,3.562-4.756,5.242-7.204
			c0.64-0.931,0.981-2.065,1.454-3.11c1.45-3.204,2.896-6.411,4.349-9.614c0.681-1.498,1.439-2.962,2.042-4.49
			c0.595-1.505,1.163-3.043,1.507-4.618c0.394-1.804,0.654-3.588,2.389-4.697c0.265-0.169,0.412-0.555,0.559-0.867
			c0.476-1.013,0.663-2.333,1.429-3.005c2.851-2.501,2.684-6.123,3.639-9.281c0.757-2.5,0.783-5.213,1.271-7.806
			c0.521-2.759,2.66-5.104,2.138-8.156c-0.024-0.138,0.245-0.354,0.411-0.493c0.865-0.724,1.855-1.335,2.594-2.17
			c1.776-2.011,3.91-3.791,3.628-7.005c-0.112-1.284,0.455-2.758,1.087-3.946c0.996-1.874,2.589-3.464,3.393-5.397
			c0.594-1.426,1.14-2.52,2.49-3.39c2.146-1.381,2.292-3.779,2.461-6.073c0.252-3.433,0.465-6.869,0.78-10.295
			c0.053-0.576,0.464-1.164,0.83-1.657c1.007-1.36,2.389-2.535,3.058-4.035c1.319-2.958,2.283-6.076,3.325-9.152
			c0.16-0.471,0.134-1.418-0.115-1.546c-1.444-0.745-0.942-2.026-0.885-3.064c0.127-2.245-0.509-4.13-1.644-6.084
			c-1.637-2.817-3.171-5.777-4.15-8.867c-1.039-3.278-1.98-6.561-3.796-9.491c-0.965-1.558-2.219-2.937-3.312-4.418
			c-0.282-0.383-0.635-0.84-0.65-1.274c-0.168-4.315-0.497-8.642-0.321-12.946c0.137-3.333,0.9-6.644,1.463-9.951
			c0.075-0.436,0.626-0.784,0.939-1.186c0.392-0.502,0.823-0.985,1.13-1.536c0.243-0.438,0.252-1.002,0.49-1.442
			c0.922-1.71,1.938-3.37,2.831-5.095c0.534-1.036,0.763-2.25,1.385-3.22c0.749-1.167,1.799-2.136,2.668-3.23
			c1.728-2.177,3.299-4.491,5.163-6.541c1.686-1.854,3.773-3.335,5.508-5.15c2.482-2.598,4.781-5.369,7.209-8.021
			c0.597-0.651,1.421-1.088,2.088-1.684c1.874-1.674,3.683-3.424,5.588-5.06c2.255-1.934,4.611-3.748,6.848-5.702
			c0.261-0.228,0.183-1.415,0.01-1.479c-1.397-0.522-2.839-1.146-4.297-1.233c-2.712-0.162-5.698,0.364-7.862-1.418
			c-1.428-1.176-1.658,0.061-2.266,0.427c-0.56,0.337-0.784,1.262-1.351,1.547c-0.94,0.476-2.246,1.167-3.026,0.851
			c-2.457-0.994-4.737-2.426-7.098-3.667c-1.779-0.936-3.62-1.765-5.354-2.776c-2.028-1.183-3.884-2.687-5.975-3.733
			c-2.672-1.337-2.868-1.39-2.868-4.323c0-3.233,0.081-6.469-0.019-9.699c-0.182-5.875-0.458-11.748-0.726-17.621
			c-0.05-1.104,0.559-3.246-1.832-1.404c-0.157,0.122-0.489,0.089-0.718,0.033c-1.512-0.375-3.015-0.78-4.523-1.164
			c-0.434-0.11-1.029-0.402-1.284-0.226c-0.479,0.332-0.933,0.896-1.094,1.451c-0.265,0.909-0.115,1.958-0.463,2.817
			c-0.293,0.724-0.938,1.595-1.616,1.812c-1.467,0.471-3.049,0.702-4.596,0.771c-1.285,0.057-1.767,0.725-2.104,1.763
			c-0.675,2.073-0.714,4.305-2.515,6.065c-0.774,0.757-1.14,2.104-2.337,2.563c-1.146,0.44-2.135,0.841-2.584,2.216
			c-0.193,0.591-1.244,1.281-1.89,1.265c-1.369-0.034-1.721,0.968-1.984,1.757c-0.249,0.741-0.229,1.58-1.208,1.185
			c-0.49-0.198-1.005-1.002-1.035-1.558c-0.118-2.189-0.103-4.391-0.028-6.584c0.035-1.053-0.317-1.343-1.346-1.329
			c-3.843,0.054-7.688-0.041-11.528,0.054c-1.411,0.035-1.83-0.325-1.824-1.792c0.062-13.603,0.035-27.206,0.035-40.809
			c0-2.431-0.008-2.558-2.369-2.406c-1.515,0.097-1.983-0.672-1.98-1.829c0.003-1.364-0.537-2.877,0.96-3.997
			c0.413-0.309,0.534-1.815,0.475-1.835c-2.227-0.748-3.421-3.28-6.016-3.435c-0.583-0.035-1.131-0.793-1.68-1.238
			c-0.34-0.275-0.602-0.695-0.979-0.866c-1.761-0.793-3.554-1.517-5.326-2.288c-0.127-0.055-0.22-0.273-0.258-0.432
			c-0.264-1.108-0.499-2.223-0.764-3.331c-0.149-0.629-0.267-1.758-0.519-1.792c-2.072-0.285-3.116-2.742-5.439-2.484
			c-0.438,0.048-0.972-0.517-1.413-0.859c-0.496-0.385-0.956-0.822-1.397-1.271c-0.279-0.283-0.674-0.607-0.711-0.947
			c-0.166-1.483,1.057-2.015,2.053-1.934c2.071,0.169,4.291,0.369,6.099,1.264c1.092,0.541,1.032,0.012,1.24-0.432
			c0.807-1.725,1.644-3.288,3.96-3.221c1.008,0.029,2.026-0.285,3.041-0.442c-0.935-0.564-1.993-0.632-2.806-1.116
			c-2.464-1.469-4.945-2.596-7.94-2.398c-0.838,0.055-1.739-0.657-2.593-1.055c-0.983-0.458-1.9-1.148-2.929-1.399
			c-1.857-0.455-3.812-0.525-5.663-1.004c-1.974-0.51-3.863-1.332-5.81-1.962c-0.441-0.144-0.957-0.062-1.438-0.084
			c0.272,0.403,0.487,0.868,0.834,1.192c0.405,0.379,0.993,0.571,1.375,0.967c0.318,0.33,0.589,0.831,0.608,1.269
			c0.01,0.211-0.585,0.596-0.942,0.647c-0.718,0.103-1.465-0.021-2.19,0.043c-1.134,0.102-1.624-0.279-2.003-1.463
			c-0.571-1.785-0.856-3.973-3.259-4.493c-0.501-0.108-1.019-0.161-1.528-0.174c-0.068-0.001-0.258,0.425-0.202,0.588
			c0.422,1.23,0.947,2.427,1.324,3.67c0.202,0.668,0.448,1.892,0.206,2.027c-1.052,0.587-2.273,0.875-3.448,1.226
			c-0.042,0.012-0.177-0.512-0.356-0.701c-0.814-0.856-1.667-1.679-2.495-2.523c-0.279-0.285-0.636-0.555-0.781-0.904
			c-0.713-1.697-1.67-2.954-3.784-2.385c-0.815,0.219-1.629,0.707-2.427,0.675c-1.242-0.049-2.534-0.274-3.691-0.72
			c-1.874-0.723-3.895-1.389-5.42-2.618c-2.227-1.795-4.701-3.277-6.49-5.721c-1.578-2.157-4.519-3.021-6.252-5.226
			c-0.438-0.558-1.149-1.221-1.771-1.257c-1.88-0.108-3.488-0.604-4.912-1.894c-0.355-0.321-1.699-0.217-1.709-0.158
			c-0.302,1.758-1.665,1.09-2.628,1.154c-1.275,0.085-2.565-0.04-3.838,0.062c-0.352,0.028-0.688,0.52-0.987,0.839
			c-0.627,0.668-1.128,1.507-1.864,2.005c-0.699,0.474-1.868,0.146-1.873,1.636c-0.002,0.836-1.02,1.721-0.916,2.495
			c0.221,1.639,0.833,3.232,1.368,4.816c0.28,0.831,0.545,1.822,1.153,2.354c1.238,1.082,0.611,2.21,0.384,3.325
			c-0.164,0.803-0.741,1.552-0.783,2.345c-0.134,2.527,0.223,5.074-1.224,7.43c-1.286,2.096-1.604,4.266-0.116,6.569
			c0.508,0.785,0.451,2.061,0.356,3.085c-0.234,2.511-0.34,4.83,1.52,6.988c1.207,1.4,2.211,3.215,2.632,5.003
			c0.876,3.729,1.742,7.555,1.807,11.355c0.079,4.685,1.187,9.066,2.63,13.392c0.949,2.845,2.409,5.519,3.637,8.271
			c0.155,0.349,0.367,0.696,0.42,1.062c0.18,1.243,1.894,3.126,3.104,3.353c2.519,0.473,5.172,0.603,7.007,2.815
			c0.138,0.167,0.579,0.098,0.881,0.109c3.281,0.127,6.565,0.2,9.843,0.397c1.064,0.064,2.122,0.687,3.159,0.63
			c1.539-0.085,3.063-0.513,4.581-0.858c1.861-0.424,3.561,0.192,4.37,1.963c1.32,2.886,3.554,3.783,6.575,3.779
			c2.518-0.003,5.035,0.434,7.552,0.709c0.266,0.029,0.562,0.225,0.751,0.428c1.559,1.677,3.118,3.354,4.629,5.073
			c0.903,1.028,1.768,2.098,2.562,3.21c0.758,1.059,1.815,2.134,1.999,3.317c0.27,1.734,1.18,2.896,2.147,4.186
			c0.806,1.073,1.575,2.289,1.928,3.562c0.8,2.888,2.173,5.294,4.675,7.003c0.829,0.566,0.72,2.174-0.164,2.626
			c-1.459,0.748-2.349,2.683-1.855,4.142c0.157,0.469,0.597,0.87,0.666,1.337c0.413,2.79,0.93,5.582,1.066,8.39
			c0.108,2.257,1.457,3.723,2.596,5.379c0.931,1.354,2.158,2.596,2.723,4.089c0.689,1.822,0.824,3.854,1.164,5.608
			c0.353,0.046,0.788,0.103,1.227,0.16c-0.172,0.497-0.223,1.321-0.532,1.434c-1.245,0.454-1.763,1.324-1.603,2.506
			c0.25,1.836,0.751,3.638,0.988,5.475c0.128,0.993,0.102,1.919,1.202,2.4c1.163,0.507,1.187,1.503,1.052,2.584
			c-0.039,0.318,0.076,0.753,0.285,0.986c0.72,0.801,1.674,1.445,2.184,2.349c0.162,0.289-0.896,1.153-1.179,1.842
			c-0.213,0.521-0.315,1.327-0.058,1.761c1.891,3.177,2.995,6.618,3.769,10.203c0.485,2.252-0.368,4.68-2.145,5.656
			c-0.937,0.514-1.912,0.953-2.833,1.489c-0.638,0.37-1.185,0.895-1.82,1.263c-0.833,0.481-1.741,0.835-2.574,1.318
			c-1.789,1.036-0.975,2.795-1.059,4.265c-0.055,0.933-0.188,1.511-1.092,2.092c-2.795,1.793-4.158,4.442-4.075,7.812
			c0.048,1.951,0.039,3.905-0.001,5.855c-0.032,1.548,0.067,2.965-0.98,4.502c-1.388,2.034-3.442,2.688-5.32,3.755
			c-1.012,0.574-2.413,0.401-2.604,2.178c-0.062,0.571-1.363,1.452-2.071,1.427c-1.882-0.065-2.688,0.962-3.181,2.44
			c-0.575,1.729-1.665,2.503-3.498,2.439c-0.616-0.021-1.402,0.207-1.841,0.612c-1.358,1.254-2.901,1.491-4.688,1.626
			c-2.061,0.156-4.154,0.708-6.081,1.475c-1.048,0.418-1.718,1.709-2.658,2.484c-2.09,1.718-4.233,3.369-6.372,5.025
			c-1.389,1.076-2.67,2.435-4.239,3.101c-3.092,1.313-4.8,4.26-7.575,5.889c-0.869,0.51-1.609,1.277-2.519,1.673
			c-2.652,1.155-5.372,2.152-8.042,3.268c-2.245,0.938-4.448,1.975-6.692,2.916c-0.361,0.151-1.148,0.164-1.215,0.011
			c-0.677-1.548-2.458-0.906-3.448-1.819c-0.487-0.449-1.12-0.873-1.751-1.006c-1.716-0.364-2.205,1.145-3.186,2.092
			c-2.198,2.125-4.787,3.844-7.014,5.945c-2.048,1.933-4.609,2.651-7.131,3.182c-2.514,0.53-5.181,0.311-7.778,0.477
			c-0.534,0.034-1.059,0.299-1.577,0.489c-1.173,0.43-2.358,1.278-3.504,1.225c-1.618-0.075-3.232-0.735-4.798-1.285
			c-1.657-0.581-3.102-1.801-5.021-1.55c-1.968,0.257-3.976,0.33-5.897,0.779c-2.085,0.487-4.083-1.627-6.143-0.064
			c-0.136,0.103-0.468-0.021-0.697-0.081c-0.755-0.199-1.497-0.562-2.259-0.607c-5.971-0.354-11.991,0.649-17.927-1.051
			c-2.682-0.769-5.572-0.808-8.368-1.182c-0.178-0.024-0.403-0.18-0.518-0.116c-1.357,0.751-3.373-3.051-4.432,0.733
			c-0.271,0.965-4.198,0.463-5.242-0.342c-0.486-0.375-1.177-1.48-1.833,0.177c-0.45,1.135-1.603,1.708-3.107,1.253
			c-1.382-0.418-2.876-0.478-4.325-0.66c-0.825-0.104-1.669-0.076-2.485-0.22c-1.623-0.284-1.253-1.485-0.523-2.056
			c1.59-1.241-0.094-1.485-0.51-1.996c-0.319-0.392-1.074-0.417-1.428-0.798c-0.363-0.391-0.606-1.011-0.627-1.541
			c-0.008-0.204,0.723-0.565,1.15-0.629c0.714-0.105,1.455-0.028,2.185-0.028c0.077-0.154,0.155-0.307,0.232-0.461
			c-1.735-0.939-3.418-1.996-5.218-2.789c-2.232-0.984-4.528-1.854-6.859-2.57c-1.445-0.443-3.003-0.549-4.521-0.675
			c-0.144-0.012-0.558,0.927-0.516,1.395c0.16,1.77,1.62,2.715,2.647,3.948c0.342,0.411,0.665,1.326,0.452,1.631
			c-1.158,1.663-2.563,3.153-3.73,4.811c-0.902,1.282-2.067,2.659-2.254,4.105c-0.433,3.353-0.523,6.778-0.398,10.162
			c0.072,1.949-0.771,3.197-2.134,4.101c-1.089,0.723-1.477,1.519-1.633,2.745c-0.233,1.831-0.7,3.634-1.12,5.437
			c-0.042,0.179-0.507,0.221-0.68,0.413c-0.868,0.968-2.045,1.841-2.463,2.985c-0.498,1.362-0.392,2.964-0.44,4.465
			c-0.044,1.388-0.657,2.031-2.05,2.056c-0.537,0.01-1.374,0.088-1.551,0.417c-0.782,1.45-1.999,1.739-3.475,1.783
			c-1.004,0.03-2.198-0.005-2.963,0.506c-1.879,1.252-3.478,2.943-5.912,3.168c-0.195,0.018-0.453,0.33-0.525,0.555
			c-0.521,1.624-1.634,2.075-3.27,2.013c-1.289-0.05-3.065-0.18-3.786,0.552c-1.244,1.264-2.499,1.128-3.571,0.588
			c-1.331-0.669-2.267-0.36-3.467,0.154c-2.015,0.865-3.395,2.076-3.999,4.302c-0.25,0.921-1.2,1.75-2.008,2.401
			c-1.349,1.087-2.851,1.982-4.265,2.991c-1.329,0.948-2.654,1.907-3.935,2.92c-1.528,1.209-3.392,2.235-4.396,3.798
			c-0.909,1.415-1.619,2.507-3.343,2.896c-1.111,0.25-2.134,0.92-3.178,1.438c-1.844,0.917-3.685,1.84-5.507,2.798
			c-1.691,0.889-3.333,1.875-5.042,2.728c-1.048,0.522-2.201,0.833-3.272,1.315c-1.203,0.542-2.426,1.076-3.529,1.786
			c-0.958,0.616-1.665,1.911-2.653,2.127c-1.8,0.394-2.536,1.548-3.453,2.886c-0.723,1.054-1.061,2.448-2.692,2.972
			c-0.968,0.311-1.901,1.615-2.273,2.675c-0.449,1.282-0.511,2.329-2.265,2.689c-0.848,0.175-1.396,1.788-2.096,2.738
			c-0.05,0.068-0.254,0.005-0.348,0.064c-2.558,1.62-2.99,1.974-2.758,5.04c0.147,1.953,0.454,4.005-0.891,5.873
			c-0.389,0.541,0.049,1.704,0.169,2.572c0.043,0.311,0.372,0.587,0.397,0.893c0.208,2.563-0.114,4.988-1.761,7.118
			c-0.901,1.165-0.385,2.247,0.955,2.685c0.494,0.161,0.966,0.847,1.143,1.393c0.197,0.607,0.048,1.327,0.048,1.998
			c0,2.589,1.177,4.371,3.585,5.308c1.851,0.722,3.732,1.362,5.587,2.073c0.404,0.154,0.937,0.365,1.096,0.699
			c0.576,1.212,1.574,1.247,2.702,1.328c0.743,0.054,1.55,0.369,2.159,0.805c0.7,0.5,1.154,1.332,1.821,1.894
			c1.234,1.038,2.552,1.978,3.817,2.979c0.174,0.138,0.327,0.396,0.349,0.616c0.317,3.046,0.067,5.976-2.01,8.442
			c-1.3,1.544-3.102,2.738-2.716,5.25c0.101,0.657-0.588,1.9-1.188,2.116c-1.894,0.68-2.17,2.327-2.322,3.771
			c-0.28,2.648-0.913,4.816-3.541,6.119c-0.961,0.477-2.064,1.521-2.274,2.486c-0.496,2.274-1.655,4.052-3.404,5.32
			c-1.846,1.339-4.152,2.062-5.934,3.466c-1.923,1.514-3.978,1.348-6.105,1.359c-0.549,0.004-1.107,0.064-1.645-0.013
			c-1.311-0.188-2.229,0.281-2.986,1.368c-1.04,1.493-2.562,2.205-4.317,2.716c-1.588,0.463-3.059,1.362-4.537,2.152
			c-0.552,0.296-1.034,0.779-1.453,1.26c-1.874,2.146-3.824,4.213-4.561,7.141c-0.288,1.143-1.04,2.267-1.846,3.158
			c-1.894,2.096-3.968,4.026-5.926,6.065c-0.756,0.787-1.35,1.729-2.098,2.525c-1.412,1.502-3.077,2.807-4.27,4.459
			c-1.125,1.558-1.657,3.531-2.687,5.175c-0.601,0.958-1.557,1.821-2.55,2.375c-1.239,0.689-2.765,0.862-4.011,1.544
			c-1.318,0.722-2.89,1.474-2.894,3.337c-0.024,13.848-0.022,27.694,0.031,41.542c0.001,0.398,0.641,1.114,1.023,1.144
			c2.836,0.217,5.681,0.338,8.525,0.406c2.478,0.061,2.484,0.015,2.484,2.587c0.001,21.839,0.002,43.678-0.006,65.516
			c0,0.602,0.021,1.243-0.17,1.797c-1.001,2.906-2.095,5.78-3.103,8.684c-1.125,3.241-2.199,6.5-3.284,9.755
			c-1.353,4.056-2.719,8.104-4.032,12.172c-1.255,3.885-2.443,7.791-3.676,11.684c-0.398,1.257-0.829,2.505-1.277,3.744
			c-0.905,2.504-1.862,4.989-2.738,7.502c-0.473,1.356-0.78,2.771-1.24,4.134c-0.907,2.688-1.909,5.345-2.792,8.041
			c-0.577,1.763-0.903,3.611-1.533,5.354c-1.213,3.352-2.638,6.629-3.833,9.986c-1.229,3.454-2.394,6.939-3.36,10.475
			c-0.289,1.056-0.732,1.266-1.615,1.499C19.874,702.578,18.81,700.957,16.981,699.968z M123.357,640.333
			c-0.516-0.752-0.807-1.632-1.393-1.927c-0.936-0.472-2.081-0.508-3.114-0.812c-1.92-0.562-3.323,0.869-4.885,1.171
			c-2.624,0.509-2.931,0.806-1.746,3.257c0.571,1.181,0.986,1.697,2.088,1.771c1.138,0.076,2.285,0.007,3.428,0.024
			c0.604,0.009,1.583-0.151,1.752,0.139c1.039,1.785,1.729,0.676,2.289-0.247C122.382,642.713,122.781,641.59,123.357,640.333z
			 M104.153,671.167c0.655-0.314,1.218-0.536,1.731-0.841c1.446-0.859,2.738-1.73,3.8-3.238c1.281-1.818,3.385-3.051,5.09-4.584
			c0.358-0.322,0.562-0.838,0.754-1.299c0.029-0.07-0.425-0.503-0.611-0.474c-1.113,0.173-2.25,0.729-3.311,0.6
			c-2.068-0.256-2.422,0.884-2.523,2.45c-0.024,0.365,0.096,0.774-0.035,1.087c-0.147,0.351-0.579,0.913-0.756,0.868
			c-2.329-0.593-3.459,1.457-5.072,2.348c-0.501,0.277-0.643,1.477-0.637,2.251C102.586,670.601,103.541,670.858,104.153,671.167z
			 M141.432,714.078c0.181-0.936,0.262-1.817,0.547-2.628c0.129-0.367,0.664-0.593,1.014-0.882
			c-0.547-0.166-1.092-0.337-1.642-0.494c-0.229-0.065-0.575-0.021-0.68-0.165c-0.548-0.748-0.93-1.029-1.29,0.147
			c-0.065,0.215-0.676,0.332-1.046,0.366c-0.665,0.062-1.364-0.082-1.996,0.073c-0.297,0.072-0.564,0.618-0.66,0.995
			c-0.041,0.164,0.552,0.664,0.582,0.643C138.928,710.136,139.843,712.724,141.432,714.078z M119.918,786.377
			c-0.32-0.439-0.488-0.845-0.631-0.837c-0.967,0.057-1.967,0.073-2.882,0.35c-1.168,0.353-2.287,0.896-3.381,1.448
			c-0.257,0.13-0.332,0.623-0.491,0.948c0.666,0.271,0.941,1.373,2.135,0.411c1.143-0.92,2.794-1.204,4.217-1.782
			C119.199,786.789,119.488,786.604,119.918,786.377z M317.616,497.812c-1.859-0.088-2.688,0.437-2.844,1.858
			c-0.108,0.998,0.579,1.329,1.176,0.979c0.924-0.546,1.646-1.434,2.454-2.175C318.032,498.162,317.662,497.851,317.616,497.812z
			 M321.338,497.284c0-1.292,0.049-2.133-0.039-2.958c-0.019-0.175-0.538-0.296-0.826-0.442c-0.305,0.765-0.756,1.516-0.829,2.3
			C319.619,496.446,320.561,496.799,321.338,497.284z M199.539,611.873c-0.934-0.828-1.753-1.556-2.572-2.283
			C196.795,611.764,197.86,612.219,199.539,611.873z"/>
		<path d="M-51.09,138.059c-1.004,1.821-2.634,2.871-2.118,4.885c0.225,0.884,0.431,1.33,1.485,1.628
			c3.527,0.995,7.002,2.188,10.446,3.446c3.349,1.223,6.614,2.675,9.956,3.915c1.736,0.644,3.582,0.986,5.34,1.577
			c2.688,0.904,5.338,1.93,8.017,2.859c1.358,0.47,2.77,0.791,4.125,1.274c2.505,0.897,4.983,1.874,7.479,2.8
			c1.235,0.458,2.479,0.898,3.733,1.307c3.881,1.265,7.779,2.486,11.653,3.772c4.055,1.347,8.094,2.748,12.137,4.133
			c3.247,1.112,6.496,2.213,9.728,3.365c2.895,1.032,5.759,2.149,8.659,3.174c0.552,0.195,1.193,0.18,1.795,0.185
			c21.837,0.189,43.674,0.369,65.513,0.548c2.573,0.021,2.527,0.014,2.607-2.462c0.092-2.843,0.237-5.687,0.477-8.521
			c0.033-0.383,0.754-1.016,1.152-1.014c13.849,0.062,27.694,0.174,41.541,0.313c1.863,0.018,2.602,1.597,3.314,2.921
			c0.671,1.251,0.83,2.779,1.511,4.023c0.545,0.998,1.4,1.962,2.354,2.57c1.634,1.044,3.603,1.592,5.152,2.73
			c1.642,1.206,2.933,2.882,4.423,4.307c0.79,0.754,1.728,1.355,2.507,2.119c2.022,1.974,3.938,4.064,6.016,5.976
			c0.886,0.814,2.003,1.576,3.144,1.873c2.92,0.761,4.97,2.728,7.102,4.619c0.477,0.423,0.956,0.908,1.248,1.463
			c0.778,1.485,1.666,2.963,2.115,4.555c0.496,1.759,1.195,3.287,2.68,4.339c1.081,0.766,1.544,1.688,1.343,2.997
			c-0.082,0.537-0.025,1.096-0.025,1.645c-0.006,2.127-0.189,4.181,1.308,6.117c1.388,1.793,2.094,4.104,3.418,5.962
			c1.254,1.759,3.021,2.934,5.291,3.448c0.965,0.218,2,1.33,2.467,2.294c1.281,2.638,3.444,3.289,6.091,3.592
			c1.44,0.164,3.086,0.453,3.75,2.353c0.211,0.602,1.449,1.302,2.106,1.206c2.515-0.365,3.694,1.446,5.227,2.76
			c2.451,2.097,5.378,2.373,8.427,2.08c0.219-0.02,0.48-0.17,0.618-0.344c1.015-1.256,1.962-2.566,3.011-3.792
			c0.567-0.663,1.403-1.11,1.909-1.806c0.442-0.605,0.764-1.411,0.823-2.152c0.091-1.127,0.134-2.125,1.351-2.69
			c0.335-0.157,0.55-0.688,0.707-1.09c0.727-1.849,1.385-3.725,2.12-5.57c0.958-2.4,2.749-3.561,5.338-3.541
			c0.67,0.006,1.389,0.161,1.998-0.031c0.547-0.172,1.236-0.639,1.402-1.131c0.449-1.337,1.536-1.844,2.693-0.933
			c2.116,1.664,4.538,2.006,7.103,1.82c0.307-0.022,0.586-0.35,0.897-0.39c0.87-0.114,2.036-0.542,2.573-0.148
			c1.856,1.36,3.911,1.071,5.865,0.939c3.068-0.206,3.418,0.228,5.017,2.799c0.06,0.095-0.007,0.297,0.062,0.349
			c0.944,0.708,2.552,1.269,2.72,2.118c0.345,1.757,1.392,1.828,2.67,2.287c1.057,0.381,2.354,1.325,2.656,2.295
			c0.509,1.636,1.901,1.985,2.949,2.717c1.331,0.928,2.479,1.673,2.859,3.477c0.207,0.99,1.496,1.708,2.104,2.671
			c0.701,1.108,1.226,2.335,1.757,3.543c0.473,1.075,0.773,2.231,1.288,3.283c0.839,1.715,1.811,3.365,2.686,5.064
			c0.943,1.83,1.852,3.679,2.752,5.529c0.509,1.049,1.171,2.077,1.412,3.19c0.375,1.728,1.461,2.446,2.868,3.366
			c1.555,1.018,2.565,2.89,3.762,4.427c1.003,1.29,1.95,2.622,2.887,3.959c0.998,1.422,1.881,2.933,2.955,4.29
			c0.646,0.813,1.467,1.77,2.385,2.028c2.222,0.623,3.422,2.013,4.27,4.034c0.504,1.205,0.806,2.143,0.125,3.469
			c-0.549,1.067-0.695,2.32,0.558,3.576c0.726,0.726,0.582,2.502,0.521,3.791c-0.075,1.635,0.365,2.752,1.985,3.287
			c0.226,0.073,0.535,0.334,0.551,0.529c0.205,2.436,1.883,4.048,3.119,5.938c0.505,0.77,0.459,1.963,0.481,2.967
			c0.031,1.477,0.312,2.695,1.754,3.49c0.328,0.18,0.399,1.019,0.404,1.554c0.014,1.394,0.652,2.012,2.04,2.067
			c1.5,0.061,3.103-0.031,4.461,0.477c1.14,0.428,2.003,1.612,2.964,2.488c0.19,0.173,0.229,0.64,0.407,0.683
			c1.8,0.435,3.599,0.917,5.428,1.165c1.226,0.167,2.017,0.561,2.731,1.656c0.891,1.369,2.133,2.224,4.083,2.168
			c3.385-0.098,6.811,0.021,10.159,0.481c1.443,0.199,2.811,1.377,4.086,2.29c1.647,1.18,3.127,2.597,4.779,3.769
			c0.305,0.215,1.222-0.1,1.635-0.439c1.241-1.016,2.198-2.469,3.97-2.614c0.469-0.039,1.404,0.384,1.391,0.528
			c-0.138,1.517-0.258,3.073-0.712,4.515c-0.735,2.324-1.625,4.613-2.627,6.837c-0.808,1.793-1.878,3.468-2.833,5.195
			c-0.152-0.079-0.305-0.157-0.458-0.235c0.006-0.731,0.088-1.47-0.01-2.186c-0.06-0.428-0.416-1.162-0.62-1.155
			c-0.53,0.017-1.151,0.255-1.546,0.615c-0.384,0.35-0.415,1.104-0.81,1.421c-0.515,0.412-0.773,2.094-2,0.493
			c-0.564-0.735-1.762-1.114-2.061,0.506c-0.15,0.814-0.129,1.659-0.24,2.483c-0.194,1.448-0.267,2.94-0.696,4.32
			c-0.467,1.501,0.097,2.659,1.228,3.117c1.653,0.67,0.541,1.352,0.162,1.835c-0.814,1.037-1.349,4.961-0.386,5.239
			c3.774,1.09-0.044,3.074,0.696,4.438c0.062,0.115-0.095,0.339-0.121,0.517c-0.396,2.792-0.46,5.682-1.25,8.358
			c-1.749,5.922-0.798,11.95-1.199,17.918c-0.052,0.761-0.421,1.5-0.626,2.253c-0.062,0.229-0.188,0.56-0.087,0.697
			c1.546,2.072-0.585,4.052-0.114,6.142c0.432,1.926,0.487,3.934,0.729,5.903c0.233,1.921-0.997,3.355-1.592,5.009
			c-0.562,1.562-1.236,3.17-1.325,4.787c-0.062,1.145,0.775,2.337,1.197,3.513c0.185,0.521,0.446,1.047,0.475,1.582
			c0.146,2.598-0.096,5.263,0.414,7.781c0.51,2.527,1.207,5.093,3.122,7.156c2.083,2.245,3.778,4.847,5.887,7.062
			c0.94,0.987,2.443,1.491,2.065,3.204c-0.138,0.63-0.567,1.258-1.021,1.742c-0.92,0.982-0.294,2.769-1.847,3.434
			c-0.153,0.063-0.147,0.852,0,1.215c0.923,2.252,1.941,4.464,2.86,6.715c1.094,2.681,2.068,5.408,3.202,8.068
			c0.388,0.913,1.149,1.66,1.652,2.534c1.606,2.788,4.538,4.521,5.825,7.623c0.653,1.574,2.002,2.869,3.066,4.265
			c1.64,2.152,3.272,4.31,4.972,6.413c0.767,0.947,2.053,1.629,2.462,2.679c0.751,1.933,1.286,4.033,1.425,6.094
			c0.12,1.786,0.345,3.331,1.586,4.7c0.402,0.44,0.624,1.23,0.598,1.847c-0.078,1.832,0.686,2.928,2.411,3.518
			c1.474,0.504,2.494,1.319,2.413,3.2c-0.031,0.709,0.838,2.018,1.409,2.084c1.774,0.204,1.591,1.605,2.156,2.621
			c1.052,1.888,1.689,3.949,3.711,5.352c1.53,1.062,2.946,0.973,4.493,1.019c1.95,0.056,3.904,0.082,5.854,0.05
			c3.372-0.056,6.01,1.328,7.779,4.139c0.574,0.91,1.151,1.047,2.083,1.109c1.468,0.096,3.234-0.703,4.256,1.095
			c0.476,0.837,0.821,1.748,1.297,2.585c0.362,0.64,0.884,1.19,1.247,1.83c0.528,0.926,0.961,1.904,1.466,2.846
			c0.962,1.783,3.382,2.658,5.638,2.19c3.591-0.743,7.043-1.819,10.234-3.684c0.437-0.256,1.241-0.145,1.76,0.073
			c0.688,0.285,1.542,1.354,1.833,1.192c0.907-0.501,1.56-1.45,2.367-2.163c0.234-0.208,0.67-0.318,0.988-0.276
			c1.079,0.144,2.075,0.128,2.593-1.031c0.489-1.098,1.415-1.062,2.409-1.183c1.84-0.222,3.646-0.707,5.482-0.941
			c1.185-0.151,2.05,0.372,2.493,1.622c0.111,0.312,0.935,0.368,1.429,0.543c0.062-0.437,0.122-0.873,0.171-1.225
			c1.758-0.325,3.791-0.442,5.618-1.117c1.496-0.551,2.749-1.769,4.11-2.688c1.668-1.125,3.144-2.46,5.401-2.553
			c2.809-0.113,5.604-0.605,8.398-0.995c0.467-0.065,0.873-0.502,1.342-0.655c1.463-0.479,3.391,0.425,4.126,1.89
			c0.446,0.888,2.053,1.01,2.625,0.186c1.729-2.487,4.147-3.84,7.043-4.616c1.272-0.342,2.497-1.102,3.577-1.897
			c1.298-0.96,2.468-1.859,4.203-2.114c1.184-0.173,2.269-1.223,3.333-1.972c1.119-0.784,2.196-1.639,3.231-2.534
			c1.732-1.496,3.422-3.042,5.111-4.586c0.206-0.188,0.402-0.482,0.435-0.748c0.295-2.514,0.754-5.028,0.771-7.547
			c0.022-3.021,0.938-5.245,3.834-6.543c1.776-0.796,2.407-2.489,1.999-4.354c-0.332-1.521-0.748-3.048-0.819-4.588
			c-0.049-1.037,0.582-2.089,0.655-3.153c0.224-3.275,0.324-6.559,0.479-9.839c0.014-0.303-0.051-0.745,0.117-0.881
			c2.227-1.815,2.379-4.469,2.872-6.983c0.237-1.208,2.134-2.905,3.379-3.075c0.367-0.051,0.717-0.258,1.064-0.411
			c2.763-1.206,5.449-2.644,8.302-3.568c4.337-1.407,8.728-2.479,13.413-2.52c3.801-0.031,7.634-0.867,11.37-1.711
			c1.791-0.407,3.613-1.396,5.024-2.592c2.174-1.841,4.492-1.716,7-1.462c1.022,0.104,2.299,0.17,3.088-0.33
			c2.315-1.469,4.482-1.133,6.568,0.171c2.345,1.464,4.893,1.13,7.419,1.285c0.792,0.048,1.537,0.631,2.338,0.803
			c1.114,0.237,2.236,0.872,3.328-0.357c0.539-0.603,1.53-0.86,2.364-1.134c1.589-0.521,3.188-1.121,4.827-1.327
			c0.774-0.098,1.65,0.928,2.487,0.937c1.49,0.018,1.151,1.184,1.62,1.887c0.492,0.739,1.326,1.247,1.989,1.881
			c0.316,0.302,0.806,0.643,0.831,0.994c0.092,1.272-0.044,2.562,0.03,3.837c0.056,0.964-0.623,2.321,1.133,2.639
			c0.06,0.01,0.152,1.354-0.173,1.707c-1.302,1.413-1.811,3.018-1.935,4.896c-0.041,0.62-0.709,1.326-1.271,1.762
			c-2.22,1.714-3.107,4.647-5.278,6.207c-2.458,1.771-3.96,4.232-5.773,6.443c-1.242,1.516-1.925,3.529-2.662,5.397
			c-0.456,1.154-0.692,2.444-0.752,3.686c-0.038,0.798,0.443,1.615,0.655,2.433c0.552,2.119-0.712,3.066-2.417,3.765
			c-0.351,0.142-0.623,0.497-0.909,0.772c-0.851,0.822-1.682,1.668-2.544,2.476c-0.191,0.179-0.716,0.309-0.704,0.351
			c0.341,1.177,0.62,2.4,1.198,3.458c0.132,0.242,1.358,0.008,2.028-0.189c1.246-0.366,2.446-0.882,3.681-1.294
			c0.163-0.054,0.588,0.139,0.586,0.207c-0.018,0.511-0.073,1.027-0.187,1.525c-0.541,2.398-2.73,2.666-4.521,3.224
			c-1.186,0.368-1.571,0.856-1.479,1.99c0.058,0.728-0.073,1.474,0.024,2.19c0.048,0.359,0.429,0.956,0.64,0.948
			c0.438-0.019,0.941-0.282,1.273-0.599c0.399-0.378,0.595-0.964,0.979-1.367c0.327-0.343,0.794-0.554,1.199-0.823
			c-0.026,0.48,0.052,0.997-0.097,1.438c-0.646,1.939-1.484,3.823-2.01,5.794c-0.493,1.847-0.581,3.8-1.05,5.654
			c-0.261,1.025-0.958,1.937-1.425,2.915c-0.404,0.853-1.124,1.747-1.075,2.586c0.173,2.996-0.976,5.47-2.464,7.92
			c-0.49,0.809-0.567,1.866-1.141,2.796c-0.148-1.016-0.453-2.037-0.415-3.045c0.086-2.314-1.471-3.166-3.188-3.985
			c-0.441-0.212-0.972-0.157-0.422-1.244c0.911-1.801,1.129-4.017,1.314-6.088c0.091-0.996-0.432-2.223-1.918-2.068
			c-0.34,0.034-0.668,0.425-0.952,0.703c-0.452,0.438-0.892,0.894-1.282,1.387c-0.347,0.438-0.917,0.969-0.871,1.406
			c0.239,2.324-2.226,3.348-2.529,5.418c-0.035,0.253-1.166,0.359-1.795,0.504c-1.111,0.256-2.228,0.481-3.338,0.736
			c-0.16,0.036-0.377,0.128-0.435,0.254c-0.784,1.766-1.522,3.553-2.331,5.307c-0.174,0.378-0.595,0.636-0.874,0.972
			c-0.449,0.546-1.214,1.087-1.253,1.671c-0.176,2.593-2.72,3.767-3.484,5.986c-0.021,0.062-1.525-0.074-1.83-0.489
			c-1.108-1.507-2.626-0.979-3.99-0.992c-1.155-0.013-1.93,0.449-1.844,1.964c0.132,2.363,0.005,2.369-2.427,2.35
			c-13.602-0.113-27.205-0.201-40.808-0.373c-1.466-0.019-1.83,0.398-1.807,1.809c0.063,3.842-0.063,7.687-0.041,11.529
			c0.005,1.025-0.288,1.378-1.34,1.334c-2.193-0.092-4.395-0.126-6.584-0.026c-0.557,0.024-1.365,0.534-1.566,1.023
			c-0.403,0.976,0.436,0.962,1.175,1.218c0.786,0.271,1.786,0.63,1.74,1.999c-0.022,0.645,0.66,1.7,1.249,1.898
			c1.371,0.462,1.763,1.453,2.194,2.603c0.45,1.202,1.794,1.576,2.544,2.358c1.745,1.816,3.977,1.872,6.045,2.564
			c1.034,0.347,1.698,0.833,1.744,2.12c0.057,1.547,0.273,3.131,0.732,4.601c0.213,0.681,1.078,1.332,1.799,1.632
			c0.857,0.355,1.908,0.213,2.813,0.486c0.554,0.166,1.113,0.623,1.442,1.105c0.175,0.257-0.123,0.85-0.237,1.282
			c-0.396,1.507-0.813,3.007-1.201,4.514c-0.058,0.229-0.092,0.56,0.027,0.719c1.821,2.405-0.314,1.778-1.419,1.82
			c-5.875,0.218-11.751,0.446-17.627,0.579c-3.23,0.072-6.466-0.036-9.698-0.062c-2.935-0.024-2.987,0.173-4.347,2.833
			c-1.063,2.081-2.583,3.924-3.782,5.944c-1.025,1.726-1.87,3.56-2.821,5.331c-1.26,2.349-2.709,4.617-3.725,7.066
			c-0.322,0.777,0.358,2.089,0.825,3.033c0.28,0.568,1.203,0.802,1.537,1.364c0.36,0.609,1.595,0.851,0.408,2.269
			c-1.802,2.149-1.3,5.14-1.483,7.85c-0.1,1.458-0.735,2.893-1.27,4.287c-0.065,0.172-1.253,0.24-1.479-0.021
			c-1.935-2.251-3.73-4.624-5.646-6.895c-1.618-1.919-3.354-3.742-5.013-5.63c-0.591-0.672-1.02-1.501-1.667-2.102
			c-2.631-2.449-5.384-4.771-7.961-7.276c-1.8-1.748-3.265-3.849-5.104-5.549c-2.034-1.882-4.337-3.473-6.499-5.218
			c-1.088-0.878-2.048-1.936-3.207-2.694c-0.965-0.63-2.177-0.869-3.209-1.411c-1.718-0.908-3.369-1.938-5.071-2.874
			c-0.438-0.241-1.004-0.256-1.438-0.502c-0.548-0.312-1.027-0.747-1.526-1.143c-0.399-0.317-0.743-0.87-1.178-0.949
			c-3.303-0.588-6.607-1.381-9.939-1.545c-4.303-0.212-8.631,0.082-12.947,0.214c-0.435,0.014-0.894,0.361-1.28,0.639
			c-1.489,1.083-2.879,2.325-4.444,3.275c-2.945,1.79-6.236,2.706-9.522,3.718c-3.097,0.955-6.071,2.466-8.901,4.077
			c-1.963,1.118-3.854,1.738-6.098,1.593c-1.038-0.066-2.314-0.579-3.07,0.859c-0.131,0.249-1.079,0.267-1.547,0.103
			c-3.067-1.067-6.177-2.057-9.124-3.4c-1.494-0.681-2.657-2.073-4.01-3.091c-0.49-0.37-1.074-0.787-1.65-0.844
			c-3.425-0.345-6.858-0.585-10.288-0.866c-2.292-0.188-4.689-0.353-6.053-2.511c-0.858-1.359-1.947-1.913-3.369-2.519
			c-1.927-0.82-3.503-2.424-5.369-3.437c-1.183-0.642-2.651-1.221-3.938-1.12c-3.216,0.256-4.978-1.894-6.974-3.686
			c-0.829-0.743-1.433-1.741-2.147-2.611c-0.139-0.168-0.354-0.439-0.49-0.416c-3.056,0.498-5.383-1.659-8.138-2.205
			c-2.59-0.509-5.302-0.56-7.796-1.335c-3.15-0.981-6.771-0.846-9.251-3.716c-0.664-0.771-1.983-0.969-2.992-1.454
			c-0.312-0.146-0.695-0.3-0.862-0.565c-1.094-1.743-2.877-2.019-4.677-2.427c-1.572-0.357-3.105-0.938-4.606-1.545
			c-1.522-0.616-2.98-1.387-4.473-2.08c-3.192-1.479-6.386-2.95-9.577-4.428c-1.041-0.481-2.173-0.833-3.099-1.479
			c-2.433-1.701-4.771-3.536-7.16-5.302c-0.265-0.194-0.59-0.366-0.908-0.422c-1.387-0.236-2.404-0.786-2.398-2.411
			c0-0.159-0.267-0.454-0.416-0.458c-2.953-0.071-3.617-2.648-5.057-4.448c-1.44-1.801-3.057-3.497-4.8-5.006
			c-1.325-1.146-4.766-0.634-6.348,0.477c-0.474,0.333-1.306,0.456-1.871,0.299c-1.442-0.397-2.819-1.024-4.235-1.521
			c-1.074-0.377-2.187-1.037-3.251-0.979c-3.917,0.213-7.041-1.784-10.174-3.555c-1.742-0.986-3.505-1.6-5.379-2.156
			c-2.468-0.73-5.062-1.245-7.148-2.91c-0.675-0.537-1.451-1.157-1.75-1.911c-0.675-1.718-1.508-3.111-3.388-3.737
			c-0.388-0.131-0.543-0.938-0.822-1.422c-0.841-1.465-1.495-3.092-2.577-4.352c-2.497-2.904-6.061-4.348-9.282-6.244
			c-0.399-0.237-0.904-0.456-1.349-0.433c-1.308,0.071-1.774-0.633-1.674-1.756c0.106-1.155-0.472-1.282-1.398-1.251
			c-2.516,0.086-4.832-0.463-6.854-2.1c-0.464-0.373-1.236-0.372-1.874-0.517c-0.352-0.079-0.82,0.03-1.056-0.163
			c-1.838-1.521-3.778-2.959-5.391-4.695c-1.157-1.248-2.022-2.845-2.714-4.42c-0.68-1.55-1.785-2.398-3.218-3.086
			c-0.547-0.264-1.001-0.83-1.359-1.352c-1.433-2.097-2.924-4.168-4.173-6.371c-0.889-1.571-1.405-3.348-2.128-5.016
			c-0.933-2.142-1.93-4.256-2.841-6.408c-0.132-0.312-0.072-0.984,0.134-1.111c1.491-0.927,2.927-1.858,4.835-1.997
			c1.628-0.118,3.497-0.497,4.703-1.459c0.719-0.57,0.778-2.634,0.389-3.771c-0.532-1.562-1.676-2.918-3.878-2.246
			c-0.49,0.148-1.241-0.556-1.873-0.865c0.349-0.464,0.676-0.943,1.046-1.388c1.389-1.666,2.727-3.378,4.205-4.959
			c1.534-1.64,1.046-3.617,1.245-5.514c0.173-1.66,0.561-3.305,0.947-4.933c0.539-2.267,0.257-2.908-1.889-3.415
			c-2.246-0.53-3.556-1.935-4.488-3.998c-0.981-2.174-1.919-4.353-3.763-6.117c-0.839-0.802-2.354-2.417-0.621-4.09
			c0.224-0.215,0.085-0.82,0.095-1.244c0.045-2.257-0.438-4.51,0.038-6.773c0.201-0.962-0.233-1.648-0.918-2.478
			c-1.819-2.211-3.177-4.801-5.002-7.005c-1.093-1.316-1.786-3.1-3.841-3.637c-0.677-0.175-0.88-1.782-1.52-2.551
			c-1.064-1.273-2.308-2.396-3.472-3.586c-0.194-0.199-0.356-0.434-0.566-0.61c-1.163-0.98-1.682-2.825-3.671-2.721
			c-0.174,0.01-0.528-0.357-0.524-0.542c0.049-1.737-1.099-2.757-1.979-4.081c-1.496-2.26-3.028-4.448-5.153-6.063
			c-1.909-1.452-2.215-3.693-3.34-5.518c-0.734-1.19-0.839-2.874-2.723-2.997c-0.687-2.255-3.043-2.833-4.44-4.396
			c-1.188-1.326-2.641-2.424-4.029-3.562c-1.143-0.937-2.376-1.765-3.545-2.67c-1.739-1.348-3.61-2.57-5.146-4.123
			c-1.9-1.924-4.376-2.91-6.432-4.52c-0.72-0.564-1.083-1.759-1.296-2.735c-0.171-0.773-0.901-1.59,0.227-2.577
			c0.551-0.482,0.175-2.094,0.093-3.185c-0.023-0.317-0.486-0.601-0.748-0.9c-0.228,0.272-0.47,0.535-0.676,0.825
			c-0.058,0.082,0.02,0.249-0.021,0.356c-0.16,0.453-0.339,0.896-0.512,1.344c-0.674-0.277-1.561-0.377-1.971-0.872
			c-0.596-0.719-0.849-1.723-1.183-2.461c1.146-0.336,2.339-0.638,3.489-1.055c0.266-0.096,0.49-0.575,0.528-0.9
			c0.02-0.153-0.434-0.405-0.709-0.539c-0.651-0.319-1.607-0.412-1.933-0.922c-0.933-1.452-2.166-1.856-3.765-1.739
			c-0.254,0.019-0.574-0.396-0.805-0.662c-0.174-0.202-0.286-0.71-0.372-0.699c-2.084,0.289-2.825-1.837-4.459-2.497
			c-1.937-0.781-3.691-1.752-5.877-1.731c-1.352,0.013-2.907,0.101-3.297-1.93c-0.083-0.436-1.205-0.945-1.846-0.942
			c-1.276,0.005-1.833-0.349-2.493-1.578c-0.664-1.232-2.23-2.001-3.465-2.882c-0.22-0.155-0.801,0.063-1.143,0.245
			c-1.081,0.571-2.486-0.064-2.565-1.231c-0.068-1.03,0.312-2.16-0.912-2.868c-0.193-0.112-0.105-0.788-0.069-1.195
			c0.066-0.712,0.386-1.456,0.252-2.117c-0.345-1.709-0.268-3.141,1.127-4.466c0.642-0.608,0.766-1.745,1.172-2.619
			c0.387-0.831,0.548-1.802,1.829-1.923c1.238-0.117,0.945-1.442,0.489-1.656c-1.208-0.567-0.553-1.164-0.543-1.971
			c0.019-1.271-0.698-2.535-0.848-3.831c-0.33-2.838-2.627-3.783-4.646-4.926c-0.47-0.267-1.38,0.36-2.095,0.38
			c-1.194,0.033-2.607,0.298-3.552-0.22c-3.003-1.651-4.733-4.216-4.772-7.834c-0.024-2.223-1.249-2.696-3.362-3.238
			c-2.752-0.706-6.057-0.199-8.092-2.853c-0.876-1.142-2.335-2.047-1.997-3.858c0.031-0.167-0.165-0.52-0.312-0.555
			c-2.506-0.628-2.253-2.762-2.562-4.599c-0.068-0.406-0.151-0.852-0.37-1.186c-0.474-0.719-1.296-1.266,0.244-1.888
			c0.355-0.143,0.058-1.813,0.134-2.776c0.043-0.56,0.219-1.11,0.362-1.658c0.123-0.476,0.428-0.964,0.361-1.402
			c-0.032-0.209-0.736-0.41-1.148-0.444c-0.91-0.073-1.845,0.067-2.739-0.074c-0.737-0.118-1.43-0.516-2.142-0.787
			c-0.745-0.282-1.559-0.936-1.957,0.443c-0.075,0.261-0.43,0.667-0.581,0.637c-0.301-0.062-0.685-0.323-0.8-0.6
			c-0.653-1.595-1.541-2.311-3.416-1.679c-0.579,0.194-1.772-0.531-2.27-1.161c-2.249-2.85-4.799-5.602-6.33-8.823
			c-0.857-1.803-2.014-1.899-3.284-2.378c-2.647-0.996-3.923-3.276-5.54-5.345c-0.725-0.929-1.052-2.553-2.755-2.674
			c-0.377-0.026-0.974-0.694-1.014-1.11c-0.291-3.037-2.563-4.563-4.53-6.394c-0.59-0.549-0.804-1.591-1.007-2.451
			c-0.462-1.976-0.719-4.006-1.29-5.945c-0.125-0.421-1.34-0.919-1.856-0.756c-2.048,0.647-2.48-0.933-2.209-1.986
			c1.182-4.554-2.594-6.274-4.896-8.666c-1.096-1.139-0.859-2.311-1.326-3.426c-0.204-0.484-0.571-1.272-0.875-1.277
			c-1.395-0.024-1.321-0.86-1.291-1.82c0.049-1.585-0.083-3.186,0.083-4.754c0.164-1.545-0.736-2.469-1.548-3.521
			c-0.512-0.66-1.396-1.494-1.283-2.094c0.514-2.727-1.052-4.32-2.777-5.887c-1.936-1.758-2.728-4.158-3.673-6.471
			c-0.1-0.243,0.013-0.571,0.016-0.859c0.019-1.475,1.962-2.829,0.283-4.411c0.296-0.263,0.584-0.741,0.89-0.751
			c1.409-0.051,0.893-0.956,0.826-1.672c-0.004-0.051-0.096-0.091-0.105-0.146c-0.375-2.042-0.831-3.986-3.57-3.903
			c-0.167,0.006-0.278-0.688-0.543-0.865c-0.483-0.327-1.312-0.87-1.563-0.695c-2.233,1.551-3.98-0.065-5.866-0.755
			c-0.275-0.102-0.503-0.351-0.781-0.43c-1.884-0.543-2.607-1.846-2.35-3.698c0.157-1.125-0.369-1.549-1.332-1.897
			c-1.317-0.475-2.532-1.269-3.87-1.648c-1.052-0.298-2.307-1.022-3.079,0.81c-0.9,2.139-2.18,2.144-4.396,1.211
			c-3.592-1.511-6.623-3.718-9.465-6.31c-1.079-0.984-2.817-0.56-3.912,0.683c-0.13,0.146-0.477,0.284-0.613,0.214
			c-1.68-0.863-1.439,0.244-1.986,1.387c-1.414,2.955-0.797,5.979-1.081,8.968c-0.106,1.126-0.739,2.244-0.675,3.339
			c0.104,1.84,0.518,3.672,0.93,5.479c0.092,0.399,0.667,0.8,1.109,0.984c1.309,0.545,2.362,1.172,2.235,2.865
			c-0.1,1.335-0.047,2.682-0.049,4.024c-0.001,1.756,0.076,3.424,0.695,5.184c0.591,1.684,0.57,3.773,0.207,5.562
			c-0.689,3.396,0.43,6.049,2.637,8.402c1.039,1.111,2.318,1.996,3.39,3.081c0.264,0.267-0.011,1.02,0.226,1.372
			c0.532,0.792,1.328,2.155,1.84,2.082c2.346-0.336,3.413,1.542,4.144,2.776c1.165,1.966,3.264,2.647,4.543,4.32
			c0.539,0.705,1.404,1.162,2.115,1.737c0.792,0.639,1.703,1.182,2.337,1.952c1.026,1.246,1.869,2.642,2.787,3.975
			c0.447,0.647,0.798,1.401,1.366,1.915c1.058,0.957,1.67,2.018,1.525,3.476c-0.055,0.543-0.078,1.108,0.007,1.644
			c0.312,1.917,1.634,2.453,3.207,1.345c0.256-0.181,0.554-0.305,0.833-0.454c0.102,0.315,0.268,0.625,0.297,0.947
			c0.227,2.576,0.719,2.868,3.174,2.83c0.625-0.01,1.524,1.089,1.839,1.865c0.389,0.962,0.229,2.133,0.441,3.187
			c0.259,1.283,0.486,2.628,1.072,3.771c0.274,0.537,1.344,0.895,2.071,0.931c3.731,0.184,3.642,0.142,3.78,3.884
			c0.04,1.064,0.794,2.101,1.224,3.148c0.289,0.706,0.723,1.385,0.844,2.117c0.528,3.178,0.908,6.382,1.485,9.55
			c0.105,0.576,0.922,0.997,1.336,1.545c1.333,1.765,3.486,2.08,5.291,2.974c1.479,0.733,2.738,1.768,2.644,3.305
			c-0.143,2.351,0.988,3.93,2.315,5.539c0.034,0.042,0.155,0.049,0.156,0.073c0.037,4.509,3.811,3.202,6.228,4.004
			c0.114,0.038,0.23,0.072,0.796,0.569c-0.285,0.054-0.597,0.05-0.849,0.172c-1.544,0.746-1.812,2.343-0.733,3.758
			c0.625,0.82,1.009,1.84,1.703,2.585c0.454,0.489,1.242,0.767,1.921,0.875c0.174,0.027,0.505-0.96,0.777-1.506
			c1.618,1.037,3.49,1.958,4.975,3.305c0.782,0.71,1.226,2.169,1.215,3.284c-0.013,1.559,0.556,2.316,1.907,2.828
			c0.402,0.151,1.574,0.107,0.526,1.333c-0.541,0.634-0.896,2.444,0.975,3.074c0.462,0.156,0.813,1.036,0.963,1.645
			c0.356,1.451,0.595,2.933,0.816,4.412c0.139,0.946,0.379,1.952,0.203,2.857c-0.693,3.537,0.504,6.433,2.694,9.099
			c0.535,0.653,0.855,1.484,1.28,2.23c0.172,0.301,0.286,0.756,0.545,0.87c1.703,0.746,2.941,1.654,3.194,3.801
			c0.21,1.785,0.931,3.573,1.731,5.209c0.83,1.695,1.081,3.572,2.696,5.065c1.75,1.618,2.978,3.961,3.927,6.202
			c0.37,0.873-0.417,2.474-1.071,3.487c-1.066,1.649-0.642,3.272-0.38,4.92c0.133,0.832,0.83,1.648,0.758,2.424
			c-0.204,2.233,0.791,3.713,2.646,4.587c1.444,0.68,3.041,1.04,4.574,1.529c0.167,0.053,0.369-0.013,0.545,0.021
			c0.909,0.173,1.813,0.362,2.721,0.543c0.056-0.965,0.11-1.93,0.168-2.894c0.024-0.401,0.053-0.803,0.472-1.377
			c0.607,0.851,1.12,1.795,1.845,2.529c1.084,1.098,2.33,2.034,3.48,3.067c0.295,0.266,0.611,0.608,0.713,0.972
			c0.358,1.28,0.905,2.201,2.471,2.015c1.625-0.195,2.713,0.402,2.243,2.215c-0.518,1.992,1.376,2.855,1.794,4.384
			c0.102,0.37,0.349,0.719,0.371,1.088c0.186,2.827,0.789,3.595,3.488,4.066c1.428,0.25,2.127,1.181,2.752,2.356
			c0.703,1.318,1.387,2.643,0.99,4.158c-0.724,2.757-1.664,5.242-4.549,6.755c-1.812,0.95-3.188,2.786-4.667,4.312
			c-2.359,2.437-5.38,1.476-6.499-1.176c-0.638-1.512-0.659-3.274-1.161-4.862c-0.655-2.058-1.486-4.063-2.301-6.068
			c-0.484-1.191-0.928-2.442-1.662-3.472c-0.768-1.081-0.866-2.746-2.694-3.033c-1.221-0.194-2.385-0.79-3.553-1.254
			c-1.475-0.588-2.652-1.555-3.314-3.027c-0.992-2.206-2.974-3.164-4.979-4.145c-0.495-0.243-1.056-0.673-1.25-1.154
			c-1.491-3.66-4.385-5.763-7.823-7.332c-0.928-0.423-1.751-1.079-2.68-1.499c-0.976-0.44-2.004-0.785-3.039-1.06
			c-1.275-0.341-2.575-0.59-3.872-0.831c-0.757-0.139-1.542-0.131-2.294-0.284c-0.564-0.114-1.169-0.276-1.628-0.596
			c-1.076-0.753-2.083-1.605-3.1-2.438c-0.195-0.161-0.316-0.414-0.472-0.626c0.279-0.146,0.544-0.336,0.841-0.429
			c0.674-0.208,1.959-0.382,1.955-0.546c-0.029-1.277-0.073-2.649-0.563-3.799c-0.615-1.443-1.887-2.616-2.453-4.069
			c-0.521-1.344-1.652-0.939-1.992-0.642c-1.158,1.015-2.079,2.301-2.922,3.287c-0.502-0.584-1.299-1.501-2.068-2.443
			c-0.045-0.057,0.198-0.3,0.222-0.47c0.169-1.244,0.373-2.488,0.454-3.739c0.059-0.878-0.086-1.75,1.275-1.612
			c0.161,0.016,0.464-0.658,0.582-1.046c0.398-1.313,0.765-2.637,1.099-3.968c0.188-0.75,0.418-1.525,0.409-2.286
			c-0.042-3.332,0.104-6.699-0.353-9.979c-0.322-2.327-1.357-4.598-2.337-6.776c-0.751-1.673-1.58-3.408-3.484-4.265
			c-0.27-0.122-0.198-1.114-0.199-1.705c-0.002-2.814-0.396-3.263-3.178-3.688c-0.337-0.051-0.616-0.422-0.946-0.599
			c-0.793-0.425-1.633-1.227-2.393-1.164c-3.22,0.266-4.318-2.205-5.896-4.142c-0.385-0.473-0.989-0.79-1.537-1.103
			c-0.54-0.308-1.25-0.391-1.688-0.79c-3.13-2.844-6.664-5.076-10.457-6.886c-1.058-0.505-2.614-0.314-2.91,0.858
			c-0.606,2.392-2.107,0.98-2.587,0.514c-1.443-1.398-2.674-3.048-3.8-4.728c-0.909-1.359-2.233-1.503-3.445-1.196
			c-1.538,0.389-2.548-0.65-2.867-1.412c-1.195-2.855-3.357-3.295-6.011-3.15c-0.749,0.041-1.267-0.236-2.013-0.942
			c-1.984-1.881-1.91-4.587-3.453-6.485c-0.641-0.789-1.519-1.612-2.449-1.892c-1.914-0.578-2.826-2.264-4.283-3.319
			c-1.474-1.066-3.006-2.06-4.424-3.198c-0.425-0.34-0.548-1.057-0.809-1.602c0.425-0.196,0.907-0.634,1.267-0.55
			c2.523,0.59,5.058,1.181,7.514,1.996c1.205,0.4,4.148,0.26,5.127-0.637c1.894-1.738,3.926-3.346,5.651-5.236
			c1.472-1.611,3.443-3.139,2.839-5.823c-0.085-0.382-0.09-0.904-0.338-1.105c-1.141-0.927-1.104-1.688,0.007-2.643
			c0.829-0.714,1.574-5.726,1.071-6.599c-0.158-0.274-0.54-0.437-0.842-0.609c-0.248-0.14-0.773-0.258-0.764-0.315
			c0.325-1.866-1.367-1.624-2.207-2.349c-1.351-1.167-2.57-2.73-3.235-4.375c-0.597-1.477-1.206-2.262-2.799-2.308
			c-0.449-0.012-1.035-0.326-1.302-0.689c-0.797-1.092-1.463-2.282-2.194-3.427c-0.177-0.278-0.348-0.609-0.608-0.778
			c-2.708-1.747-4.195-4.744-6.741-6.605c-1.172-0.858-2.727-1.189-4.104-1.768c-0.555-0.234-1.141-0.426-1.641-0.747
			c-2.865-1.836-5.933-3.441-8.478-5.652c-1.708-1.484-4.73-2.264-4.316-5.589c0.065-0.522-0.637-1.214-1.109-1.71
			c-0.776-0.816-1.555-1.502-1.381-2.852c0.18-1.381,0.175-2.812,0.042-4.201c-0.148-1.547-0.451-3.092-0.857-4.592
			c-0.125-0.46-0.908-1.152-1.233-1.075c-1.418,0.333-2.149-0.816-3.175-1.277c-0.278-0.125-0.464-0.747-0.47-1.145
			c-0.036-1.829-0.122-3.672,0.059-5.486c0.181-1.822-0.517-2.98-1.942-4.015c-1.497-1.085-2.877-2.346-4.2-3.641
			c-0.432-0.423-0.836-1.26-0.72-1.794c0.781-3.614-1.86-5.944-3.142-8.777c-0.247-0.545-0.562-1.058-0.857-1.581
			c-0.131-0.23-0.283-0.634-0.436-0.639c-1.776-0.056-2.009-1.939-3.203-2.682c-0.167-0.105-0.119-0.657-0.062-0.983
			c0.031-0.184,0.437-0.363,0.409-0.487c-0.26-1.163-0.575-2.314-0.873-3.467c2.09-0.057,1.244-1.656,1.3-2.654
			c0.111-1.925-2.066-1.791-2.888-2.952c-0.719-1.014-1.797-1.569-2.975-2.1c-0.55-0.247-0.706-2.002-0.569-3.012
			c0.311-2.297-1.104-3.34-2.769-4.07c-0.922-0.405-1.161-0.912-1.418-1.765c-0.355-1.178-0.956-2.292-1.526-3.395
			c-0.646-1.25-0.166-2.139,1.286-2.219c2.051-0.111,4.105-0.192,6.154-0.311c3.559-0.206,7.113-0.446,10.673-0.647
			c2.294-0.129,4.659,0.101,6.872-0.382c4.191-0.917,8.398-0.875,12.63-0.958c2.219-0.042,4.515-0.125,6.63-0.714
			C-59.902,138.041-55.652,138.724-51.09,138.059z"/>
		<path d="M123.357,640.333c-0.576,1.257-0.976,2.38-1.581,3.377c-0.56,0.923-1.25,2.032-2.289,0.247
			c-0.168-0.29-1.147-0.13-1.752-0.139c-1.143-0.019-2.29,0.052-3.428-0.024c-1.102-0.073-1.517-0.591-2.088-1.771
			c-1.185-2.451-0.878-2.748,1.746-3.256c1.562-0.303,2.965-1.732,4.885-1.172c1.033,0.304,2.178,0.341,3.114,0.812
			C122.55,638.701,122.842,639.581,123.357,640.333z"/>
		<path d="M104.153,671.167c-0.612-0.309-1.566-0.566-1.569-0.832c-0.006-0.774,0.136-1.974,0.637-2.251
			c1.612-0.891,2.743-2.939,5.072-2.348c0.177,0.045,0.609-0.519,0.756-0.868c0.131-0.312,0.011-0.722,0.035-1.087
			c0.101-1.566,0.455-2.706,2.523-2.45c1.06,0.131,2.197-0.427,3.311-0.6c0.186-0.029,0.64,0.402,0.611,0.474
			c-0.192,0.461-0.396,0.977-0.754,1.299c-1.705,1.533-3.809,2.767-5.09,4.584c-1.062,1.508-2.354,2.379-3.8,3.238
			C105.371,670.631,104.808,670.854,104.153,671.167z"/>
		<path d="M141.432,714.078c-1.589-1.354-2.503-3.942-5.171-1.943c-0.029,0.021-0.623-0.479-0.582-0.643
			c0.095-0.377,0.363-0.923,0.66-0.995c0.632-0.155,1.332-0.013,1.996-0.073c0.37-0.034,0.98-0.151,1.046-0.366
			c0.36-1.178,0.742-0.896,1.29-0.147c0.105,0.144,0.452,0.1,0.68,0.165c0.549,0.157,1.095,0.328,1.642,0.494
			c-0.35,0.289-0.884,0.515-1.014,0.882C141.693,712.261,141.612,713.144,141.432,714.078z"/>
		<path d="M119.918,786.377c-0.43,0.227-0.719,0.412-1.032,0.538c-1.423,0.578-3.074,0.862-4.217,1.782
			c-1.194,0.962-1.47-0.14-2.135-0.411c0.159-0.325,0.233-0.818,0.491-0.948c1.094-0.552,2.212-1.097,3.381-1.448
			c0.915-0.275,1.915-0.293,2.882-0.35C119.431,785.532,119.598,785.938,119.918,786.377z"/>
		<path d="M317.616,497.812c0.046,0.038,0.416,0.351,0.786,0.662c-0.81,0.741-1.53,1.628-2.454,2.175
			c-0.597,0.352-1.284,0.021-1.176-0.979C314.928,498.248,315.757,497.725,317.616,497.812z"/>
		<path d="M321.338,497.284c-0.777-0.485-1.719-0.838-1.694-1.102c0.073-0.784,0.524-1.536,0.829-2.3
			c0.288,0.146,0.809,0.269,0.826,0.442C321.387,495.151,321.338,495.992,321.338,497.284z"/>
		<path d="M199.539,611.873c-1.679,0.346-2.744-0.109-2.572-2.283C197.786,610.317,198.605,611.045,199.539,611.873z"/>
	</g>
</g>
</svg>
