<?xml version="1.0" encoding="utf-8"?>
<!-- Generator: Adobe Illustrator 16.0.3, SVG Export Plug-In . SVG Version: 6.00 Build 0)  -->
<!DOCTYPE svg PUBLIC "-//W3C//DTD SVG 1.1//EN" "http://www.w3.org/Graphics/SVG/1.1/DTD/svg11.dtd">
<svg version="1.1" id="boy.slave_xA0_Image_1_" xmlns="http://www.w3.org/2000/svg" xmlns:xlink="http://www.w3.org/1999/xlink"
	 x="0px" y="0px" width="766px" height="801.08px" viewBox="-276.031 0 766 801.08" enable-background="new -276.031 0 766 801.08"
	 xml:space="preserve">
<g>
	<g>
		<path fill="none" stroke="#FFFFFF" stroke-miterlimit="10" d="M387.503,456.96c1.3,0.344,2.709,1.193,3.892,0.95
			c9.882-1.999,20.583-2.809,25.36-13.937c3.134-7.311,6.587-14.573,4.642-23.035c-1.168-5.087-2.588-10.374-2.324-15.492
			c1.218-23.608,3.085-47.182,4.494-70.781c0.382-6.421,0.683-12.989-0.209-19.315c-2.553-18.139-9.327-35.522-9.899-54.035
			c-0.045-1.442,0.237-3.47,1.18-4.266c4.303-3.638,5.056-5.115,1.524-9.502c-5.214-6.479-6.855-14.08-7.977-21.837
			c-1.946-13.475-5.624-26.39-11.395-38.702c-0.406-0.867-1.409-1.606-2.31-2.06c-12.404-6.202-24.823-12.373-37.268-18.486
			c-5.974-2.935-12.013-5.73-18.197-8.671c0-0.476-0.126-1.253,0.021-1.975c2.114-10.541,4.834-20.999,6.243-31.63
			c1.394-10.506,2.043-21.265-1.197-31.633c-1.496-4.787-2.909-10.278-6.186-13.697c-8.067-8.418-17.482-14.867-30.267-9.755
			c-0.754,0.302-1.81-0.01-2.695-0.19c-7.021-1.429-25.322,9.735-28.131,16.206c-2.649,6.103-5.354,11.804-5.383,18.747
			c-0.028,8.244,0.357,16.139,3.813,23.864c4.9,10.955,9.216,22.173,13.71,33.309c0.357,0.883,0.565,2.56,0.102,2.923
			c-5.035,3.948-10.003,8.056-15.436,11.393c-3.6,2.211-8.846,2.271-11.726,5.008c-5.983,5.685-12.926,8.737-20.55,10.956
			c-1.389,0.407-3.281,1.084-3.795,2.179c-3.534,7.52-7.72,14.93-9.864,22.867c-3.046,11.278-4.231,23.047-6.793,34.473
			c-1.104,4.928-0.581,8.578,3.307,11.903c1.058,0.907,1.853,2.973,1.666,4.356c-2.845,21.111-5.812,42.202-13.911,62.148
			c-0.848,2.087-1.239,4.461-1.36,6.727c-1.625,30.352-3.733,60.649-8.944,90.648c-0.415,2.395-0.46,5.037,0.099,7.375
			c1.141,4.756,2.592,9.472,4.36,14.036c0.902,2.331,2.302,4.993,4.276,6.278c5.961,3.887,12.313,7.174,18.515,10.694
			c0.583-0.312,1.168-0.63,1.753-0.944c-0.179-2.402-0.357-4.804-0.529-7.129c2.646,0.384,3.763-2.005,2.703-4.068
			c-2.754-5.364-0.546-10.365,0.345-15.427c0.845-4.791,0-9.123-1.99-13.436c-1.678-3.64-3.142-7.379-4.627-11.106
			c-3.323-8.334-4.283-15.771,0.335-24.914c6.831-13.527,11.799-28.217,15.823-42.887c6.2-22.6,10.922-45.606,16.288-68.435
			c0.293-1.248,0.757-2.455,1.141-3.682c2.169,11.187,4.697,22.198,1.246,33.386c-0.474,1.536-0.485,3.226-0.631,4.85
			c-0.401,4.506,0.007,9.265-1.349,13.459c-1.405,4.343-2.428,8.323-1.918,12.972c0.602,5.501,0.496,11.126,0.139,16.665
			c-0.266,4.108-0.317,8.908-2.452,12.057c-3.013,4.442-3.646,8.714-3.42,13.677c0.223,4.93-0.158,9.891,0.064,14.82
			c0.109,2.395,1.607,4.811,1.405,7.123c-0.537,6.136-2.319,12.213-2.417,18.333c-0.267,16.717-2.157,33.188-4.603,49.721
			c-1.518,10.245,0.175,20.926-0.287,31.378c-0.529,12.049,1.249,24.037-2.084,36.257c-1.762,6.46,2.008,14.43,3.397,22.388
			c-3.104,2.502-7.332,5.513-5.292,12.151c0.579,1.882-1.539,4.539-2.235,6.893c-0.685,2.313-2.035,4.927-1.508,7.002
			c1.325,5.22,1.104,9.979-1.483,14.68c-0.433,0.788-0.771,1.753-0.764,2.629c0.086,9.69,0.338,19.382,0.35,29.073
			c0.006,4.44-0.456,8.882-0.641,13.326c-0.137,3.354-0.045,6.727-0.285,10.071c-0.317,4.446-0.322,9.021-1.447,13.277
			c-1.247,4.709-4.204,8.981-5.344,13.699c-1.701,7.055-3.243,14.023,0.559,21.438c3.462,6.756,7.086,14.455,7.044,21.717
			c-0.053,8.966-2.705,18.392-6.315,26.72c-3.172,7.312,0.135,11.216,6.878,12.307c8.5,1.379,17.22,1.449,25.854,1.917
			c3.682,0.199,8.82-3.337,9.187-6.862c0.744-7.148,1.145-14.362,1.102-21.547c-0.021-3.347-1.541-6.57,2.918-8.396
			c0.971-0.398,1.372-2.621,1.7-4.079c1.483-6.622,2.801-13.205,7.428-18.668c2.298-2.718,3.122-6.047,2.062-9.94
			c-0.817-2.997-0.832-6.415-0.382-9.523c1.044-7.21,3.324-14.303,3.768-21.523c0.864-13.99-0.316-28.187,1.456-42.021
			c1.725-13.472,2.651-27.165,7.263-40.337c2.813-8.045,3.032-17.049,3.999-25.669c0.492-4.407-0.393-8.973,0.15-13.368
			c1.284-10.407,3.024-20.756,4.62-31.123c1.011-6.545,1.979-13.101,3.194-19.606c1.036-5.535,2.835-10.954,3.53-16.519
			c1.267-10.117,1.964-20.308,2.898-30.471c1.128,3.533,1.327,7.065,1.815,10.555c1.839,13.04,0.29,26.611,6.146,39.044
			c0.83,1.761,0.984,3.88,1.285,5.854c1.777,11.745,3.457,23.508,5.265,35.248c1.795,11.655-0.244,23.579,2.598,35.166
			c1.204,4.916,1.907,9.949,3.071,14.872c1.133,4.788,3.53,9.482,3.674,14.266c0.365,12.285,2.439,24.38,2.644,36.756
			c0.279,16.694-0.356,33.889,5.762,50.075c-3.38,10.391,0.76,19.031,6.239,27.428c0.715,1.096,0.63,2.686,1.032,4.014
			c1.285,4.243,0.554,9.486,5.908,11.771c0.44,0.188,0.694,1.728,0.454,2.454c-2.668,8.164-0.288,16.221,0.445,24.3
			c0.333,3.643,5.191,8.043,8.81,7.853c8.942-0.471,17.897-0.931,26.804-1.825c6.302-0.637,9.012-5.584,7.221-10.617
			c-2.669-7.498-4.71-15.227-6.796-22.916c-0.594-2.183-1.062-4.754-0.479-6.837c1.783-6.355,3.299-13.002,6.414-18.717
			c4.696-8.607,3.729-16.923,0.64-25.265c-3.588-9.692-7.187-19.245-5.624-29.884c0.216-1.461-0.361-3.034-0.554-4.563
			c-0.386-3.049-1.145-6.109-1.072-9.147c0.343-14.505,2.556-29.099-2.711-43.257c-0.286-0.77-0.02-1.86,0.271-2.705
			c1.657-4.81,0.777-9.233-1.191-13.822c-1.063-2.487-0.745-5.544-1.235-8.31c-0.283-1.604-0.598-3.377-1.496-4.652
			c-1.487-2.106-3.454-3.872-5.391-5.97c0.647-1.322,1.567-2.922,2.239-4.625c2.286-5.8,3.694-11.697,2.361-18.024
			c-0.942-4.45-1.96-8.95-2.186-13.467c-0.361-7.09-0.676-14.275,0.051-21.307c1.537-14.902,0.882-29.587-2.36-44.185
			L387.503,456.96z"/>
		<path fill="#FFFFFF" stroke="#FFFFFF" stroke-miterlimit="10" d="M387.547,456.869c3.242,14.598,3.896,29.282,2.359,44.184
			c-0.726,7.035-0.407,14.218-0.049,21.309c0.227,4.517,1.248,9.021,2.185,13.468c1.333,6.324-0.076,12.227-2.362,18.024
			c-0.672,1.703-1.592,3.305-2.238,4.625c1.94,2.098,3.906,3.861,5.391,5.97c0.899,1.274,1.217,3.047,1.495,4.652
			c0.491,2.765,0.173,5.823,1.235,8.31c1.969,4.59,2.849,9.017,1.191,13.823c-0.29,0.842-0.558,1.936-0.271,2.703
			c5.269,14.16,3.055,28.757,2.711,43.257c-0.072,3.04,0.687,6.101,1.072,9.148c0.192,1.526,0.771,3.104,0.555,4.563
			c-1.565,10.639,2.034,20.188,5.623,29.883c3.089,8.344,4.058,16.658-0.639,25.267c-3.115,5.713-4.629,12.361-6.416,18.717
			c-0.585,2.082-0.113,4.655,0.481,6.837c2.086,7.689,4.127,15.418,6.794,22.915c1.792,5.035-0.918,9.984-7.221,10.618
			c-8.904,0.894-17.863,1.354-26.803,1.824c-3.618,0.19-8.476-4.211-8.809-7.853c-0.737-8.081-3.111-16.135-0.444-24.3
			c0.239-0.723-0.02-2.263-0.457-2.454c-5.353-2.284-4.621-7.529-5.907-11.772c-0.405-1.327-0.32-2.918-1.032-4.011
			c-5.477-8.396-9.618-17.038-6.239-27.428c-6.118-16.187-5.482-33.381-5.761-50.076c-0.205-12.376-2.277-24.473-2.645-36.755
			c-0.143-4.783-2.543-9.478-3.675-14.266c-1.164-4.926-1.867-9.959-3.07-14.872c-2.84-11.59-0.804-23.512-2.599-35.167
			c-1.804-11.739-3.486-23.502-5.263-35.248c-0.3-1.978-0.451-4.093-1.285-5.854c-5.856-12.436-4.307-26.004-6.146-39.044
			c-0.489-3.49-0.688-7.021-1.816-10.555c-0.935,10.161-1.632,20.352-2.897,30.472c-0.696,5.565-2.492,10.986-3.53,16.518
			c-1.217,6.506-2.183,13.062-3.194,19.606c-1.602,10.368-3.341,20.717-4.621,31.122c-0.542,4.394,0.341,8.962-0.152,13.368
			c-0.967,8.621-1.186,17.623-3.999,25.669c-4.609,13.173-5.536,26.864-7.262,40.337c-1.773,13.842-0.594,28.032-1.454,42.021
			c-0.446,7.222-2.726,14.314-3.77,21.523c-0.451,3.11-0.435,6.525,0.382,9.525c1.062,3.892,0.239,7.221-2.062,9.938
			c-4.628,5.463-5.943,12.047-7.428,18.668c-0.329,1.458-0.73,3.684-1.701,4.08c-4.459,1.824-2.938,5.045-2.918,8.395
			c0.044,7.184-0.356,14.398-1.101,21.548c-0.367,3.527-5.506,7.062-9.185,6.861c-8.634-0.47-17.354-0.537-25.854-1.918
			c-6.745-1.093-10.052-4.996-6.881-12.306c3.611-8.326,6.264-17.755,6.316-26.718c0.043-7.263-3.579-14.963-7.042-21.719
			c-3.802-7.413-2.262-14.384-0.559-21.438c1.139-4.722,4.095-8.991,5.342-13.7c1.126-4.26,1.131-8.83,1.448-13.277
			c0.239-3.345,0.146-6.716,0.286-10.072c0.183-4.444,0.645-8.885,0.64-13.325c-0.013-9.689-0.265-19.38-0.35-29.072
			c-0.008-0.878,0.331-1.842,0.763-2.63c2.588-4.701,2.809-9.458,1.483-14.679c-0.527-2.077,0.825-4.689,1.508-7.002
			c0.696-2.354,2.814-5.007,2.235-6.894c-2.04-6.638,2.19-9.647,5.293-12.151c-1.39-7.959-5.159-15.927-3.398-22.388
			c3.332-12.22,1.554-24.206,2.085-36.257c0.461-10.45-1.23-21.132,0.285-31.377c2.449-16.534,4.338-33.005,4.604-49.722
			c0.097-6.119,1.88-12.195,2.417-18.333c0.202-2.312-1.296-4.728-1.404-7.123c-0.224-4.93,0.156-9.89-0.066-14.82
			c-0.224-4.963,0.406-9.235,3.42-13.677c2.135-3.148,2.185-7.948,2.452-12.057c0.359-5.538,0.464-11.164-0.139-16.665
			c-0.511-4.651,0.516-8.631,1.919-12.972c1.355-4.193,0.945-8.951,1.348-13.46c0.146-1.626,0.158-3.315,0.633-4.85
			c3.449-11.186,0.921-22.198-1.248-33.385c-0.384,1.224-0.847,2.434-1.14,3.682c-5.368,22.829-10.091,45.835-16.29,68.435
			c-4.023,14.669-8.991,29.36-15.822,42.886c-4.616,9.143-3.657,16.581-0.334,24.914c1.485,3.728,2.948,7.466,4.628,11.106
			c1.99,4.313,2.834,8.646,1.99,13.436c-0.893,5.062-3.098,10.062-0.346,15.428c1.06,2.062-0.059,4.451-2.702,4.066
			c0.174,2.326,0.35,4.729,0.528,7.129c-0.585,0.315-1.17,0.63-1.755,0.946c-6.199-3.521-12.553-6.81-18.514-10.695
			c-1.974-1.287-3.374-3.95-4.275-6.278c-1.767-4.563-3.218-9.279-4.358-14.036c-0.562-2.338-0.517-4.979-0.1-7.374
			c5.209-30.001,7.319-60.295,8.944-90.649c0.122-2.265,0.513-4.64,1.36-6.727c8.099-19.948,11.067-41.04,13.911-62.148
			c0.187-1.386-0.607-3.454-1.667-4.358c-3.886-3.326-4.412-6.974-3.305-11.904c2.562-11.425,3.747-23.194,6.792-34.472
			c2.145-7.939,6.329-15.346,9.864-22.868c0.513-1.093,2.405-1.771,3.795-2.178c7.624-2.221,14.566-5.274,20.547-10.956
			c2.881-2.737,8.129-2.799,11.727-5.007c5.432-3.338,10.4-7.445,15.435-11.394c0.464-0.363,0.255-2.04-0.099-2.922
			c-4.494-11.137-8.809-22.353-13.711-33.309c-3.457-7.725-3.843-15.621-3.812-23.864c0.023-6.942,2.729-12.645,5.381-18.747
			c2.807-6.472,21.109-17.634,28.129-16.206c0.886,0.18,1.943,0.493,2.696,0.19c12.784-5.112,22.198,1.336,30.268,9.755
			c3.274,3.419,4.689,8.91,6.186,13.697c3.239,10.369,2.589,21.127,1.197,31.634c-1.409,10.632-4.13,21.089-6.241,31.63
			c-0.146,0.721-0.021,1.499-0.021,1.974c6.182,2.94,12.222,5.737,18.194,8.671c12.449,6.114,24.863,12.284,37.268,18.488
			c0.904,0.449,1.909,1.191,2.31,2.059c5.771,12.311,9.448,25.226,11.396,38.701c1.121,7.757,2.765,15.357,7.979,21.836
			c3.533,4.388,2.778,5.865-1.527,9.502c-0.943,0.793-1.221,2.824-1.179,4.266c0.57,18.513,7.345,35.896,9.897,54.035
			c0.892,6.327,0.592,12.895,0.208,19.315c-1.406,23.6-3.274,47.173-4.493,70.782c-0.263,5.119,1.155,10.405,2.325,15.492
			c1.946,8.461-1.507,15.725-4.643,23.035c-4.775,11.128-15.475,11.936-25.358,13.937c-1.185,0.242-2.592-0.606-3.883-0.975
			c1.486-2.183,2.965-4.345,4.578-6.707c-1.636,0-3.171,0-6.271,0c6.351-5.04,3.307-9.597,2.058-14.509
			c-1.224-4.819-2.224-10.319-1.064-14.955c1.297-5.192,4.936-9.873,7.911-14.551c6.223-9.781,7.131-20.528,5.593-31.521
			c-1.947-13.899-5.26-27.644-6.608-41.587c-1.684-17.401-3.35-34.704-8.857-51.406c-0.47-1.433-0.903-2.879-1.353-4.315
			c-0.6,0.087-1.204,0.173-1.806,0.258c-0.193,8.124-0.404,16.245-0.568,24.364c-0.063,3.069,0.062,6.144-0.065,9.207
			c-0.244,5.634-0.985,11.271-0.846,16.89c0.195,7.804,2.353,15.526-0.424,23.385c-1.695,4.793-3.512,10.057,1.714,14.277
			c0.504,0.408,0.598,1.401,0.756,2.148c2.263,10.448,3.215,20.907,0.366,31.427c-0.27,0.995-0.157,2.137-0.043,3.188
			c0.841,7.812,1.866,15.607,2.568,23.432C386.075,436.255,386.757,446.567,387.547,456.869z"/>
		<path fill="none" stroke="#FFFFFF" stroke-miterlimit="10" d="M387.547,456.869c-0.792-10.3-1.472-20.612-2.396-30.906
			c-0.702-7.823-1.726-15.619-2.57-23.431c-0.114-1.055-0.228-2.194,0.042-3.188c2.853-10.52,1.901-20.978-0.362-31.426
			c-0.163-0.749-0.255-1.741-0.761-2.148c-5.222-4.224-3.404-9.486-1.712-14.278c2.776-7.859,0.621-15.58,0.424-23.383
			c-0.141-5.621,0.6-11.259,0.846-16.892c0.135-3.063,0.004-6.136,0.066-9.207c0.17-8.123,0.374-16.244,0.568-24.362
			c0.602-0.09,1.204-0.175,1.806-0.26c0.451,1.439,0.882,2.882,1.354,4.315c5.506,16.702,7.17,34.005,8.854,51.406
			c1.351,13.944,4.663,27.684,6.609,41.586c1.537,10.993,0.63,21.739-5.594,31.521c-2.976,4.679-6.613,9.361-7.911,14.552
			c-1.158,4.636-0.157,10.135,1.065,14.954c1.252,4.915,4.292,9.472-2.058,14.509c3.1,0,4.637,0,6.272,0
			c-1.616,2.367-3.094,4.526-4.58,6.706C387.503,456.96,387.547,456.869,387.547,456.869z"/>
	</g>
</g>
<g>
	<g>
		<path fill="none" d="M175.835,828.04c-69.95,0-139.895,0-209.843,0c0-259.015,0-518.026,0-777.04c69.948,0,139.893,0,209.843,0
			C175.835,310.014,175.835,569.025,175.835,828.04z M156.678,596.167c-5.929-15.701-12.736-28.985-15.871-43.149
			c-4.762-21.479-7.203-43.544-9.999-65.442c-0.392-3.032,2.07-7.395,4.492-9.7c7.613-7.243,12.444-15.416,12.231-26.483
			c-0.566-29.354-0.562-58.731-1.66-88.065c-0.361-9.562-3.244-19.064-5.332-28.507c-1.292-5.832-4.312-11.408-4.754-17.251
			c-1.899-24.919-2.973-49.902-4.636-74.84c-1.867-27.992-5.949-31.803-32.634-33.403c-3.948-0.239-7.75-3.062-11.186-4.502
			c9.433-9.399,17.478-17.176,25.149-25.331c1.09-1.159,0.613-4.194,0.43-6.32c-1.752-19.725-2.576-39.607-5.677-59.104
			C103.629,91.427,94.61,84.28,73.754,83.576c-2.027-0.067-4.07-1.468-6.03-1.299c-6.659,0.57-14.503-0.506-19.699,2.776
			c-16.877,10.67-23.587,27.638-23.608,47.933c-0.006,5.851-1.138,11.901-2.854,17.496c-2.672,8.725,1.296,22.099,9.159,27.105
			c-1.424,2.882-2.895,5.856-4.103,8.294c2.855,3.336,6.773,5.798,7.034,8.62c0.851,9.158,5.818,12.186,14.054,13.521
			c-4.665,1.905-9.003,2.25-13.272,1.846c-17.278-1.647-24.884,3.751-28.119,21.25c-1.375,7.435-1.812,15.103-2.151,22.691
			c-1.386,30.957,0.391,61.868-8.477,92.538c-4.753,16.44-2.615,35.211-2.499,52.919c0.142,21.298,0.769,42.655,2.628,63.845
			c0.607,6.923,4.498,14.645,9.185,19.712c3.519,3.8,5.255,6.472,5.176,11.593C9.844,516.17,9.876,537.93,9.84,559.685
			c-0.027,16.587,1.271,33.439-11.356,48.247c10.438,2.179,19.214,4.009,28.361,5.917c5.682,32.057,11.778,63.692,16.566,95.538
			c1.067,7.105-2.442,14.958-3.879,22.458c-0.599,3.123-1.98,6.258-1.82,9.319c0.632,12.152,5.972,16.735,21.122,19.133
			c6.444,1.022,10.51-1.241,10.305-8.407c-0.213-7.593-0.546-15.254-1.716-22.729c-6.11-39.007-4.141-78.065-1.013-117.126
			c0.256-3.159,2.76-6.124,4.221-9.185c1.179,0.44,2.361,0.876,3.54,1.317c0.903,16.896,2.79,33.812,2.492,50.685
			c-0.558,31.49-2.384,62.95-3.679,94.422c-0.19,4.623-1.597,10.082,5.288,10.763c16.057,1.593,26.034-8.86,22.692-24.962
			c-5.122-24.68-4.273-48.679,2.942-72.873c4.735-15.877,8.081-32.269,10.922-48.643c1.314-7.558,3.678-10.376,11.23-10.274
			C137.155,603.423,148.286,602.238,156.678,596.167z"/>
		<path fill="#FFFFFF" d="M156.678,596.167c-8.392,6.071-19.523,7.256-30.621,7.114c-7.554-0.094-9.916,2.725-11.23,10.278
			c-2.841,16.374-6.187,32.766-10.922,48.638c-7.215,24.199-8.067,48.2-2.942,72.878c3.342,16.102-6.635,26.554-22.692,24.962
			c-6.88-0.681-5.479-6.14-5.288-10.761c1.295-31.474,3.121-62.937,3.679-94.424c0.298-16.873-1.592-33.788-2.492-50.684
			c-1.179-0.439-2.357-0.878-3.54-1.318c-1.458,3.058-3.969,6.021-4.221,9.188c-3.128,39.055-5.1,78.118,1.013,117.123
			c1.17,7.479,1.503,15.136,1.716,22.729c0.205,7.166-3.861,9.43-10.305,8.407c-15.15-2.397-20.489-6.98-21.122-19.133
			c-0.16-3.063,1.224-6.198,1.82-9.319c1.437-7.499,4.944-15.353,3.879-22.458c-4.788-31.851-10.884-63.481-16.566-95.538
			c-9.147-1.908-17.923-3.738-28.361-5.917c12.629-14.808,11.329-31.659,11.356-48.247c0.036-21.755,0.004-43.515,0.339-65.265
			c0.081-5.124-1.66-7.798-5.176-11.595c-4.689-5.065-8.578-12.79-9.185-19.713c-1.859-21.192-2.487-42.547-2.628-63.845
			c-0.116-17.709-2.252-36.483,2.499-52.921c8.866-30.671,7.089-61.582,8.477-92.539c0.342-7.586,0.777-15.257,2.151-22.691
			c3.234-17.498,10.841-22.897,28.119-21.25c4.271,0.408,8.609,0.059,13.272-1.845c-8.236-1.337-13.204-4.365-14.054-13.521
			c-0.261-2.824-4.179-5.284-7.034-8.62c1.208-2.435,2.676-5.411,4.103-8.293c-7.865-5.009-11.832-18.383-9.157-27.104
			c1.714-5.595,2.848-11.647,2.854-17.496c0.021-20.294,6.731-37.262,23.607-47.933c5.194-3.288,13.039-2.208,19.697-2.775
			c1.96-0.168,4.005,1.229,6.03,1.298c20.858,0.702,29.875,7.847,33.474,30.493c3.104,19.497,3.928,39.384,5.677,59.105
			c0.188,2.127,0.659,5.159-0.43,6.321c-7.669,8.156-15.715,15.929-25.147,25.33c3.433,1.439,7.231,4.263,11.188,4.502
			c26.681,1.598,30.763,5.408,32.634,33.403c1.664,24.938,2.737,49.923,4.634,74.843c0.442,5.843,3.459,11.421,4.756,17.25
			c2.088,9.441,4.971,18.945,5.332,28.507c1.096,29.335,1.089,58.709,1.66,88.065c0.213,11.067-4.618,19.243-12.236,26.483
			c-2.417,2.308-4.878,6.667-4.49,9.701c2.799,21.898,5.239,43.964,10.002,65.441C143.942,567.182,150.753,580.467,156.678,596.167z
			 M108.79,299.455c-3.591,17.004-13.843,34.765,4.034,49.937C111.479,332.747,110.133,316.104,108.79,299.455z M28.944,308.588
			c-1.768,13.461-3.326,25.312-5.252,39.96C35.358,335.333,36.493,324.773,28.944,308.588z"/>
		<path fill="none" d="M108.79,299.455c1.343,16.645,2.688,33.29,4.034,49.937C94.947,334.22,105.199,316.461,108.79,299.455z"/>
		<path fill="none" d="M28.944,308.588c7.548,16.185,6.414,26.744-5.252,39.96C25.619,333.903,27.177,322.047,28.944,308.588z"/>
	</g>
</g>
<g>
	<g>
		<path fill="none" d="M-40.254,827.152c-69.95,0-139.895,0-209.843,0c0-259.015,0-518.026,0-777.04c69.948,0,139.893,0,209.843,0
			C-40.254,309.126-40.254,568.138-40.254,827.152z M-59.411,595.279c-5.929-15.701-12.736-28.985-15.871-43.149
			c-4.762-21.479-7.203-43.544-9.998-65.442c-0.392-3.032,2.07-7.395,4.492-9.7c7.613-7.243,12.443-15.416,12.23-26.483
			c-0.566-29.354-0.562-58.731-1.66-88.065c-0.361-9.562-3.244-19.064-5.332-28.507c-1.292-5.832-4.312-11.408-4.754-17.251
			c-1.898-24.919-2.973-49.902-4.636-74.84c-1.866-27.992-5.948-31.803-32.634-33.403c-3.947-0.239-7.75-3.062-11.186-4.502
			c9.434-9.399,17.478-17.176,25.148-25.331c1.09-1.159,0.613-4.194,0.43-6.32c-1.752-19.725-2.576-39.607-5.676-59.104
			c-3.604-22.641-12.622-29.788-33.479-30.491c-2.026-0.067-4.069-1.468-6.029-1.299c-6.659,0.57-14.503-0.506-19.699,2.776
			c-16.877,10.67-23.587,27.638-23.608,47.933c-0.006,5.851-1.138,11.901-2.854,17.496c-2.672,8.725,1.296,22.099,9.159,27.105
			c-1.424,2.882-2.895,5.856-4.103,8.294c2.855,3.336,6.773,5.798,7.034,8.62c0.851,9.158,5.818,12.186,14.054,13.521
			c-4.665,1.905-9.003,2.25-13.272,1.846c-17.278-1.647-24.884,3.751-28.119,21.25c-1.375,7.435-1.812,15.103-2.151,22.691
			c-1.386,30.957,0.391,61.868-8.477,92.538c-4.753,16.44-2.615,35.211-2.499,52.919c0.142,21.298,0.769,42.655,2.628,63.845
			c0.607,6.923,4.498,14.645,9.185,19.712c3.519,3.8,5.255,6.472,5.176,11.593c-0.335,21.753-0.303,43.513-0.339,65.268
			c-0.027,16.587,1.271,33.439-11.356,48.247c10.438,2.179,19.214,4.009,28.361,5.917c5.682,32.057,11.778,63.692,16.566,95.538
			c1.067,7.105-2.442,14.958-3.879,22.458c-0.599,3.123-1.98,6.258-1.82,9.319c0.632,12.152,5.972,16.735,21.122,19.133
			c6.444,1.022,10.51-1.241,10.305-8.407c-0.213-7.593-0.546-15.254-1.717-22.729c-6.109-39.007-4.141-78.065-1.013-117.126
			c0.256-3.159,2.76-6.124,4.222-9.185c1.178,0.44,2.36,0.876,3.539,1.317c0.903,16.896,2.79,33.812,2.492,50.685
			c-0.559,31.49-2.385,62.95-3.68,94.422c-0.189,4.623-1.596,10.082,5.289,10.763c16.057,1.593,26.033-8.86,22.691-24.962
			c-5.121-24.68-4.273-48.679,2.941-72.873c4.736-15.877,8.082-32.269,10.922-48.643c1.314-7.558,3.679-10.376,11.23-10.274
			C-78.935,602.535-67.804,601.351-59.411,595.279z"/>
		<path fill="#FFFFFF" d="M-59.411,595.279c-8.393,6.071-19.523,7.256-30.621,7.114c-7.554-0.094-9.916,2.725-11.23,10.278
			c-2.84,16.374-6.186,32.766-10.922,48.638c-7.215,24.199-8.066,48.2-2.941,72.878c3.342,16.102-6.635,26.554-22.691,24.962
			c-6.881-0.681-5.479-6.14-5.289-10.761c1.295-31.474,3.121-62.937,3.68-94.424c0.298-16.873-1.593-33.788-2.492-50.684
			c-1.179-0.439-2.357-0.878-3.539-1.318c-1.458,3.058-3.969,6.021-4.222,9.188c-3.128,39.055-5.1,78.118,1.013,117.123
			c1.171,7.479,1.504,15.136,1.717,22.729c0.205,7.166-3.861,9.43-10.305,8.407c-15.15-2.397-20.489-6.98-21.122-19.133
			c-0.16-3.063,1.224-6.198,1.82-9.319c1.437-7.499,4.944-15.353,3.879-22.458c-4.788-31.851-10.884-63.481-16.566-95.538
			c-9.147-1.908-17.923-3.738-28.361-5.917c12.629-14.808,11.329-31.659,11.356-48.247c0.036-21.755,0.004-43.515,0.339-65.265
			c0.081-5.124-1.66-7.798-5.176-11.595c-4.689-5.065-8.578-12.79-9.185-19.713c-1.859-21.192-2.487-42.547-2.628-63.845
			c-0.116-17.709-2.252-36.483,2.499-52.921c8.866-30.671,7.089-61.582,8.477-92.539c0.342-7.586,0.777-15.257,2.151-22.691
			c3.234-17.498,10.841-22.897,28.119-21.25c4.271,0.408,8.609,0.059,13.272-1.845c-8.236-1.337-13.204-4.365-14.054-13.521
			c-0.261-2.824-4.179-5.284-7.034-8.62c1.208-2.435,2.676-5.411,4.103-8.293c-7.865-5.009-11.832-18.383-9.157-27.104
			c1.714-5.595,2.848-11.647,2.854-17.496c0.021-20.294,6.731-37.262,23.607-47.933c5.194-3.288,13.039-2.208,19.698-2.775
			c1.96-0.168,4.005,1.229,6.029,1.298c20.858,0.702,29.875,7.847,33.475,30.493c3.104,19.497,3.928,39.384,5.677,59.105
			c0.188,2.127,0.659,5.159-0.431,6.321c-7.669,8.156-15.715,15.929-25.146,25.33c3.434,1.439,7.231,4.263,11.188,4.502
			c26.681,1.598,30.764,5.408,32.634,33.403c1.663,24.938,2.737,49.923,4.634,74.843c0.442,5.843,3.46,11.421,4.756,17.25
			c2.088,9.441,4.971,18.945,5.332,28.507c1.096,29.335,1.09,58.709,1.66,88.065c0.213,11.067-4.617,19.243-12.236,26.483
			c-2.416,2.308-4.878,6.667-4.49,9.701c2.799,21.898,5.238,43.964,10.002,65.441C-72.147,566.294-65.335,579.579-59.411,595.279z
			 M-107.299,298.567c-3.591,17.004-13.843,34.765,4.034,49.937C-104.61,331.859-105.956,315.216-107.299,298.567z
			 M-187.145,307.701c-1.768,13.461-3.326,25.312-5.252,39.96C-180.73,334.445-179.596,323.886-187.145,307.701z"/>
		<path fill="none" d="M-107.299,298.567c1.343,16.645,2.688,33.29,4.034,49.937C-121.142,333.333-110.89,315.574-107.299,298.567z"
			/>
		<path fill="none" d="M-187.145,307.701c7.548,16.185,6.414,26.744-5.252,39.96C-190.47,333.015-188.912,321.16-187.145,307.701z"
			/>
	</g>
</g>
<path fill="#FFFFFF" stroke="#FFFFFF" stroke-miterlimit="10" d="M240.969-28.96"/>
</svg>
