<?xml version="1.0" encoding="utf-8"?>
<!-- Generator: Adobe Illustrator 16.0.3, SVG Export Plug-In . SVG Version: 6.00 Build 0)  -->
<!DOCTYPE svg PUBLIC "-//W3C//DTD SVG 1.1//EN" "http://www.w3.org/Graphics/SVG/1.1/DTD/svg11.dtd">
<svg version="1.1" id="short.dress.girl.human_xA0_Image_1_"
	 xmlns="http://www.w3.org/2000/svg" xmlns:xlink="http://www.w3.org/1999/xlink" x="0px" y="0px" width="100px" height="357px"
	 viewBox="0 0 100 357" enable-background="new 0 0 100 357" xml:space="preserve">
<g>
	<g>
		<path fill="none" d="M101,358c-33.334,0-66.667,0-100,0C1,239,1,120,1,1c33.333,0,66.666,0,100,0C101,120,101,239,101,358z
			 M91.871,251.469c-2.824-7.212-6.068-13.316-7.562-19.822c-2.27-9.87-3.433-20.006-4.766-30.068
			c-0.186-1.394,0.986-3.398,2.14-4.456c3.63-3.328,5.931-7.083,5.829-12.168c-0.27-13.487-0.267-26.983-0.791-40.46
			c-0.171-4.394-1.545-8.759-2.541-13.097c-0.615-2.679-2.055-5.242-2.266-7.926c-0.904-11.448-1.416-22.927-2.209-34.385
			c-0.891-12.86-2.836-14.611-15.552-15.346c-1.882-0.109-3.694-1.406-5.33-2.068c4.495-4.318,8.329-7.891,11.983-11.638
			c0.521-0.533,0.294-1.927,0.205-2.903c-0.834-9.062-1.227-18.198-2.705-27.155c-1.716-10.404-6.013-13.687-15.953-14.01
			c-0.965-0.031-1.939-0.674-2.873-0.597c-3.173,0.262-6.911-0.233-9.387,1.276c-8.042,4.903-11.24,12.698-11.25,22.022
			c-0.003,2.688-0.543,5.468-1.36,8.039C26.21,50.715,28.1,56.859,31.848,59.16c-0.679,1.324-1.38,2.69-1.955,3.81
			c1.36,1.534,3.228,2.664,3.353,3.961c0.405,4.207,2.772,5.598,6.697,6.212c-2.223,0.875-4.29,1.034-6.325,0.848
			c-8.233-0.757-11.858,1.723-13.4,9.763c-0.655,3.415-0.863,6.938-1.025,10.424c-0.66,14.223,0.187,28.424-4.039,42.515
			c-2.265,7.553-1.247,16.178-1.191,24.314c0.067,9.785,0.366,19.596,1.252,29.332c0.289,3.182,2.143,6.73,4.377,9.058
			c1.676,1.745,2.504,2.972,2.466,5.326c-0.159,9.994-0.144,19.991-0.161,29.986c-0.013,7.621,0.606,15.362-5.412,22.166
			c4.974,1,9.156,1.842,13.516,2.718c2.708,14.728,5.613,29.262,7.894,43.894c0.509,3.265-1.163,6.872-1.848,10.318
			c-0.285,1.434-0.943,2.875-0.868,4.282c0.301,5.582,2.846,7.688,10.065,8.791c3.071,0.469,5.008-0.571,4.911-3.864
			c-0.102-3.488-0.26-7.007-0.818-10.443c-2.912-17.92-1.974-35.866-0.483-53.811c0.121-1.452,1.316-2.815,2.012-4.22
			c0.562,0.202,1.125,0.404,1.687,0.605c0.429,7.763,1.328,15.534,1.187,23.286c-0.266,14.467-1.137,28.922-1.754,43.382
			c-0.09,2.123-0.759,4.631,2.52,4.944c7.652,0.731,12.407-4.07,10.814-11.468c-2.441-11.34-2.036-22.365,1.402-33.483
			c2.256-7.293,3.851-14.824,5.205-22.346c0.626-3.471,1.753-4.766,5.353-4.722C82.568,254.803,87.871,254.259,91.871,251.469z"/>
		<path fill-rule="evenodd" clip-rule="evenodd" d="M91.871,251.469c-4,2.79-9.303,3.334-14.591,3.27
			c-3.6-0.044-4.727,1.251-5.353,4.722c-1.354,7.521-2.949,15.053-5.205,22.346c-3.438,11.118-3.844,22.144-1.402,33.483
			c1.593,7.397-3.162,12.199-10.814,11.468c-3.278-0.313-2.609-2.821-2.52-4.944c0.617-14.46,1.488-28.915,1.754-43.382
			c0.142-7.752-0.758-15.523-1.187-23.286c-0.562-0.201-1.124-0.403-1.687-0.605c-0.695,1.404-1.891,2.768-2.012,4.22
			c-1.491,17.944-2.429,35.891,0.483,53.811c0.558,3.437,0.716,6.955,0.818,10.443c0.097,3.293-1.84,4.333-4.911,3.864
			c-7.219-1.103-9.764-3.209-10.065-8.791c-0.076-1.407,0.583-2.849,0.868-4.282c0.685-3.446,2.357-7.054,1.848-10.318
			c-2.281-14.632-5.186-29.166-7.894-43.894c-4.36-0.876-8.542-1.718-13.516-2.718c6.019-6.804,5.399-14.545,5.412-22.166
			c0.017-9.995,0.002-19.992,0.161-29.986c0.038-2.354-0.791-3.581-2.466-5.326c-2.235-2.327-4.088-5.876-4.377-9.058
			c-0.886-9.736-1.185-19.547-1.252-29.332c-0.056-8.137-1.074-16.762,1.191-24.314c4.225-14.091,3.378-28.292,4.039-42.515
			c0.162-3.485,0.37-7.009,1.025-10.424c1.542-8.04,5.167-10.52,13.4-9.763c2.036,0.187,4.103,0.027,6.325-0.848
			c-3.925-0.614-6.292-2.005-6.697-6.212c-0.125-1.297-1.992-2.427-3.353-3.961c0.575-1.119,1.275-2.485,1.955-3.81
			c-3.748-2.301-5.638-8.445-4.364-12.452c0.817-2.571,1.357-5.352,1.36-8.039c0.01-9.324,3.208-17.119,11.25-22.022
			c2.476-1.51,6.213-1.015,9.387-1.276c0.934-0.077,1.908,0.565,2.873,0.597c9.94,0.323,14.237,3.605,15.953,14.01
			c1.479,8.957,1.871,18.094,2.705,27.155c0.089,0.977,0.315,2.37-0.205,2.903c-3.654,3.747-7.488,7.319-11.983,11.638
			c1.636,0.662,3.448,1.959,5.33,2.068c12.716,0.734,14.661,2.485,15.552,15.346c0.793,11.458,1.305,22.937,2.209,34.385
			c0.211,2.684,1.65,5.247,2.266,7.926c0.996,4.338,2.37,8.703,2.541,13.097c0.524,13.477,0.521,26.973,0.791,40.46
			c0.102,5.085-2.199,8.84-5.829,12.168c-1.153,1.058-2.325,3.062-2.14,4.456c1.333,10.062,2.496,20.198,4.766,30.068
			C85.803,238.152,89.047,244.257,91.871,251.469z M69.051,115.15c-1.711,7.812-6.597,15.972,1.922,22.942
			C70.332,130.445,69.691,122.798,69.051,115.15z M31,119.346c-0.843,6.185-1.585,11.629-2.503,18.359
			C34.056,131.633,34.597,126.781,31,119.346z"/>
		<path fill-rule="evenodd" clip-rule="evenodd" fill="none" d="M69.051,115.15c0.641,7.647,1.281,15.295,1.922,22.942
			C62.454,131.122,67.34,122.962,69.051,115.15z"/>
		<path fill-rule="evenodd" clip-rule="evenodd" fill="none" d="M31,119.346c3.597,7.436,3.056,12.287-2.503,18.359
			C29.415,130.975,30.157,125.53,31,119.346z"/>
	</g>
</g>
</svg>
