<?xml version="1.0" encoding="utf-8"?>
<!-- Generator: Adobe Illustrator 16.0.0, SVG Export Plug-In . SVG Version: 6.00 Build 0)  -->
<!DOCTYPE svg PUBLIC "-//W3C//DTD SVG 1.1//EN" "http://www.w3.org/Graphics/SVG/1.1/DTD/svg11.dtd">
<svg version="1.1" xmlns="http://www.w3.org/2000/svg" xmlns:xlink="http://www.w3.org/1999/xlink" x="0px" y="0px"
	 width="505.937px" height="330.959px" viewBox="0 0 505.937 330.959" enable-background="new 0 0 505.937 330.959"
	 xml:space="preserve">
<g id="Layer_3" display="none">
	<path display="inline" fill="#383836" d="M235.227,165.324c-0.866-1.397-1.656-2.835-2.333-4.333
		c-0.449-0.994-1.871-1.225-2.736-0.718c-0.022,0.013-0.038,0.029-0.059,0.043c-0.093,0.036-0.187,0.073-0.274,0.124
		c-0.963,0.564-1.236,1.777-0.718,2.736c0.154,0.286,0.346,0.547,0.5,0.833c0.159,0.294,0.396,0.518,0.669,0.682
		c0.469,0.9,0.962,1.787,1.497,2.652C233.128,169.531,236.589,167.524,235.227,165.324z"/>
</g>
<g id="Layer_2" display="none">
</g>
<g id="Layer_1">
	<g>
		<g>
			<path fill-rule="evenodd" clip-rule="evenodd" fill="none" d="M1.047,51.041c0-16.665,0-33.329,0-49.994
				c168.979,0,337.957,0,506.937,0c0,110.653,0,221.305,0,331.958c-168.979,0-337.958,0-506.937,0c0-91.321,0-182.644,0-273.965
				c2.658,4.499,2.802,4.27,8.901,8.125c2.086,1.319,4.333,1.638,6.419,2.635c4.093,1.956,8.338,2.002,12.397-0.083
				c1-0.515,1.402-0.661,2.482-0.09c2.708,1.432,5.444,2.906,8.55,3.43c1.384,0.233,2.253,0.995,2.289,2.606
				c0.02,0.893,0.234,2.002,0.794,2.624c1.715,1.898,3.444,3.798,5.971,4.781c2.861,1.112,5.643,2.432,8.432,3.722
				c4.047,1.873,7.887,2.094,11.551-0.972c0.648-0.542,2.094-1.037,2.595-0.699c2.753,1.858,6.263,1.674,9.023,3.635
				c1.016,0.722,1.379,1.126,1.693,2.301c0.384,1.437,1.265,3.101,2.449,3.897c3.333,2.239,6.931,4.084,10.432,6.073
				c0.125,0.071,0.336-0.025,0.492,0.014c1.805,0.456,3.714,0.691,5.377,1.456c1.466,0.673,2.784,0.839,4.064,0.06
				c1.33-0.812,3.238-0.366,4.19-2.046c0.164-0.289,1.129-0.33,1.639-0.185c3.554,1.01,6.827,2.808,10.417,3.757
				c0.694,0.184,1.454,0.871,1.792,1.527c2.734,5.31,3.111,5.957,7.384,7.157c1.677,0.471,3.167,1.201,4.74,1.829
				c0.857,0.342,1.793,0.487,2.694,0.721c-0.262,0.995-0.685,1.983-0.736,2.99c-0.047,0.911,0.292,1.847,0.501,2.763
				c0.103,0.447,0.551,1.137,0.413,1.27c-2.368,2.272-0.047,4.474,0.038,6.691c-0.333,0.397-0.989,0.836-0.944,1.185
				c0.208,1.619,0.611,3.212,0.944,4.814c-1.496,0.085-0.85,1.242-1,2c-0.985,0.311-2.753-0.812-2.898,0.762
				c-0.219,2.375,1.904,0.807,2.898,1.238c0,0.333,0,0.667,0,1c-1.411,1.604-2.842,2.447-4.02,1.933
				c-0.683-0.298-1.193-1.898-1.575-1.826c-1.937,0.366-2.796-1.169-4.158-2.262c-0.849,5.41,0.77,10.703-1.246,15.683
				c0.717,6.374-1.18,12.607-1.018,18.956c0.09,3.534,1.741,6.907,1.018,10.512c0,1.318-0.052,2.64,0.033,3.952
				c0.023,0.362,0.453,0.699,0.697,1.048c0.423-0.333,0.846-0.667,1.27-1c1,0.333,2,0.667,3,1c0.392-0.225,0.869-0.371,1.16-0.688
				c1.384-1.505,2.757-2.063,4.419-0.345c0.234,0.242,0.936,0.033,1.42,0.033c0.333,0.333,0.667,0.667,1,1
				c0.392,0.333,0.749,0.885,1.183,0.955c0.918,0.148,1.876,0.045,2.817,0.045c0,0.333,0,0.667,0,1
				c-0.667,0.886-1.486,1.699-1.954,2.681c-0.408,0.855,0.631,2.546-1.486,2.318c-0.013,0.333-0.025,0.667-0.038,1
				c1.448-0.122,2.649,1.967,3.996,0.877c2.173-1.757,4.297-0.446,6.076-0.751c0.452,1.286,0.827,2.145,1.042,3.041
				c0.129,0.534,0.115,1.597-0.017,1.627c-2.674,0.611-1.638,1.826-0.934,3.505c1.114,2.654-0.259,4.49-3.209,4.673
				c-2.151,0.134-4.316,0.026-6.476,0.026c-0.333,0-0.667,0-1,0c-1,0-2,0-3,0c-0.951-0.216-1.904-0.607-2.853-0.6
				c-1.05,0.01-2.098,0.384-3.146,0.6c-1.493-0.237-3.116,0.559-4.492-0.877c-0.486-0.508-1.528-0.193-1.511,0.985
				c0.015,0.964,0.003,1.928,0.003,2.892c0,1.498-0.527,3.279,0.099,4.439c1.886,3.498,0.34,7.121,0.901,10.623
				c-2.026,4.225-0.694,8.712-0.913,13.069c-0.063,1.261,0.749,2.688,1.507,3.803c0.264,0.387,1.574,0.062,2.406,0.062
				c0.425,0.333,0.834,0.928,1.277,0.954c1.81,0.109,3.634-0.018,5.444,0.092c0.443,0.026,0.853,0.62,1.277,0.953
				c0.085,1.496,1.242,0.85,2,1c2.667,0,5.332,0,7.999,0c0.671,2.09,1.732,3.574,4.301,3.02c0.883-0.19,1.815-0.151,2.682-0.214
				c0.075-1.57-0.473-3.124,1.815-2.84c1.459,0.182,2.97,0.149,4.435-0.001c1.234-0.128,0.625-1.255,0.766-1.964
				c0.667,0,1.333,0,2,0c1.333,0,2.667,0,4,0c19.998,0,39.995,0,59.993,0c6.504,0.333,13.01,0.639,19.51,1.038
				c0.71,0.044,1.358,0.814,2.084,0.928c2.672,0.417,5.371,0.661,8.047,1.055c0.905,0.133,1.766,0.547,2.661,0.776
				c1.655,0.423,3.304,1.018,4.986,1.151c2.476,0.196,4.987-0.079,7.466,0.088c2.365,0.16,4.702,0.704,7.063,0.936
				c1.48,0.146,2.987,0.027,4.481,0.027c1.495,0,2.989,0,4.483,0c1.495,0,2.997,0.091,4.482-0.026
				c1.395-0.109,2.809,0.43,4.185-0.787c0.969-0.855,2.964,0.506,3.981-1.127c1.242,1.988,2.408,0.28,3.637-0.032
				c0.624-0.158,1.508-0.295,1.954,0.018c2.396,1.674,5.061,0.896,7.589,0.916c11.456,0.089,22.915,0.039,34.373,0.039
				c0.394,0.56,0.701,1.496,1.195,1.607c1.387,0.313,2.874,0.462,4.264,0.268c0.345-0.048,0.432-1.66,0.73-2.521
				c0.065-0.188,0.529-0.239,0.811-0.354c0.333,0,0.666,0,0.999,0c0.229,0.333,0.527,0.982,0.679,0.949
				c1.123-0.24,2.218-0.616,3.321-0.949c1.637,0.303,2.303-0.363,2-2c0.333,0.262,0.939,0.508,0.956,0.789
				c0.128,2.102,1.696,1.016,2.615,1.151c0.428,0.063,1.386-0.559,1.358-0.78c-0.212-1.763,0.363-2.4,2.198-2.211
				c1.094,0.112,0.75-0.518,0.256-1.112c-0.269-0.324-0.41-0.891-0.361-1.32c0.316-2.788,0.274-2.854-1.943-3.533
				c-0.726-0.222-1.389-0.649-2.08-0.982c0.15-0.758-0.496-1.914,1-1.999c0.333,0,0.681-0.061,0.996,0.013
				c0.635,0.147,1.391-0.264,2.289-0.74c1.252-0.663,2.955-0.864,2.681-2.812c-0.192-1.372-0.621-2.729-1.123-4.022
				c-0.088-0.226-1.069-0.104-1.638-0.143c-0.137,2.319-1.874,1.63-3.205,1.704c-2.176,0.327-4.406,0.516-4.031,3.711
				c0.151,1.285-0.806,1.957-1.968,2.289c-0.333-0.333-0.667-0.667-1-1c-0.467-0.966-0.933-1.933-1.481-3.068
				c-0.538,0.634-1.159,1.154-1.448,1.818c-0.104,0.236,0.597,0.823,0.93,1.25c-0.397,0.333-1.091,1.002-1.148,0.951
				c-1.446-1.282-3.187-0.911-4.851-0.951c-0.014-1.373-1.063-0.927-1.787-0.992c-1.501-0.135-1.555-0.844-0.81-1.911
				c0.164-0.234,0.325-0.47,0.488-0.705c-0.567-0.234-1.623-0.492-1.613-0.699c0.032-0.678,0.466-1.332,0.719-2.005
				c0.593-1.584,1.221-3.137-1.627-2.876c-0.45,0.041-0.979-0.783-1.663-1.372c1.979-1.485,4.965-1.914,4.553-5.147
				c-0.005-0.04,0.885-0.126,1.308-0.307c0.506-0.217,1.377-0.608,1.35-0.835c-0.067-0.563-0.444-1.377-0.899-1.546
				c-1.016-0.377-2.168-0.629-3.239-0.555c-1.695,0.116-1.881-0.693-1.843-2.059c0.009-0.318-0.936-1.024-1.206-0.923
				c-1.002,0.373-1.897,1.025-2.852,1.538c-0.19,0.103-0.464,0.053-0.699,0.073c-0.001-0.45-0.092-1.271,0.008-1.295
				c1.79-0.423,2.239-1.366,1.615-3.115c-1.06-2.971-0.972-3.114,1.542-4.076c0.579-0.221,1.313-0.027,1.902-0.232
				c0.328-0.114,0.709-0.663,0.697-1.003c-0.012-0.327-0.446-0.809-0.791-0.917c-0.667-0.21-1.401-0.206-2.408-0.326
				c1.164-1.113,1.883-2.375,2.857-2.621c2.514-0.635,1.461-1.502,0.44-2.554c-0.917-0.942-2.441-1.959,0.264-2.57
				c0.148-0.034,0.342-0.779,0.244-0.859c-0.768-0.62-1.601-1.159-2.354-1.682c0.179-1.794,3.087-0.701,2.799-2.846
				c-0.393-2.92,2.553-0.897,3.492-2.337c0.63-0.963,1.316,0.2,1.66,1.28c0.245,0.77,1.811-1.137,2.433,0.457
				c0.018,0.045,1.222-0.202,1.23-0.351c0.093-1.608,0.737-1.647,1.819-0.758c0.93-1.22,1.798-1.115,2.813-0.026
				c0.161,0.174,1.02-0.302,1.556-0.477c-0.307-0.455-0.525-1.033-0.942-1.337c-0.611-0.446-1.364-0.696-2.058-1.029
				c-0.371-1.388-1.259-2.183-2.707-1.978c-1.918,0.271-2.576-0.472-2.382-2.344c0.016-0.158-1.243-0.448-1.91-0.678
				c-0.333-0.856-0.957-1.719-0.938-2.567c0.037-1.601-0.918-1.345-1.903-1.462c-1.071-0.129-1.149-0.301-0.685-0.888
				c0.296-0.373,1.069-0.819,1.345-0.678c1.105,0.564,2.035,1.481,3.152,2.011c1.15,0.545,2.517,1.876,3.157-0.88
				c0.286-1.233,1.837-2.389,3.088-3.092c0.646-0.364,1.89,0.492,2.866,0.505c0.721,0.01,1.432-0.547,2.177-0.673
				c0.539-0.092,1.128,0.109,1.694,0.181c-0.711,1.965,2.279,0.958,2.044,2.543c-0.085,1.496-1.242,0.85-2,1
				c-0.484,0-0.978-0.06-1.451,0.012c-1.154,0.173-2.464,2.058-2.064,2.963c0.813,1.838,1.695-0.078,2.548,0.02
				c0.318,0.036,0.645,0.006,0.968,0.006c1.927,0.469,0.619,2.015,1,2.999c0.971,0.523-2.895,1.794,0.331,2.04
				c0.87,0.066,1.71,0.607,2.547,0.969c0.394,0.169,1.097,0.561,1.071,0.628c-0.952,2.512,2.664,2.342,2.521,4.333
				c0.51-1.249,1.261-2.461,1.468-3.76c0.257-1.604,0.001-3.284,0.08-4.926c0.067-1.42,0.299-2.832,0.443-4.25
				c0.035-0.342,0.015-0.688,0.019-1.033c-0.493,0-0.986,0-1.48,0c0-1.667,0-3.332,0-4.999c0-3.137,0-6.272,0-9.408
				c0-1.651,0.684-3.907-0.136-4.832c-1.995-2.251,0.563-5.341-1.834-7.228c-0.01-2.636-0.46-5.376,0.121-7.875
				c0.401-1.723-0.154-3.114-0.151-4.654c-1.055-2.89-3.37-3.258-5.999-3c0-1,0-2,0-3c4.295-0.296,4.845-1.212,3-5
				c-0.085-1.496-1.242-0.85-2-1c-0.333,0-0.667,0-1,0c-0.118-1.618,0.062-3.335-0.436-4.827c-0.538-1.615-0.832-1.562,0.405-2.162
				c1.523-0.739,3.111-1.35,4.609-2.133c0.559-0.292,0.945-0.914,1.411-1.385c-0.781-0.742-1.647-1.744,0.392-1.438
				c3.008,0.452,5.74-0.747,8.569-1.183c2.031-0.313,3.955-1.693,5.873-2.677c1.853-0.948,4.77,0.318,6.778-0.486
				c3.727-1.493,7.899-1.74,11.305-4.086c0.489-0.337,1.183-0.649,1.732-0.581c2.637,0.33,5.108-0.409,7.582-1.058
				c3.464-0.908,7.108-1.751,9.604-4.451c1.882-2.035,4.254-2.577,6.559-3.574c2.439-1.056,5.294-0.684,7.531-2.346
				c0.247-0.184,0.767-0.249,1.035-0.116c3.891,1.926,7.555-0.967,11.377-0.54c0.33,0.037,0.71-0.616,1.108-0.889
				c1.034-0.706,2.128-1.993,3.134-1.935c2.067,0.118,3.083-1.101,4.064-2.341c1.446-1.827,2.272-4.375,4.055-5.645
				c1.911-1.362,4.782-1.301,6.935-2.433c1.578-0.829,2.388-0.69,3.866,0.164c2.938,1.697,3.908,1.506,7.067,0.044
				c0.562-0.26,1.048-0.779,1.625-0.891c4.412-0.851,7.886-3.257,10.777-6.541c1.91-2.168,4.326-2.997,7.055-3.54
				c2.256-0.449,4.415-1.378,6.617-2.094c0.116-1.95,0.279-3.9,0.338-5.852c0.059-1.956,0.013-3.915,0.013-6.186
				c-2.48,1.566-4.408,3.435-6.672,4.039c-2.502,0.667-4.28,2.626-6.752,3.038c-1.684,0.28-3.2,2.236-5.235,0.217
				c-0.663-0.657-2.679-0.43-3.852,0.002c-3.027,1.116-6.146,2.24-8.816,3.99c-2.432,1.595-5.657,2.828-6.327,6.142
				c-0.522,2.586-1.864,3.62-4.327,3.802c-0.716,0.053-1.479,0.515-2.071,0.978c-1.604,1.251-3.048,1.268-4.707,0.007
				c-1.948-1.479-4.468-1.488-6.53-0.916c-3.84,1.067-7.418,3.014-11.32,4.006c-0.732,1.582-2.986,1.441-3.601,3.433
				c-0.29,0.938-1.863,1.728-3.013,2.097c-1.783,0.572-3.44,1.368-5.148,2.058c-1.978,0.801-4.139,1.39-6.463,1.38
				c-3.192-0.014-6.596,0.015-9.514,1.094c-2.283,0.844-4.987,0.966-6.877,2.635c-1.959,1.73-4.115,2.101-6.606,2.261
				c-2.936,0.19-5.819,0.578-8.452,2.537c-2.163,1.609-4.945,2.938-7.577,3.219c-3.23,0.345-6.121,1.264-8.993,2.542
				c-4.089,1.822-4.084,1.647-9.494,1.683c-4.195,0.028-8.388,0.602-12.579,0.95c-0.296,0.024-0.648,0.125-0.858,0.317
				c-2.439,2.236-5.444,1.612-8.31,1.667c-3.224,0.063-6.545-0.482-9.563,1.042c-1.661,0.839-3.229,0.98-4.653-0.082
				c-0.995-0.742-1.925-1.001-3.119-0.979c-3.496,0.066-6.996,0.008-10.494,0.038c-0.623,0.005-1.588-0.02-1.813,0.337
				c-1.469,2.33-3.49,0.898-4.813,0.342c-1.114-0.47-2.109-0.658-3.212-0.682c-1.999-0.042-3.999-0.032-5.997-0.007
				c-2.55,0.033-5.143-0.346-7.382,1.546c-0.537,0.453-1.761,0.201-2.648,0.1c-0.756-0.087-1.479-0.604-2.222-0.619
				c-3.33-0.071-6.678,0.152-9.989-0.104c-1.832-0.143-2.354,1.421-3.6,1.974c-1.006-2.761-2.705-4.13-5.832-3.963
				c-4.486,0.24-8.996,0.153-13.49,0.017c-1.802-0.056-3.157,0.334-4.325,1.742c-0.334,0.401-0.527,1.072-1.737,0.926
				c-4.055-0.494-8.19-0.698-12.263-0.46c-1.069,0.063-1.763,0.499-2.554-0.481c-2.304-2.854-5.24-4.074-8.969-3.738
				c-2.032,0.184-4.029,0.034-6.135-0.797c-2.383-0.941-5.424,0.004-7.111,1.67c-2.076,2.048-4.153,2.264-6.667,2.205
				c-3.497-0.084-6.998-0.042-10.495-0.009c-1.096,0.01-1.307-0.487-1.924-1.432c-2.018-3.085-5.135-4.656-8.999-4.628
				c-1.382,0.011-3.014,0.742-4.163-0.759c-4.505-0.259-9.203-1.23-12.522,3.153c-1.121,1.481-2.547,1.943-4.32,1.658
				c-2.191-0.353-4.391-0.954-6.581-0.929c-2.375,0.028-4.242-0.206-5.415-2.619c-0.34-0.699-1.622-0.879-2.323-1.475
				c-2.696-2.289-6.184-2.786-9.26-4.208c-5.224-2.415-6.313-2.404-11.529-0.011c-3.052,1.401-6.299,1.011-9.546-1.035
				c-0.633-0.398-1.495-0.771-2.186-0.676c-2.126,0.29-3.621-1.485-3.777-2.557c-0.272-1.864-1.16-2.956-2.325-4.087
				c-1.264-1.227-2.27-2.933-4.47-2.475c-3.318-2.805-7.657-3.288-11.382-5.076c-3.066-1.473-5.254-0.397-7.318,1.085
				c-1.556,1.117-2.941,1.373-4.467,0.766c-2.859-1.134-5.529-2.764-8.554-3.464c-1.314-0.304-1.936-0.813-1.737-2.238
				c0.082-0.591,0.014-1.436-0.351-1.817c-1.989-2.085-3.824-4.4-6.822-5.199c-1.189-0.316-2.399-0.666-3.489-1.219
				c-2.502-1.271-4.739-3.218-7.838-2.801c-3.123-2.179-5.728-0.728-8.155,1.278c-0.894,0.738-1.359,0.696-2.477,0.224
				c-2.691-1.138-4.992-3.058-8.035-3.602c-1.315-0.235-2.576-1.571-2.887-3.54c-0.435-2.756-2.225-4.698-4.913-5.883
				c-3.384-1.492-6.586-3.399-9.978-4.873c-4.007-1.74-8.093-2.761-12.196,0.028C3.16,51.116,1.998,50.923,1.047,51.041z"/>
			<path fill-rule="evenodd" clip-rule="evenodd" fill="#020202" d="M1.047,51.041c0.951-0.117,2.113,0.075,2.817-0.404
				c4.103-2.79,8.189-1.769,12.196-0.028c3.392,1.474,6.594,3.38,9.978,4.873c2.688,1.185,4.478,3.126,4.913,5.883
				c0.311,1.969,1.572,3.304,2.887,3.54c3.043,0.544,5.343,2.464,8.035,3.602c1.118,0.473,1.583,0.515,2.477-0.224
				c2.428-2.005,5.032-3.457,8.155-1.278c3.099-0.417,5.336,1.531,7.838,2.801c1.089,0.553,2.3,0.902,3.489,1.219
				c2.998,0.799,4.833,3.114,6.822,5.199c0.364,0.382,0.433,1.227,0.351,1.817c-0.199,1.425,0.423,1.934,1.737,2.238
				c3.025,0.7,5.695,2.33,8.554,3.464c1.526,0.606,2.912,0.351,4.467-0.766c2.064-1.482,4.252-2.558,7.318-1.085
				c3.725,1.788,8.064,2.271,11.382,5.076c2.2-0.458,3.207,1.249,4.47,2.475c1.165,1.132,2.053,2.223,2.325,4.087
				c0.156,1.072,1.65,2.847,3.777,2.557c0.69-0.095,1.553,0.277,2.186,0.676c3.248,2.046,6.494,2.437,9.546,1.035
				c5.215-2.393,6.305-2.404,11.529,0.011c3.076,1.422,6.564,1.918,9.26,4.208c0.701,0.596,1.983,0.776,2.323,1.475
				c1.173,2.413,3.041,2.647,5.415,2.619c2.19-0.025,4.39,0.576,6.581,0.929c1.772,0.285,3.199-0.177,4.32-1.658
				c3.319-4.383,8.017-3.412,12.522-3.153c1.148,1.5,2.781,0.77,4.163,0.759c3.864-0.028,6.981,1.542,8.999,4.628
				c0.617,0.944,0.829,1.441,1.924,1.432c3.498-0.033,6.998-0.075,10.495,0.009c2.514,0.06,4.591-0.156,6.667-2.205
				c1.687-1.666,4.728-2.611,7.111-1.67c2.106,0.831,4.103,0.98,6.135,0.797c3.729-0.336,6.665,0.884,8.969,3.738
				c0.791,0.98,1.485,0.545,2.554,0.481c4.073-0.238,8.208-0.034,12.263,0.46c1.21,0.146,1.403-0.524,1.737-0.926
				c1.168-1.408,2.523-1.798,4.325-1.742c4.494,0.137,9.004,0.224,13.49-0.017c3.127-0.167,4.826,1.202,5.832,3.963
				c1.246-0.553,1.768-2.117,3.6-1.974c3.312,0.256,6.659,0.032,9.989,0.104c0.743,0.016,1.466,0.532,2.222,0.619
				c0.888,0.102,2.111,0.353,2.648-0.1c2.239-1.892,4.832-1.513,7.382-1.546c1.998-0.025,3.998-0.035,5.997,0.007
				c1.103,0.023,2.098,0.212,3.212,0.682c1.323,0.557,3.345,1.988,4.813-0.342c0.225-0.356,1.189-0.332,1.813-0.337
				c3.498-0.03,6.998,0.028,10.494-0.038c1.194-0.022,2.124,0.236,3.119,0.979c1.424,1.062,2.992,0.921,4.653,0.082
				c3.018-1.524,6.339-0.979,9.563-1.042c2.865-0.055,5.87,0.569,8.31-1.667c0.21-0.192,0.563-0.292,0.858-0.317
				c4.191-0.349,8.384-0.922,12.579-0.95c5.41-0.035,5.405,0.14,9.494-1.683c2.872-1.279,5.763-2.198,8.993-2.542
				c2.632-0.281,5.414-1.61,7.577-3.219c2.633-1.959,5.517-2.347,8.452-2.537c2.491-0.16,4.647-0.531,6.606-2.261
				c1.89-1.669,4.594-1.791,6.877-2.635c2.918-1.079,6.321-1.107,9.514-1.094c2.324,0.01,4.485-0.579,6.463-1.38
				c1.708-0.69,3.365-1.486,5.148-2.058c1.149-0.369,2.723-1.158,3.013-2.097c0.614-1.992,2.868-1.851,3.601-3.433
				c3.902-0.992,7.48-2.939,11.32-4.006c2.063-0.572,4.582-0.563,6.53,0.916c1.659,1.261,3.103,1.244,4.707-0.007
				c0.593-0.463,1.355-0.925,2.071-0.978c2.463-0.183,3.805-1.216,4.327-3.802c0.67-3.314,3.896-4.546,6.327-6.142
				c2.67-1.75,5.789-2.874,8.816-3.99c1.173-0.432,3.188-0.659,3.852-0.002c2.035,2.019,3.552,0.063,5.235-0.217
				c2.472-0.411,4.25-2.371,6.752-3.038c2.264-0.604,4.191-2.473,6.672-4.039c0,2.271,0.046,4.23-0.013,6.186
				c-0.059,1.952-0.222,3.902-0.338,5.852c-2.202,0.716-4.361,1.645-6.617,2.094c-2.729,0.543-5.145,1.371-7.055,3.54
				c-2.892,3.284-6.365,5.69-10.777,6.541c-0.577,0.111-1.063,0.631-1.625,0.891c-3.159,1.462-4.129,1.653-7.067-0.044
				c-1.479-0.854-2.288-0.993-3.866-0.164c-2.152,1.132-5.023,1.07-6.935,2.433c-1.782,1.27-2.608,3.818-4.055,5.645
				c-0.981,1.24-1.997,2.459-4.064,2.341c-1.006-0.058-2.1,1.229-3.134,1.935c-0.398,0.272-0.778,0.926-1.108,0.889
				c-3.822-0.427-7.486,2.466-11.377,0.54c-0.269-0.133-0.788-0.067-1.035,0.116c-2.237,1.663-5.092,1.291-7.531,2.346
				c-2.305,0.997-4.677,1.539-6.559,3.574c-2.496,2.7-6.141,3.542-9.604,4.451c-2.474,0.648-4.945,1.388-7.582,1.058
				c-0.55-0.068-1.243,0.244-1.732,0.581c-3.405,2.346-7.578,2.593-11.305,4.086c-2.009,0.804-4.926-0.462-6.778,0.486
				c-1.918,0.983-3.842,2.363-5.873,2.677c-2.829,0.437-5.562,1.635-8.569,1.183c-2.039-0.306-1.173,0.695-0.392,1.438
				c-0.466,0.471-0.853,1.093-1.411,1.385c-1.498,0.783-3.086,1.394-4.609,2.133c-1.237,0.601-0.943,0.547-0.405,2.162
				c0.497,1.492,0.317,3.209,0.436,4.827c-0.04,1.664,0.331,3.404-0.951,4.851c-0.051,0.058,0.618,0.751,0.951,1.148c0,1,0,2,0,3
				s0,2,0,3c-0.613,0.22-1.227,0.44-1.84,0.66c0.448,0.523,1.498,1.126-0.199,1.346c-0.606,0.078-1.526,0.018-1.751,0.372
				c-1.318,2.067-3.329,1.571-5.209,1.622c0-0.667,0-1.333,0-2c0-2.333-0.083-4.67,0.043-6.996c0.047-0.868,1.103-2.148,0.813-2.491
				c-1.787-2.112-0.451-4.489-0.832-6.685c-0.174-1.002-0.15-2.097,1.438-1.826c0.002-0.345,0.147-0.846-0.023-1.002
				c-0.45-0.413-1.058-0.979-1.568-0.947c-3.103,0.19-6.092-0.296-9.099-1.001c-1.264-0.296-2.972-0.552-3.924,0.051
				c-2.349,1.484-4.777,0.644-7.148,0.888c-3.689,0.381-7.387,0.68-11.082,1.013c-1.769,1.912-4.466,1.499-5.98,0.78
				c-1.844-0.874-3.48-0.518-5.188-0.773c-1.107-0.166-2.395,0.027-3.286-0.486c-0.839-0.484-0.965,0.008-1.477,0.261
				c-4.319,2.134-9.014,1.676-13.358,0.799c-2.978-0.601-5.906-0.795-8.699-0.452c-5.208,0.641-5.158,0.902-10.192-0.088
				c-1.273-0.251-3.089-0.537-3.875,0.122c-1.414,1.187-2.807,0.774-4.202,0.807c-3.663,0.089-7.346,0.237-10.992-0.028
				c-3.581-0.262-7.277-0.57-10.133-3.235c-1.291-1.205-2.778-0.958-4.04-0.306c-1.611,0.836-2.809,0.454-4.483-0.008
				c-2.884-0.796-6.246-1.357-8.415,1.854c-1.784,2.641-4.772,2.312-6.686,1.518c-1.823-0.755-3.792,0.029-5.082-0.926
				c-1.747-1.296-3.48-0.527-5.183-0.844c-2.312-0.43-5.135-0.467-6.305-2.655c-1.264-2.364-2.896-2.443-5.038-2.366
				c-2.995,0.108-5.998,0.015-8.997,0.035c-0.911,0.007-2.157-0.403-1.985,1.299c-2.261,1.764-5.042,1.927-7.69,2.501
				c-1.326-1.583-3.128-0.807-4.66-0.733c-1.856,0.089-3.689-0.195-5.014-1.175c-1.247-0.923-2.396-0.765-3.657-0.918
				c-2.073-0.251-4.153-0.697-4.949-2.98c-0.601-1.729-1.813-1.934-3.392-2.042c-2.87-0.197-5.825,0.781-8.633-0.88
				c-0.864-0.51-2.474-0.443-3.395,0.032c-0.792,0.408-1.083,1.778-1.607,2.718c-0.303,0.543-0.525,1.431-0.955,1.551
				c-2.302,0.642-2.093,2.364-2.056,4.12c0.052,2.499,0.013,4.999,0.013,7.498c-0.392,0.226-0.947,0.358-1.14,0.697
				c-0.341,0.597-0.46,1.319-0.673,1.989c0.604,0.104,1.209,0.209,1.813,0.313c0,1,0,2,0,3c-1.049-0.735-2.034-1.218-2.873,0.326
				c-0.18,0.331-0.741,0.455-1.126,0.674c0.05-1.898,0.187-3.809-2.518-4.061c-0.519-0.048-0.989-0.612-1.482-0.938
				c-0.085-2.218-2.406-4.419-0.038-6.691c0.138-0.133-0.311-0.822-0.413-1.27c-0.209-0.916-0.548-1.853-0.501-2.763
				c0.052-1.007,0.475-1.995,0.736-2.99c-0.901-0.234-1.837-0.379-2.694-0.721c-1.573-0.628-3.063-1.358-4.74-1.829
				c-4.273-1.2-4.65-1.847-7.384-7.157c-0.339-0.656-1.098-1.344-1.792-1.527c-3.589-0.95-6.862-2.748-10.417-3.757
				c-0.51-0.146-1.475-0.104-1.639,0.185c-0.952,1.68-2.86,1.234-4.19,2.046c-1.28,0.78-2.598,0.613-4.064-0.06
				c-1.664-0.765-3.573-1-5.377-1.456c-0.156-0.039-0.367,0.058-0.492-0.014c-3.501-1.989-7.098-3.834-10.432-6.073
				c-1.184-0.796-2.065-2.46-2.449-3.897c-0.314-1.175-0.678-1.579-1.693-2.301c-2.76-1.961-6.27-1.777-9.023-3.635
				c-0.501-0.338-1.947,0.157-2.595,0.699c-3.664,3.066-7.503,2.844-11.551,0.972c-2.789-1.29-5.571-2.61-8.432-3.722
				c-2.527-0.982-4.256-2.883-5.971-4.781c-0.561-0.621-0.775-1.73-0.794-2.624c-0.036-1.611-0.905-2.373-2.289-2.606
				c-3.106-0.524-5.842-1.999-8.55-3.43c-1.08-0.571-1.482-0.425-2.482,0.09c-4.059,2.085-8.304,2.039-12.397,0.083
				c-2.087-0.997-4.333-1.316-6.419-2.635c-6.099-3.855-6.243-3.626-8.901-8.125C1.047,56.373,1.047,53.707,1.047,51.041z
				 M267.745,119.032c0.24-1.423,0.156-2.819,0.729-3.848c0.755-1.358,0.691-1.422-0.794-2.271
				c-4.555-2.599-9.379-1.695-14.131-1.83c-0.675-0.02-1.396,0.591-2.033,1.007c-0.12,0.078,0.08,0.904,0.101,0.902
				c2.123-0.139,1.672,1.947,1.308,2.327c-1.237,1.29-0.486,2.062,0.481,2.528c1.229,0.593,2.628,1.072,3.975,1.133
				C260.82,119.135,264.272,119.032,267.745,119.032z M50.145,71.122c-0.302,2.108,0.581,4.42-2.321,4.941
				c-1.021,0.184-0.742,0.399-0.034,1.022c1.897,1.67,3.973,2.924,6.391,3.575c2.231,0.6,4.581,0.68,6.51,2.319
				c0.841,0.716,1.418-0.239,1.395-1.895c-0.018-1.23-0.917-3.141,1.598-3.268c0.03-0.001,0.22-1.427-0.025-1.568
				c-1.986-1.154-4.127-2.047-6.086-3.242C55.361,71.659,53.088,70.813,50.145,71.122z M145.029,109.738
				c0-0.377-0.008-0.543,0.001-0.708c0.143-2.707-0.26-3.138-2.056-4.634c-1.795-1.496-3.581-2.486-6.001-2.4
				c-2.291,0.083-4.429-2.099-6.864-0.54c1.041,3.395,1.041,3.395-2.376,5.366c1.762,0.806,3.242,1.708,4.848,2.16
				c1.956,0.55,4.174,1.346,5.992,0.89C140.739,109.328,142.678,110.715,145.029,109.738z M87.975,91.752
				c4.223,2.099,8.398,4.268,12.671,6.221c0.919,0.42,2.192,0.062,2.891,0.062c-0.195-1.727-0.655-3.164-0.357-4.421
				c0.124-0.525,1.86-0.669,3.299-1.124c-5.279-3.146-10.764-4.594-16.184-6.595c0.294,1.529,0.613,2.68,0.719,3.85
				C91.238,92.204,88.802,90.262,87.975,91.752z M25.097,60.408c-4.837-2.235-9.65-4.458-14.84-6.856
				c1.199,3.853,1.179,3.931-1.089,5.488c-1.573,1.08-1.578,1.091,0.326,1.996c1.247,0.593,2.543,1.088,3.758,1.739
				c1.095,0.586,2.496-0.121,3.513,1.313c0.708,0.999,2.379,1.301,3.594,1.965c0.415,0.227,0.703,0.745,1.127,0.876
				c0.391,0.121,1.045,0.05,1.292-0.212c0.239-0.254,0.304-1.106,0.103-1.266c-1.117-0.887-1.193-2.122-0.585-3.042
				C22.852,61.567,24.026,61.135,25.097,60.408z M211.543,110.17c3.395,2.312-0.946,4.707,0.975,6.872
				c5.081-0.126,10.264,0.204,15.417-0.387c-1.364-0.559-2.005-1.099-2.046-2.825c-0.042-1.736,1.449-1.58,2.015-2.408
				C222.78,109.773,217.612,109.854,211.543,110.17z M186.172,113.922c-1.214-2.536-1.192-2.514,0.286-3.908
				c0.303-0.285,0.571-0.839,0.507-1.207c-0.054-0.305-0.61-0.722-0.964-0.741c-2.059-0.114-4.028-0.336-6.088-0.867
				c-2.639-0.679-5.587-0.17-8.4-0.118c-0.167,0.003-0.416,0.479-0.462,0.763s0.025,0.772,0.206,0.867
				c0.397,0.209,0.931,0.386,1.348,0.295c1.917-0.417,1.077,1.697,2.027,2.133c-0.323,0.586-0.646,1.172-0.971,1.757
				c-0.166,0.299-0.334,0.596-0.579,1.026C177.545,113.922,181.646,113.922,186.172,113.922z M453.99,81.385
				c-3.911-1.582-6.348,1.666-9.535,1.791c-0.729,0.028-1.686,1.198-2.022,2.046c-0.248,0.623,0.34,1.581,0.56,2.389
				c0.249,0.918-0.711,2.164,1.319,2.572c1.212,0.244,1.878,1.194,3.257-0.063c1.175-1.073,3.067-1.321,4.553-2.106
				c2.109-1.116,2.226-1.595,1.88-4.636C453.928,82.737,453.99,82.081,453.99,81.385z M420.18,94.272
				c-4.792-0.948-8.454,1.638-12.423,2.795c-0.324,0.095-0.644,0.628-0.739,1.013c-0.565,2.282,1.442,4.569,3.864,3.86
				c3.389-0.991,7.171-0.938,9.999-3.474C420.163,97.287,417.476,96.513,420.18,94.272z M478.235,77.039
				c2.891,0.245,4.975-1.607,7.152-3.042c0.504-0.332,0.469-1.732,0.362-2.601c-0.036-0.298-1.049-0.477-1.615-0.71
				c0.284-0.671,0.656-1.32,0.818-2.019c0.098-0.421-0.051-1.27-0.233-1.313c-0.521-0.124-1.186-0.075-1.673,0.158
				c-2.354,1.129-4.679,2.319-6.99,3.533c-1.453,0.763-1.459,2.009-0.073,2.994c0.643,0.457,1.386,0.842,1.864,1.436
				C478.135,75.831,475.698,76.991,478.235,77.039z M328.389,113.033c-3.858,0-6.822-0.047-9.784,0.028
				c-0.908,0.022-1.875,0.238-2.692,0.624c-0.845,0.399-2.384,0.319-1.914,2.053c0.363,1.336,0.952,2.316,2.543,2.302
				c2.963-0.027,5.928,0.026,8.89-0.039c0.529-0.012,1.341-0.297,1.521-0.688C327.511,116.102,327.828,114.78,328.389,113.033z
				 M390.101,106.874c4.505,0.966,7.804-2.332,11.771-1.963c0-1.73,0-3.179,0-4.717c-3.061-0.574-5.601,0.469-8.253,1.629
				C390.188,103.323,390.104,103.13,390.101,106.874z M287.66,114.033c-3.802,0-7.605-0.017-11.406,0.024
				c-0.416,0.004-1.071,0.24-1.196,0.542c-0.415,1,1.495,1.979,0.103,3.081c0.645,0.451,1.275,1.268,1.934,1.292
				c3.604,0.128,7.213,0.061,10.587,0.061C288.663,117.293,285.141,115.826,287.66,114.033z M354.003,111.096
				c0,1.39,0.013,2.375-0.003,3.36c-0.035,2.28,2.045,2.026,3.28,2.501c1.567,0.603,1.663-0.619,1.785-1.925
				c0.136-1.451,1.251-2.084,2.779-2.02c1.681,0.07,0.953,1.305,1.181,2.115c0.119,0.428,0.483,0.787,0.745,1.172
				c0.435,0.64,0.801,0.775,1.423,0.087c0.73-0.808,0.942-1.313,0.353-2.467c-0.501-0.982-0.09-2.431-0.08-4.144
				C361.892,110.188,358.131,110.621,354.003,111.096z M294.222,114.033c0.46,1.555,0.484,3.352,1.21,3.705
				c1.207,0.585,2.863,0.273,4.33,0.288c2.42,0.024,4.84,0.007,7.085,0.007c0-1.603,0-2.715,0-3.886
				c-0.632-0.046-1.104-0.107-1.578-0.108C301.646,114.029,298.023,114.033,294.222,114.033z M345.996,112.974
				c-4.134,0.27-7.977-0.465-11.754,0.984c-0.974,0.374-1.258,0.627-1.265,1.582c-0.007,0.977,0.16,1.521,1.309,1.509
				c3.907-0.044,7.814-0.017,11.71-0.017C345.996,115.558,345.996,114.568,345.996,112.974z M372.663,112.033
				c0.414,0,0.652,0.072,0.733-0.011c2.147-2.167,4.868-2.051,7.607-2.037c0.521,0.002,1.032-0.87,1.57-0.898
				c1.015-0.053,1.788-0.418,1.356-1.366c-0.413-0.909-1.089-2.128-2.564-1.545c-2.854,1.126-5.641,2.417-8.712,2.946
				c-0.326,0.057-0.539,1.324-0.607,2.048C372.018,111.472,372.503,111.823,372.663,112.033z M494.063,68.039
				c1.505,0,3.1,0.141,4.651-0.051c1.014-0.125,2.212-0.508,2.863-1.207c0.439-0.473,0.173-2.453,0.047-2.469
				c-1.405-0.191-3.131-0.627-4.2-0.011C496.149,65.037,493.71,65.045,494.063,68.039z M436.633,89.652
				c-2.604,0.834-4.064,1.301-5.523,1.768l-3.791,2.441C429.684,93.72,434.262,91.854,436.633,89.652z M210.521,115.032
				c-0.111,0.111-0.331,0.246-0.313,0.329c0.053,0.235,0.201,0.448,0.313,0.671c0.111-0.111,0.331-0.246,0.313-0.329
				C210.781,115.468,210.632,115.254,210.521,115.032z M65.895,77.393c-0.134-0.133-0.245-0.244-0.356-0.355
				c-0.111,0.223-0.26,0.436-0.313,0.671c-0.019,0.083,0.201,0.218,0.313,0.329C65.659,77.819,65.779,77.603,65.895,77.393z"/>
			<path fill-rule="evenodd" clip-rule="evenodd" fill="#EE2525" d="M140.029,209.021c2.159,0,4.325,0.107,6.476-0.026
				c2.95-0.183,4.323-2.019,3.209-4.673c-0.704-1.679-1.74-2.894,0.934-3.505c0.132-0.03,0.146-1.093,0.017-1.627
				c-0.216-0.896-0.591-1.755-1.042-3.041c-1.778,0.305-3.903-1.006-6.076,0.751c-1.346,1.09-2.547-0.999-3.996-0.877
				c0.013-0.333,0.025-0.667,0.038-1c2.117,0.228,1.078-1.463,1.486-2.318c0.468-0.981,1.287-1.795,1.954-2.681
				c1.747-1.98,1.747-1.981,4.083-1.999c0.667-0.005,1.333-0.001,1.999-0.001c59.965,0,119.93,0,179.896,0
				c1.824,0,3.647,0.018,5.472-0.004c3.867-0.044,7.779,0.435,11.526-0.996c4.332,0,8.665,0,12.998,0
				c0.693,0.333,1.446,0.583,2.058,1.029c0.417,0.304,0.636,0.882,0.942,1.337c-0.536,0.175-1.395,0.65-1.556,0.477
				c-1.016-1.089-1.884-1.193-2.813,0.026c-1.082-0.89-1.727-0.851-1.819,0.758c-0.009,0.148-1.213,0.396-1.23,0.351
				c-0.622-1.594-2.188,0.313-2.433-0.457c-0.344-1.08-1.03-2.243-1.66-1.28c-0.939,1.439-3.885-0.583-3.492,2.337
				c0.288,2.145-2.62,1.052-2.799,2.846c0.753,0.522,1.586,1.062,2.354,1.682c0.098,0.08-0.096,0.825-0.244,0.859
				c-2.705,0.611-1.181,1.628-0.264,2.57c1.021,1.052,2.073,1.919-0.44,2.554c-0.975,0.246-1.693,1.508-2.857,2.621
				c1.007,0.12,1.741,0.116,2.408,0.326c0.345,0.108,0.779,0.59,0.791,0.917c0.012,0.34-0.369,0.889-0.697,1.003
				c-0.59,0.205-1.323,0.012-1.902,0.232c-2.514,0.962-2.602,1.105-1.542,4.076c0.624,1.749,0.175,2.692-1.615,3.115
				c-0.1,0.023-0.009,0.845-0.008,1.295c0.235-0.021,0.509,0.029,0.699-0.073c0.954-0.513,1.85-1.165,2.852-1.538
				c0.271-0.102,1.215,0.604,1.206,0.923c-0.038,1.365,0.147,2.175,1.843,2.059c1.071-0.074,2.224,0.178,3.239,0.555
				c0.455,0.169,0.832,0.982,0.899,1.546c0.027,0.227-0.844,0.618-1.35,0.835c-0.423,0.181-1.313,0.267-1.308,0.307
				c0.412,3.233-2.574,3.662-4.553,5.147c0.684,0.589,1.213,1.413,1.663,1.372c2.848-0.261,2.22,1.292,1.627,2.876
				c-0.253,0.673-0.687,1.327-0.719,2.005c-0.01,0.207,1.046,0.465,1.613,0.699c-0.163,0.235-0.324,0.471-0.488,0.705
				c-0.745,1.067-0.691,1.776,0.81,1.911c0.725,0.065,1.773-0.381,1.787,0.992c-0.667,0-1.333,0-2,0
				c-11.672,0.456-23.331-0.232-35.047,0.774c-11.894,1.021-23.944,0.061-35.922,0.272c-11.843,0.209-23.724-0.997-35.535,0.904
				c-2.108,0.339-4.319,0.048-6.481,0.048c-9.332,0-18.665,0-27.997,0c-2,0-4,0-6,0c-2.156,0-4.355-0.246-6.444,0.129
				c-0.766,0.138-1.96,1.398-2.52,0.802c-1.954-2.085-4.337,0.546-6.352-0.848c-0.541-0.374-1.788,0.265-2.708,0.446
				c-0.766,0.15-1.866,0.715-2.235,0.403c-1.906-1.603-4.092-0.94-6.109-0.879c-6.002,0.184-11.996,0.657-17.997,0.91
				c-1.233,0.052-2.486-0.524-3.73-0.521c-1.3,0.004-2.599,0.357-3.898,0.558c-0.831,0-2.018,0.352-2.429-0.064
				c-1.35-1.366-2.672-2.378-4.729-1.982c-0.216,0.042-0.789-0.566-0.806-0.894c-0.194-3.876-2.459-7.648-0.147-11.699
				c0.709-1.243,0.62-3.529-0.063-4.835c-0.949-1.813-0.82-3.073-0.127-4.867c0.545-1.408,1.16-3.36-0.697-4.654
				C140.029,209.688,140.029,209.354,140.029,209.021z M220.02,224.019c0,0.162-0.034,0.455,0.005,0.466
				c0.542,0.143,3.395-0.926,3.994-1.466c0-0.493,0.097-1.011-0.025-1.473c-0.141-0.535-0.493-1.458-0.717-1.447
				c-0.802,0.037-2.091-0.73-2.257,0.921c-0.333,0-0.667,0-1,0c0.181-1.252-0.735-3.048,1.659-3.243
				c0.16-0.013,0.229-1.146,0.341-1.757c-0.332-1.162-0.995-1.867-2.29-2.021c-1.707-0.204-1.867,0.734-1.71,2.021
				c-0.333,0-0.667,0-1,0c-1.922,1.462-2.337,3.422-1.806,5.654c0.04,0.17,0.527,0.232,0.807,0.345c0.667,0,1.333,0,2,0
				C217.717,223.655,218.383,224.321,220.02,224.019z M217.02,233.018c0.594-0.094,1.678-0.112,1.705-0.294
				c0.248-1.599,1.149-1.949,2.583-1.756c0.191,0.026,0.472-0.617,0.711-0.95c1.817-1.089,0.791-2.574,0.899-3.913
				c-0.505-0.054-0.661-0.089-0.814-0.083c-1.59,0.057-3.416-0.33-4.687,0.338c-0.867,0.455-0.959,2.388-1.397,3.658
				c-1.647,0.164-1.007,1.475-0.944,2.241C215.175,233.479,216.311,232.88,217.02,233.018z"/>
			<path fill-rule="evenodd" clip-rule="evenodd" fill="#CECEC3" d="M329.006,188.023c-59.966,0-119.931,0-179.896,0
				c-0.666,0-1.332-0.004-1.999,0.001c-2.335,0.018-2.335,0.019-4.083,1.999c0-0.333,0-0.667,0-1
				c-0.392-0.333-0.749-0.885-1.182-0.955c-0.918-0.148-1.876-0.045-2.817-0.045c-0.333-0.333-0.667-0.667-1-1
				c1.253-0.081,1.29-1.02,0.78-1.646c-1.226-1.51-2.852-2.398-4.904-2.363c-2.624,0.043-5.25,0.01-7.874,0.01
				c0.723-3.604-0.928-6.978-1.018-10.512c-0.162-6.349,1.735-12.582,1.018-18.956c2.015-4.98,0.396-10.272,1.246-15.683
				c1.361,1.093,2.221,2.628,4.158,2.262c0.382-0.072,0.893,1.528,1.575,1.826c1.178,0.514,2.609-0.329,4.02-1.933
				c1.539,0.667,3.041,1.452,4.633,1.943c0.661,0.203,1.688,0.01,2.25-0.406c1.467-1.087,2.727-2.416,2.115-4.537
				c2.09-0.515,2.017,0.768,2.038,2.25c0.025,1.687,1.601,2.456,2.783,1.366c1.086-1.002,1.916-2.28,2.859-3.436
				c0.207,0.522,0.43,1.088,0.654,1.655c0.619-0.444,1.768-0.498,1.246-1.775c-0.127-0.31-0.133-0.991-0.088-1
				c1.828-0.39,3.667-0.721,5.506-1.06c0.145,0.711-0.472,1.905,0.774,1.958c2.287,0.097,4.584-0.046,6.875-0.146
				c0.128-0.005,0.233-0.529,0.35-0.812c0.491,0,1.379-0.111,1.415,0.017c1.019,3.643,3.908,3.087,6.574,2.951
				c0.348-0.018,0.899-0.432,0.953-0.734c0.066-0.372-0.186-0.947-0.493-1.199c-0.335-0.273-0.891-0.277-1.581-0.459
				c0.451-0.374,0.571-0.56,0.695-0.562c1.145-0.022,2.291-0.014,3.436-0.014c0.333,0.333,0.667,0.667,1,1
				c0.333,0.333,0.667,0.667,1,1c0.333,0,0.667,0,1,0c0.799,1.513,1.557,3.058,3.502,1.094c0.144-0.146,1.045,0.314,1.479,0.646
				c0.417,0.317,0.617,1.113,1.027,1.209c1.512,0.355,3.038-0.223,4.658,0.884c0.881,0.601,2.952-0.863,4.435-0.749
				c2.277,0.176,1.894-1.154,1.925-2.462c0.004-0.179,0.374-0.349,0.712-0.641c0.594,0.973,1.16,1.902,1.915,3.141
				c0.517-0.967,0.828-2.019,1.51-2.704c0.864-0.871,2.006-1.478,3.074-2.127c0.379-0.23,1.004-0.123,1.302-0.401
				c0.294-0.274,0.401-0.838,0.419-1.28c0.008-0.194-0.395-0.548-0.642-0.58c-0.652-0.083-1.352,0.092-1.975-0.066
				c-0.493-0.126-0.899-0.593-1.344-0.908c0.409-0.352,0.851-1.033,1.223-0.997c1.686,0.163,1.971-0.695,1.777-2.056
				c1.175-0.299,3.309,1.062,3.031-1.786c-0.037-0.384,0.44-1.181,0.528-1.159c2.236,0.539,5.539-1.708,6.439,2.38
				c1.23-0.263,1.901,2.446,3.421,0.644c3.759,0.499,7.293-1.351,11.027-1.071c2.54,0.189,5.01-0.014,7.627,0.804
				c2.729,0.85,5.928,0.189,8.921,0.189c1.266,0.089,1.274,0.998,0.77,1.665c-1.032,1.365-1.459,2.36,0.849,2.304
				c1.2-0.029,2.085,0.376,3.081,0.994c3.071,1.909,6.488,2.316,10.061,2.06c3.822-0.274,7.095-2.079,10.343-3.76
				c1.866-0.967,3.277-2.812,4.894-4.261c4.354-0.15,8.775,0.588,13.018-1c10.779,0,21.559-0.01,32.337,0.027
				c0.547,0.002,1.573,0.419,1.566,0.613c-0.084,2.314,2.485,1.05,3.073,2.359c-0.104,0.938,0.097,2.094-0.384,2.761
				c-0.711,0.988-0.285,1.472-0.041,2.451c1.098,4.394,3.248,7.81,7.424,9.787c-1.052,0.935-3.735,4.408-3.995,5.245
				c-1.462,4.717-1.781,11.232,0.086,15.599c1.405,3.284,3.587,6.281,7.908,6.153c0,2.818-0.025,2.799-2.703,6.277
				c-0.25,0.325-0.059,1.187,0.205,1.639c0.164,0.282,0.847,0.264,1.295,0.38c-0.431,0.234-1.005,0.363-1.27,0.721
				c-1.266,1.712-3.054,0.909-4.592,0.927c-1.554,0.016-2.442,0.616-2.929,1.984C329.651,185.968,329.339,186.999,329.006,188.023z
				 M236.017,166.026c-0.15-0.758,0.496-1.915-1-2c0.054-1.27-0.349-2.605,1.026-3.578c0.935-0.662,1.861-1.495,2.437-2.462
				c0.778-1.308,1.865-2.631,1.524-4.329c-0.833-4.148-5.451-8.407-9.602-8.59c-4.089-0.18-8.192-0.039-12.382-0.039
				c0,9.669-0.001,18.946,0.007,28.221c0,0.145,0.077,0.302,0.156,0.43c0.085,0.138,0.214,0.249,0.146,0.173
				c1.989,0,3.774,0,5.682,0c0.031-4.061-0.023-7.96,0.033-11.826c1.989,0,3.482,0,4.975,0c-0.079,1.706,0.692,2.987,2,4
				c0.207,3.047,2.64,5.133,3.218,7.699c2.083,0,3.945,0,6.358,0C238.566,171.023,238.253,168.004,236.017,166.026z
				 M140.579,144.866c3.084,10.151,5.96,19.616,8.86,29.16c0.99,0,1.986-0.08,2.963,0.019c1.417,0.144,2.206-0.733,2.588-1.786
				c1.423-3.914,2.785-7.854,3.974-11.844c0.279-0.935,0.373-1.464,1.449-1.404c0.853,0.046,1.57-0.046,1.663,1.193
				c0.054,0.716,0.667,1.374,0.94,2.091c1.26,3.312,2.517,6.624,3.713,9.958c0.391,1.087,0.654,1.849,2.192,1.839
				c3.552-0.022,3.625-0.415,4.114-3.338c0.102-0.604,0.396-1.174,0.528-1.776c0.896-4.095,2.946-7.792,3.609-12.04
				c0.621-3.979,2.485-7.765,3.896-11.908c-1.34,0-2.315-0.017-3.291,0.003c-2.782,0.057-2.572,0.15-3.808,3.097
				c-1.462,3.488-1.773,7.235-2.878,10.796c-0.361,1.165-0.948,1.199-1.733,1.079c-1.395-0.214-2.009-1.018-2.408-2.504
				c-0.956-3.569-2.293-7.037-3.497-10.537c-0.42-1.221-0.765-2.323-2.62-2.007c-1.463,0.249-2.381,0.656-2.823,2.126
				c-1.29,4.292-2.627,8.57-4.017,12.832c-0.146,0.449-0.723,0.985-1.166,1.053c-0.561,0.087-1.504-0.082-1.726-0.464
				c-0.531-0.913-0.873-1.994-1.048-3.047c-0.411-2.471-1.076-4.841-1.987-7.18c-0.617-1.582-0.344-3.982-1.404-4.795
				C145.482,144.575,143.239,145.052,140.579,144.866z M268.091,160.185c-1.318-0.208-2.477-0.048-2.813-0.499
				c-2.739-3.678-5.515-7.392-7.963-11.206c-2.001-3.119-3.904-3.834-7.096-3.246c0,9.583,0,19.141,0,28.664c1.99,0,3.773,0,5.896,0
				c0-5.023,0-9.931,0-15.001c1.142,0.18,2.3,0.02,2.636,0.471c2.739,3.678,5.516,7.392,7.964,11.206
				c2.001,3.119,3.903,3.835,7.096,3.246c0-9.584,0-19.142,0-28.664c-1.99,0-3.774,0-5.719,0
				C268.091,150.058,268.091,154.84,268.091,160.185z M321.843,173.851c0-9.773,0-19.214,0-28.551c-2.073,0-3.963,0-6.02,0
				c0,5.048,0,9.826,0,14.931c-1.109-0.316-2.328-0.283-2.756-0.848c-2.672-3.531-5.409-7.1-7.685-10.815
				c-2.075-3.386-4.163-3.843-7.209-3.35c0,9.759,0,19.2,0,28.538c2.068,0,3.961,0,6.019,0c0-5.049,0-9.826,0-14.931
				c1.11,0.316,2.329,0.283,2.757,0.848c2.671,3.531,5.334,7.127,7.696,10.813C316.595,173.527,318.478,174.465,321.843,173.851z
				 M211.356,174.025c-0.428-1.383-0.638-2.282-0.979-3.128c-1.093-2.702-2.272-5.367-3.348-8.076
				c-2.21-5.561-4.242-11.179-6.868-16.588c-0.993-2.045-2.113-0.929-3.155-1.154c-0.845-0.183-1.559-0.258-2.085,1.199
				c-2.084,5.765-4.582,11.379-6.89,17.063c-1.379,3.395-2.689,6.814-4.027,10.213c0.371,0.19,0.641,0.441,0.919,0.452
				c1.16,0.046,2.337-0.092,3.482,0.048c1.365,0.167,1.528-0.573,1.78-1.636c0.277-1.173,0.604-2.786,1.443-3.259
				c1.01-0.567,2.581-0.134,3.91-0.134c1.992,0,4,0.159,5.971-0.047c1.771-0.187,2.799,0.48,3.02,2.095
				c0.351,2.542,1.574,3.556,4.119,2.974C209.268,173.904,209.948,174.025,211.356,174.025z M283.163,173.775
				c1.732,0,3.633,0,5.671,0c0-9.498,0-19.049,0-28.648c-1.958,0-3.74,0-5.671,0C283.163,154.656,283.163,164.091,283.163,173.775z"
				/>
			<path fill-rule="evenodd" clip-rule="evenodd" fill="#CECEC3" d="M235.018,238.017c2.163,0,4.374,0.291,6.481-0.048
				c11.812-1.901,23.692-0.695,35.535-0.904c11.978-0.212,24.028,0.749,35.922-0.272c11.716-1.007,23.375-0.318,35.047-0.774
				c-0.021,1.463-0.128,2.876,2.07,1.516c0.684-0.422,2.08-0.612,2.591-0.206c1.12,0.891-0.335,1.569-0.64,2.372
				c-0.099,0.262,0.057,0.621,0.138,1.276c1.186,0,2.413,0,4.459,0c-1.484,1.381-2.301,2.807-3.282,2.932
				c-3.213,0.41,0.621,1.589-0.336,2.108c-0.274,0.107-0.745,0.162-0.792,0.332c-0.281,1.027-0.149,2.318-1.781,0.772
				c-0.534-0.506-2.249-0.237-3.096,0.249c-0.464,0.267-0.243,1.726-0.331,2.646c-11.458,0-22.917,0.05-34.373-0.039
				c-2.528-0.02-5.193,0.758-7.589-0.916c-0.446-0.313-1.33-0.176-1.954-0.018c-1.229,0.313-2.395,2.021-3.637,0.032
				c-1.018,1.633-3.013,0.271-3.981,1.127c-1.376,1.217-2.79,0.678-4.185,0.787c-1.485,0.117-2.987,0.026-4.482,0.026
				c-1.494,0-2.988,0-4.483,0c-1.494,0-3.001,0.118-4.481-0.027c-2.361-0.231-4.698-0.775-7.063-0.936
				c-2.479-0.167-4.99,0.108-7.466-0.088c-1.683-0.134-3.331-0.729-4.986-1.151c-0.896-0.229-1.756-0.644-2.661-0.776
				c-2.676-0.394-5.375-0.638-8.047-1.055c-0.726-0.113-1.375-0.884-2.084-0.928c-6.5-0.399-13.006-0.705-19.51-1.038
				c0.131-0.708-0.434-1.935,0.732-1.948c2.957-0.034,5.082-1.893,7.548-3.023C235.384,239.547,234.887,238.725,235.018,238.017z"/>
			<path fill-rule="evenodd" clip-rule="evenodd" fill="#CECEC3" d="M357.002,141.029c0,0.667,0,1.333,0,2
				c-0.233,1.537,0.51,2.612,1.89,2.939c0.946,0.224,1.743,0.518,2.629,0.928c1.875,0.869,3.858-0.152,4.273-2.267
				c0.351-1.79,2.062-3.688,0.207-5.6c0-1,0-2,0-3c2.629-0.259,4.944,0.109,5.999,3c-2.088,0.484-2.817,2.626-2.834,3.942
				c-0.038,3.18-1.869,4.777-4.159,5.982c-1.364,0.718-1.159,1.165-0.494,2.099c1.546,2.174,3.043,4.381,4.593,6.552
				c0.157,0.22,0.521,0.358,0.811,0.411c1.562,0.279,1.375,1.124,0.58,1.989c-1.532,1.667-3.205,3.081-5.708,3.066
				c-0.711-0.004-1.655,0.324-2.098,0.839c-2.334,2.714-5.291,3.479-8.688,3.117c0.333-1.355,0.815-2.695,0.96-4.071
				c0.168-1.596,0.039-3.224,0.039-4.824c-3.827,0-7.269,0-10.796,0c0,1.34,0,2.571,0,3.969c1.649,0,3.097,0,4.53,0
				c0.408,6.235-0.271,6.964-6.286,6.925c-0.166-0.001-0.332,0.002-0.498,0c-2.98-0.043-4.716-1.216-4.886-3.988
				c-0.243-3.968-0.231-7.972-0.004-11.942c0.162-2.81,1.861-4.016,4.811-4.065c0.663-0.012,1.346,0.099,1.988-0.02
				c2.505-0.464,3.956,0.895,5.153,2.808c0.281,0.45,0.704,1.142,1.072,1.148c1.27,0.023,3.177,0.255,3.682-0.438
				c0.979-1.346-0.389-2.555-1.37-3.7c-0.649-0.755-1.046-1.488-2.038-2.108c-3.231-2.018-6.557-3.117-10.356-2.693
				c-0.074-2.004-1.16-3.463-2.388-4.959c-1.281-1.562-0.284-3.083,0.235-4.801c0.591-1.949,1.714-1.063,2.626-1.211
				c1.938-0.316,2.021-0.669,0.526-3.027c0-0.498,0-0.995,0-1.493c0.351,0.015,0.711-0.021,1.048,0.056
				c0.446,0.101,1.089,0.548,1.273,0.396c1.188-0.984,1.836-1.18,1.697,0.762c-0.055,0.76,0.099,1.536,0.155,2.28
				c0.989,0,1.655,0.047,2.314-0.008c4.099-0.339,3.097-0.69,3.519,2.507c0.261,1.978,2.016,3.244,2.641,4.87
				C354.444,141.464,355.684,140.945,357.002,141.029z"/>
			<path fill-rule="evenodd" clip-rule="evenodd" fill="#C2C1B7" d="M235.018,238.017c-0.131,0.708,0.366,1.53-0.719,2.028
				c-2.466,1.131-4.591,2.989-7.548,3.023c-1.166,0.014-0.602,1.24-0.732,1.948c-19.998,0-39.995,0-59.993,0
				c0.184-1.34-0.065-2.13-1.754-2.049c-1.478,0.07-2.756-0.034-2.245,2.049c-0.667,0-1.333,0-2,0
				c-0.15-0.712,0.489-1.832-0.795-1.967c-0.953-0.101-2.195-0.227-2.832,0.27c-0.563,0.439-0.469,1.723-0.678,2.694
				c-2.733-2.291-2.702-2.235-5.658-0.594c-0.783,0.436-1.849,0.332-2.735,0.626c-0.487,0.162-0.871,0.637-1.302,0.97
				c-2.667,0-5.332,0-7.999,0c-0.085-1.496-1.242-0.85-2-1c-0.425-0.333-0.834-0.927-1.277-0.953
				c-1.81-0.109-3.634,0.018-5.444-0.092c-0.443-0.026-0.853-0.621-1.277-0.954c2.091-2.392,4.639-3.285,7.868-3.064
				c3.939,0.27,7.911,0.025,11.868,0.083c1.693,0.024,1.186-1.135,1.262-2.019c1.299-0.2,2.598-0.554,3.898-0.558
				c1.244-0.003,2.497,0.573,3.73,0.521c6.001-0.253,11.995-0.727,17.997-0.91c2.017-0.062,4.203-0.724,6.109,0.879
				c0.369,0.312,1.469-0.253,2.235-0.403c0.921-0.182,2.167-0.82,2.708-0.446c2.015,1.394,4.398-1.237,6.352,0.848
				c0.56,0.597,1.754-0.664,2.52-0.802c2.089-0.375,4.289-0.129,6.444-0.129c1.872,1.415,4.127,1.415,6,0
				C216.353,238.017,225.686,238.017,235.018,238.017z"/>
			<path fill-rule="evenodd" clip-rule="evenodd" fill="#C2C1B7" d="M354.003,167.026c3.396,0.362,6.354-0.403,8.688-3.117
				c0.442-0.515,1.387-0.843,2.098-0.839c2.503,0.015,4.176-1.398,5.708-3.066c0.795-0.865,0.981-1.71-0.58-1.989
				c-0.289-0.053-0.653-0.19-0.811-0.411c-1.55-2.171-3.047-4.378-4.593-6.552c-0.665-0.935-0.87-1.381,0.494-2.099
				c2.29-1.205,4.121-2.802,4.159-5.982c0.017-1.316,0.746-3.458,2.834-3.942c-0.003,1.54,0.553,2.931,0.151,4.654
				c-0.581,2.499-0.131,5.239-0.121,7.875c2.397,1.887-0.161,4.976,1.834,7.228c0.819,0.925,0.136,3.18,0.136,4.832
				c0,3.136,0,6.271,0,9.408c-0.709,0.136-1.627-0.423-2.011,0.741c-1.009,3.059-1.03,3.052-3.988,3.258
				c0.235-1.585-2.755-0.578-2.044-2.543c-0.566-0.071-1.155-0.272-1.694-0.181c-0.745,0.126-1.456,0.683-2.177,0.673
				c-0.977-0.013-2.22-0.869-2.866-0.505c-1.251,0.703-2.802,1.858-3.088,3.092c-0.641,2.756-2.007,1.425-3.157,0.88
				c-1.117-0.529-2.047-1.446-3.152-2.011c-0.275-0.142-1.049,0.305-1.345,0.678c-0.465,0.587-0.387,0.759,0.685,0.888
				c0.985,0.117,1.94-0.139,1.903,1.462c-0.02,0.849,0.604,1.711,0.938,2.567c0,0.938,0,1.878,0,2.999
				c-1.438,0-2.56-0.009-3.682,0.002c-1.327,0.014-1.976,0.831-2.317,1.998c-3.747,1.431-7.659,0.952-11.526,0.996
				c-1.824,0.021-3.647,0.004-5.472,0.004c0.333-1.024,0.646-2.056,1.005-3.07c0.486-1.368,1.375-1.969,2.929-1.984
				c1.538-0.018,3.326,0.785,4.592-0.927c0.265-0.357,0.839-0.486,1.27-0.721c-0.448-0.116-1.131-0.098-1.295-0.38
				c-0.264-0.452-0.455-1.313-0.205-1.639c2.678-3.479,2.703-3.459,2.703-6.277c1.009,0.333,2.056,1.035,3.021,0.938
				C347.79,173.482,351.996,171.946,354.003,167.026z M369.101,167.223c0.347-0.255,0.624-0.458,0.899-0.662
				c-0.229-0.178-0.467-0.512-0.687-0.501c-0.415,0.022-0.818,0.243-1.228,0.382c0.3,0.23,0.6,0.462,2.986,1.609
				c-0.177-0.299-0.392-0.662-0.606-1.024c-0.155,0.155-0.468,0.353-0.439,0.458c0.136,0.499,0.364,0.973,0.559,1.456
				C370.724,168.688,370.862,168.435,369.101,167.223z"/>
			<path fill-rule="evenodd" clip-rule="evenodd" fill="#CECEC3" d="M149.028,239.017c-0.076,0.884,0.432,2.043-1.262,2.019
				c-3.957-0.058-7.929,0.187-11.868-0.083c-3.229-0.221-5.777,0.673-7.868,3.064c-0.832,0-2.142,0.325-2.406-0.062
				c-0.758-1.115-1.57-2.542-1.507-3.803c0.219-4.357-1.113-8.845,0.913-13.069c-0.562-3.502,0.984-7.125-0.901-10.623
				c-0.626-1.16-0.099-2.941-0.099-4.439c1,0,2,0,3,0c0.254,0.333,0.549,0.979,0.756,0.952c2.302-0.303,4.638-0.535,6.857-1.167
				c1.017-0.289,1.72-1.455,1.386-2.785c1,0,2,0,3,0c0.333,0.333,0.667,0.667,1,1c1.857,1.294,1.242,3.246,0.697,4.654
				c-0.693,1.794-0.822,3.055,0.127,4.867c0.684,1.306,0.772,3.592,0.063,4.835c-2.312,4.051-0.047,7.823,0.147,11.699
				c0.017,0.327,0.59,0.936,0.806,0.894c2.057-0.396,3.379,0.616,4.729,1.982C147.011,239.368,148.197,239.017,149.028,239.017z"/>
			<path fill-rule="evenodd" clip-rule="evenodd" fill="#C2C1B7" d="M353.003,246.016c0.957-0.52-2.877-1.698,0.336-2.108
				c0.981-0.125,1.798-1.551,3.282-2.932c-2.046,0-3.273,0-4.459,0c-0.081-0.655-0.236-1.015-0.138-1.276
				c0.305-0.803,1.76-1.481,0.64-2.372c-0.511-0.406-1.907-0.216-2.591,0.206c-2.198,1.36-2.092-0.053-2.07-1.516
				c0.667,0,1.333,0,2,0c1.664,0.04,3.404-0.331,4.851,0.951c0.058,0.051,0.751-0.618,1.148-0.951c0.667,0,1.333,0,2,0
				c0.333,0.333,0.667,0.667,1,1c-0.333,0.252-0.667,0.504-1,0.755c0.333,0.415,0.667,0.829,1,1.244c1.496,0.085,0.85,1.242,1,2
				c-0.333,0-0.667,0-1,0c-0.277-0.111-0.552-0.234-0.834-0.33c-0.339-0.114-0.687-0.205-1.029-0.307
				c-0.046,0.306-0.202,0.839-0.119,0.879c0.635,0.307,1.315,0.518,1.982,0.758c0,0.333,0,0.667,0,1
				c-0.333,0.252-0.667,0.504-1,0.756c0.333,0.415,0.667,0.829,1,1.244c0.15,0.757-0.496,1.914,1,1.999
				c-0.333,0.667-0.667,1.333-1,2c-1.104,0.333-2.198,0.709-3.321,0.949c-0.151,0.033-0.449-0.616-0.679-0.949
				c0.091-0.591-0.021-1.359,0.313-1.735c0.746-0.843,0.816-1.216-0.429-1.261C354.258,245.997,353.631,246.016,353.003,246.016z"/>
			<path fill-rule="evenodd" clip-rule="evenodd" fill="#020202" d="M374,178.024c0.494,0,0.987,0,1.48,0
				c-0.004,0.345,0.017,0.691-0.019,1.033c-0.145,1.418-0.376,2.83-0.443,4.25c-0.079,1.642,0.177,3.321-0.08,4.926
				c-0.207,1.299-0.958,2.511-1.468,3.76c0.144-1.991-3.473-1.821-2.521-4.333c0.025-0.067-0.678-0.459-1.071-0.628
				c-0.837-0.361-1.677-0.902-2.547-0.969c-3.226-0.246,0.64-1.517-0.331-2.04c1.296,0.162,2.218-0.013,2.02-1.716
				c-0.248-2.132,0.641-3.302,2.949-3.333C372.65,178.965,373.323,178.357,374,178.024z"/>
			<path fill-rule="evenodd" clip-rule="evenodd" fill="#C2C1B7" d="M146.028,137.03c0.612,2.121-0.648,3.45-2.115,4.537
				c-0.563,0.416-1.59,0.609-2.25,0.406c-1.593-0.491-3.095-1.276-4.633-1.943c0-0.333,0-0.667,0-1c0-0.667,0-1.333,0-2
				c0.15-0.758-0.496-1.915,1-2c0.941,0,1.899,0.104,2.817-0.045c0.434-0.07,0.791-0.622,1.183-0.955
				c0.385-0.219,0.947-0.343,1.126-0.674c0.839-1.544,1.823-1.062,2.873-0.326C146.028,134.363,146.028,135.697,146.028,137.03z"/>
			<path fill-rule="evenodd" clip-rule="evenodd" fill="#383836" d="M146.028,247.016c0.431-0.333,0.814-0.808,1.302-0.97
				c0.886-0.294,1.952-0.19,2.735-0.626c2.956-1.642,2.925-1.697,5.658,0.594c0.209-0.972,0.114-2.255,0.678-2.694
				c0.637-0.496,1.878-0.37,2.832-0.27c1.284,0.135,0.645,1.255,0.795,1.967c-0.141,0.709,0.469,1.836-0.766,1.964
				c-1.465,0.15-2.976,0.183-4.435,0.001c-2.288-0.284-1.74,1.27-1.815,2.84c-0.866,0.063-1.799,0.023-2.682,0.214
				C147.761,250.59,146.699,249.105,146.028,247.016z"/>
			<path fill-rule="evenodd" clip-rule="evenodd" fill="#383836" d="M360.002,247.016c-1.496-0.085-0.85-1.242-1-1.999
				c0.197-0.364,0.527-0.721,0.55-1.095c0.017-0.29-0.353-0.603-0.55-0.905c0-0.333,0-0.667,0-1s0-0.667,0-1c0.333,0,0.667,0,1,0
				c0.333,0.333,0.667,0.667,1,1s0.667,0.667,1,1c0,0.333,0,0.667,0,1c0.332,0.333,0.666,0.667,0.999,1
				c2.389-0.218,2.487-0.389,1.312-2.199c-0.152-0.235-0.21-0.532-0.312-0.801c0-1,0-2,0-3c0.691,0.333,1.354,0.761,2.08,0.982
				c2.218,0.679,2.26,0.745,1.943,3.533c-0.049,0.43,0.093,0.996,0.361,1.32c0.494,0.595,0.838,1.225-0.256,1.112
				c-1.835-0.189-2.41,0.448-2.198,2.211c0.027,0.222-0.931,0.844-1.358,0.78c-0.919-0.136-2.487,0.95-2.615-1.151
				c-0.017-0.281-0.623-0.527-0.956-0.789C360.669,247.016,360.335,247.016,360.002,247.016z"/>
			<path fill-rule="evenodd" clip-rule="evenodd" fill="#C2C1B7" d="M126.031,183.023c2.625,0,5.25,0.033,7.874-0.01
				c2.052-0.035,3.678,0.854,4.904,2.363c0.51,0.627,0.474,1.565-0.78,1.646c-0.484,0-1.186,0.209-1.42-0.033
				c-1.662-1.719-3.036-1.16-4.419,0.345c-0.291,0.317-0.769,0.464-1.16,0.688c-0.222-0.722-0.259-1.61-0.718-2.114
				c-0.413-0.454-1.29-0.486-1.962-0.705c-0.106,0.606-0.213,1.213-0.319,1.819c-0.424,0.333-0.847,0.667-1.27,1
				c-0.244-0.349-0.673-0.686-0.697-1.048C125.979,185.663,126.031,184.342,126.031,183.023z"/>
			<path fill-rule="evenodd" clip-rule="evenodd" fill="#020202" d="M365.001,231.018c1.331-0.074,3.068,0.615,3.205-1.704
				c0.568,0.039,1.55-0.083,1.638,0.143c0.502,1.293,0.931,2.65,1.123,4.022c0.274,1.947-1.429,2.148-2.681,2.812
				c-0.898,0.477-1.654,0.888-2.289,0.74c-0.315-0.073-0.663-0.013-0.996-0.013C365.001,235.018,365.001,233.018,365.001,231.018z"
				/>
			<path fill-rule="evenodd" clip-rule="evenodd" fill="#383836" d="M365.001,231.018c0,2,0,4,0,6c-1.496,0.085-0.85,1.241-1,1.999
				c-0.869,0.085-2.069-0.44-2.046,1.236c0.004,0.25-0.62,0.509-0.953,0.764c-0.333,0-0.667,0-1,0c-0.15-0.758,0.496-1.915-1-2
				c0-0.667,0-1.333,0-1.999c1.162-0.332,2.119-1.004,1.968-2.289C360.595,231.533,362.825,231.345,365.001,231.018z"/>
			<path fill-rule="evenodd" clip-rule="evenodd" fill="#383836" d="M374,178.024c-0.677,0.333-1.35,0.94-2.03,0.95
				c-2.309,0.031-3.197,1.201-2.949,3.333c0.198,1.703-0.724,1.878-2.02,1.716c-0.381-0.984,0.927-2.53-1-2.999c0-1,0-2,0-3
				c0.758-0.15,1.915,0.496,2-1c2.958-0.206,2.979-0.199,3.988-3.258c0.384-1.164,1.302-0.605,2.011-0.741
				C374,174.692,374,176.357,374,178.024z"/>
			<path fill-rule="evenodd" clip-rule="evenodd" fill="#383836" d="M346.004,187.023c0.342-1.167,0.99-1.984,2.317-1.998
				c1.122-0.011,2.243-0.002,3.682-0.002c0-1.121,0-2.061,0-2.999c0.667,0.229,1.926,0.52,1.91,0.678
				c-0.194,1.872,0.464,2.614,2.382,2.344c1.448-0.205,2.336,0.59,2.707,1.978C354.669,187.023,350.336,187.023,346.004,187.023z"/>
			<path fill-rule="evenodd" clip-rule="evenodd" fill="#C2C1B7" d="M347.003,250.016c0.088-0.921-0.133-2.38,0.331-2.646
				c0.847-0.486,2.562-0.755,3.096-0.249c1.632,1.546,1.5,0.255,1.781-0.772c0.047-0.17,0.518-0.225,0.792-0.332
				c0.333,1,0.667,2,1,3c-0.281,0.114-0.745,0.165-0.811,0.354c-0.299,0.861-0.386,2.474-0.73,2.521
				c-1.39,0.194-2.877,0.046-4.264-0.268C347.704,251.512,347.396,250.575,347.003,250.016z"/>
			<path fill-rule="evenodd" clip-rule="evenodd" fill="#C2C1B7" d="M136.03,209.021c0.334,1.33-0.369,2.496-1.386,2.785
				c-2.219,0.632-4.556,0.864-6.857,1.167c-0.207,0.027-0.502-0.619-0.756-0.952c0.753-0.667,1.522-1.315,2.25-2.009
				c0.297-0.281,0.503-0.658,0.75-0.991c1.048-0.216,2.096-0.59,3.146-0.6C134.126,208.413,135.079,208.805,136.03,209.021z"/>
			<path fill-rule="evenodd" clip-rule="evenodd" fill="#383836" d="M142.029,134.03c-0.392,0.333-0.749,0.884-1.183,0.955
				c-0.918,0.148-1.876,0.045-2.817,0.045c-0.333-1.602-0.736-3.196-0.944-4.814c-0.045-0.349,0.611-0.787,0.944-1.185
				c0.493,0.326,0.963,0.891,1.482,0.938C142.216,130.221,142.079,132.132,142.029,134.03z"/>
			<path fill-rule="evenodd" clip-rule="evenodd" fill="#CECEC3" d="M366.001,133.03c-0.333-0.397-1.002-1.091-0.951-1.148
				c1.282-1.447,0.911-3.187,0.951-4.851c0.333,0,0.667,0,1,0c0.085,1.496,1.242,0.85,2,1
				C370.846,131.818,370.296,132.734,366.001,133.03z"/>
			<path fill-rule="evenodd" clip-rule="evenodd" fill="#383836" d="M130.031,209.021c-0.247,0.333-0.453,0.71-0.75,0.991
				c-0.728,0.693-1.497,1.342-2.25,2.009c-1,0-2,0-3,0c0-0.964,0.012-1.928-0.003-2.892c-0.018-1.179,1.024-1.493,1.511-0.985
				C126.915,209.579,128.538,208.783,130.031,209.021z"/>
			<path fill-rule="evenodd" clip-rule="evenodd" fill="#020202" d="M366.001,178.024c0,1,0,2,0,3c-0.323,0-0.649,0.03-0.968-0.006
				c-0.853-0.098-1.735,1.818-2.548-0.02c-0.399-0.905,0.91-2.79,2.064-2.963C365.023,177.965,365.517,178.024,366.001,178.024z"/>
			<path fill-rule="evenodd" clip-rule="evenodd" fill="#383836" d="M162.026,245.017c-0.511-2.083,0.768-1.979,2.245-2.049
				c1.689-0.081,1.938,0.709,1.754,2.049C164.693,245.017,163.359,245.017,162.026,245.017z"/>
			<path fill-rule="evenodd" clip-rule="evenodd" fill="#383836" d="M128.031,187.023c0.106-0.606,0.213-1.213,0.319-1.819
				c0.672,0.219,1.549,0.251,1.962,0.705c0.459,0.504,0.497,1.393,0.718,2.114C130.031,187.69,129.031,187.356,128.031,187.023z"/>
			<path fill-rule="evenodd" clip-rule="evenodd" fill="#CECEC3" d="M354.003,249.016c-0.333-1-0.667-2-1-3
				c0.628,0,1.255-0.019,1.883,0.004c1.245,0.045,1.175,0.418,0.429,1.261c-0.333,0.376-0.222,1.145-0.313,1.735
				C354.669,249.016,354.336,249.016,354.003,249.016z"/>
			<path fill-rule="evenodd" clip-rule="evenodd" fill="#CECEC3" d="M137.03,137.03c0,0.667,0,1.333,0,2
				c-0.994-0.431-3.117,1.137-2.898-1.238C134.276,136.218,136.044,137.34,137.03,137.03z"/>
			<path fill-rule="evenodd" clip-rule="evenodd" fill="#EE2525" d="M358.002,236.018c-0.667,0-1.333,0-2,0
				c-0.333-0.427-1.033-1.014-0.93-1.25c0.289-0.664,0.91-1.185,1.448-1.818C357.069,234.085,357.535,235.052,358.002,236.018z"/>
			<path fill-rule="evenodd" clip-rule="evenodd" fill="#383836" d="M139.029,188.023c0.941,0,1.899-0.104,2.817,0.045
				c0.433,0.07,0.791,0.622,1.182,0.955c-0.941,0-1.899,0.104-2.817-0.045C139.778,188.908,139.421,188.356,139.029,188.023z"/>
			<path fill-rule="evenodd" clip-rule="evenodd" fill="#020202" d="M360.002,247.016c0.333,0,0.667,0,1,0
				c0.303,1.637-0.363,2.303-2,2C359.335,248.349,359.669,247.683,360.002,247.016z"/>
			<path fill-rule="evenodd" clip-rule="evenodd" fill="#C2C1B7" d="M369.001,128.031c-0.758-0.15-1.915,0.496-2-1
				C367.759,127.181,368.916,126.535,369.001,128.031z"/>
			<path fill-rule="evenodd" clip-rule="evenodd" fill="#383836" d="M136.03,246.016c0.758,0.15,1.915-0.496,2,1
				C137.272,246.865,136.115,247.512,136.03,246.016z"/>
			<path fill-rule="evenodd" clip-rule="evenodd" fill="#C2C1B7" d="M140.029,210.021c-0.333-0.333-0.667-0.667-1-1
				c0.333,0,0.667,0,1,0C140.029,209.354,140.029,209.688,140.029,210.021z"/>
			<path fill-rule="evenodd" clip-rule="evenodd" fill="none" d="M146.028,137.03c0-1.333,0-2.667,0-4c0-1,0-2,0-3c0-1,0-2,0-3
				c0-2.5,0.039-4.999-0.013-7.498c-0.037-1.755-0.247-3.478,2.056-4.12c0.43-0.12,0.652-1.008,0.955-1.551
				c0.523-0.939,0.815-2.31,1.607-2.718c0.921-0.475,2.531-0.542,3.395-0.032c2.808,1.661,5.763,0.683,8.633,0.88
				c1.579,0.108,2.791,0.313,3.392,2.042c0.796,2.283,2.876,2.729,4.949,2.98c1.261,0.153,2.41-0.005,3.657,0.918
				c1.325,0.98,3.158,1.264,5.014,1.175c1.532-0.073,3.333-0.85,4.66,0.733c2.648-0.574,5.43-0.737,7.69-2.501
				c-0.172-1.702,1.074-1.292,1.985-1.299c3-0.021,6.002,0.073,8.997-0.035c2.142-0.077,3.774,0.002,5.038,2.366
				c1.169,2.188,3.993,2.225,6.305,2.655c1.703,0.316,3.436-0.452,5.183,0.844c1.291,0.956,3.259,0.171,5.082,0.926
				c1.914,0.794,4.902,1.123,6.686-1.518c2.168-3.21,5.53-2.65,8.415-1.854c1.674,0.462,2.872,0.844,4.483,0.008
				c1.262-0.653,2.749-0.899,4.04,0.306c2.855,2.665,6.552,2.973,10.133,3.235c3.646,0.266,7.329,0.117,10.992,0.028
				c1.396-0.033,2.788,0.38,4.202-0.807c0.786-0.659,2.602-0.373,3.875-0.122c5.034,0.99,4.984,0.729,10.192,0.088
				c2.793-0.343,5.722-0.148,8.699,0.452c4.345,0.877,9.039,1.335,13.358-0.799c0.512-0.253,0.638-0.745,1.477-0.261
				c0.892,0.514,2.179,0.32,3.286,0.486c1.708,0.255,3.345-0.101,5.188,0.773c1.515,0.719,4.212,1.132,5.98-0.78
				c3.695-0.333,7.393-0.632,11.082-1.013c2.371-0.244,4.8,0.597,7.148-0.888c0.952-0.603,2.66-0.347,3.924-0.051
				c3.007,0.705,5.996,1.191,9.099,1.001c0.511-0.031,1.118,0.534,1.568,0.947c0.171,0.156,0.025,0.658,0.023,1.002
				c-1.589-0.271-1.612,0.824-1.438,1.826c0.381,2.196-0.955,4.573,0.832,6.685c0.29,0.343-0.766,1.623-0.813,2.491
				c-0.126,2.326-0.043,4.663-0.043,6.996c-1.318-0.084-2.558,0.435-3.351-1.63c-0.625-1.625-2.38-2.892-2.641-4.87
				c-0.422-3.198,0.58-2.846-3.519-2.507c-0.659,0.055-1.325,0.008-2.314,0.008c-0.057-0.744-0.21-1.52-0.155-2.28
				c0.139-1.941-0.51-1.746-1.697-0.762c-0.185,0.152-0.827-0.295-1.273-0.396c-0.337-0.076-0.697-0.041-1.048-0.056
				c0,0.498,0,0.995,0,1.493c-0.98,0-1.984,0.135-2.938-0.024c-3.076-0.517-4.553-0.398-7.241,0.68
				c-0.562,0.226-1.211,0.235-1.819,0.344c-0.588-1.309-3.157-0.045-3.073-2.359c0.007-0.194-1.02-0.611-1.566-0.613
				c-10.778-0.037-21.558-0.027-32.337-0.027c-4.242,1.588-8.664,0.85-13.018,1c-1.284-0.216-2.859-0.995-3.786-0.518
				c-1.472,0.761-2.837,0.261-4.213,0.518c-0.252-0.333-0.504-0.667-0.756-1c-0.415,0.333-0.829,0.667-1.244,1
				c-0.666,0-1.332,0-1.999,0c-2.723-0.113-5.202,1.719-7.999,1c-0.324,0-0.729-0.128-0.959,0.02
				c-1.955,1.261-3.562,1.415-5.304-0.622c-0.757-0.884-2.461-0.956-3.736-1.397c-0.276,0.109-0.553,0.22-0.829,0.329
				c0.276,0.224,0.553,0.447,0.829,0.671c0,0.333,0,0.667,0,1c-2.993,0-6.192,0.661-8.921-0.189
				c-2.617-0.817-5.087-0.614-7.627-0.804c-3.734-0.279-7.268,1.57-11.027,1.071c-1.52,1.802-2.191-0.906-3.421-0.644
				c-0.9-4.088-4.204-1.841-6.439-2.38c-0.088-0.021-0.565,0.775-0.528,1.159c0.278,2.848-1.855,1.487-3.031,1.786
				c-1.333,0-2.667,0-4,0c-1,0-2,0-3,0c-1,0.333-2,0.667-3,1c-1.842,0.239-0.469,1.909-1.114,2.543
				c-0.829,0.814-1.964,1.307-2.85,2.075c-0.234,0.204-0.035,0.907-0.035,1.382c-1.333,0-2.667,0-4,0
				c-0.451-0.618-0.784-1.42-1.384-1.805c-0.673-0.431-1.555-0.422-1.615,0.805c-1,0-2,0-3,0c-0.042-2.958-0.042-2.958-3-3
				c0.122-1.57,1.454-0.638,2.089-1.044c0.748-0.479,1.283-1.289,1.91-1.956c0.232,0.268,0.627,0.793,0.675,0.763
				c1.442-0.895,1.346-1.271-0.675-2.763c-3.667,0-7.332,0-10.999,0c-0.294-1.887-1.762-0.916-2.646-0.938
				c-1.369-0.034-2.812,1.513-2.268,2.229c0.411,0.541,1.594,0.501,2.437,0.705c0.15,0.036,0.318,0.005,0.478,0.005
				c0,1.333,0,2.667,0,4c-1,0.667-2,1.333-3,2c-1.552,0.161-2.608-0.421-3-2c2.004-0.341,2.004-0.341,1.526-2.926
				c-0.493,0.621-1.01,1.273-1.526,1.926c-1.251,0.182-3.047-0.735-3.243,1.659c-0.013,0.16-1.146,0.229-1.756,0.341
				c-1.839,0.339-3.678,0.67-5.506,1.06c-0.045,0.009-0.039,0.69,0.088,1c0.521,1.277-0.627,1.331-1.246,1.775
				c-0.224-0.566-0.447-1.132-0.654-1.655c-0.943,1.156-1.773,2.434-2.859,3.436c-1.182,1.09-2.757,0.32-2.783-1.366
				C148.045,137.797,148.118,136.515,146.028,137.03z M161.572,126.623c-0.654,1.585-1.112,2.652,0.18,3.365
				c0.257,0.142,0.818-0.267,1.238-0.421C162.577,128.708,162.164,127.851,161.572,126.623z"/>
			<path fill-rule="evenodd" clip-rule="evenodd" fill="none" d="M267.745,119.032c-3.473,0-6.925,0.104-10.364-0.052
				c-1.347-0.062-2.746-0.541-3.975-1.133c-0.967-0.467-1.718-1.238-0.481-2.528c0.365-0.38,0.815-2.465-1.308-2.327
				c-0.021,0.002-0.221-0.824-0.101-0.902c0.637-0.416,1.357-1.026,2.033-1.007c4.752,0.135,9.576-0.769,14.131,1.83
				c1.485,0.849,1.549,0.913,0.794,2.271C267.901,116.213,267.985,117.608,267.745,119.032z"/>
			<path fill-rule="evenodd" clip-rule="evenodd" fill="none" d="M50.145,71.122c2.943-0.309,5.216,0.537,7.428,1.885
				c1.959,1.194,4.1,2.088,6.086,3.242c0.245,0.142,0.055,1.567,0.025,1.568c-2.515,0.127-1.615,2.038-1.598,3.268
				c0.023,1.655-0.554,2.61-1.395,1.895c-1.93-1.64-4.279-1.72-6.51-2.319c-2.418-0.65-4.494-1.905-6.391-3.575
				c-0.708-0.623-0.988-0.839,0.034-1.022C50.726,75.542,49.843,73.23,50.145,71.122z"/>
			<path fill-rule="evenodd" clip-rule="evenodd" fill="none" d="M145.029,109.738c-2.351,0.977-4.29-0.41-6.456,0.133
				c-1.818,0.456-4.037-0.34-5.992-0.89c-1.606-0.451-3.086-1.354-4.848-2.16c3.417-1.971,3.417-1.971,2.376-5.367
				c2.435-1.558,4.573,0.624,6.864,0.541c2.42-0.086,4.206,0.904,6.001,2.4c1.796,1.496,2.198,1.928,2.056,4.634
				C145.021,109.195,145.029,109.361,145.029,109.738z"/>
			<path fill-rule="evenodd" clip-rule="evenodd" fill="none" d="M87.975,91.752c0.827-1.49,3.263,0.452,3.04-2.007
				c-0.105-1.17-0.425-2.321-0.719-3.85c5.42,2,10.905,3.449,16.184,6.595c-1.439,0.455-3.176,0.599-3.299,1.124
				c-0.298,1.258,0.162,2.695,0.357,4.421c-0.699,0-1.972,0.358-2.891-0.062C96.374,96.02,92.198,93.851,87.975,91.752z"/>
			<path fill-rule="evenodd" clip-rule="evenodd" fill="none" d="M25.097,60.408c-1.071,0.727-2.245,1.159-2.8,2
				c-0.608,0.921-0.532,2.156,0.585,3.042c0.201,0.159,0.136,1.012-0.103,1.266c-0.247,0.262-0.901,0.333-1.292,0.212
				c-0.424-0.131-0.713-0.649-1.127-0.876c-1.214-0.664-2.885-0.967-3.594-1.965c-1.017-1.434-2.418-0.727-3.513-1.313
				c-1.215-0.651-2.512-1.146-3.758-1.739C7.59,60.13,7.595,60.12,9.168,59.04c2.268-1.557,2.288-1.635,1.089-5.488
				C15.447,55.95,20.26,58.173,25.097,60.408z"/>
			<path fill-rule="evenodd" clip-rule="evenodd" fill="none" d="M211.543,110.17c6.069-0.316,11.237-0.396,16.361,1.252
				c-0.566,0.828-2.057,0.672-2.015,2.408c0.041,1.726,0.683,2.266,2.046,2.825c-5.153,0.591-10.336,0.261-15.417,0.387
				C210.597,114.877,214.938,112.482,211.543,110.17z"/>
			<path fill-rule="evenodd" clip-rule="evenodd" fill="none" d="M186.172,113.922c-4.526,0-8.627,0-13.09,0
				c0.244-0.431,0.413-0.728,0.579-1.026c0.325-0.585,0.647-1.171,0.971-1.757c-0.95-0.436-0.109-2.55-2.027-2.133
				c-0.417,0.091-0.95-0.086-1.348-0.295c-0.181-0.095-0.252-0.584-0.206-0.867s0.295-0.76,0.462-0.763
				c2.813-0.052,5.762-0.561,8.4,0.118c2.06,0.531,4.029,0.753,6.088,0.867c0.354,0.02,0.91,0.437,0.964,0.741
				c0.064,0.368-0.204,0.922-0.507,1.207C184.979,111.409,184.958,111.386,186.172,113.922z"/>
			<path fill-rule="evenodd" clip-rule="evenodd" fill="none" d="M453.99,81.385c0,0.695-0.063,1.352,0.011,1.992
				c0.346,3.041,0.229,3.52-1.88,4.636c-1.485,0.785-3.378,1.033-4.553,2.106c-1.379,1.258-2.045,0.308-3.257,0.063
				c-2.03-0.408-1.07-1.653-1.319-2.572c-0.22-0.808-0.808-1.766-0.56-2.389c0.337-0.849,1.293-2.018,2.022-2.046
				C447.643,83.051,450.079,79.804,453.99,81.385z"/>
			<path fill-rule="evenodd" clip-rule="evenodd" fill="none" d="M420.18,94.272c-2.704,2.241-0.017,3.014,0.701,4.194
				c-2.828,2.536-6.61,2.483-9.999,3.474c-2.422,0.709-4.43-1.578-3.864-3.86c0.096-0.385,0.415-0.918,0.739-1.013
				C411.726,95.911,415.388,93.324,420.18,94.272z"/>
			<path fill-rule="evenodd" clip-rule="evenodd" fill="none" d="M478.235,77.039c-2.537-0.048-0.101-1.208-0.388-1.564
				c-0.479-0.594-1.222-0.979-1.864-1.436c-1.386-0.984-1.38-2.231,0.073-2.994c2.312-1.214,4.637-2.403,6.99-3.533
				c0.487-0.233,1.151-0.282,1.673-0.158c0.183,0.043,0.331,0.892,0.233,1.313c-0.162,0.698-0.534,1.348-0.818,2.019
				c0.566,0.233,1.579,0.412,1.615,0.71c0.106,0.869,0.142,2.269-0.362,2.601C483.21,75.432,481.126,77.284,478.235,77.039z"/>
			<path fill-rule="evenodd" clip-rule="evenodd" fill="none" d="M328.389,113.033c-0.561,1.747-0.878,3.069-1.437,4.281
				c-0.181,0.391-0.992,0.676-1.521,0.688c-2.962,0.065-5.927,0.012-8.89,0.039c-1.591,0.015-2.18-0.966-2.543-2.302
				c-0.47-1.734,1.069-1.654,1.914-2.053c0.817-0.386,1.784-0.602,2.692-0.624C321.566,112.986,324.53,113.033,328.389,113.033z"/>
			<path fill-rule="evenodd" clip-rule="evenodd" fill="none" d="M390.101,106.874c0.004-3.744,0.088-3.551,3.519-5.051
				c2.652-1.16,5.192-2.203,8.253-1.629c0,1.538,0,2.987,0,4.717C397.904,104.542,394.605,107.84,390.101,106.874z"/>
			<path fill-rule="evenodd" clip-rule="evenodd" fill="none" d="M287.66,114.033c-2.52,1.793,1.003,3.26,0.021,4.999
				c-3.374,0-6.983,0.067-10.587-0.061c-0.658-0.023-1.289-0.84-1.934-1.292c1.393-1.102-0.518-2.08-0.103-3.081
				c0.125-0.302,0.78-0.538,1.196-0.542C280.055,114.016,283.858,114.033,287.66,114.033z"/>
			<path fill-rule="evenodd" clip-rule="evenodd" fill="none" d="M354.003,111.096c4.128-0.475,7.889-0.909,11.463-1.321
				c-0.01,1.713-0.421,3.162,0.08,4.144c0.59,1.154,0.378,1.66-0.353,2.467c-0.622,0.688-0.988,0.553-1.423-0.087
				c-0.262-0.385-0.626-0.744-0.745-1.172c-0.228-0.81,0.5-2.044-1.181-2.115c-1.528-0.064-2.644,0.569-2.779,2.02
				c-0.122,1.306-0.218,2.527-1.785,1.925c-1.235-0.476-3.315-0.222-3.28-2.501C354.016,113.471,354.003,112.486,354.003,111.096z"
				/>
			<path fill-rule="evenodd" clip-rule="evenodd" fill="none" d="M294.222,114.033c3.802,0,7.424-0.004,11.047,0.005
				c0.474,0.001,0.946,0.063,1.578,0.108c0,1.171,0,2.284,0,3.886c-2.245,0-4.665,0.018-7.085-0.007
				c-1.467-0.015-3.123,0.297-4.33-0.288C294.706,117.385,294.682,115.588,294.222,114.033z"/>
			<path fill-rule="evenodd" clip-rule="evenodd" fill="none" d="M345.996,112.974c0,1.594,0,2.583,0,4.058
				c-3.896,0-7.803-0.027-11.71,0.017c-1.148,0.013-1.315-0.532-1.309-1.509c0.007-0.955,0.291-1.208,1.265-1.582
				C338.02,112.509,341.862,113.244,345.996,112.974z"/>
			<path fill-rule="evenodd" clip-rule="evenodd" fill="#C2C1B7" d="M366.001,139.029c1.854,1.912,0.144,3.81-0.207,5.6
				c-0.415,2.115-2.398,3.136-4.273,2.267c-0.886-0.41-1.683-0.704-2.629-0.928c-1.38-0.327-2.123-1.402-1.89-2.939
				c1.88-0.051,3.891,0.445,5.209-1.622c0.225-0.354,1.145-0.294,1.751-0.372c1.697-0.22,0.647-0.822,0.199-1.346
				C364.774,139.47,365.388,139.249,366.001,139.029z"/>
			<path fill-rule="evenodd" clip-rule="evenodd" fill="none" d="M372.663,112.033c-0.16-0.21-0.646-0.561-0.616-0.863
				c0.068-0.724,0.281-1.992,0.607-2.048c3.071-0.528,5.858-1.819,8.712-2.946c1.476-0.583,2.151,0.637,2.564,1.545
				c0.432,0.948-0.342,1.313-1.356,1.366c-0.538,0.028-1.05,0.9-1.57,0.898c-2.739-0.015-5.46-0.131-7.607,2.037
				C373.315,112.105,373.077,112.033,372.663,112.033z"/>
			<path fill-rule="evenodd" clip-rule="evenodd" fill="none" d="M494.063,68.039c-0.354-2.993,2.086-3.002,3.361-3.738
				c1.069-0.616,2.795-0.181,4.2,0.011c0.126,0.017,0.393,1.997-0.047,2.469c-0.651,0.699-1.85,1.082-2.863,1.207
				C497.163,68.18,495.568,68.039,494.063,68.039z"/>
			<path fill-rule="evenodd" clip-rule="evenodd" fill="none" d="M436.633,89.652c-2.371,2.202-6.949,4.068-9.314,4.208l3.791-2.441
				C432.568,90.953,434.028,90.486,436.633,89.652z"/>
			<path fill-rule="evenodd" clip-rule="evenodd" fill="#C2C1B7" d="M146.028,127.031c0,1,0,2,0,3
				c-0.604-0.104-1.208-0.209-1.813-0.313c0.213-0.67,0.332-1.393,0.673-1.989C145.082,127.389,145.636,127.256,146.028,127.031z"/>
			<path fill-rule="evenodd" clip-rule="evenodd" fill="none" d="M210.521,115.032c0.111,0.222,0.261,0.436,0.313,0.671
				c0.019,0.083-0.201,0.218-0.313,0.329c-0.111-0.223-0.26-0.436-0.313-0.671C210.189,115.278,210.409,115.144,210.521,115.032z"/>
			<path fill-rule="evenodd" clip-rule="evenodd" fill="none" d="M65.895,77.393c-0.116,0.21-0.236,0.427-0.356,0.645
				c-0.111-0.111-0.331-0.246-0.313-0.329c0.052-0.235,0.201-0.448,0.313-0.671C65.65,77.148,65.761,77.26,65.895,77.393z"/>
			<path fill-rule="evenodd" clip-rule="evenodd" fill="#020202" d="M221.424,230.218c0.355,0.133,0.075,0.776-0.116,0.75
				c-1.434-0.193-2.335,0.157-2.583,1.756c-0.027,0.182-1.111,0.2-1.705,0.294c1.533-2.598,1.475-2.774-1-3
				c0.438-1.271,0.53-3.203,1.397-3.658c1.271-0.668,3.097-0.281,4.687-0.338c0.153-0.006,0.31,0.029,0.814,0.083
				C222.81,227.443,223.836,228.929,221.424,230.218c0.03-0.26,0.576-0.517,0.548-0.665c-0.102-0.531-0.397-1.025-0.62-1.534
				c-0.444,0.286-1.102,0.486-1.263,0.887C219.969,229.206,220.485,229.762,221.424,230.218z"/>
			<path fill-rule="evenodd" clip-rule="evenodd" fill="#020202" d="M217.02,216.02c0.333,0,0.667,0,1,0s0.667,0,1,0
				c0.252,0.333,0.504,0.667,0.756,1c0.415-0.333,0.829-0.667,1.244-1c0.333,0,0.667,0,1,0c-0.111,0.611-0.181,1.744-0.341,1.757
				c-2.394,0.195-1.478,1.991-1.659,3.243c-0.333,0.333-0.667,0.667-1,0.999c-0.333,0-0.667,0-1,0c-0.667,0-1.333,0-2,0
				c0-0.332,0-0.666,0-0.999c0.333-0.333,0.667-0.667,1-1C217.02,218.687,217.02,217.353,217.02,216.02z"/>
			<path fill-rule="evenodd" clip-rule="evenodd" fill="none" d="M219.02,222.019c0.333-0.332,0.667-0.666,1-0.999
				c0.333,0,0.667,0,1,0c0.868,0.085,2.07-0.44,2.047,1.235c-0.004,0.25,0.62,0.509,0.953,0.764
				c-0.599,0.54-3.453,1.608-3.994,1.466c-0.039-0.011-0.005-0.304-0.005-0.466C219.687,223.352,219.353,222.686,219.02,222.019z"/>
			<path fill-rule="evenodd" clip-rule="evenodd" fill="#383836" d="M216.02,230.018c2.474,0.226,2.533,0.402,1,3
				c-0.709-0.138-1.844,0.461-1.944-0.759C215.013,231.492,214.373,230.182,216.02,230.018z"/>
			<path fill-rule="evenodd" clip-rule="evenodd" fill="#383836" d="M217.02,216.02c0,1.333,0,2.667,0,4
				c-0.333,0.333-0.667,0.667-1,1c0,0.333,0,0.667,0,0.999c-0.279-0.112-0.767-0.175-0.807-0.345
				C214.682,219.441,215.097,217.481,217.02,216.02z"/>
			<path fill-rule="evenodd" clip-rule="evenodd" fill="#CECEC3" d="M207.021,238.017c-1.872,1.415-4.127,1.415-6,0
				C203.021,238.017,205.021,238.017,207.021,238.017z"/>
			<path fill-rule="evenodd" clip-rule="evenodd" fill="#383836" d="M219.02,216.02c-0.333,0-0.667,0-1,0
				c-0.157-1.287,0.003-2.226,1.71-2.021c1.294,0.154,1.958,0.859,2.29,2.021c-0.333,0-0.667,0-1,0
				c-0.364-0.197-0.721-0.527-1.094-0.55C219.635,215.453,219.322,215.822,219.02,216.02z"/>
			<path fill-rule="evenodd" clip-rule="evenodd" fill="#020202" d="M224.019,223.019c-0.333-0.255-0.957-0.514-0.953-0.764
				c0.023-1.676-1.179-1.15-2.047-1.235c0.166-1.651,1.455-0.884,2.257-0.921c0.225-0.011,0.577,0.912,0.717,1.447
				C224.115,222.008,224.019,222.525,224.019,223.019z"/>
			<path fill-rule="evenodd" clip-rule="evenodd" fill="#383836" d="M219.02,222.019c0.333,0.667,0.667,1.333,1,2
				c-1.637,0.303-2.303-0.363-2-2C218.353,222.019,218.687,222.019,219.02,222.019z"/>
			<path fill-rule="evenodd" clip-rule="evenodd" fill="#383836" d="M140.579,144.866c2.66,0.187,4.903-0.291,6.085,0.614
				c1.061,0.813,0.787,3.213,1.404,4.795c0.911,2.339,1.576,4.709,1.987,7.18c0.175,1.053,0.517,2.134,1.048,3.047
				c0.222,0.382,1.165,0.551,1.726,0.464c0.442-0.067,1.019-0.604,1.166-1.053c1.39-4.261,2.728-8.54,4.017-12.832
				c0.442-1.47,1.36-1.877,2.823-2.126c1.855-0.315,2.2,0.786,2.62,2.007c1.203,3.5,2.541,6.968,3.497,10.537
				c0.398,1.487,1.013,2.291,2.408,2.504c0.785,0.12,1.372,0.086,1.733-1.079c1.105-3.561,1.416-7.309,2.878-10.796
				c1.236-2.947,1.026-3.041,3.808-3.097c0.976-0.02,1.951-0.003,3.291-0.003c-1.41,4.143-3.274,7.929-3.896,11.908
				c-0.663,4.248-2.712,7.945-3.609,12.04c-0.132,0.603-0.426,1.172-0.528,1.776c-0.489,2.923-0.562,3.315-4.114,3.338
				c-1.538,0.01-1.802-0.752-2.192-1.839c-1.197-3.334-2.454-6.646-3.713-9.958c-0.273-0.718-0.887-1.375-0.94-2.091
				c-0.093-1.239-0.81-1.147-1.663-1.193c-1.076-0.06-1.17,0.47-1.449,1.404c-1.189,3.99-2.551,7.93-3.974,11.844
				c-0.383,1.053-1.171,1.93-2.588,1.786c-0.978-0.099-1.974-0.019-2.963-0.019C146.539,164.481,143.664,155.017,140.579,144.866z
				 M162.882,155.672c-0.115-0.21-0.235-0.427-0.355-0.645c-0.111,0.111-0.331,0.246-0.313,0.329
				c0.053,0.235,0.201,0.448,0.313,0.671C162.638,155.916,162.749,155.805,162.882,155.672z"/>
			<path fill-rule="evenodd" clip-rule="evenodd" fill="#383836" d="M268.091,160.185c0-5.345,0-10.127,0-15.029
				c1.944,0,3.729,0,5.719,0c0,9.522,0,19.08,0,28.664c-3.192,0.589-5.095-0.127-7.096-3.246c-2.448-3.813-5.225-7.527-7.964-11.206
				c-0.336-0.451-1.494-0.291-2.636-0.471c0,5.071,0,9.978,0,15.001c-2.122,0-3.906,0-5.896,0c0-9.522,0-19.08,0-28.664
				c3.191-0.589,5.095,0.127,7.096,3.246c2.448,3.814,5.224,7.527,7.963,11.206C265.614,160.137,266.772,159.977,268.091,160.185z"
				/>
			<path fill-rule="evenodd" clip-rule="evenodd" fill="#383836" d="M321.843,173.851c-3.365,0.614-5.248-0.323-7.197-3.366
				c-2.362-3.686-5.025-7.282-7.696-10.813c-0.428-0.564-1.646-0.531-2.757-0.848c0,5.105,0,9.882,0,14.931c-2.058,0-3.95,0-6.019,0
				c0-9.338,0-18.778,0-28.538c3.046-0.493,5.134-0.036,7.209,3.35c2.275,3.715,5.013,7.284,7.685,10.815
				c0.428,0.564,1.646,0.531,2.756,0.848c0-5.105,0-9.883,0-14.931c2.057,0,3.946,0,6.02,0
				C321.843,154.637,321.843,164.077,321.843,173.851z"/>
			<path fill-rule="evenodd" clip-rule="evenodd" fill="#383836" d="M354.003,167.026c-2.007,4.92-6.213,6.456-10.978,6.937
				c-0.966,0.098-2.013-0.604-3.021-0.938c-4.321,0.128-6.503-2.869-7.908-6.153c-1.867-4.367-1.548-10.882-0.086-15.599
				c0.26-0.837,2.943-4.31,3.995-5.245c1.104-0.333,2.228-0.614,3.297-1.032c0.313-0.122,0.473-0.635,0.702-0.968
				c3.8-0.424,7.125,0.675,10.356,2.693c0.992,0.62,1.389,1.354,2.038,2.108c0.981,1.145,2.349,2.354,1.37,3.7
				c-0.505,0.692-2.412,0.461-3.682,0.438c-0.368-0.007-0.791-0.698-1.072-1.148c-1.197-1.914-2.648-3.272-5.153-2.808
				c-0.643,0.118-1.325,0.008-1.988,0.02c-2.949,0.049-4.648,1.255-4.811,4.065c-0.228,3.97-0.239,7.974,0.004,11.942
				c0.17,2.772,1.905,3.945,4.886,3.988c0.166,0.002,0.332-0.001,0.498,0c6.015,0.039,6.694-0.689,6.286-6.925
				c-1.434,0-2.881,0-4.53,0c0-1.398,0-2.629,0-3.969c3.527,0,6.969,0,10.796,0c0,1.6,0.129,3.228-0.039,4.824
				C354.818,164.331,354.336,165.671,354.003,167.026z"/>
			<path fill-rule="evenodd" clip-rule="evenodd" fill="#383836" d="M211.356,174.025c-1.408,0-2.089-0.121-2.709,0.021
				c-2.544,0.582-3.768-0.432-4.119-2.974c-0.221-1.614-1.249-2.281-3.02-2.095c-1.97,0.206-3.979,0.047-5.971,0.047
				c-1.329,0-2.9-0.434-3.91,0.134c-0.839,0.473-1.166,2.086-1.443,3.259c-0.252,1.063-0.415,1.803-1.78,1.636
				c-1.146-0.14-2.322-0.002-3.482-0.048c-0.279-0.011-0.548-0.262-0.919-0.452c1.337-3.398,2.648-6.818,4.027-10.213
				c2.308-5.684,4.806-11.297,6.89-17.063c0.526-1.457,1.24-1.381,2.085-1.199c1.042,0.225,2.162-0.892,3.155,1.154
				c2.626,5.409,4.658,11.027,6.868,16.588c1.076,2.709,2.255,5.374,3.348,8.076C210.719,171.743,210.929,172.643,211.356,174.025z
				 M202.451,164.907c-0.924-2.768-1.573-5.156-2.541-7.407c-0.429-0.997-1.432-1.705-2.834-1.503
				c-1.663,0.239-0.776,1.471-1.072,2.247c-0.327,0.859-0.615,1.839-1.23,2.459c-1.296,1.307-0.657,2.691-0.535,4.205
				C196.725,164.907,199.171,164.907,202.451,164.907z"/>
			<path fill-rule="evenodd" clip-rule="evenodd" fill="#383836" d="M229.018,162.026c-1.493,0-2.986,0-4.975,0
				c-0.057,3.866-0.002,7.766-0.033,11.826c-1.908,0-3.693,0-5.682,0c0.068,0.076-0.061-0.035-0.146-0.173
				c-0.079-0.128-0.156-0.285-0.156-0.43c-0.008-9.275-0.007-18.552-0.007-28.221c4.19,0,8.293-0.141,12.382,0.039
				c4.151,0.183,8.77,4.442,9.602,8.59c0.341,1.698-0.746,3.021-1.524,4.329c-0.575,0.967-1.502,1.8-2.437,2.462
				c-1.375,0.973-0.972,2.308-1.026,3.578c-3.043,0.329-2.799-2.215-3.308-3.965C230.746,160.765,229.881,161.396,229.018,162.026z
				 M224.107,158.027c2.26,0,4.089-0.171,5.874,0.044c2.095,0.253,3.103-1.294,3.834-2.516c0.799-1.332-0.148-2.927-0.686-4.457
				c-0.654-1.859-1.845-0.956-2.753-1.022c-2.081-0.151-4.181-0.048-6.269-0.048C224.107,152.85,224.107,155.278,224.107,158.027z"
				/>
			<path fill-rule="evenodd" clip-rule="evenodd" fill="#383836" d="M283.163,173.775c0-9.685,0-19.119,0-28.648
				c1.931,0,3.713,0,5.671,0c0,9.599,0,19.15,0,28.648C286.796,173.775,284.896,173.775,283.163,173.775z"/>
			<path fill-rule="evenodd" clip-rule="evenodd" fill="#C2C1B7" d="M340.004,144.029c-0.229,0.333-0.39,0.846-0.702,0.968
				c-1.069,0.418-2.193,0.699-3.297,1.032c-4.176-1.977-6.326-5.393-7.424-9.787c-0.244-0.979-0.67-1.463,0.041-2.451
				c0.48-0.667,0.28-1.823,0.384-2.761c0.608-0.108,1.258-0.118,1.819-0.344c2.688-1.079,4.165-1.197,7.241-0.68
				c0.953,0.159,1.957,0.024,2.938,0.024c1.495,2.358,1.411,2.71-0.526,3.027c-0.912,0.148-2.035-0.738-2.626,1.211
				c-0.52,1.717-1.517,3.239-0.235,4.801C338.844,140.565,339.93,142.024,340.004,144.029z"/>
			<path fill-rule="evenodd" clip-rule="evenodd" fill="#C2C1B7" d="M249.016,130.031c0-0.333,0-0.667,0-1s0-0.667,0-1
				c1.274,0.441,2.979,0.514,3.736,1.397c1.743,2.037,3.349,1.883,5.304,0.622c0.229-0.147,0.635-0.02,0.959-0.02
				c0,0.65-0.024,1.301,0.005,1.951c0.094,2.109,1.326,2.877,2.881,1.548c1.158-0.989,2.263-1.497,3.729-1.716
				c0.538-0.08,0.927-1.159,1.384-1.783c0.758-0.15,1.914,0.496,1.999-1c0.667,0,1.333,0,2,0c1.376-0.257,2.741,0.243,4.213-0.518
				c0.927-0.478,2.502,0.302,3.786,0.518c-1.616,1.45-3.027,3.294-4.894,4.261c-3.248,1.681-6.521,3.486-10.343,3.76
				c-3.572,0.257-6.989-0.15-10.061-2.06c-0.996-0.618-1.881-1.023-3.081-0.994c-2.308,0.057-1.881-0.938-0.849-2.304
				C250.29,131.028,250.281,130.12,249.016,130.031z"/>
			<path fill-rule="evenodd" clip-rule="evenodd" fill="#C2C1B7" d="M204.021,130.031c1.333,0,2.667,0,4,0
				c0.193,1.361-0.092,2.219-1.777,2.056c-0.372-0.036-0.813,0.646-1.223,0.997c0.444,0.315,0.851,0.782,1.344,0.908
				c0.623,0.158,1.323-0.017,1.975,0.066c0.247,0.031,0.649,0.385,0.642,0.58c-0.018,0.442-0.125,1.006-0.419,1.28
				c-0.298,0.278-0.923,0.171-1.302,0.401c-1.067,0.649-2.21,1.257-3.074,2.127c-0.682,0.686-0.993,1.737-1.51,2.704
				c-0.755-1.239-1.321-2.168-1.915-3.141c-0.338,0.292-0.708,0.462-0.712,0.641c-0.031,1.308,0.353,2.638-1.925,2.462
				c-1.483-0.114-3.554,1.35-4.435,0.749c-1.62-1.106-3.146-0.528-4.658-0.884c-0.41-0.096-0.61-0.892-1.027-1.209
				c-0.434-0.331-1.335-0.791-1.479-0.646c-1.946,1.964-2.704,0.419-3.502-1.094c0.333-0.667,0.667-1.333,1-2c1,0,2,0,3,0
				c0.451,0.618,0.784,1.42,1.385,1.805c0.672,0.43,1.554,0.421,1.615-0.805c1.333,0,2.667,0,4,0
				c0.005,1.327,1.071,1.128,1.725,0.96c2.192-0.563,4.339-1.301,6.508-1.958c1.965-0.595,2.568-1.254,1.352-2.701
				C202.195,131.653,204.064,131.111,204.021,130.031z"/>
			<path fill-rule="evenodd" clip-rule="evenodd" fill="#C2C1B7" d="M169.026,136.03c1-0.667,2-1.333,3-2
				c1.348-0.333,2.68-0.82,4.048-0.96c1.634-0.168,3.299-0.04,4.951-0.04c2.958,0.042,2.958,0.042,3,3
				c-0.725-0.225-1.441-0.478-2.176-0.664c-0.598-0.153-1.215-0.228-2.046-0.336c-0.074,0,0.074,0,0.223,0
				c-0.093-0.259-0.144-0.549-0.302-0.757c-0.048-0.063-0.396,0.104-0.605,0.165c0.153,0.198,0.308,0.396,0.685,0.593
				c0.223,0.333,0.223,0.667,0.223,1c-1.146,0-2.291-0.009-3.436,0.014c-0.124,0.002-0.244,0.188-0.695,0.562
				c0.689,0.182,1.246,0.186,1.581,0.459c0.308,0.252,0.56,0.827,0.493,1.199c-0.054,0.303-0.604,0.717-0.953,0.734
				c-2.666,0.137-5.555,0.692-6.574-2.951C170.405,135.918,169.517,136.03,169.026,136.03z"/>
			<path fill-rule="evenodd" clip-rule="evenodd" fill="#383836" d="M236.017,166.026c2.236,1.978,2.549,4.997,4.578,7.699
				c-2.414,0-4.276,0-6.358,0c-0.578-2.566-3.011-4.652-3.218-7.699c0.485,0,1.269-0.19,1.41,0.03
				C233.689,168.026,234.837,166.515,236.017,166.026z"/>
			<path fill-rule="evenodd" clip-rule="evenodd" fill="#020202" d="M236.017,166.026c-1.18,0.488-2.328,2-3.589,0.03
				c-0.141-0.221-0.924-0.03-1.41-0.03c-1.308-1.013-2.079-2.294-2-4c0.863-0.63,1.728-1.261,2.692-1.965
				c0.509,1.75,0.265,4.294,3.308,3.965C236.513,164.111,235.867,165.269,236.017,166.026z"/>
			<path fill-rule="evenodd" clip-rule="evenodd" fill="#C2C1B7" d="M166.026,134.03c0.392,1.579,1.448,2.161,3,2
				c-0.116,0.282-0.222,0.807-0.35,0.812c-2.291,0.101-4.588,0.243-6.875,0.146c-1.246-0.053-0.629-1.247-0.774-1.958
				c0.611-0.111,1.744-0.181,1.756-0.341c0.195-2.394,1.991-1.477,3.243-1.659C166.026,133.363,166.026,133.697,166.026,134.03z"/>
			<path fill-rule="evenodd" clip-rule="evenodd" fill="none" d="M180.024,136.03c0-0.333,0-0.667,0-1
				c0.608,0.108,1.226,0.183,1.824,0.336c0.734,0.187,1.451,0.439,2.176,0.664c-0.333,0.667-0.667,1.333-1,2c-0.333,0-0.667,0-1,0
				c-0.333-0.333-0.667-0.667-1-1C180.691,136.697,180.357,136.363,180.024,136.03z"/>
			<path fill-rule="evenodd" clip-rule="evenodd" fill="#C2C1B7" d="M180.024,136.03c0.333,0.333,0.667,0.667,1,1
				C180.691,136.697,180.357,136.363,180.024,136.03z"/>
			<path fill-rule="evenodd" clip-rule="evenodd" fill="#C2C1B7" d="M181.024,137.03c0.333,0.333,0.667,0.667,1,1
				C181.691,137.697,181.357,137.363,181.024,137.03z"/>
			<path fill-rule="evenodd" clip-rule="evenodd" fill="#CECEC3" d="M371.072,168.051c-0.21,0.384-0.349,0.637-0.487,0.89
				c-0.194-0.483-0.423-0.957-0.559-1.456c-0.028-0.105,0.284-0.303,0.439-0.458C370.681,167.389,370.896,167.752,371.072,168.051z"
				/>
			<path fill-rule="evenodd" clip-rule="evenodd" fill="#CECEC3" d="M369.101,167.223c-0.415-0.319-0.715-0.551-1.015-0.781
				c0.409-0.139,0.813-0.359,1.228-0.382c0.22-0.011,0.458,0.323,0.687,0.501C369.725,166.765,369.447,166.968,369.101,167.223z"/>
			<path fill-rule="evenodd" clip-rule="evenodd" fill="none" d="M359.002,241.017c0,0.333,0,0.667,0,1
				c-0.667-0.24-1.348-0.451-1.982-0.758c-0.083-0.04,0.073-0.573,0.119-0.879c0.343,0.102,0.69,0.192,1.029,0.307
				C358.45,240.782,358.725,240.905,359.002,241.017z"/>
			<path fill-rule="evenodd" clip-rule="evenodd" fill="none" d="M359.002,243.017c0.197,0.303,0.566,0.615,0.55,0.905
				c-0.022,0.374-0.353,0.73-0.55,1.095c-0.333-0.415-0.667-0.829-1-1.244C358.335,243.521,358.669,243.269,359.002,243.017z"/>
			<path fill-rule="evenodd" clip-rule="evenodd" fill="#CECEC3" d="M359.002,237.018c0,0.666,0,1.332,0,1.999
				c-0.333-0.415-0.667-0.829-1-1.244C358.335,237.521,358.669,237.27,359.002,237.018z"/>
			<path fill-rule="evenodd" clip-rule="evenodd" fill="#020202" d="M361.002,241.017c0.333-0.255,0.957-0.514,0.953-0.764
				c-0.023-1.677,1.177-1.151,2.046-1.236c0,1,0,2,0,3c-0.667,0.333-1.333,0.667-1.999,1c-0.333-0.333-0.667-0.667-1-1
				C361.002,241.684,361.002,241.35,361.002,241.017z"/>
			<path fill-rule="evenodd" clip-rule="evenodd" fill="none" d="M362.002,243.017c0.666-0.333,1.332-0.667,1.999-1
				c0.102,0.269,0.159,0.565,0.312,0.801c1.176,1.811,1.077,1.981-1.312,2.199c-0.333-0.333-0.667-0.667-0.999-1
				C362.002,243.684,362.002,243.35,362.002,243.017z"/>
			<path fill-rule="evenodd" clip-rule="evenodd" fill="#C2C1B7" d="M361.002,241.017c0,0.333,0,0.667,0,1
				c-0.333-0.333-0.667-0.667-1-1C360.335,241.017,360.669,241.017,361.002,241.017z"/>
			<path fill-rule="evenodd" clip-rule="evenodd" fill="#020202" d="M362.002,244.017c0.332,0.333,0.666,0.667,0.999,1
				C362.668,244.684,362.334,244.35,362.002,244.017z"/>
			<path fill-rule="evenodd" clip-rule="evenodd" fill="#383836" d="M181.024,133.03c-1.651,0-3.316-0.128-4.951,0.04
				c-1.368,0.14-2.7,0.627-4.048,0.96c0-1.333,0-2.667,0-4c0.415-0.333,0.856-0.639,1.235-1.009
				c0.294-0.289,0.512-0.658,0.764-0.991c3.667,0,7.332,0,10.999,0c0,0.667,0,1.333,0,2c-0.626,0.667-1.162,1.477-1.91,1.956
				C182.478,132.393,181.146,131.46,181.024,133.03z M176.669,130.886c0.133-0.133,0.244-0.244,0.355-0.355
				c-0.223-0.111-0.436-0.259-0.671-0.312c-0.083-0.019-0.218,0.201-0.329,0.312C176.243,130.65,176.459,130.771,176.669,130.886z"
				/>
			<path fill-rule="evenodd" clip-rule="evenodd" fill="#383836" d="M204.021,130.031c0.043,1.081-1.826,1.623-0.415,3.3
				c1.216,1.447,0.613,2.106-1.352,2.701c-2.168,0.657-4.316,1.396-6.508,1.958c-0.653,0.168-1.72,0.367-1.725-0.96
				c0-0.475-0.199-1.178,0.035-1.382c0.886-0.768,2.021-1.26,2.85-2.075c0.646-0.634-0.728-2.304,1.114-2.543
				c0.104,0.604,0.015,1.375,0.358,1.77c0.46,0.529,1.418,2.592,1.774-0.257c0.086-0.692,0.999-1.495,0.867-2.512
				C202.021,130.031,203.021,130.031,204.021,130.031z"/>
			<path fill-rule="evenodd" clip-rule="evenodd" fill="#383836" d="M267.014,130.031c-0.457,0.624-0.846,1.703-1.384,1.783
				c-1.467,0.219-2.571,0.727-3.729,1.716c-1.555,1.33-2.787,0.562-2.881-1.548c-0.029-0.649-0.005-1.301-0.005-1.951
				c2.797,0.719,5.276-1.113,7.999-1C267.014,129.364,267.014,129.698,267.014,130.031z"/>
			<path fill-rule="evenodd" clip-rule="evenodd" fill="#C2C1B7" d="M174.025,128.031c-0.252,0.333-0.47,0.702-0.764,0.991
				c-0.379,0.37-0.82,0.676-1.235,1.009c-0.159,0-0.327,0.031-0.478-0.005c-0.843-0.204-2.026-0.164-2.437-0.705
				c-0.544-0.716,0.899-2.263,2.268-2.229C172.263,127.115,173.731,126.144,174.025,128.031z"/>
			<path fill-rule="evenodd" clip-rule="evenodd" fill="#CECEC3" d="M201.021,130.031c0.132,1.017-0.781,1.82-0.867,2.512
				c-0.356,2.849-1.314,0.786-1.774,0.257c-0.344-0.395-0.255-1.166-0.358-1.77C199.022,130.697,200.022,130.364,201.021,130.031z"
				/>
			<path fill-rule="evenodd" clip-rule="evenodd" fill="#383836" d="M190.023,137.03c-0.061,1.226-0.942,1.235-1.615,0.805
				c-0.601-0.385-0.934-1.187-1.385-1.805c0.061-1.227,0.942-1.235,1.615-0.805C189.239,135.61,189.572,136.412,190.023,137.03z"/>
			<path fill-rule="evenodd" clip-rule="evenodd" fill="#C2C1B7" d="M161.572,126.623c0.592,1.229,1.005,2.086,1.418,2.944
				c-0.42,0.154-0.981,0.563-1.238,0.421C160.46,129.275,160.918,128.208,161.572,126.623z"/>
			<path fill-rule="evenodd" clip-rule="evenodd" fill="#383836" d="M166.026,134.03c0-0.333,0-0.667,0-1
				c0.517-0.652,1.033-1.305,1.526-1.926C168.03,133.689,168.03,133.689,166.026,134.03z"/>
			<path fill-rule="evenodd" clip-rule="evenodd" fill="#020202" d="M185.023,130.031c0-0.667,0-1.333,0-2
				c2.021,1.492,2.117,1.868,0.675,2.763C185.65,130.824,185.256,130.298,185.023,130.031z"/>
			<path fill-rule="evenodd" clip-rule="evenodd" fill="#383836" d="M271.013,129.031c-0.667,0-1.333,0-2,0
				c0.415-0.333,0.829-0.667,1.244-1C270.509,128.364,270.761,128.698,271.013,129.031z"/>
			<path fill-rule="evenodd" clip-rule="evenodd" fill="#020202" d="M267.014,130.031c0-0.333,0-0.667,0-1c0.667,0,1.333,0,1.999,0
				C268.928,130.526,267.771,129.88,267.014,130.031z"/>
			<path fill-rule="evenodd" clip-rule="evenodd" fill="#CECEC3" d="M249.016,128.031c0,0.333,0,0.667,0,1
				c-0.276-0.224-0.553-0.447-0.829-0.671C248.463,128.25,248.739,128.14,249.016,128.031z"/>
			<path fill-rule="evenodd" clip-rule="evenodd" fill="none" d="M220.83,230.417c-0.345-0.655-0.861-1.211-0.74-1.512
				c0.161-0.4,0.818-0.601,1.263-0.887c0.223,0.509,0.519,1.003,0.62,1.534C222,229.701,221.455,229.958,220.83,230.417z"/>
			<path fill-rule="evenodd" clip-rule="evenodd" fill="none" d="M219.02,216.02c0.303-0.197,0.615-0.566,0.905-0.55
				c0.374,0.022,0.73,0.353,1.094,0.55c-0.415,0.333-0.829,0.667-1.244,1C219.523,216.687,219.271,216.353,219.02,216.02z"/>
			<path fill-rule="evenodd" clip-rule="evenodd" fill="#EE2525" d="M216.02,221.02c0.333-0.333,0.667-0.667,1-1
				C216.687,220.353,216.353,220.687,216.02,221.02z"/>
			<path fill-rule="evenodd" clip-rule="evenodd" fill="#020202" d="M162.882,155.672c-0.133,0.133-0.244,0.244-0.355,0.355
				c-0.111-0.223-0.26-0.436-0.313-0.671c-0.019-0.083,0.201-0.218,0.313-0.329C162.646,155.245,162.767,155.462,162.882,155.672z"
				/>
			<path fill-rule="evenodd" clip-rule="evenodd" fill="#CECEC3" d="M202.451,164.907c-3.28,0-5.726,0-8.212,0
				c-0.122-1.514-0.761-2.897,0.535-4.205c0.615-0.62,0.903-1.6,1.23-2.459c0.296-0.776-0.591-2.007,1.072-2.247
				c1.402-0.202,2.405,0.506,2.834,1.503C200.878,159.751,201.527,162.14,202.451,164.907z"/>
			<path fill-rule="evenodd" clip-rule="evenodd" fill="#CECEC3" d="M224.107,158.027c0-2.749,0-5.177,0-7.999
				c2.088,0,4.188-0.103,6.269,0.048c0.908,0.066,2.099-0.836,2.753,1.022c0.537,1.529,1.484,3.125,0.686,4.457
				c-0.731,1.222-1.739,2.769-3.834,2.516C228.197,157.856,226.367,158.027,224.107,158.027z"/>
			<path fill-rule="evenodd" clip-rule="evenodd" fill="#CECEC3" d="M179.578,135.03c-0.153-0.197-0.308-0.395-0.461-0.593
				c0.21-0.061,0.558-0.227,0.605-0.165c0.158,0.208,0.209,0.499,0.302,0.757C179.876,135.03,179.728,135.03,179.578,135.03z"/>
			<path fill-rule="evenodd" clip-rule="evenodd" fill="#C2C1B7" d="M176.669,130.886c-0.21-0.115-0.427-0.235-0.645-0.355
				c0.111-0.111,0.246-0.331,0.329-0.312c0.235,0.053,0.448,0.201,0.671,0.312C176.914,130.642,176.802,130.753,176.669,130.886z"/>
		</g>
	</g>
	<text transform="matrix(1 0 0 1 154.3345 198.668)"><tspan x="0" y="0" fill="#FCFCFC" font-family="'MyriadPro-Regular'" font-size="12">    Human Trafficking has become a </tspan><tspan x="0" y="14.4" fill="#FCFCFC" font-family="'MyriadPro-Regular'" font-size="12">    </tspan><tspan x="10.176" y="14.4" fill="#FCFCFC" font-family="'MyriadPro-Bold'" font-size="12">HUGE</tspan><tspan x="41.219" y="14.4" fill="#FCFCFC" font-family="'MyriadPro-Regular'" font-size="12"> issue in the United States.</tspan></text>
	<path fill="#383836" d="M219.252,212.235c-0.323-0.137-0.6-0.025-0.734,0.299c-0.002,0.006-0.003,0.012-0.005,0.018
		c-0.695,0.409-0.685,1.258-0.679,2.115c0.004,0.645,1.004,0.646,1,0c0-0.062,0.001-0.122,0-0.184c0.25,0,0.499-0.161,0.5-0.481
		c0.073,0.061,0.17,0.543,0.185,0.631c0.081,0.475,0.894,0.484,0.964,0C220.642,213.537,220.311,212.683,219.252,212.235z"/>
	<path fill="#383836" d="M238.665,169.928c-1.532-2.244-2.378-4.868-4.313-6.842c-0.099-0.101-0.2-0.186-0.304-0.26
		c-0.202-0.478-0.424-0.946-0.667-1.404c-0.174-0.415-0.342-0.833-0.528-1.243c-0.548-1.207-1.724-1.25-2.595-0.694
		c-0.089,0.036-0.179,0.071-0.266,0.122c-0.887,0.52-1.338,1.838-0.718,2.736c0.246,0.355,0.455,0.724,0.65,1.099
		c0.887,2.149,1.618,4.361,2.46,6.527c0.431,1.106,1.497,1.467,2.421,1.301c0.135,0.227,0.258,0.461,0.405,0.678
		C236.655,174.063,240.123,172.065,238.665,169.928z"/>
	<path fill="#CECEC3" d="M228.985,161.969l-0.048,0.781l0.172,0.609l0.094,0.359l0.266,0.813l0.344,0.609
		c0,0,0.375,0.234,0.422,0.25s0.359,0.297,0.359,0.297l0.268,0.173l-0.619-1.626l-0.584-1.279l-0.529-0.94"/>
</g>
</svg>
