<?xml version="1.0" encoding="utf-8"?>
<!-- Generator: Adobe Illustrator 16.0.0, SVG Export Plug-In . SVG Version: 6.00 Build 0)  -->
<!DOCTYPE svg PUBLIC "-//W3C//DTD SVG 1.1//EN" "http://www.w3.org/Graphics/SVG/1.1/DTD/svg11.dtd">
<svg version="1.1" id="Layer_1" xmlns="http://www.w3.org/2000/svg" xmlns:xlink="http://www.w3.org/1999/xlink" x="0px" y="0px"
	 width="792.249px" height="593.993px" viewBox="-92.008 99.494 792.249 593.993"
	 enable-background="new -92.008 99.494 792.249 593.993" xml:space="preserve">
<g>
	<g>
		<path fill="none" d="M-92.008,99.494c264.082,0,528.165,0,792.247,0c0.002,198.246,0.002,396.495,0,594.743
			c-264.08,0-528.165,0-792.247,0C-92.008,495.987-92.008,297.739-92.008,99.494z M461.119,693.479
			c-1.746-2.766-3.266-4.633-4.199-6.76c-2.484-5.654-4.777-11.396-7.027-17.15c-3.012-7.707-5.973-15.437-8.828-23.202
			c-1.209-3.294-2.291-6.663-3.084-10.075c-1.807-7.766-4.631-15.549-4.836-23.381c-0.516-19.577-1.17-39.219,1.68-58.75
			c0.852-5.822,0.695-11.79,1.084-17.686c0.113-1.705,0.295-3.469,0.838-5.072c1.299-3.846,3.451-7.502,4.148-11.435
			c1.621-9.178,7.375-16.29,11.379-24.25c2.709-5.392,6.432-10.27,9.629-15.425c3.58-5.769,7.102-11.568,10.6-17.384
			c1.279-2.122,2.176-4.515,3.668-6.458c5.342-6.953,9.18-14.508,10.506-23.276c0.637-4.228,1.564-8.413,2.453-12.6
			c1.824-8.592,4.393-17.089,5.393-25.771c1.172-10.167,1.145-20.483,1.332-30.739c0.068-3.675-0.707-7.369-1.182-11.043
			c-0.514-3.977-1.08-7.945-1.711-11.904c-1.451-9.084-2.145-18.396-4.67-27.174c-2.518-8.752-6.596-17.112-10.553-25.375
			c-2.795-5.835-6.139-11.502-9.926-16.749c-5.4-7.474-11.443-14.486-17.193-21.709c-5.281-6.632-11.625-12.243-18.738-16.625
			c-8.689-5.347-17.797-10.128-27.09-14.347c-9.799-4.449-19.867-8.46-30.121-11.704c-8.691-2.749-17.744-4.611-26.773-5.97
			c-8.039-1.208-16.258-1.469-24.406-1.645c-14.668-0.314-29.336-0.188-43.759,3.154c-6.555,1.517-13.25,2.572-19.667,4.532
			c-6.961,2.127-13.779,4.824-20.469,7.708c-6.93,2.993-13.875,6.091-20.361,9.906c-7.102,4.18-14.036,8.807-20.408,14.017
			c-7.315,5.976-14.229,12.526-20.76,19.358c-4.797,5.02-8.5,11.067-13.051,16.347c-7.834,9.087-13.874,19.144-17.789,30.485
			c-1.34,3.877-2.693,7.754-4.197,11.57c-3.587,9.106-6.068,18.461-6.875,28.247c-0.633,7.674-0.293,15.419-2.714,22.949
			c-1.597,4.96-2.089,10.27-3.518,15.301c-0.735,2.586-1.94,5.393-3.79,7.244c-6.171,6.171-13.537,10.829-21.113,15.091
			c-2.695,1.518-5.746,2.397-8.473,3.865c-4.079,2.197-7.813,5.158-12.063,6.895c-7.313,2.992-14.008,6.789-19.312,12.625
			c-3.345,3.68-7.069,7.354-7.146,12.91c-0.033,2.598-0.104,5.205,0.065,7.793c0.537,8.205,5.688,15.574,12.634,17.562
			c6.729,1.923,13.664,3.125,19.76,6.88c4.265,2.627,9.817,2.979,11.018,9.979c0.926,5.403,1.268,10.576-3.016,13.953
			c-2.588,2.041-5.84,3.252-8.4,5.318c-2.8,2.262-7.251,1.553-9.063,5.671c-1.043,2.372-1.354,7.464,0.598,8.522
			c2.521,1.361,5.176,2.598,7.913,3.408c3.683,1.089,7.536,1.592,11.239,2.617c1.25,0.346,3.32,1.773,3.2,2.271
			c-0.372,1.547-1.288,3.54-2.579,4.182c-4.029,2.004-8.372,3.373-12.506,5.19c-1.509,0.663-3.852,1.82-3.933,2.894
			c-0.247,3.339-1.075,7.009,2.274,9.758c2.645,2.168,6.539,4.486,7.022,7.24c0.862,4.922,0.597,10.584-1.069,15.271
			c-2.094,5.892-6.186,11.053-9.17,16.66c-1.105,2.076-2.086,4.511-2.145,6.807c-0.275,10.928,1.305,21.539,6.566,31.339
			c3.056,5.688,7.146,9.749,13.824,11.433c8.508,2.145,16.781,5.203,25.778,4.191c0.475-0.055,0.985,0.053,1.461,0.17
			c6.446,1.59,12.888,3.211,19.337,4.789c1.426,0.348,3.201,0.134,4.277,0.918c6.771,4.936,11.354,11.343,13.282,19.689
			c0.95,4.102,2.804,7.992,4.21,11.994c1.274,3.617,3.117,7.178,3.563,10.898c0.44,3.697,1.9,4.127,5.113,4.125
			c92.186-0.084,184.368-0.068,276.551-0.068C457.189,693.479,458.543,693.479,461.119,693.479z M-14.721,350.001
			c0-1.988,0.02-2.96-0.001-3.931c-0.219-10.14-0.403-20.279-0.687-30.419c-0.066-2.359,0.178-3.616,3.021-2.385
			c7.807,3.378,15.693,6.567,23.526,9.881c2.783,1.178,5.481,2.558,8.265,3.738c5.902,2.501,11.842,4.916,17.749,7.404
			c1.909,0.803,2.831,0.599,3.165-1.795c1.238-8.888,2.664-17.75,4.102-26.609c0.559-3.436,1.332-6.834,2.094-10.678
			c20.254,9.114,40.07,18.028,59.887,26.943c0.189-0.338,0.381-0.676,0.566-1.012c-0.701-0.558-1.36-1.188-2.117-1.661
			c-2.352-1.466-4.805-2.775-7.102-4.32c-6.602-4.437-13.133-8.977-19.713-13.441c-5.51-3.739-11.011-7.489-16.59-11.121
			c-3.354-2.182-6.814-4.209-10.299-6.182c-1.551-0.879-2.83-0.983-3.606,1.34c-1.923,5.755-4.19,11.393-6.239,17.105
			c-2.382,6.634-4.635,13.317-7.084,19.926c-0.245,0.655-1.715,1.527-2.204,1.321c-8.7-3.65-17.35-7.424-25.979-11.241
			c-3.436-1.519-6.751-3.302-10.196-4.789c-3.84-1.654-7.765-3.107-12.264-4.894c-0.572,5.187-1.18,9.541-1.508,13.916
			c-0.555,7.398-0.894,14.812-1.414,22.214c-0.125,1.772,0.143,4.024-3.096,2.053c-3.084-1.875-6.691-2.868-10.016-4.371
			c-5.303-2.396-10.557-4.904-15.842-7.338c-0.527-0.242-1.146-0.286-1.725-0.42c-0.095,0.242-0.193,0.487-0.289,0.728
			C-38.706,336.5-27.098,343.034-14.721,350.001z M179.248,217.228c0.228-0.458,0.59-0.85,0.506-1.07
			c-1.979-5.174-3.921-10.361-6.037-15.48c-3.505-8.479-7.109-16.921-10.705-25.363c-2.986-7.009-6.09-13.971-8.983-21.019
			c-0.825-2.013-1.781-2.104-3.313-1.001c-6.029,4.339-12.053,8.688-18.088,13.021c-4.597,3.301-9.209,6.58-13.811,9.873
			c-1.766,1.264-2.703,0.81-3.606-1.196c-1.1-2.437-2.64-4.683-4.088-6.949c-3.556-5.566-7.219-11.066-10.743-16.649
			c-3.35-5.303-6.428-10.784-9.914-15.991c-2.513-3.75-2.723-3.604-5.574-0.205c-0.691,0.825-1.459,1.593-2.134,2.435
			c-6.25,7.793-12.47,15.61-18.804,23.333c-0.27,0.33-2.047,0.094-2.336-0.369c-4.199-6.752-8.248-13.6-12.379-20.395
			c-1.172-1.936-2.49-3.781-3.742-5.668c0.316,2.425,1.086,4.558,2.096,6.566c4.672,9.313,9.4,18.592,14.139,27.87
			c0.352,0.689,0.932,1.259,1.406,1.884c0.512-0.458,1.156-0.833,1.514-1.395c5.889-9.206,11.75-18.429,17.59-27.668
			c1.238-1.96,2.123-1.584,3.144,0.205c1.422,2.499,2.937,4.944,4.491,7.362c4.354,6.775,8.758,13.516,13.117,20.286
			c3.95,6.13,7.828,12.31,11.878,18.375c0.349,0.522,2.191,0.813,2.558,0.441c4.258-4.324,8.367-8.796,12.509-13.231
			c4.161-4.454,8.274-8.956,12.542-13.302c0.427-0.433,2.285-0.304,2.639,0.179c1.899,2.599,3.572,5.371,5.248,8.129
			c4.314,7.105,8.537,14.265,12.893,21.345C168.474,200.067,173.791,208.488,179.248,217.228z M472.434,248.041
			c0.258,0.044,0.52,0.089,0.779,0.134c4.271-9.835,8.547-19.674,13.066-30.071c9.461,9.005,18.313,17.398,27.121,25.841
			c1.375,1.318,2.121,1.373,2.867-0.568c1.18-3.082,2.518-6.106,3.879-9.112c3.668-8.109,7.377-16.201,11.09-24.29
			c1.861-4.051,3.676-8.127,5.746-12.066c0.34-0.649,2.102-1.149,2.881-0.855c2.59,0.986,5.07,2.298,7.525,3.61
			c4.65,2.486,9.219,5.122,13.883,7.582c4.352,2.294,8.799,4.412,13.172,6.665c1.998,1.03,3.027,0.773,3.652-1.641
			c2.785-10.756,5.748-21.462,8.617-32.195c1.924-7.205,3.869-14.406,5.652-21.647c0.836-3.382,1.309-6.854,1.947-10.287
			c-0.213-0.053-0.43-0.101-0.645-0.155c-8.779,19.974-17.559,39.945-26.451,60.165c-11.043-8.775-21.432-17.031-32.078-25.49
			c-1.691,3.891-3.271,7.686-4.979,11.424c-4.801,10.526-9.637,21.039-14.49,31.542c-1.322,2.86-2.732,5.682-4.113,8.511
			c-0.973,2-2.336,1.795-3.654,0.467c-1.174-1.18-2.158-2.54-3.234-3.815c-5.955-7.054-11.902-14.11-17.877-21.147
			c-1.301-1.533-2.037-1.355-2.605,0.715c-1.314,4.806-2.754,9.583-4.332,14.31c-1.293,3.878-2.975,7.631-4.273,11.513
			C474.383,240.75,473.469,244.416,472.434,248.041z M531.531,351.833c1.244,4.062,2.18,7.538,3.379,10.916
			c2.629,7.419,5.518,14.75,8.061,22.195c1.326,3.875,2.664,4.432,5.693,1.666c0.441-0.4,0.664-1.06,1.125-1.416
			c11.529-9.006,23.08-17.985,34.619-26.978c2.582-2.014,4.127-1.675,5.811,1.331c0.24,0.426,0.418,0.895,0.697,1.293
			c6.564,9.239,13.166,18.454,19.697,27.714c2.133,3.026,3.295,3.323,5.66,0.741c7.133-7.792,14.205-15.638,21.268-23.493
			c5.932-6.595,11.824-13.222,17.709-19.865c1.459-1.647,2.803-3.402,4.199-5.108c-0.227-0.232-0.455-0.461-0.686-0.694
			c-16.979,13.623-33.957,27.246-51.352,41.203c-5.609-12.616-11.018-24.78-16.416-36.925c-1.32,0.731-2.488,1.193-3.441,1.936
			c-9.518,7.375-18.986,14.813-28.496,22.202c-4.451,3.458-8.959,6.835-13.424,10.276c-1.527,1.178-2.393,0.919-2.818-1.015
			c-2.201-9.999-4.412-19.996-6.686-29.979c-0.316-1.386-1.006-2.684-1.605-4.238c-9.736,9.43-19.031,18.43-28.322,27.429
			c0.213,0.229,0.424,0.459,0.639,0.69C514.82,365.287,522.801,358.862,531.531,351.833z"/>
		<path d="M461.119,693.479c-2.576,0-3.93,0-5.285,0c-92.184-0.001-184.366-0.017-276.551,0.068
			c-3.213,0.004-4.672-0.428-5.112-4.125c-0.444-3.723-2.29-7.282-3.563-10.898c-1.407-4.003-3.262-7.893-4.208-11.995
			c-1.93-8.346-6.514-14.755-13.285-19.687c-1.075-0.785-2.852-0.57-4.277-0.922c-6.449-1.577-12.891-3.196-19.336-4.785
			c-0.476-0.119-0.985-0.227-1.463-0.172c-8.997,1.012-17.27-2.049-25.775-4.191c-6.677-1.684-10.772-5.742-13.824-11.434
			c-5.264-9.801-6.843-20.41-6.568-31.337c0.06-2.296,1.039-4.729,2.145-6.808c2.984-5.607,7.076-10.77,9.17-16.66
			c1.666-4.688,1.934-10.35,1.07-15.271c-0.484-2.754-4.38-5.072-7.023-7.24c-3.35-2.751-2.519-6.42-2.273-9.758
			c0.08-1.072,2.426-2.229,3.934-2.894c4.133-1.817,8.475-3.187,12.506-5.19c1.291-0.642,2.206-2.635,2.578-4.182
			c0.119-0.498-1.95-1.926-3.199-2.271c-3.705-1.026-7.559-1.529-11.24-2.617c-2.736-0.811-5.393-2.047-7.914-3.409
			c-1.949-1.058-1.641-6.148-0.596-8.521c1.811-4.119,6.262-3.41,9.063-5.672c2.561-2.066,5.811-3.277,8.401-5.318
			c4.28-3.377,3.938-8.549,3.013-13.953c-1.197-7-6.75-7.352-11.015-9.979c-6.098-3.756-13.034-4.955-19.761-6.879
			c-6.945-1.986-12.096-9.357-12.633-17.563c-0.17-2.588-0.104-5.195-0.066-7.793c0.073-5.559,3.799-9.229,7.143-12.91
			c5.307-5.836,12.002-9.633,19.313-12.625c4.248-1.736,7.984-4.697,12.065-6.895c2.726-1.467,5.774-2.349,8.47-3.865
			c7.578-4.262,14.945-8.918,21.113-15.091c1.852-1.851,3.057-4.657,3.791-7.244c1.428-5.029,1.923-10.337,3.518-15.303
			c2.422-7.525,2.082-15.273,2.715-22.947c0.805-9.784,3.289-19.138,6.875-28.246c1.502-3.816,2.855-7.69,4.195-11.569
			c3.918-11.343,9.957-21.399,17.792-30.487c4.548-5.277,8.251-11.325,13.048-16.345c6.533-6.833,13.447-13.385,20.76-19.36
			c6.373-5.209,13.311-9.839,20.408-14.016c6.489-3.814,13.434-6.916,20.361-9.904c6.689-2.886,13.508-5.583,20.471-7.71
			c6.418-1.959,13.108-3.012,19.665-4.531c14.425-3.342,29.093-3.468,43.761-3.155c8.15,0.176,16.363,0.438,24.404,1.647
			c9.027,1.357,18.08,3.22,26.773,5.969c10.254,3.244,20.326,7.253,30.123,11.703c9.295,4.217,18.4,8.999,27.09,14.347
			c7.111,4.381,13.457,9.993,18.738,16.625c5.75,7.224,11.791,14.235,17.189,21.71c3.789,5.243,7.133,10.912,9.93,16.748
			c3.955,8.263,8.033,16.623,10.551,25.375c2.523,8.779,3.219,18.089,4.672,27.173c0.629,3.958,1.193,7.928,1.711,11.904
			c0.475,3.673,1.248,7.369,1.18,11.043c-0.186,10.256-0.16,20.574-1.33,30.737c-1.004,8.684-3.57,17.183-5.395,25.771
			c-0.887,4.188-1.816,8.373-2.453,12.6c-1.324,8.77-5.164,16.324-10.502,23.276c-1.496,1.944-2.393,4.337-3.668,6.458
			c-3.502,5.815-7.023,11.617-10.602,17.385c-3.199,5.151-6.92,10.033-9.631,15.426c-4.002,7.96-9.756,15.071-11.381,24.25
			c-0.695,3.932-2.846,7.588-4.145,11.435c-0.545,1.604-0.727,3.366-0.84,5.071c-0.389,5.896-0.232,11.863-1.08,17.688
			c-2.854,19.529-2.199,39.172-1.684,58.749c0.207,7.831,3.029,15.614,4.836,23.378c0.795,3.414,1.875,6.783,3.086,10.077
			c2.854,7.767,5.814,15.495,8.826,23.204c2.25,5.754,4.545,11.494,7.029,17.148C457.854,688.846,459.373,690.713,461.119,693.479z
			 M174.335,349.003c-0.143,5.418,3.397,14.907,9.375,23.455c3.609,5.163,8.115,9.576,13.809,12.627
			c3.375,1.809,7.098,3.385,9.789,5.975c7.268,6.991,16.439,10.5,25.541,13.331c6.908,2.15,12.559,6.041,18.656,9.303
			c4.865,2.603,9.604,4.131,15.214,4.309c7.175,0.227,14.313,1.649,21.466,2.592c0.723,0.094,1.466,0.307,2.118,0.633
			c3.546,1.77,6.999,3.744,10.613,5.354c3.731,1.66,7.56,3.143,11.439,4.416c7.441,2.445,14.072,7.313,22.279,7.477
			c0.604,0.012,1.273,0.139,1.791,0.432c4.438,2.508,9.121,1.953,13.963,1.746c4.209-0.182,8.498,0.885,12.709,1.647
			c2.217,0.403,4.299,1.522,6.512,2.004c12.148,2.647,23.559-1.985,35.262-3.72c0.592-0.088,1.189-0.333,1.725-0.618
			c4.74-2.501,9.576-4.853,14.174-7.601c3.93-2.348,8.064-4.676,11.252-7.869c6.15-6.166,11.551-12.996,13.787-21.783
			c0.684-2.682,1.439-5.599,3.051-7.738c4.055-5.388,5.807-11.687,6.914-17.949c2.182-12.363-0.262-24.054-7.447-34.592
			c-1.35-1.982-2.826-4.083-3.412-6.343c-1.916-7.398-5.656-13.849-9.754-20.139c-4.869-7.466-10.174-14.615-13.641-22.976
			c-2.689-6.479-7.58-11.45-13.012-15.915c-3.016-2.477-5.762-5.36-8.254-8.375c-3.889-4.704-8.283-8.714-13.518-11.871
			c-4.422-2.665-9.02-5.156-13.018-8.373c-7.773-6.256-16.402-10.797-26.254-11.554c-11.914-0.917-23.928-0.565-35.9-0.816
			c-2.088-0.045-4.178-0.295-6.256-0.559c-3.379-0.428-6.842-1.698-10.094-1.271c-7.373,0.963-14.675,2.583-21.931,4.252
			c-4.105,0.943-8.183,2.244-12.056,3.89c-2.481,1.054-4.559,3.051-6.838,4.598c-5.896,4-11.189,8.899-18.494,10.652
			c-3.934,0.946-7.693,2.838-11.35,4.668c-9.763,4.885-16.699,12.499-21.143,22.465c-0.773,1.735-1.867,3.469-3.229,4.77
			c-4.962,4.748-8.853,10.141-11.294,16.603c-0.854,2.26-1.797,4.665-3.327,6.463C177.869,321.625,174.498,332.083,174.335,349.003z
			"/>
		<path d="M-14.721,350.001c-12.377-6.968-23.984-13.502-35.594-20.036c0.098-0.241,0.194-0.486,0.291-0.729
			c0.576,0.138,1.196,0.18,1.723,0.421c5.287,2.434,10.539,4.941,15.842,7.338c3.322,1.502,6.934,2.495,10.016,4.371
			c3.238,1.973,2.973-0.282,3.098-2.053c0.521-7.4,0.86-14.816,1.414-22.214c0.328-4.376,0.934-8.729,1.506-13.916
			c4.502,1.786,8.426,3.239,12.264,4.894c3.445,1.486,6.764,3.27,10.197,4.789c8.629,3.814,17.277,7.591,25.979,11.24
			c0.489,0.208,1.961-0.666,2.203-1.32c2.449-6.608,4.703-13.291,7.084-19.926c2.051-5.71,4.318-11.35,6.239-17.105
			c0.778-2.321,2.058-2.219,3.608-1.339c3.482,1.972,6.943,4,10.297,6.182c5.58,3.63,11.082,7.384,16.592,11.12
			c6.58,4.467,13.111,9.006,19.711,13.442c2.299,1.544,4.75,2.854,7.103,4.32c0.757,0.472,1.415,1.103,2.119,1.66
			c-0.188,0.335-0.379,0.674-0.567,1.012c-19.816-8.917-39.633-17.833-59.889-26.944c-0.76,3.844-1.535,7.242-2.092,10.677
			c-1.438,8.86-2.863,17.721-4.104,26.609c-0.334,2.395-1.256,2.598-3.162,1.795c-5.908-2.489-11.848-4.901-17.75-7.404
			c-2.783-1.181-5.48-2.56-8.264-3.738c-7.836-3.315-15.723-6.503-23.529-9.881c-2.842-1.229-3.086,0.025-3.02,2.385
			c0.281,10.14,0.469,20.279,0.685,30.419C-14.704,347.042-14.721,348.014-14.721,350.001z"/>
		<path d="M179.248,217.228c-5.455-8.74-10.773-17.16-15.992-25.644c-4.355-7.079-8.578-14.24-12.893-21.344
			c-1.676-2.759-3.35-5.529-5.247-8.128c-0.354-0.485-2.214-0.614-2.64-0.181c-4.267,4.348-8.381,8.849-12.541,13.304
			c-4.144,4.436-8.252,8.906-12.51,13.23c-0.367,0.373-2.208,0.079-2.559-0.44c-4.049-6.065-7.926-12.246-11.877-18.377
			c-4.359-6.77-8.766-13.507-13.119-20.283c-1.553-2.42-3.068-4.867-4.49-7.363c-1.021-1.791-1.902-2.168-3.143-0.208
			c-5.841,9.239-11.701,18.461-17.59,27.67c-0.357,0.559-1.002,0.934-1.513,1.395c-0.476-0.625-1.057-1.197-1.407-1.885
			c-4.736-9.277-9.467-18.559-14.139-27.869c-1.01-2.012-1.777-4.145-2.097-6.566c1.253,1.886,2.57,3.732,3.743,5.666
			c4.131,6.797,8.178,13.644,12.379,20.396c0.289,0.461,2.066,0.698,2.336,0.37c6.334-7.726,12.553-15.544,18.805-23.334
			c0.674-0.843,1.438-1.61,2.133-2.436c2.854-3.4,3.061-3.547,5.574,0.205c3.486,5.207,6.564,10.688,9.912,15.988
			c3.525,5.586,7.189,11.087,10.744,16.653c1.45,2.265,2.99,4.512,4.088,6.946c0.904,2.007,1.841,2.462,3.607,1.199
			c4.601-3.293,9.213-6.575,13.812-9.876c6.034-4.332,12.058-8.681,18.087-13.021c1.534-1.103,2.486-1.009,3.311,1.003
			c2.896,7.048,6.002,14.008,8.986,21.021c3.593,8.44,7.199,16.88,10.705,25.361c2.115,5.118,4.061,10.306,6.035,15.479
			C179.836,216.376,179.475,216.769,179.248,217.228z"/>
		<path d="M472.434,248.041c1.037-3.626,1.949-7.29,3.145-10.857c1.299-3.879,2.98-7.631,4.275-11.512
			c1.578-4.729,3.018-9.503,4.332-14.312c0.568-2.071,1.307-2.247,2.605-0.712c5.975,7.035,11.922,14.093,17.877,21.145
			c1.076,1.274,2.063,2.636,3.234,3.814c1.318,1.332,2.682,1.534,3.654-0.462c1.381-2.833,2.793-5.654,4.111-8.513
			c4.855-10.506,9.691-21.016,14.494-31.543c1.705-3.741,3.285-7.535,4.977-11.426c10.646,8.459,21.035,16.716,32.078,25.493
			c8.893-20.223,17.672-40.194,26.453-60.165c0.213,0.052,0.428,0.104,0.643,0.154c-0.639,3.431-1.113,6.903-1.947,10.285
			c-1.783,7.241-3.729,14.442-5.654,21.649c-2.867,10.733-5.83,21.437-8.615,32.193c-0.625,2.414-1.656,2.671-3.652,1.646
			c-4.375-2.256-8.82-4.373-13.172-6.668c-4.664-2.459-9.232-5.097-13.883-7.582c-2.455-1.314-4.936-2.624-7.525-3.612
			c-0.779-0.294-2.539,0.209-2.879,0.854c-2.072,3.94-3.887,8.018-5.748,12.068c-3.713,8.088-7.422,16.183-11.092,24.292
			c-1.361,3.004-2.695,6.028-3.879,9.109c-0.744,1.941-1.49,1.886-2.867,0.569c-8.805-8.441-17.658-16.837-27.119-25.842
			c-4.521,10.399-8.795,20.237-13.068,30.073C472.951,248.129,472.691,248.085,472.434,248.041z"/>
		<path d="M531.531,351.833c-8.73,7.03-16.711,13.454-24.689,19.879c-0.213-0.231-0.424-0.459-0.637-0.688
			c9.293-9.001,18.584-17.999,28.32-27.43c0.6,1.555,1.293,2.853,1.609,4.24c2.273,9.98,4.482,19.979,6.684,29.981
			c0.426,1.934,1.289,2.191,2.818,1.011c4.465-3.441,8.975-6.82,13.424-10.277c9.508-7.388,18.979-14.825,28.496-22.201
			c0.953-0.741,2.123-1.206,3.441-1.934c5.398,12.142,10.805,24.307,16.418,36.923c17.393-13.957,34.371-27.58,51.352-41.205
			c0.229,0.232,0.457,0.464,0.686,0.695c-1.396,1.705-2.74,3.459-4.203,5.109c-5.881,6.643-11.777,13.27-17.707,19.863
			c-7.063,7.858-14.135,15.702-21.27,23.493c-2.359,2.583-3.523,2.287-5.656-0.738c-6.531-9.263-13.135-18.477-19.701-27.716
			c-0.279-0.396-0.455-0.864-0.693-1.292c-1.684-3.006-3.232-3.345-5.814-1.333c-11.539,8.995-23.088,17.971-34.619,26.977
			c-0.461,0.362-0.684,1.018-1.123,1.419c-3.029,2.764-4.369,2.207-5.693-1.668c-2.545-7.445-5.43-14.775-8.061-22.194
			C533.711,359.37,532.775,355.894,531.531,351.833z"/>
		<path fill="none" d="M174.335,349.003c0.159-16.919,3.531-27.379,11.217-36.4c1.531-1.8,2.477-4.203,3.328-6.465
			c2.441-6.462,6.332-11.853,11.298-16.602c1.358-1.302,2.452-3.036,3.224-4.769c4.445-9.969,11.385-17.583,21.147-22.467
			c3.653-1.827,7.415-3.72,11.347-4.666c7.305-1.752,12.599-6.654,18.494-10.654c2.279-1.547,4.354-3.541,6.838-4.595
			c3.873-1.648,7.95-2.949,12.055-3.893c7.258-1.667,14.561-3.287,21.932-4.252c3.252-0.423,6.716,0.844,10.092,1.273
			c2.081,0.262,4.17,0.513,6.262,0.557c11.969,0.253,23.982-0.097,35.898,0.819c9.85,0.759,18.479,5.296,26.252,11.552
			c3.996,3.219,8.596,5.708,13.018,8.375c5.234,3.154,9.629,7.166,13.52,11.871c2.492,3.012,5.236,5.896,8.254,8.375
			c5.43,4.464,10.322,9.433,13.01,15.914c3.467,8.359,8.771,15.508,13.641,22.978c4.1,6.284,7.842,12.737,9.756,20.136
			c0.584,2.263,2.063,4.362,3.412,6.345c7.184,10.537,9.631,22.228,7.443,34.593c-1.104,6.263-2.857,12.561-6.91,17.946
			c-1.611,2.142-2.371,5.059-3.049,7.739c-2.24,8.787-7.639,15.619-13.791,21.785c-3.186,3.193-7.322,5.521-11.252,7.867
			c-4.598,2.748-9.432,5.102-14.174,7.604c-0.535,0.282-1.133,0.529-1.725,0.615c-11.703,1.734-23.113,6.367-35.26,3.722
			c-2.215-0.481-4.295-1.601-6.514-2.006c-4.209-0.764-8.5-1.828-12.709-1.647c-4.842,0.209-9.525,0.764-13.961-1.744
			c-0.516-0.295-1.188-0.42-1.791-0.432c-8.209-0.164-14.84-5.031-22.281-7.477c-3.877-1.272-7.707-2.758-11.438-4.416
			c-3.616-1.609-7.066-3.585-10.614-5.355c-0.652-0.324-1.396-0.537-2.116-0.633c-7.152-0.938-14.291-2.365-21.468-2.592
			c-5.609-0.176-10.349-1.705-15.212-4.309c-6.099-3.26-11.75-7.15-18.658-9.301c-9.102-2.832-18.273-6.342-25.539-13.329
			c-2.693-2.592-6.416-4.168-9.791-5.979c-5.691-3.051-10.197-7.465-13.809-12.626C177.733,363.91,174.193,354.421,174.335,349.003z
			 M231.679,355.478c-0.725,3.239,1.396,4.54,3.871,5.375c2.705,0.913,5.326,1.61,7.332-1.676c3.297-5.396,3.666-5.258,8.18-4.459
			c3.629,0.642,3.119,3.556,3.813,5.833c1.223,4.007,1.764,4.194,7.563,4.041c3.303-0.088,4.612-1.415,4.385-4.68
			c-0.1-1.445,0.18-2.972,0.583-4.376c0.288-1.009,0.932-2.534,1.653-2.683c2.116-0.434,4.586-0.917,6.479-0.211
			c1.998,0.746,3.4,2.967,5.249,4.28c0.724,0.513,2.177,0.737,2.902,0.35c1.557-0.824,3.025-1.979,4.219-3.283
			c1.294-1.408,2.634-2.584,0.521-5.051c-2.694-3.145-2.287-7.249-0.072-9.552c2.567-2.674,5.281-1.87,8.227-0.402
			c1.158,0.579,3.719,0.611,4.176-0.082c1.559-2.352,2.822-5.06,3.408-7.802c0.183-0.851-2.096-2.308-3.352-3.366
			c-2.432-2.039-5.232-3.523-4.574-7.71c0.621-3.941,3.746-3.119,5.977-4.096c0.867-0.379,1.744-0.75,2.638-1.066
			c2.275-0.81,2.953-2.381,2.519-4.695c-0.986-5.284-2.067-6.254-7.544-6.479c-0.493-0.021-1.003,0.036-1.48-0.066
			c-2.286-0.482-3.702-1.628-4.382-4.127c-0.982-3.617,1.699-5.207,3.313-7.484c0.917-1.298,2.546-3.222,2.151-4.1
			c-1.09-2.42-2.811-4.76-4.851-6.438c-0.715-0.585-3.089,0.866-4.714,1.36c-1.412,0.427-2.962,1.38-4.228,1.098
			c-2.072-0.465-4.095-1.557-5.834-2.81c-0.433-0.308,0.35-2.241,0.495-3.436c0.304-2.524,1.671-5.875,0.557-7.383
			c-1.471-1.999-4.811-2.976-7.525-3.53c-0.99-0.2-2.779,1.873-3.697,3.247c-3.121,4.687-4.381,5.392-8.172,4.048
			c-3.059-1.082-3.235-3.923-4.004-6.391c-1.236-3.971-2.199-4.702-6.779-4.008c-2.781,0.42-5.395,1.289-4.936,5.183
			c0.184,1.528-0.295,3.182-0.676,4.729c-0.834,3.382-5.502,4.398-8.242,2.194c-7.364-5.929-5.055-6.105-13.002-0.305
			c-0.51,0.373-0.627,1.781-0.408,2.563c0.707,2.533,1.859,4.95,2.463,7.5c0.692,2.933-2.207,5.378-5.166,4.937
			c-2.759-0.412-5.84-1.123-8.277-0.271c-1.525,0.533-2.107,3.726-3.157,5.701c-0.22,0.414-0.83,0.689-0.903,1.091
			c-0.082,0.459,0.08,1.148,0.404,1.465c1.008,0.98,2.104,1.885,3.233,2.725c2.604,1.939,5.204,3.68,4.196,7.752
			c-0.791,3.193-3.533,3.096-5.656,4.083c-0.986,0.461-2.357,0.362-3.098,1.023c-0.961,0.864-2.185,2.323-2.055,3.373
			c0.859,7.054,0.967,7.035,8.588,7.869c0.609,0.068,1.238,0.143,1.807,0.356c2.626,0.98,4.377,5.765,2.768,7.748
			c-1.191,1.466-2.814,2.617-3.838,4.173c-0.781,1.192-1.711,3.264-1.2,4.135c1.355,2.303,3.452,4.162,5.255,6.2
			c0.152-0.157,0.277-0.384,0.463-0.457c2.645-1.07,5.287-2.149,7.959-3.148c0.432-0.159,1.1-0.11,1.496,0.121
			c4.912,2.862,4.882,2.868,3.17,8.489C231.621,353.702,231.728,354.616,231.679,355.478z M353.629,417.971
			c4.406,5.803,4.393,5.764,10.684,3.23c0.789-0.318,2.063-0.285,2.754,0.152c3.115,1.975,3.713,3.766,1.816,7.26
			c-1.721,3.164,0.775,4.513,2.389,5.464c1.457,0.854,3.557,2.208,5.725-0.646c1.176-1.543,1.664-4.813,5.309-4.616
			c4.174,0.228,3.801,3.715,5.33,5.855c0.646,0.907,1.166,2.386,2.002,2.604c4.59,1.203,6.52-0.281,7.063-5.023
			c0.098-0.857,0.115-1.748,0.357-2.564c0.654-2.182,4.459-3.822,5.898-2.557c1.328,1.168,2.436,2.633,3.887,3.59
			c0.752,0.493,2.117,0.427,3.066,0.143c0.969-0.289,1.76-1.161,2.643-1.763c1.463-0.995,2.512-1.528,0.969-3.849
			c-1.227-1.842-1.514-5.112-0.779-7.256c0.945-2.756,4.039-1.311,6.268-1.284c0.734,0.009,1.469,0.308,2.199,0.294
			c0.686-0.01,1.764-0.039,1.984-0.438c1.012-1.848,2.266-3.783,2.436-5.773c0.08-0.939-1.998-2.187-3.248-3.089
			c-3.525-2.548-4.113-3.919-2.043-6.946c0.689-1.01,2.336-1.572,3.652-1.896c2.818-0.689,3.84-2.145,3.803-5.151
			c-0.059-4.771-3.859-4.6-6.596-5.085c-2.637-0.463-3.529-1.655-3.215-3.84c0.201-1.382,1.012-2.811,1.908-3.928
			c1.75-2.173,2.691-4.357,0.926-6.863c-1.516-2.151-3.527-2.747-6.006-1.485c-0.857,0.437-1.861,0.591-2.811,0.837
			c-3.648,0.947-5.887-1.082-5.295-4.744c0.176-1.096-0.018-2.291,0.338-3.308c0.828-2.381-0.32-3.456-2.32-4.216
			c-3.992-1.52-4.404-1.528-7.508,3.304c-1.271,1.973-2.801,2.685-4.404,1.543c-1.611-1.144-2.674-3.093-3.871-4.769
			c-0.721-1.007-0.988-2.819-1.873-3.141c-4.418-1.613-7.184,0.316-7.5,5.061c-0.141,2.102-0.371,3.708-2.877,4.408
			c-2.701,0.753-4.328-0.474-6.209-1.998c-1.07-0.867-2.799-1.676-4.029-1.443c-3.551,0.675-4.775,4.045-3.002,7.259
			c0.293,0.535,0.445,1.148,0.646,1.73c1.205,3.479-0.736,6.041-4.404,5.765c-1.477-0.11-2.941-0.416-4.418-0.458
			c-0.789-0.024-1.82,0.063-2.348,0.541c-3.498,3.169-2.979,6.096,0.99,8.912c1.24,0.881,2.172,2.783,2.426,4.346
			c0.523,3.271-2.125,3.813-4.553,4.437c-1.684,0.43-3.961,0.271-4.02,2.91c-0.084,3.6,2.125,5.984,5.844,6.438
			c0.369,0.048,0.742,0.048,1.107,0.097c3.385,0.443,5.133,3.839,3.258,6.646C356.742,414.518,355.158,416.129,353.629,417.971z
			 M324.182,311.026c-1.742-0.768-3.23-0.197-4.271,2.329c-1.094,2.652,0.576,3.648,2.031,5.143
			c0.885,0.908,1.553,2.313,1.717,3.578c0.27,2.05-1.426,2.678-3.076,2.848c-3.492,0.362-4.068,2.487-2.758,5.084
			c0.502,0.993,2.439,1.196,3.615,1.933c1.439,0.898,2.967,1.81,4.008,3.082c0.307,0.373-0.916,1.996-1.441,3.045
			c-0.217,0.433-0.35,0.966-0.686,1.275c-2.303,2.125-0.533,4.099,0.688,5.441c0.684,0.751,3.389,0.827,4.156,0.111
			c2.037-1.904,3.115-1.154,4.855,0.333c1.826,1.558,1.008,2.831,0.516,4.469c-0.26,0.863-0.121,2.263,0.439,2.883
			c2.131,2.36,3.334,3.322,6.793-0.958c1.098-1.357,2.07-2.67,3.748-1.795c1.063,0.553,2.207,1.914,2.363,3.043
			c0.416,3,2.246,2.957,4.502,2.883c2.574-0.08,3.238-1.588,3.625-3.762c0.195-1.121,0.936-2.941,1.602-3.022
			c1.506-0.178,3.836,0.009,4.539,0.981c1.418,1.969,2.551,2.291,4.518,1.124c2.025-1.201,2.367-2.773,1.734-4.946
			c-1.559-5.368-0.748-6.285,4.867-5.906c1.545,0.107,3.158,0.646,3.791-1.703c0.551-2.041,1.041-3.436-1.453-4.833
			c-3.033-1.704-2.566-4.854,0.447-6.694c1.346-0.822,3.176-1.781,3.568-3.055c1.018-3.296-0.076-4.131-4.369-4.749
			c-1.131-0.162-2.857-0.955-3.053-1.76c-0.303-1.272,0.004-3.242,0.865-4.119c1.689-1.718,2.381-3.361,1.221-5.439
			c-1.107-1.98-2.787-1.944-4.852-1.249c-5.402,1.815-6.926,0.619-5.93-4.861c0.393-2.155,0.055-3.36-1.945-3.907
			c-1.939-0.534-4.012-0.84-4.895,1.668c-1.057,3.009-3.305,2.211-5.127,1.41c-0.828-0.366-1.199-2.012-1.555-3.145
			c-0.861-2.774-3.088-2.538-5.107-2.206c-0.846,0.139-2.039,1.201-2.188,2.006c-1.154,6.289-2.197,6.729-7.682,3.295
			c-0.621-0.384-1.074-1.888-3.035-0.564c-2.566,1.735-2.748,3.109-1.98,5.618C330.406,310.534,329.592,311.442,324.182,311.026z"/>
		<path d="M231.675,355.477c0.053-0.861-0.057-1.774,0.188-2.579c1.71-5.62,1.741-5.625-3.169-8.489
			c-0.396-0.23-1.064-0.279-1.499-0.119c-2.671,1-5.311,2.076-7.956,3.146c-0.188,0.075-0.31,0.303-0.465,0.458
			c-1.801-2.038-3.899-3.896-5.252-6.199c-0.512-0.872,0.415-2.944,1.199-4.136c1.021-1.556,2.645-2.707,3.836-4.174
			c1.609-1.982-0.141-6.767-2.768-7.748c-0.566-0.213-1.196-0.287-1.805-0.354c-7.623-0.835-7.729-0.818-8.588-7.871
			c-0.129-1.05,1.091-2.507,2.055-3.373c0.738-0.663,2.11-0.562,3.098-1.023c2.121-0.99,4.862-0.89,5.654-4.083
			c1.01-4.072-1.592-5.813-4.193-7.752c-1.133-0.839-2.228-1.742-3.234-2.725c-0.324-0.316-0.488-1.004-0.403-1.465
			c0.071-0.404,0.684-0.678,0.903-1.091c1.047-1.977,1.629-5.168,3.153-5.699c2.438-0.854,5.522-0.143,8.277,0.27
			c2.959,0.443,5.861-2.002,5.167-4.936c-0.602-2.552-1.754-4.969-2.463-7.501c-0.221-0.781-0.1-2.19,0.411-2.563
			c7.944-5.8,5.635-5.624,13.001,0.306c2.738,2.203,7.408,1.186,8.242-2.195c0.381-1.547,0.857-3.199,0.675-4.729
			c-0.458-3.893,2.153-4.76,4.935-5.18c4.581-0.695,5.543,0.037,6.779,4.005c0.77,2.469,0.947,5.31,4.004,6.391
			c3.791,1.344,5.051,0.64,8.174-4.046c0.918-1.375,2.707-3.45,3.697-3.249c2.713,0.555,6.055,1.53,7.527,3.533
			c1.111,1.506-0.254,4.856-0.559,7.382c-0.146,1.195-0.931,3.125-0.496,3.435c1.738,1.252,3.764,2.344,5.836,2.809
			c1.264,0.283,2.813-0.668,4.225-1.098c1.625-0.494,4-1.947,4.715-1.359c2.041,1.676,3.763,4.017,4.85,6.438
			c0.395,0.875-1.232,2.803-2.152,4.099c-1.611,2.278-4.293,3.866-3.312,7.485c0.679,2.497,2.095,3.645,4.383,4.126
			c0.478,0.102,0.985,0.045,1.479,0.068c5.478,0.224,6.559,1.195,7.543,6.478c0.434,2.314-0.242,3.886-2.518,4.697
			c-0.895,0.315-1.771,0.686-2.639,1.065c-2.229,0.978-5.354,0.156-5.975,4.096c-0.66,4.187,2.143,5.676,4.572,7.71
			c1.258,1.057,3.535,2.516,3.353,3.366c-0.585,2.742-1.85,5.451-3.407,7.802c-0.457,0.689-3.018,0.659-4.178,0.082
			c-2.943-1.469-5.657-2.275-8.227,0.401c-2.213,2.303-2.619,6.41,0.072,9.553c2.113,2.469,0.773,3.643-0.519,5.052
			c-1.194,1.3-2.661,2.457-4.218,3.281c-0.728,0.386-2.182,0.166-2.903-0.349c-1.851-1.314-3.253-3.534-5.251-4.281
			c-1.892-0.704-4.358-0.221-6.479,0.211c-0.721,0.149-1.366,1.675-1.654,2.685c-0.402,1.402-0.68,2.928-0.58,4.374
			c0.227,3.267-1.084,4.59-4.385,4.681c-5.801,0.154-6.342-0.033-7.563-4.041c-0.693-2.278-0.186-5.188-3.814-5.832
			c-4.514-0.799-4.883-0.938-8.178,4.459c-2.009,3.285-4.63,2.586-7.332,1.676C233.075,360.017,230.955,358.716,231.675,355.477z
			 M256.156,302.001c-7.823,0.243-11.862,6.125-12.438,12.635c-0.483,5.475,6.652,12.32,12.352,12.523
			c6.002,0.215,12.909-6.54,12.744-12.676C268.632,307.782,263.226,301.754,256.156,302.001z"/>
		<path d="M353.629,417.971c1.529-1.842,3.113-3.453,4.348-5.303c1.873-2.809,0.129-6.203-3.256-6.646
			c-0.367-0.049-0.742-0.049-1.107-0.094c-3.721-0.455-5.93-2.842-5.844-6.441c0.059-2.639,2.336-2.48,4.018-2.91
			c2.43-0.624,5.078-1.167,4.553-4.435c-0.254-1.565-1.184-3.469-2.426-4.348c-3.969-2.816-4.49-5.747-0.988-8.915
			c0.525-0.475,1.557-0.563,2.348-0.54c1.473,0.046,2.939,0.347,4.416,0.458c3.668,0.276,5.609-2.282,4.404-5.763
			c-0.201-0.582-0.352-1.197-0.648-1.73c-1.768-3.213-0.547-6.585,3.004-7.258c1.23-0.234,2.961,0.574,4.031,1.443
			c1.879,1.523,3.508,2.749,6.209,1.996c2.506-0.698,2.736-2.308,2.877-4.409c0.316-4.741,3.08-6.672,7.498-5.059
			c0.883,0.323,1.154,2.133,1.875,3.14c1.193,1.675,2.262,3.624,3.869,4.768c1.605,1.141,3.133,0.431,4.404-1.545
			c3.105-4.83,3.518-4.82,7.51-3.301c2,0.76,3.146,1.834,2.318,4.215c-0.354,1.017-0.162,2.211-0.338,3.306
			c-0.59,3.663,1.646,5.692,5.299,4.745c0.945-0.247,1.949-0.4,2.807-0.836c2.479-1.261,4.49-0.666,6.008,1.486
			c1.764,2.504,0.822,4.689-0.928,6.865c-0.898,1.114-1.707,2.542-1.908,3.925c-0.314,2.184,0.58,3.373,3.217,3.841
			c2.734,0.483,6.537,0.311,6.596,5.082c0.035,3.007-0.988,4.46-3.803,5.151c-1.318,0.323-2.965,0.889-3.654,1.896
			c-2.07,3.027-1.479,4.397,2.045,6.947c1.248,0.899,3.328,2.148,3.248,3.088c-0.17,1.989-1.424,3.928-2.438,5.773
			c-0.219,0.4-1.299,0.428-1.98,0.438c-0.732,0.012-1.469-0.285-2.201-0.294c-2.227-0.026-5.324-1.471-6.27,1.285
			c-0.732,2.143-0.447,5.412,0.779,7.253c1.543,2.319,0.498,2.854-0.969,3.851c-0.879,0.602-1.674,1.473-2.643,1.763
			c-0.949,0.281-2.314,0.353-3.066-0.143c-1.451-0.957-2.559-2.421-3.885-3.59c-1.439-1.267-5.244,0.373-5.9,2.556
			c-0.242,0.818-0.26,1.707-0.357,2.566c-0.539,4.741-2.471,6.227-7.061,5.021c-0.84-0.221-1.354-1.697-2.002-2.605
			c-1.533-2.139-1.158-5.627-5.332-5.853c-3.645-0.198-4.135,3.071-5.305,4.613c-2.17,2.856-4.273,1.503-5.725,0.647
			c-1.615-0.951-4.113-2.301-2.393-5.464c1.898-3.495,1.301-5.286-1.814-7.262c-0.691-0.438-1.965-0.47-2.756-0.151
			C358.021,423.731,358.037,423.771,353.629,417.971z M378.65,397.46c-0.414,6.296,3.617,9.269,9.117,10.006
			c4.957,0.665,9.695-4.196,10.012-9.239c0.361-5.806-4.348-10.441-9.063-10.626C383.609,387.403,378.293,391.275,378.65,397.46z"/>
		<path d="M324.182,311.026c5.41,0.416,6.225-0.492,4.809-5.088c-0.771-2.508-0.588-3.88,1.984-5.618
			c1.957-1.326,2.412,0.178,3.031,0.565c5.484,3.437,6.527,2.993,7.682-3.297c0.146-0.804,1.342-1.868,2.188-2.003
			c2.021-0.334,4.246-0.568,5.107,2.203c0.354,1.136,0.727,2.781,1.555,3.147c1.82,0.802,4.07,1.599,5.127-1.41
			c0.881-2.509,2.955-2.205,4.896-1.671c1.998,0.55,2.334,1.754,1.943,3.91c-0.998,5.478,0.529,6.674,5.934,4.86
			c2.061-0.693,3.74-0.73,4.848,1.25c1.16,2.077,0.469,3.72-1.219,5.436c-0.863,0.876-1.17,2.848-0.863,4.12
			c0.191,0.806,1.918,1.596,3.049,1.76c4.291,0.617,5.385,1.451,4.369,4.75c-0.393,1.272-2.225,2.23-3.57,3.054
			c-3.012,1.838-3.479,4.99-0.443,6.693c2.49,1.397,2.002,2.792,1.451,4.834c-0.635,2.35-2.246,1.807-3.791,1.704
			c-5.617-0.38-6.426,0.536-4.865,5.906c0.633,2.171,0.289,3.744-1.736,4.946c-1.967,1.165-3.1,0.845-4.52-1.125
			c-0.699-0.971-3.031-1.158-4.539-0.979c-0.662,0.078-1.402,1.898-1.602,3.019c-0.385,2.174-1.049,3.684-3.623,3.764
			c-2.258,0.071-4.086,0.115-4.502-2.886c-0.158-1.128-1.303-2.49-2.361-3.042c-1.678-0.873-2.65,0.438-3.75,1.797
			c-3.459,4.278-4.66,3.316-6.793,0.957c-0.559-0.62-0.699-2.022-0.439-2.886c0.494-1.636,1.311-2.908-0.516-4.466
			c-1.74-1.486-2.816-2.234-4.855-0.331c-0.77,0.717-3.473,0.637-4.156-0.112c-1.219-1.344-2.99-3.318-0.688-5.442
			c0.334-0.309,0.467-0.843,0.686-1.274c0.525-1.048,1.748-2.671,1.443-3.045c-1.043-1.272-2.572-2.185-4.01-3.083
			c-1.176-0.735-3.115-0.938-3.615-1.932c-1.311-2.599-0.734-4.722,2.758-5.083c1.65-0.17,3.344-0.799,3.076-2.851
			c-0.164-1.259-0.832-2.667-1.717-3.575c-1.455-1.494-3.125-2.491-2.031-5.145C320.951,310.829,322.439,310.258,324.182,311.026z
			 M348.17,318.535c-4.828-0.059-7.52,2.615-7.51,7.461c0.01,4.263,3.064,7.417,7.195,7.435c4.002,0.017,7.785-3.578,7.816-7.434
			C355.711,321.409,352.875,318.591,348.17,318.535z"/>
		<path fill="none" d="M256.156,302.001c7.07-0.247,12.477,5.781,12.658,12.482c0.165,6.136-6.742,12.891-12.744,12.676
			c-5.699-0.203-12.835-7.048-12.352-12.523C244.292,308.125,248.333,302.244,256.156,302.001z"/>
		<path fill="none" d="M378.65,397.46c-0.357-6.185,4.959-10.057,10.066-9.856c4.715,0.184,9.426,4.818,9.063,10.623
			c-0.316,5.043-5.055,9.904-10.012,9.239C382.268,406.729,378.24,403.756,378.65,397.46z"/>
		<path fill="none" d="M348.17,318.535c4.705,0.056,7.537,2.875,7.502,7.462c-0.033,3.854-3.813,7.449-7.816,7.434
			c-4.131-0.018-7.186-3.172-7.195-7.435C340.65,321.149,343.342,318.476,348.17,318.535z"/>
	</g>
</g>
</svg>
