<?xml version="1.0" encoding="utf-8"?>
<!-- Generator: Adobe Illustrator 16.0.3, SVG Export Plug-In . SVG Version: 6.00 Build 0)  -->
<!DOCTYPE svg PUBLIC "-//W3C//DTD SVG 1.1//EN" "http://www.w3.org/Graphics/SVG/1.1/DTD/svg11.dtd">
<svg version="1.1" id="Syringe_xA0_Image_1_" xmlns="http://www.w3.org/2000/svg" xmlns:xlink="http://www.w3.org/1999/xlink"
	 x="0px" y="0px" width="1200px" height="1000px" viewBox="0 0 1200 1000" enable-background="new 0 0 1200 1000"
	 xml:space="preserve">
<g>
	<g>
		<path fill="none" d="M1,1001c0-1.634,0-3.269,0-4.903C1,665.968,1.01,335.838,0.884,5.709C0.883,1.568,1.821,0.895,5.79,0.896
			C402.745,1.008,799.7,1.001,1196.655,0.981c2.599,0,4.483-0.574,4.481,3.673c-0.149,331.795-0.137,663.591-0.137,995.387
			c0,0.319,0,0.64,0,0.959C801.005,1001,401.051,1001,1,1001z M335.602,755.959c-5.617-5.542-10.374-10.416-15.344-15.062
			c-2.393-2.238-2.867-3.617-0.167-6.291c25.868-25.623,51.611-51.374,77.245-77.232c2.562-2.584,3.856-2.419,6.237,0.038
			c8.464,8.735,17.237,17.172,25.695,25.913c2.322,2.4,3.683,2.363,5.854-0.075c3.208-3.603,6.797-6.864,10.207-10.288
			c5.759-5.781,5.847-5.883-0.009-11.628c-2.215-2.174-2.585-3.425-0.118-5.862c31.198-30.835,62.302-61.765,93.371-92.73
			c32.089-31.983,64.138-64.009,96.159-96.06c31.137-31.165,62.233-62.369,93.279-93.625c1.803-1.815,2.842-2.116,4.667-0.114
			c3.141,3.444,6.554,6.641,9.853,9.939c7.777,7.778,7.665,7.663,15.396,0.062c2.383-2.343,2.385-3.641,0.043-5.916
			c-8.367-8.127-16.554-16.439-24.787-24.703c-2.584-2.594-7.188-5.325-7.1-7.864c0.101-2.904,4.206-5.868,6.932-8.421
			c2.074-1.942,1.515-3.062-0.184-4.682c-3.366-3.209-6.396-6.797-9.938-9.787c-2.778-2.345-2.137-3.759,0.128-5.875
			c5.467-5.107,10.743-10.42,16.532-16.076c-2.483-2.277-4.433-4.31-6.631-6.021c-3.168-2.468-2.668-4.325,0.052-6.979
			c15.456-15.082,30.811-30.269,46.071-45.547c44.47-44.521,88.869-89.111,133.315-133.655
			c18.987-19.029,38.021-38.013,57.354-57.335c-4.431-0.406-8.37-0.612-12.259-1.17c-3.251-0.467-5.545,0.466-7.922,2.847
			c-31.805,31.857-63.778,63.547-95.602,95.387c-41.652,41.674-83.204,83.448-124.815,125.163c-2.688,2.696-5.389,7.112-8.322,7.317
			c-2.631,0.185-5.672-4.251-8.376-6.813c-1.636-1.551-2.788-1.827-4.484-0.004c-3.404,3.657-7.033,7.105-10.568,10.64
			c-6.309,6.308-6.309,6.308-12.498,0.074c-7.496-7.55-7.593-7.646-15.233-0.076c-2.217,2.196-3.373,2.125-5.51-0.064
			c-9.658-9.899-19.508-19.612-29.289-29.393c-7.856-7.856-7.745-7.745-15.724,0.224c-2.342,2.339-1.881,3.521,0.192,5.525
			c6.59,6.368,12.899,13.028,19.54,19.342c2.27,2.156,2.18,3.454,0.064,5.56c-31.548,31.402-63.036,62.864-94.539,94.312
			c-33.002,32.946-66.033,65.862-98.997,98.847c-29.711,29.729-59.355,59.524-88.998,89.322c-1.825,1.836-3.396,2.579-5.121,0.043
			c-1.896-2.789-3.47-1.916-5.42,0.145c-4.35,4.598-8.768,9.153-13.443,13.413c-2.527,2.303-2.18,3.614,0.101,5.818
			c8.027,7.759,15.776,15.805,23.776,23.591c2.301,2.239,2.644,3.766,0.021,6.01c-2.892,2.475-5.39,5.408-8.092,8.107
			c-23.04,23.01-46.154,45.946-69.048,69.1c-2.93,2.964-4.461,2.742-7.009-0.095c-3.554-3.956-7.635-7.438-11.216-11.371
			c-2.304-2.532-3.778-2.123-5.968,0.158c-7.729,8.05-15.542,16.024-23.554,23.792c-2.571,2.492-2.955,3.811-0.092,6.528
			c10.142,9.629,19.951,19.608,29.891,29.45c13.719,13.584,27.439,27.166,41.169,40.738c1.448,1.433,2.41,3.427,5.022,0.799
			C316.542,774.141,325.996,765.235,335.602,755.959z"/>
		<path fill-rule="evenodd" clip-rule="evenodd" d="M335.602,755.959c-9.605,9.276-19.06,18.182-28.212,27.387
			c-2.612,2.628-3.574,0.634-5.022-0.799c-13.729-13.572-27.45-27.154-41.169-40.738c-9.94-9.842-19.749-19.821-29.891-29.45
			c-2.862-2.718-2.479-4.036,0.092-6.528c8.011-7.768,15.825-15.742,23.554-23.792c2.19-2.281,3.664-2.69,5.968-0.158
			c3.581,3.934,7.663,7.415,11.216,11.371c2.548,2.837,4.079,3.059,7.009,0.095c22.895-23.153,46.008-46.09,69.048-69.1
			c2.702-2.699,5.2-5.633,8.092-8.107c2.622-2.244,2.279-3.771-0.021-6.01c-8-7.786-15.749-15.832-23.776-23.591
			c-2.28-2.204-2.628-3.516-0.101-5.818c4.676-4.26,9.094-8.815,13.443-13.413c1.95-2.061,3.523-2.934,5.42-0.145
			c1.725,2.536,3.296,1.793,5.121-0.043c29.643-29.798,59.287-59.594,88.998-89.322c32.964-32.984,65.995-65.9,98.997-98.847
			c31.503-31.448,62.991-62.91,94.539-94.312c2.115-2.105,2.205-3.403-0.064-5.56c-6.641-6.313-12.95-12.974-19.54-19.342
			c-2.073-2.004-2.534-3.187-0.192-5.525c7.979-7.969,7.867-8.08,15.724-0.224c9.781,9.78,19.631,19.493,29.289,29.393
			c2.137,2.189,3.293,2.261,5.51,0.064c7.641-7.57,7.737-7.474,15.233,0.076c6.189,6.233,6.189,6.233,12.498-0.074
			c3.535-3.534,7.164-6.982,10.568-10.64c1.696-1.823,2.849-1.547,4.484,0.004c2.704,2.562,5.745,6.998,8.376,6.813
			c2.934-0.205,5.634-4.621,8.322-7.317c41.611-41.715,83.163-83.489,124.815-125.163c31.823-31.84,63.797-63.529,95.602-95.387
			c2.377-2.381,4.671-3.313,7.922-2.847c3.889,0.558,7.828,0.764,12.259,1.17c-19.332,19.322-38.366,38.306-57.354,57.335
			c-44.446,44.544-88.846,89.135-133.315,133.655c-15.261,15.278-30.615,30.465-46.071,45.547c-2.72,2.654-3.22,4.512-0.052,6.979
			c2.198,1.712,4.147,3.744,6.631,6.021c-5.789,5.656-11.065,10.969-16.532,16.076c-2.265,2.116-2.906,3.53-0.128,5.875
			c3.542,2.99,6.572,6.578,9.938,9.787c1.698,1.619,2.258,2.739,0.184,4.682c-2.726,2.553-6.831,5.517-6.932,8.421
			c-0.088,2.539,4.516,5.271,7.1,7.864c8.233,8.264,16.42,16.576,24.787,24.703c2.342,2.275,2.34,3.573-0.043,5.916
			c-7.73,7.602-7.618,7.717-15.396-0.062c-3.299-3.299-6.712-6.495-9.853-9.939c-1.825-2.002-2.864-1.701-4.667,0.114
			c-31.046,31.256-62.143,62.46-93.279,93.625c-32.021,32.051-64.07,64.076-96.159,96.06c-31.069,30.966-62.173,61.896-93.371,92.73
			c-2.467,2.438-2.097,3.688,0.118,5.862c5.855,5.745,5.768,5.847,0.009,11.628c-3.41,3.424-6.999,6.686-10.207,10.288
			c-2.171,2.438-3.531,2.476-5.854,0.075c-8.458-8.741-17.231-17.178-25.695-25.913c-2.381-2.457-3.675-2.622-6.237-0.038
			c-25.634,25.858-51.377,51.609-77.245,77.232c-2.7,2.674-2.226,4.053,0.167,6.291
			C325.228,745.543,329.984,750.417,335.602,755.959z M578.409,457.434c-0.939-1.088-1.663-1.99-2.453-2.83
			c-5.022-5.339-10.306-10.457-15.008-16.063c-3.219-3.838-5.024-3.896-8.711-0.166c-30.133,30.485-60.535,60.703-90.854,91.004
			c-23.514,23.498-47.006,47.018-70.565,70.47c-2.261,2.25-3.648,3.739-0.434,6.618c5.701,5.104,11.095,10.587,16.267,16.232
			c2.831,3.09,4.349,2.82,7.263-0.121c26.062-26.302,52.339-52.388,78.521-78.569c27.951-27.949,55.87-55.93,83.79-83.91
			C577.003,459.318,577.633,458.389,578.409,457.434z M378.291,593.844c1.152-1.078,2.234-2.032,3.252-3.049
			c39.234-39.194,78.463-78.395,117.689-117.596c15.036-15.025,29.993-30.129,45.161-45.021c2.798-2.746,2.938-4.482,0.037-7.062
			c-2.854-2.535-5.566-5.316-7.895-8.334c-2.652-3.439-4.391-2.918-7.261-0.023c-24.732,24.945-49.609,49.746-74.481,74.552
			C425.023,517,395.222,546.658,365.4,576.297c-1.678,1.668-2.355,2.897-0.253,4.842c3.788,3.504,7.334,7.269,10.999,10.906
			C376.723,592.617,377.393,593.096,378.291,593.844z M433.314,648.818c1.447-1.325,2.82-2.482,4.082-3.751
			c30.908-31.09,61.78-62.214,92.71-93.281c20.332-20.423,40.761-40.75,61.102-61.165c3.139-3.149,8.406-6.552,8.388-9.813
			c-0.019-3.35-5.453-6.555-8.251-10.037c-2.512-3.128-4.109-3.353-7.253-0.194c-51.25,51.482-102.667,102.799-154.038,154.16
			c-11.632,11.629-11.618,11.644,1.17,22.396C431.847,647.656,432.489,648.154,433.314,648.818z M390.984,645.178
			c-0.79-0.893-1.303-1.536-1.88-2.115c-6.114-6.13-12.338-12.154-18.31-18.419c-2.336-2.451-3.706-0.962-5.25,0.582
			c-26.068,26.082-52.097,52.204-78.235,78.217c-1.994,1.983-1.742,3.094,0.027,4.814c6.078,5.91,12.116,11.864,18.065,17.904
			c1.736,1.763,2.887,2.04,4.818,0.099c26.218-26.359,52.515-52.641,78.788-78.945C389.665,646.657,390.272,645.949,390.984,645.178
			z M720.352,362.83c0.084-0.508,0.169-1.015,0.254-1.522c-0.864-0.984-1.674-2.022-2.599-2.944
			c-10.851-10.809-21.743-21.576-32.574-32.403c-10.719-10.716-21.447-21.425-32.014-32.29c-2.166-2.229-3.282-2.109-5.42,0.038
			c-31.059,31.205-62.194,62.334-93.384,93.408c-2.21,2.202-1.312,3.683,0.705,4.521c0.862,0.357,2.705-0.771,3.677-1.679
			c13.507-12.617,27.365-24.897,40.281-38.098c15.715-16.062,30.668-32.872,45.827-49.471c2.44-2.672,3.98-3.055,6.592-0.152
			c8.683,9.651,17.123,19.604,26.578,28.459c11.89,11.136,24.643,21.355,37.179,31.784
			C716.477,363.332,718.69,362.748,720.352,362.83z"/>
		<path fill-rule="evenodd" clip-rule="evenodd" fill="none" d="M578.409,457.434c-0.776,0.955-1.406,1.885-2.185,2.664
			c-27.92,27.98-55.839,55.961-83.79,83.91c-26.183,26.182-52.46,52.268-78.521,78.569c-2.914,2.941-4.432,3.211-7.263,0.121
			c-5.172-5.646-10.565-11.128-16.267-16.232c-3.215-2.879-1.827-4.368,0.434-6.618c23.56-23.452,47.052-46.972,70.565-70.47
			c30.319-30.301,60.722-60.519,90.854-91.004c3.687-3.729,5.492-3.672,8.711,0.166c4.702,5.606,9.985,10.725,15.008,16.063
			C576.746,455.443,577.47,456.346,578.409,457.434z"/>
		<path fill-rule="evenodd" clip-rule="evenodd" fill="none" d="M378.291,593.844c-0.898-0.748-1.568-1.227-2.145-1.799
			c-3.665-3.638-7.211-7.402-10.999-10.906c-2.103-1.944-1.425-3.174,0.253-4.842c29.821-29.639,59.623-59.297,89.394-88.985
			c24.872-24.806,49.749-49.606,74.481-74.552c2.87-2.895,4.608-3.416,7.261,0.023c2.328,3.018,5.041,5.799,7.895,8.334
			c2.901,2.579,2.761,4.315-0.037,7.062c-15.168,14.892-30.125,29.995-45.161,45.021c-39.227,39.201-78.455,78.401-117.689,117.596
			C380.525,591.812,379.443,592.766,378.291,593.844z"/>
		<path fill-rule="evenodd" clip-rule="evenodd" fill="none" d="M433.314,648.818c-0.825-0.664-1.468-1.162-2.091-1.686
			c-12.788-10.753-12.802-10.768-1.17-22.396c51.371-51.361,102.788-102.678,154.038-154.16c3.144-3.158,4.741-2.934,7.253,0.194
			c2.798,3.482,8.232,6.688,8.251,10.037c0.019,3.262-5.249,6.664-8.388,9.813c-20.341,20.415-40.77,40.742-61.102,61.165
			c-30.93,31.067-61.802,62.191-92.71,93.281C436.135,646.336,434.762,647.493,433.314,648.818z"/>
		<path fill-rule="evenodd" clip-rule="evenodd" fill="none" d="M390.984,645.178c-0.712,0.771-1.319,1.479-1.977,2.137
			c-26.273,26.305-52.57,52.586-78.788,78.945c-1.931,1.941-3.082,1.664-4.818-0.099c-5.949-6.04-11.987-11.994-18.065-17.904
			c-1.769-1.721-2.021-2.831-0.027-4.814c26.138-26.013,52.167-52.135,78.235-78.217c1.544-1.544,2.914-3.033,5.25-0.582
			c5.972,6.265,12.195,12.289,18.31,18.419C389.682,643.642,390.194,644.285,390.984,645.178z"/>
		<path fill-rule="evenodd" clip-rule="evenodd" fill="none" d="M720.352,362.83c-1.661-0.082-3.875,0.502-4.897-0.349
			c-12.536-10.429-25.289-20.648-37.179-31.784c-9.455-8.854-17.896-18.808-26.578-28.459c-2.611-2.902-4.151-2.52-6.592,0.152
			c-15.159,16.599-30.112,33.409-45.827,49.471c-12.916,13.2-26.774,25.48-40.281,38.098c-0.972,0.908-2.814,2.036-3.677,1.679
			c-2.018-0.839-2.915-2.319-0.705-4.521c31.189-31.074,62.325-62.203,93.384-93.408c2.138-2.147,3.254-2.267,5.42-0.038
			c10.566,10.865,21.295,21.574,32.014,32.29c10.831,10.827,21.724,21.595,32.574,32.403c0.925,0.922,1.734,1.96,2.599,2.944
			C720.521,361.815,720.436,362.322,720.352,362.83z"/>
	</g>
</g>
</svg>
