<?xml version="1.0" encoding="utf-8"?>
<!-- Generator: Adobe Illustrator 16.0.0, SVG Export Plug-In . SVG Version: 6.00 Build 0)  -->
<!DOCTYPE svg PUBLIC "-//W3C//DTD SVG 1.1//EN" "http://www.w3.org/Graphics/SVG/1.1/DTD/svg11.dtd">
<svg version="1.1" id="Layer_1" xmlns="http://www.w3.org/2000/svg" xmlns:xlink="http://www.w3.org/1999/xlink" x="0px" y="0px"
	 width="599.925px" height="914.45px" viewBox="0 -114.55 599.925 914.45" enable-background="new 0 -114.55 599.925 914.45"
	 xml:space="preserve">
<g>
	<g>
		<path fill="none" d="M382.953,1c72.99,0,145.98,0,218.973,0c0,266.966,0,533.933,0,800.899c-200.309,0-400.617,0-600.925,0
			C1,534.933,1,267.966,1,1c87.656,0,175.311,0,262.967,0c-0.097,6.736-0.582,13.426-0.234,20.22
			c0.642,12.551,1.712,25.03,3.174,37.501c1.472,12.577,3.556,25.042,5.861,37.487c2.785,15.028,6.225,29.895,10.284,44.625
			c-0.972,2.219-2.919,1.079-4.361,1.085c-22.491,0.079-44.983,0.101-67.475,0.004c-3.208-0.014-5.692,0.903-7.929,3.172
			c-2.36,2.394-2.337,5.259-2.337,8.261c0.018,169.772,0.016,339.544,0.016,509.317c0,0.5-0.005,0.999,0,1.499
			c0.062,6.023,3.791,9.747,9.877,9.747c69.308,0.01,138.616,0.01,207.924,0.002c6.676,0,10.184-3.614,10.188-10.438
			c0.006-20.992,0.002-41.985,0.002-62.979c0-148.946,0-297.893,0-446.838c0-8.587-3.037-11.691-11.438-11.692
			c-19.826-0.003-39.65-0.005-59.479-0.008c1.898-5.248,3.877-10.468,5.684-15.746c4.951-14.457,9.066-29.134,12.492-44.042
			c5.148-22.402,8.738-44.955,8.298-68C384.43,9.777,383.494,5.392,382.953,1z"/>
		<path fill="none" d="M373.137,3.955c-0.206-0.954-0.13-1.969-0.185-2.955h-0.271c0.372,3.128,0.494,6.283,0.292,9.45
			c-0.197,3.094-1.069,6.02-2.486,8.569c-1.858,4.846-5.71,8.76-11.369,10.316c-6.928,1.905-15.252-1.046-19.325-7.04
			c-5.283-4.255-8.562-12.36-6.407-18.962c-0.176-0.412-0.385-0.894-0.543-1.261c-0.164-0.36-0.343-0.714-0.51-1.073h-65.366
			c-0.515,13.079,0.906,25.992,2.504,38.971c1.773,14.409,4.33,28.643,7.475,42.766c3.11,13.973,6.885,27.8,10.504,41.655
			c1.245,4.762,2.917,9.412,4.331,14.131c0.229,0.764,0.126,1.628,0.176,2.446c0.692,1.869,2.282,0.958,3.426,0.962
			c17.152,0.063,34.304,0.037,51.457,0.053c1.826,0.002,3.652,0.13,5.479,0.199c4.879-12.214,8.676-24.784,11.62-37.574
			c2.954-12.817,5.633-25.714,7.858-38.674c1.388-8.089,1.804-16.352,2.481-24.551c0.447-5.417,0.697-10.857,0.831-16.292
			C375.283,17.98,374.647,10.924,373.137,3.955z"/>
		<path fill="#070707" d="M352.316,142.182c4.879-12.213,8.676-24.784,11.62-37.574c2.954-12.817,5.634-25.713,7.858-38.674
			c1.389-8.089,1.805-16.352,2.481-24.551c0.447-5.417,0.697-10.857,0.831-16.292c0.176-7.112-0.462-14.168-1.973-21.137
			c-0.205-0.953-0.129-1.968-0.184-2.955c3.334,0,6.666,0,10,0c0.541,4.392,1.478,8.777,1.562,13.178
			c0.44,23.045-3.149,45.597-8.298,68c-3.426,14.908-7.541,29.586-12.492,44.042c-1.807,5.278-3.784,10.499-5.684,15.746
			c-1.849,4.163-3.494,8.432-5.586,12.468c-4.06,7.825-8.369,15.52-12.574,23.268c-1.733,2.188-3.426,4.411-5.209,6.558
			c-3.838,4.622-8.07,8.79-13.674,11.264c-5.816,2.567-9.922,1.928-14.416-2.67c-2.177-2.226-4.18-4.757-5.689-7.469
			c-3.035-5.451-5.68-11.121-8.485-16.699c-0.1-0.307-0.383-0.754-0.271-0.899c2.208-2.897,4.381-5.86,8.248-6.728
			c2.478,7.069,5.942,13.619,10.393,19.64c0.883,1.195,1.809,2.395,2.898,3.392c4.234,3.871,8.797,4.26,13.58,1.119
			c4.979-3.267,8.375-7.922,11.102-13.12C344.541,162.835,348.513,152.548,352.316,142.182z"/>
		<path fill="#090909" d="M266.967,1c-0.515,13.079,0.906,25.992,2.503,38.97c1.773,14.409,4.33,28.644,7.475,42.766
			c3.111,13.973,6.886,27.799,10.504,41.655c1.244,4.762,2.917,9.412,4.331,14.131c0.229,0.765,0.126,1.628,0.176,2.446
			c-2.968-0.045-5.936-0.09-8.904-0.135c-4.059-14.729-7.499-29.596-10.284-44.625c-2.305-12.446-4.389-24.911-5.861-37.487
			c-1.462-12.471-2.532-24.95-3.174-37.501c-0.348-6.794,0.138-13.484,0.234-20.22C264.967,1,265.967,1,266.967,1z"/>
		<path fill="#D5D4D4" d="M283.051,140.833c2.969,0.045,5.936,0.09,8.904,0.135c0.692,1.869,2.283,0.958,3.426,0.962
			c17.152,0.063,34.304,0.037,51.457,0.053c1.824,0.002,3.65,0.13,5.479,0.199c-3.804,10.367-7.775,20.653-13.961,29.908
			c-2.355-2.427-4.525-5.074-7.107-7.23c-4.158-3.478-8.896-5.733-14.521-5.919c-5.587-0.187-11.056,0.168-16.345,2.119
			c-3.866,0.868-6.039,3.831-8.248,6.728c-0.111,0.146,0.172,0.593,0.271,0.899c-0.556,0.345-1.284,0.563-1.642,1.052
			c-5.289,7.258-6.572,15.825-4.252,23.872c5.123,17.771,18.575,22.63,33.809,19.999c9.504-1.64,16.098-8.402,19.551-17.547
			c2.021-5.351,1.104-11.042,0.834-16.606c-0.029-0.597-0.539-1.17-0.826-1.754c4.207-7.748,8.517-15.442,12.574-23.268
			c2.094-4.036,3.738-8.305,5.586-12.468c19.828,0.003,39.652,0.005,59.479,0.008c8.4,0.001,11.438,3.105,11.438,11.692
			c0,148.946,0,297.892,0,446.838c0,20.992,0.006,41.985-0.002,62.979c-0.002,6.823-3.512,10.438-10.186,10.438
			c-69.309,0.008-138.617,0.008-207.925-0.002c-6.086,0-9.815-3.724-9.877-9.747c-0.005-0.5,0-0.999,0-1.499
			c0-169.771,0.002-339.544-0.016-509.317c0-3.002-0.023-5.867,2.337-8.261c2.237-2.27,4.721-3.186,7.929-3.172
			c22.491,0.097,44.983,0.075,67.475-0.004C280.132,141.912,282.079,143.052,283.051,140.833z"/>
		<path fill="none" d="M339.88,177.701c0.285,0.584,0.795,1.157,0.824,1.754c0.271,5.564,1.188,11.255-0.832,16.606
			c-3.455,9.145-10.047,15.907-19.552,17.547c-15.233,2.631-28.686-2.227-33.809-19.999c-2.32-8.047-1.037-16.614,4.252-23.872
			c0.357-0.489,1.086-0.708,1.642-1.052c2.805,5.578,5.45,11.248,8.485,16.699c1.511,2.712,3.515,5.243,5.69,7.469
			c4.492,4.598,8.599,5.237,14.414,2.67c5.604-2.475,9.838-6.643,13.674-11.264C336.455,182.112,338.146,179.89,339.88,177.701z"/>
		<path fill="none" d="M300.383,161.059c5.289-1.951,10.758-2.306,16.345-2.119c5.623,0.187,10.361,2.441,14.521,5.919
			c2.58,2.157,4.752,4.804,7.106,7.23c-2.728,5.198-6.123,9.853-11.103,13.12c-4.782,3.142-9.344,2.752-13.578-1.119
			c-1.092-0.997-2.018-2.197-2.899-3.392C306.326,174.678,302.86,168.128,300.383,161.059z"/>
	</g>
</g>
<text transform="matrix(1 0 0 1 205.5889 268.5947)" font-family="'BodoniMT'" font-size="72">Human </text>
<text transform="matrix(1 0 0 1 235.5889 312.0928)" font-family="'BodoniMT'" font-size="36">Trafficking</text>
<rect x="201.091" y="329.341" width="227.659" height="7.5"/>
<text transform="matrix(1 0 0 1 284.0908 655.5781)" font-family="'BodoniMT'" font-size="60">90</text>
<text transform="matrix(1 0 0 1 255.0879 643.5762)" font-family="'BodoniMT'" font-size="42.53">$</text>
<text transform="matrix(1 0 0 1 345.5894 627.0771)" font-family="'BodoniMT'" font-size="33.48">00</text>
<rect x="345.001" y="628.417" width="35.416" height="2.583"/>
<rect x="202" y="567.333" width="33.589" height="4"/>
<rect x="395" y="567.333" width="33.59" height="4"/>
<rect x="349" y="567.333" width="33.59" height="4"/>
<rect x="304" y="567.333" width="33.59" height="4"/>
<rect x="254" y="567.333" width="33.589" height="4"/>
<text transform="matrix(1 0 0 1 203.9619 438.668)" font-family="'BodoniMT'" font-size="28">AGE:</text>
<text transform="matrix(1 0 0 1 273.0884 438.668)" font-family="'BodoniMT'" font-size="21" letter-spacing="29"> </text>
<text transform="matrix(1 0 0 1 345.5894 438.668)" font-family="'BodoniMT'" font-size="28">11</text>
<text transform="matrix(1 0 0 1 203.9619 486.001)" font-family="'BodoniMT'" font-size="28">GENDER:</text>
<text transform="matrix(1 0 0 1 301.7114 486.001)" font-family="'BodoniMT'" font-size="21" letter-spacing="4"> </text>
<text transform="matrix(1 0 0 1 345.0015 486.001)" font-family="'BodoniMT'" font-size="28">MALE</text>
<text transform="matrix(1 0 0 1 203.9619 535.334)" font-family="'BodoniMT'" font-size="28">SIZE:</text>
<text transform="matrix(1 0 0 1 268.5103 535.334)" font-family="'BodoniMT'" font-size="21" letter-spacing="12"> </text>
<text transform="matrix(1 0 0 1 287.3335 535.334)" font-family="'BodoniMT'" font-size="21" letter-spacing="29"> </text>
<text transform="matrix(1 0 0 1 345.0015 535.334)" font-family="'BodoniMT'" font-size="28">5’3”</text>
<path stroke="#000000" stroke-miterlimit="10" d="M345.589-87.55c-12.127-27-67.118,2.1-81.623,88.55h3
	c0,0,14.186-49.146,30.245-66.749c0.766-1.479,1.722-2.889,2.869-4.183c1.639-1.849,3.528-3.455,5.575-4.832
	c2.456-3.891,6.384-6.784,10.962-7.844c0.393-0.171,0.79-0.332,1.196-0.474c2.78-1.875,6.103-2.979,9.648-2.979
	c7.935,0,14.758,5.51,16.836,12.852c3.999,3.231,6.572,8.181,6.675,13.659c0.01,0.47,0.035,0.936,0.063,1.4
	c0.044,0.188,0.098,0.371,0.137,0.56c0.01,0.048,0.016,0.096,0.024,0.144c1.608,1.718,2.876,3.749,3.699,5.985
	c1.428,1.862,2.787,3.773,3.964,5.775c3.116,5.3,5.336,11.682,7.613,17.352c3.073,7.654,5.518,16.496,5.528,25.084
	c0.244,1.269,0.46,2.542,0.622,3.822c0.212,0.275,0.327,0.426,0.327,0.426h10C382.951,0.999,357.716-60.55,345.589-87.55z"/>
</svg>
