<?xml version="1.0" encoding="utf-8"?>
<!-- Generator: Adobe Illustrator 16.0.0, SVG Export Plug-In . SVG Version: 6.00 Build 0)  -->
<!DOCTYPE svg PUBLIC "-//W3C//DTD SVG 1.1//EN" "http://www.w3.org/Graphics/SVG/1.1/DTD/svg11.dtd">
<svg version="1.1" id="Layer_1" xmlns="http://www.w3.org/2000/svg" xmlns:xlink="http://www.w3.org/1999/xlink" x="0px" y="0px"
	 width="599.925px" height="937.45px" viewBox="0 -137.55 599.925 937.45" enable-background="new 0 -137.55 599.925 937.45"
	 xml:space="preserve">
<g>
	<g>
		<path fill="none" d="M382.953,1c72.99,0,145.98,0,218.973,0c0,266.966,0,533.933,0,800.899c-200.309,0-400.617,0-600.925,0
			C1,534.933,1,267.966,1,1c87.656,0,175.311,0,262.967,0c-0.097,6.736-0.582,13.426-0.234,20.22
			c0.642,12.551,1.712,25.03,3.174,37.501c1.472,12.577,3.556,25.042,5.861,37.487c2.785,15.028,6.225,29.895,10.284,44.625
			c-0.972,2.219-2.919,1.079-4.361,1.085c-22.491,0.079-44.983,0.101-67.475,0.004c-3.208-0.014-5.692,0.903-7.929,3.172
			c-2.36,2.394-2.337,5.259-2.337,8.261c0.018,169.772,0.016,339.544,0.016,509.317c0,0.5-0.005,0.999,0,1.499
			c0.062,6.023,3.791,9.747,9.877,9.747c69.308,0.01,138.616,0.01,207.924,0.002c6.676,0,10.184-3.614,10.188-10.438
			c0.006-20.992,0.002-41.985,0.002-62.979c0-148.946,0-297.893,0-446.838c0-8.587-3.037-11.691-11.438-11.692
			c-19.826-0.003-39.65-0.005-59.479-0.008c1.898-5.248,3.877-10.468,5.684-15.746c4.951-14.457,9.066-29.134,12.492-44.042
			c5.148-22.402,8.738-44.955,8.298-68C384.43,9.777,383.494,5.392,382.953,1z"/>
		<path fill="none" d="M373.137,3.955c-0.206-0.954-0.13-1.969-0.185-2.955h-1.233c1.655,12.814,0.479,25.892-6.137,37.288
			c-4.785,8.241-15.743,11.094-23.958,6.282c-8.246-4.831-11.076-15.7-6.282-23.958c0.292-0.503,0.58-1.009,0.854-1.522
			c0.033-0.093,0.061-0.169,0.1-0.278c0.15-0.494,0.288-0.993,0.425-1.491c-2.932-3.141-4.765-7.315-4.77-11.871
			c-0.002-1.189-0.015-2.38-0.029-3.57c-1.404-0.017-2.793-0.181-4.115-0.544c-0.353-0.097-0.682-0.221-1.019-0.335h-19.995
			c3.604,6.629,2.567,15.315-2.949,20.832c-6.793,6.793-17.956,6.682-24.764,0C273.107,15.97,270.173,8.713,269.041,1h-2.074
			c-0.515,13.079,0.906,25.992,2.504,38.971c1.773,14.409,4.33,28.643,7.475,42.766c3.11,13.973,6.885,27.8,10.504,41.655
			c1.245,4.762,2.917,9.412,4.331,14.131c0.229,0.764,0.126,1.628,0.176,2.446c0.692,1.869,2.282,0.958,3.426,0.962
			c17.152,0.063,34.304,0.037,51.457,0.053c1.826,0.002,3.652,0.13,5.479,0.199c4.879-12.214,8.676-24.784,11.62-37.574
			c2.954-12.817,5.633-25.714,7.858-38.674c1.388-8.089,1.804-16.352,2.481-24.551c0.447-5.417,0.697-10.857,0.831-16.292
			C375.283,17.98,374.647,10.924,373.137,3.955z"/>
		<path fill="#070707" d="M352.316,142.182c4.879-12.213,8.676-24.784,11.62-37.574c2.954-12.817,5.634-25.713,7.858-38.674
			c1.389-8.089,1.805-16.352,2.481-24.551c0.447-5.417,0.697-10.857,0.831-16.292c0.176-7.112-0.462-14.168-1.973-21.137
			c-0.205-0.953-0.129-1.968-0.184-2.955c3.334,0,6.666,0,10,0c0.541,4.392,1.478,8.777,1.562,13.178
			c0.44,23.045-3.149,45.597-8.298,68c-3.426,14.908-7.541,29.586-12.492,44.042c-1.807,5.278-3.784,10.499-5.684,15.746
			c-1.849,4.163-3.494,8.432-5.586,12.468c-4.06,7.825-8.369,15.52-12.574,23.268c-1.733,2.188-3.426,4.411-5.209,6.558
			c-3.838,4.622-8.07,8.79-13.674,11.264c-5.816,2.567-9.922,1.928-14.416-2.67c-2.177-2.226-4.18-4.757-5.689-7.469
			c-3.035-5.451-5.68-11.121-8.485-16.699c-0.1-0.307-0.383-0.754-0.271-0.899c2.208-2.897,4.381-5.86,8.248-6.728
			c2.478,7.069,5.942,13.619,10.393,19.64c0.883,1.195,1.809,2.395,2.898,3.392c4.234,3.871,8.797,4.26,13.58,1.119
			c4.979-3.267,8.375-7.922,11.102-13.12C344.541,162.835,348.513,152.548,352.316,142.182z"/>
		<path fill="#090909" d="M266.967,1c-0.515,13.079,0.906,25.992,2.503,38.97c1.773,14.409,4.33,28.644,7.475,42.766
			c3.111,13.973,6.886,27.799,10.504,41.655c1.244,4.762,2.917,9.412,4.331,14.131c0.229,0.765,0.126,1.628,0.176,2.446
			c-2.968-0.045-5.936-0.09-8.904-0.135c-4.059-14.729-7.499-29.596-10.284-44.625c-2.305-12.446-4.389-24.911-5.861-37.487
			c-1.462-12.471-2.532-24.95-3.174-37.501c-0.348-6.794,0.138-13.484,0.234-20.22C264.967,1,265.967,1,266.967,1z"/>
		<path fill="#D5D4D4" d="M283.051,140.833c2.969,0.045,5.936,0.09,8.904,0.135c0.692,1.869,2.283,0.958,3.426,0.962
			c17.152,0.063,34.304,0.037,51.457,0.053c1.824,0.002,3.65,0.13,5.479,0.199c-3.804,10.367-7.775,20.653-13.961,29.908
			c-2.355-2.427-4.525-5.074-7.107-7.23c-4.158-3.478-8.896-5.733-14.521-5.919c-5.587-0.187-11.056,0.168-16.345,2.119
			c-3.866,0.868-6.039,3.831-8.248,6.728c-0.111,0.146,0.172,0.593,0.271,0.899c-0.556,0.345-1.284,0.563-1.642,1.052
			c-5.289,7.258-6.572,15.825-4.252,23.872c5.123,17.771,18.575,22.63,33.809,19.999c9.504-1.64,16.098-8.402,19.551-17.547
			c2.021-5.351,1.104-11.042,0.834-16.606c-0.029-0.597-0.539-1.17-0.826-1.754c4.207-7.748,8.517-15.442,12.574-23.268
			c2.094-4.036,3.738-8.305,5.586-12.468c19.828,0.003,39.652,0.005,59.479,0.008c8.4,0.001,11.438,3.105,11.438,11.692
			c0,148.946,0,297.892,0,446.838c0,20.992,0.006,41.985-0.002,62.979c-0.002,6.823-3.512,10.438-10.186,10.438
			c-69.309,0.008-138.617,0.008-207.925-0.002c-6.086,0-9.815-3.724-9.877-9.747c-0.005-0.5,0-0.999,0-1.499
			c0-169.771,0.002-339.544-0.016-509.317c0-3.002-0.023-5.867,2.337-8.261c2.237-2.27,4.721-3.186,7.929-3.172
			c22.491,0.097,44.983,0.075,67.475-0.004C280.132,141.912,282.079,143.052,283.051,140.833z"/>
		<path fill="none" d="M339.88,177.701c0.285,0.584,0.795,1.157,0.824,1.754c0.271,5.564,1.188,11.255-0.832,16.606
			c-3.455,9.145-10.047,15.907-19.552,17.547c-15.233,2.631-28.686-2.227-33.809-19.999c-2.32-8.047-1.037-16.614,4.252-23.872
			c0.357-0.489,1.086-0.708,1.642-1.052c2.805,5.578,5.45,11.248,8.485,16.699c1.511,2.712,3.515,5.243,5.69,7.469
			c4.492,4.598,8.599,5.237,14.414,2.67c5.604-2.475,9.838-6.643,13.674-11.264C336.455,182.112,338.146,179.89,339.88,177.701z"/>
		<path fill="none" d="M300.383,161.059c5.289-1.951,10.758-2.306,16.345-2.119c5.623,0.187,10.361,2.441,14.521,5.919
			c2.58,2.157,4.752,4.804,7.106,7.23c-2.728,5.198-6.123,9.853-11.103,13.12c-4.782,3.142-9.344,2.752-13.578-1.119
			c-1.092-0.997-2.018-2.197-2.899-3.392C306.326,174.678,302.86,168.128,300.383,161.059z"/>
	</g>
</g>
<text transform="matrix(1 0 0 1 205.5889 268.5947)" font-family="'BodoniMT'" font-size="72">Human </text>
<text transform="matrix(1 0 0 1 235.5889 312.0928)" font-family="'BodoniMT'" font-size="36">Trafficking</text>
<rect x="201.091" y="329.341" width="227.659" height="7.5"/>
<text transform="matrix(1 0 0 1 284.0908 655.5781)" font-family="'BodoniMT'" font-size="60">90</text>
<text transform="matrix(1 0 0 1 255.0879 643.5762)" font-family="'BodoniMT'" font-size="42.53">$</text>
<text transform="matrix(1 0 0 1 345.5894 627.0771)" font-family="'BodoniMT'" font-size="33.48">00</text>
<rect x="345.001" y="628.417" width="35.416" height="2.583"/>
<rect x="202" y="567.333" width="33.589" height="4"/>
<rect x="395" y="567.333" width="33.59" height="4"/>
<rect x="349" y="567.333" width="33.59" height="4"/>
<rect x="304" y="567.333" width="33.59" height="4"/>
<rect x="254" y="567.333" width="33.589" height="4"/>
<text transform="matrix(1 0 0 1 205.2759 438.668)" font-family="'BodoniMT'" font-size="28">AGE:</text>
<text transform="matrix(1 0 0 1 255.3662 438.668)" font-family="'BodoniMT'" font-size="21" letter-spacing="15"> </text>
<text transform="matrix(1 0 0 1 277.2764 438.668)" font-family="'BodoniMT'" font-size="21" letter-spacing="29"> </text>
<text transform="matrix(1 0 0 1 337.5894 438.668)" font-family="'BodoniMT'" font-size="28">14</text>
<text transform="matrix(1 0 0 1 205.2759 486.001)" font-family="'BodoniMT'" font-size="28">GENDER:</text>
<text transform="matrix(1 0 0 1 347.7495 486.001)" font-family="'BodoniMT'" font-size="21" letter-spacing="4"> </text>
<text transform="matrix(0.7319 0 0 1 337.5894 486.002)" font-family="'BodoniMT'" font-size="28">FEMALE</text>
<text transform="matrix(1 0 0 1 205.2759 535.334)" font-family="'BodoniMT'" font-size="28">SIZE:</text>
<text transform="matrix(1 0 0 1 268.5103 535.334)" font-family="'BodoniMT'" font-size="21" letter-spacing="12"> </text>
<text transform="matrix(1 0 0 1 287.3335 535.334)" font-family="'BodoniMT'" font-size="21" letter-spacing="29"> </text>
<text transform="matrix(1 0 0 1 338.356 535.334)" font-family="'BodoniMT'" font-size="28">5’3”</text>
<path stroke="#000000" stroke-miterlimit="10" d="M382.951,0.999c0,0-34.443-93.549-57.966-97.549s-39.882,0-47.202,20
	S263.967,1,263.967,1h3c0,0,0.544-2.273,1.536-6.063c-0.131-3.704,0.065-7.455,0.464-11.158c-0.002-0.11-0.015-0.218-0.015-0.329
	c0-1.612,0.244-3.173,0.668-4.664c0.167-1.099,0.347-2.189,0.538-3.269c0.058-0.325,0.118-0.655,0.176-0.981
	c0.044-7.522,1.304-15.105,2.881-21.591c1.706-7.012,4.138-14.257,7.801-20.521c0.114-2.619,0.839-5.273,2.326-7.813
	c3.101-5.293,9.327-8.713,15.484-8.738c0.896-0.438,1.812-0.86,2.76-1.26c15.875-6.69,32.151,3.884,39.467,17.85
	c0.087,0.167,0.168,0.336,0.254,0.504c2.136,1.412,3.975,3.294,5.275,5.645c0.688,1.244,1.303,2.501,1.852,3.771
	c1.55,2.307,3.038,4.668,4.458,7.079c4.304,5.352,7.353,11.92,9.487,19.013c1.834,4.38,3.477,8.814,4.906,13.254
	c1.572,4.883,2.896,9.974,3.802,15.143c0.66,1.396,1.284,2.773,1.863,4.127C384.325,27.601,382.951,0.999,382.951,0.999z"/>
</svg>
