<?xml version="1.0" encoding="utf-8"?>
<!-- Generator: Adobe Illustrator 16.0.0, SVG Export Plug-In . SVG Version: 6.00 Build 0)  -->
<!DOCTYPE svg PUBLIC "-//W3C//DTD SVG 1.1//EN" "http://www.w3.org/Graphics/SVG/1.1/DTD/svg11.dtd">
<svg version="1.1" id="Layer_1" xmlns="http://www.w3.org/2000/svg" xmlns:xlink="http://www.w3.org/1999/xlink" x="0px" y="0px"
	 width="735.409px" height="98.771px" viewBox="0 0 735.409 98.771" enable-background="new 0 0 735.409 98.771"
	 xml:space="preserve">
<g id="Layer_2_1_" display="none">
	<g display="inline">
		<g>
			<path fill="none" d="M61.34-5.483c21.737,0,43.473,0.014,65.21-0.035c1.194-0.002,1.417,0.219,1.413,1.413
				c-0.049,19.9-0.049,39.8,0,59.7c0.003,1.191-0.219,1.412-1.413,1.412c-43.473-0.041-86.947-0.041-130.42,0
				c-1.193,0-1.416-0.221-1.413-1.412c0.05-19.9,0.05-39.8,0-59.7C-5.285-5.298-5.063-5.52-3.87-5.518
				C17.866-5.469,39.603-5.483,61.34-5.483z M11.548,12.332c0.398-0.483,0.638-0.642,0.633-0.792
				c-0.015-0.397-0.136-0.791-0.214-1.186c-0.202,0.052-0.578,0.106-0.578,0.156c0.006,0.494,0.073,0.988,12.753,21.604
				c0,1.027-0.207,2.006,0.046,2.847c0.432,1.435,1.916,2.328,2.542,3.468c0.751,1.367-0.091,3.46,1.072,5.041
				c0.668,0.906,2.174,0.867,2.77-0.153c0.288-0.493,0.895-1.02,0.835-1.461c-0.379-2.849,1.755-4.486,2.906-6.624
				c0.859-1.595,1.198-3.471,1.769-5.221c-1.388-0.683-0.753-2.13-1.161-3.186c-0.663-1.716-1.121-3.517-1.578-5.304
				c-0.276-1.079,0.497-1.914,0.803-2.857c0.403-1.244,0.183-2.725,0.073-4.092c-0.094-1.185-1.252-1.459-2.362-0.707
				c-0.355,0.24-1.18,0.461-1.233,0.369c-0.442-0.764-1.969,0.036-1.918-1.423c0.03-0.859-0.22-1.729-0.344-2.595
				c-0.182,0.937-0.706,1.97-0.474,2.789c0.475,1.684-1.151,3.163-0.266,4.85c0.089,0.17-0.846,0.878-1.306,1.336
				c-1.723-1.996-3.088,0.816-4.697,0.351l-4.373-0.236c-0.432-1.044-1.025-2.058-1.227-3.144c-0.104-0.556,0.863-1.362,0.705-1.845
				c-0.436-1.33-1.105-2.619-1.888-3.787c-0.486-0.725-1.234-0.66-1.727,0.245c-0.236,0.434-0.805,0.767-0.867,1.197
				c-0.164,1.151,0.306,2.454-0.958,3.282c0.65,3.309-0.542,4.789-4.012,4.108C7.15,19.339,6.805,20,6.725,20.376
				c-0.044,0.209,0.215,0.672,0.392,0.702c0.59,0.103,1.243-0.055,1.795,0.124c0.267,0.086,0.445,0.688,0.501,1.081
				c0.03,0.21-0.242,0.624-0.448,0.678c-0.699,0.185-1.429,0.249-2.147,0.36c0.743,0.215,1.585,0.283,2.202,0.69
				c0.573,0.378,1.258,1.105,1.286,1.706c0.133,2.897,0.06,5.804,0.06,8.707c-1.751,1.303-0.785,2.803,0.428,3.074
				c1.957,0.438,1.805,1.996,1.202,2.514c-1.727,1.481,0.352,2.359,0.299,3.516c-0.007,0.166,1.23,0.543,1.877,0.514
				c0.28-0.014,0.689-0.786,0.751-1.252c0.12-0.901-0.039-1.838,0.064-2.743c0.057-0.499,0.287-1.109,0.652-1.421
				c3.102-2.646,3.207-2.933,2.085-6.69c-0.084-0.279,0.121-0.734-0.032-0.893c-1.465-1.526-0.768-3.407-0.868-5.143
				c-0.02-0.347,0.4-1.045,0.531-1.025c2.034,0.315,4.074-0.537,6.187,0.555c1.361,0.702,2.113,1.715,1.421,2.507
				C23.725,29.358,24.396,30.813,11.548,12.332z M45.267,26.931c0,0.307-0.001,0.613,0,0.918c0.024,4.431,1.63,6.952,5.259,10.176
				c2.345,2.083,5.667,3.832,4.933,8.059c-0.15,0.869,0.986,2.019,2.195,1.648c1.198-0.363,2.211-1.313,3.401-1.74
				c1.116-0.402,0.759-1.203,0.716-1.844c-0.11-1.637,0.664-2.38,2.167-2.821c1.84-0.541,3.625-1.027,5.597-0.937
				c1.675,0.076,2.883-1.118,4.157-2.13c1.203-0.956,0.939-2.123,0.96-3.297c0.023-1.224-0.043-2.449,0.018-3.67
				c0.069-1.358-0.218-2.559-0.89-3.772c-0.537-0.973-0.375-2.581-1.109-3.144c-1.496-1.15,1.096-2.146-0.274-3.379
				c-0.913-0.822-1.466-2.66-1.295-3.925c0.249-1.844-2.132-2.994-1.413-4.04c1.084-1.575-0.667-2.63-0.033-3.88
				c0.098-0.193,0.112-0.429,0.164-0.646c-2.161-0.092-1.563-1.703-1.584-2.932c-0.077-4.648-0.066-4.648-4.903-4.629
				c-0.153,0.001-0.312,0.028-0.458-0.004c-1.873-0.415-3.189,0.42-4.294,1.835c-1.271,1.625-2.549,3.248-3.9,4.805
				c-1.069,1.232-2.578,2.159-2.09,4.204c0.261,1.091-0.762,0.889-1.387,1.2c-1.664,0.83-3.265,1.71-3.899,3.781
				C46.285,20.099,45.237,23.4,45.267,26.931z M85.668,21.729c0.059,3.04-0.36,5.589,1.413,7.785
				c0.399,0.494,0.393,1.385,0.417,2.097c0.056,1.681,0.113,3.371-0.015,5.043c-0.091,1.212,0.288,2.43,1.267,2.628
				c2.472,0.499,2.463,2.103,2.477,4.027c0.016,2.023,0.793,2.642,2.714,2.642c1.918,0.002,2.673-0.701,2.752-2.634
				c0.055-1.328-0.482-2.562-0.715-3.784c-0.177-0.936,1.001-2.385,0.689-3.702c-0.484-2.04,1.022-3.66,0.989-5.589
				c-0.004-0.271,0.494-0.747,0.788-0.77c0.32-0.024,0.858,0.29,0.98,0.589c0.748,1.831,1.428,3.689,2.087,5.556
				c0.703,1.991,2.592,3.834,0.059,6.073c-1.07,0.946-0.195,4.304,0.808,4.888c2.533,1.479,6.178-0.477,6.249-3.385
				c0.029-1.166,0.356-2.458-0.906-3.287c0.34-2.459,0.676-4.917,1.032-7.372c0.018-0.122,0.207-0.216,0.312-0.326
				c2.215-2.328,2.388-5.228,2.34-8.207c-0.028-1.767,1.277-4.586,2.144-6.448c3.02-6.489,5.238-6.161,1.536-13.905
				c-0.241-0.503-0.069-1.31-0.413-1.637c-0.63-0.603-3.011,0.027-3.696,0.71c-0.992,0.986,0.42,1.426,0.556,2.145
				c0.173,0.911,0.734,1.769,0.829,2.853c0.287,3.286-1.179,5.854-2.849,8.48c-2.855,4.491-5.004,9.291-5.474,14.698
				c-0.062,0.715-0.252,1.421-0.383,2.13c-0.541-0.496-1.041-1.047-1.63-1.478c-1.35-0.985-1.928-2.248-1.658-3.911
				c0.155-0.95-0.333-1.608-0.848-2.411c-1.073-1.669-1.033-1.827-2.27-0.45c-0.764,0.85-1.26,1.938-1.991,2.823
				c-0.342,0.416-0.936,0.762-1.454,0.825c-0.207,0.025-0.671-0.773-0.754-1.244c-0.751-4.228-2.074-8.354-4.02-12.082
				c-1.169-2.24-1.186-4.689-2.351-6.85c-0.386-0.716-0.461-2.06,0.538-2.927c0.247-0.214,0.331-1.101,0.219-1.16
				c-0.492-0.257-1.281-0.621-1.604-0.406c-1.224,0.813-2.375,1.776-3.373,2.85c-0.14,0.151,0.86,1.185,1.073,1.888
				c0.25,0.832,0.218,1.748,0.309,2.628c0.123,1.171-0.156,2.642,0.448,3.458C86.074,16.996,85.578,19.659,85.668,21.729z"/>
			<path d="M45.267,26.931c-0.03-3.531,1.018-6.832,2.037-10.164c0.634-2.071,2.235-2.952,3.899-3.781
				c0.625-0.312,1.647-0.109,1.387-1.2c-0.488-2.045,1.021-2.972,2.09-4.204c1.351-1.557,2.629-3.18,3.9-4.805
				c1.105-1.415,2.421-2.25,4.294-1.835c0.146,0.032,0.305,0.005,0.458,0.004c4.837-0.019,4.826-0.019,4.903,4.629
				c0.021,1.229-0.577,2.84,1.584,2.932c-0.052,0.217-0.066,0.453-0.164,0.646c-0.634,1.25,1.118,2.305,0.033,3.88
				c-0.719,1.046,1.661,2.196,1.413,4.04c-0.17,1.265,0.382,3.103,1.295,3.925c1.37,1.233-1.222,2.229,0.274,3.379
				c0.734,0.563,0.572,2.171,1.109,3.144c0.672,1.213,0.959,2.414,0.89,3.772c-0.061,1.221,0.005,2.446-0.018,3.67
				c-0.021,1.174,0.242,2.341-0.96,3.297c-1.274,1.012-2.482,2.206-4.157,2.13c-1.972-0.091-3.756,0.396-5.597,0.937
				c-1.503,0.441-2.277,1.185-2.167,2.821c0.043,0.641,0.4,1.441-0.716,1.844c-1.19,0.428-2.203,1.377-3.401,1.74
				c-1.209,0.367-2.345-0.779-2.195-1.648c0.734-4.227-2.588-5.976-4.933-8.059c-3.629-3.224-5.235-5.745-5.259-10.176
				C45.266,27.544,45.267,27.238,45.267,26.931z M65.475,29.398c-0.041-2.347-0.577-4.691-0.716-6.949
				c-0.212-3.439-2.367-5.506-3.822-8.089c-0.427-0.757-1.511-0.939-1.797-0.107c-0.717,2.086-2.252,2.293-4.049,2.333
				c-0.523,0.012-1.43,0.246-1.494,0.529c-0.415,1.814-2.186,2.893-2.031,5.18c0.227,3.347,0.835,6.853-0.744,10.15
				c-0.26,0.543-0.088,1.164,0.883,1.65c2.292,1.146,4.344,2.766,6.528,4.138c1.189,0.746,2.895,0.46,4.034-0.558
				c3.206-2.863,3.206-2.863,3.206-7.362C65.473,30.009,65.473,29.703,65.475,29.398z M57.455,9.236
				c0.351-0.034,1.011,0.089,1.19-0.148c1.091-1.448,2.285-2.766,3.817-3.754c-0.185-0.238-0.359-0.668-0.554-0.677
				c-0.567-0.027-1.316-0.088-1.683,0.227c-1.256,1.078-2.387,2.303-3.542,3.495c-0.127,0.132-0.184,0.57-0.126,0.602
				C56.796,9.114,57.091,9.145,57.455,9.236z M66.391,5.051c-0.107-0.203-0.333-1.203-0.727-1.274
				c-1.511-0.274-1.037,0.99-1.104,1.784c-0.037,0.448-0.08,0.921,0.026,1.347c0.049,0.2,0.463,0.464,0.677,0.435
				c0.391-0.053,0.93-0.208,1.083-0.494C66.535,6.498,66.391,5.969,66.391,5.051z"/>
			<path d="M85.668,21.729c-0.09-2.07,0.406-4.733-1.378-7.15c-0.604-0.817-0.325-2.287-0.448-3.458
				c-0.091-0.88-0.059-1.796-0.309-2.628C83.32,7.789,82.32,6.755,82.46,6.604c0.998-1.074,2.149-2.036,3.373-2.85
				c0.323-0.214,1.112,0.149,1.604,0.406c0.112,0.06,0.028,0.946-0.219,1.16c-0.999,0.867-0.924,2.211-0.538,2.927
				c1.165,2.161,1.182,4.61,2.351,6.85c1.946,3.728,3.269,7.854,4.02,12.082c0.083,0.471,0.548,1.269,0.754,1.244
				c0.518-0.063,1.111-0.409,1.454-0.825c0.731-0.886,1.227-1.973,1.991-2.823c1.237-1.377,1.197-1.219,2.27,0.45
				c0.515,0.803,1.003,1.461,0.848,2.411c-0.271,1.663,0.308,2.925,1.658,3.911c0.589,0.431,1.089,0.981,1.63,1.478
				c0.131-0.709,0.321-1.415,0.383-2.13c0.47-5.407,2.619-10.207,5.474-14.698c1.67-2.626,3.136-5.194,2.849-8.48
				c-0.095-1.083-0.655-1.942-0.829-2.853c-0.136-0.718-1.548-1.159-0.556-2.145c0.686-0.683,3.066-1.313,3.696-0.71
				c0.344,0.327,0.171,1.133,0.413,1.637c3.702,7.744,1.483,7.416-1.536,13.905c-0.867,1.862-2.172,4.681-2.144,6.448
				c0.048,2.979-0.125,5.879-2.34,8.207c-0.105,0.11-0.294,0.204-0.312,0.326c-0.355,2.455-0.692,4.913-1.032,7.372
				c1.262,0.829,0.935,2.121,0.906,3.287c-0.071,2.908-3.716,4.863-6.249,3.385c-1.003-0.584-1.878-3.941-0.808-4.888
				c2.534-2.239,0.645-4.082-0.059-6.073c-0.659-1.866-1.339-3.725-2.087-5.556c-0.122-0.299-0.66-0.613-0.98-0.589
				c-0.293,0.022-0.792,0.499-0.788,0.77c0.033,1.929-1.474,3.549-0.989,5.589c0.312,1.317-0.866,2.767-0.689,3.702
				c0.232,1.223,0.77,2.456,0.715,3.784c-0.08,1.933-0.834,2.636-2.752,2.634c-1.921,0-2.698-0.618-2.714-2.642
				c-0.014-1.925-0.005-3.528-2.477-4.027c-0.979-0.198-1.358-1.416-1.267-2.628c0.127-1.672,0.071-3.362,0.015-5.043
				c-0.024-0.712-0.018-1.603-0.417-2.097C85.308,27.318,85.727,24.769,85.668,21.729z"/>
			<path d="M24.143,32.115c0.253-1.303-0.418-2.757,0.822-4.178c0.692-0.792-0.061-1.805-1.421-2.507
				c-2.113-1.092-4.153-0.24-6.187-0.555c-0.131-0.021-0.551,0.678-0.531,1.025c0.101,1.736-0.597,3.616,0.868,5.143
				c0.153,0.158-0.052,0.613,0.032,0.893c1.122,3.758,1.017,4.044-2.085,6.69c-0.365,0.312-0.596,0.922-0.652,1.421
				c-0.104,0.905,0.055,1.842-0.064,2.743c-0.062,0.466-0.471,1.238-0.751,1.252c-0.647,0.029-1.884-0.348-1.877-0.514
				c0.053-1.156-2.025-2.034-0.299-3.516c0.603-0.518,0.755-2.076-1.202-2.514c-1.212-0.271-2.179-1.771-0.428-3.074
				c0-2.903,0.073-5.81-0.06-8.707c-0.028-0.601-0.713-1.328-1.286-1.706c-0.617-0.407-1.458-0.475-2.202-0.69
				c0.718-0.111,1.448-0.176,2.147-0.36c0.206-0.055,0.479-0.468,0.448-0.678c-0.056-0.393-0.234-0.995-0.501-1.081
				c-0.552-0.179-1.205-0.021-1.795-0.124c-0.177-0.03-0.437-0.493-0.392-0.702C6.805,20,7.15,19.339,7.272,19.363
				c3.47,0.681,4.662-0.799,4.012-4.108c1.264-0.828,0.794-2.13,0.958-3.282c0.062-0.43,0.631-0.763,0.867-1.197
				c0.493-0.905,1.241-0.969,1.727-0.245c0.783,1.168,1.453,2.457,1.888,3.787c0.158,0.483-0.809,1.289-0.705,1.845
				c0.202,1.086,0.795,2.1,1.227,3.144l4.373,0.236c1.609,0.466,2.974-2.346,4.697-0.351c0.46-0.458,1.396-1.166,1.306-1.336
				c-0.885-1.687,0.741-3.166,0.266-4.85c-0.232-0.819,0.292-1.852,0.474-2.789c0.124,0.866,0.374,1.735,0.344,2.595
				c-0.051,1.458,1.476,0.659,1.918,1.423c0.053,0.092,0.878-0.128,1.233-0.369c1.11-0.753,2.268-0.478,2.362,0.707
				c0.109,1.367,0.33,2.848-0.073,4.092c-0.306,0.943-1.079,1.778-0.803,2.857c0.457,1.788,0.916,3.588,1.578,5.304
				c0.408,1.056-0.228,2.503,1.161,3.186c-0.571,1.75-0.91,3.626-1.769,5.221c-1.151,2.138-3.285,3.775-2.906,6.624
				c0.059,0.441-0.547,0.968-0.835,1.461c-0.596,1.021-2.102,1.06-2.77,0.153c-1.163-1.581-0.321-3.674-1.072-5.041
				c-0.627-1.14-2.111-2.033-2.542-3.468C23.936,34.121,24.143,33.143,24.143,32.115z"/>
			<path d="M11.548,12.332c-0.085-0.833-0.153-1.327-0.159-1.821c0-0.05,0.376-0.104,0.578-0.156
				c0.078,0.395,0.199,0.789,0.214,1.186C12.187,11.69,11.947,11.849,11.548,12.332z"/>
			<path fill="none" d="M65.474,29.398c-0.001,0.305-0.001,0.61-0.001,0.915c0,4.499,0,4.499-3.206,7.362
				c-1.14,1.018-2.845,1.304-4.034,0.558c-2.184-1.372-4.236-2.991-6.528-4.138c-0.971-0.486-1.143-1.107-0.883-1.65
				c1.579-3.298,0.97-6.803,0.744-10.15c-0.155-2.287,1.616-3.365,2.031-5.18c0.064-0.284,0.971-0.518,1.494-0.529
				c1.797-0.04,3.332-0.247,4.049-2.333c0.287-0.832,1.371-0.65,1.797,0.107c1.455,2.583,3.609,4.65,3.822,8.089
				C64.898,24.708,65.434,27.051,65.474,29.398z"/>
			<path fill="none" d="M57.455,9.236c-0.364-0.091-0.659-0.122-0.896-0.255c-0.058-0.032-0.001-0.47,0.126-0.602
				c1.154-1.192,2.285-2.417,3.542-3.495c0.367-0.315,1.116-0.254,1.683-0.227c0.195,0.009,0.369,0.439,0.554,0.677
				c-1.533,0.988-2.726,2.306-3.817,3.754C58.466,9.325,57.806,9.202,57.455,9.236z"/>
			<path fill="none" d="M66.391,5.051c0,0.918,0.144,1.447-0.044,1.798c-0.153,0.286-0.692,0.441-1.083,0.494
				c-0.213,0.029-0.627-0.235-0.677-0.435c-0.106-0.426-0.063-0.899-0.026-1.347c0.066-0.794-0.408-2.059,1.104-1.784
				C66.059,3.849,66.284,4.849,66.391,5.051z"/>
		</g>
	</g>
</g>
<g opacity="0.5">
	<g>
		<path fill="#BF2A26" d="M20.757,4.805c16.768,0.012,33.538,0.023,50.307,0.033c-0.016,1.648-0.035,3.295-0.052,4.942
			c-10.325,2.324-20.649,4.649-36.865,8.3c13.44,9.873,24.144,17.737,37.121,27.268c0,0.237-0.003,4.969-0.007,10.09
			c2.869,0.309,5.279,0.568,9.002,0.966c0.982,12.357,1.958,24.647,2.934,36.939c-12.196-0.008-24.391-0.016-36.587-0.024
			c-7.104-4.392-14.209-8.78-21.314-13.17c-1.821-19.917-3.643-39.833-5.969-65.283c7.345,2.548,4.564,1.583,1.42,0.494
			C20.751,11.701,20.753,8.254,20.757,4.805z M79.938,86.985c-5.261-9.117-6.75-15.078-9.44-15.788
			c-13.457-3.547-27.227-5.715-40.889-8.369c-0.39,1.963-0.781,3.928-1.17,5.888C43.667,74.115,58.892,79.516,79.938,86.985z"/>
		<path fill="#761915" d="M497.915,5.119c1.014,0,2.03,0.001,3.049,0.001c0.719,2.029,1.444,4.058,2.356,6.63
			c3.992-3.888,5.391-5.258,6.792-6.625c22.361,0.014,44.714,0.03,67.077,0.044c-4.069,13.118-8.141,26.239-12.206,39.358
			c-2.023-1.146-4.056-2.293-6.081-3.438c-0.019-2.105-0.038-4.211-0.054-6.318c-0.567-7.771-1.13-15.541-1.694-23.31
			c-4.969,1.304-9.938,2.604-14.906,3.906c3.526,5.848,7.051,11.696,10.572,17.544c0.488,2.763,0.974,5.525,1.46,8.29
			c-0.005,1.093-0.005,2.187-0.009,3.281c-5.585,8.741-11.173,17.48-16.762,26.221c-0.003,3.821-0.007,7.641-0.01,11.463
			c-1.554,0.567-3.104,1.13-4.659,1.696c-0.995-0.032-1.987-0.073-2.982-0.104c0.841-5.515,1.684-11.029,2.477-16.239
			c-8.01-4.332-14.901-8.059-22.597-12.219c-1.178,3.04-2.013,5.185-2.84,7.332c-1.922-1.162-3.842-2.324-5.762-3.486
			c-1.062-12.003-2.121-24.006-3.181-36.01c-2.016-2.773-4.032-5.546-6.044-8.319C493.906,11.585,495.909,8.351,497.915,5.119z"/>
		<path fill="#8A1D1A" d="M215.887,4.934c14.738,0.009,29.473,0.02,44.209,0.029c0.989,4.379,1.979,8.759,2.969,13.137
			c-10.478,3.3-20.955,6.604-35,11.029c-0.015,20.014-0.029,42.164-0.045,64.309c-5.59-0.003-11.18-0.006-16.77-0.013
			c-6.118-11.515-12.238-23.031-18.355-34.544c0.54-4.877,1.079-9.751,1.617-14.626C201.639,31.15,208.762,18.041,215.887,4.934z"/>
		<path fill="#791A16" d="M263.065,18.1c-0.989-4.378-1.979-8.758-2.969-13.137c3.557,0.002,7.114,0.005,10.672,0.007
			c5.588,1.642,11.178,3.282,16.766,4.926c4.561,1.125,9.118,2.25,13.678,3.375c1.54,0.53,3.08,1.059,4.621,1.585
			c2.55,20.203,5.099,40.404,7.648,60.611c-0.019,1.084-0.036,2.17-0.051,3.257c-2.555,4.919-5.106,9.84-7.661,14.762
			c-7.112-0.006-14.229-0.011-21.341-0.016c0.033-1.104,0.067-2.212,0.101-3.313c-1.023-3.279-2.045-6.55-3.068-9.825
			c-1.028-4.367-2.058-8.731-3.086-13.097c-5.037-14.239-10.073-28.484-15.108-42.726C263.197,22.376,263.131,20.238,263.065,18.1z"
			/>
		<path fill="#681611" d="M313.428,78.728c0.017-1.084,0.034-2.173,0.049-3.258c-0.475-11.823-0.949-23.642-1.405-34.999
			c11.191-1.708,19.964-3.044,30.838-4.701c4.632,3.534,11.189,8.532,17.741,13.529c4.061,7.11,8.121,14.217,12.182,21.324
			c0.01,1.081,0.022,2.165,0.037,3.248c-6.601,0.853-13.194,1.7-19.79,2.552c-0.532-2.282-1.063-4.562-1.592-6.844
			c-6.622,3.956-13.244,7.913-31.634,18.907c17.535-3.919,22.127-4.947,29.67-6.631c0.555,3.26,1.267,7.466,1.979,11.667
			c-11.18-0.012-22.359-0.019-33.539-0.023C316.452,88.576,314.94,83.652,313.428,78.728z"/>
		<path fill="#9E221E" d="M139.663,4.884c5.59,0.003,11.179,0.007,16.77,0.01c6.087,7.645,12.178,15.288,18.268,22.932
			c-9.218,14.238-18.437,28.476-29.287,45.229c-0.61-1.417,0.622,1.45,0.4,0.936c0.641,8.83,1.025,14.111,1.409,19.393
			c-5.59-0.003-11.178-0.01-16.769-0.013c0.337-6.159,0.675-12.321,0.939-17.129c-3.177-6.484-5.833-11.913-8.492-17.335
			c2.192,0.996,4.384,1.991,18.455,8.387c-11.13-9.323-12.504-10.475-13.878-11.623c0.026-3.294,0.051-6.587,0.074-9.875
			c6.695-3.49,13.386-6.982,13.691-7.139C140.467,22.014,140.064,13.448,139.663,4.884z"/>
		<path fill="#5A130F" d="M732.616,93.771c-7.11-0.007-14.227-0.01-21.342-0.017c-2.872-4.647-5.748-9.296-8.345-13.495
			c-5.727,1.437-10.12,2.548-14.517,3.653c-0.504-1.641-1.011-3.279-1.521-4.922c-0.012-2.726-0.024-5.455-0.034-8.182
			c-1.013-9.837-2.026-19.675-3.044-29.512c-0.036-3.798-0.073-7.597-0.109-11.397c-1.454-8.219-2.927-16.439-4.388-24.659
			c5.591,0.003,11.18,0.006,16.775,0.012c0.531,3.291,1.061,6.582,1.592,9.872c-0.011,1.62-0.018,3.242-0.025,4.861
			c2.013,6.015,4.024,12.029,6.036,18.046c0.008,1.087,0.02,2.173,0.029,3.263c0.999,1.104,1.997,2.209,2.994,3.315
			c0.017,1.08,0.033,2.163,0.053,3.244C715.386,63.159,724.001,78.466,732.616,93.771z"/>
		<path fill="#98211D" d="M278.374,67.239c1.027,4.365,2.057,8.732,3.084,13.097c1.024,3.275,2.046,6.55,3.07,9.824
			c-0.034,1.105-0.068,2.21-0.102,3.313c-10.673-0.007-21.343-0.014-32.016-0.024c-3.186-18.882-6.373-37.771-10.431-61.816
			c14.752,3.136,17.938,3.814,21.124,4.491C268.195,46.496,273.282,56.87,278.374,67.239z"/>
		<path fill="#8A1D1A" d="M430.774,93.573c-11.176-0.007-22.359-0.017-33.538-0.024c1.505-6.571,3.005-13.146,4.513-19.715
			c2.203,0.096,4.405,0.188,6.61,0.285c5.851,5.205,11.705,10.408,17.563,15.612c1.374-1.821,2.75-3.645,4.13-5.461
			c-7.344-6.157-14.69-12.313-22.031-18.467c-0.121-1.187-0.245-2.363-0.368-3.55c2.687-8.095,5.371-16.193,8.056-24.29
			c2.429-2.707,4.854-5.413,7.285-8.119c2.587,0.468,5.175,0.938,7.766,1.406c3.077,4.378,6.15,8.754,9.228,13.133
			c2.016,8.204,4.037,16.404,6.054,24.609C440.953,77.189,435.863,85.38,430.774,93.573z"/>
		<path fill="#99211D" d="M147.224,93.384c-0.383-5.282-0.767-10.562-1.409-19.392c0.223,0.513-1.012-2.354-0.4-0.935
			c10.851-16.756,20.069-30.994,29.289-45.23c1.017,0.003,2.033,0.008,3.049,0.013c1.606,5.637,3.214,11.274,4.729,16.585
			c-2.547,2.499-4.383,4.3-7.7,7.547c3.48,2.707,6.368,4.956,9.23,7.188c4.242-6.021,7.372-10.462,10.5-14.902
			c-0.538,4.874-1.077,9.751-1.617,14.627c-0.535,3.343-1.07,6.685-1.608,10.023c-3.33-0.908-6.663-1.813-10.839-2.951
			c-3.566,9.449-6.962,18.447-10.358,27.441C162.467,93.395,154.846,93.39,147.224,93.384z"/>
		<path fill="#5D130E" d="M305.833,14.86c-1.541-0.53-3.081-1.059-4.621-1.589c-1.51-2.761-3.019-5.521-4.528-8.283
			c37.604,0.024,75.205,0.048,112.808,0.074c1.137,3.146,2.273,6.293,3.408,9.438c0.841,1.246,1.687,2.492,2.526,3.738
			c0.083,0.485,0.163,0.972,0.232,1.46c0.891,1.165,1.783,2.331,2.671,3.496c-0.021,1.637-0.04,3.275-0.06,4.911
			c-11.04-2.244-22.082-4.487-33.122-6.73c-14.233-1.604-28.463-3.209-42.694-4.815c-11.184-0.594-22.372-1.188-33.554-1.781
			c-1.026-0.01-2.057-0.022-3.084-0.032L305.833,14.86z"/>
		<path fill="#C62C28" d="M83.197,93.343c-0.977-12.292-1.953-24.582-2.934-36.939c-3.724-0.397-6.134-0.657-9.002-0.966
			c0.003-5.121,0.007-9.853,0.007-10.09C58.29,35.817,47.586,27.955,34.146,18.08c16.216-3.652,26.54-5.976,36.865-8.3
			c1.574,4.313,3.149,8.627,4.72,12.943c5.543,14.801,11.086,29.602,16.631,44.404c1.513,4.401,3.027,8.802,4.542,13.205
			c1.02,4.341,2.041,8.684,3.063,13.022C94.376,93.352,88.787,93.346,83.197,93.343z"/>
		<path fill="#921F1B" d="M263.104,36.125c-3.185-0.676-6.37-1.355-21.124-4.491c4.058,24.048,7.245,42.935,10.431,61.82
			c-8.129-0.007-16.261-0.01-24.391-0.017c0.016-22.151,0.03-44.295,0.045-64.309c14.047-4.425,24.524-7.729,35-11.029
			c0.066,2.138,0.13,4.276,0.196,6.415C263.209,28.387,263.158,32.256,263.104,36.125z"/>
		<path fill="#B72824" d="M20.757,4.805c-0.002,3.449-0.006,6.896-0.008,10.555c3.144,1.089,5.925,2.054-1.422-0.494
			c2.327,25.451,4.147,45.366,5.968,65.283c-8.135-2.722-16.269-5.441-24.402-8.162C0.908,49.587,0.925,27.191,0.94,4.794
			C7.544,4.797,14.151,4.802,20.757,4.805z"/>
		<path fill="#721814" d="M686.898,78.988c0.508,1.643,1.015,3.281,1.517,4.922c-0.002,3.274-0.002,6.553-0.007,9.831
			c-6.099-0.005-12.194-0.008-18.292-0.014c-35.946-25.588-14.686-57.975-9.082-88.501c3.05,0.001,6.1,0.003,9.148,0.006
			c-2.845,14.528-5.688,29.055-8.525,43.583c2.48,0.642,4.966,1.283,7.447,1.926c-0.725,2.836-1.45,5.673-3.22,12.59
			C672.244,68.072,679.572,73.53,686.898,78.988z"/>
		<path fill="#651511" d="M697.684,15.122c-0.531-3.292-1.061-6.583-1.592-9.873c6.101,0.004,12.193,0.009,18.291,0.012
			c8.628,13.662,17.262,27.326,25.89,40.987c-0.013,13.109,0.432,26.254-0.377,39.307c-0.175,2.896-4.738,5.481-7.283,8.213
			C724,78.463,715.386,63.156,706.771,47.851c6.563,7.819,13.12,15.638,19.686,23.457c2.985-2.6,5.972-5.198,8.952-7.799
			C722.835,47.38,710.26,31.253,697.684,15.122z"/>
		<path fill="#791A16" d="M439.984,44.387c-3.078-4.378-6.152-8.755-9.228-13.133c1.537-0.021,3.077-0.043,4.611-0.065
			c7.174-0.062,14.341-0.125,21.515-0.187c1.475,0.054,2.951,0.108,4.431,0.162c3.553,1.698,7.103,3.393,10.652,5.089
			c1.086,1.142,2.171,2.287,3.259,3.428c1.002,3.148,2.006,6.297,3.007,9.446c-1.071,3.911-2.138,7.818-3.207,11.732
			c-7.128,10.904-14.256,21.817-21.386,32.726c-7.622-0.003-15.244-0.01-22.864-0.017c5.089-8.188,10.174-16.38,15.264-24.572
			c4.317-4.113,8.638-8.229,15.461-14.729C452.397,50.083,446.186,47.235,439.984,44.387z"/>
		<path fill="#781916" d="M661.029,5.227c-5.604,30.526-26.862,62.912,9.083,88.503c-1.521,0-3.047-0.003-4.571-0.003
			c-0.853-1.588-1.703-3.177-3.714-6.928c-2.145,3.798-3.025,5.36-3.909,6.92c-5.589-0.003-11.179-0.006-16.771-0.01
			c-1.917-9.696-3.839-19.393-6.063-30.622c1.023-9.502,2.041-18.943,3.057-28.382c2.496,2.35,4.99,4.7,10.665,10.045
			c0.012-15.823,0.021-27.68,0.028-39.534C652.9,5.222,656.964,5.224,661.029,5.227z"/>
		<path fill="#7E1B17" d="M638.141,34.705c-1.016,9.44-2.033,18.881-3.057,28.382c2.224,11.227,4.146,20.926,6.063,30.622
			c-14.227-0.01-28.455-0.019-42.682-0.03c0.483-1.646,0.967-3.287,1.454-4.933c1.027,0.002,2.061,0.007,3.088,0.008
			c10.192-19.109,20.377-38.216,30.565-57.326C635.096,32.52,636.619,33.613,638.141,34.705z"/>
		<path fill="#6C1713" d="M686.898,78.988c-7.326-5.458-14.654-10.916-21.02-15.657c1.769-6.917,2.494-9.752,3.216-12.59
			c-2.482-0.644-4.966-1.284-7.45-1.928c2.844-14.527,5.686-29.057,8.529-43.583c1.521,0,3.048,0.001,4.572,0.001
			c2.985,8.221,5.971,16.442,8.959,24.662c0.036,3.799,0.073,7.599,0.109,11.396c1.018,9.838,2.026,19.675,3.042,29.512
			C686.875,73.533,686.885,76.262,686.898,78.988z"/>
		<path fill="#721814" d="M599.919,88.749c-0.484,1.646-0.965,3.288-1.45,4.933c-7.115-0.005-14.231-0.01-21.345-0.014
			c-0.991-14.209-1.983-28.418-2.976-42.629c-1.004-1.099-2.009-2.199-3.005-3.297c1.994-6.54,3.984-13.079,5.977-19.619
			c0.53,1.634,1.053,3.27,1.58,4.904C586.799,44.5,594.904,55.972,603,67.444C601.971,74.546,600.945,81.647,599.919,88.749z"/>
		<path fill="#94201C" d="M435.368,31.189c-1.534,0.022-3.075,0.044-4.611,0.065c-2.591-0.469-5.179-0.937-7.763-1.408
			c-1.434-0.63-2.865-1.259-4.296-1.885l-0.434,0.144c0.022-1.635,0.041-3.273,0.067-4.91c-0.89-1.166-1.782-2.331-2.674-3.496
			c-0.069-0.489-0.149-0.975-0.229-1.46c-0.844-1.246-1.686-2.491-2.53-3.737c-1.135-3.145-2.271-6.292-3.408-9.439
			c14.229,0.01,28.457,0.018,42.688,0.028c-1.534,7.095-3.071,14.188-4.605,21.284c-2.021,0.008-4.052,0.017-6.077,0.027
			c-1.021-0.005-2.035-0.01-3.056-0.015C437.417,27.986,436.392,29.588,435.368,31.189z"/>
		<path fill="#AC2522" d="M75.729,22.723c-1.571-4.315-3.145-8.631-4.719-12.943c0.019-1.647,0.035-3.294,0.052-4.942
			c10.673,0.007,21.342,0.016,32.013,0.022c-0.437,2.767-0.874,5.532-1.311,8.298c0.494,4.311,0.986,8.622,1.478,12.932
			c-0.429,0.939-0.857,1.878-1.413,3.097c0.929,0.769,1.688,1.393,2.445,2.02c0.08,2.715,0.161,5.433,0.241,8.149
			c-1.05,4.368-2.101,8.736-3.15,13.103C94.806,41.5,88.245,30.54,81.409,19.117C79.521,20.314,77.626,21.519,75.729,22.723z"/>
		<path fill="#681611" d="M578.695,33.028c-0.523-1.634-1.048-3.27-1.577-4.904c1.548-7.649,3.095-15.298,4.639-22.948
			c0.51,0,1.021,0,1.521,0c7.629,3.276,15.252,6.551,22.875,9.828c0.54,6.608,1.079,13.215,1.612,19.822
			c-1.054,2.139-2.111,4.281-3.161,6.422C595.969,38.507,587.335,35.767,578.695,33.028z"/>
		<path fill="#A72421" d="M139.663,4.884c0.4,8.564,0.803,17.129,1.582,33.774c-0.305,0.157-6.996,3.648-13.69,7.14
			c-3.598-4.354-7.193-8.707-10.79-13.061c0.494-2.752,0.987-5.502,1.479-8.252c-0.048-2.183-0.096-4.365-0.145-6.546
			c0.037-1.1,0.074-2.198,0.111-3.294c1.053-3.259,2.108-6.517,3.162-9.775C127.467,4.876,133.566,4.881,139.663,4.884z"/>
		<path fill="#8F1F1B" d="M475.026,60.86c1.067-3.914,2.138-7.821,3.206-11.729c2.044,1.042,4.092,2.084,6.138,3.124
			c4.251,8.574,8.499,17.156,12.223,24.674c-3.586,6.358-6.5,11.52-9.412,16.679c-6.103-0.003-12.197-0.007-18.296-0.011
			C470.93,82.686,472.978,71.773,475.026,60.86z"/>
		<path fill="#791A16" d="M537.509,70.707c5.586-8.743,11.173-17.482,16.762-26.224c2.987,3.911,5.973,7.825,9.378,12.285
			c-1.045,11.681-2.172,24.283-3.298,36.888c-7.113-0.004-14.227-0.009-21.34-0.013c0.029-1.122,0.056-2.237,0.087-3.358
			c4.859-9.568,9.72-19.139,14.578-28.705c-1.969-1.274-3.944-2.555-5.912-3.829C544.344,62.073,540.927,66.391,537.509,70.707z"/>
		<path fill="#94201C" d="M194.512,44.255c-3.131,4.442-6.258,8.883-10.5,14.901c-2.863-2.227-5.75-4.477-9.23-7.185
			c3.315-3.249,5.151-5.052,7.7-7.548c-1.515-5.313-3.123-10.949-4.729-16.585c2.536,0.595,5.072,1.192,7.608,1.788
			c2.2,1.174,4.402,2.349,6.132,3.272c2.761-10.138,5.195-19.056,7.625-27.975c5.59,0.003,11.179,0.008,16.77,0.011
			C208.762,18.041,201.639,31.15,194.512,44.255z"/>
		<path fill="#A72421" d="M122.903,58.907c2.656,5.426,5.315,10.852,8.491,17.335c-0.263,4.813-0.601,10.973-0.94,17.132
			c-7.115-0.006-14.228-0.01-21.343-0.015c-0.498-1.637-0.998-3.272-1.496-4.904c0.011-1.105,0.019-2.211,0.029-3.314
			c3.532-12.555,7.064-25.11,10.597-37.667c0.959,0.589,1.923,1.184,2.885,1.772c0.685,2.102,1.366,4.203,2.049,6.303
			C123.083,56.668,122.993,57.786,122.903,58.907z"/>
		<path fill="#57120E" d="M740.273,46.249c-8.628-13.661-17.259-27.326-25.887-40.987c5.589,0.003,11.181,0.007,16.769,0.012
			c3.049,3.279,6.095,6.559,9.142,9.839C740.29,25.49,740.28,35.87,740.273,46.249z"/>
		<path fill="#6C1713" d="M351.502,93.518c-0.712-4.202-1.424-8.406-1.979-11.665c-7.543,1.687-12.135,2.711-29.67,6.632
			c18.391-10.995,25.012-14.952,31.634-18.909c0.531,2.283,1.06,4.563,1.592,6.845c6.596-0.852,13.189-1.703,19.787-2.551
			c2.023,6.554,4.052,13.111,6.074,19.668C369.795,93.531,360.648,93.527,351.502,93.518z"/>
		<path fill="#851C19" d="M487.18,93.607c2.912-5.159,5.83-10.32,9.415-16.679c-3.722-7.518-7.971-16.096-12.226-24.674
			c1.44,0.694,2.879,1.388,4.322,2.079c3.566,1.621,7.129,3.245,10.695,4.867c0.585-0.019,1.168-0.034,1.752-0.055
			c1.919,1.162,3.845,2.321,5.762,3.483c-0.458,2.68-0.911,5.359-1.371,8.037c3.038,6.545,6.08,13.093,9.117,19.638
			c-0.008,1.109-0.017,2.215-0.029,3.323C505.472,93.621,496.326,93.614,487.18,93.607z"/>
		<path fill="#851C19" d="M560.351,93.656c1.126-12.602,2.253-25.207,3.298-36.888c-3.408-4.46-6.394-8.372-9.378-12.285
			c0-1.095,0.004-2.188,0.004-3.281c1.542-0.04,3.083-0.075,4.624-0.112c2.025,1.146,4.058,2.292,6.082,3.438
			c2.053,1.069,4.104,2.14,6.156,3.212c1.003,1.096,2.008,2.197,3.005,3.296c-2.054,14.207-4.112,28.418-6.166,42.625
			C565.435,93.661,562.892,93.656,560.351,93.656z"/>
		<path fill="#821C18" d="M475.026,60.86c-2.048,10.909-4.096,21.822-6.142,32.736c-5.078-0.003-10.161-0.006-15.245-0.011
			C460.768,82.677,467.896,71.769,475.026,60.86z"/>
		<path fill="#791A16" d="M378.943,93.538c-2.024-6.557-4.051-13.114-6.073-19.668c-0.016-1.085-0.028-2.168-0.035-3.253
			c9.638,1.073,19.275,2.147,28.917,3.217c-1.507,6.573-3.004,13.147-4.513,19.717C391.135,93.545,385.04,93.542,378.943,93.538z"/>
		<path fill="#801B17" d="M191.289,68.908c0.536-3.339,1.071-6.681,1.607-10.023c6.118,11.514,12.239,23.031,18.356,34.544
			c-7.116-0.007-14.228-0.01-21.343-0.014C190.369,85.243,190.83,77.075,191.289,68.908z"/>
		<path fill="#781916" d="M606.16,15.002c-7.627-3.276-15.25-6.551-22.879-9.828c18.803,0.014,37.605,0.025,56.406,0.038
			c-1.532,3.276-3.061,6.555-4.592,9.831C625.448,15.03,615.805,15.018,606.16,15.002z"/>
		<path fill="#A52420" d="M191.289,68.908c-0.459,8.167-0.919,16.339-1.379,24.507c-6.606-0.006-13.213-0.01-19.818-0.015
			c3.396-8.996,6.792-17.994,10.358-27.44C184.625,67.094,187.957,68.001,191.289,68.908z"/>
		<path fill="#9E221E" d="M0.892,71.987c8.134,2.721,16.269,5.44,24.403,8.162c7.104,4.39,14.209,8.778,21.315,13.17
			c-9.656-0.006-19.311-0.012-28.965-0.019c-5.586-4.376-11.172-8.749-16.76-13.122C0.885,77.449,0.89,74.717,0.892,71.987z"/>
		<path fill="#801B17" d="M635.095,15.043c1.531-3.276,3.06-6.555,4.592-9.831c3.049,0.001,6.101,0.003,9.147,0.005
			c-0.007,11.854-0.017,23.71-0.028,39.534c-5.675-5.346-8.169-7.696-10.665-10.045c-1.522-1.093-3.045-2.185-4.565-3.277
			C634.08,25.967,634.588,20.505,635.095,15.043z"/>
		<path fill="#99211D" d="M199.117,4.924c-2.432,8.919-4.864,17.839-7.625,27.975c-1.731-0.923-3.932-2.098-6.132-3.273
			c-2.528-8.239-5.057-16.477-7.585-24.717C184.89,4.915,192.003,4.919,199.117,4.924z"/>
		<path fill="#A52420" d="M177.775,4.909c2.527,8.24,5.055,16.478,7.585,24.717c-2.536-0.595-5.072-1.192-7.608-1.787
			c-1.019-0.005-2.035-0.008-3.049-0.013c-6.09-7.645-12.18-15.287-18.27-22.932C163.549,4.899,170.66,4.904,177.775,4.909z"/>
		<path fill="#791A16" d="M567.976,93.662c2.054-14.207,4.112-28.417,6.167-42.623c0.994,14.211,1.987,28.42,2.979,42.629
			C574.073,93.666,571.024,93.665,567.976,93.662z"/>
		<path fill="#801B17" d="M571.137,47.742c-2.053-1.073-4.104-2.143-6.156-3.213c4.064-13.118,8.137-26.238,12.205-39.357
			c1.521,0.001,3.048,0.001,4.57,0.003c-1.544,7.649-3.091,15.298-4.639,22.948C575.122,34.663,573.131,41.202,571.137,47.742z"/>
		<path fill="#651511" d="M688.408,93.741c0.005-3.278,0.005-6.557,0.007-9.831c4.395-1.106,8.793-2.214,14.517-3.654
			c2.598,4.202,5.479,8.851,8.343,13.498C703.655,93.75,696.03,93.746,688.408,93.741z"/>
		<path fill="#651511" d="M683.711,29.897c-2.988-8.219-5.974-16.44-8.959-24.662c1.52,0.001,3.047,0.001,4.571,0.003
			C680.785,13.458,682.25,21.678,683.711,29.897z"/>
		<path fill="#8F1F1B" d="M465.899,5.099c3.56,0.002,7.114,0.005,10.671,0.007c0.487,4.476,0.974,8.954,1.46,13.429
			c0.025,1.402,0.045,2.806,0.067,4.212c-1.024,0.113-2.046,0.221-3.073,0.331c-3.043-4.352-6.091-8.706-9.132-13.059
			C465.896,8.379,465.899,6.738,465.899,5.099z"/>
		<path fill="#801B17" d="M313.428,78.728c1.515,4.924,3.023,9.848,4.536,14.771c-4.064-0.004-8.129-0.007-12.195-0.01
			C308.323,88.569,310.874,83.649,313.428,78.728z"/>
		<path fill="#8F1F1B" d="M447.578,26.374c1.534-7.095,3.069-14.189,4.603-21.284c2.032,0.002,4.066,0.002,6.097,0.003
			c1.021,1.639,2.038,3.278,3.061,4.919c-0.019,1.65-0.034,3.301-0.048,4.951c-2.028,3.268-4.063,6.536-6.089,9.803
			C452.656,25.304,450.115,25.839,447.578,26.374z"/>
		<path fill="#821C18" d="M514.618,93.627c0.01-1.108,0.02-2.214,0.028-3.32c4.066-2.192,8.135-4.386,12.198-6.582
			c1.007,0.014,2.012,0.023,3.014,0.036c0.995,0.035,1.987,0.072,2.979,0.104c0.533,3.259,1.068,6.519,1.598,9.774
			C527.832,93.637,521.223,93.63,514.618,93.627z"/>
		<path fill="#B72824" d="M0.884,80.178c5.586,4.376,11.173,8.749,16.76,13.122C12.059,88.927,6.47,84.554,0.884,80.178z"/>
		<path fill="#B72824" d="M107.644,85.143c-0.01,1.104-0.018,2.206-0.029,3.312c-0.517,1.635-1.035,3.271-1.552,4.904
			c-2.032,0-4.065,0-6.099-0.004c-1.021-4.338-2.043-8.678-3.063-13.022c0.526-1.661,1.049-3.318,1.572-4.981
			C101.532,78.614,104.589,81.878,107.644,85.143z"/>
		<path fill="#791A16" d="M118.209,14.647c-0.037,1.096-0.074,2.194-0.11,3.294c-1.463,1.167-2.93,2.333-4.393,3.504
			c-1.008-2.252-2.016-4.501-3.025-6.75c-1.009-3.278-2.021-6.555-3.032-9.832c3.049,0.001,6.1,0.003,9.147,0.006
			C117.267,8.128,117.739,11.386,118.209,14.647z"/>
		<path fill="#761915" d="M478.027,18.538c-0.483-4.476-0.97-8.955-1.457-13.432c2.541,0.001,5.084,0.003,7.625,0.005
			c-0.026,2.195-0.051,4.39-0.074,6.583C482.09,13.976,480.058,16.256,478.027,18.538z"/>
		<path fill="#6C1713" d="M287.534,9.897c-5.588-1.643-11.178-3.284-16.766-4.926c5.59,0.003,11.178,0.007,16.769,0.012
			c0.008,1.081,0.017,2.161,0.025,3.243C287.554,8.782,287.544,9.339,287.534,9.897z"/>
		<path fill="#6D1713" d="M740.296,15.112c-3.047-3.28-6.093-6.56-9.142-9.839C734.204,8.552,737.25,11.832,740.296,15.112z"/>
		<path fill="#651511" d="M287.534,9.897c0.011-0.558,0.021-1.115,0.028-1.672c1.518-1.078,3.033-2.16,4.55-3.24
			c1.523,0,3.05,0.001,4.572,0.001c1.511,2.762,3.02,5.521,4.527,8.283C296.652,12.145,292.092,11.021,287.534,9.897z"/>
		<path fill="#94201C" d="M107.649,4.863c1.011,3.277,2.021,6.554,3.032,9.832c-2.973-0.513-5.942-1.024-8.915-1.536
			c0.438-2.766,0.875-5.532,1.312-8.298C104.6,4.861,106.125,4.861,107.649,4.863z"/>
		<path fill="#721814" d="M534.438,93.64c-0.533-3.259-1.063-6.52-1.598-9.777c1.555-0.566,3.105-1.129,4.659-1.696
			c0.533,2.703,1.066,5.414,1.599,8.118c-0.031,1.121-0.058,2.236-0.087,3.358C537.485,93.64,535.961,93.64,534.438,93.64z"/>
		<path fill="#821C18" d="M497.915,5.119c-2.006,3.232-4.006,6.464-6.01,9.698c-1.034-0.581-2.069-1.161-3.103-1.743
			c0.005-0.444,0.008-0.887,0.005-1.331c1.005-2.21,2.01-4.421,3.008-6.63C493.847,5.117,495.881,5.119,497.915,5.119z"/>
		<path fill="#94201C" d="M491.815,5.116c-1.002,2.209-2.007,4.42-3.008,6.63c-1.561-0.019-3.125-0.036-4.687-0.053
			c0.023-2.193,0.048-4.387,0.074-6.583C486.734,5.112,489.273,5.114,491.815,5.116z"/>
		<path fill="#851C19" d="M118.209,14.647c-0.471-3.259-0.943-6.519-1.413-9.778c1.523,0,3.048,0.001,4.574,0.003
			C120.317,8.13,119.265,11.388,118.209,14.647z"/>
		<path fill="#821C18" d="M510.108,5.127c-1.402,1.366-2.803,2.737-6.791,6.625c-0.913-2.571-1.635-4.601-2.357-6.629
			C504.008,5.124,507.061,5.125,510.108,5.127z"/>
		<path fill="#8A1D1A" d="M461.334,10.013c-1.02-1.64-2.04-3.278-3.061-4.918c2.541,0.001,5.081,0.003,7.625,0.004
			c-0.003,1.641-0.007,3.282-0.007,4.92C464.372,10.017,462.853,10.015,461.334,10.013z"/>
		<path fill="#791A16" d="M657.917,93.719c0.884-1.559,1.765-3.121,3.909-6.924c2.011,3.75,2.863,5.34,3.714,6.931
			C663,93.723,660.459,93.719,657.917,93.719z"/>
		<path fill="#5D130E" d="M292.11,4.985c-1.518,1.08-3.032,2.162-4.551,3.24c-0.008-1.082-0.015-2.162-0.023-3.243
			C289.061,4.983,290.584,4.983,292.11,4.985z"/>
		<path fill="#AC2522" d="M106.063,93.359c0.517-1.634,1.035-3.27,1.552-4.904c0.499,1.635,0.998,3.271,1.496,4.906
			C108.097,93.361,107.079,93.361,106.063,93.359z"/>
		<path fill="#C62C28" d="M79.938,86.985c-21.048-7.469-36.273-12.87-51.499-18.27c0.389-1.957,0.78-3.925,1.17-5.888
			c13.661,2.654,27.432,4.822,40.889,8.369C73.188,71.907,74.678,77.868,79.938,86.985z"/>
		<path fill="#8A1D1A" d="M484.121,11.693c1.562,0.017,3.126,0.034,4.687,0.053c0.003,0.444,0,0.887-0.005,1.333
			c0.564,3.186,1.13,6.372,1.783,10.052c3.104,0.001,5.235,0.002,7.37,0.004c1.06,12.004,2.119,24.006,3.181,36.008
			c-0.584,0.02-1.168,0.037-1.749,0.057c-0.863-1.114-1.728-2.23-2.587-3.345c-5.193-7.114-10.378-14.225-15.571-21.336
			c-1.04-3.926-2.083-7.85-3.129-11.777c-0.022-1.403-0.043-2.806-0.067-4.209C480.058,16.256,482.09,13.976,484.121,11.693z"/>
		<path fill="#681611" d="M552.817,32.915c-3.521-5.848-7.048-11.696-10.572-17.544c4.968-1.303,9.937-2.603,14.902-3.906
			c0.568,7.769,1.13,15.541,1.694,23.31C556.833,34.152,554.826,33.535,552.817,32.915z"/>
		<path fill="#721814" d="M529.858,83.758c-1.002-0.014-2.007-0.023-3.011-0.033c-7.104-4.354-14.216-8.709-21.316-13.063
			c0.459-2.681,0.914-5.36,1.374-8.037c0.824-2.144,1.659-4.285,2.84-7.328c7.691,4.16,14.588,7.89,22.597,12.219
			C531.542,72.733,530.699,78.244,529.858,83.758z"/>
		<path fill="#821C18" d="M539.098,90.289c-0.532-2.705-1.065-5.415-1.599-8.119c0.003-3.822,0.007-7.641,0.01-11.463
			c3.422-4.315,6.835-8.634,10.255-12.949c1.968,1.274,3.943,2.555,5.912,3.829C548.818,71.15,543.958,80.719,539.098,90.289z"/>
		<path fill="#94201C" d="M497.952,23.135c-2.131-0.002-4.262-0.003-7.366-0.004c-0.653-3.681-1.219-6.865-1.785-10.052
			c1.031,0.579,2.07,1.159,3.104,1.739C493.921,17.588,495.937,20.361,497.952,23.135z"/>
		<path fill="#791A16" d="M552.817,32.915c2.009,0.62,4.016,1.237,6.024,1.859c0.02,2.105,0.038,4.211,0.058,6.316
			c-1.54,0.038-3.08,0.074-4.624,0.113C553.792,38.44,553.304,35.676,552.817,32.915z"/>
		<path fill="#6D1713" d="M308.898,14.781c11.183,0.593,22.371,1.188,33.553,1.778c1.25,4.643,2.505,9.288,3.759,13.932
			c2.475-2.266,4.951-4.532,7.428-6.798c2.34,8.536,4.675,17.07,7.014,25.604c-6.552-4.996-13.109-9.996-17.741-13.53
			c-10.874,1.657-19.646,2.995-30.838,4.702c0.458,11.36,0.931,23.179,1.405,34.999c-2.548-20.204-5.096-40.408-7.645-60.609
			c0,0.002-0.021-0.109-0.021-0.109C306.84,14.759,307.868,14.769,308.898,14.781z"/>
		<path fill="#8F1F1B" d="M263.104,36.125c0.054-3.87,0.105-7.739,0.159-11.61c5.037,14.24,10.073,28.481,15.11,42.724
			C273.282,56.87,268.195,46.496,263.104,36.125z"/>
		<path fill="#851C19" d="M284.526,90.16c-1.024-3.274-2.045-6.549-3.07-9.824C282.481,83.611,283.503,86.885,284.526,90.16z"/>
		<path fill="#761915" d="M360.651,49.296c-2.339-8.536-4.674-17.069-7.014-25.604c-2.477,2.266-4.953,4.533-7.428,6.798
			c-1.254-4.644-2.509-9.287-3.759-13.932c14.232,1.606,28.463,3.21,42.694,4.815c2.535,6.571,5.07,13.136,7.604,19.705
			c-4.244-3.325-8.488-6.648-12.737-9.971c-4.247,4.67-8.497,9.337-12.748,14.005c12.505,7.413,25.013,14.823,37.518,22.234
			l0.272,0.326l-0.172-0.441c-0.016-1.588-0.036-3.169-0.05-4.748c0.939-0.08,1.875-0.155,2.813-0.234
			c0.122,1.183,0.247,2.363,0.368,3.548c0.112,2.77,0.226,5.543,0.338,8.312c-2.205-0.095-4.407-0.187-6.609-0.286
			c-9.64-1.068-19.278-2.143-28.917-3.213C368.772,63.509,364.71,56.404,360.651,49.296z"/>
		<path fill="#851C19" d="M123.174,55.548c-0.683-2.099-1.364-4.201-2.046-6.303c-0.917-1.153-1.834-2.304-2.75-3.453
			c-1.101-2.091-2.205-4.181-3.305-6.272c-0.487-2.183-0.974-4.364-1.46-6.548l0.131-0.286c1.005,0.016,2.015,0.034,3.021,0.054
			c3.597,4.353,7.192,8.708,10.79,13.06c-0.025,3.289-0.049,6.58-0.075,9.874C126.044,55.629,124.609,55.594,123.174,55.548z"/>
		<path fill="#8F1F1B" d="M123.174,55.548c1.435,0.042,2.87,0.081,4.304,0.122c1.375,1.152,2.75,2.304,13.879,11.626
			c-14.071-6.396-16.264-7.391-18.456-8.388C122.993,57.786,123.083,56.668,123.174,55.548z"/>
		<path fill="#6D1713" d="M697.684,15.122c12.572,16.131,25.151,32.258,37.725,48.387c-2.98,2.601-5.974,5.199-8.952,7.799
			c-6.564-7.82-13.123-15.638-19.686-23.459c-0.022-1.081-0.036-2.162-0.053-3.243c-0.997-1.105-1.995-2.213-2.991-3.315
			c-0.013-1.089-0.024-2.175-0.032-3.264c-2.012-6.015-4.023-12.028-6.036-18.045C697.67,18.364,697.677,16.743,697.684,15.122z"/>
		<path fill="#651511" d="M686.866,70.806c-1.014-9.838-2.027-19.675-3.043-29.512C684.834,51.131,685.852,60.968,686.866,70.806z"
			/>
		<path fill="#651511" d="M697.664,19.984c2.011,6.015,4.022,12.029,6.032,18.045C701.686,32.013,699.674,26,697.664,19.984z"/>
		<path fill="#651511" d="M703.727,41.294c0.996,1.104,1.994,2.209,2.991,3.314C705.721,43.503,704.723,42.396,703.727,41.294z"/>
		<path fill="#681611" d="M407.653,62.255c-0.938,0.078-1.875,0.153-2.813,0.229c-4.028-7.135-8.057-14.268-12.09-21.404
			c-2.534-6.568-5.065-13.135-7.601-19.704c11.043,2.243,22.086,4.486,33.123,6.729c-0.003,0,0.426-0.144,0.426-0.144
			c-0.996,3.335-1.994,6.669-2.989,10.004C413.024,46.062,410.339,54.159,407.653,62.255z"/>
		<path fill="#821C18" d="M439.984,44.387c6.202,2.848,12.409,5.696,21.521,9.881c-6.825,6.502-11.145,10.618-15.464,14.729
			C444.021,60.792,442.002,52.591,439.984,44.387z"/>
		<path fill="#9E221E" d="M408.359,74.115c-0.109-2.768-0.226-5.54-0.338-8.312c7.341,6.156,14.688,12.311,22.031,18.467
			c-1.38,1.817-2.756,3.64-4.13,5.461C420.068,84.526,414.213,79.323,408.359,74.115z"/>
		<path fill="#791A16" d="M415.708,37.965c0.995-3.335,1.993-6.67,2.989-10.005c1.438,0.626,2.866,1.255,4.296,1.885
			C420.562,32.553,418.132,35.258,415.708,37.965z"/>
		<path fill="#721814" d="M415.658,19.698c0.891,1.165,1.784,2.331,2.674,3.496C417.438,22.03,416.549,20.863,415.658,19.698z"/>
		<path fill="#651511" d="M308.898,14.781c-1.029-0.01-2.058-0.022-3.085-0.033C306.84,14.758,307.869,14.769,308.898,14.781z"/>
		<path fill="#721814" d="M412.899,14.5c0.845,1.246,1.687,2.492,2.53,3.738C414.585,16.992,413.74,15.748,412.899,14.5z"/>
		<path fill="#B72824" d="M75.729,22.723c1.897-1.206,3.792-2.409,5.68-3.608C88.245,30.54,94.806,41.5,101.368,52.459
			c-0.479,2.684-0.956,5.365-1.435,8.051c-0.502-0.035-1.004-0.048-1.509-0.041c-0.955,0.62-1.912,1.243-2.869,1.864
			c-1.064,1.6-2.132,3.197-3.197,4.798C86.817,52.325,81.273,37.525,75.729,22.723z"/>
		<path fill="#9E221E" d="M98.426,60.469c0.502-0.007,1.006,0.01,1.508,0.041l0.055,0.067c-0.506,4.923-1.01,9.848-1.515,14.771
			c-0.524,1.663-1.048,3.323-1.573,4.98c-1.515-4.401-3.03-8.8-4.542-13.201c1.065-1.601,2.132-3.194,3.197-4.797
			C96.512,61.712,97.469,61.089,98.426,60.469z"/>
		<path fill="#851C19" d="M461.334,10.013c1.519,0.001,3.037,0.005,4.558,0.006c3.044,4.353,6.089,8.707,9.134,13.059
			c0.439,3.815,0.876,7.629,1.31,11.444c-0.015,0.557-0.033,1.112-0.047,1.668c-1.44,0.023-2.884,0.043-4.32,0.065
			c-3.555-1.697-7.104-3.393-10.655-5.088c-0.007-5.398-0.017-10.8-0.029-16.201C461.303,13.314,461.315,11.664,461.334,10.013z"/>
		<path fill="#5D130E" d="M476.289,36.189c0.018-0.557,0.034-1.112,0.049-1.667c1.63,0,3.258,0,4.885-0.003
			c5.193,7.112,10.382,14.222,15.574,21.333c-2.705-0.508-5.407-1.011-8.104-1.52c-1.443-0.691-2.882-1.384-4.32-2.078
			c-2.045-1.047-4.093-2.084-6.135-3.127c-1.007-3.149-2.008-6.299-3.006-9.449C475.581,38.516,475.934,37.352,476.289,36.189z"/>
		<path fill="#8A1D1A" d="M447.578,26.374c2.537-0.535,5.078-1.07,7.618-1.606c0.562,2.08,1.123,4.158,1.685,6.235
			c-7.172,0.062-14.341,0.125-21.513,0.187c1.024-1.601,2.049-3.203,3.076-4.804c1.021,0.005,2.035,0.01,3.055,0.016
			C443.524,26.39,445.552,26.382,447.578,26.374z"/>
		<path fill="#98211D" d="M456.88,31.002c-0.562-2.079-1.123-4.155-1.685-6.235c2.028-3.267,4.063-6.535,6.089-9.803
			c0.012,5.4,0.021,10.802,0.028,16.201C459.833,31.11,458.357,31.055,456.88,31.002z"/>
		<path fill="#801B17" d="M476.289,36.189c-0.354,1.162-0.708,2.325-1.064,3.49c-1.086-1.139-2.169-2.284-3.256-3.426
			C473.405,36.233,474.848,36.21,476.289,36.189z"/>
		<path fill="#6D1713" d="M635.095,15.043c-0.507,5.462-1.014,10.924-1.52,16.387C623.387,50.539,613.2,69.647,603.01,88.756
			c4.096-15.294,8.193-30.587,12.288-45.878c-2.51-2.684-5.018-5.368-7.53-8.052c-0.535-6.609-1.075-13.215-1.611-19.824
			C615.805,15.018,625.448,15.03,635.095,15.043z"/>
		<path fill="#821C18" d="M615.299,42.876c-4.094,15.293-8.192,30.586-12.288,45.88c-1.031-0.002-2.061-0.007-3.092-0.008
			c1.025-7.102,2.052-14.202,3.078-21.302c0.566-5.985,1.132-11.976,1.699-17.96C608.231,47.284,611.765,45.082,615.299,42.876z"/>
		<path fill="#6C1713" d="M604.697,49.487c-0.567,5.984-1.133,11.975-1.699,17.96c-8.098-11.475-16.199-22.947-24.303-34.42
			c8.641,2.739,17.274,5.481,25.912,8.219C604.635,43.994,604.668,46.742,604.697,49.487z"/>
		<path fill="#8F1F1B" d="M441.499,26.4c-1.02-0.005-2.034-0.01-3.055-0.016C439.464,26.39,440.479,26.395,441.499,26.4z"/>
		<path fill="#8A1D1A" d="M101.766,13.158c2.973,0.511,5.942,1.024,8.915,1.536c1.01,2.25,2.015,4.499,3.025,6.749
			c0.023,1.04,0.046,2.083,0.071,3.126l-0.006-0.059c-0.027,1.072-0.054,2.145-0.083,3.216c0.021,1.653,0.038,3.305,0.056,4.959
			c0,0-0.131,0.286-0.129,0.284c-3.033,2.127-6.066,4.258-9.096,6.387c-0.081-2.716-0.161-5.434-0.239-8.149
			c-0.345-1.707-0.69-3.413-1.037-5.117C102.75,21.78,102.258,17.469,101.766,13.158z"/>
		<path fill="#9E221E" d="M104.518,39.356c3.032-2.131,6.064-4.26,9.096-6.387c0.485,2.187,0.972,4.368,1.461,6.55
			c-5.028,7.02-10.057,14.039-15.084,21.059l-0.054-0.064c0.478-2.686,0.955-5.366,1.433-8.051
			C102.415,48.092,103.468,43.724,104.518,39.356z"/>
		<path fill="#9E221E" d="M103.242,26.09c0.345,1.705,0.691,3.411,1.036,5.117c-0.76-0.627-1.519-1.251-2.448-2.02
			C102.385,27.969,102.813,27.029,103.242,26.09z"/>
		<path fill="#781916" d="M604.697,49.487c-0.028-2.745-0.062-5.493-0.09-8.241c1.055-2.14,2.108-4.282,3.165-6.42
			c2.509,2.685,5.017,5.369,7.527,8.053C611.765,45.082,608.231,47.284,604.697,49.487z"/>
		<path fill="#94201C" d="M113.744,32.686c-0.02-1.654-0.036-3.306-0.055-4.958c0.029-1.072,0.055-2.146,0.081-3.217l0.005,0.059
			c1.489-0.028,2.977-0.055,4.468-0.083c-0.493,2.75-0.987,5.5-1.479,8.252C115.758,32.721,114.749,32.702,113.744,32.686z"/>
		<path fill="#851C19" d="M118.243,24.487c-1.489,0.028-2.979,0.055-4.468,0.083c-0.022-1.042-0.048-2.086-0.071-3.126
			c1.464-1.167,2.93-2.335,4.394-3.503C118.146,20.123,118.194,22.304,118.243,24.487z"/>
		<path fill="#AC2522" d="M99.99,60.578c5.028-7.017,10.056-14.038,15.084-21.059c1.098,2.093,2.202,4.183,3.301,6.273
			c-0.045,0.561-0.09,1.122-0.135,1.681c-3.534,12.557-7.064,25.112-10.597,37.667c-3.056-3.262-6.114-6.526-9.17-9.792
			C98.979,70.425,99.483,65.504,99.99,60.578z"/>
		<path fill="#98211D" d="M118.242,47.474c0.043-0.56,0.09-1.121,0.135-1.68c0.918,1.15,1.835,2.303,2.752,3.454
			C120.165,48.657,119.202,48.064,118.242,47.474z"/>
		<path fill="#791A16" d="M505.528,70.667c7.104,4.352,14.212,8.709,21.316,13.059c-4.066,2.196-8.132,4.39-12.198,6.582
			C511.609,83.759,508.567,77.211,505.528,70.667z"/>
		<path fill="#721814" d="M488.689,54.333c2.7,0.508,5.402,1.014,8.103,1.521c0.865,1.118,1.729,2.232,2.59,3.346
			C495.817,57.582,492.255,55.955,488.689,54.333z"/>
		<path fill="#6C1713" d="M481.222,34.52c-1.627,0.001-3.255,0.003-4.885,0.003c-0.439-3.816-0.877-7.63-1.312-11.445
			c1.026-0.11,2.047-0.218,3.074-0.331C479.142,26.67,480.182,30.594,481.222,34.52z"/>
		<path fill="#801B17" d="M392.75,41.081c4.028,7.137,8.057,14.27,12.087,21.404c0.018,1.586,0.033,3.17,0.053,4.753l-0.107,0.113
			c-12.504-7.412-25.011-14.824-37.516-22.235c4.25-4.669,8.499-9.337,12.746-14.005C384.261,34.433,388.505,37.757,392.75,41.081z"
			/>
		<polygon fill="#8A1D1A" points="404.889,67.238 405.058,67.677 404.786,67.348 		"/>
		<path fill="#AC2522" d="M98.426,60.469c-0.957,0.62-1.914,1.243-2.869,1.864C96.514,61.712,97.47,61.089,98.426,60.469z"/>
		<path fill="#791A16" d="M113.77,24.51c-0.026,1.072-0.052,2.145-0.081,3.217C113.715,26.655,113.744,25.583,113.77,24.51z"/>
	</g>
</g>
<g opacity="0.5">
	<g>
		<path fill="#BF2A26" d="M20.788,9.781c16.77,0.012,33.54,0.022,50.308,0.033c-0.016,1.647-0.036,3.294-0.052,4.941
			c-10.325,2.324-20.649,4.651-36.865,8.3C47.62,32.929,58.322,40.792,71.3,50.324c0,0.236-0.003,4.97-0.006,10.09
			c2.868,0.308,5.279,0.567,9.002,0.966c0.982,12.357,1.958,24.647,2.934,36.939c-12.196-0.008-24.392-0.015-36.588-0.024
			c-7.104-4.393-14.208-8.78-21.313-13.17c-1.822-19.916-3.642-39.832-5.968-65.285c7.345,2.547,4.564,1.584,1.422,0.494
			C20.783,16.675,20.785,13.228,20.788,9.781z M79.971,91.959c-5.262-9.119-6.751-15.08-9.439-15.789
			c-13.458-3.547-27.227-5.714-40.889-8.368c-0.39,1.962-0.78,3.929-1.17,5.887C43.699,79.093,58.924,84.494,79.971,91.959z"/>
		<path fill="#761915" d="M497.945,10.095c1.018,0,2.03,0.001,3.048,0.001c0.722,2.028,1.446,4.058,2.357,6.629
			c3.988-3.888,5.39-5.258,6.792-6.625c22.359,0.015,44.716,0.03,67.075,0.044c-4.069,13.12-8.14,26.24-12.204,39.359
			c-2.022-1.146-4.054-2.294-6.084-3.439c-0.018-2.104-0.036-4.21-0.052-6.316c-0.566-7.771-1.13-15.542-1.694-23.31
			c-4.969,1.303-9.933,2.603-14.906,3.906c3.526,5.848,7.048,11.696,10.572,17.544c0.488,2.764,0.976,5.525,1.458,8.29
			c0,1.094-0.002,2.187-0.007,3.282c-5.585,8.739-11.173,17.479-16.758,26.221c-0.004,3.82-0.007,7.639-0.011,11.461
			c-1.553,0.566-3.106,1.13-4.661,1.696c-0.99-0.034-1.983-0.071-2.979-0.105c0.838-5.516,1.68-11.026,2.475-16.24
			c-8.008-4.328-14.902-8.058-22.6-12.219c-1.178,3.04-2.009,5.187-2.837,7.332c-1.922-1.162-3.843-2.321-5.765-3.483
			c-1.06-12.002-2.121-24.005-3.181-36.009c-2.016-2.773-4.032-5.547-6.044-8.32C493.938,16.558,495.94,13.325,497.945,10.095z"/>
		<path fill="#8A1D1A" d="M215.919,9.909c14.736,0.01,29.473,0.02,44.209,0.03c0.989,4.379,1.979,8.759,2.969,13.137
			c-10.478,3.301-20.954,6.603-35,11.029c-0.015,20.012-0.031,42.162-0.046,64.307c-5.589-0.003-11.179-0.005-16.768-0.011
			c-6.118-11.513-12.239-23.029-18.356-34.546c0.54-4.874,1.079-9.748,1.616-14.625C201.671,36.124,208.793,23.016,215.919,9.909z"
			/>
		<path fill="#791A16" d="M263.097,23.074c-0.989-4.377-1.979-8.758-2.969-13.137c3.558,0.001,7.114,0.004,10.673,0.006
			c5.588,1.643,11.177,3.284,16.767,4.926c4.561,1.126,9.118,2.25,13.679,3.376c1.538,0.529,3.078,1.059,4.619,1.584
			c2.55,20.205,5.099,40.405,7.647,60.61c-0.018,1.086-0.036,2.173-0.051,3.26c-2.554,4.92-5.106,9.841-7.659,14.761
			c-7.115-0.005-14.229-0.009-21.344-0.016c0.034-1.104,0.069-2.21,0.102-3.313c-1.022-3.276-2.047-6.547-3.068-9.821
			c-1.027-4.366-2.058-8.732-3.085-13.1c-5.038-14.24-10.074-28.484-15.109-42.725C263.229,27.35,263.163,25.212,263.097,23.074z"/>
		<path fill="#681611" d="M313.46,83.703c0.017-1.086,0.034-2.173,0.05-3.26c-0.475-11.82-0.95-23.64-1.407-35
			c11.192-1.708,19.966-3.044,30.837-4.701c4.635,3.534,11.188,8.533,17.74,13.53c4.063,7.107,8.121,14.214,12.181,21.321
			c0.011,1.083,0.025,2.168,0.035,3.25c-6.593,0.85-13.188,1.7-19.784,2.551c-0.532-2.281-1.063-4.561-1.592-6.842
			c-6.62,3.955-13.242,7.911-31.637,18.908c17.536-3.919,22.129-4.948,29.675-6.634c0.553,3.263,1.265,7.466,1.977,11.669
			c-11.179-0.01-22.359-0.017-33.539-0.025C316.484,93.55,314.972,88.626,313.46,83.703z"/>
		<path fill="#9E221E" d="M139.695,9.86c5.588,0.003,11.178,0.007,16.768,0.009c6.089,7.645,12.179,15.288,18.27,22.932
			c-9.216,14.238-18.437,28.477-29.286,45.229c-0.61-1.416,0.622,1.451,0.401,0.935c0.641,8.831,1.024,14.109,1.408,19.394
			c-5.59-0.004-11.178-0.007-16.769-0.014c0.337-6.159,0.676-12.32,0.939-17.13c-3.177-6.482-5.833-11.911-8.492-17.334
			c2.192,0.995,4.384,1.991,18.456,8.391c-11.131-9.323-12.504-10.478-13.879-11.629c0.026-3.293,0.051-6.587,0.074-9.873
			c6.695-3.492,13.387-6.982,13.691-7.139C140.499,26.989,140.097,18.424,139.695,9.86z"/>
		<path fill="#5A130F" d="M732.65,98.744c-7.115-0.004-14.229-0.01-21.342-0.014c-2.876-4.648-5.75-9.297-8.347-13.498
			c-5.725,1.438-10.118,2.546-14.515,3.654c-0.505-1.643-1.012-3.281-1.516-4.925c-0.014-2.723-0.022-5.454-0.036-8.18
			c-1.014-9.84-2.027-19.677-3.04-29.513c-0.037-3.798-0.073-7.597-0.11-11.396c-1.462-8.22-2.926-16.439-4.387-24.66
			c5.59,0.003,11.175,0.007,16.767,0.012c0.535,3.291,1.062,6.583,1.597,9.872c-0.012,1.621-0.019,3.242-0.025,4.861
			c2.016,6.015,4.023,12.029,6.037,18.046c0.011,1.088,0.021,2.175,0.027,3.263c1,1.104,1.998,2.21,2.994,3.315
			c0.021,1.08,0.036,2.163,0.054,3.244C715.418,68.132,724.036,83.439,732.65,98.744z"/>
		<path fill="#98211D" d="M278.406,72.214c1.027,4.363,2.058,8.729,3.084,13.096c1.022,3.274,2.048,6.547,3.071,9.823
			c-0.035,1.105-0.069,2.209-0.103,3.312c-10.671-0.007-21.344-0.013-32.015-0.023c-3.185-18.882-6.372-37.771-10.43-61.818
			c14.751,3.135,17.938,3.814,21.124,4.492C268.227,51.471,273.315,61.842,278.406,72.214z"/>
		<path fill="#8A1D1A" d="M430.807,98.545c-11.18-0.007-22.359-0.015-33.539-0.021c1.505-6.572,3.005-13.145,4.513-19.717
			c2.205,0.097,4.407,0.189,6.609,0.285c5.854,5.205,11.708,10.407,17.564,15.61c1.376-1.821,2.749-3.642,4.127-5.461
			c-7.344-6.154-14.686-12.31-22.028-18.464c-0.123-1.187-0.244-2.366-0.367-3.549c2.684-8.096,5.368-16.194,8.055-24.291
			c2.426-2.706,4.854-5.413,7.283-8.119c2.59,0.469,5.178,0.937,7.765,1.406c3.077,4.377,6.151,8.755,9.227,13.132
			c2.017,8.205,4.038,16.408,6.055,24.612C440.982,82.167,435.895,90.355,430.807,98.545z"/>
		<path fill="#99211D" d="M147.256,98.361c-0.384-5.283-0.767-10.564-1.408-19.392c0.221,0.513-1.014-2.354-0.401-0.935
			c10.851-16.757,20.069-30.993,29.287-45.23c1.018,0.003,2.034,0.008,3.051,0.013c1.606,5.637,3.215,11.272,4.729,16.585
			c-2.548,2.497-4.384,4.302-7.7,7.548c3.478,2.705,6.367,4.955,9.229,7.186c4.241-6.021,7.371-10.461,10.499-14.902
			c-0.537,4.877-1.076,9.753-1.616,14.628c-0.534,3.342-1.07,6.683-1.607,10.022c-3.332-0.909-6.663-1.812-10.84-2.948
			c-3.566,9.447-6.961,18.444-10.357,27.438C162.5,98.368,154.878,98.364,147.256,98.361z"/>
		<path fill="#5D130E" d="M305.865,19.833c-1.542-0.529-3.081-1.059-4.62-1.587c-1.51-2.762-3.02-5.522-4.528-8.284
			c37.604,0.025,75.207,0.049,112.811,0.074c1.136,3.146,2.272,6.294,3.405,9.439c0.842,1.246,1.688,2.492,2.528,3.736
			c0.083,0.485,0.162,0.973,0.231,1.461c0.891,1.166,1.781,2.331,2.672,3.496c-0.023,1.638-0.042,3.275-0.062,4.911
			c-11.038-2.244-22.084-4.486-33.121-6.729c-14.232-1.604-28.463-3.209-42.693-4.816c-11.185-0.593-22.37-1.188-33.556-1.779
			c-1.026-0.01-2.056-0.023-3.084-0.033L305.865,19.833z"/>
		<path fill="#C62C28" d="M83.229,98.318c-0.978-12.293-1.952-24.582-2.934-36.94c-3.723-0.398-6.134-0.656-9.002-0.967
			c0.003-5.118,0.006-9.853,0.006-10.088c-12.978-9.533-23.68-17.394-37.122-27.27c16.216-3.651,26.541-5.975,36.865-8.3
			c1.574,4.315,3.147,8.628,4.72,12.943C81.307,42.498,86.85,57.3,92.393,72.101c1.513,4.402,3.028,8.803,4.543,13.206
			c1.02,4.34,2.041,8.682,3.063,13.021C94.409,98.325,88.819,98.322,83.229,98.318z"/>
		<path fill="#921F1B" d="M263.136,41.1c-3.185-0.677-6.371-1.355-21.124-4.491c4.059,24.048,7.246,42.934,10.432,61.82
			c-8.13-0.007-16.261-0.01-24.393-0.018c0.015-22.147,0.031-44.294,0.046-64.308c14.047-4.426,24.524-7.729,35-11.029
			c0.065,2.139,0.13,4.276,0.196,6.415C263.242,33.36,263.19,37.23,263.136,41.1z"/>
		<path fill="#B72824" d="M20.788,9.781c-0.001,3.449-0.005,6.896-0.006,10.554c3.143,1.09,5.923,2.053-1.422-0.494
			c2.326,25.451,4.146,45.367,5.968,65.283c-8.134-2.72-16.269-5.441-24.403-8.162C0.94,54.563,0.957,32.168,0.972,9.771
			C7.577,9.771,14.182,9.776,20.788,9.781z"/>
		<path fill="#721814" d="M686.931,83.961c0.504,1.644,1.011,3.282,1.516,4.921c0,3.274-0.004,6.553-0.007,9.831
			c-6.099-0.004-12.193-0.007-18.292-0.014c-35.944-25.587-14.688-57.974-9.084-88.5c3.052,0.001,6.102,0.003,9.149,0.006
			c-2.843,14.529-5.687,29.055-8.526,43.579c2.482,0.645,4.967,1.286,7.448,1.93c-0.722,2.834-1.447,5.673-3.216,12.59
			C672.276,73.046,679.602,78.504,686.931,83.961z"/>
		<path fill="#651511" d="M697.716,20.097c-0.53-3.292-1.06-6.582-1.592-9.872c6.098,0.003,12.193,0.008,18.295,0.011
			c8.628,13.661,17.256,27.325,25.886,40.986c-0.009,13.111,0.429,26.253-0.374,39.308c-0.178,2.896-4.737,5.482-7.281,8.213
			c-8.614-15.305-17.231-30.611-25.845-45.917c6.561,7.819,13.119,15.639,19.684,23.457c2.985-2.599,5.972-5.198,8.952-7.798
			C722.87,52.356,710.291,36.227,697.716,20.097z"/>
		<path fill="#791A16" d="M440.015,49.36c-3.075-4.377-6.149-8.753-9.227-13.132c1.539-0.021,3.077-0.044,4.614-0.065
			c7.171-0.063,14.339-0.124,21.509-0.187c1.479,0.054,2.956,0.108,4.436,0.163c3.551,1.697,7.099,3.392,10.65,5.089
			c1.088,1.142,2.174,2.286,3.261,3.426c1,3.149,2.004,6.298,3.006,9.448c-1.068,3.911-2.141,7.819-3.208,11.73
			c-7.131,10.907-14.254,21.817-21.383,32.727c-7.622-0.003-15.247-0.011-22.869-0.015c5.09-8.191,10.175-16.381,15.265-24.573
			c4.318-4.114,8.639-8.229,15.463-14.729C452.427,55.062,446.22,52.208,440.015,49.36z"/>
		<path fill="#781916" d="M661.061,10.201c-5.603,30.527-26.861,62.912,9.085,88.503c-1.524,0-3.049-0.004-4.572-0.004
			c-0.852-1.588-1.702-3.175-3.711-6.927c-2.15,3.8-3.029,5.362-3.915,6.922c-5.587-0.004-11.174-0.007-16.767-0.01
			c-1.919-9.696-3.841-19.396-6.063-30.622c1.025-9.502,2.042-18.943,3.055-28.383c2.498,2.351,4.99,4.702,10.665,10.047
			c0.013-15.825,0.024-27.681,0.034-39.534C652.933,10.196,656.996,10.199,661.061,10.201z"/>
		<path fill="#7E1B17" d="M638.172,39.68c-1.013,9.441-2.03,18.881-3.055,28.383c2.223,11.227,4.142,20.926,6.059,30.622
			c-14.227-0.01-28.451-0.02-42.678-0.029c0.48-1.646,0.965-3.288,1.45-4.934c1.028,0,2.063,0.007,3.088,0.007
			c10.192-19.108,20.377-38.217,30.566-57.327C635.129,37.495,636.651,38.586,638.172,39.68z"/>
		<path fill="#6C1713" d="M686.931,83.961c-7.329-5.457-14.655-10.915-21.019-15.657c1.769-6.918,2.494-9.753,3.216-12.591
			c-2.482-0.645-4.967-1.285-7.451-1.929c2.847-14.526,5.689-29.054,8.528-43.581c1.521,0,3.052,0.001,4.569,0.001
			c2.988,8.222,5.974,16.443,8.963,24.662c0.037,3.8,0.073,7.599,0.109,11.396c1.017,9.835,2.027,19.673,3.041,29.51
			C686.909,78.507,686.917,81.235,686.931,83.961z"/>
		<path fill="#721814" d="M599.949,93.722c-0.484,1.646-0.966,3.288-1.45,4.934c-7.116-0.006-14.229-0.009-21.345-0.016
			c-0.991-14.207-1.984-28.417-2.976-42.628c-1.004-1.101-2.009-2.2-3.008-3.298c1.997-6.54,3.987-13.08,5.98-19.62
			c0.529,1.634,1.053,3.27,1.576,4.904c8.102,11.473,16.206,22.946,24.303,34.421C602.004,79.519,600.977,86.62,599.949,93.722z"/>
		<path fill="#94201C" d="M435.403,36.163c-1.537,0.021-3.075,0.045-4.614,0.065c-2.587-0.469-5.175-0.937-7.762-1.408
			c-1.432-0.629-2.863-1.259-4.294-1.884l-0.435,0.144c0.02-1.636,0.042-3.273,0.067-4.911c-0.893-1.166-1.783-2.33-2.676-3.495
			c-0.068-0.488-0.148-0.976-0.229-1.461c-0.844-1.245-1.686-2.491-2.53-3.736c-1.133-3.145-2.27-6.292-3.405-9.439
			c14.227,0.01,28.458,0.019,42.685,0.028c-1.534,7.096-3.068,14.189-4.603,21.285c-2.023,0.008-4.053,0.017-6.076,0.026
			c-1.024-0.005-2.038-0.009-3.056-0.014C437.449,32.96,436.426,34.561,435.403,36.163z"/>
		<path fill="#AC2522" d="M75.761,27.699c-1.571-4.315-3.145-8.63-4.72-12.944c0.019-1.647,0.036-3.294,0.053-4.941
			c10.672,0.007,21.343,0.015,32.013,0.021c-0.438,2.767-0.874,5.532-1.311,8.298c0.493,4.311,0.986,8.622,1.478,12.932
			c-0.428,0.94-0.857,1.878-1.413,3.098c0.929,0.768,1.688,1.393,2.445,2.019c0.08,2.715,0.161,5.433,0.241,8.15
			c-1.05,4.367-2.101,8.735-3.151,13.103c-6.559-10.96-13.12-21.92-19.956-33.345C79.553,25.29,77.658,26.493,75.761,27.699z"/>
		<path fill="#681611" d="M578.727,38.002c-0.523-1.635-1.05-3.27-1.576-4.903c1.543-7.65,3.091-15.3,4.635-22.949
			c0.51,0,1.021,0,1.521,0c7.628,3.277,15.251,6.552,22.88,9.828c0.536,6.609,1.075,13.216,1.611,19.823
			c-1.054,2.14-2.109,4.28-3.165,6.422C596.004,43.483,587.366,40.74,578.727,38.002z"/>
		<path fill="#A72421" d="M139.695,9.86c0.4,8.564,0.803,17.129,1.581,33.773c-0.304,0.158-6.997,3.649-13.691,7.14
			c-3.597-4.354-7.193-8.707-10.789-13.059c0.494-2.752,0.987-5.502,1.479-8.253c-0.049-2.184-0.097-4.365-0.146-6.547
			c0.037-1.099,0.074-2.197,0.112-3.294c1.053-3.258,2.107-6.517,3.16-9.773C127.501,9.852,133.599,9.855,139.695,9.86z"/>
		<path fill="#8F1F1B" d="M475.06,65.833c1.066-3.909,2.136-7.82,3.204-11.729c2.044,1.044,4.091,2.084,6.139,3.125
			c4.251,8.576,8.5,17.158,12.223,24.675c-3.588,6.357-6.501,11.518-9.413,16.679c-6.1-0.004-12.196-0.007-18.295-0.01
			C470.963,87.66,473.012,76.746,475.06,65.833z"/>
		<path fill="#791A16" d="M537.542,75.68c5.585-8.738,11.173-17.478,16.763-26.22c2.985,3.91,5.969,7.823,9.377,12.285
			c-1.046,11.682-2.171,24.282-3.299,36.885c-7.111-0.003-14.227-0.007-21.339-0.014c0.03-1.118,0.055-2.237,0.085-3.355
			c4.861-9.569,9.72-19.137,14.579-28.703c-1.968-1.278-3.94-2.553-5.911-3.829C544.378,67.045,540.958,71.364,537.542,75.68z"/>
		<path fill="#94201C" d="M194.545,49.23c-3.13,4.442-6.258,8.883-10.499,14.902c-2.863-2.227-5.751-4.477-9.229-7.185
			c3.314-3.25,5.149-5.051,7.7-7.549c-1.515-5.312-3.124-10.948-4.73-16.584c2.537,0.595,5.072,1.191,7.608,1.788
			c2.2,1.173,4.403,2.349,6.132,3.271c2.762-10.137,5.195-19.055,7.625-27.974c5.589,0.003,11.178,0.007,16.77,0.012
			C208.793,23.016,201.671,36.124,194.545,49.23z"/>
		<path fill="#A72421" d="M122.937,63.881c2.656,5.426,5.314,10.852,8.49,17.334c-0.263,4.813-0.6,10.971-0.939,17.13
			c-7.115-0.005-14.228-0.01-21.342-0.014c-0.499-1.637-0.999-3.272-1.497-4.907c0.011-1.104,0.019-2.207,0.029-3.313
			c3.532-12.554,7.064-25.11,10.596-37.667c0.96,0.59,1.924,1.183,2.886,1.773c0.684,2.102,1.365,4.201,2.047,6.305
			C123.116,61.643,123.025,62.762,122.937,63.881z"/>
		<path fill="#57120E" d="M740.305,51.223c-8.63-13.661-17.258-27.325-25.886-40.986c5.589,0.003,11.18,0.007,16.769,0.011
			c3.045,3.28,6.094,6.561,9.138,9.84C740.319,30.463,740.312,40.843,740.305,51.223z"/>
		<path fill="#6C1713" d="M351.535,98.496c-0.712-4.201-1.424-8.406-1.977-11.669c-7.546,1.688-12.139,2.715-29.675,6.634
			c18.395-10.997,25.017-14.953,31.637-18.906c0.532,2.28,1.06,4.559,1.592,6.843c6.596-0.854,13.188-1.701,19.787-2.554
			c2.025,6.557,4.052,13.113,6.077,19.668C369.829,98.504,360.68,98.502,351.535,98.496z"/>
		<path fill="#851C19" d="M487.212,98.583c2.912-5.161,5.825-10.321,9.413-16.682c-3.723-7.517-7.972-16.096-12.226-24.673
			c1.442,0.696,2.883,1.387,4.32,2.078c3.566,1.624,7.132,3.245,10.696,4.87c0.586-0.02,1.167-0.036,1.752-0.057
			c1.919,1.161,3.84,2.322,5.762,3.482c-0.456,2.682-0.915,5.357-1.371,8.037c3.041,6.546,6.08,13.093,9.117,19.64
			c-0.007,1.107-0.015,2.215-0.029,3.319C505.505,98.595,496.358,98.588,487.212,98.583z"/>
		<path fill="#851C19" d="M560.383,98.63c1.128-12.6,2.253-25.203,3.299-36.885c-3.408-4.462-6.392-8.375-9.377-12.285
			c0-1.095,0.002-2.188,0.002-3.281c1.542-0.04,3.083-0.076,4.622-0.113c2.03,1.146,4.062,2.294,6.084,3.438
			c2.052,1.07,4.105,2.141,6.157,3.213c1.002,1.098,2.007,2.197,3.004,3.299c-2.054,14.207-4.111,28.414-6.165,42.621
			C565.467,98.637,562.925,98.633,560.383,98.63z"/>
		<path fill="#821C18" d="M475.06,65.833c-2.048,10.912-4.097,21.826-6.143,32.739c-5.081-0.004-10.163-0.007-15.244-0.01
			C460.802,87.65,467.93,76.742,475.06,65.833z"/>
		<path fill="#791A16" d="M378.976,98.511c-2.025-6.555-4.052-13.115-6.077-19.668c-0.013-1.086-0.027-2.169-0.037-3.252
			c9.639,1.072,19.277,2.145,28.919,3.217c-1.506,6.572-3.004,13.145-4.513,19.717C391.169,98.518,385.072,98.514,378.976,98.511z"
			/>
		<path fill="#801B17" d="M191.321,73.881c0.536-3.34,1.072-6.681,1.607-10.024c6.117,11.515,12.239,23.031,18.355,34.544
			c-7.116-0.004-14.229-0.01-21.343-0.013C190.401,90.219,190.862,82.048,191.321,73.881z"/>
		<path fill="#781916" d="M606.193,19.977c-7.628-3.276-15.251-6.551-22.88-9.828c18.804,0.014,37.606,0.025,56.405,0.039
			c-1.527,3.276-3.062,6.555-4.59,9.831C625.483,20.004,615.837,19.992,606.193,19.977z"/>
		<path fill="#A52420" d="M191.321,73.881c-0.459,8.167-0.92,16.338-1.38,24.507c-6.606-0.005-13.214-0.011-19.818-0.015
			c3.396-8.997,6.792-17.995,10.358-27.44C184.657,72.07,187.988,72.975,191.321,73.881z"/>
		<path fill="#9E221E" d="M0.924,76.959c8.134,2.721,16.269,5.44,24.403,8.162c7.104,4.392,14.209,8.778,21.314,13.173
			c-9.655-0.007-19.309-0.014-28.964-0.023c-5.586-4.374-11.173-8.747-16.76-13.121C0.917,82.421,0.922,79.692,0.924,76.959z"/>
		<path fill="#801B17" d="M635.128,20.019c1.527-3.276,3.06-6.555,4.59-9.831c3.05,0.001,6.099,0.003,9.15,0.005
			c-0.012,11.854-0.019,23.709-0.031,39.534c-5.679-5.348-8.17-7.698-10.665-10.047c-1.521-1.093-3.043-2.185-4.566-3.276
			C634.112,30.942,634.619,25.479,635.128,20.019z"/>
		<path fill="#99211D" d="M199.149,9.897c-2.433,8.919-4.863,17.839-7.626,27.975c-1.729-0.923-3.93-2.098-6.13-3.273
			c-2.529-8.239-5.057-16.477-7.586-24.716C184.921,9.889,192.037,9.894,199.149,9.897z"/>
		<path fill="#A52420" d="M177.807,9.884c2.528,8.24,5.055,16.477,7.586,24.717c-2.536-0.596-5.072-1.192-7.608-1.787
			c-1.019-0.005-2.035-0.008-3.05-0.013c-6.089-7.645-12.179-15.288-18.269-22.932C163.581,9.874,170.692,9.88,177.807,9.884z"/>
		<path fill="#791A16" d="M568.009,98.637c2.054-14.207,4.111-28.414,6.165-42.621c0.995,14.21,1.988,28.417,2.979,42.627
			C574.105,98.64,571.057,98.64,568.009,98.637z"/>
		<path fill="#801B17" d="M571.17,52.715c-2.052-1.071-4.105-2.142-6.157-3.212c4.063-13.119,8.135-26.238,12.204-39.359
			c1.52,0.002,3.047,0.002,4.568,0.003c-1.544,7.649-3.092,15.299-4.635,22.948C575.155,39.636,573.164,46.177,571.17,52.715z"/>
		<path fill="#651511" d="M688.44,98.713c0.003-3.278,0.007-6.557,0.007-9.831c4.396-1.104,8.79-2.215,14.515-3.654
			c2.597,4.202,5.471,8.847,8.347,13.498C703.685,98.723,696.063,98.719,688.44,98.713z"/>
		<path fill="#651511" d="M683.745,34.871c-2.989-8.219-5.975-16.441-8.963-24.663c1.524,0.001,3.047,0.001,4.576,0.003
			C680.819,18.432,682.283,26.653,683.745,34.871z"/>
		<path fill="#8F1F1B" d="M465.932,10.073c3.554,0.001,7.112,0.005,10.67,0.006c0.489,4.477,0.974,8.955,1.459,13.429
			c0.023,1.401,0.043,2.806,0.068,4.211c-1.023,0.113-2.046,0.222-3.075,0.332c-3.04-4.353-6.09-8.707-9.133-13.059
			C465.925,13.354,465.928,11.713,465.932,10.073z"/>
		<path fill="#801B17" d="M313.46,83.703c1.512,4.924,3.023,9.848,4.536,14.77c-4.064-0.003-8.129-0.006-12.196-0.009
			C308.354,93.543,310.906,88.623,313.46,83.703z"/>
		<path fill="#8F1F1B" d="M447.608,31.347c1.534-7.095,3.068-14.188,4.603-21.284c2.031,0.001,4.065,0.001,6.096,0.003
			c1.021,1.64,2.041,3.278,3.059,4.919c-0.015,1.65-0.029,3.302-0.046,4.952c-2.028,3.269-4.063,6.537-6.089,9.803
			C452.688,30.277,450.146,30.813,447.608,31.347z"/>
		<path fill="#821C18" d="M514.65,98.602c0.012-1.108,0.02-2.216,0.026-3.32c4.069-2.194,8.136-4.388,12.2-6.581
			c1.007,0.011,2.012,0.021,3.016,0.031c0.995,0.035,1.988,0.074,2.979,0.106c0.534,3.259,1.066,6.517,1.6,9.775
			C527.865,98.61,521.256,98.604,514.65,98.602z"/>
		<path fill="#B72824" d="M0.916,85.153c5.586,4.374,11.173,8.747,16.76,13.122C12.091,93.9,6.502,89.527,0.916,85.153z"/>
		<path fill="#B72824" d="M107.676,90.116c-0.01,1.104-0.018,2.208-0.029,3.312c-0.517,1.634-1.034,3.27-1.552,4.904
			c-2.032-0.002-4.065-0.002-6.099-0.004c-1.021-4.339-2.042-8.681-3.062-13.021c0.524-1.663,1.048-3.32,1.571-4.981
			C101.563,83.587,104.622,86.853,107.676,90.116z"/>
		<path fill="#791A16" d="M118.242,19.62c-0.038,1.097-0.075,2.195-0.11,3.294c-1.465,1.167-2.93,2.334-4.394,3.505
			c-1.007-2.252-2.015-4.501-3.025-6.75c-1.009-3.278-2.02-6.555-3.031-9.833c3.048,0.001,6.1,0.003,9.147,0.008
			C117.299,13.104,117.772,16.362,118.242,19.62z"/>
		<path fill="#761915" d="M478.061,23.512c-0.485-4.476-0.967-8.954-1.454-13.433c2.54,0.002,5.077,0.004,7.617,0.005
			c-0.022,2.195-0.044,4.389-0.073,6.582C482.125,18.95,480.093,21.229,478.061,23.512z"/>
		<path fill="#6C1713" d="M287.566,14.871c-5.588-1.643-11.177-3.283-16.767-4.926c5.59,0.004,11.179,0.008,16.769,0.012
			c0.009,1.081,0.017,2.162,0.026,3.244C287.584,13.756,287.577,14.313,287.566,14.871z"/>
		<path fill="#6D1713" d="M740.326,20.086c-3.044-3.28-6.093-6.56-9.138-9.84C734.233,13.526,737.282,16.806,740.326,20.086z"/>
		<path fill="#651511" d="M287.566,14.871c0.009-0.558,0.019-1.115,0.028-1.672c1.517-1.079,3.033-2.161,4.547-3.241
			c1.525,0,3.049,0.002,4.575,0.002c1.508,2.762,3.019,5.522,4.527,8.284C296.684,17.121,292.126,15.997,287.566,14.871z"/>
		<path fill="#94201C" d="M107.681,9.836c1.011,3.278,2.021,6.555,3.031,9.833c-2.972-0.514-5.941-1.024-8.915-1.536
			c0.438-2.767,0.873-5.531,1.312-8.298C104.633,9.835,106.158,9.836,107.681,9.836z"/>
		<path fill="#721814" d="M534.47,98.614c-0.533-3.259-1.065-6.517-1.6-9.775c1.555-0.563,3.108-1.131,4.661-1.696
			c0.535,2.704,1.063,5.412,1.598,8.119c-0.033,1.118-0.055,2.237-0.089,3.355C537.52,98.616,535.995,98.614,534.47,98.614z"/>
		<path fill="#821C18" d="M497.945,10.095c-2.005,3.232-4.007,6.463-6.008,9.698c-1.034-0.58-2.07-1.161-3.104-1.742
			c0.007-0.444,0.007-0.887,0.004-1.331c1.005-2.209,2.007-4.421,3.012-6.63C493.879,10.091,495.914,10.093,497.945,10.095z"/>
		<path fill="#94201C" d="M491.848,10.089c-1.005,2.209-2.011,4.42-3.012,6.63c-1.561-0.018-3.122-0.036-4.686-0.053
			c0.027-2.193,0.051-4.387,0.073-6.582C486.764,10.086,489.306,10.088,491.848,10.089z"/>
		<path fill="#851C19" d="M118.242,19.62c-0.471-3.258-0.944-6.518-1.414-9.776c1.523,0,3.048,0.001,4.574,0.002
			C120.35,13.104,119.297,16.362,118.242,19.62z"/>
		<path fill="#821C18" d="M510.142,10.101c-1.402,1.367-2.804,2.737-6.792,6.625c-0.911-2.571-1.636-4.601-2.357-6.629
			C504.041,10.098,507.093,10.099,510.142,10.101z"/>
		<path fill="#8A1D1A" d="M461.365,14.986c-1.018-1.639-2.038-3.277-3.059-4.918c2.542,0.001,5.083,0.003,7.626,0.005
			c-0.004,1.641-0.007,3.281-0.007,4.92C464.404,14.991,462.885,14.988,461.365,14.986z"/>
		<path fill="#791A16" d="M657.948,98.695c0.886-1.56,1.765-3.122,3.911-6.922c2.016,3.751,2.866,5.339,3.715,6.927
			C663.032,98.7,660.492,98.698,657.948,98.695z"/>
		<path fill="#5D130E" d="M292.141,9.96c-1.517,1.081-3.032,2.162-4.547,3.24c-0.01-1.082-0.018-2.163-0.026-3.244
			C289.092,9.957,290.618,9.958,292.141,9.96z"/>
		<path fill="#AC2522" d="M106.095,98.333c0.518-1.635,1.035-3.271,1.552-4.904c0.499,1.634,0.998,3.27,1.497,4.906
			C108.129,98.334,107.111,98.334,106.095,98.333z"/>
		<path fill="#C62C28" d="M79.971,91.959c-21.048-7.469-36.273-12.87-51.499-18.271c0.39-1.958,0.78-3.925,1.17-5.887
			c13.66,2.654,27.431,4.821,40.889,8.368C73.22,76.879,74.709,82.843,79.971,91.959z"/>
		<path fill="#8A1D1A" d="M484.151,16.667c1.563,0.017,3.125,0.035,4.686,0.053c0.003,0.444,0.003,0.887-0.004,1.333
			c0.568,3.186,1.134,6.373,1.786,10.052c3.105,0.001,5.234,0.003,7.366,0.005c1.06,12.005,2.121,24.007,3.181,36.009
			c-0.582,0.019-1.166,0.035-1.749,0.056c-0.863-1.114-1.728-2.229-2.584-3.345c-5.197-7.112-10.381-14.226-15.577-21.337
			c-1.037-3.925-2.08-7.849-3.126-11.776c-0.022-1.403-0.04-2.806-0.068-4.208C480.093,21.229,482.125,18.95,484.151,16.667z"/>
		<path fill="#681611" d="M552.849,37.889c-3.524-5.848-7.05-11.696-10.575-17.544c4.969-1.303,9.94-2.603,14.906-3.906
			c0.564,7.769,1.126,15.54,1.694,23.31C556.867,39.126,554.858,38.508,552.849,37.889z"/>
		<path fill="#721814" d="M529.892,88.732c-1.004-0.01-2.009-0.021-3.016-0.031c-7.104-4.351-14.211-8.708-21.317-13.062
			c0.46-2.68,0.915-5.36,1.375-8.037c0.824-2.143,1.659-4.288,2.836-7.329c7.697,4.161,14.596,7.891,22.6,12.219
			C531.572,77.708,530.73,83.216,529.892,88.732z"/>
		<path fill="#821C18" d="M539.129,95.261c-0.529-2.707-1.063-5.415-1.594-8.119c0.003-3.822,0.007-7.64,0.01-11.462
			c3.42-4.316,6.833-8.635,10.252-12.951c1.971,1.276,3.943,2.555,5.911,3.829C548.847,76.125,543.991,85.692,539.129,95.261z"/>
		<path fill="#94201C" d="M497.985,28.11c-2.132-0.001-4.261-0.003-7.366-0.005c-0.652-3.679-1.218-6.864-1.786-10.052
			c1.034,0.579,2.07,1.159,3.104,1.739C493.953,22.563,495.969,25.335,497.985,28.11z"/>
		<path fill="#791A16" d="M552.849,37.889c2.009,0.62,4.018,1.237,6.025,1.859c0.016,2.106,0.037,4.213,0.055,6.316
			c-1.539,0.038-3.08,0.074-4.624,0.113C553.825,43.414,553.337,40.652,552.849,37.889z"/>
		<path fill="#6D1713" d="M308.927,19.755c11.187,0.593,22.371,1.188,33.556,1.778c1.253,4.644,2.505,9.289,3.756,13.932
			c2.476-2.265,4.952-4.532,7.429-6.798c2.339,8.536,4.676,17.07,7.013,25.605c-6.552-4.998-13.105-9.997-17.74-13.531
			c-10.872,1.658-19.646,2.995-30.837,4.701c0.458,11.362,0.933,23.182,1.407,35c-2.549-20.205-5.096-40.406-7.646-60.609
			c0,0.001-0.021-0.11-0.021-0.11C306.871,19.733,307.899,19.745,308.927,19.755z"/>
		<path fill="#8F1F1B" d="M263.136,41.1c0.054-3.869,0.105-7.74,0.158-11.611c5.038,14.24,10.074,28.483,15.111,42.726
			C273.315,61.842,268.227,51.471,263.136,41.1z"/>
		<path fill="#851C19" d="M284.561,95.135c-1.023-3.275-2.049-6.548-3.071-9.821C282.512,88.587,283.538,91.86,284.561,95.135z"/>
		<path fill="#761915" d="M360.683,54.271c-2.337-8.536-4.674-17.071-7.014-25.605c-2.477,2.267-4.953,4.534-7.428,6.798
			c-1.254-4.643-2.506-9.286-3.757-13.932c14.231,1.606,28.464,3.211,42.694,4.816c2.534,6.57,5.068,13.137,7.604,19.705
			c-4.246-3.324-8.489-6.649-12.738-9.971c-4.247,4.67-8.496,9.337-12.744,14.005c12.502,7.412,25.012,14.824,37.516,22.233
			l0.273,0.326l-0.168-0.439c-0.018-1.584-0.037-3.17-0.054-4.75c0.938-0.077,1.877-0.154,2.817-0.23
			c0.123,1.183,0.244,2.361,0.367,3.547c0.114,2.768,0.227,5.544,0.338,8.312c-2.203-0.095-4.405-0.188-6.61-0.283
			c-9.642-1.069-19.28-2.148-28.919-3.218C368.804,68.485,364.743,61.377,360.683,54.271z"/>
		<path fill="#851C19" d="M123.205,60.526c-0.682-2.1-1.363-4.199-2.045-6.304c-0.916-1.153-1.834-2.304-2.75-3.453
			c-1.101-2.092-2.204-4.182-3.305-6.274c-0.487-2.183-0.974-4.364-1.46-6.547l0.13-0.287c1.006,0.017,2.016,0.035,3.021,0.055
			c3.596,4.353,7.192,8.706,10.789,13.059c-0.025,3.291-0.048,6.582-0.074,9.873C126.076,60.603,124.641,60.567,123.205,60.526z"/>
		<path fill="#8F1F1B" d="M123.205,60.526c1.436,0.041,2.871,0.08,4.306,0.12c1.376,1.151,2.75,2.304,13.879,11.626
			c-14.072-6.396-16.264-7.393-18.456-8.388C123.025,62.762,123.116,61.643,123.205,60.526z"/>
		<path fill="#6D1713" d="M697.716,20.097c12.574,16.131,25.153,32.259,37.725,48.389c-2.98,2.6-5.967,5.199-8.952,7.798
			c-6.564-7.818-13.123-15.638-19.684-23.457c-0.02-1.081-0.037-2.164-0.054-3.244c-0.996-1.105-1.994-2.212-2.995-3.315
			c-0.006-1.088-0.017-2.175-0.025-3.263c-2.019-6.016-4.022-12.029-6.042-18.046C697.703,23.339,697.709,21.716,697.716,20.097z"/>
		<path fill="#651511" d="M686.895,75.78c-1.014-9.838-2.024-19.675-3.04-29.513C684.868,56.105,685.881,65.942,686.895,75.78z"/>
		<path fill="#651511" d="M697.696,24.958c2.013,6.015,4.023,12.029,6.035,18.046C701.719,36.987,699.708,30.974,697.696,24.958z"/>
		<path fill="#651511" d="M703.756,46.267c1.001,1.104,1.999,2.21,2.995,3.315C705.755,48.477,704.757,47.372,703.756,46.267z"/>
		<path fill="#681611" d="M407.686,67.23c-0.94,0.076-1.879,0.153-2.817,0.23c-4.028-7.136-8.057-14.27-12.085-21.406
			c-2.536-6.567-5.07-13.135-7.604-19.704c11.039,2.244,22.087,4.485,33.122,6.73c-0.003,0,0.432-0.144,0.432-0.144
			c-0.997,3.335-2,6.668-2.992,10.004C413.054,51.036,410.37,59.134,407.686,67.23z"/>
		<path fill="#821C18" d="M440.015,49.36c6.205,2.849,12.412,5.702,21.519,9.882c-6.821,6.502-11.142,10.617-15.46,14.729
			C444.053,65.768,442.032,57.565,440.015,49.36z"/>
		<path fill="#9E221E" d="M408.391,79.093c-0.111-2.772-0.224-5.545-0.338-8.314c7.343,6.156,14.685,12.313,22.028,18.467
			c-1.378,1.816-2.751,3.642-4.127,5.461C420.1,89.5,414.246,84.298,408.391,79.093z"/>
		<path fill="#791A16" d="M415.741,42.94c0.992-3.335,1.995-6.668,2.992-10.004c1.431,0.625,2.862,1.255,4.294,1.884
			C420.594,37.526,418.167,40.233,415.741,42.94z"/>
		<path fill="#721814" d="M415.69,24.674c0.893,1.165,1.783,2.33,2.676,3.495C417.47,27.003,416.583,25.839,415.69,24.674z"/>
		<path fill="#651511" d="M308.927,19.755c-1.028-0.01-2.057-0.021-3.084-0.033C306.871,19.731,307.901,19.745,308.927,19.755z"/>
		<path fill="#721814" d="M412.931,19.476c0.845,1.246,1.687,2.492,2.53,3.736C414.618,21.968,413.773,20.722,412.931,19.476z"/>
		<path fill="#B72824" d="M75.761,27.699c1.897-1.206,3.792-2.409,5.68-3.609c6.836,11.425,13.397,22.385,19.958,33.345
			c-0.478,2.685-0.955,5.367-1.435,8.05c-0.501-0.032-1.005-0.044-1.508-0.041c-0.955,0.621-1.912,1.245-2.868,1.865
			c-1.065,1.601-2.132,3.195-3.198,4.798C86.85,57.301,81.305,42.499,75.761,27.699z"/>
		<path fill="#9E221E" d="M98.458,65.444c0.501-0.003,1.006,0.009,1.508,0.042l0.053,0.065c-0.504,4.926-1.009,9.85-1.514,14.774
			c-0.524,1.661-1.048,3.319-1.573,4.981c-1.515-4.401-3.03-8.801-4.543-13.203c1.066-1.6,2.133-3.197,3.198-4.798
			C96.544,66.685,97.501,66.065,98.458,65.444z"/>
		<path fill="#851C19" d="M461.365,14.986c1.521,0.001,3.039,0.005,4.562,0.007c3.041,4.352,6.089,8.706,9.133,13.059
			c0.436,3.815,0.875,7.629,1.309,11.443c-0.017,0.557-0.034,1.112-0.047,1.668c-1.44,0.022-2.881,0.044-4.323,0.065
			c-3.552-1.696-7.103-3.393-10.649-5.087c-0.011-5.399-0.022-10.801-0.033-16.202C461.335,18.288,461.35,16.637,461.365,14.986z"/>
		<path fill="#5D130E" d="M476.318,41.164c0.018-0.556,0.033-1.112,0.05-1.667c1.63,0,3.261,0,4.888-0.003
			c5.192,7.112,10.38,14.223,15.57,21.335c-2.705-0.508-5.405-1.013-8.105-1.522c-1.438-0.691-2.878-1.382-4.32-2.078
			c-2.045-1.044-4.092-2.083-6.136-3.124c-1.002-3.153-2.006-6.303-3.005-9.453C475.61,43.489,475.968,42.326,476.318,41.164z"/>
		<path fill="#8A1D1A" d="M447.608,31.347c2.538-0.534,5.08-1.07,7.622-1.606c0.559,2.08,1.123,4.158,1.682,6.235
			c-7.173,0.063-14.338,0.124-21.512,0.187c1.021-1.602,2.046-3.203,3.073-4.803c1.02,0.005,2.034,0.009,3.055,0.014
			C443.555,31.366,445.584,31.356,447.608,31.347z"/>
		<path fill="#98211D" d="M456.912,35.976c-0.559-2.079-1.123-4.155-1.682-6.235c2.026-3.266,4.061-6.535,6.089-9.803
			c0.007,5.4,0.021,10.803,0.031,16.202C459.868,36.084,458.391,36.03,456.912,35.976z"/>
		<path fill="#801B17" d="M476.318,41.164c-0.35,1.162-0.708,2.325-1.06,3.491c-1.087-1.138-2.173-2.283-3.261-3.425
			C473.439,41.208,474.88,41.186,476.318,41.164z"/>
		<path fill="#6D1713" d="M635.128,20.019c-0.51,5.462-1.019,10.923-1.522,16.386c-10.189,19.11-20.374,38.219-30.563,57.327
			c4.097-15.296,8.194-30.584,12.289-45.877c-2.512-2.685-5.02-5.367-7.529-8.052c-0.535-6.609-1.077-13.215-1.613-19.825
			C615.837,19.992,625.483,20.004,635.128,20.019z"/>
		<path fill="#821C18" d="M615.333,47.851c-4.095,15.294-8.192,30.585-12.289,45.878c-1.03,0-2.061-0.007-3.091-0.007
			c1.024-7.103,2.052-14.203,3.077-21.303c0.568-5.985,1.134-11.975,1.698-17.96C608.263,52.258,611.799,50.055,615.333,47.851z"/>
		<path fill="#6C1713" d="M604.728,54.459c-0.564,5.985-1.13,11.975-1.698,17.96c-8.097-11.475-16.201-22.948-24.303-34.421
			c8.643,2.739,17.28,5.481,25.911,8.221C604.668,48.966,604.701,51.715,604.728,54.459z"/>
		<path fill="#8F1F1B" d="M441.532,31.374c-1.021-0.005-2.038-0.009-3.056-0.014C439.494,31.366,440.51,31.369,441.532,31.374z"/>
		<path fill="#8A1D1A" d="M101.798,18.133c2.973,0.512,5.943,1.024,8.915,1.536c1.011,2.25,2.016,4.499,3.025,6.748
			c0.024,1.041,0.048,2.083,0.072,3.127l-0.006-0.059c-0.026,1.071-0.054,2.146-0.082,3.215c0.02,1.654,0.037,3.306,0.056,4.959
			c0,0-0.131,0.287-0.129,0.283c-3.033,2.128-6.065,4.259-9.096,6.389c-0.081-2.717-0.161-5.435-0.239-8.15
			c-0.344-1.706-0.691-3.413-1.037-5.117C102.783,26.755,102.29,22.444,101.798,18.133z"/>
		<path fill="#9E221E" d="M104.55,44.333c3.033-2.132,6.065-4.261,9.096-6.389c0.485,2.187,0.972,4.368,1.46,6.55
			c-5.028,7.021-10.056,14.041-15.084,21.061l-0.055-0.065c0.479-2.687,0.955-5.369,1.434-8.052
			C102.448,53.068,103.5,48.7,104.55,44.333z"/>
		<path fill="#9E221E" d="M103.274,31.063c0.346,1.705,0.691,3.412,1.036,5.117c-0.76-0.626-1.518-1.251-2.447-2.019
			C102.417,32.942,102.847,32.002,103.274,31.063z"/>
		<path fill="#781916" d="M604.728,54.459c-0.027-2.744-0.06-5.494-0.09-8.239c1.057-2.141,2.109-4.284,3.166-6.421
			c2.509,2.685,5.017,5.369,7.528,8.053C611.799,50.055,608.263,52.258,604.728,54.459z"/>
		<path fill="#94201C" d="M113.775,37.659c-0.019-1.653-0.035-3.306-0.054-4.958c0.028-1.071,0.054-2.146,0.081-3.217l0.005,0.058
			c1.489-0.027,2.978-0.055,4.469-0.083c-0.494,2.751-0.988,5.501-1.479,8.253C115.791,37.695,114.781,37.678,113.775,37.659z"/>
		<path fill="#851C19" d="M118.276,29.461c-1.489,0.028-2.979,0.056-4.469,0.083c-0.021-1.042-0.047-2.087-0.071-3.127
			c1.464-1.167,2.929-2.333,4.394-3.503C118.179,25.096,118.227,27.277,118.276,29.461z"/>
		<path fill="#AC2522" d="M100.022,65.551c5.028-7.017,10.056-14.038,15.084-21.06c1.099,2.094,2.203,4.184,3.301,6.274
			c-0.046,0.56-0.09,1.122-0.136,1.681c-3.533,12.557-7.063,25.113-10.596,37.669c-3.057-3.265-6.114-6.529-9.17-9.793
			C99.013,75.401,99.517,70.477,100.022,65.551z"/>
		<path fill="#98211D" d="M118.274,52.448c0.043-0.56,0.089-1.122,0.135-1.679c0.918,1.149,1.835,2.303,2.752,3.453
			C120.197,53.63,119.234,53.038,118.274,52.448z"/>
		<path fill="#791A16" d="M505.559,75.639c7.104,4.354,14.214,8.711,21.315,13.062c-4.066,2.193-8.132,4.387-12.198,6.581
			C511.639,88.735,508.6,82.185,505.559,75.639z"/>
		<path fill="#721814" d="M488.72,59.306c2.7,0.51,5.4,1.015,8.105,1.522c0.863,1.117,1.728,2.233,2.591,3.348
			C495.852,62.554,492.287,60.933,488.72,59.306z"/>
		<path fill="#6C1713" d="M481.255,39.493c-1.627,0.002-3.258,0.003-4.888,0.003c-0.436-3.815-0.878-7.63-1.312-11.445
			c1.027-0.11,2.052-0.219,3.073-0.332C479.175,31.644,480.214,35.57,481.255,39.493z"/>
		<path fill="#801B17" d="M392.784,46.054c4.028,7.137,8.057,14.271,12.085,21.406c0.017,1.584,0.036,3.169,0.054,4.75l-0.105,0.112
			c-12.504-7.411-25.014-14.823-37.521-22.235c4.248-4.669,8.495-9.337,12.747-14.005C384.294,39.408,388.538,42.733,392.784,46.054
			z"/>
		<polygon fill="#8A1D1A" points="404.922,72.21 405.09,72.65 404.817,72.324 		"/>
		<path fill="#AC2522" d="M98.458,65.444c-0.957,0.621-1.914,1.245-2.87,1.865C96.546,66.685,97.502,66.065,98.458,65.444z"/>
		<path fill="#791A16" d="M113.802,29.486c-0.027,1.071-0.053,2.146-0.081,3.217C113.749,31.63,113.775,30.557,113.802,29.486z"/>
	</g>
</g>
<text transform="matrix(1 0 0 1 28.4717 39.7485)"><tspan x="0" y="0" fill="#FFFFFF" font-family="'Verdana'" font-size="21">Female sex trafficking victims often meet the criteria for </tspan><tspan x="0" y="25.2" fill="#FFFFFF" font-family="'Verdana'" font-size="21">post-traumatic stress disorder</tspan></text>
<g display="none">
</g>
</svg>
