<?xml version="1.0" encoding="utf-8"?>
<!-- Generator: Adobe Illustrator 16.0.0, SVG Export Plug-In . SVG Version: 6.00 Build 0)  -->
<!DOCTYPE svg PUBLIC "-//W3C//DTD SVG 1.1//EN" "http://www.w3.org/Graphics/SVG/1.1/DTD/svg11.dtd">
<svg version="1.1" id="truck_xA0_Image_1_" xmlns="http://www.w3.org/2000/svg" xmlns:xlink="http://www.w3.org/1999/xlink" x="0px"
	 y="0px" width="800px" height="600px" viewBox="0 0 800 600" enable-background="new 0 0 800 600" xml:space="preserve">
<g>
	<g>
		<path fill="#FFFFFF" stroke="#BCBCBC" stroke-miterlimit="10" d="M799.999,847.769c-0.091-0.008-5.091-0.014-14.223-0.021
			C795.054,847.767,800.068,847.774,799.999,847.769z"/>
		<path fill="#FFFFFF" stroke="#BCBCBC" stroke-miterlimit="10" d="M0.979,846.743c-0.087,0.871,0.153,1.098,1.024,1.025
			c1.068-0.09,676.694-0.096,783.773-0.021C678.557,847.528,1.068,845.833,0.979,846.743z"/>
		<path fill="#FFFFFF" stroke="#BCBCBC" stroke-miterlimit="10" d="M238.371,338.921c-0.658,6.371-0.658,6.373-6.695,6.373
			c-10.665,0-21.331,0.018-31.996-0.012c-3.599-0.008-3.673-0.063-3.677-3.443c-0.024-19.998-0.045-39.994,0.045-59.992
			c0.008-1.74,0.506-3.644,1.311-5.193c14.411-27.769,28.946-55.471,43.307-83.264c1.296-2.508,2.777-3.153,5.404-3.146
			c31.663,0.08,63.325,0.054,94.988,0.05c4.251-0.001,3.935-0.084,3.935,4.213c-0.002,27.497-0.002,54.993-0.002,82.49
			c0,1.166,0.102,2.343-0.019,3.497c-0.228,2.201,0.745,2.89,2.86,2.857c8.76-0.129,7.184,1.189,7.197-6.918
			c0.066-36.996,0.023-73.991,0.037-110.986c0.002-5.659-0.654-5.077,5.034-5.077c79.99-0.009,159.98-0.006,239.971-0.006
			c0.666,0,1.34,0.063,1.998-0.011c2.117-0.238,3.127,0.556,2.871,2.789c-0.115,0.986-0.021,1.997-0.021,2.997
			c0,54.16,0.01,108.32-0.012,162.479c-0.002,6.379,0.865,5.563-5.506,5.596c-7.666,0.041-15.332-0.014-22.998,0.023
			c-3.092,0.014-3.092,0.074-3.57,3.188c-2.484,16.154-15.512,27.289-31.594,26.83c-17.494-0.5-28.799-15.031-29.154-27
			c-0.07-2.406-0.859-3.096-3.219-3.076c-12.332,0.102-24.664,0.102-36.994,0c-2.336-0.02-3.365,0.627-3.32,3.053
			c0.043,2.324-0.252,4.654-0.326,6.986c-0.172,5.33,0.156,4.947-4.889,4.955c-7.999,0.014-15.997,0.039-23.996,0.043
			c-26.497,0.02-52.993,0.029-79.49,0.041c-0.5,0-1,0.008-1.5,0c-3.854-0.07-3.896-0.07-4.021-3.82
			c-0.098-2.996-0.109-5.996-0.102-8.996c0.006-1.439-0.568-2.184-2.053-2.135c-0.499,0.018-1-0.012-1.5-0.012
			c-16.164-0.002-32.329,0.035-48.493-0.045c-2.247-0.012-3.063,0.525-3.377,2.959c-1.743,13.506-12.662,24.225-26.037,25.895
			c-13.733,1.713-27.122-5.918-32.359-18.479C239.711,342.944,239.178,341.194,238.371,338.921z M262.99,237.034
			c0,12.159,0.015,24.318-0.008,36.478c-0.008,4.038,0.067,3.777,3.877,3.777c20.486-0.005,40.975,0.009,61.461-0.015
			c3.562-0.004,3.637-0.069,3.64-3.494c0.022-24.317,0.022-48.636,0-72.954c-0.003-3.442-0.077-3.51-3.619-3.514
			c-20.487-0.022-40.976-0.009-61.461-0.013c-3.798-0.001-3.905-0.286-3.897,3.757C263.006,213.05,262.99,225.042,262.99,237.034z
			 M215.166,277.287c2.043,0,3.688,0,5.334,0c10.986,0,21.974,0,32.96-0.001c0.999,0,2.004-0.076,2.995,0.011
			c1.976,0.174,2.709-0.731,2.543-2.622c-0.072-0.824-0.008-1.663-0.008-2.495c0-23.306,0-46.611-0.002-69.916
			c0-0.999-0.041-1.999-0.008-2.996c0.053-1.537-0.785-1.874-2.166-1.986c-5.604-0.455-5.761-0.412-8.166,4.891
			c-8.797,19.386-17.621,38.759-26.358,58.172C219.844,265.781,217.659,271.336,215.166,277.287z M216.924,296.341
			c-4.331,0.035-7.855,3.564-7.886,7.896c-0.029,4.334,3.44,7.91,7.771,8.008c4.521,0.104,8.24-3.621,8.134-8.143
			C224.839,299.774,221.258,296.308,216.924,296.341z M540.378,356.294c12.977-0.037,22.518-7.902,24.266-18.477
			c0.184-1.115,1.016-2.582-0.74-3.359c-0.426,0.967-0.947,1.904-1.264,2.906c-2.936,9.26-9.439,14.5-17.568,15.791
			c-8.588,1.361-18.979-5.305-21.553-14.963c-0.375-1.408,0.461-4.604-2.516-3.678c-2.098,0.65-0.779,3.191-0.633,4.852
			c0.115,1.283,0.693,2.574,1.275,3.76C525.866,351.706,532.858,355.976,540.378,356.294z M268.512,355.288
			c10.469,0.07,20.152-7.23,22.07-16.801c0.252-1.254-0.301-2.67-0.479-4.012c-0.584,1.041-1.418,2.018-1.713,3.137
			c-2.491,9.465-12.776,15.295-19.802,14.643c-7.658-0.711-13.493-4.393-17.119-11.256c-1.003-1.896-1.591-4.012-2.527-5.949
			c-0.193-0.396-1.146-0.697-1.656-0.592c-0.438,0.092-1.012,0.803-1.051,1.277c-0.065,0.797,0.21,1.635,0.405,2.439
			C249.082,348.226,258.027,355.218,268.512,355.288z"/>
	</g>
</g>
</svg>
