<?xml version="1.0" encoding="utf-8"?>
<!-- Generator: Adobe Illustrator 16.0.0, SVG Export Plug-In . SVG Version: 6.00 Build 0)  -->
<!DOCTYPE svg PUBLIC "-//W3C//DTD SVG 1.1//EN" "http://www.w3.org/Graphics/SVG/1.1/DTD/svg11.dtd">
<svg version="1.1" id="Layer_1" xmlns="http://www.w3.org/2000/svg" xmlns:xlink="http://www.w3.org/1999/xlink" x="0px" y="0px"
	 width="587.927px" height="373.953px" viewBox="0 0 587.927 373.953" enable-background="new 0 0 587.927 373.953"
	 xml:space="preserve">
<g>
	<g>
		<path fill-rule="evenodd" clip-rule="evenodd" fill="none" d="M0.5,375.954c0-125.317,0-250.636,0-375.953
			c196.642,0,393.283,0,589.926,0c0,125.317,0,250.635,0,375.953C393.783,375.954,197.142,375.954,0.5,375.954z M533.935,121.353
			c-2.503,2.829-6.095,3.389-9.729,4.138c2.914,3.49,7.581,1.252,9.714-4.131c0.125,0.053,0.302,0.07,0.364,0.164
			c0.261,0.391,0.411,0.382,0.364-0.043C534.641,121.413,534.184,121.394,533.935,121.353z M556.479,104.055
			c-5.384,0.433-8.341-3.335-11.723-6.637c0.171-1.313,0.334-2.572,0.573-4.416c-8.377,0.528-14.718,6.544-22.706,6.407
			c-0.265,3.176-0.497,5.744,0.128,8.387c6.535-1.564,12.759-3.054,19.135-4.581c2.474,3.801,7.767,3.013,10.558,7.184
			c-0.824-3.835,3.305-3.911,3.921-6.459c0.39-0.043,0.99,0.058,0.44-0.661C556.688,103.557,556.584,103.806,556.479,104.055z
			 M491.367,229.783c3.701,0.737,6.709-1.142,9.523-2.342c1.96-7.542,7.784-10.988,13.498-14.372
			c0.329-3.335-3.929-4.332-3.458-7.482c2.867-2.041,7.437-0.518,9.512-4.605c-2.401-3.953-7.11-0.545-9.884-3.104
			c0.786-3.278,6.93-2.891,5.205-7.927c-19.253,6.734-39.442,7.898-59.197,12.696c0.161,1.885-0.814,3.372-2.417,4.434
			c-6.457,4.277-12.879,8.609-19.424,12.746c-2.35,1.484-4.751,2.689-5.119,6.027c6.38,0.24,12.279,0.869,17.729-3.502
			c5.277-4.23,12.265-1.393,18.145-2.896c2.336,0.661,2.543,2.936,3.825,4.822c2.916-2.915,6.829-2.064,9.817-3.195
			c5.866,0.994,9.187,4.86,12.404,8.866c-2.247-0.073-3.288-1.994-4.709-3.228c-5.423-4.708-9.021-5.189-15.646-1.737
			c-1.245,0.648-2.438,0.994-3.742,0.246c-1.313-0.973-0.211-3.035-2.134-4.103c-7.536,1.289-16.387-1.234-22.805,6.535
			c0.068,1.093-0.57,2.611,1.005,4.046c0.954,0.963,3.803-0.667,3.938,2.266c-4.26,0.188-6.94-1.641-7.223-6.094
			c-8.666-0.576-16.762-0.005-24.577,2.666c2.715,12.653,7.747,24.119,12.623,35.389c-2.854,8.46-1.928,14.654,2.72,18.932
			c10.256,0.743,20.421-1.327,30.806-0.966c0.464-1.786,0.82-3.163,1.2-4.634c1.833-0.185,3.429-0.345,5.38-0.541
			c0.594-6.136-1.268-12.577,3.448-17.478c-4.492-6.424-8.824-12.122-14.65-16.673c-3.836-2.995-8.007-5.905-9.912-10.773
			c8.739,8.549,19.303,15.265,25.526,26.501c2.357-2.354,1.119-5.626,3.927-7.127c1.978-0.2,5.092,0.09,5.442-2.719
			c0.511-4.095,3.678-5.639,6.271-8.066c-0.691-4.324,2.921-6.669,4.707-9.927C493.017,231.273,491.002,231.309,491.367,229.783z
			 M353.548,178.138c-3.421-1.227-5.382-4.181-7.728-6.307c-0.78-2.968,0.363-6.015-1.723-8.499c-14.091,0-28.224,0-42.682,0
			c2.108,4.827,6.48,6.625,9.667,9.526c-0.194,1.937-2.027,3.242-1.468,5.494c0.801,2.042,3.241,2.908,5.345,5.577
			c0,10.407,0,21.608,0,33.097c17.07,0.053,33.347-1.052,49.74-1.856c-0.006,2.946-1.164,5.548,2.559,6.883
			c0.481-4.983,4.454-8.422,5.693-13.444c-6.168-2.311-3.663-9.729-8.559-13.156c-1.205-0.292-2.786-0.675-3.87-0.938
			c-4.042-3.268-0.638-7.371-2.439-11.063c-3.082-0.13-4.018-2.709-4.711-5.492c2.636,1.051,3.062,5.123,6.764,4.417
			c0.524,3.374,0.382,6.274-0.563,8.755c1.475,2.855,4.071,2.607,5.83,3.135c3.886,3.202,3.444,8.294,6.212,11.996
			c1.225-1.153,2.171-2.045,3.072-2.895c1.562-0.155,3.03-0.302,4.209-0.42c5.821-6.057,4.031-14.794,8.478-21.084
			c0.245-0.348,0.185-0.989,0.114-1.472c-1.14-7.783-0.336-15.692-1.977-23.488c-1.7-8.084,0.248-17.129-7.576-24.122
			c-7.179,0.514-15.185,1.087-23.369,1.673c0.877,2.951,3.674,3.903,3.808,6.652c-1.121,4.752-4.844,7.485-8.825,9.937
			c2.736,3.135,0.502,5.178-1.041,7.373c-3.455,4.917-2.734,11.606,1.521,15.761C351.282,175.402,353.193,176.1,353.548,178.138z
			 M343.503,115.126c-5.096-2.562-8.124-8.408-15.035-8.419c0.985-6.053-1.983-11.215-0.894-16.085
			c1.269-2.027,3.512-1.897,3.839-3.895c0.712-13.189,11.781-18.717,20.829-27.656c-3.756,2.162-5.01-1.058-8.416-1.176
			c-4.023,3.715-8.768-1.266-13.914-0.417c-1.729-3.179-4.783-4.233-7.991-3.152c-3.16,1.064-5.404,0.108-7.847-1.527
			c-2.169-1.451-3.998-3.746-6.835-3.805c-6.105-0.128-12.215-0.039-18.299-0.039c-2.807,14.426,4.433,27.299,4.612,40.842
			c-1.1,1.301-2.047,2.423-3.07,3.634c1.342,1.588,2.615,3.094,4.209,4.981c0,7.63,0,15.541,0,23.611
			c16.851,0.191,33.188-0.879,49.137-1.634c1.227-2.5-0.501-3.81-0.492-5.438c1.579-0.106,1.699,1.034,2.128,2.18
			c1.438,3.839,0.602,7.891,1.133,11.608c2.81,3.351,6.15,4.636,10.282,4.285c5.791-0.492,11.605-0.722,17.396-1.209
			c1.399-0.117,2.993-0.166,4.271-1.673c-0.16-9.117-1.653-18.497,2.642-28.115c-3.469,0.993-4.008,3.699-6.202,3.551
			c-1.632-3.103,0.523-5.444,1.681-8.35c-1.627-2.126-0.78-4.977-1.858-7.778c-1.305-1.146-2.785-2.444-4.226-3.708
			c-5.324,0.714-9.84-2.403-14.703-1.952c-7.752-7.6-14.458-8.588-22.319-3.333c-0.111,2.53-0.228,5.161-0.333,7.545
			c-1.673,1.727-4.435,1.831-4.724,4.902c1.858,3.787,0.044,8.617,2.481,12.799C336.493,106.945,340.325,110.602,343.503,115.126z
			 M263.573,246.071c-3.296-0.676-7.172,0.399-9.818-3.635c0.778-8.116,0.925-16.714,0.679-25.873
			c-10.437-0.639-20.489-1.254-31.146-1.907c-1.407,20.869-2.773,41.148-4.168,61.856c-13.981-0.923-27.549-1.817-41.94-2.768
			c8.134,10.972,21.765,16.569,21.534,31.357c5.53,3.47,10.566,6.631,15.506,9.73c3.369-1.235,4.407-4.25,5.924-6.728
			c1.208-1.97,2.57-3.472,4.886-3.771c7.496-0.969,16.741,4.623,19.478,11.763c2.695,7.029,6.062,13.634,11.559,18.954
			c1.464,1.415,2.046,3.175,2.599,5.193c1.917,6.981,4.732,13.366,12.457,16.114c2.818,1.002,5.622,0.054,8.319,0.91
			c1.381,0.475,1.537,2.71,3.847,2.383c0.416-3.203,0.291-6.394-0.437-9.635c-2.375-10.573,1.308-19.113,9.155-26.074
			c4.06-3.6,9.396-2.462,13.995-3.184c1.889-2.2,3.61-4.205,5.41-6.3c-0.224-1.598-0.447-3.192-0.659-4.707
			c1.307-1.073,2.259-2.283,4.003-2.347c0.807,1.155,1.624,2.324,2.397,3.433c9.699-3.845,9.699-3.845,9.09-15.563
			c0.74-1.358,1.526-2.801,2.312-4.242c-1.163-2.509-2.268-4.892-3.372-7.273c2.849,1.797,3.381,5.052,4.998,7.665
			c-0.991,2-1.936,3.905-2.953,5.959c2.113,3.328-0.395,6.938,0.528,11.116c7.872-2.937,15.598,5.622,22.654-1.474
			c4.624,3.465,6.555,11.581,14.094,5.978c2.121,0.685,4.192,1.408,6.345,0.567c1.158-0.776,0.084-2.646,1.515-3.341
			c3.328,1.492,5.278,5.254,9.187,5.27c0.938-0.967,1.074-1.873,0.566-2.88c-2.139-0.76-4.277-1.52-6.189-2.199
			c-1.222-3.216,2.159-4.589,2.112-6.56c-2.495-4.829-6.418-8.305-7.195-13.953c-6.634,1.403-13.166,0.868-19.864,1.685
			c-0.942-8.008,2.64-13.8,6.942-19.157c-1.841-2.568-3.493-4.622-3.631-7.909c-10.371,2.08-20.476,1.02-30.418,1.526
			c-1.309,6.425-0.129,12.166,1.482,17.869c-6.505-8.123-2.251-17.924-4.058-26.688c-1.865-0.496-3.919-0.517-5.282-1.498
			c-5.404-3.89-11.084-3.455-17.08-2c-1.356,0.329-3.553,1.969-4.57-0.845c7.307-0.117,14.734-4.644,21.887,1.729
			c1.067-15.134-2.157-28.74-3.284-43.251c-29.852,1.7-59.1-1.495-88.706-1.514c0.197,1.481,0.144,2.605,0.386,2.674
			c9.775,2.751,19.982,1.435,30.526,3.104c3.077,9.055-1.668,18.614,0.781,27.256C258.212,245.542,262.2,242.302,263.573,246.071z
			 M47.721,147.91c3.54-11.942,7.136-24.077,10.813-36.482c-12.637-4.727-25.094-9.386-38.254-14.311
			c-0.486,7.929-1.666,14.902-7.825,19.553c0.125,2.344-0.395,4.43,1.161,6.417c1.551,1.981,1.532,4.945,0.475,6.671
			c-2.542,4.153-1.384,8.332-1.469,12.891c4.988,2.38,3.204,7.672,4.607,11.701c1.634,1.579,3.427-0.769,4.733,0.246
			c1.569,2.484,1.465,4.744-0.063,6.845c-1.245,0.584-2.097-1.39-3.309-0.223c0,2.138,0,4.279,0,6.361
			c1.581,1.447,3.045,2.788,4.427,4.052c0.344,2.838-1.648,4.068-3.629,5.231c3.368,8.101,6.606,15.89,9.792,23.55
			c-0.15,1.827-2.282,2.774-1.268,5.665c2.477,5.398,12.127,4.167,13.427,11.739c2.821,0.455,5.512-0.391,7.54,1.788
			c1.029,4.432,4.701,7.344,7.152,10.92c2.749,4.011,1.667,8.747,3.9,13.023c9.569,0.455,18.839,3.737,30.239,3.16
			c-5.535-5.382-3.294-8.799,0.107-11.458c0.73-1.898,0.013-3.565,1.279-4.922c1.048-1.471,3.27-2.077,4.245-5.329
			C81.338,199.04,63.616,174.17,47.721,147.91z M130.233,75.674c0.685,6.528,1.43,13.042,6.274,18.262
			c5.391,0.289,10.922,0.092,16.453-0.513c1-0.981,0.022-2.722,1.978-3.982c21.382,3.933,43.185,8.967,66.07,9.365
			c0.803-17.855,4.375-35.18,3.257-53.253c-34.747-3.853-68.886-9.255-102.441-17.432c-4.865,10.743-5.274,19.833,1.48,24.316
			c0.116,1.804,0.233,3.606,0.336,5.197c1.813,1.822,4.292,2.388,5.445,4.372c-1.351,4.624-5.256,8.272-4.37,13.575
			C126.51,75.42,128.077,74.541,130.233,75.674z M176.696,272.432c13.789,0.942,27.188,1.857,41.151,2.812
			c1.477-22.003,2.917-43.469,4.398-65.549c-21.222-2.283-42.366-4.559-64.095-6.896c-2.958,25.013-5.857,49.527-8.728,73.798
			c2.832,1.457,5.11,1.495,7.512,1.109c0.734-1.474,1.459-2.93,2.212-4.441c5.469-2.188,10.363,1.108,15.761,1.369
			C175.37,274.064,175.976,273.318,176.696,272.432z M147.965,276.887c2.958-24.998,5.868-49.604,8.805-74.42
			c-17.585-3.324-34.414-6.506-51.056-9.652c-2.214,4.091-0.538,7.942-1.725,11.663c-1.472,0.414-3.018,0.848-4.466,1.253
			c-1.482-1.163-2.067-3.534-4.629-2.501c-1.298,3.392,0.36,6.754,0.504,10.437c-0.606,1.097-1.313,2.376-1.949,3.527
			c1.324,3.439,2.56,6.651,3.766,9.782c-1.638,1.507-3.097,2.851-4.141,3.812c-1.051,5.907-7.695,10.304-2.436,16.271
			c-2.051,1.133-3.819,0.809-4.904,2.674c12.903,7.702,25.833,15.438,38.793,23.124c0.835,0.495,1.872,0.739,2.847,0.893
			C133.903,274.776,140.44,275.747,147.965,276.887z M92.831,216.291c1.36-5.81,0.145-10.198,0.231-14.067
			c4.048-3.91,5.611,3.121,9.102,1.366c3.798-26.257,10.758-51.932,15.39-78.292c-19.493-4.566-38.408-8.996-57.631-13.499
			c-3.634,12.187-7.167,24.034-10.75,36.049C63.528,170.353,77.823,192.764,92.831,216.291z M235.534,155.565
			c-23.256-2.23-46.113-4.423-69.406-6.658c-2.612,17.637-5.164,34.868-7.807,52.707c25.402,1.684,50.04,6.323,75.62,6.656
			C234.511,190.354,236.202,173.186,235.534,155.565z M20.892,95.594c22.037,8.626,44.099,17.829,68.22,21.156
			c1.516-7.007,2.401-13.983,4.652-20.486c1.474-4.261,2.144-7.782-0.618-11.111c3.169-6.539,11.453-9.156,11.48-16.945
			c-1.242-2.451-2.856-3.624-5.126-4.2c-8.774-2.228-17.362-4.93-26.708-4.315c-6.704,0.44-13.082-3.208-19.967-2.876
			c-1.848,0.089-3.419-1.097-4.645-2.906c0.446-1.433,0.928-2.975,1.499-4.806c-2.485-2.257-3.832-6.09-8.616-4.783
			C37.179,56.708,31.96,68.677,24.58,79.524C21.318,84.318,19.408,89.071,20.892,95.594z M155.063,90.676
			c-3.344,18.044-6.537,35.278-9.721,52.459c23.591,5.866,46.968,6.337,70.718,9.13c0.747-17.515,2.842-34.256,4.626-51.743
			C198.378,99.208,176.97,95.45,155.063,90.676z M119.09,125.759c-4.625,22.153-9.123,43.705-13.687,65.565
			c17.408,3.273,34.339,6.457,51.59,9.701c2.612-17.774,5.152-35.07,7.714-52.502c-7.337-1.466-13.931-2.782-20.433-4.081
			c-0.606-4.626,1.806-8.73,0.845-13.131C136.407,129.453,127.9,127.639,119.09,125.759z M237.256,168.501
			c-0.682,13.676-1.321,26.508-1.966,39.444c26.133,2.653,51.521,2.093,77.152,1.998c0-9.245,0-17.998,0-26.866
			c-3.777-2.441-5.759-5.519-2.269-11.126C285.386,170.57,261.554,170.931,237.256,168.501z M113.759,26.285
			c-2.928,11.495-5.64,22.581-8.627,33.593c-0.836,3.085-1.3,5.804,1.085,7.933c-0.234,8.397-8.155,11.23-11.505,17.499
			c1.442,1.849,1.958,4.227,2.444,6.35c-4.074,8.124-4.25,17.005-6.865,25.628c18.69,4.663,36.993,9.046,55.771,12.633
			c2.249-11.737,4.432-23.135,6.75-35.239c-6.431,1.188-11.852,1.209-17.295,0.911c-1.696-2.423-2.179-5.45-4.65-6.724
			c-0.683-4.152-1.316-8.008-1.851-11.262c-2.068-1.582-2.689,1.164-4.668-0.079c-3.577-5.55,1.533-10.053,3.008-15.288
			c-1.82-1.408-3.634-2.813-5.482-4.244c-0.114-1.905-0.223-3.706-0.329-5.481c-1.344-0.94-2.546-1.783-3.794-2.658
			c-0.168-4.877-1.641-9.584-0.835-14.626c1.366-2.189,3.502-4.357,2.039-7.747C117.472,27.142,115.889,26.777,113.759,26.285z
			 M290.167,90.464c-22.628-0.369-44.487-1.115-66.786-2.815c-1.352,13.145-2.641,25.677-3.964,38.528
			c22.808,1.943,45.107,1.246,66.994,5.663c2.068-0.048,3.387,2.172,6.038,1.859c0-11.978,0-23.9,0-35.736
			C290.837,95.82,287.914,94.396,290.167,90.464z M452.167,130.142c-2.94,2.081-5.288,3.953-7.835,5.498
			c-4.358,2.644-9.377,4.739-14.15,2.797c-6.414-2.608-11.804,0.16-17.882,0.855c1.502,10.384,2.912,20.14,4.322,29.896
			c-0.413,0.065-0.825,0.13-1.238,0.194c-1.488-9.706-2.977-19.412-4.439-28.945c-8.902-2.014-16.56,0.912-24.42,4.348
			c-0.101,4.115-0.508,8.585,0.271,13.027c1.823,10.386,4.42,20.759-1.144,30.912c-0.618,1.128-0.754,2.886,0.465,4.146
			c4.43,0.603,8.568-0.938,12.593-1.189c1.231-1.068,0.704-2.93,2.522-3.43c1.572-0.587,2.396,2.212,4.383,1.283
			c0.667-1.606,1.048-3.501,2.118-4.85c1.266-1.598,1.732-3.522,2.632-5.027c1.614-0.967,3.614,0.16,4.789-1.475
			c1.347-1.961-0.489-4.664,1.394-6.528c13.614,6.237,14.575,6.419,20.511,3.791c1.538,1.6,3.137,3.509,6.191,1.963
			c-0.345-4.3,4.347-6.594,4.745-11.235c7.486-2.714,8.556-9.118,8.46-16.084C456.362,143.289,456.062,136.518,452.167,130.142z
			 M303.521,170.048c-6.616-10.903-4.521-23.802-11.192-33.8c-4.282-4.019-9.532-3.75-14.875-3.236
			c-18.913-4.824-38.446-2.761-58.187-5.624c-0.694,8.732-1.318,16.579-1.973,24.799c6.941,0.771,13.304,1.478,19.668,2.186
			c1.126,4.334-0.268,8.563,1.04,12.876C259.789,168.662,281.507,169.923,303.521,170.048z M223.037,86.23
			c23.448,1.364,45.884,3.056,68.867,2.721c-0.526-13.941-6.783-26.334-5.12-40.004c-20.473-1.042-40.184-1.213-60.147-3.177
			C224.938,59.401,225.627,72.522,223.037,86.23z M102.818,64.153c3.552-13.853,6.665-25.992,9.85-38.411
			c-15.745-5.191-31.725-8.529-47.011-15.466c1.439,5.882-3.248,10.738,0.034,15.822c-3.715,2.538-4.306,6.33-5.884,9.637
			c-1.85-0.459-3.735-0.227-4.988-1.699c0.257-3.501,1.148-6.611,3.749-9.045c-2.549-5.555-7.293-8.482-11.718-12.736
			c-3.619,10.451-0.967,20.574-4.021,30.25c1.817,0.34,3.245,0.607,5.055,0.946c0.546,2.202,2.826,3.348,3.957,5.598
			c-0.426,1.483-0.868,3.023-1.326,4.62C67.529,60.033,86.2,55.438,102.818,64.153z M300.646,161.316c15.476,0,30.03,0,44.484,0
			c1.432-2.286,2.916-4.654,4.252-6.786c0.126-1.617-1.949-2.373-0.938-3.977c3.019-3.033,7.968-4.516,8.166-9.861
			c-1.938-6.018-8.656-7.434-11.796-11.846c-0.116-2.406-0.212-4.381-0.337-6.979c-16.648,0.657-33.142,1.308-49.488,1.953
			C291.862,137.348,300.506,148.198,300.646,161.316z M470.799,332.388c1.579,4.261,4.98,7.265,5.213,11.647
			c1.954,0.552,3.519,0.993,4.686,1.323c2.227,2.358,4.158,4.406,5.905,6.259c5.981,0.467,8.188-0.157,8.556-3.284
			c0.816-6.966,1.62-14.729-1.395-20.672c-4.334-8.542-9.997-16.458-14.591-25.025c-3.577-6.673-8.289-12.685-9.871-20.32
			c-0.091-0.438-0.461-0.819-0.657-1.153c-1.584-0.456-3.032-0.75-4.396-0.01c-1.359,1.074-0.281,3.082-2.818,4.744
			c-9.507,0-20.115,0-31.657,0c-0.322-0.239-1.5-1.119-2.92-2.178c-9.188,1.247-18.462,2.506-28.245,3.834
			c0.999,2.507,1.17,4.604,2.944,6.691c6.938-2.64,14.059-1.754,21.063,0.196c2.876,2.055,2.496,7.237,8.635,7.484
			c1.768-2.403,4.041-5.494,5.735-7.798c11.102,0.389,15.414,9.602,23.103,12.185c0.646,4.88,0.473,8.895-2.04,13.365
			c2.352-0.555,3.959-0.952,5.646-0.321C467.717,322.83,461.999,331.839,470.799,332.388z M364.312,216.171
			c-17.194,3.296-33.052,0.272-49.356,3.229c2.373,11.757,2.392,23.5,3.405,35.188c1.617,0.979,3.689-0.001,4.875,1.909
			c0.112,2.194,0.238,4.642,0.388,7.534c10.374,0.059,20.526,0.588,30.477-0.642c0.893-4.046-0.154-7.323-0.132-10.647
			c2.611-4.706,7.203-8.593,5.689-14.501c1.541-1.471,2.716-2.594,3.863-3.689c-0.267-3.85-0.095-7.432,1.983-10.28
			C364.723,221.648,361.22,220.438,364.312,216.171z M397.457,286.304c9.546-1.283,19.147-2.574,29.097-3.911
			c-0.632-5.734-2.904-11.12,0.335-16.31c-5.114-11.509-9.811-22.942-12.79-35.262c-9.136,1.377-17.84,2.689-26.653,4.018
			c-0.136,21.217,0.75,41.676,2.831,61.856c4.013,0.726,6.77,0.054,8.997-2.387C399.177,291.642,396.95,289.509,397.457,286.304z
			 M361.605,237.594c-0.421,3.858,0.329,6.724-2.087,9.072c-6.563,6.378-3.411,14.182-2.865,21.641
			c0.835,1.154,1.7,2.349,2.767,3.822c-2.73,5.573-8.527,10.183-6.573,17.72c6.464,0.562,12.596-1.016,19.135-1.499
			c0.164,5.212,3.98,8.59,6.247,13.676c2.733-3.378,6.237-1.093,10.373-3.192c-1.695-20.779-2.274-42.154-2.748-63.807
			C377.164,234.956,369.176,234.504,361.605,237.594z M453.607,129.028c4.547,8.262,3.275,17.942,6.414,26.581
			c2.466,0.629,4.715,0.311,7.03-0.067c11.788-1.923,23.115-5.763,34.749-8.258c5.86-1.257,9.962-3.904,12.468-9.419
			c-1.185-1.353-2.377-2.715-3.4-3.883c-1.179-3.985-0.799-7.688,0.422-11.146c-1.358-1.331-3.279-0.371-4.29-1.789
			c-0.838-1.033-0.252-2.724-2.105-3.773c-2.916-0.763-6.708-1.534-9.752,0.009c-9.805,4.968-20.89,4.906-31.011,8.5
			c-2.034,0.723-4.368,1.209-5.355-1.994C456.959,125.629,455.56,127.048,453.607,129.028z M461.588,125.226
			c10.098-4.078,20.842-3.729,30.326-8.204c4.942-2.333,9.777-2.771,14.893-0.477c1.014,0.987,0.28,3.025,2.811,4.042
			c3.862,0.953,8.585,2.119,14.675,3.621c-6.107-12.321-0.54-26.41-9.802-37.307c0.562-5.472-2.521-10.27-3.309-15.17
			c-11.75,0.221-16.699,9.32-23.232,16.842c3.51,2.618,2.303,6.166,2.29,8.508c-5.995,9.861-15.533,8.977-24.455,9.787
			c0.903,3.164,1.66,5.814,2.295,8.038C465.848,118.43,460.94,119.357,461.588,125.226z M436.568,177.246
			c-4.359,3.246-8.799,0.382-13.099,0.201c-1.824-1.535-2.8-4.231-6.028-2.976c0.759,4.687-2.192,6.406-5.991,7.463
			c-5.129,0.778-0.882,12.037-9.328,8.813c-4.738,4.771-11.315,1.817-16.533,4.711c-1.839,2.883-3.876,6.078-5.596,8.774
			c-1.985,1.209-3.851,0.044-5.431,1.39c-0.395,2.281,0.221,4.778-0.926,7.297c4.333,0,8.481,0.751,12.238-0.142
			c10.872-2.588,21.968-3.308,32.949-4.937c4.079-0.605,8.439-0.099,12.23-2.077c7.013-3.659,12.12-9.434,17.314-15.765
			c-4.393-2.246-7.483-5.104-8.016-9.798C439.111,179.23,437.937,178.314,436.568,177.246z M394.063,139.778
			c10.252-2.154,20.792-1.452,31.47-4.597c-1.784-5.747,3.2-8.588,5.74-11.985c1.038-7.206-2.731-12.482-4.301-19.412
			c-3.339,3.53-5.906,6.245-8.345,8.822c-3.233-0.613-3.637-2.798-3.875-5.574c5.874-5.1,5.917-11.152,1.472-17.929
			c-4.407,0.917-7.853-5.708-13.406-3.19c-0.71,4.651-2.435,8.547-3.696,12.167c-1.511,1.365-3.399,0.171-4.695,1.97
			c0.119,2.646-0.563,5.433-1.554,8.308c-1.172,3.401-1.401,7.46,1.033,10.529c3.294,4.151,2.465,8.787,2.38,13.354
			C396.238,134.814,393.742,136.804,394.063,139.778z M425.674,226.842c8.31-10.752,20.959-14.103,28.753-23.675
			c-27.676,4.841-55.223,9.301-83.111,12.434c-6.486,12.213-6.486,12.213-5.501,18.4
			C386.44,234.437,406.599,230.626,425.674,226.842z M437.224,204.145c26.505-4.846,52.478-8.021,77.636-15.137
			c-0.564-4.827-4.318-2.095-6.13-3.5c-0.98-1.104-1.96-2.206-3.034-3.415c0.529-1.123,1.008-2.137,1.52-3.221
			c-0.813-1.955-4.01-3.306-1.329-5.833c-3.375-2.789-8.037-2.657-10.219-6.251c-0.2-2.009,1.574-3.629,0.159-6.011
			c-3.885-1.949-8.604-0.507-12.654-1.866c-1.738,7.524-6.539,11.849-12.016,15.653c-1.527,4.126-3.823,8.042-3.01,12.75
			c-6.06,3.238-11.033,9.221-18.587,3.867C445.604,195.34,441.739,199.399,437.224,204.145z M537.999,29.291
			c-1.739,3.372-2.912,7.025-2.684,11.168c0.246,4.481,1.278,9.421-0.177,13.371c-1.979,5.375-0.938,10.054,0.47,14.86
			c1.725,5.888,3.48,11.898,8.785,16.715c0.276-8.438,8.54-11.113,11.028-17.804c2.472-6.648,10.229-9.084,13.563-15.053
			c-0.998-2.432-3.382-2.168-4.948-3.027c-0.88-1.375-1.677-2.617-2.575-4.018c-3.952-0.308-5.493-2.845-6.254-6.488
			c-0.705-3.376-1.278-6.84-3.072-9.938c-1.082-1.867-2.188-3.353-4.925-2.827c-1.354,1.027-2.927,2.22-4.389,3.329
			C541.15,29.46,539.77,28.478,537.999,29.291z M448.918,171.019c-2.777,1.725-7.259,9.965-6.333,11.959
			c2.184,4.702,7.374,5.876,10.641,8.917c5.641,0.556,9.202-2.871,13.382-5.448c-1.531-5.042,2.677-8.387,3.242-12.708
			c8.273-5.539,12.216-11.335,11.319-15.347c2.28-0.938,4.576-1.606,7.563,0.517c-1.213-2.331-1.874-4.233-3.468-4.012
			c-5.533,0.765-9.355,4.558-13.109,8.913c-0.878-2.675-1.527-4.656-2.164-6.597c-3.633-0.748-7.076,0.195-10.39,0.064
			c-1.837,0.173-0.366-2.259-2.146-2.277c0.463,6.084-3.45,9.353-7.908,12.059C449.306,168.579,449.101,169.868,448.918,171.019z
			 M397.189,79.233c3.858,1.037,7.398,1.157,11.055-0.679c-0.055-1.492,0.652-2.955-0.666-4.217
			c-7.491,0.166-8.487-0.027-10.346-1.835c-4.321,0.704-8.017,2.43-10.379,4.856c-5.402,1.546-9.251,0.064-11.808-2.787
			c-2.857-1.246-4.895,0.693-6.933-0.087c-1.688-2.653,0.437-4.609,0.95-7.007c-4.371,5.091-9.958,8.219-16.382,11.004
			c5.203,6.427,12.348,4.188,17.929,5.951c3.675,2.024,6.17,4.833,7.294,9.167c1.783-2.531,2.881-4.963,4.73-6.478
			c1.994-1.633,4.302-2.903,5.864-5.114C391.867,82.655,394.378,80.937,397.189,79.233z M521.474,97.709
			c2.089,0.43,4.182,0.712,5.83-1.188c-2.165-9.116-1.285-18.883,1.256-25.11c-0.563-1.309-0.454-3.068-1.874-4.325
			c-4.721,0.063-9.006,1.55-13.036,3.566C513.259,76.162,517.987,92.356,521.474,97.709z M532.377,60.445
			c-3.951,4.572-5.554,27.934-3.113,36.191c4.549-1.813,9.066-3.614,15.227-6.07C539.096,81.06,533.78,71.855,532.377,60.445z
			 M497.29,166.199c2.388,0.83,4.22,1.228,6.117,0.271c-1.237-4.181-1.358-8.239-0.901-12.474
			c3.77,5.185,4.743,12.331,11.705,14.773c2.493-0.643,4.285-1.711,2.783-4.688c-1.604-0.776-3.45,0.136-5.117-1.236
			c-1.434-4.936-1.643-10.477-3.882-15.63c-7.036,1.829-13.932,3.621-21.007,5.458c1.924,5.228,6.274,5.723,9.788,6.833
			C498.353,161.667,497.981,163.745,497.29,166.199z M523.232,125.774c-3.86-1.094-6.788-2.535-10.037-2.724
			c-3.645,6.003-1.494,10.789,3.045,14.843c-1.909,3.169-4.456,5.441-5.725,8.66c1.302,3.502,5.025,3.926,7.579,6.198
			c4.881-7.276,6.553-14.529,1.648-22.301C520.773,129.071,521.731,127.786,523.232,125.774z M537.983,105.684
			c-5.477,1.324-10.37,2.506-15.313,3.701c-0.967,4.682,1.032,8.527,2.171,12.702c5.319-1.792,8.688-6.842,14.421-7.411
			C539.879,111.63,538.46,109.102,537.983,105.684z M518.692,161.364c-2.386-2.798-4.242-5.222-7.267-7.416
			c0.603,2.958,1.08,5.305,1.53,7.519C514.828,162.225,516.397,162.208,518.692,161.364z M539.347,105.175
			c0.541,2.443,1.033,4.668,1.509,6.82c3.003,0.271,2.723-1.671,2.583-3.223C543.258,106.771,542.624,104.958,539.347,105.175z"/>
		<path fill-rule="evenodd" clip-rule="evenodd" d="M325.183,283.761c1.104,2.382,2.209,4.765,3.372,7.273
			c-0.785,1.441-1.571,2.884-2.312,4.242c0.609,11.718,0.609,11.718-9.09,15.563c-0.773-1.108-1.591-2.277-2.397-3.433
			c-1.744,0.063-2.696,1.273-4.003,2.347c0.212,1.515,0.436,3.109,0.659,4.707c-1.8,2.095-3.521,4.1-5.41,6.3
			c-4.599,0.722-9.936-0.416-13.995,3.184c-7.847,6.961-11.53,15.501-9.155,26.074c0.728,3.241,0.853,6.432,0.437,9.635
			c-2.31,0.327-2.466-1.908-3.846-2.382c-2.699-0.857-5.502,0.091-8.32-0.911c-7.725-2.748-10.54-9.133-12.457-16.114
			c-0.553-2.019-1.135-3.778-2.599-5.193c-5.497-5.32-8.864-11.925-11.559-18.954c-2.737-7.14-11.982-12.731-19.478-11.763
			c-2.316,0.299-3.678,1.801-4.886,3.771c-1.517,2.478-2.555,5.492-5.924,6.728c-4.94-3.1-9.976-6.261-15.506-9.73
			c0.231-14.788-13.4-20.386-21.534-31.357c14.391,0.95,27.959,1.845,41.94,2.768c1.395-20.708,2.761-40.987,4.168-61.856
			c10.657,0.653,20.709,1.269,31.146,1.907c0.246,9.159,0.099,17.757-0.679,25.873c2.646,4.034,6.521,2.959,9.818,3.635
			l-0.199-0.191c0.023,0.763,0.383,1.189,1.179,1.18l-0.181-0.174c3.171,4.487,7.88,3.052,12.187,3.162l-0.185-0.168
			c-0.002,0.789,0.392,1.183,1.182,1.18l-0.191-0.177c0.419,1.913,1.999,1.743,3.443,2.093c4.598,1.114,9.176-0.569,13.751,0.075
			l-0.193-0.159c1.018,2.813,3.214,1.174,4.57,0.845c5.996-1.455,11.676-1.89,17.08,2c1.363,0.981,3.417,1.002,5.282,1.498
			c1.807,8.765-2.447,18.565,4.058,26.688L325.183,283.761z"/>
		<path fill-rule="evenodd" clip-rule="evenodd" d="M47.721,147.91C63.616,174.17,81.338,199.04,95.8,225
			c-0.975,3.252-3.197,3.858-4.245,5.329c-1.266,1.356-0.549,3.023-1.279,4.922c-3.402,2.659-5.642,6.076-0.107,11.458
			c-11.4,0.577-20.67-2.705-30.239-3.16c-2.233-4.276-1.151-9.013-3.9-13.023c-2.451-3.576-6.123-6.488-7.152-10.92
			c-2.028-2.179-4.719-1.333-7.54-1.788c-1.3-7.572-10.95-6.341-13.427-11.739c-1.015-2.891,1.117-3.838,1.268-5.665
			c-3.186-7.66-6.424-15.449-9.792-23.55c1.981-1.164,3.974-2.393,3.629-5.231c-1.381-1.265-2.846-2.605-4.427-4.052
			c0-2.082,0-4.223,0-6.361c1.211-1.167,2.063,0.807,3.309,0.223c1.529-2.101,1.632-4.361,0.063-6.845
			c-1.306-1.015-3.1,1.333-4.733-0.246c-1.403-4.029,0.381-9.32-4.607-11.701c0.085-4.559-1.073-8.738,1.469-12.891
			c1.057-1.726,1.076-4.689-0.475-6.671c-1.555-1.987-1.036-4.073-1.161-6.417c6.159-4.651,7.339-11.625,7.825-19.553
			c13.161,4.924,25.617,9.583,38.254,14.311C54.857,123.833,51.261,135.968,47.721,147.91z"/>
		<path fill-rule="evenodd" clip-rule="evenodd" d="M130.233,75.674c-2.157-1.133-3.723-0.254-5.518-0.094
			c-0.887-5.303,3.019-8.952,4.37-13.575c-1.153-1.983-3.631-2.55-5.445-4.372c-0.103-1.591-0.22-3.393-0.338-5.197
			c-6.752-4.483-6.343-13.573-1.478-24.316c33.555,8.177,67.694,13.579,102.441,17.432c1.117,18.073-2.455,35.398-3.257,53.253
			c-22.885-0.397-44.688-5.432-66.07-9.365c-1.956,1.26-0.978,3-1.983,3.98c-5.526,0.606-11.058,0.804-16.448,0.515
			C131.663,88.716,130.918,82.202,130.233,75.674z"/>
		<path fill-rule="evenodd" clip-rule="evenodd" d="M176.696,272.432c-0.72,0.887-1.327,1.633-1.789,2.201
			c-5.398-0.261-10.292-3.558-15.761-1.369c-0.753,1.512-1.479,2.968-2.212,4.441c-2.401,0.386-4.68,0.348-7.512-1.109
			c2.871-24.271,5.771-48.785,8.728-73.798c21.729,2.338,42.873,4.613,64.095,6.896c-1.481,22.08-2.921,43.546-4.398,65.549
			C203.884,274.289,190.485,273.374,176.696,272.432z"/>
		<path fill-rule="evenodd" clip-rule="evenodd" d="M147.965,276.887c-7.524-1.14-14.062-2.11-20.59-3.139
			c-0.976-0.153-2.012-0.397-2.847-0.893c-12.959-7.687-25.89-15.422-38.793-23.124c1.085-1.865,2.853-1.541,4.904-2.674
			c-5.259-5.967,1.385-10.363,2.436-16.271c1.044-0.961,2.503-2.305,4.141-3.812c-1.206-3.131-2.442-6.343-3.766-9.782
			c0.636-1.151,1.343-2.431,1.949-3.527c-0.145-3.683-1.802-7.045-0.504-10.437c2.562-1.033,3.147,1.338,4.629,2.501
			c1.448-0.405,2.994-0.839,4.466-1.253c1.187-3.721-0.489-7.572,1.725-11.663c16.642,3.146,33.471,6.328,51.056,9.652
			C153.833,227.283,150.922,251.889,147.965,276.887z"/>
		<path fill-rule="evenodd" clip-rule="evenodd" d="M92.831,216.291c-15.008-23.527-29.303-45.938-43.658-68.442
			c3.583-12.015,7.115-23.862,10.75-36.049c19.223,4.502,38.139,8.933,57.631,13.499c-4.631,26.36-11.591,52.035-15.39,78.292
			c-3.491,1.755-5.053-5.276-9.102-1.366C92.976,206.093,94.191,210.481,92.831,216.291z"/>
		<path fill-rule="evenodd" clip-rule="evenodd" d="M235.534,155.565c0.668,17.621-1.023,34.788-1.593,52.705
			c-25.58-0.333-50.217-4.973-75.62-6.656c2.643-17.839,5.195-35.07,7.807-52.707C189.42,151.142,212.278,153.335,235.534,155.565z"
			/>
		<path fill-rule="evenodd" clip-rule="evenodd" d="M20.892,95.594c-1.484-6.523,0.427-11.276,3.688-16.07
			c7.38-10.847,12.599-22.816,16.481-35.202c4.784-1.307,6.131,2.525,8.616,4.783c-0.571,1.831-1.053,3.374-1.499,4.806
			c1.225,1.809,2.797,2.995,4.645,2.906c6.885-0.332,13.263,3.317,19.967,2.876c9.347-0.615,17.935,2.087,26.708,4.315
			c2.271,0.576,3.884,1.749,5.126,4.2c-0.027,7.789-8.311,10.406-11.48,16.945c2.762,3.329,2.092,6.85,0.618,11.111
			c-2.251,6.503-3.136,13.479-4.652,20.486C64.991,113.423,42.928,104.22,20.892,95.594z"/>
		<path fill-rule="evenodd" clip-rule="evenodd" d="M155.063,90.676c21.906,4.774,43.315,8.532,65.624,9.847
			c-1.785,17.487-3.879,34.228-4.626,51.743c-23.75-2.793-47.127-3.264-70.718-9.13C148.526,125.954,151.719,108.72,155.063,90.676z
			"/>
		<path fill-rule="evenodd" clip-rule="evenodd" d="M119.09,125.759c8.81,1.88,17.316,3.694,26.029,5.552
			c0.961,4.401-1.451,8.505-0.845,13.131c6.502,1.298,13.096,2.615,20.433,4.081c-2.562,17.432-5.102,34.728-7.714,52.502
			c-17.251-3.244-34.183-6.428-51.59-9.701C109.968,169.464,114.466,147.912,119.09,125.759z"/>
		<path fill-rule="evenodd" clip-rule="evenodd" d="M343.337,114.951c-0.009,1.628,1.719,2.938,0.492,5.438
			c-15.949,0.755-32.286,1.826-49.137,1.634c0-8.07,0-15.981,0-23.611c-1.595-1.887-2.867-3.393-4.209-4.981
			c1.023-1.211,1.97-2.333,3.07-3.634c-0.18-13.542-7.419-26.416-4.612-40.842c6.084,0,12.193-0.089,18.299,0.039
			c2.837,0.06,4.666,2.354,6.835,3.805c2.442,1.636,4.687,2.592,7.847,1.527c3.208-1.081,6.263-0.027,7.991,3.152
			c5.146-0.849,9.891,4.132,13.914,0.417c3.406,0.118,4.66,3.337,8.416,1.176c-9.048,8.939-20.117,14.467-20.829,27.656
			c-0.327,1.998-2.57,1.868-3.839,3.895c-1.09,4.87,1.879,10.032,0.894,16.085c6.911,0.011,9.939,5.857,15.035,8.419
			L343.337,114.951z"/>
		<path fill-rule="evenodd" clip-rule="evenodd" d="M237.256,168.501c24.298,2.43,48.13,2.069,72.917,3.45
			c-3.49,5.607-1.509,8.685,2.269,11.126c0,8.868,0,17.621,0,26.866c-25.631,0.095-51.019,0.655-77.152-1.998
			C235.935,195.009,236.575,182.177,237.256,168.501z"/>
		<path fill-rule="evenodd" clip-rule="evenodd" d="M113.759,26.285c2.129,0.492,3.712,0.857,5.194,1.199
			c1.464,3.39-0.673,5.558-2.039,7.747c-0.806,5.042,0.667,9.749,0.835,14.626c1.249,0.875,2.451,1.717,3.794,2.658
			c0.106,1.775,0.215,3.576,0.329,5.481c1.848,1.431,3.663,2.835,5.482,4.244c-1.475,5.235-6.585,9.738-3.008,15.288
			c1.979,1.243,2.6-1.503,4.668,0.079c0.535,3.254,1.168,7.11,1.851,11.262c2.471,1.273,2.954,4.3,4.65,6.724
			c5.443,0.298,10.864,0.277,17.295-0.911c-2.318,12.104-4.501,23.502-6.75,35.239c-18.778-3.586-37.081-7.97-55.771-12.633
			c2.615-8.623,2.792-17.504,6.865-25.628c-0.486-2.123-1.002-4.5-2.444-6.35c3.35-6.269,11.271-9.102,11.505-17.499
			c-2.385-2.128-1.921-4.848-1.085-7.933C108.119,48.866,110.832,37.779,113.759,26.285z"/>
		<path fill-rule="evenodd" clip-rule="evenodd" d="M290.167,90.464c-2.252,3.932,0.671,5.356,2.283,7.499
			c0,11.836,0,23.758,0,35.736c-2.651,0.313-3.97-1.907-6.038-1.859c-21.887-4.417-44.187-3.719-66.994-5.663
			c1.323-12.852,2.612-25.383,3.964-38.528C245.679,89.349,267.539,90.095,290.167,90.464z"/>
		<path fill-rule="evenodd" clip-rule="evenodd" d="M452.167,130.142c3.895,6.376,4.195,13.147,4.288,19.948
			c0.096,6.966-0.974,13.37-8.46,16.084c-0.398,4.641-5.09,6.935-4.745,11.235c-3.055,1.546-4.653-0.363-6.191-1.963
			c-5.936,2.628-6.896,2.447-20.511-3.791c-1.883,1.865-0.047,4.567-1.388,6.528c-1.181,1.635-3.181,0.508-4.795,1.475
			c-0.899,1.505-1.366,3.43-2.632,5.027c-1.07,1.349-1.451,3.243-2.118,4.85c-1.987,0.929-2.811-1.87-4.383-1.283
			c-1.818,0.5-1.291,2.361-2.522,3.43c-4.024,0.251-8.163,1.792-12.593,1.189c-1.219-1.261-1.083-3.019-0.465-4.146
			c5.563-10.152,2.967-20.526,1.144-30.912c-0.779-4.442-0.372-8.913-0.271-13.027c7.86-3.437,15.518-6.362,24.42-4.348
			c1.463,9.534,2.951,19.24,4.439,28.945c0.413-0.064,0.825-0.129,1.238-0.194c-1.41-9.755-2.82-19.511-4.322-29.896
			c6.078-0.695,11.468-3.463,17.882-0.855c4.773,1.941,9.792-0.153,14.15-2.797C446.879,134.094,449.227,132.223,452.167,130.142z"
			/>
		<path fill-rule="evenodd" clip-rule="evenodd" d="M303.521,170.048c-22.014-0.125-43.732-1.386-65.518-2.798
			c-1.308-4.314,0.086-8.542-1.04-12.876c-6.364-0.708-12.727-1.415-19.668-2.186c0.654-8.22,1.278-16.066,1.973-24.799
			c19.741,2.863,39.274,0.8,58.187,5.624c5.343-0.515,10.592-0.783,14.875,3.236C299,146.246,296.904,159.145,303.521,170.048z"/>
		<path fill-rule="evenodd" clip-rule="evenodd" d="M223.037,86.23c2.59-13.708,1.902-26.829,3.599-40.46
			c19.963,1.964,39.674,2.135,60.147,3.177c-1.663,13.669,4.594,26.063,5.12,40.004C268.92,89.287,246.485,87.594,223.037,86.23z"/>
		<path fill-rule="evenodd" clip-rule="evenodd" d="M353.373,177.959c0.693,2.783,1.629,5.362,4.711,5.492
			c1.802,3.691-1.603,7.795,2.439,11.063c1.084,0.263,2.665,0.646,3.87,0.938c4.896,3.427,2.391,10.846,8.559,13.156
			c-1.239,5.022-5.212,8.461-5.693,13.444c-3.723-1.335-2.564-3.937-2.559-6.883c-16.394,0.805-32.67,1.909-49.74,1.856
			c0-11.488,0-22.689,0-33.097c-2.104-2.669-4.544-3.535-5.345-5.577c-0.56-2.252,1.273-3.557,1.468-5.494
			c-3.187-2.901-7.559-4.699-9.667-9.526c14.458,0,28.591,0,42.682,0c2.086,2.484,0.942,5.531,1.723,8.499
			c2.346,2.125,4.307,5.08,7.728,6.307L353.373,177.959z"/>
		<path fill-rule="evenodd" clip-rule="evenodd" d="M263.573,246.071c-1.373-3.77-5.361-0.529-7.618-3.183
			c-2.45-8.642,2.296-18.201-0.781-27.256c-10.544-1.669-20.751-0.353-30.526-3.104c-0.242-0.068-0.188-1.192-0.386-2.674
			c29.606,0.019,58.854,3.214,88.706,1.514c1.127,14.511,4.352,28.117,3.284,43.251c-7.152-6.372-14.58-1.846-21.887-1.729
			l0.193,0.159c-0.52-2.274-2.129-1.403-3.533-1.259c-4.603,0.474-9.187,0.579-13.661-0.909c0,0,0.191,0.177,0.191,0.178
			c0-0.788-0.391-1.185-1.182-1.181l0.185,0.168c-0.052-0.991-0.71-1.613-1.551-1.35c-3.886,1.219-7.172-0.758-10.636-1.813
			l0.181,0.174c0.057-0.842-0.388-1.184-1.179-1.18L263.573,246.071z"/>
		<path fill-rule="evenodd" clip-rule="evenodd" d="M102.818,64.153c-16.618-8.714-35.289-4.12-52.305-10.485
			c0.458-1.597,0.9-3.136,1.326-4.62c-1.131-2.25-3.411-3.396-3.957-5.598c-1.81-0.339-3.237-0.606-5.055-0.946
			c3.054-9.676,0.402-19.799,4.021-30.25c4.425,4.254,9.169,7.182,11.718,12.736c-2.601,2.434-3.492,5.543-3.749,9.045
			c1.253,1.473,3.138,1.24,4.988,1.699c1.578-3.307,2.169-7.099,5.884-9.637c-3.281-5.084,1.405-9.94-0.034-15.822
			c15.287,6.937,31.266,10.275,47.011,15.466C109.482,38.161,106.37,50.3,102.818,64.153z"/>
		<path fill-rule="evenodd" clip-rule="evenodd" d="M447.248,233.804c1.905,4.868,6.076,7.778,9.912,10.773
			c5.826,4.551,10.158,10.249,14.65,16.673c-4.716,4.9-2.854,11.342-3.448,17.478c-1.951,0.196-3.547,0.356-5.38,0.541
			c-0.38,1.471-0.736,2.848-1.2,4.634c-10.385-0.361-20.55,1.709-30.806,0.966c-4.647-4.277-5.573-10.472-2.72-18.932
			c-4.876-11.27-9.908-22.735-12.623-35.389c7.815-2.671,15.911-3.242,24.577-2.666c0.282,4.453,2.963,6.281,7.223,6.094
			L447.248,233.804z"/>
		<path fill-rule="evenodd" clip-rule="evenodd" d="M353.548,178.138c-0.354-2.038-2.266-2.736-3.52-3.96
			c-4.255-4.155-4.976-10.844-1.521-15.761c1.543-2.195,3.777-4.238,1.041-7.373c3.981-2.452,7.704-5.185,8.825-9.937
			c-0.134-2.749-2.931-3.701-3.808-6.652c8.185-0.586,16.19-1.16,23.369-1.673c7.824,6.992,5.876,16.037,7.576,24.122
			c1.641,7.796,0.837,15.705,1.977,23.488c0.07,0.482,0.131,1.124-0.114,1.472c-4.446,6.291-2.656,15.028-8.478,21.084
			c-1.179,0.118-2.647,0.265-4.209,0.42c-0.901,0.85-1.848,1.741-3.072,2.895c-2.768-3.702-2.326-8.794-6.212-11.996
			c-1.759-0.527-4.355-0.279-5.83-3.135c0.945-2.481,1.088-5.382,0.563-8.755c-3.702,0.707-4.128-3.366-6.764-4.417L353.548,178.138
			z"/>
		<path fill-rule="evenodd" clip-rule="evenodd" d="M300.646,161.316c-0.14-13.118-8.783-23.969-5.656-37.496
			c16.347-0.646,32.84-1.296,49.488-1.953c0.125,2.598,0.221,4.573,0.337,6.979c3.14,4.413,9.857,5.828,11.798,11.844
			c-0.2,5.347-5.149,6.83-8.168,9.863c-1.012,1.604,1.063,2.36,0.938,3.977c-1.336,2.132-2.82,4.5-4.252,6.786
			C330.676,161.316,316.121,161.316,300.646,161.316z"/>
		<path fill-rule="evenodd" clip-rule="evenodd" d="M470.799,332.388c-8.8-0.549-3.082-9.558-7.106-13.032
			c-1.687-0.631-3.294-0.233-5.646,0.321c2.513-4.471,2.686-8.485,2.04-13.365c-7.688-2.583-12.001-11.796-23.103-12.185
			c-1.694,2.304-3.968,5.395-5.735,7.798c-6.139-0.247-5.759-5.43-8.635-7.484c-7.004-1.95-14.124-2.836-21.063-0.196
			c-1.774-2.088-1.945-4.185-2.944-6.691c9.783-1.328,19.057-2.587,28.245-3.834c1.42,1.059,2.598,1.938,2.92,2.178
			c11.542,0,22.15,0,31.657,0c2.537-1.662,1.459-3.67,2.818-4.744c1.364-0.74,2.813-0.446,4.396,0.01
			c0.196,0.334,0.566,0.715,0.657,1.153c1.582,7.636,6.294,13.647,9.871,20.32c4.594,8.567,10.257,16.483,14.591,25.025
			c3.015,5.943,2.211,13.706,1.395,20.672c-0.367,3.127-2.574,3.751-8.556,3.284c-1.747-1.853-3.679-3.9-5.905-6.259
			c-1.167-0.33-2.731-0.771-4.686-1.323C475.779,339.652,472.378,336.648,470.799,332.388z"/>
		<path fill-rule="evenodd" clip-rule="evenodd" d="M343.503,115.126c-3.178-4.524-7.01-8.181-12.517-9.423
			c-2.438-4.182-0.623-9.013-2.481-12.799c0.289-3.071,3.051-3.175,4.724-4.902c0.105-2.384,0.222-5.015,0.333-7.545
			c7.861-5.255,14.567-4.267,22.319,3.333c4.863-0.451,9.379,2.666,14.703,1.952c1.44,1.264,2.921,2.563,4.226,3.708
			c1.078,2.801,0.231,5.652,1.858,7.778c-1.157,2.906-3.313,5.247-1.681,8.35c2.194,0.147,2.733-2.559,6.202-3.551
			c-4.295,9.619-2.802,18.999-2.642,28.115c-1.278,1.507-2.872,1.556-4.271,1.673c-5.791,0.487-11.605,0.717-17.396,1.209
			c-4.132,0.351-7.473-0.934-10.282-4.285c-0.531-3.717,0.305-7.769-1.133-11.608c-0.429-1.146-0.549-2.286-2.128-2.18
			L343.503,115.126z"/>
		<path fill-rule="evenodd" clip-rule="evenodd" d="M364.312,216.171c-3.092,4.268,0.411,5.478,1.192,8.1
			c-2.078,2.849-2.25,6.431-1.983,10.28c-1.147,1.096-2.322,2.219-3.863,3.689c1.514,5.908-3.078,9.795-5.689,14.501
			c-0.022,3.324,1.024,6.602,0.132,10.647c-9.95,1.229-20.103,0.7-30.477,0.642c-0.149-2.893-0.275-5.34-0.388-7.534
			c-1.186-1.91-3.258-0.93-4.875-1.909c-1.014-11.688-1.032-23.431-3.405-35.188C331.26,216.443,347.117,219.467,364.312,216.171z"
			/>
		<path fill-rule="evenodd" clip-rule="evenodd" d="M397.457,286.304c-0.507,3.205,1.72,5.338,1.816,8.005
			c-2.228,2.44-4.984,3.112-8.997,2.387c-2.081-20.181-2.967-40.64-2.831-61.856c8.813-1.328,17.518-2.641,26.653-4.018
			c2.979,12.319,7.676,23.753,12.79,35.262c-3.239,5.189-0.967,10.575-0.335,16.31C416.604,283.729,407.003,285.021,397.457,286.304
			z"/>
		<path fill-rule="evenodd" clip-rule="evenodd" d="M361.605,237.594c7.57-3.09,15.559-2.638,24.248-2.567
			c0.474,21.652,1.053,43.027,2.748,63.807c-4.136,2.1-7.64-0.186-10.373,3.192c-2.267-5.086-6.083-8.464-6.247-13.676
			c-6.539,0.483-12.671,2.061-19.135,1.499c-1.954-7.537,3.843-12.146,6.573-17.72c-1.066-1.474-1.932-2.668-2.767-3.822
			c-0.546-7.459-3.697-15.263,2.865-21.641C361.935,244.317,361.185,241.452,361.605,237.594z"/>
		<path fill-rule="evenodd" clip-rule="evenodd" d="M491.527,229.95c-3.218-4.006-6.538-7.872-12.404-8.866
			c-2.988,1.131-6.901,0.28-9.817,3.195c-1.282-1.887-1.489-4.161-3.825-4.822c-5.88,1.503-12.867-1.335-18.145,2.896
			c-5.45,4.371-11.35,3.742-17.729,3.502c0.368-3.338,2.77-4.543,5.119-6.027c6.545-4.137,12.967-8.469,19.424-12.746
			c1.603-1.062,2.578-2.549,2.417-4.434c19.755-4.798,39.944-5.962,59.197-12.696c1.725,5.036-4.419,4.648-5.205,7.927
			c2.773,2.559,7.482-0.85,9.884,3.104c-2.075,4.088-6.645,2.564-9.512,4.605c-0.471,3.15,3.787,4.147,3.458,7.482
			c-5.714,3.384-11.538,6.83-13.498,14.372c-2.814,1.2-5.822,3.079-9.523,2.342L491.527,229.95z"/>
		<path fill-rule="evenodd" clip-rule="evenodd" d="M325.355,283.923c-1.611-5.703-2.791-11.444-1.482-17.869
			c9.942-0.507,20.047,0.554,30.418-1.526c0.138,3.287,1.79,5.341,3.631,7.909c-4.303,5.357-7.885,11.149-6.942,19.157
			c6.698-0.816,13.23-0.281,19.864-1.685c0.777,5.648,4.7,9.124,7.195,13.953c0.047,1.971-3.334,3.344-2.112,6.56
			c1.912,0.68,4.051,1.439,6.188,2.199c0.509,1.007,0.373,1.913-0.565,2.88c-3.908-0.016-5.858-3.777-9.187-5.27
			c-1.431,0.694-0.356,2.564-1.515,3.341c-2.152,0.841-4.224,0.117-6.345-0.567c-7.539,5.604-9.47-2.513-14.094-5.978
			c-7.057,7.096-14.782-1.463-22.654,1.474c-0.923-4.178,1.585-7.788-0.528-11.116c1.018-2.054,1.962-3.959,2.953-5.959
			c-1.617-2.613-2.149-5.868-4.998-7.665L325.355,283.923z"/>
		<path fill-rule="evenodd" clip-rule="evenodd" d="M453.607,129.028c1.952-1.979,3.352-3.398,5.169-5.24
			c0.987,3.203,3.321,2.716,5.355,1.994c10.121-3.593,21.206-3.532,31.011-8.5c3.044-1.543,6.836-0.771,9.752-0.009
			c1.854,1.049,1.268,2.74,2.107,3.769c1.009,1.421,2.93,0.462,4.288,1.792c-1.221,3.458-1.601,7.161-0.422,11.146
			c1.023,1.168,2.216,2.53,3.4,3.883c-2.506,5.515-6.607,8.162-12.468,9.419c-11.634,2.495-22.961,6.335-34.749,8.258
			c-2.315,0.378-4.564,0.696-7.03,0.067C456.883,146.97,458.154,137.29,453.607,129.028z"/>
		<path fill-rule="evenodd" clip-rule="evenodd" d="M461.588,125.226c-0.647-5.869,4.26-6.795,6.491-10.32
			c-0.635-2.224-1.392-4.875-2.295-8.038c8.922-0.81,18.46,0.074,24.455-9.787c0.013-2.342,1.22-5.89-2.29-8.508
			c6.533-7.521,11.482-16.621,23.232-16.842c0.787,4.9,3.87,9.698,3.309,15.17c9.262,10.897,3.694,24.986,9.802,37.307
			c-6.09-1.502-10.813-2.667-14.675-3.621c-2.53-1.018-1.797-3.055-2.811-4.042c-5.115-2.294-9.95-1.856-14.893,0.477
			C482.43,121.497,471.686,121.148,461.588,125.226z"/>
		<path fill-rule="evenodd" clip-rule="evenodd" d="M436.568,177.246c1.368,1.068,2.543,1.984,3.785,2.955
			c0.532,4.695,3.623,7.552,8.016,9.798c-5.194,6.331-10.302,12.105-17.314,15.765c-3.791,1.979-8.151,1.472-12.23,2.077
			c-10.981,1.629-22.077,2.349-32.949,4.937c-3.757,0.893-7.905,0.142-12.238,0.142c1.146-2.519,0.531-5.016,0.926-7.297
			c1.58-1.346,3.445-0.181,5.431-1.39c1.72-2.696,3.757-5.892,5.596-8.774c5.218-2.894,11.795,0.06,16.533-4.711
			c8.446,3.224,4.199-8.035,9.328-8.813c3.799-1.057,6.75-2.776,5.991-7.463c3.229-1.255,4.204,1.441,6.028,2.976
			C427.77,177.628,432.209,180.492,436.568,177.246z"/>
		<path fill-rule="evenodd" clip-rule="evenodd" d="M394.063,139.778c-0.32-2.974,2.176-4.964,2.223-7.537
			c0.085-4.567,0.914-9.203-2.38-13.354c-2.435-3.069-2.205-7.128-1.033-10.529c0.99-2.875,1.673-5.662,1.554-8.308
			c1.296-1.799,3.185-0.605,4.695-1.97c1.262-3.619,2.986-7.515,3.696-12.167c5.554-2.518,8.999,4.107,13.406,3.19
			c4.445,6.777,4.402,12.83-1.472,17.929c0.238,2.775,0.642,4.96,3.875,5.574c2.438-2.577,5.006-5.292,8.345-8.822
			c1.569,6.93,5.339,12.206,4.301,19.412c-2.54,3.397-7.524,6.238-5.74,11.985C414.854,138.326,404.314,137.624,394.063,139.778z"/>
		<path fill-rule="evenodd" clip-rule="evenodd" d="M425.674,226.842c-19.075,3.784-39.233,7.595-59.859,7.159
			c-0.985-6.188-0.985-6.188,5.501-18.4c27.889-3.133,55.436-7.593,83.111-12.434C446.633,212.739,433.983,216.09,425.674,226.842z"
			/>
		<path fill-rule="evenodd" clip-rule="evenodd" d="M437.224,204.145c4.516-4.745,8.38-8.805,12.336-12.963
			c7.554,5.354,12.527-0.629,18.587-3.867c-0.813-4.708,1.482-8.623,3.008-12.752c5.479-3.801,10.279-8.126,12.018-15.65
			c4.05,1.358,8.77-0.083,12.654,1.866c1.415,2.382-0.359,4.002-0.159,6.011c2.182,3.594,6.844,3.462,10.219,6.251
			c-2.681,2.526,0.517,3.877,1.329,5.833c-0.512,1.084-0.99,2.098-1.52,3.221c1.074,1.208,2.054,2.311,3.034,3.415
			c1.812,1.405,5.565-1.327,6.13,3.5C489.701,196.123,463.729,199.299,437.224,204.145z"/>
		<path fill-rule="evenodd" clip-rule="evenodd" d="M537.999,29.291c1.771-0.813,3.151,0.169,4.823,0.289
			c1.462-1.108,3.034-2.301,4.389-3.329c2.736-0.526,3.843,0.96,4.925,2.827c1.794,3.097,2.367,6.561,3.072,9.938
			c0.761,3.643,2.302,6.181,6.254,6.488c0.898,1.401,1.695,2.643,2.575,4.018c1.566,0.858,3.95,0.595,4.948,3.027
			c-3.334,5.968-11.092,8.404-13.563,15.053c-2.488,6.691-10.752,9.365-11.028,17.804c-5.305-4.817-7.061-10.827-8.785-16.715
			c-1.408-4.806-2.449-9.485-0.47-14.86c1.455-3.95,0.423-8.89,0.177-13.371C535.087,36.316,536.26,32.663,537.999,29.291z"/>
		<path fill-rule="evenodd" clip-rule="evenodd" d="M491.367,229.783c-0.365,1.525,1.649,1.49,1.755,2.683
			c-1.786,3.258-5.398,5.603-4.707,9.927c-2.594,2.428-5.761,3.972-6.271,8.066c-0.351,2.809-3.465,2.519-5.442,2.719
			c-2.808,1.501-1.569,4.772-3.927,7.127c-6.224-11.236-16.787-17.952-25.526-26.501l0.186,0.172
			c-0.135-2.933-2.983-1.303-3.938-2.266c-1.575-1.435-0.937-2.953-1.005-4.046c6.418-7.77,15.269-5.246,22.805-6.535
			c1.923,1.067,0.821,3.13,2.134,4.105c1.304,0.745,2.497,0.399,3.742-0.249c6.626-3.452,10.224-2.971,15.646,1.737
			c1.421,1.233,2.462,3.154,4.709,3.228L491.367,229.783z"/>
		<path fill-rule="evenodd" clip-rule="evenodd" d="M448.918,171.019c0.183-1.15,0.388-2.439,0.629-3.958
			c4.458-2.707,8.371-5.975,7.908-12.059c1.779,0.018,0.309,2.45,2.146,2.277c3.313,0.131,6.757-0.812,10.39-0.064
			c0.637,1.941,1.286,3.922,2.164,6.597c3.754-4.355,7.576-8.148,13.109-8.913c1.594-0.221,2.255,1.682,3.468,4.012
			c-2.986-2.123-5.282-1.455-7.563-0.517c0.896,4.011-3.046,9.808-11.319,15.347c-0.565,4.321-4.773,7.665-3.242,12.708
			c-4.18,2.577-7.741,6.004-13.382,5.448c-3.267-3.041-8.457-4.216-10.641-8.917C441.659,180.984,446.141,172.744,448.918,171.019z"
			/>
		<path fill-rule="evenodd" clip-rule="evenodd" d="M397.189,79.233c-2.812,1.704-5.322,3.422-8.69,2.773
			c-1.563,2.211-3.87,3.481-5.864,5.114c-1.85,1.515-2.947,3.947-4.73,6.478c-1.124-4.333-3.619-7.143-7.294-9.167
			c-5.581-1.763-12.726,0.476-17.929-5.951c6.424-2.785,12.011-5.913,16.382-11.004c-0.514,2.398-2.639,4.354-0.95,7.007
			c2.038,0.78,4.075-1.159,6.933,0.087c2.557,2.851,6.405,4.333,11.808,2.787c2.362-2.426,6.058-4.152,10.379-4.856
			c1.858,1.808,2.854,2.001,10.346,1.835c1.318,1.262,0.611,2.725,0.666,4.217C404.588,80.39,401.048,80.27,397.189,79.233z"/>
		<path fill-rule="evenodd" clip-rule="evenodd" d="M521.474,97.709c-3.486-5.353-8.215-21.547-7.824-27.056
			c4.03-2.017,8.315-3.504,13.036-3.566c1.42,1.257,1.312,3.016,1.874,4.325c-2.541,6.227-3.421,15.994-1.256,25.11
			C525.655,98.422,523.563,98.139,521.474,97.709z"/>
		<path fill-rule="evenodd" clip-rule="evenodd" d="M532.377,60.445c1.403,11.41,6.719,20.615,12.113,30.121
			c-6.16,2.456-10.678,4.256-15.227,6.07C526.823,88.379,528.426,65.017,532.377,60.445z"/>
		<path fill-rule="evenodd" clip-rule="evenodd" d="M497.29,166.199c0.691-2.454,1.063-4.532-0.514-6.691
			c-3.514-1.11-7.864-1.605-9.788-6.833c7.075-1.838,13.971-3.63,21.007-5.458c2.239,5.153,2.448,10.694,3.882,15.63
			c1.667,1.372,3.513,0.46,5.117,1.236c1.502,2.976-0.29,4.044-2.783,4.688c-6.962-2.443-7.936-9.588-11.705-14.773
			c-0.457,4.235-0.336,8.293,0.901,12.474C501.51,167.426,499.678,167.029,497.29,166.199z"/>
		<path fill-rule="evenodd" clip-rule="evenodd" d="M556.365,103.941c-0.616,2.548-4.745,2.624-3.921,6.459
			c-2.791-4.17-8.084-3.382-10.558-7.184c-6.376,1.526-12.6,3.016-19.135,4.581c-0.625-2.643-0.393-5.21-0.128-8.387
			c7.988,0.137,14.329-5.879,22.706-6.407c-0.239,1.843-0.402,3.102-0.573,4.416c3.382,3.301,6.339,7.069,11.723,6.637
			L556.365,103.941z"/>
		<path fill-rule="evenodd" clip-rule="evenodd" d="M523.232,125.774c-1.501,2.012-2.459,3.297-3.489,4.676
			c4.904,7.771,3.232,15.024-1.648,22.301c-2.554-2.272-6.277-2.696-7.579-6.198c1.269-3.219,3.815-5.491,5.725-8.66
			c-4.539-4.054-6.689-8.839-3.045-14.843C516.444,123.239,519.372,124.68,523.232,125.774z"/>
		<path fill-rule="evenodd" clip-rule="evenodd" d="M537.983,105.684c0.477,3.417,1.896,5.946,1.279,8.992
			c-5.732,0.569-9.102,5.619-14.421,7.411c-1.139-4.175-3.138-8.021-2.171-12.702C527.613,108.19,532.507,107.008,537.983,105.684z"
			/>
		<path fill-rule="evenodd" clip-rule="evenodd" d="M518.692,161.364c-2.295,0.844-3.864,0.86-5.736,0.103
			c-0.45-2.213-0.928-4.56-1.53-7.519C514.45,156.143,516.307,158.566,518.692,161.364z"/>
		<path fill-rule="evenodd" clip-rule="evenodd" d="M533.92,121.36c-2.133,5.384-6.8,7.621-9.714,4.131
			c3.634-0.749,7.226-1.31,9.729-4.138L533.92,121.36z"/>
		<path fill-rule="evenodd" clip-rule="evenodd" d="M539.347,105.175c3.277-0.218,3.911,1.595,4.092,3.597
			c0.14,1.552,0.42,3.495-2.583,3.223C540.38,109.844,539.888,107.618,539.347,105.175z"/>
		<path fill-rule="evenodd" clip-rule="evenodd" d="M533.935,121.353c0.249,0.041,0.706,0.06,0.714,0.128
			c0.047,0.425-0.104,0.434-0.364,0.043c-0.063-0.094-0.239-0.111-0.364-0.164L533.935,121.353z"/>
		<path fill-rule="evenodd" clip-rule="evenodd" d="M556.479,104.055c0.104-0.249,0.209-0.498,0.326-0.775
			c0.55,0.719-0.051,0.618-0.44,0.661L556.479,104.055z"/>
		<path fill-rule="evenodd" clip-rule="evenodd" fill="none" d="M277.365,250.883c4.474,1.488,9.058,1.383,13.661,0.909
			c1.404-0.145,3.013-1.016,3.533,1.259c-4.575-0.645-9.153,1.039-13.751-0.075C279.363,252.626,277.784,252.796,277.365,250.883z"
			/>
		<path fill-rule="evenodd" clip-rule="evenodd" fill="none" d="M264.372,246.886c3.464,1.055,6.75,3.031,10.636,1.813
			c0.841-0.264,1.499,0.358,1.551,1.35C272.252,249.938,267.543,251.373,264.372,246.886z"/>
		<path fill-rule="evenodd" clip-rule="evenodd" fill="none" d="M276.375,249.88c0.791-0.004,1.182,0.393,1.182,1.181
			C276.766,251.063,276.373,250.669,276.375,249.88z"/>
		<path fill-rule="evenodd" clip-rule="evenodd" fill="none" d="M263.374,245.88c0.791-0.004,1.235,0.338,1.179,1.18
			C263.757,247.069,263.397,246.643,263.374,245.88z"/>
	</g>
</g>
</svg>
