<?xml version="1.0" encoding="utf-8"?>
<!-- Generator: Adobe Illustrator 16.0.0, SVG Export Plug-In . SVG Version: 6.00 Build 0)  -->
<!DOCTYPE svg PUBLIC "-//W3C//DTD SVG 1.1//EN" "http://www.w3.org/Graphics/SVG/1.1/DTD/svg11.dtd">
<svg version="1.1" id="Layer_1" xmlns="http://www.w3.org/2000/svg" xmlns:xlink="http://www.w3.org/1999/xlink" x="0px" y="0px"
	 width="770px" height="609.5px" viewBox="96.5 -49.5 770 609.5" enable-background="new 96.5 -49.5 770 609.5"
	 xml:space="preserve">
<text transform="matrix(1 0 0 1 113 139)" fill="#EF2525" font-family="'BodoniMT-Bold'" font-size="150"> </text>
<text transform="matrix(1 0 0 1 113 139)" fill="none" stroke="#FF8654" font-family="'BodoniMT-Bold'" font-size="150"> </text>
<rect x="113" y="-27.5" width="753.5" height="242"/>
<rect x="126.5" y="-21.5" fill="#FFE400" width="728" height="224"/>
<path d="M567.167,372.5"/>
<polyline points="429,230.5 507,230.5 507,326.5 429,326.5 "/>
<polyline points="367,325.5 570,325.5 472,456.5 "/>
<polyline fill="#FFE400" points="446.5,244.5 489.75,244.5 489.75,326.5 446.5,326.5 "/>
<polyline fill="#FFE400" points="389.5,335.5 543.5,335.5 471.5,423.5 "/>
<text transform="matrix(1 0 0 1 321.5 55.5)"><tspan x="0" y="0" font-family="'Verdana'" font-size="60">Welcome,</tspan><tspan x="-493.154" y="72" font-family="'Verdana'" font-size="60">                 scroll down to begin </tspan></text>
</svg>
