<?xml version="1.0" encoding="utf-8"?>
<!-- Generator: Adobe Illustrator 16.0.0, SVG Export Plug-In . SVG Version: 6.00 Build 0)  -->
<!DOCTYPE svg PUBLIC "-//W3C//DTD SVG 1.1//EN" "http://www.w3.org/Graphics/SVG/1.1/DTD/svg11.dtd">
<svg version="1.1" id="Layer_1" xmlns="http://www.w3.org/2000/svg" xmlns:xlink="http://www.w3.org/1999/xlink" x="0px" y="0px"
	 width="397.5px" height="57.379px" viewBox="0 0 397.5 57.379" enable-background="new 0 0 397.5 57.379" xml:space="preserve">
<g id="Layer_1_1_">
	<text transform="matrix(1 0 0 1 128.2354 23.5498)" font-family="'Verdana'" font-size="14">Recruitment, transportation, transfer, </text>
	<text transform="matrix(1 0 0 1 128.2354 40.3496)" font-family="'Verdana'" font-size="14">harboring or receipt of persons.</text>
	<g>
		<g>
			<path fill="none" d="M59.556,47.535c-19.445,0-38.891-0.012-58.335,0.029C0.189,47.566-0.003,47.375,0,46.343
				C0.043,29.676,0.043,13.009,0-3.658c-0.004-1.031,0.189-1.221,1.22-1.22c38.89,0.036,77.78,0.036,116.67,0
				c1.031,0,1.225,0.189,1.222,1.221c-0.044,16.667-0.044,33.334,0,50.001c0.003,1.032-0.189,1.225-1.222,1.223
				C98.446,47.525,79.001,47.535,59.556,47.535z M62.73,19.521c0-1.603-0.037-2.925,0.013-4.244c0.034-0.871-0.521-0.832-1.11-1.151
				c-1.208-0.653-1.905,1.359-3.064,0.324c-0.507-0.453-1.254-0.637-1.892-0.943c-0.187,0.715-0.364,1.433-0.562,2.146
				c-0.164,0.591-0.309,1.193-0.545,1.755c-0.124,0.293-0.413,0.709-0.653,0.727c-1.136,0.086-2.173,0.368-3.273,0.705
				c-1.397,0.429-3.068-0.031-4.622-0.108c-0.056-1.166-0.027-2.344-0.192-3.494c-0.138-0.965-0.487-1.903-0.78-2.841
				c-0.067-0.217-0.283-0.546-0.44-0.551c-1.05-0.038-2.107-0.044-3.15,0.056c-0.152,0.015-0.412,0.911-0.341,0.955
				c1.828,1.15-0.009,2.259-0.079,3.34c-0.161,2.523-0.297,2.529-2.637,2.751c-0.669,0.064-1.432-0.025-1.228,0.939
				c0.061,0.287,0.711,0.482,1.119,0.652c0.337,0.142,0.716,0.185,1.076,0.272c-0.364,0.177-0.734,0.344-1.092,0.535
				c-0.391,0.209-0.77,0.44-1.154,0.663c0.298,0.308,0.601,0.88,0.895,0.875c1.22-0.019,2.105,0.469,2.24,1.639
				c0.166,1.435,0.585,3.264-0.083,4.273c-1.118,1.69-0.381,3.3-0.665,4.904c-0.145,0.815,0.204,1.2,1.073,1.144
				c1.241-0.078,1.557,0.199,0.995,1.567c-1.111,2.707-0.712,3.271,1.51,3.207c0.789-0.022,1.159-0.162,1.202-1.056
				c0.084-1.758,0.203-1.705,1.756-3.563c1.072-1.282,2.107-3.045,1.254-4.484c-0.856-1.446-0.583-2.75-0.623-4.112
				c-0.083-2.825,0.292-3.12,3.065-2.66c0.836,0.139,1.617,0.604,2.453,0.748c0.988,0.172,0.88,0.701,0.648,1.371
				c-0.479,1.386-1.341,2.783-1.305,4.159c0.026,0.992,0.307,2.332,0.772,3.182c0.827,1.512,1.383,3.148,2.268,4.623
				c0.186,0.313,0.259,0.689,0.439,1.005c0.465,0.813,1.323,1.015,2.038,0.724c1.016-0.416,1.911-1.128,2.857-1.714
				c-0.158-0.208-0.281-0.461-0.48-0.616c-1.143-0.897-1.167-1.041-0.111-1.59c0.759-0.395,2.005-0.555,2.237-1.137
				c1.046-2.629,2.909-5.447,1.37-8.211C62.616,23.926,62.845,21.628,62.73,19.521z M97.854,7.879
				c-1.751,0.384-4.345-1.075-6.11,1.439c-0.184,0.262-0.994,0.044-1.5,0.128c-1.623,0.271-2.211,0.885-2.115,2.137
				c0.086,1.13,0.963,2.002,2.427,1.766c2.272-0.366,4.224,0.975,6.409,0.884c0.22-0.009,0.662,0.459,0.656,0.697
				c-0.061,2.181,1.188,4.135,0.896,6.409c-0.219,1.7-0.668,3.693,1.284,5.002c0.277,0.186,0.217,0.955,0.224,1.455
				c0.023,1.849-0.094,3.701,0.039,5.538c0.126,1.748,0.464,3.482,0.79,5.209c0.073,0.384,0.484,0.704,0.74,1.055
				c0.273-0.332,0.566-0.648,0.816-0.998c0.285-0.402,0.593-0.81,0.783-1.259c0.221-0.521,0.324-1.094,0.479-1.646
				c0.375,0.505,0.75,1.009,1.123,1.515c0.373,0.504,0.711,1.041,1.134,1.5c0.129,0.142,0.575,0.179,0.717,0.063
				c0.153-0.123,0.173-0.48,0.158-0.73c-0.129-2.314,0.044-4.712-0.511-6.924c-0.564-2.257-1.256-4.312,0.057-6.509
				c0.232-0.389,0.23-1.151,0-1.543c-1.28-2.178-0.604-4.538-0.748-6.815c-0.058-0.9,0.156-1.835-0.793-2.456
				c-0.305-0.2-0.514-0.547-0.766-0.827c0.346-0.119,0.691-0.334,1.039-0.34c1.979-0.033,3.961-0.083,5.936,0.007
				c1.365,0.063,2.391-0.631,3.255-1.428c0.5-0.462-1.378-2.203-2.856-2.555c-0.249-0.06-0.53-0.042-0.788-0.004
				C106.457,9.274,102.435,7.609,97.854,7.879z M88.754,28.451c0.547-3.051-0.029-5.428-0.879-7.675
				c-0.523-1.387-1.279-2.599-1.438-4.189c-0.11-1.104-1.023-2.765-1.901-3.006c-1.34-0.37-1.283-1.841-2.623-2.209
				c-0.953-0.262-1.516-1.891-2.288-2.882c-0.323-0.414-0.712-0.791-1.132-1.102c-0.104-0.077-0.66,0.22-0.65,0.256
				c0.361,1.463-0.779,2.111-1.572,2.933c-0.826,0.855-1.658,1.706-2.523,2.52c-1.56,1.468-2.498,3.159-2.31,5.397
				c0.074,0.881,0.208,2.063-0.261,2.627c-1.585,1.905-1.219,4.074-1.327,6.22c-0.036,0.72-0.43,1.413-0.555,2.136
				c-0.474,2.75-1.406,5.445-1.008,8.303c0.188,1.354,1.018,1.801,2.839,1.847c1.693,0.042,1.211-1.19,1.084-1.896
				c-0.361-2.002,0.592-3.756,0.917-5.607c0.266-1.518,1.23-2.906,1.834-4.373c0.232-0.563,0.629-1.354,0.414-1.757
				c-0.766-1.44,0.1-2.759,0.074-4.125c-0.021-1.161-0.349-2.808,0.265-3.387c1.276-1.205,1.634,1.097,2.724,1.292
				c1.092,0.196,2.154,0.544,3.242,0.77c1.004,0.209,1.622,0.747,1.68,1.79c0.044,0.79-0.192,1.66,0.073,2.352
				c0.208,0.543,1.293,0.76,1.475,1.297c1.226,3.609,1.038,7.344,0.563,11.047c-0.066,0.521-0.945,1.098-0.22,1.588
				c0.427,0.289,1.271,0.223,1.819,0.021c2.387-0.882,2.862-1.58,2.615-4.354C89.494,32.146,89.015,30.039,88.754,28.451z
				 M22.253,24.345c0-0.531,0.04-0.681-0.006-0.793c-0.408-1.005-0.57-2.484-1.313-2.888c-1.068-0.58-1.625,0.984-2.359,1.641
				c-0.523,0.469-0.718,1.286-1.172,1.857c-0.19,0.239-0.726,0.401-1.005,0.307c-0.238-0.079-0.444-0.567-0.477-0.896
				c-0.333-3.357-1.905-6.333-2.958-9.462c-0.171-0.51,0.103-1.803-1.24-1.499c-1.174-2.234-2.914-4.321-1.789-7.142
				c0.166-0.417,0.177-0.896,0.259-1.347c-0.621-0.069-1.44-0.421-1.824-0.152C7.412,4.642,6.565,5.532,5.89,6.487
				c-0.127,0.18,0.792,1.035,1.126,1.636c0.17,0.308,0.167,0.744,0.149,1.118c-0.092,1.806,0.009,3.524,1.225,5.047
				c0.342,0.429,0.338,1.195,0.356,1.811c0.046,1.581,0.142,3.177-0.021,4.742c-0.153,1.475,0.189,2.855,0.903,3.98
				c0.532,0.838,0.751,1.562,0.73,2.486c-0.034,1.58,0.029,3.164-0.022,4.744c-0.036,1.107,0.651,1.916,1.49,1.926
				c2.195,0.022,2.532,1.189,2.54,3.017c0.004,1.073,0.727,1.78,2.001,1.834c2.345,0.097,3.235-1.222,2.46-3.838
				c-0.137-0.464-0.598-1.228-0.496-1.304c1.208-0.912,0.559-2.187,0.757-3.283c0.221-1.216,0.709-2.416,0.731-3.628
				c0.022-1.248,0.442-1.539,1.592-1.523C21.753,25.254,22.104,24.515,22.253,24.345z M37.362,7.417
				c0.121-0.813,0.177-2.031-1.595-2.382c-0.337-0.066-0.689-0.753-0.783-1.206c-0.148-0.716,0.223-1.714-1.098-1.524
				c-0.734,0.105-1.536,0.156-2.16,0.499c-0.696,0.382-1.249,1.152-0.331,1.852c1.077,0.821,1.168,1.867,1.203,3.088
				c0.07,2.43-1.302,4.203-2.449,6.124c-2.485,4.163-4.707,8.436-4.735,13.476c-0.002,0.354-0.194,0.706-0.298,1.059
				c-0.28-0.224-0.548-0.463-0.842-0.666c-0.645-0.442-1.303-0.867-1.956-1.299c0.048,0.885,0.041,1.779,0.167,2.653
				c0.067,0.466,0.355,0.903,0.563,1.343c0.522,1.104,1.319,2.164,1.482,3.316c0.09,0.641-0.949,1.389-1.339,2.16
				c-0.612,1.207,0.106,3.589,1.157,3.633c1.347,0.057,2.771,0.468,4.016-0.814c1.185-1.222,1.236-2.371,0.733-3.824
				c-0.282-0.813-0.758-1.984-0.411-2.51c0.8-1.211,0.603-2.436,0.738-3.683c0.049-0.453,0.39-0.894,0.659-1.3
				c1.053-1.592,1.667-3.307,1.704-5.236c0.024-1.286-0.059-2.629,0.277-3.844c0.789-2.853,2.945-5.075,3.868-7.891
				C37.829,10.398,37.272,8.989,37.362,7.417z"/>
			<path fill="#0C0B0B" d="M62.73,19.521c0.115,2.107-0.114,4.405,1.2,6.766c1.539,2.764-0.323,5.583-1.37,8.211
				c-0.232,0.582-1.478,0.743-2.237,1.137c-1.056,0.549-1.031,0.69,0.111,1.59c0.199,0.155,0.322,0.408,0.48,0.616
				c-0.946,0.585-1.841,1.3-2.857,1.714c-0.714,0.291-1.572,0.092-2.038-0.724c-0.18-0.315-0.253-0.694-0.439-1.004
				c-0.884-1.476-1.441-3.112-2.268-4.624c-0.465-0.852-0.746-2.188-0.772-3.184c-0.036-1.373,0.825-2.771,1.305-4.158
				c0.232-0.668,0.34-1.198-0.648-1.369c-0.836-0.145-1.617-0.61-2.453-0.75c-2.773-0.458-3.148-0.165-3.065,2.662
				c0.04,1.359-0.233,2.666,0.623,4.109c0.854,1.441-0.182,3.205-1.254,4.486c-1.554,1.859-1.672,1.807-1.756,3.563
				c-0.043,0.895-0.413,1.033-1.202,1.058c-2.222,0.063-2.622-0.5-1.51-3.208c0.563-1.369,0.246-1.646-0.995-1.566
				c-0.869,0.057-1.217-0.326-1.073-1.144c0.284-1.604-0.453-3.216,0.665-4.905c0.668-1.01,0.249-2.839,0.083-4.272
				c-0.135-1.17-1.02-1.659-2.24-1.64c-0.294,0.005-0.597-0.568-0.895-0.875c0.384-0.222,0.763-0.453,1.154-0.663
				c0.357-0.191,0.728-0.358,1.092-0.535c-0.36-0.087-0.739-0.131-1.076-0.272c-0.408-0.17-1.058-0.365-1.119-0.652
				c-0.204-0.964,0.558-0.875,1.228-0.939c2.339-0.222,2.476-0.228,2.637-2.751c0.069-1.081,1.906-2.19,0.079-3.34
				c-0.07-0.044,0.189-0.94,0.341-0.955c1.043-0.1,2.1-0.094,3.15-0.056c0.157,0.005,0.373,0.334,0.44,0.551
				c0.293,0.938,0.642,1.876,0.78,2.841c0.165,1.15,0.136,2.328,0.192,3.494c1.553,0.077,3.224,0.538,4.622,0.108
				c1.1-0.337,2.137-0.619,3.273-0.705c0.24-0.018,0.529-0.434,0.653-0.727c0.236-0.562,0.381-1.164,0.545-1.755
				c0.198-0.712,0.375-1.43,0.562-2.146c0.638,0.306,1.385,0.491,1.892,0.943c1.16,1.035,1.857-0.978,3.064-0.324
				c0.59,0.319,1.144,0.28,1.11,1.151C62.693,16.596,62.73,17.918,62.73,19.521z"/>
			<path fill="#0C0B0B" d="M97.854,7.879c4.581-0.269,8.603,1.396,12.773,0.771c0.258-0.039,0.539-0.056,0.788,0.004
				c1.479,0.352,3.356,2.093,2.856,2.555c-0.864,0.797-1.89,1.49-3.255,1.428c-1.975-0.089-3.957-0.04-5.936-0.007
				c-0.348,0.006-0.693,0.222-1.039,0.34c0.252,0.28,0.461,0.627,0.766,0.827c0.949,0.62,0.735,1.556,0.793,2.456
				c0.145,2.277-0.532,4.637,0.748,6.815c0.23,0.392,0.232,1.156,0,1.544c-1.313,2.195-0.621,4.25-0.057,6.508
				c0.555,2.212,0.382,4.606,0.511,6.924c0.015,0.25-0.005,0.606-0.158,0.729c-0.142,0.115-0.588,0.076-0.717-0.063
				c-0.423-0.458-0.761-0.995-1.134-1.5s-0.748-1.009-1.123-1.516c-0.154,0.553-0.258,1.123-0.479,1.646
				c-0.19,0.45-0.498,0.854-0.783,1.258c-0.25,0.35-0.543,0.668-0.816,1c-0.256-0.352-0.667-0.672-0.74-1.056
				c-0.326-1.728-0.664-3.462-0.79-5.209c-0.133-1.837-0.016-3.69-0.039-5.538c-0.007-0.5,0.054-1.269-0.224-1.455
				c-1.952-1.308-1.503-3.302-1.284-5.002c0.292-2.274-0.956-4.228-0.896-6.409c0.006-0.237-0.437-0.706-0.656-0.697
				c-2.186,0.09-4.137-1.25-6.409-0.884c-1.464,0.236-2.341-0.636-2.427-1.766c-0.096-1.252,0.492-1.866,2.115-2.137
				c0.506-0.084,1.316,0.134,1.5-0.128C93.509,6.804,96.103,8.263,97.854,7.879z"/>
			<path fill="#0C0B0B" d="M88.754,28.451c0.262,1.587,0.74,3.695,0.93,5.83c0.247,2.771-0.229,3.472-2.615,4.353
				c-0.549,0.203-1.393,0.269-1.819-0.021c-0.726-0.49,0.153-1.067,0.22-1.588c0.475-3.705,0.662-7.438-0.563-11.047
				c-0.182-0.537-1.267-0.754-1.475-1.297c-0.266-0.689-0.029-1.562-0.073-2.352c-0.058-1.043-0.676-1.581-1.68-1.79
				c-1.088-0.226-2.15-0.574-3.242-0.77c-1.09-0.195-1.447-2.497-2.724-1.292c-0.613,0.579-0.286,2.226-0.265,3.387
				c0.025,1.367-0.84,2.685-0.074,4.125c0.215,0.402-0.182,1.193-0.414,1.757c-0.604,1.467-1.568,2.854-1.834,4.372
				c-0.324,1.853-1.277,3.606-0.917,5.608c0.127,0.703,0.609,1.938-1.084,1.896c-1.822-0.047-2.651-0.492-2.839-1.847
				c-0.398-2.855,0.534-5.553,1.008-8.303c0.125-0.723,0.519-1.416,0.555-2.136c0.108-2.146-0.258-4.315,1.327-6.22
				c0.47-0.565,0.335-1.747,0.261-2.627c-0.188-2.239,0.75-3.929,2.31-5.397c0.865-0.814,1.697-1.665,2.523-2.52
				c0.793-0.822,1.934-1.47,1.572-2.933c-0.01-0.036,0.546-0.333,0.65-0.256c0.42,0.311,0.809,0.688,1.132,1.102
				c0.772,0.991,1.335,2.62,2.288,2.882c1.34,0.369,1.283,1.84,2.623,2.209c0.878,0.242,1.791,1.903,1.901,3.006
				c0.159,1.59,0.915,2.802,1.438,4.189C88.724,23.023,89.3,25.4,88.754,28.451z M79.4,12.442c-0.313,0.296-0.748,0.514-0.764,0.757
				c-0.072,1.181-0.045,2.368-0.027,3.553c0.012,0.787,1.625,2.231,2.434,2.209c0.699-0.019,1.921-1.609,1.498-1.884
				c-1.451-0.943-1.283-2.69-2.173-3.872C80.154,12.923,79.797,12.75,79.4,12.442z"/>
			<path fill="#0C0B0B" d="M22.253,24.345c-0.148,0.17-0.5,0.909-0.842,0.904c-1.15-0.016-1.57,0.275-1.592,1.523
				c-0.022,1.213-0.51,2.414-0.731,3.628c-0.199,1.098,0.451,2.371-0.757,3.283c-0.102,0.076,0.358,0.84,0.496,1.303
				c0.774,2.617-0.116,3.936-2.46,3.839c-1.275-0.054-1.997-0.761-2.001-1.834c-0.008-1.825-0.345-2.993-2.54-3.017
				c-0.839-0.01-1.526-0.817-1.49-1.926c0.051-1.58-0.011-3.164,0.022-4.744c0.021-0.925-0.198-1.648-0.73-2.486
				c-0.714-1.125-1.056-2.505-0.903-3.98c0.163-1.565,0.067-3.161,0.021-4.742c-0.018-0.615-0.014-1.381-0.356-1.811
				c-1.215-1.523-1.317-3.241-1.225-5.047c0.019-0.374,0.021-0.81-0.149-1.118c-0.333-0.6-1.253-1.455-1.126-1.636
				C6.566,5.53,7.412,4.64,8.369,3.969C8.753,3.7,9.572,4.052,10.193,4.122c-0.083,0.45-0.093,0.93-0.259,1.347
				c-1.125,2.821,0.615,4.908,1.789,7.142c1.343-0.304,1.069,0.988,1.24,1.499c1.052,3.13,2.625,6.105,2.958,9.462
				c0.032,0.328,0.239,0.815,0.477,0.896c0.28,0.095,0.815-0.067,1.005-0.308c0.454-0.57,0.649-1.387,1.172-1.856
				c0.733-0.657,1.291-2.221,2.359-1.641c0.743,0.403,0.905,1.883,1.313,2.888C22.293,23.666,22.253,23.814,22.253,24.345z"/>
			<path fill="#0C0B0B" d="M37.362,7.417c-0.09,1.573,0.467,2.982-1.43,3.025c-0.923,2.815-3.079,5.038-3.868,7.891
				c-0.336,1.215-0.252,2.558-0.277,3.844c-0.037,1.929-0.651,3.646-1.704,5.236c-0.269,0.405-0.61,0.847-0.659,1.3
				c-0.135,1.247,0.062,2.471-0.738,3.682c-0.347,0.524,0.128,1.695,0.411,2.513c0.502,1.45,0.451,2.603-0.733,3.821
				c-1.245,1.283-2.669,0.873-4.016,0.815c-1.051-0.044-1.77-2.427-1.157-3.634c0.391-0.77,1.429-1.52,1.339-2.159
				c-0.163-1.151-0.96-2.212-1.482-3.315c-0.208-0.439-0.496-0.879-0.563-1.344c-0.126-0.874-0.119-1.768-0.167-2.652
				c0.653,0.432,1.311,0.854,1.956,1.299c0.294,0.201,0.563,0.441,0.842,0.664c0.104-0.353,0.296-0.705,0.298-1.058
				c0.028-5.04,2.25-9.313,4.735-13.476c1.147-1.921,2.519-3.694,2.449-6.124c-0.035-1.221-0.126-2.268-1.203-3.088
				c-0.918-0.699-0.365-1.469,0.331-1.852c0.625-0.343,1.426-0.394,2.16-0.499c1.32-0.19,0.95,0.808,1.098,1.524
				c0.094,0.453,0.445,1.14,0.783,1.206C37.539,5.385,37.483,6.604,37.362,7.417z"/>
			<path fill="none" d="M79.4,12.442c0.396,0.306,0.754,0.48,0.968,0.764c0.89,1.182,0.722,2.928,2.173,3.872
				c0.423,0.275-0.799,1.865-1.498,1.884c-0.809,0.022-2.422-1.423-2.434-2.209c-0.018-1.185-0.045-2.373,0.027-3.553
				C78.652,12.957,79.088,12.739,79.4,12.442z"/>
		</g>
	</g>
</g>
<g id="Layer_2">
</g>
<text transform="matrix(1 0 0 1 8.8379 50.207)" enable-background="new    "><tspan x="0" y="0" font-family="'DINPro-Regular'" font-size="10">i</tspan><tspan x="2.53" y="0" font-family="'Verdana'" font-size="10">s human trafficking?</tspan></text>
</svg>
