<?xml version="1.0" encoding="utf-8"?>
<!-- Generator: Adobe Illustrator 16.0.0, SVG Export Plug-In . SVG Version: 6.00 Build 0)  -->
<!DOCTYPE svg PUBLIC "-//W3C//DTD SVG 1.1//EN" "http://www.w3.org/Graphics/SVG/1.1/DTD/svg11.dtd">
<svg version="1.1" id="Layer_1" xmlns="http://www.w3.org/2000/svg" xmlns:xlink="http://www.w3.org/1999/xlink" x="0px" y="0px"
	 width="515.417px" height="90.542px" viewBox="0 0 515.417 90.542" enable-background="new 0 0 515.417 90.542"
	 xml:space="preserve">
<g id="Layer_2_1_" display="none">
	<g display="inline">
		<g>
			<path fill="none" d="M61.34-5.483c21.737,0,43.473,0.014,65.21-0.035c1.194-0.002,1.417,0.219,1.413,1.413
				c-0.049,19.9-0.049,39.8,0,59.7c0.003,1.191-0.219,1.412-1.413,1.412c-43.473-0.041-86.947-0.041-130.42,0
				c-1.193,0-1.416-0.221-1.413-1.412c0.05-19.9,0.05-39.8,0-59.7C-5.285-5.298-5.063-5.52-3.87-5.518
				C17.866-5.469,39.603-5.483,61.34-5.483z M11.548,12.332c0.398-0.483,0.638-0.642,0.633-0.792
				c-0.015-0.397-0.136-0.791-0.214-1.186c-0.202,0.052-0.578,0.106-0.578,0.156c0.006,0.494,0.073,0.988,12.753,21.604
				c0,1.027-0.207,2.006,0.046,2.847c0.432,1.435,1.916,2.328,2.542,3.468c0.751,1.367-0.091,3.46,1.072,5.041
				c0.668,0.906,2.174,0.867,2.77-0.153c0.288-0.493,0.895-1.02,0.835-1.461c-0.379-2.849,1.755-4.486,2.906-6.624
				c0.859-1.595,1.198-3.471,1.769-5.221c-1.388-0.683-0.753-2.13-1.161-3.186c-0.663-1.716-1.121-3.517-1.578-5.304
				c-0.276-1.079,0.497-1.914,0.803-2.857c0.403-1.244,0.183-2.725,0.073-4.092c-0.094-1.185-1.252-1.459-2.362-0.707
				c-0.355,0.24-1.18,0.461-1.233,0.369c-0.442-0.764-1.969,0.036-1.918-1.423c0.03-0.859-0.22-1.729-0.344-2.595
				c-0.182,0.937-0.706,1.97-0.474,2.789c0.475,1.684-1.151,3.163-0.266,4.85c0.089,0.17-0.846,0.878-1.306,1.336
				c-1.723-1.996-3.088,0.816-4.697,0.351l-4.373-0.236c-0.432-1.044-1.025-2.058-1.227-3.144c-0.104-0.556,0.863-1.362,0.705-1.845
				c-0.436-1.33-1.105-2.619-1.888-3.787c-0.486-0.725-1.234-0.66-1.727,0.245c-0.236,0.434-0.805,0.767-0.867,1.197
				c-0.164,1.151,0.306,2.454-0.958,3.282c0.65,3.309-0.542,4.789-4.012,4.108C7.15,19.339,6.805,20,6.725,20.376
				c-0.044,0.209,0.215,0.672,0.392,0.702c0.59,0.103,1.243-0.055,1.795,0.124c0.267,0.086,0.445,0.688,0.501,1.081
				c0.03,0.21-0.242,0.624-0.448,0.678c-0.699,0.185-1.429,0.249-2.147,0.36c0.743,0.215,1.585,0.283,2.202,0.69
				c0.573,0.378,1.258,1.105,1.286,1.706c0.133,2.897,0.06,5.804,0.06,8.707c-1.751,1.303-0.785,2.803,0.428,3.074
				c1.957,0.438,1.805,1.996,1.202,2.514c-1.727,1.481,0.352,2.359,0.299,3.516c-0.007,0.166,1.23,0.543,1.877,0.514
				c0.28-0.014,0.689-0.786,0.751-1.252c0.12-0.901-0.039-1.838,0.064-2.743c0.057-0.499,0.287-1.109,0.652-1.421
				c3.102-2.646,3.207-2.933,2.085-6.69c-0.084-0.279,0.121-0.734-0.032-0.893c-1.465-1.526-0.768-3.407-0.868-5.143
				c-0.02-0.347,0.4-1.045,0.531-1.025c2.034,0.315,4.074-0.537,6.187,0.555c1.361,0.702,2.113,1.715,1.421,2.507
				C23.725,29.358,24.396,30.813,11.548,12.332z M45.267,26.931c0,0.307-0.001,0.613,0,0.918c0.024,4.431,1.63,6.952,5.259,10.176
				c2.345,2.083,5.667,3.832,4.933,8.059c-0.15,0.869,0.986,2.019,2.195,1.648c1.198-0.363,2.211-1.313,3.401-1.74
				c1.116-0.402,0.759-1.203,0.716-1.844c-0.11-1.637,0.664-2.38,2.167-2.821c1.84-0.541,3.625-1.027,5.597-0.937
				c1.675,0.076,2.883-1.118,4.157-2.13c1.203-0.956,0.939-2.123,0.96-3.297c0.023-1.224-0.043-2.449,0.018-3.67
				c0.069-1.358-0.218-2.559-0.89-3.772c-0.537-0.973-0.375-2.581-1.109-3.144c-1.496-1.15,1.096-2.146-0.274-3.379
				c-0.913-0.822-1.466-2.66-1.295-3.925c0.249-1.844-2.132-2.994-1.413-4.04c1.084-1.575-0.667-2.63-0.033-3.88
				c0.098-0.193,0.112-0.429,0.164-0.646c-2.161-0.092-1.563-1.703-1.584-2.932c-0.077-4.648-0.066-4.648-4.903-4.629
				c-0.153,0.001-0.312,0.028-0.458-0.004c-1.873-0.415-3.189,0.42-4.294,1.835c-1.271,1.625-2.549,3.248-3.9,4.805
				c-1.069,1.232-2.578,2.159-2.09,4.204c0.261,1.091-0.762,0.889-1.387,1.2c-1.664,0.83-3.265,1.71-3.899,3.781
				C46.285,20.099,45.237,23.4,45.267,26.931z M85.668,21.729c0.059,3.04-0.36,5.589,1.413,7.785
				c0.399,0.494,0.393,1.385,0.417,2.097c0.056,1.681,0.113,3.371-0.015,5.043c-0.091,1.212,0.288,2.43,1.267,2.628
				c2.472,0.499,2.463,2.103,2.477,4.027c0.016,2.023,0.793,2.642,2.714,2.642c1.918,0.002,2.673-0.701,2.752-2.634
				c0.055-1.328-0.482-2.562-0.715-3.784c-0.177-0.936,1.001-2.385,0.689-3.702c-0.484-2.04,1.022-3.66,0.989-5.589
				c-0.004-0.271,0.494-0.747,0.788-0.77c0.32-0.024,0.858,0.29,0.98,0.589c0.748,1.831,1.428,3.689,2.087,5.556
				c0.703,1.991,2.592,3.834,0.059,6.073c-1.07,0.946-0.195,4.304,0.808,4.888c2.533,1.479,6.178-0.477,6.249-3.385
				c0.029-1.166,0.356-2.458-0.906-3.287c0.34-2.459,0.676-4.917,1.032-7.372c0.018-0.122,0.207-0.216,0.312-0.326
				c2.215-2.328,2.388-5.228,2.34-8.207c-0.028-1.767,1.277-4.586,2.144-6.448c3.02-6.489,5.238-6.161,1.536-13.905
				c-0.241-0.503-0.069-1.31-0.413-1.637c-0.63-0.603-3.011,0.027-3.696,0.71c-0.992,0.986,0.42,1.426,0.556,2.145
				c0.173,0.911,0.734,1.769,0.829,2.853c0.287,3.286-1.179,5.854-2.849,8.48c-2.855,4.491-5.004,9.291-5.474,14.698
				c-0.062,0.715-0.252,1.421-0.383,2.13c-0.541-0.496-1.041-1.047-1.63-1.478c-1.35-0.985-1.928-2.248-1.658-3.911
				c0.155-0.95-0.333-1.608-0.848-2.411c-1.073-1.669-1.033-1.827-2.27-0.45c-0.764,0.85-1.26,1.938-1.991,2.823
				c-0.342,0.416-0.936,0.762-1.454,0.825c-0.207,0.025-0.671-0.773-0.754-1.244c-0.751-4.228-2.074-8.354-4.02-12.082
				c-1.169-2.24-1.186-4.689-2.351-6.85c-0.386-0.716-0.461-2.06,0.538-2.927c0.247-0.214,0.331-1.101,0.219-1.16
				c-0.492-0.257-1.281-0.621-1.604-0.406c-1.224,0.813-2.375,1.776-3.373,2.85c-0.14,0.151,0.86,1.185,1.073,1.888
				c0.25,0.832,0.218,1.748,0.309,2.628c0.123,1.171-0.156,2.642,0.448,3.458C86.074,16.996,85.578,19.659,85.668,21.729z"/>
			<path d="M45.267,26.931c-0.03-3.531,1.018-6.832,2.037-10.164c0.634-2.071,2.235-2.952,3.899-3.781
				c0.625-0.312,1.647-0.109,1.387-1.2c-0.488-2.045,1.021-2.972,2.09-4.204c1.351-1.557,2.629-3.18,3.9-4.805
				c1.105-1.415,2.421-2.25,4.294-1.835c0.146,0.032,0.305,0.005,0.458,0.004c4.837-0.019,4.826-0.019,4.903,4.629
				c0.021,1.229-0.577,2.84,1.584,2.932c-0.052,0.217-0.066,0.453-0.164,0.646c-0.634,1.25,1.118,2.305,0.033,3.88
				c-0.719,1.046,1.661,2.196,1.413,4.04c-0.17,1.265,0.382,3.103,1.295,3.925c1.37,1.233-1.222,2.229,0.274,3.379
				c0.734,0.563,0.572,2.171,1.109,3.144c0.672,1.213,0.959,2.414,0.89,3.772c-0.061,1.221,0.005,2.446-0.018,3.67
				c-0.021,1.174,0.242,2.341-0.96,3.297c-1.274,1.012-2.482,2.206-4.157,2.13c-1.972-0.091-3.756,0.396-5.597,0.937
				c-1.503,0.441-2.277,1.185-2.167,2.821c0.043,0.641,0.4,1.441-0.716,1.844c-1.19,0.428-2.203,1.377-3.401,1.74
				c-1.209,0.367-2.345-0.779-2.195-1.648c0.734-4.227-2.588-5.976-4.933-8.059c-3.629-3.224-5.235-5.745-5.259-10.176
				C45.266,27.544,45.267,27.238,45.267,26.931z M65.475,29.398c-0.041-2.347-0.577-4.691-0.716-6.949
				c-0.212-3.439-2.367-5.506-3.822-8.089c-0.427-0.757-1.511-0.939-1.797-0.107c-0.717,2.086-2.252,2.293-4.049,2.333
				c-0.523,0.012-1.43,0.246-1.494,0.529c-0.415,1.814-2.186,2.893-2.031,5.18c0.227,3.347,0.835,6.853-0.744,10.15
				c-0.26,0.543-0.088,1.164,0.883,1.65c2.292,1.146,4.344,2.766,6.528,4.138c1.189,0.746,2.895,0.46,4.034-0.558
				c3.206-2.863,3.206-2.863,3.206-7.362C65.473,30.009,65.473,29.703,65.475,29.398z M57.455,9.236
				c0.351-0.034,1.011,0.089,1.19-0.148c1.091-1.448,2.285-2.766,3.817-3.754c-0.185-0.238-0.359-0.668-0.554-0.677
				c-0.567-0.027-1.316-0.088-1.683,0.227c-1.256,1.078-2.387,2.303-3.542,3.495c-0.127,0.132-0.184,0.57-0.126,0.602
				C56.796,9.114,57.091,9.145,57.455,9.236z M66.391,5.051c-0.107-0.203-0.333-1.203-0.727-1.274
				c-1.511-0.274-1.037,0.99-1.104,1.784c-0.037,0.448-0.08,0.921,0.026,1.347c0.049,0.2,0.463,0.464,0.677,0.435
				c0.391-0.053,0.93-0.208,1.083-0.494C66.535,6.498,66.391,5.969,66.391,5.051z"/>
			<path d="M85.668,21.729c-0.09-2.07,0.406-4.733-1.378-7.15c-0.604-0.817-0.325-2.287-0.448-3.458
				c-0.091-0.88-0.059-1.796-0.309-2.628C83.32,7.789,82.32,6.755,82.46,6.604c0.998-1.074,2.149-2.036,3.373-2.85
				c0.323-0.214,1.112,0.149,1.604,0.406c0.112,0.06,0.028,0.946-0.219,1.16c-0.999,0.867-0.924,2.211-0.538,2.927
				c1.165,2.161,1.182,4.61,2.351,6.85c1.946,3.728,3.269,7.854,4.02,12.082c0.083,0.471,0.548,1.269,0.754,1.244
				c0.518-0.063,1.111-0.409,1.454-0.825c0.731-0.886,1.227-1.973,1.991-2.823c1.237-1.377,1.197-1.219,2.27,0.45
				c0.515,0.803,1.003,1.461,0.848,2.411c-0.271,1.663,0.308,2.925,1.658,3.911c0.589,0.431,1.089,0.981,1.63,1.478
				c0.131-0.709,0.321-1.415,0.383-2.13c0.47-5.407,2.619-10.207,5.474-14.698c1.67-2.626,3.136-5.194,2.849-8.48
				c-0.095-1.083-0.655-1.942-0.829-2.853c-0.136-0.718-1.548-1.159-0.556-2.145c0.686-0.683,3.066-1.313,3.696-0.71
				c0.344,0.327,0.171,1.133,0.413,1.637c3.702,7.744,1.483,7.416-1.536,13.905c-0.867,1.862-2.172,4.681-2.144,6.448
				c0.048,2.979-0.125,5.879-2.34,8.207c-0.105,0.11-0.294,0.204-0.312,0.326c-0.355,2.455-0.692,4.913-1.032,7.372
				c1.262,0.829,0.935,2.121,0.906,3.287c-0.071,2.908-3.716,4.863-6.249,3.385c-1.003-0.584-1.878-3.941-0.808-4.888
				c2.534-2.239,0.645-4.082-0.059-6.073c-0.659-1.866-1.339-3.725-2.087-5.556c-0.122-0.299-0.66-0.613-0.98-0.589
				c-0.293,0.022-0.792,0.499-0.788,0.77c0.033,1.929-1.474,3.549-0.989,5.589c0.312,1.317-0.866,2.767-0.689,3.702
				c0.232,1.223,0.77,2.456,0.715,3.784c-0.08,1.933-0.834,2.636-2.752,2.634c-1.921,0-2.698-0.618-2.714-2.642
				c-0.014-1.925-0.005-3.528-2.477-4.027c-0.979-0.198-1.358-1.416-1.267-2.628c0.127-1.672,0.071-3.362,0.015-5.043
				c-0.024-0.712-0.018-1.603-0.417-2.097C85.308,27.318,85.727,24.769,85.668,21.729z"/>
			<path d="M24.143,32.115c0.253-1.303-0.418-2.757,0.822-4.178c0.692-0.792-0.061-1.805-1.421-2.507
				c-2.113-1.092-4.153-0.24-6.187-0.555c-0.131-0.021-0.551,0.678-0.531,1.025c0.101,1.736-0.597,3.616,0.868,5.143
				c0.153,0.158-0.052,0.613,0.032,0.893c1.122,3.758,1.017,4.044-2.085,6.69c-0.365,0.312-0.596,0.922-0.652,1.421
				c-0.104,0.905,0.055,1.842-0.064,2.743c-0.062,0.466-0.471,1.238-0.751,1.252c-0.647,0.029-1.884-0.348-1.877-0.514
				c0.053-1.156-2.025-2.034-0.299-3.516c0.603-0.518,0.755-2.076-1.202-2.514c-1.212-0.271-2.179-1.771-0.428-3.074
				c0-2.903,0.073-5.81-0.06-8.707c-0.028-0.601-0.713-1.328-1.286-1.706c-0.617-0.407-1.458-0.475-2.202-0.69
				c0.718-0.111,1.448-0.176,2.147-0.36c0.206-0.055,0.479-0.468,0.448-0.678c-0.056-0.393-0.234-0.995-0.501-1.081
				c-0.552-0.179-1.205-0.021-1.795-0.124c-0.177-0.03-0.437-0.493-0.392-0.702C6.805,20,7.15,19.339,7.272,19.363
				c3.47,0.681,4.662-0.799,4.012-4.108c1.264-0.828,0.794-2.13,0.958-3.282c0.062-0.43,0.631-0.763,0.867-1.197
				c0.493-0.905,1.241-0.969,1.727-0.245c0.783,1.168,1.453,2.457,1.888,3.787c0.158,0.483-0.809,1.289-0.705,1.845
				c0.202,1.086,0.795,2.1,1.227,3.144l4.373,0.236c1.609,0.466,2.974-2.346,4.697-0.351c0.46-0.458,1.396-1.166,1.306-1.336
				c-0.885-1.687,0.741-3.166,0.266-4.85c-0.232-0.819,0.292-1.852,0.474-2.789c0.124,0.866,0.374,1.735,0.344,2.595
				c-0.051,1.458,1.476,0.659,1.918,1.423c0.053,0.092,0.878-0.128,1.233-0.369c1.11-0.753,2.268-0.478,2.362,0.707
				c0.109,1.367,0.33,2.848-0.073,4.092c-0.306,0.943-1.079,1.778-0.803,2.857c0.457,1.788,0.916,3.588,1.578,5.304
				c0.408,1.056-0.228,2.503,1.161,3.186c-0.571,1.75-0.91,3.626-1.769,5.221c-1.151,2.138-3.285,3.775-2.906,6.624
				c0.059,0.441-0.547,0.968-0.835,1.461c-0.596,1.021-2.102,1.06-2.77,0.153c-1.163-1.581-0.321-3.674-1.072-5.041
				c-0.627-1.14-2.111-2.033-2.542-3.468C23.936,34.121,24.143,33.143,24.143,32.115z"/>
			<path d="M11.548,12.332c-0.085-0.833-0.153-1.327-0.159-1.821c0-0.05,0.376-0.104,0.578-0.156
				c0.078,0.395,0.199,0.789,0.214,1.186C12.187,11.69,11.947,11.849,11.548,12.332z"/>
			<path fill="none" d="M65.474,29.398c-0.001,0.305-0.001,0.61-0.001,0.915c0,4.499,0,4.499-3.206,7.362
				c-1.14,1.018-2.845,1.304-4.034,0.558c-2.184-1.372-4.236-2.991-6.528-4.138c-0.971-0.486-1.143-1.107-0.883-1.65
				c1.579-3.298,0.97-6.803,0.744-10.15c-0.155-2.287,1.616-3.365,2.031-5.18c0.064-0.284,0.971-0.518,1.494-0.529
				c1.797-0.04,3.332-0.247,4.049-2.333c0.287-0.832,1.371-0.65,1.797,0.107c1.455,2.583,3.609,4.65,3.822,8.089
				C64.898,24.708,65.434,27.051,65.474,29.398z"/>
			<path fill="none" d="M57.455,9.236c-0.364-0.091-0.659-0.122-0.896-0.255c-0.058-0.032-0.001-0.47,0.126-0.602
				c1.154-1.192,2.285-2.417,3.542-3.495c0.367-0.315,1.116-0.254,1.683-0.227c0.195,0.009,0.369,0.439,0.554,0.677
				c-1.533,0.988-2.726,2.306-3.817,3.754C58.466,9.325,57.806,9.202,57.455,9.236z"/>
			<path fill="none" d="M66.391,5.051c0,0.918,0.144,1.447-0.044,1.798c-0.153,0.286-0.692,0.441-1.083,0.494
				c-0.213,0.029-0.627-0.235-0.677-0.435c-0.106-0.426-0.063-0.899-0.026-1.347c0.066-0.794-0.408-2.059,1.104-1.784
				C66.059,3.849,66.284,4.849,66.391,5.051z"/>
		</g>
	</g>
</g>
<g opacity="0.5">
	<g>
		<path fill="#BF2A26" d="M14.71,19.134c11.667,0.007,23.334,0.014,35.001,0.02c-0.011,1.005-0.024,2.01-0.036,3.015
			c-7.184,1.418-14.367,2.837-25.649,5.064c9.351,6.024,16.798,10.821,25.827,16.637c0,0.144-0.002,3.032-0.005,6.156
			c1.996,0.188,3.673,0.347,6.264,0.589c0.684,7.54,1.362,15.038,2.041,22.538c-8.485-0.005-16.97-0.01-25.456-0.015
			c-4.943-2.68-9.886-5.357-14.83-8.036c-1.267-12.151-2.535-24.302-4.153-39.83c5.11,1.554,3.176,0.966,0.988,0.301
			C14.707,23.341,14.708,21.238,14.71,19.134z M55.886,69.273c-3.66-5.563-4.696-9.199-6.568-9.633
			c-9.363-2.163-18.943-3.486-28.449-5.105c-0.271,1.197-0.543,2.396-0.814,3.592C30.65,61.421,41.243,64.716,55.886,69.273z"/>
		<path fill="#761915" d="M346.695,19.325c0.705,0,1.412,0.001,2.121,0.001c0.5,1.238,1.005,2.476,1.64,4.045
			c2.777-2.372,3.75-3.208,4.726-4.042c15.558,0.009,31.109,0.018,46.669,0.027c-2.831,8.004-5.664,16.009-8.492,24.013
			c-1.408-0.699-2.822-1.399-4.231-2.098c-0.013-1.284-0.026-2.569-0.037-3.854c-0.395-4.741-0.786-9.482-1.179-14.222
			c-3.457,0.795-6.915,1.588-10.371,2.383c2.453,3.568,4.905,7.136,7.355,10.704c0.34,1.686,0.678,3.371,1.016,5.058
			c-0.003,0.667-0.003,1.334-0.006,2.002c-3.886,5.333-7.773,10.666-11.662,15.998c-0.002,2.332-0.005,4.662-0.007,6.994
			c-1.081,0.346-2.16,0.689-3.241,1.035c-0.692-0.021-1.383-0.045-2.075-0.064c0.585-3.364,1.171-6.729,1.723-9.907
			c-5.572-2.644-10.367-4.917-15.722-7.455c-0.819,1.854-1.4,3.163-1.976,4.474c-1.337-0.709-2.673-1.418-4.009-2.127
			c-0.738-7.324-1.476-14.646-2.213-21.971c-1.402-1.692-2.806-3.384-4.205-5.076C343.906,23.27,345.299,21.297,346.695,19.325z"/>
		<path fill="#8A1D1A" d="M150.473,19.212c10.254,0.006,20.506,0.012,30.759,0.018c0.688,2.672,1.377,5.344,2.066,8.015
			c-7.29,2.014-14.58,4.029-24.352,6.729c-0.01,12.211-0.021,25.725-0.031,39.236c-3.889-0.002-7.778-0.004-11.667-0.008
			c-4.256-7.025-8.515-14.052-12.771-21.076c0.375-2.976,0.751-5.949,1.125-8.923C140.56,35.207,145.516,27.209,150.473,19.212z"/>
		<path fill="#791A16" d="M183.297,27.245c-0.688-2.671-1.377-5.343-2.066-8.015c2.475,0.001,4.95,0.003,7.425,0.004
			c3.888,1.002,7.777,2.003,11.665,3.005c3.173,0.687,6.344,1.373,9.517,2.06c1.071,0.323,2.143,0.646,3.215,0.967
			c1.774,12.327,3.547,24.651,5.321,36.979c-0.013,0.662-0.025,1.324-0.035,1.987c-1.777,3.002-3.553,6.004-5.33,9.007
			c-4.949-0.004-9.899-0.007-14.848-0.01c0.023-0.674,0.047-1.35,0.07-2.021c-0.712-2-1.423-3.996-2.135-5.994
			c-0.716-2.664-1.432-5.327-2.147-7.99c-3.504-8.688-7.008-17.379-10.511-26.068C183.389,29.854,183.343,28.55,183.297,27.245z"/>
		<path fill="#681611" d="M218.338,64.236c0.011-0.662,0.023-1.326,0.034-1.988c-0.33-7.213-0.661-14.424-0.978-21.354
			c7.787-1.042,13.89-1.857,21.456-2.868c3.223,2.156,7.785,5.206,12.344,8.255c2.825,4.338,5.65,8.674,8.476,13.01
			c0.007,0.66,0.016,1.321,0.025,1.982c-4.592,0.52-9.18,1.037-13.769,1.557c-0.37-1.393-0.739-2.783-1.107-4.176
			c-4.607,2.414-9.215,4.828-22.01,11.536c12.2-2.392,15.396-3.019,20.644-4.046c0.386,1.988,0.881,4.555,1.376,7.118
			c-7.778-0.007-15.557-0.011-23.335-0.015C220.441,70.244,219.389,67.24,218.338,64.236z"/>
		<path fill="#9E221E" d="M97.439,19.182c3.889,0.002,7.778,0.004,11.668,0.006c4.235,4.664,8.473,9.327,12.71,13.991
			c-6.414,8.687-12.827,17.374-20.376,27.596c-0.425-0.865,0.433,0.885,0.278,0.57c0.446,5.388,0.713,8.609,0.98,11.832
			c-3.889-0.002-7.777-0.006-11.667-0.008c0.234-3.758,0.469-7.518,0.653-10.451c-2.21-3.956-4.059-7.268-5.908-10.576
			c1.525,0.607,3.05,1.215,12.84,5.117c-7.744-5.688-8.7-6.391-9.656-7.092c0.018-2.01,0.036-4.019,0.052-6.024
			c4.658-2.13,9.313-4.26,9.526-4.356C97.999,29.633,97.719,24.407,97.439,19.182z"/>
		<path fill="#5A130F" d="M509.989,73.414c-4.947-0.004-9.898-0.006-14.849-0.01c-1.998-2.836-3.999-5.672-5.806-8.234
			c-3.984,0.877-7.041,1.555-10.101,2.229c-0.351-1.001-0.703-2.001-1.058-3.003c-0.008-1.663-0.017-3.328-0.023-4.992
			c-0.705-6.002-1.41-12.004-2.118-18.006c-0.025-2.317-0.051-4.635-0.076-6.953c-1.012-5.015-2.036-10.03-3.053-15.045
			c3.89,0.002,7.778,0.004,11.672,0.007c0.369,2.008,0.737,4.016,1.107,6.023c-0.008,0.989-0.013,1.978-0.018,2.966
			c1.4,3.67,2.8,7.339,4.199,11.01c0.006,0.664,0.014,1.327,0.021,1.991c0.695,0.674,1.39,1.348,2.083,2.023
			c0.012,0.659,0.023,1.319,0.037,1.979C498.001,54.736,503.996,64.076,509.989,73.414z"/>
		<path fill="#98211D" d="M193.948,57.226c0.715,2.663,1.431,5.327,2.146,7.99c0.713,1.998,1.424,3.996,2.136,5.994
			c-0.023,0.674-0.047,1.349-0.071,2.021c-7.425-0.004-14.849-0.008-22.275-0.015c-2.216-11.521-4.434-23.045-7.257-37.715
			c10.264,1.913,12.48,2.327,14.697,2.74C186.866,44.57,190.406,50.899,193.948,57.226z"/>
		<path fill="#8A1D1A" d="M299.981,73.292c-7.775-0.004-15.557-0.01-23.334-0.015c1.047-4.01,2.091-8.021,3.14-12.028
			c1.533,0.059,3.065,0.115,4.6,0.174c4.07,3.176,8.144,6.351,12.22,9.525c0.956-1.111,1.913-2.224,2.873-3.332
			c-5.109-3.757-10.221-7.512-15.328-11.267c-0.084-0.724-0.171-1.442-0.256-2.166c1.869-4.938,3.736-9.88,5.604-14.82
			c1.689-1.651,3.377-3.302,5.068-4.953c1.8,0.286,3.601,0.572,5.403,0.858c2.141,2.671,4.279,5.341,6.42,8.012
			c1.402,5.005,2.809,10.009,4.212,15.015C307.063,63.296,303.522,68.294,299.981,73.292z"/>
		<path fill="#99211D" d="M102.7,73.178c-0.267-3.224-0.534-6.444-0.98-11.832c0.155,0.313-0.704-1.437-0.278-0.57
			c7.549-10.223,13.963-18.91,20.377-27.596c0.708,0.002,1.415,0.005,2.122,0.008c1.118,3.439,2.236,6.878,3.291,10.119
			c-1.772,1.524-3.05,2.623-5.357,4.604c2.421,1.651,4.43,3.023,6.422,4.385c2.951-3.674,5.129-6.383,7.305-9.092
			c-0.374,2.974-0.75,5.95-1.125,8.924c-0.372,2.039-0.745,4.078-1.119,6.115c-2.317-0.554-4.635-1.105-7.541-1.8
			c-2.481,5.765-4.844,11.255-7.207,16.742C113.306,73.184,108.003,73.181,102.7,73.178z"/>
		<path fill="#5D130E" d="M213.053,25.268c-1.072-0.323-2.144-0.646-3.215-0.969c-1.05-1.685-2.1-3.369-3.15-5.054
			c26.163,0.015,52.324,0.03,78.486,0.045c0.791,1.92,1.582,3.84,2.371,5.759c0.585,0.76,1.174,1.52,1.758,2.28
			c0.058,0.296,0.113,0.593,0.162,0.891c0.619,0.711,1.24,1.422,1.858,2.133c-0.016,0.999-0.028,1.998-0.042,2.996
			c-7.681-1.369-15.363-2.737-23.045-4.106c-9.902-0.979-19.803-1.958-29.704-2.938c-7.781-0.362-15.565-0.725-23.345-1.086
			c-0.714-0.006-1.431-0.014-2.146-0.02L213.053,25.268z"/>
		<path fill="#C62C28" d="M58.153,73.153c-0.68-7.5-1.358-14.998-2.041-22.538c-2.591-0.242-4.268-0.4-6.264-0.589
			c0.002-3.124,0.005-6.012,0.005-6.156c-9.029-5.816-16.476-10.612-25.827-16.637c11.282-2.228,18.465-3.646,25.649-5.064
			c1.095,2.632,2.191,5.264,3.284,7.897c3.857,9.03,7.713,18.061,11.571,27.092c1.053,2.686,2.106,5.37,3.16,8.057
			c0.709,2.648,1.42,5.298,2.131,7.945C65.932,73.158,62.042,73.155,58.153,73.153z"/>
		<path fill="#921F1B" d="M183.324,38.243c-2.215-0.413-4.432-0.827-14.697-2.74c2.823,14.672,5.041,26.196,7.257,37.717
			c-5.656-0.004-11.313-0.006-16.97-0.01c0.011-13.515,0.021-27.025,0.031-39.236c9.773-2.7,17.063-4.715,24.352-6.729
			c0.046,1.305,0.09,2.609,0.136,3.914C183.397,33.521,183.362,35.882,183.324,38.243z"/>
		<path fill="#B72824" d="M14.71,19.134c-0.001,2.104-0.004,4.207-0.005,6.439c2.188,0.665,4.122,1.253-0.989-0.301
			c1.619,15.528,2.886,27.679,4.152,39.83c-5.66-1.66-11.319-3.319-16.978-4.979c0.01-13.666,0.022-27.331,0.032-40.996
			C5.518,19.129,10.114,19.132,14.71,19.134z"/>
		<path fill="#721814" d="M478.18,64.394c0.354,1.002,0.706,2.002,1.056,3.003c-0.002,1.998-0.002,3.998-0.005,5.998
			c-4.243-0.003-8.484-0.005-12.727-0.008c-25.01-15.612-10.218-35.372-6.319-53.997c2.122,0.001,4.244,0.002,6.365,0.004
			c-1.979,8.864-3.957,17.727-5.932,26.591c1.726,0.392,3.455,0.783,5.182,1.175c-0.504,1.73-1.009,3.461-2.24,7.682
			C467.985,57.734,473.083,61.064,478.18,64.394z"/>
		<path fill="#651511" d="M485.685,25.428c-0.37-2.008-0.738-4.016-1.107-6.023c4.244,0.002,8.483,0.005,12.726,0.007
			c6.003,8.335,12.01,16.672,18.013,25.007c-0.009,7.999,0.301,16.018-0.262,23.982c-0.122,1.767-3.297,3.345-5.067,5.011
			c-5.993-9.338-11.985-18.677-17.979-28.015c4.565,4.771,9.128,9.541,13.696,14.312c2.077-1.586,4.154-3.172,6.229-4.758
			C503.184,45.11,494.435,35.27,485.685,25.428z"/>
		<path fill="#791A16" d="M306.389,43.283c-2.142-2.671-4.28-5.341-6.42-8.012c1.069-0.013,2.141-0.027,3.208-0.04
			c4.991-0.038,9.978-0.076,14.969-0.114c1.026,0.033,2.054,0.066,3.083,0.099c2.472,1.036,4.941,2.07,7.411,3.105
			c0.756,0.697,1.511,1.395,2.268,2.091c0.697,1.921,1.396,3.843,2.092,5.763c-0.745,2.387-1.487,4.771-2.231,7.158
			c-4.959,6.653-9.918,13.312-14.879,19.967c-5.303-0.002-10.606-0.006-15.908-0.01c3.541-4.996,7.079-9.994,10.62-14.992
			c3.004-2.51,6.01-5.021,10.757-8.986C315.026,46.759,310.705,45.021,306.389,43.283z"/>
		<path fill="#781916" d="M460.182,19.391c-3.899,18.625-18.689,38.384,6.319,53.997c-1.059,0-2.12-0.001-3.181-0.001
			c-0.593-0.97-1.185-1.938-2.584-4.228c-1.492,2.317-2.104,3.271-2.72,4.223c-3.889-0.002-7.777-0.004-11.668-0.006
			c-1.334-5.916-2.671-11.832-4.218-18.684c0.712-5.798,1.42-11.558,2.126-17.317c1.737,1.434,3.473,2.868,7.421,6.129
			c0.008-9.654,0.015-16.888,0.02-24.12C454.526,19.388,457.354,19.389,460.182,19.391z"/>
		<path fill="#7E1B17" d="M444.257,37.376c-0.706,5.76-1.414,11.52-2.126,17.317c1.547,6.85,2.884,12.768,4.218,18.684
			c-9.898-0.006-19.798-0.012-29.696-0.019c0.337-1.004,0.673-2.006,1.012-3.01c0.715,0.001,1.434,0.004,2.148,0.005
			c7.092-11.659,14.178-23.316,21.267-34.976C442.139,36.043,443.199,36.71,444.257,37.376z"/>
		<path fill="#6C1713" d="M478.18,64.394c-5.097-3.33-10.195-6.66-14.624-9.553c1.23-4.221,1.735-5.95,2.237-7.682
			c-1.728-0.393-3.455-0.783-5.184-1.176c1.979-8.864,3.956-17.728,5.935-26.591c1.059,0,2.12,0.001,3.181,0.001
			c2.077,5.016,4.154,10.032,6.233,15.047c0.025,2.318,0.051,4.636,0.076,6.953c0.708,6.002,1.41,12.004,2.116,18.006
			C478.165,61.066,478.171,62.731,478.18,64.394z"/>
		<path fill="#721814" d="M417.665,70.349c-0.337,1.004-0.671,2.006-1.009,3.01c-4.95-0.003-9.901-0.006-14.851-0.009
			c-0.689-8.669-1.38-17.338-2.07-26.009c-0.698-0.67-1.397-1.342-2.091-2.011c1.388-3.99,2.772-7.98,4.158-11.97
			c0.369,0.997,0.732,1.995,1.1,2.992c5.635,7,11.273,14,16.906,20.999C419.092,61.684,418.378,66.016,417.665,70.349z"/>
		<path fill="#94201C" d="M303.177,35.231c-1.067,0.013-2.14,0.027-3.208,0.04c-1.803-0.286-3.604-0.572-5.401-0.859
			c-0.997-0.384-1.993-0.768-2.988-1.15l-0.302,0.088c0.016-0.998,0.028-1.997,0.047-2.996c-0.619-0.711-1.24-1.422-1.86-2.133
			c-0.049-0.298-0.104-0.595-0.159-0.891c-0.587-0.76-1.173-1.52-1.761-2.28c-0.789-1.919-1.58-3.839-2.371-5.759
			c9.9,0.006,19.799,0.011,29.7,0.017c-1.067,4.329-2.137,8.657-3.204,12.986c-1.406,0.005-2.819,0.01-4.229,0.016
			c-0.71-0.003-1.416-0.006-2.126-0.009C304.603,33.277,303.89,34.254,303.177,35.231z"/>
		<path fill="#AC2522" d="M52.958,30.066c-1.093-2.633-2.188-5.266-3.283-7.897c0.013-1.005,0.024-2.01,0.036-3.015
			c7.426,0.004,14.849,0.009,22.273,0.013c-0.304,1.688-0.608,3.375-0.912,5.063c0.344,2.63,0.686,5.26,1.028,7.89
			c-0.298,0.573-0.597,1.146-0.983,1.89c0.646,0.469,1.175,0.85,1.701,1.232c0.056,1.657,0.112,3.315,0.168,4.972
			c-0.73,2.665-1.462,5.33-2.192,7.995c-4.564-6.687-9.129-13.374-13.885-20.343C55.596,28.596,54.277,29.331,52.958,30.066z"/>
		<path fill="#681611" d="M402.898,36.353c-0.364-0.997-0.729-1.995-1.098-2.992c1.077-4.667,2.153-9.334,3.228-14.001
			c0.354,0,0.71,0,1.059,0c5.308,1.999,10.611,3.997,15.915,5.996c0.376,4.032,0.751,8.063,1.122,12.094
			c-0.733,1.305-1.469,2.612-2.199,3.918C414.917,39.696,408.91,38.024,402.898,36.353z"/>
		<path fill="#A72421" d="M97.439,19.182c0.278,5.225,0.559,10.451,1.101,20.606c-0.212,0.096-4.868,2.226-9.525,4.356
			c-2.503-2.656-5.004-5.312-7.507-7.968c0.344-1.679,0.687-3.357,1.029-5.035c-0.034-1.332-0.067-2.663-0.101-3.994
			c0.025-0.671,0.051-1.341,0.077-2.01c0.733-1.988,1.467-3.976,2.2-5.963C88.955,19.177,93.198,19.18,97.439,19.182z"/>
		<path fill="#8F1F1B" d="M330.77,53.333c0.742-2.388,1.487-4.771,2.23-7.156c1.422,0.636,2.847,1.271,4.271,1.906
			c2.957,5.231,5.913,10.467,8.504,15.054c-2.495,3.88-4.522,7.028-6.549,10.177c-4.246-0.002-8.486-0.005-12.729-0.007
			C327.92,66.65,329.345,59.992,330.77,53.333z"/>
		<path fill="#791A16" d="M374.243,59.341c3.887-5.334,7.773-10.666,11.662-16c2.078,2.386,4.155,4.775,6.524,7.496
			c-0.727,7.127-1.511,14.815-2.294,22.506c-4.949-0.002-9.898-0.006-14.848-0.008c0.021-0.685,0.039-1.365,0.061-2.049
			c3.381-5.838,6.763-11.677,10.143-17.514c-1.369-0.777-2.744-1.559-4.113-2.336C378.999,54.074,376.621,56.708,374.243,59.341z"/>
		<path fill="#94201C" d="M135.601,43.203c-2.178,2.71-4.354,5.419-7.305,9.091c-1.992-1.358-4.001-2.73-6.422-4.383
			c2.307-1.982,3.583-3.083,5.357-4.605c-1.054-3.241-2.173-6.68-3.291-10.119c1.765,0.363,3.529,0.727,5.293,1.091
			c1.531,0.716,3.063,1.433,4.266,1.996c1.921-6.185,3.614-11.626,5.305-17.068c3.89,0.002,7.778,0.005,11.667,0.007
			C145.516,27.209,140.56,35.207,135.601,43.203z"/>
		<path fill="#A72421" d="M85.779,52.142c1.848,3.311,3.698,6.621,5.908,10.576c-0.183,2.937-0.418,6.695-0.654,10.453
			c-4.95-0.004-9.899-0.006-14.849-0.01c-0.347-0.998-0.694-1.996-1.041-2.992c0.007-0.674,0.013-1.349,0.02-2.021
			c2.458-7.66,4.915-15.32,7.373-22.982c0.667,0.36,1.338,0.722,2.007,1.082c0.476,1.282,0.95,2.564,1.425,3.846
			C85.905,50.777,85.841,51.458,85.779,52.142z"/>
		<path fill="#57120E" d="M515.316,44.419c-6.003-8.335-12.008-16.672-18.011-25.007c3.889,0.002,7.779,0.004,11.667,0.007
			c2.121,2.001,4.24,4.002,6.36,6.003C515.328,31.754,515.321,38.087,515.316,44.419z"/>
		<path fill="#6C1713" d="M244.828,73.259c-0.495-2.563-0.99-5.129-1.376-7.117c-5.248,1.029-8.443,1.654-20.644,4.046
			c12.796-6.708,17.402-9.122,22.01-11.536c0.369,1.393,0.737,2.783,1.107,4.176c4.589-0.52,9.177-1.039,13.767-1.557
			c1.408,3.999,2.819,8,4.227,12C257.555,73.267,251.191,73.264,244.828,73.259z"/>
		<path fill="#851C19" d="M339.226,73.314c2.026-3.148,4.057-6.297,6.551-10.177c-2.59-4.587-5.546-9.82-8.506-15.054
			c1.002,0.424,2.003,0.847,3.007,1.269c2.481,0.989,4.96,1.979,7.441,2.97c0.407-0.012,0.813-0.021,1.219-0.033
			c1.335,0.709,2.675,1.416,4.009,2.125c-0.318,1.635-0.634,3.27-0.954,4.903c2.114,3.993,4.23,7.988,6.344,11.981
			c-0.006,0.677-0.012,1.352-0.021,2.027C351.953,73.322,345.589,73.318,339.226,73.314z"/>
		<path fill="#851C19" d="M390.135,73.343c0.783-7.688,1.567-15.379,2.294-22.506c-2.371-2.721-4.448-5.108-6.524-7.496
			c0-0.668,0.003-1.335,0.003-2.002c1.072-0.024,2.145-0.046,3.217-0.069c1.409,0.699,2.823,1.399,4.231,2.098
			c1.429,0.653,2.855,1.306,4.283,1.96c0.698,0.668,1.397,1.34,2.091,2.01c-1.429,8.668-2.861,17.339-4.29,26.007
			C393.672,73.346,391.903,73.343,390.135,73.343z"/>
		<path fill="#821C18" d="M330.77,53.333c-1.425,6.656-2.85,13.314-4.273,19.974c-3.533-0.002-7.069-0.004-10.606-0.007
			C320.85,66.645,325.809,59.99,330.77,53.333z"/>
		<path fill="#791A16" d="M263.919,73.271c-1.408-4-2.818-8.001-4.226-12c-0.011-0.661-0.02-1.322-0.024-1.984
			c6.706,0.654,13.411,1.311,20.119,1.963c-1.048,4.01-2.09,8.021-3.14,12.029C272.403,73.276,268.162,73.274,263.919,73.271z"/>
		<path fill="#801B17" d="M133.358,58.244c0.373-2.037,0.746-4.076,1.119-6.115c4.256,7.024,8.515,14.052,12.771,21.076
			c-4.951-0.004-9.899-0.006-14.85-0.009C132.719,68.21,133.039,63.227,133.358,58.244z"/>
		<path fill="#781916" d="M422.006,25.355c-5.307-1.999-10.61-3.997-15.918-5.996c13.082,0.008,26.164,0.015,39.245,0.023
			c-1.066,1.999-2.13,3.999-3.195,5.998C435.426,25.372,428.717,25.364,422.006,25.355z"/>
		<path fill="#A52420" d="M133.358,58.244c-0.319,4.983-0.64,9.969-0.959,14.952c-4.596-0.003-9.193-0.006-13.789-0.009
			c2.363-5.488,4.726-10.979,7.207-16.742C128.722,57.137,131.041,57.691,133.358,58.244z"/>
		<path fill="#9E221E" d="M0.889,60.123c5.66,1.66,11.319,3.319,16.979,4.979c4.943,2.679,9.886,5.356,14.83,8.036
			c-6.718-0.004-13.436-0.008-20.152-0.012c-3.886-2.67-7.773-5.338-11.661-8.006C0.885,63.455,0.888,61.789,0.889,60.123z"/>
		<path fill="#801B17" d="M442.138,25.38c1.065-1.999,2.129-3.999,3.195-5.998c2.121,0.001,4.244,0.002,6.364,0.003
			c-0.005,7.232-0.012,14.466-0.02,24.12c-3.948-3.262-5.684-4.696-7.421-6.129c-1.059-0.667-2.118-1.333-3.176-1.999
			C441.432,32.045,441.786,28.713,442.138,25.38z"/>
		<path fill="#99211D" d="M138.805,19.206c-1.692,5.442-3.384,10.884-5.305,17.068c-1.204-0.563-2.735-1.28-4.266-1.997
			c-1.759-5.027-3.519-10.053-5.278-15.08C128.907,19.2,133.855,19.203,138.805,19.206z"/>
		<path fill="#A52420" d="M123.957,19.197c1.758,5.027,3.517,10.053,5.278,15.08c-1.765-0.363-3.529-0.727-5.293-1.09
			c-0.708-0.003-1.416-0.005-2.122-0.008c-4.237-4.664-8.474-9.327-12.711-13.991C114.059,19.191,119.006,19.194,123.957,19.197z"/>
		<path fill="#791A16" d="M395.44,73.347c1.429-8.668,2.861-17.338,4.291-26.006c0.691,8.671,1.383,17.34,2.072,26.009
			C399.682,73.349,397.561,73.348,395.44,73.347z"/>
		<path fill="#801B17" d="M397.639,45.33c-1.428-0.654-2.854-1.307-4.283-1.96c2.828-8.004,5.661-16.008,8.492-24.013
			c1.059,0.001,2.12,0.001,3.18,0.002c-1.074,4.667-2.15,9.334-3.228,14.001C400.412,37.35,399.027,41.34,397.639,45.33z"/>
		<path fill="#651511" d="M479.231,73.395c0.003-2,0.003-4,0.005-5.998c3.058-0.675,6.117-1.351,10.1-2.229
			c1.808,2.563,3.812,5.399,5.805,8.235C489.839,73.401,484.534,73.398,479.231,73.395z"/>
		<path fill="#651511" d="M475.963,34.443c-2.079-5.015-4.156-10.031-6.233-15.047c1.058,0.001,2.12,0.001,3.181,0.002
			C473.927,24.413,474.947,29.428,475.963,34.443z"/>
		<path fill="#8F1F1B" d="M324.419,19.313c2.477,0.001,4.95,0.003,7.425,0.004c0.339,2.731,0.677,5.463,1.016,8.193
			c0.018,0.855,0.031,1.712,0.047,2.57c-0.713,0.069-1.424,0.135-2.139,0.202c-2.117-2.655-4.237-5.312-6.354-7.967
			C324.417,21.314,324.419,20.313,324.419,19.313z"/>
		<path fill="#801B17" d="M218.338,64.236c1.053,3.004,2.103,6.008,3.156,9.012c-2.828-0.002-5.656-0.004-8.485-0.006
			C214.785,70.24,216.56,67.238,218.338,64.236z"/>
		<path fill="#8F1F1B" d="M311.672,32.293c1.067-4.329,2.136-8.657,3.202-12.986c1.414,0.001,2.829,0.001,4.242,0.002
			c0.71,1,1.418,2,2.129,3.001c-0.013,1.007-0.023,2.014-0.033,3.021c-1.411,1.994-2.826,3.988-4.236,5.981
			C315.206,31.64,313.438,31.967,311.672,32.293z"/>
		<path fill="#821C18" d="M358.316,73.326c0.007-0.676,0.014-1.351,0.02-2.025c2.829-1.338,5.66-2.676,8.487-4.016
			c0.7,0.008,1.399,0.014,2.097,0.021c0.692,0.021,1.383,0.044,2.072,0.064c0.371,1.987,0.743,3.977,1.111,5.963
			C367.509,73.332,362.912,73.328,358.316,73.326z"/>
		<path fill="#B72824" d="M0.884,65.121c3.887,2.67,7.774,5.338,11.661,8.006C8.659,70.458,4.771,67.791,0.884,65.121z"/>
		<path fill="#B72824" d="M75.163,68.149c-0.007,0.675-0.013,1.347-0.02,2.021c-0.36,0.998-0.72,1.996-1.08,2.992
			c-1.414,0-2.828,0-4.243-0.002c-0.71-2.646-1.421-5.295-2.131-7.945c0.366-1.014,0.73-2.024,1.094-3.039
			C70.91,64.166,73.037,66.158,75.163,68.149z"/>
		<path fill="#791A16" d="M82.513,25.138c-0.026,0.669-0.052,1.339-0.077,2.01c-1.018,0.712-2.039,1.424-3.056,2.138
			c-0.702-1.374-1.402-2.746-2.105-4.118c-0.702-2-1.406-3.999-2.109-5.999c2.121,0.001,4.244,0.002,6.364,0.004
			C81.858,21.161,82.187,23.149,82.513,25.138z"/>
		<path fill="#761915" d="M332.858,27.512c-0.337-2.731-0.675-5.463-1.014-8.195c1.768,0.001,3.537,0.002,5.305,0.003
			c-0.019,1.339-0.035,2.678-0.052,4.016C335.685,24.729,334.271,26.12,332.858,27.512z"/>
		<path fill="#6C1713" d="M200.321,22.24c-3.888-1.002-7.777-2.003-11.665-3.005c3.889,0.002,7.777,0.004,11.667,0.007
			c0.005,0.66,0.011,1.319,0.017,1.979C200.336,21.56,200.329,21.9,200.321,22.24z"/>
		<path fill="#6D1713" d="M515.333,25.422c-2.12-2.001-4.239-4.002-6.36-6.003C511.093,21.42,513.212,23.421,515.333,25.422z"/>
		<path fill="#651511" d="M200.321,22.24c0.007-0.34,0.015-0.68,0.02-1.02c1.056-0.658,2.11-1.318,3.166-1.977
			c1.06,0,2.122,0.001,3.182,0.001c1.051,1.685,2.101,3.369,3.15,5.054C206.666,23.612,203.493,22.926,200.321,22.24z"/>
		<path fill="#94201C" d="M75.166,19.169c0.704,2,1.406,3.999,2.109,5.999c-2.068-0.313-4.134-0.625-6.203-0.937
			c0.305-1.688,0.608-3.375,0.913-5.063C73.045,19.168,74.106,19.168,75.166,19.169z"/>
		<path fill="#721814" d="M372.106,73.333c-0.371-1.988-0.74-3.978-1.111-5.965c1.081-0.346,2.16-0.689,3.241-1.035
			c0.371,1.649,0.742,3.303,1.112,4.953c-0.021,0.684-0.04,1.364-0.061,2.049C374.226,73.333,373.166,73.333,372.106,73.333z"/>
		<path fill="#821C18" d="M346.695,19.325c-1.396,1.972-2.787,3.944-4.182,5.917c-0.72-0.354-1.439-0.708-2.158-1.063
			c0.003-0.271,0.005-0.541,0.003-0.812c0.699-1.348,1.398-2.697,2.093-4.045C343.865,19.324,345.28,19.325,346.695,19.325z"/>
		<path fill="#94201C" d="M342.451,19.323c-0.697,1.348-1.396,2.697-2.093,4.045c-1.086-0.011-2.174-0.022-3.261-0.032
			c0.017-1.338,0.033-2.677,0.052-4.016C338.916,19.321,340.682,19.322,342.451,19.323z"/>
		<path fill="#851C19" d="M82.513,25.138c-0.328-1.988-0.656-3.977-0.983-5.965c1.06,0,2.121,0.001,3.183,0.002
			C83.98,21.162,83.248,23.15,82.513,25.138z"/>
		<path fill="#821C18" d="M355.178,19.33c-0.976,0.834-1.95,1.67-4.725,4.042c-0.636-1.569-1.138-2.807-1.641-4.045
			C350.934,19.328,353.058,19.329,355.178,19.33z"/>
		<path fill="#8A1D1A" d="M321.244,22.311c-0.709-1-1.419-2-2.129-3.001c1.768,0.001,3.535,0.002,5.305,0.003
			c-0.002,1.001-0.005,2.002-0.005,3.002C323.357,22.313,322.3,22.312,321.244,22.311z"/>
		<path fill="#791A16" d="M458.017,73.382c0.615-0.951,1.228-1.904,2.72-4.225c1.399,2.288,1.992,3.258,2.584,4.229
			C461.553,73.384,459.786,73.382,458.017,73.382z"/>
		<path fill="#5D130E" d="M203.505,19.243c-1.056,0.659-2.11,1.319-3.166,1.977c-0.006-0.66-0.011-1.319-0.017-1.979
			C201.384,19.242,202.444,19.242,203.505,19.243z"/>
		<path fill="#AC2522" d="M74.063,73.162c0.36-0.996,0.72-1.994,1.08-2.992c0.347,0.998,0.694,1.996,1.041,2.994
			C75.478,73.164,74.77,73.164,74.063,73.162z"/>
		<path fill="#C62C28" d="M55.886,69.273c-14.644-4.557-25.237-7.852-35.831-11.146c0.271-1.194,0.543-2.395,0.814-3.592
			c9.504,1.619,19.086,2.942,28.449,5.105C51.19,60.074,52.226,63.71,55.886,69.273z"/>
		<path fill="#8A1D1A" d="M337.097,23.336c1.087,0.01,2.175,0.021,3.261,0.032c0.002,0.271,0,0.541-0.003,0.813
			c0.393,1.944,0.786,3.888,1.24,6.133c2.16,0.001,3.643,0.002,5.128,0.003c0.737,7.324,1.475,14.647,2.213,21.97
			c-0.406,0.012-0.813,0.022-1.217,0.034c-0.601-0.68-1.202-1.36-1.8-2.041c-3.613-4.34-7.221-8.679-10.834-13.018
			c-0.724-2.395-1.449-4.789-2.177-7.185c-0.016-0.856-0.03-1.712-0.047-2.568C334.271,26.12,335.685,24.729,337.097,23.336z"/>
		<path fill="#681611" d="M384.893,36.284c-2.45-3.568-4.903-7.136-7.355-10.704c3.456-0.795,6.913-1.588,10.368-2.383
			c0.396,4.74,0.786,9.481,1.179,14.222C387.687,37.039,386.291,36.662,384.893,36.284z"/>
		<path fill="#721814" d="M368.919,67.304c-0.697-0.008-1.396-0.014-2.095-0.02c-4.942-2.656-9.891-5.313-14.831-7.97
			c0.319-1.636,0.636-3.271,0.956-4.903c0.573-1.309,1.154-2.615,1.976-4.472c5.352,2.538,10.149,4.813,15.722,7.455
			C370.09,60.578,369.504,63.94,368.919,67.304z"/>
		<path fill="#821C18" d="M375.348,71.289c-0.37-1.65-0.741-3.304-1.112-4.953c0.002-2.332,0.005-4.662,0.007-6.994
			c2.381-2.633,4.756-5.268,7.135-7.9c1.369,0.777,2.744,1.559,4.113,2.336C382.111,59.612,378.729,65.451,375.348,71.289z"/>
		<path fill="#94201C" d="M346.72,30.317c-1.482-0.001-2.965-0.002-5.125-0.003c-0.454-2.245-0.848-4.188-1.242-6.133
			c0.718,0.353,1.44,0.707,2.16,1.061C343.917,26.933,345.319,28.625,346.72,30.317z"/>
		<path fill="#791A16" d="M384.893,36.284c1.397,0.378,2.794,0.755,4.191,1.134c0.014,1.285,0.026,2.57,0.04,3.854
			c-1.071,0.023-2.143,0.045-3.217,0.069C385.571,39.655,385.232,37.969,384.893,36.284z"/>
		<path fill="#6D1713" d="M215.186,25.22c7.781,0.362,15.565,0.725,23.344,1.085c0.87,2.833,1.743,5.667,2.615,8.5
			c1.722-1.382,3.445-2.765,5.168-4.148c1.628,5.208,3.253,10.415,4.88,15.622c-4.559-3.049-9.121-6.099-12.344-8.255
			c-7.565,1.011-13.669,1.827-21.456,2.868c0.319,6.932,0.648,14.143,0.978,21.354c-1.773-12.326-3.545-24.653-5.319-36.979
			c0,0.001-0.015-0.067-0.015-0.067C213.754,25.207,214.469,25.213,215.186,25.22z"/>
		<path fill="#8F1F1B" d="M183.324,38.243c0.038-2.361,0.073-4.722,0.111-7.084c3.504,8.688,7.008,17.377,10.513,26.067
			C190.406,50.899,186.866,44.57,183.324,38.243z"/>
		<path fill="#851C19" d="M198.229,71.21c-0.712-1.998-1.423-3.996-2.136-5.994C196.806,67.214,197.518,69.212,198.229,71.21z"/>
		<path fill="#761915" d="M251.193,46.279c-1.627-5.208-3.252-10.415-4.88-15.622c-1.723,1.383-3.446,2.766-5.168,4.148
			c-0.872-2.833-1.745-5.666-2.615-8.5c9.902,0.98,19.804,1.959,29.705,2.938c1.764,4.009,3.527,8.015,5.291,12.022
			c-2.953-2.028-5.906-4.056-8.862-6.083c-2.955,2.849-5.912,5.697-8.869,8.545c8.7,4.522,17.402,9.044,26.103,13.565l0.189,0.199
			l-0.119-0.27c-0.011-0.969-0.025-1.934-0.035-2.896c0.654-0.05,1.305-0.096,1.958-0.144c0.085,0.722,0.172,1.442,0.256,2.165
			c0.078,1.689,0.157,3.382,0.235,5.07c-1.534-0.058-3.066-0.113-4.599-0.174c-6.707-0.652-13.413-1.308-20.119-1.961
			C256.843,54.951,254.017,50.615,251.193,46.279z"/>
		<path fill="#851C19" d="M85.968,50.093c-0.475-1.28-0.949-2.563-1.424-3.846c-0.638-0.704-1.276-1.406-1.914-2.106
			c-0.766-1.276-1.534-2.551-2.299-3.827c-0.339-1.332-0.677-2.663-1.016-3.995l0.091-0.175c0.7,0.01,1.402,0.021,2.102,0.033
			c2.502,2.656,5.004,5.313,7.507,7.968c-0.018,2.007-0.034,4.015-0.052,6.024C87.964,50.143,86.966,50.121,85.968,50.093z"/>
		<path fill="#8F1F1B" d="M85.968,50.093c0.998,0.025,1.997,0.05,2.995,0.074c0.957,0.703,1.914,1.406,9.656,7.094
			c-9.79-3.903-11.315-4.51-12.841-5.118C85.841,51.458,85.905,50.777,85.968,50.093z"/>
		<path fill="#6D1713" d="M485.685,25.428c8.747,9.842,17.499,19.682,26.247,29.522c-2.074,1.586-4.156,3.172-6.229,4.758
			c-4.567-4.771-9.131-9.541-13.696-14.313c-0.016-0.66-0.025-1.32-0.037-1.979c-0.693-0.675-1.388-1.35-2.081-2.023
			c-0.009-0.664-0.017-1.327-0.022-1.991c-1.399-3.67-2.799-7.339-4.199-11.01C485.675,27.406,485.68,26.417,485.685,25.428z"/>
		<path fill="#651511" d="M478.158,59.402c-0.705-6.002-1.41-12.004-2.117-18.006C476.745,47.398,477.453,53.4,478.158,59.402z"/>
		<path fill="#651511" d="M485.67,28.395c1.399,3.67,2.799,7.339,4.197,11.01C488.469,35.734,487.07,32.065,485.67,28.395z"/>
		<path fill="#651511" d="M489.889,41.396c0.693,0.674,1.388,1.348,2.081,2.023C491.277,42.744,490.583,42.069,489.889,41.396z"/>
		<path fill="#681611" d="M283.895,54.185c-0.653,0.048-1.305,0.094-1.958,0.141c-2.803-4.354-5.605-8.706-8.411-13.06
			c-1.764-4.007-3.524-8.014-5.288-12.022c7.683,1.369,15.366,2.737,23.045,4.106c-0.002,0,0.297-0.088,0.297-0.088
			c-0.693,2.035-1.388,4.069-2.08,6.104C287.631,44.305,285.764,49.246,283.895,54.185z"/>
		<path fill="#821C18" d="M306.389,43.283c4.315,1.738,8.634,3.476,14.973,6.029c-4.748,3.967-7.754,6.479-10.759,8.986
			C309.198,53.292,307.793,48.289,306.389,43.283z"/>
		<path fill="#9E221E" d="M284.386,61.421c-0.076-1.689-0.157-3.381-0.235-5.071c5.107,3.756,10.219,7.511,15.328,11.267
			c-0.96,1.109-1.917,2.221-2.873,3.332C292.533,67.773,288.459,64.598,284.386,61.421z"/>
		<path fill="#791A16" d="M289.5,39.365c0.692-2.035,1.387-4.069,2.08-6.104c1,0.382,1.994,0.766,2.988,1.15
			C292.876,36.063,291.186,37.714,289.5,39.365z"/>
		<path fill="#721814" d="M289.464,28.22c0.619,0.711,1.241,1.422,1.86,2.133C290.703,29.643,290.084,28.931,289.464,28.22z"/>
		<path fill="#651511" d="M215.186,25.22c-0.716-0.006-1.431-0.013-2.146-0.02C213.754,25.206,214.47,25.213,215.186,25.22z"/>
		<path fill="#721814" d="M287.544,25.049c0.588,0.76,1.174,1.52,1.761,2.28C288.718,26.569,288.129,25.81,287.544,25.049z"/>
		<path fill="#B72824" d="M52.958,30.066c1.32-0.736,2.638-1.47,3.952-2.202c4.756,6.971,9.321,13.658,13.886,20.344
			c-0.333,1.638-0.665,3.273-0.999,4.912c-0.35-0.021-0.699-0.029-1.05-0.025c-0.665,0.379-1.33,0.759-1.996,1.138
			c-0.741,0.976-1.483,1.95-2.224,2.927C60.672,48.126,56.815,39.097,52.958,30.066z"/>
		<path fill="#9E221E" d="M68.749,53.095c0.35-0.004,0.7,0.006,1.049,0.025l0.038,0.041c-0.352,3.004-0.703,6.008-1.054,9.012
			c-0.365,1.015-0.729,2.027-1.095,3.039c-1.054-2.686-2.108-5.369-3.16-8.055c0.741-0.977,1.483-1.949,2.224-2.927
			C67.417,53.854,68.083,53.474,68.749,53.095z"/>
		<path fill="#851C19" d="M321.244,22.311c1.057,0.001,2.113,0.003,3.171,0.004c2.118,2.655,4.236,5.312,6.355,7.967
			c0.306,2.328,0.609,4.655,0.911,6.982c-0.011,0.34-0.023,0.679-0.033,1.018c-1.002,0.014-2.006,0.027-3.006,0.04
			c-2.473-1.035-4.942-2.07-7.413-3.104c-0.005-3.294-0.012-6.59-0.021-9.885C321.222,24.325,321.23,23.318,321.244,22.311z"/>
		<path fill="#5D130E" d="M331.648,38.281c0.013-0.339,0.024-0.678,0.034-1.017c1.134,0,2.267,0,3.398-0.002
			c3.613,4.339,7.224,8.678,10.836,13.017c-1.882-0.311-3.762-0.617-5.639-0.928c-1.004-0.422-2.005-0.844-3.006-1.268
			c-1.423-0.639-2.848-1.271-4.269-1.908c-0.7-1.921-1.396-3.843-2.091-5.765C331.156,39.701,331.402,38.991,331.648,38.281z"/>
		<path fill="#8A1D1A" d="M311.672,32.293c1.766-0.326,3.533-0.653,5.301-0.98c0.391,1.269,0.781,2.537,1.172,3.804
			c-4.99,0.038-9.978,0.076-14.968,0.114c0.713-0.977,1.426-1.954,2.141-2.931c0.71,0.003,1.416,0.006,2.125,0.009
			C308.852,32.303,310.263,32.298,311.672,32.293z"/>
		<path fill="#98211D" d="M318.145,35.117c-0.391-1.268-0.781-2.535-1.172-3.804c1.411-1.993,2.826-3.987,4.236-5.981
			c0.008,3.295,0.015,6.591,0.02,9.885C320.2,35.183,319.172,35.149,318.145,35.117z"/>
		<path fill="#801B17" d="M331.648,38.281c-0.246,0.709-0.492,1.419-0.74,2.13c-0.756-0.695-1.509-1.393-2.266-2.09
			C329.642,38.309,330.646,38.295,331.648,38.281z"/>
		<path fill="#6D1713" d="M442.138,25.38c-0.353,3.333-0.705,6.665-1.057,9.998c-7.089,11.659-14.177,23.317-21.267,34.976
			c2.85-9.331,5.701-18.661,8.55-27.991c-1.746-1.638-3.491-3.275-5.239-4.913c-0.372-4.032-0.748-8.063-1.121-12.095
			C428.717,25.364,435.426,25.372,442.138,25.38z"/>
		<path fill="#821C18" d="M428.366,42.362c-2.849,9.331-5.7,18.661-8.55,27.992c-0.718-0.001-1.434-0.004-2.151-0.005
			c0.714-4.333,1.428-8.665,2.142-12.997c0.395-3.651,0.788-7.306,1.183-10.957C423.448,45.051,425.907,43.707,428.366,42.362z"/>
		<path fill="#6C1713" d="M420.989,46.395c-0.395,3.651-0.788,7.306-1.183,10.957c-5.634-7-11.271-14-16.908-21
			c6.012,1.671,12.019,3.344,18.028,5.015C420.946,43.043,420.969,44.72,420.989,46.395z"/>
		<path fill="#8F1F1B" d="M307.443,32.309c-0.709-0.003-1.415-0.006-2.125-0.009C306.028,32.303,306.734,32.306,307.443,32.309z"/>
		<path fill="#8A1D1A" d="M71.073,24.23c2.068,0.312,4.134,0.625,6.203,0.937c0.703,1.373,1.402,2.745,2.105,4.117
			c0.016,0.635,0.032,1.271,0.049,1.908l-0.004-0.036c-0.019,0.654-0.038,1.309-0.058,1.962c0.014,1.009,0.026,2.017,0.039,3.026
			c0,0-0.091,0.175-0.09,0.173c-2.11,1.298-4.22,2.598-6.329,3.897c-0.056-1.657-0.112-3.315-0.167-4.972
			c-0.24-1.041-0.48-2.082-0.721-3.122C71.758,29.49,71.416,26.86,71.073,24.23z"/>
		<path fill="#9E221E" d="M72.988,40.214c2.109-1.3,4.219-2.599,6.328-3.897c0.338,1.334,0.676,2.665,1.017,3.996
			c-3.499,4.283-6.997,8.565-10.495,12.849L69.8,53.123c0.333-1.639,0.664-3.274,0.997-4.912
			C71.524,45.544,72.257,42.879,72.988,40.214z"/>
		<path fill="#9E221E" d="M72.1,32.12c0.24,1.04,0.481,2.081,0.721,3.122c-0.529-0.382-1.057-0.763-1.703-1.232
			C71.503,33.266,71.802,32.693,72.1,32.12z"/>
		<path fill="#781916" d="M420.989,46.395c-0.02-1.675-0.043-3.352-0.063-5.028c0.733-1.306,1.467-2.613,2.202-3.918
			c1.745,1.639,3.49,3.276,5.237,4.914C425.907,43.707,423.448,45.051,420.989,46.395z"/>
		<path fill="#94201C" d="M79.406,36.144c-0.014-1.009-0.025-2.017-0.038-3.025c0.02-0.654,0.038-1.309,0.056-1.963l0.004,0.036
			c1.036-0.017,2.071-0.034,3.108-0.051c-0.343,1.678-0.687,3.356-1.029,5.035C80.808,36.166,80.106,36.154,79.406,36.144z"/>
		<path fill="#851C19" d="M82.537,31.142c-1.036,0.017-2.072,0.034-3.108,0.051c-0.016-0.636-0.033-1.273-0.049-1.908
			c1.019-0.712,2.039-1.424,3.057-2.137C82.47,28.479,82.503,29.81,82.537,31.142z"/>
		<path fill="#AC2522" d="M69.837,53.162c3.498-4.281,6.997-8.564,10.495-12.849c0.764,1.277,1.532,2.552,2.297,3.828
			c-0.032,0.342-0.063,0.684-0.094,1.025c-2.459,7.662-4.915,15.322-7.373,22.982c-2.126-1.99-4.254-3.982-6.38-5.975
			C69.134,59.169,69.485,56.167,69.837,53.162z"/>
		<path fill="#98211D" d="M82.536,45.167c0.03-0.342,0.063-0.684,0.094-1.025c0.639,0.702,1.277,1.405,1.915,2.107
			C83.874,45.888,83.204,45.527,82.536,45.167z"/>
		<path fill="#791A16" d="M351.992,59.317c4.942,2.655,9.888,5.313,14.831,7.968c-2.829,1.34-5.658,2.678-8.487,4.016
			C356.222,67.305,354.106,63.31,351.992,59.317z"/>
		<path fill="#721814" d="M340.276,49.352c1.879,0.31,3.759,0.618,5.638,0.928c0.602,0.683,1.203,1.362,1.802,2.042
			C345.235,51.333,342.757,50.341,340.276,49.352z"/>
		<path fill="#6C1713" d="M335.081,37.263c-1.132,0.001-2.265,0.002-3.398,0.002c-0.306-2.328-0.61-4.655-0.912-6.983
			c0.714-0.067,1.424-0.133,2.139-0.202C333.633,32.474,334.357,34.868,335.081,37.263z"/>
		<path fill="#801B17" d="M273.526,41.266c2.803,4.354,5.605,8.706,8.409,13.06c0.013,0.967,0.023,1.934,0.037,2.899l-0.075,0.069
			c-8.699-4.522-17.401-9.045-26.102-13.566c2.957-2.849,5.913-5.697,8.868-8.545C267.62,37.21,270.573,39.238,273.526,41.266z"/>
		<polygon fill="#8A1D1A" points="281.972,57.225 282.089,57.494 281.9,57.292 		"/>
		<path fill="#AC2522" d="M68.749,53.095c-0.666,0.379-1.332,0.759-1.996,1.138C67.419,53.854,68.084,53.474,68.749,53.095z"/>
		<path fill="#791A16" d="M79.424,31.156c-0.018,0.654-0.036,1.309-0.056,1.963C79.387,32.465,79.406,31.811,79.424,31.156z"/>
	</g>
</g>
<g opacity="0.5">
	<g>
		<path fill="#BF2A26" d="M14.732,19.119c11.667,0.007,23.335,0.014,35.001,0.02c-0.011,1.005-0.025,2.01-0.036,3.015
			c-7.184,1.418-14.367,2.837-25.649,5.064c9.352,6.024,16.798,10.821,25.828,16.637c0,0.144-0.002,3.032-0.004,6.156
			c1.996,0.188,3.673,0.346,6.263,0.589c0.684,7.54,1.362,15.038,2.041,22.538c-8.485-0.006-16.971-0.01-25.456-0.016
			c-4.942-2.68-9.886-5.356-14.829-8.035c-1.268-12.151-2.534-24.302-4.152-39.832c5.11,1.554,3.176,0.966,0.989,0.301
			C14.729,23.325,14.73,21.222,14.732,19.119z M55.909,69.257c-3.661-5.563-4.697-9.2-6.567-9.633
			c-9.364-2.164-18.943-3.486-28.449-5.105c-0.271,1.197-0.543,2.396-0.814,3.592C30.672,61.408,41.266,64.703,55.909,69.257z"/>
		<path fill="#761915" d="M346.715,19.31c0.708,0,1.413,0.001,2.121,0.001c0.502,1.238,1.006,2.476,1.64,4.045
			c2.775-2.372,3.75-3.208,4.726-4.042c15.557,0.009,31.111,0.018,46.668,0.027c-2.831,8.004-5.663,16.009-8.491,24.013
			c-1.407-0.699-2.82-1.399-4.232-2.098c-0.013-1.284-0.025-2.569-0.036-3.854c-0.395-4.741-0.786-9.482-1.179-14.222
			c-3.457,0.795-6.911,1.588-10.371,2.383c2.453,3.568,4.903,7.136,7.355,10.704c0.34,1.686,0.679,3.371,1.015,5.058
			c0,0.667-0.002,1.334-0.005,2.002c-3.886,5.333-7.773,10.665-11.659,15.999c-0.003,2.33-0.005,4.66-0.008,6.992
			c-1.08,0.346-2.161,0.689-3.243,1.035c-0.688-0.021-1.38-0.044-2.072-0.064c0.583-3.365,1.169-6.728,1.722-9.908
			c-5.571-2.641-10.368-4.916-15.724-7.455c-0.819,1.854-1.397,3.164-1.974,4.474c-1.337-0.709-2.674-1.417-4.011-2.126
			c-0.737-7.323-1.476-14.646-2.213-21.97c-1.402-1.692-2.806-3.384-4.205-5.076C343.928,23.254,345.321,21.281,346.715,19.31z"/>
		<path fill="#8A1D1A" d="M150.496,19.197c10.253,0.006,20.505,0.012,30.758,0.018c0.688,2.672,1.377,5.344,2.065,8.015
			c-7.29,2.014-14.579,4.029-24.351,6.729c-0.01,12.21-0.021,25.724-0.032,39.236c-3.889-0.002-7.778-0.004-11.667-0.007
			c-4.257-7.024-8.516-14.051-12.771-21.077c0.376-2.974,0.751-5.947,1.125-8.923C140.583,35.191,145.538,27.194,150.496,19.197z"/>
		<path fill="#791A16" d="M183.319,27.229c-0.688-2.671-1.377-5.343-2.065-8.015c2.475,0.001,4.95,0.003,7.426,0.004
			c3.888,1.002,7.776,2.003,11.666,3.005c3.173,0.687,6.344,1.373,9.517,2.06c1.07,0.323,2.142,0.646,3.214,0.967
			c1.774,12.327,3.547,24.652,5.32,36.979c-0.012,0.663-0.025,1.326-0.035,1.989c-1.776,3.002-3.553,6.004-5.329,9.006
			c-4.95-0.003-9.899-0.006-14.85-0.01c0.024-0.674,0.048-1.348,0.071-2.021c-0.711-1.999-1.424-3.994-2.135-5.992
			c-0.715-2.664-1.431-5.328-2.146-7.992c-3.505-8.688-7.009-17.378-10.512-26.067C183.411,29.838,183.365,28.534,183.319,27.229z"
			/>
		<path fill="#681611" d="M218.36,64.22c0.011-0.663,0.023-1.326,0.034-1.989c-0.33-7.212-0.661-14.423-0.979-21.354
			c7.787-1.042,13.892-1.857,21.455-2.868c3.225,2.156,7.784,5.206,12.343,8.255c2.826,4.336,5.65,8.672,8.475,13.008
			c0.008,0.661,0.018,1.323,0.024,1.983c-4.587,0.519-9.176,1.037-13.765,1.557c-0.37-1.393-0.739-2.783-1.107-4.175
			c-4.606,2.413-9.214,4.827-22.012,11.536c12.201-2.391,15.396-3.019,20.646-4.047c0.385,1.99,0.88,4.555,1.375,7.119
			c-7.777-0.006-15.557-0.011-23.335-0.016C220.463,70.228,219.412,67.224,218.36,64.22z"/>
		<path fill="#9E221E" d="M97.462,19.167c3.888,0.002,7.777,0.004,11.667,0.006c4.236,4.664,8.474,9.327,12.711,13.991
			c-6.412,8.687-12.828,17.375-20.375,27.595c-0.425-0.864,0.433,0.886,0.279,0.57c0.446,5.389,0.712,8.608,0.979,11.832
			c-3.889-0.002-7.777-0.004-11.667-0.008c0.234-3.758,0.47-7.517,0.653-10.451c-2.21-3.955-4.059-7.268-5.908-10.576
			c1.525,0.607,3.05,1.215,12.841,5.119c-7.745-5.688-8.7-6.393-9.657-7.095c0.018-2.009,0.036-4.019,0.052-6.024
			c4.658-2.13,9.314-4.26,9.526-4.356C98.021,29.618,97.742,24.392,97.462,19.167z"/>
		<path fill="#5A130F" d="M510.012,73.397c-4.95-0.003-9.899-0.006-14.849-0.009c-2.001-2.836-4-5.672-5.807-8.235
			c-3.983,0.878-7.04,1.554-10.099,2.229c-0.352-1.002-0.704-2.002-1.055-3.004c-0.01-1.662-0.016-3.328-0.025-4.991
			c-0.705-6.003-1.41-12.005-2.115-18.006c-0.025-2.317-0.051-4.635-0.076-6.953c-1.018-5.015-2.036-10.03-3.053-15.045
			c3.89,0.002,7.775,0.004,11.666,0.007c0.372,2.008,0.738,4.016,1.11,6.023c-0.008,0.989-0.013,1.978-0.018,2.966
			c1.402,3.67,2.8,7.339,4.2,11.01c0.008,0.664,0.015,1.327,0.02,1.991c0.695,0.674,1.39,1.348,2.083,2.023
			c0.015,0.659,0.025,1.319,0.037,1.979C498.024,54.72,504.019,64.059,510.012,73.397z"/>
		<path fill="#98211D" d="M193.971,57.21c0.715,2.662,1.432,5.326,2.146,7.99c0.711,1.998,1.425,3.994,2.137,5.993
			c-0.024,0.675-0.048,1.349-0.071,2.021c-7.424-0.004-14.85-0.008-22.274-0.014c-2.216-11.521-4.434-23.045-7.257-37.717
			c10.263,1.913,12.48,2.327,14.697,2.74C186.889,44.555,190.429,50.882,193.971,57.21z"/>
		<path fill="#8A1D1A" d="M300.004,73.276c-7.778-0.004-15.557-0.009-23.335-0.013c1.047-4.01,2.091-8.02,3.14-12.029
			c1.534,0.059,3.066,0.115,4.599,0.174c4.072,3.176,8.146,6.35,12.221,9.524c0.957-1.111,1.912-2.222,2.871-3.332
			c-5.109-3.755-10.218-7.511-15.326-11.265c-0.086-0.725-0.17-1.444-0.256-2.166c1.867-4.939,3.735-9.88,5.604-14.82
			c1.688-1.651,3.377-3.302,5.067-4.953c1.802,0.286,3.603,0.572,5.402,0.858c2.141,2.671,4.279,5.341,6.419,8.012
			c1.403,5.006,2.81,10.011,4.213,15.017C307.083,63.283,303.544,68.279,300.004,73.276z"/>
		<path fill="#99211D" d="M102.723,73.164c-0.267-3.224-0.534-6.445-0.979-11.832c0.154,0.313-0.705-1.437-0.279-0.569
			c7.549-10.224,13.963-18.91,20.376-27.596c0.708,0.002,1.416,0.005,2.123,0.008c1.118,3.439,2.237,6.878,3.291,10.119
			c-1.773,1.524-3.05,2.625-5.357,4.605c2.42,1.65,4.43,3.023,6.421,4.385c2.951-3.674,5.128-6.383,7.305-9.093
			c-0.374,2.976-0.749,5.95-1.125,8.925c-0.372,2.039-0.745,4.077-1.118,6.115c-2.318-0.555-4.636-1.105-7.542-1.799
			c-2.481,5.764-4.843,11.253-7.206,16.74C113.329,73.167,108.026,73.166,102.723,73.164z"/>
		<path fill="#5D130E" d="M213.075,25.252c-1.073-0.323-2.144-0.646-3.214-0.969c-1.05-1.685-2.101-3.369-3.15-5.054
			c26.163,0.015,52.325,0.03,78.488,0.045c0.79,1.92,1.581,3.84,2.369,5.759c0.586,0.76,1.174,1.52,1.759,2.28
			c0.058,0.296,0.113,0.593,0.161,0.891c0.62,0.711,1.239,1.422,1.859,2.133c-0.017,0.999-0.029,1.998-0.043,2.996
			c-7.68-1.369-15.365-2.737-23.044-4.106c-9.902-0.979-19.804-1.958-29.704-2.938c-7.782-0.362-15.564-0.725-23.347-1.086
			c-0.714-0.006-1.43-0.014-2.146-0.02L213.075,25.252z"/>
		<path fill="#C62C28" d="M58.176,73.137c-0.68-7.5-1.358-14.998-2.041-22.538c-2.59-0.243-4.268-0.4-6.263-0.59
			c0.002-3.123,0.004-6.011,0.004-6.155C40.847,38.038,33.4,33.242,24.048,27.217c11.282-2.228,18.466-3.646,25.649-5.064
			c1.095,2.632,2.189,5.264,3.284,7.897c3.857,9.03,7.713,18.061,11.57,27.092c1.053,2.686,2.107,5.37,3.161,8.057
			c0.709,2.648,1.42,5.297,2.131,7.944C65.954,73.141,62.065,73.139,58.176,73.137z"/>
		<path fill="#921F1B" d="M183.347,38.227c-2.215-0.413-4.433-0.827-14.697-2.74c2.824,14.673,5.042,26.195,7.258,37.718
			c-5.656-0.004-11.313-0.006-16.971-0.011c0.01-13.513,0.021-27.024,0.032-39.236c9.773-2.7,17.063-4.715,24.351-6.729
			c0.046,1.305,0.091,2.609,0.137,3.914C183.42,33.505,183.384,35.866,183.347,38.227z"/>
		<path fill="#B72824" d="M14.732,19.119c-0.001,2.104-0.003,4.207-0.004,6.439c2.187,0.665,4.121,1.253-0.989-0.301
			c1.618,15.528,2.884,27.679,4.152,39.831c-5.66-1.659-11.319-3.319-16.979-4.979c0.01-13.666,0.022-27.33,0.033-40.995
			C5.541,19.113,10.136,19.116,14.732,19.119z"/>
		<path fill="#721814" d="M478.204,64.378c0.351,1.002,0.703,2.002,1.055,3.002c0,1.998-0.003,3.998-0.005,5.998
			c-4.243-0.002-8.483-0.004-12.727-0.008c-25.009-15.611-10.22-35.372-6.32-53.997c2.123,0.001,4.245,0.002,6.365,0.004
			c-1.978,8.864-3.956,17.727-5.932,26.588c1.727,0.394,3.455,0.785,5.182,1.178c-0.502,1.729-1.007,3.461-2.237,7.682
			C468.007,57.718,473.104,61.048,478.204,64.378z"/>
		<path fill="#651511" d="M485.708,25.413c-0.369-2.008-0.737-4.016-1.107-6.023c4.242,0.002,8.483,0.005,12.729,0.007
			c6.003,8.335,12.006,16.672,18.01,25.007c-0.006,7.999,0.299,16.018-0.26,23.982c-0.124,1.767-3.296,3.345-5.066,5.011
			c-5.993-9.338-11.988-18.677-17.981-28.015c4.564,4.771,9.128,9.542,13.695,14.312c2.077-1.586,4.154-3.172,6.229-4.758
			C503.208,45.095,494.456,35.254,485.708,25.413z"/>
		<path fill="#791A16" d="M306.411,43.267c-2.14-2.671-4.278-5.341-6.419-8.012c1.07-0.013,2.141-0.027,3.21-0.04
			c4.989-0.038,9.977-0.076,14.965-0.114c1.029,0.033,2.057,0.066,3.086,0.099c2.471,1.036,4.939,2.07,7.41,3.105
			c0.757,0.697,1.513,1.395,2.269,2.091c0.696,1.921,1.395,3.843,2.092,5.764c-0.743,2.387-1.489,4.771-2.232,7.157
			c-4.961,6.655-9.917,13.312-14.877,19.968c-5.303-0.002-10.608-0.007-15.911-0.01c3.541-4.997,7.079-9.994,10.62-14.992
			c3.005-2.51,6.011-5.021,10.759-8.986C315.046,46.746,310.728,45.005,306.411,43.267z"/>
		<path fill="#781916" d="M460.205,19.375c-3.898,18.625-18.689,38.384,6.32,53.998c-1.061,0-2.121-0.002-3.181-0.002
			c-0.593-0.97-1.185-1.938-2.582-4.227c-1.496,2.318-2.107,3.271-2.724,4.223c-3.888-0.002-7.774-0.004-11.666-0.006
			c-1.335-5.916-2.672-11.833-4.219-18.683c0.714-5.798,1.421-11.558,2.126-17.317c1.737,1.434,3.472,2.868,7.42,6.129
			c0.009-9.654,0.017-16.888,0.023-24.12C454.549,19.372,457.375,19.374,460.205,19.375z"/>
		<path fill="#7E1B17" d="M444.28,37.361c-0.705,5.76-1.413,11.52-2.126,17.317c1.547,6.85,2.882,12.767,4.216,18.683
			c-9.898-0.006-19.795-0.012-29.693-0.018c0.334-1.004,0.671-2.006,1.009-3.01c0.716,0,1.436,0.004,2.148,0.004
			c7.092-11.658,14.178-23.316,21.267-34.977C442.163,36.028,443.221,36.694,444.28,37.361z"/>
		<path fill="#6C1713" d="M478.204,64.378c-5.1-3.33-10.196-6.66-14.624-9.553c1.23-4.222,1.735-5.951,2.237-7.683
			c-1.727-0.394-3.455-0.784-5.184-1.177c1.98-8.862,3.958-17.726,5.934-26.589c1.058,0,2.123,0.001,3.179,0.001
			c2.079,5.016,4.156,10.032,6.236,15.047c0.025,2.318,0.051,4.636,0.076,6.953c0.707,6,1.41,12.002,2.115,18.004
			C478.188,61.05,478.194,62.714,478.204,64.378z"/>
		<path fill="#721814" d="M417.685,70.333c-0.337,1.004-0.672,2.006-1.009,3.01c-4.951-0.004-9.899-0.006-14.851-0.01
			c-0.689-8.668-1.381-17.338-2.07-26.008c-0.698-0.672-1.397-1.343-2.093-2.013c1.39-3.99,2.774-7.98,4.161-11.97
			c0.368,0.997,0.732,1.995,1.097,2.992c5.637,7,11.275,14,16.908,21C419.116,61.667,418.401,66,417.685,70.333z"/>
		<path fill="#94201C" d="M303.202,35.215c-1.069,0.013-2.14,0.027-3.21,0.04c-1.8-0.286-3.601-0.572-5.4-0.859
			c-0.996-0.384-1.992-0.768-2.987-1.15l-0.303,0.088c0.014-0.998,0.029-1.997,0.047-2.996c-0.621-0.711-1.24-1.422-1.861-2.133
			c-0.048-0.298-0.104-0.595-0.159-0.891c-0.587-0.76-1.173-1.52-1.761-2.28c-0.788-1.919-1.579-3.839-2.369-5.759
			c9.898,0.006,19.8,0.011,29.698,0.017c-1.067,4.329-2.135,8.657-3.202,12.986c-1.408,0.005-2.82,0.01-4.228,0.016
			c-0.713-0.003-1.418-0.006-2.126-0.009C304.625,33.261,303.914,34.238,303.202,35.215z"/>
		<path fill="#AC2522" d="M52.98,30.051c-1.093-2.633-2.188-5.266-3.284-7.897c0.013-1.005,0.025-2.01,0.037-3.015
			c7.425,0.004,14.849,0.009,22.273,0.013c-0.305,1.688-0.608,3.375-0.912,5.063c0.343,2.63,0.686,5.26,1.028,7.89
			c-0.298,0.573-0.597,1.146-0.983,1.89c0.646,0.469,1.175,0.85,1.701,1.232c0.056,1.657,0.112,3.315,0.168,4.972
			c-0.73,2.665-1.461,5.33-2.192,7.995c-4.563-6.687-9.128-13.374-13.884-20.345C55.618,28.581,54.3,29.315,52.98,30.051z"/>
		<path fill="#681611" d="M402.92,36.337c-0.364-0.997-0.73-1.995-1.097-2.992c1.073-4.667,2.15-9.334,3.225-14.001
			c0.354,0,0.71,0,1.058,0c5.308,1.999,10.611,3.997,15.919,5.996c0.373,4.032,0.748,8.063,1.121,12.094
			c-0.733,1.305-1.468,2.612-2.202,3.918C414.941,39.681,408.93,38.008,402.92,36.337z"/>
		<path fill="#A72421" d="M97.462,19.167c0.278,5.225,0.559,10.451,1.1,20.606c-0.212,0.096-4.868,2.226-9.526,4.356
			c-2.502-2.656-5.004-5.312-7.506-7.968c0.344-1.679,0.687-3.357,1.029-5.035c-0.034-1.332-0.067-2.663-0.101-3.994
			c0.026-0.671,0.052-1.341,0.078-2.01c0.733-1.988,1.466-3.976,2.199-5.963C88.978,19.162,93.221,19.164,97.462,19.167z"/>
		<path fill="#8F1F1B" d="M330.793,53.318c0.742-2.386,1.486-4.771,2.229-7.156c1.422,0.637,2.846,1.271,4.271,1.906
			c2.958,5.232,5.914,10.469,8.504,15.055c-2.496,3.879-4.522,7.027-6.549,10.176c-4.244-0.002-8.485-0.004-12.729-0.006
			C327.943,66.634,329.369,59.975,330.793,53.318z"/>
		<path fill="#791A16" d="M374.266,59.326c3.886-5.332,7.773-10.664,11.662-15.998c2.077,2.386,4.153,4.773,6.524,7.496
			c-0.728,7.127-1.511,14.815-2.295,22.504c-4.948-0.002-9.898-0.004-14.847-0.008c0.021-0.683,0.038-1.365,0.059-2.048
			c3.383-5.838,6.763-11.676,10.144-17.513c-1.369-0.779-2.741-1.557-4.112-2.336C379.022,54.057,376.642,56.692,374.266,59.326z"/>
		<path fill="#94201C" d="M135.625,43.188c-2.178,2.71-4.354,5.419-7.305,9.092c-1.992-1.358-4.001-2.731-6.421-4.384
			c2.306-1.982,3.583-3.081,5.357-4.605c-1.054-3.241-2.173-6.68-3.291-10.119c1.765,0.363,3.529,0.727,5.293,1.091
			c1.531,0.716,3.063,1.433,4.266,1.996c1.921-6.185,3.614-11.626,5.305-17.068c3.889,0.002,7.777,0.005,11.667,0.007
			C145.538,27.194,140.583,35.191,135.625,43.188z"/>
		<path fill="#A72421" d="M85.802,52.126c1.848,3.311,3.698,6.621,5.907,10.576c-0.183,2.937-0.417,6.693-0.653,10.451
			c-4.95-0.003-9.899-0.006-14.849-0.009c-0.347-0.998-0.695-1.996-1.042-2.993c0.007-0.674,0.013-1.347,0.02-2.021
			c2.458-7.659,4.915-15.32,7.372-22.981c0.668,0.36,1.338,0.722,2.008,1.082c0.476,1.282,0.95,2.563,1.424,3.847
			C85.927,50.761,85.864,51.444,85.802,52.126z"/>
		<path fill="#57120E" d="M515.338,44.404c-6.004-8.335-12.007-16.672-18.01-25.007c3.889,0.002,7.778,0.004,11.667,0.007
			c2.118,2.001,4.239,4.002,6.357,6.003C515.348,31.738,515.343,38.071,515.338,44.404z"/>
		<path fill="#6C1713" d="M244.85,73.246c-0.495-2.563-0.99-5.129-1.375-7.119c-5.25,1.029-8.445,1.656-20.646,4.047
			c12.798-6.709,17.405-9.123,22.012-11.535c0.37,1.392,0.737,2.781,1.107,4.175c4.589-0.521,9.176-1.038,13.767-1.558
			c1.409,4,2.819,8,4.229,12C257.579,73.251,251.213,73.25,244.85,73.246z"/>
		<path fill="#851C19" d="M339.249,73.298c2.026-3.148,4.053-6.297,6.549-10.178c-2.59-4.586-5.546-9.82-8.506-15.054
			c1.004,0.425,2.006,0.847,3.006,1.269c2.481,0.99,4.962,1.979,7.442,2.971c0.407-0.012,0.812-0.021,1.219-0.034
			c1.335,0.709,2.672,1.417,4.009,2.125c-0.317,1.636-0.637,3.269-0.954,4.903c2.116,3.994,4.23,7.988,6.344,11.982
			c-0.005,0.676-0.011,1.352-0.021,2.025C351.976,73.306,345.612,73.302,339.249,73.298z"/>
		<path fill="#851C19" d="M390.158,73.328c0.784-7.688,1.567-15.377,2.295-22.504c-2.371-2.723-4.447-5.11-6.524-7.496
			c0-0.668,0.002-1.335,0.002-2.002c1.072-0.024,2.145-0.046,3.216-0.069c1.412,0.699,2.825,1.399,4.232,2.098
			c1.428,0.653,2.856,1.306,4.284,1.96c0.697,0.67,1.396,1.341,2.09,2.013c-1.429,8.668-2.86,17.336-4.289,26.004
			C393.695,73.332,391.926,73.33,390.158,73.328z"/>
		<path fill="#821C18" d="M330.793,53.318c-1.425,6.657-2.851,13.316-4.273,19.975c-3.535-0.002-7.071-0.004-10.606-0.006
			C320.874,66.628,325.833,59.973,330.793,53.318z"/>
		<path fill="#791A16" d="M263.943,73.255c-1.409-4-2.819-8.002-4.229-12c-0.009-0.662-0.019-1.323-0.025-1.984
			c6.706,0.654,13.412,1.309,20.12,1.963c-1.048,4.01-2.09,8.02-3.14,12.029C272.426,73.259,268.184,73.257,263.943,73.255z"/>
		<path fill="#801B17" d="M133.381,58.228c0.373-2.038,0.746-4.076,1.118-6.116c4.256,7.025,8.516,14.052,12.771,21.076
			c-4.951-0.003-9.899-0.006-14.849-0.008C132.741,68.196,133.062,63.21,133.381,58.228z"/>
		<path fill="#781916" d="M422.03,25.34c-5.308-1.999-10.611-3.997-15.919-5.996c13.083,0.008,26.165,0.015,39.244,0.023
			c-1.063,1.999-2.13,3.999-3.193,5.998C435.451,25.356,428.74,25.349,422.03,25.34z"/>
		<path fill="#A52420" d="M133.381,58.228c-0.32,4.982-0.64,9.968-0.96,14.952c-4.596-0.003-9.194-0.007-13.789-0.009
			c2.363-5.489,4.726-10.979,7.207-16.742C128.745,57.123,131.063,57.675,133.381,58.228z"/>
		<path fill="#9E221E" d="M0.912,60.106c5.659,1.66,11.319,3.319,16.979,4.979c4.942,2.68,9.886,5.356,14.83,8.037
			c-6.718-0.004-13.435-0.008-20.152-0.014c-3.887-2.669-7.774-5.337-11.661-8.006C0.907,63.438,0.91,61.773,0.912,60.106z"/>
		<path fill="#801B17" d="M442.162,25.365c1.063-1.999,2.129-3.999,3.193-5.998c2.122,0.001,4.243,0.002,6.366,0.003
			c-0.008,7.232-0.013,14.466-0.021,24.12c-3.951-3.262-5.685-4.696-7.42-6.129c-1.059-0.667-2.117-1.333-3.178-1.999
			C441.455,32.03,441.807,28.697,442.162,25.365z"/>
		<path fill="#99211D" d="M138.828,19.19c-1.692,5.442-3.383,10.884-5.306,17.068c-1.203-0.563-2.734-1.28-4.265-1.997
			c-1.76-5.027-3.519-10.053-5.278-15.08C128.929,19.185,133.879,19.188,138.828,19.19z"/>
		<path fill="#A52420" d="M123.979,19.182c1.759,5.027,3.517,10.053,5.278,15.08c-1.764-0.363-3.529-0.727-5.293-1.09
			c-0.708-0.003-1.416-0.005-2.122-0.008c-4.236-4.664-8.474-9.327-12.71-13.991C114.081,19.176,119.028,19.179,123.979,19.182z"/>
		<path fill="#791A16" d="M395.463,73.332c1.429-8.668,2.86-17.336,4.289-26.004c0.692,8.67,1.384,17.338,2.073,26.008
			C399.705,73.333,397.583,73.333,395.463,73.332z"/>
		<path fill="#801B17" d="M397.663,45.314c-1.428-0.654-2.856-1.307-4.284-1.96c2.827-8.004,5.66-16.008,8.491-24.013
			c1.058,0.001,2.12,0.001,3.179,0.002c-1.074,4.667-2.151,9.334-3.225,14.001C400.435,37.334,399.049,41.325,397.663,45.314z"/>
		<path fill="#651511" d="M479.253,73.378c0.002-2,0.005-4,0.005-5.998c3.059-0.674,6.115-1.352,10.099-2.229
			c1.807,2.563,3.806,5.397,5.807,8.235C489.86,73.384,484.557,73.382,479.253,73.378z"/>
		<path fill="#651511" d="M475.987,34.427c-2.08-5.015-4.157-10.031-6.236-15.047c1.061,0.001,2.12,0.001,3.184,0.002
			C473.951,24.397,474.969,29.413,475.987,34.427z"/>
		<path fill="#8F1F1B" d="M324.443,19.297c2.473,0.001,4.948,0.003,7.424,0.004c0.34,2.731,0.677,5.463,1.015,8.193
			c0.017,0.855,0.03,1.712,0.048,2.57c-0.712,0.069-1.424,0.135-2.14,0.202c-2.115-2.655-4.237-5.312-6.354-7.967
			C324.438,21.299,324.44,20.298,324.443,19.297z"/>
		<path fill="#801B17" d="M218.36,64.22c1.051,3.004,2.103,6.008,3.156,9.011c-2.828-0.002-5.656-0.003-8.485-0.005
			C214.807,70.224,216.583,67.222,218.36,64.22z"/>
		<path fill="#8F1F1B" d="M311.694,32.277c1.067-4.329,2.135-8.657,3.202-12.986c1.413,0.001,2.828,0.001,4.241,0.002
			c0.71,1,1.42,2,2.128,3.001c-0.011,1.007-0.021,2.014-0.032,3.021c-1.411,1.994-2.826,3.988-4.236,5.981
			C315.228,31.624,313.459,31.951,311.694,32.277z"/>
		<path fill="#821C18" d="M358.338,73.31c0.008-0.676,0.014-1.352,0.019-2.025c2.831-1.339,5.66-2.677,8.488-4.016
			c0.7,0.007,1.399,0.014,2.098,0.02c0.692,0.021,1.384,0.045,2.072,0.065c0.372,1.987,0.742,3.976,1.113,5.964
			C367.533,73.315,362.935,73.312,358.338,73.31z"/>
		<path fill="#B72824" d="M0.906,65.105c3.887,2.669,7.774,5.337,11.661,8.006C8.681,70.442,4.793,67.774,0.906,65.105z"/>
		<path fill="#B72824" d="M75.185,68.132c-0.007,0.675-0.013,1.348-0.02,2.021c-0.36,0.997-0.72,1.995-1.08,2.992
			c-1.414-0.001-2.829-0.001-4.243-0.002c-0.71-2.647-1.421-5.296-2.13-7.944c0.365-1.015,0.729-2.025,1.093-3.039
			C70.932,64.15,73.06,66.142,75.185,68.132z"/>
		<path fill="#791A16" d="M82.536,25.122c-0.026,0.669-0.052,1.339-0.077,2.01c-1.019,0.712-2.039,1.424-3.057,2.138
			c-0.701-1.374-1.402-2.746-2.105-4.118c-0.702-2-1.405-3.999-2.109-5.999c2.121,0.001,4.244,0.002,6.364,0.004
			C81.88,21.146,82.209,23.134,82.536,25.122z"/>
		<path fill="#761915" d="M332.881,27.496c-0.338-2.731-0.673-5.463-1.012-8.195c1.768,0.001,3.532,0.002,5.3,0.003
			c-0.016,1.339-0.03,2.678-0.051,4.016C335.708,24.713,334.295,26.104,332.881,27.496z"/>
		<path fill="#6C1713" d="M200.344,22.224c-3.888-1.002-7.776-2.003-11.666-3.005c3.889,0.002,7.778,0.004,11.667,0.007
			c0.006,0.66,0.011,1.319,0.018,1.979C200.357,21.544,200.351,21.884,200.344,22.224z"/>
		<path fill="#6D1713" d="M515.353,25.406c-2.118-2.001-4.239-4.002-6.357-6.003C511.114,21.404,513.235,23.405,515.353,25.406z"/>
		<path fill="#651511" d="M200.344,22.224c0.006-0.34,0.013-0.68,0.02-1.02c1.055-0.658,2.11-1.318,3.164-1.977
			c1.062,0,2.122,0.001,3.183,0.001c1.049,1.685,2.101,3.369,3.15,5.054C206.688,23.597,203.517,22.911,200.344,22.224z"/>
		<path fill="#94201C" d="M75.188,19.153c0.704,2,1.406,3.999,2.109,5.999c-2.067-0.313-4.134-0.625-6.202-0.937
			c0.304-1.688,0.607-3.375,0.913-5.063C73.067,19.152,74.129,19.153,75.188,19.153z"/>
		<path fill="#721814" d="M372.128,73.318c-0.371-1.988-0.741-3.977-1.113-5.964c1.082-0.345,2.163-0.69,3.243-1.035
			c0.372,1.649,0.74,3.302,1.111,4.953c-0.022,0.683-0.038,1.365-0.062,2.048C374.25,73.319,373.189,73.318,372.128,73.318z"/>
		<path fill="#821C18" d="M346.715,19.31c-1.395,1.972-2.787,3.944-4.18,5.917c-0.72-0.354-1.44-0.708-2.16-1.063
			c0.005-0.271,0.005-0.541,0.003-0.812c0.699-1.348,1.396-2.697,2.096-4.045C343.887,19.308,345.302,19.309,346.715,19.31z"/>
		<path fill="#94201C" d="M342.474,19.307c-0.699,1.348-1.399,2.697-2.096,4.045c-1.086-0.011-2.172-0.022-3.26-0.032
			c0.019-1.338,0.035-2.677,0.051-4.016C338.937,19.305,340.706,19.306,342.474,19.307z"/>
		<path fill="#851C19" d="M82.536,25.122c-0.328-1.988-0.657-3.977-0.983-5.965c1.06,0,2.121,0.001,3.182,0.002
			C84.002,21.146,83.271,23.134,82.536,25.122z"/>
		<path fill="#821C18" d="M355.202,19.314c-0.976,0.834-1.95,1.67-4.726,4.042c-0.634-1.569-1.138-2.807-1.64-4.045
			C350.957,19.312,353.081,19.313,355.202,19.314z"/>
		<path fill="#8A1D1A" d="M321.265,22.295c-0.708-1-1.418-2-2.128-3.001c1.769,0.001,3.536,0.002,5.306,0.003
			c-0.003,1.001-0.005,2.002-0.005,3.002C323.379,22.298,322.323,22.296,321.265,22.295z"/>
		<path fill="#791A16" d="M458.039,73.367c0.616-0.951,1.228-1.904,2.721-4.223c1.402,2.288,1.994,3.257,2.585,4.227
			C461.576,73.371,459.808,73.369,458.039,73.367z"/>
		<path fill="#5D130E" d="M203.527,19.228c-1.055,0.659-2.109,1.319-3.164,1.977c-0.006-0.66-0.012-1.319-0.018-1.979
			C201.406,19.226,202.467,19.227,203.527,19.228z"/>
		<path fill="#AC2522" d="M74.085,73.146c0.36-0.997,0.72-1.995,1.08-2.992c0.347,0.997,0.694,1.995,1.042,2.993
			C75.5,73.147,74.792,73.147,74.085,73.146z"/>
		<path fill="#C62C28" d="M55.909,69.257c-14.645-4.557-25.237-7.853-35.831-11.146c0.271-1.195,0.543-2.395,0.814-3.592
			c9.504,1.619,19.085,2.941,28.449,5.105C51.212,60.057,52.248,63.696,55.909,69.257z"/>
		<path fill="#8A1D1A" d="M337.119,23.32c1.088,0.01,2.174,0.021,3.26,0.032c0.002,0.271,0.002,0.541-0.003,0.813
			c0.396,1.944,0.789,3.888,1.243,6.133c2.16,0.001,3.642,0.002,5.125,0.003c0.737,7.324,1.476,14.647,2.213,21.97
			c-0.405,0.012-0.812,0.021-1.217,0.034c-0.601-0.681-1.202-1.36-1.798-2.041c-3.616-4.339-7.223-8.679-10.838-13.018
			c-0.722-2.395-1.447-4.789-2.175-7.185c-0.016-0.856-0.028-1.712-0.048-2.568C334.295,26.104,335.708,24.713,337.119,23.32z"/>
		<path fill="#681611" d="M384.916,36.268c-2.452-3.568-4.905-7.136-7.357-10.704c3.457-0.795,6.916-1.588,10.371-2.383
			c0.393,4.74,0.783,9.481,1.179,14.222C387.71,37.023,386.313,36.646,384.916,36.268z"/>
		<path fill="#721814" d="M368.943,67.289c-0.698-0.006-1.397-0.013-2.098-0.02c-4.942-2.654-9.888-5.313-14.832-7.969
			c0.32-1.635,0.637-3.271,0.957-4.903c0.573-1.308,1.154-2.616,1.973-4.472c5.355,2.539,10.155,4.814,15.724,7.455
			C370.112,60.562,369.526,63.923,368.943,67.289z"/>
		<path fill="#821C18" d="M375.37,71.272c-0.368-1.651-0.739-3.304-1.108-4.953c0.002-2.332,0.005-4.661,0.007-6.993
			c2.379-2.634,4.754-5.269,7.133-7.902c1.371,0.779,2.743,1.559,4.112,2.336C382.131,59.596,378.752,65.434,375.37,71.272z"/>
		<path fill="#94201C" d="M346.744,30.302c-1.483-0.001-2.965-0.002-5.125-0.003c-0.454-2.245-0.848-4.188-1.243-6.133
			c0.72,0.353,1.44,0.707,2.16,1.061C343.938,26.917,345.341,28.609,346.744,30.302z"/>
		<path fill="#791A16" d="M384.916,36.268c1.397,0.378,2.795,0.755,4.192,1.134c0.011,1.285,0.025,2.57,0.038,3.854
			c-1.071,0.023-2.144,0.045-3.218,0.069C385.594,39.639,385.255,37.954,384.916,36.268z"/>
		<path fill="#6D1713" d="M215.206,25.204c7.783,0.362,15.565,0.725,23.346,1.085c0.872,2.833,1.743,5.667,2.613,8.5
			c1.723-1.382,3.445-2.765,5.169-4.148c1.627,5.208,3.253,10.415,4.879,15.622c-4.559-3.049-9.118-6.099-12.343-8.255
			c-7.564,1.011-13.669,1.827-21.455,2.868c0.319,6.932,0.649,14.143,0.979,21.354c-1.773-12.327-3.545-24.653-5.319-36.979
			c0,0.001-0.015-0.067-0.015-0.067C213.775,25.191,214.491,25.198,215.206,25.204z"/>
		<path fill="#8F1F1B" d="M183.347,38.227c0.038-2.361,0.073-4.722,0.11-7.084c3.505,8.688,7.009,17.378,10.514,26.067
			C190.429,50.882,186.889,44.555,183.347,38.227z"/>
		<path fill="#851C19" d="M198.253,71.196c-0.712-1.999-1.425-3.995-2.137-5.993C196.828,67.201,197.541,69.197,198.253,71.196z"/>
		<path fill="#761915" d="M251.215,46.263c-1.626-5.208-3.252-10.415-4.88-15.622c-1.723,1.383-3.446,2.766-5.168,4.148
			c-0.872-2.833-1.743-5.666-2.613-8.5c9.901,0.98,19.804,1.959,29.704,2.938c1.764,4.009,3.526,8.015,5.291,12.022
			c-2.954-2.028-5.906-4.056-8.862-6.083c-2.955,2.849-5.911,5.697-8.867,8.545c8.698,4.522,17.402,9.044,26.102,13.565l0.19,0.199
			l-0.117-0.269c-0.012-0.967-0.025-1.934-0.037-2.897c0.653-0.048,1.306-0.095,1.96-0.142c0.086,0.722,0.17,1.441,0.256,2.164
			c0.079,1.689,0.157,3.383,0.235,5.071c-1.533-0.058-3.065-0.114-4.6-0.173c-6.708-0.652-13.414-1.311-20.12-1.963
			C256.866,54.935,254.04,50.599,251.215,46.263z"/>
		<path fill="#851C19" d="M85.989,50.08c-0.475-1.281-0.948-2.563-1.423-3.847c-0.637-0.703-1.276-1.405-1.914-2.107
			c-0.766-1.276-1.534-2.551-2.299-3.827c-0.339-1.332-0.678-2.663-1.016-3.995l0.091-0.175c0.7,0.01,1.402,0.021,2.102,0.033
			c2.502,2.656,5.004,5.312,7.506,7.968c-0.018,2.007-0.034,4.015-0.052,6.024C87.987,50.126,86.988,50.104,85.989,50.08z"/>
		<path fill="#8F1F1B" d="M85.989,50.08c0.999,0.024,1.998,0.049,2.996,0.073c0.958,0.702,1.914,1.405,9.657,7.093
			c-9.791-3.902-11.316-4.51-12.841-5.117C85.864,51.444,85.927,50.761,85.989,50.08z"/>
		<path fill="#6D1713" d="M485.708,25.413c8.748,9.842,17.5,19.682,26.247,29.523c-2.074,1.586-4.151,3.172-6.229,4.758
			c-4.567-4.771-9.131-9.541-13.695-14.312c-0.014-0.66-0.025-1.32-0.037-1.979c-0.693-0.675-1.388-1.35-2.084-2.023
			c-0.004-0.664-0.012-1.327-0.018-1.991c-1.404-3.67-2.799-7.339-4.204-11.01C485.698,27.391,485.703,26.401,485.708,25.413z"/>
		<path fill="#651511" d="M478.178,59.386c-0.705-6.002-1.408-12.004-2.115-18.006C476.768,47.382,477.473,53.384,478.178,59.386z"
			/>
		<path fill="#651511" d="M485.693,28.379c1.4,3.67,2.8,7.339,4.199,11.01C488.493,35.718,487.093,32.049,485.693,28.379z"/>
		<path fill="#651511" d="M489.91,41.38c0.696,0.674,1.391,1.348,2.084,2.023C491.3,42.728,490.606,42.054,489.91,41.38z"/>
		<path fill="#681611" d="M283.917,54.169c-0.654,0.047-1.307,0.094-1.96,0.141c-2.803-4.354-5.605-8.706-8.408-13.06
			c-1.765-4.007-3.527-8.014-5.291-12.022c7.681,1.369,15.367,2.737,23.045,4.106c-0.002,0,0.301-0.088,0.301-0.088
			c-0.694,2.035-1.392,4.069-2.082,6.104C287.653,44.289,285.785,49.23,283.917,54.169z"/>
		<path fill="#821C18" d="M306.411,43.267c4.317,1.738,8.636,3.479,14.972,6.029c-4.746,3.967-7.752,6.478-10.756,8.986
			C309.22,53.278,307.814,48.273,306.411,43.267z"/>
		<path fill="#9E221E" d="M284.409,61.408c-0.078-1.691-0.156-3.383-0.235-5.072c5.108,3.756,10.217,7.512,15.326,11.267
			c-0.959,1.108-1.914,2.222-2.871,3.332C292.555,67.757,288.482,64.583,284.409,61.408z"/>
		<path fill="#791A16" d="M289.522,39.35c0.69-2.035,1.388-4.069,2.082-6.104c0.995,0.382,1.991,0.766,2.987,1.15
			C292.899,36.047,291.209,37.698,289.522,39.35z"/>
		<path fill="#721814" d="M289.487,28.205c0.621,0.711,1.24,1.422,1.861,2.133C290.725,29.627,290.108,28.916,289.487,28.205z"/>
		<path fill="#651511" d="M215.206,25.204c-0.715-0.006-1.431-0.013-2.146-0.02C213.775,25.19,214.492,25.198,215.206,25.204z"/>
		<path fill="#721814" d="M287.567,25.034c0.588,0.76,1.174,1.52,1.761,2.28C288.741,26.554,288.153,25.794,287.567,25.034z"/>
		<path fill="#B72824" d="M52.98,30.051c1.32-0.736,2.638-1.47,3.952-2.202c4.756,6.971,9.321,13.658,13.885,20.345
			c-0.333,1.638-0.664,3.274-0.998,4.911c-0.349-0.02-0.699-0.027-1.049-0.025c-0.665,0.379-1.33,0.76-1.996,1.139
			c-0.741,0.977-1.483,1.949-2.225,2.927C60.695,48.112,56.837,39.081,52.98,30.051z"/>
		<path fill="#9E221E" d="M68.771,53.08c0.349-0.002,0.7,0.006,1.049,0.026l0.037,0.04c-0.351,3.005-0.702,6.009-1.053,9.014
			c-0.365,1.014-0.729,2.025-1.094,3.039c-1.054-2.686-2.108-5.369-3.161-8.056c0.742-0.976,1.484-1.95,2.225-2.927
			C67.44,53.837,68.105,53.458,68.771,53.08z"/>
		<path fill="#851C19" d="M321.265,22.295c1.058,0.001,2.114,0.003,3.174,0.004c2.115,2.655,4.236,5.312,6.354,7.967
			c0.304,2.328,0.609,4.655,0.911,6.982c-0.012,0.34-0.024,0.679-0.033,1.018c-1.002,0.014-2.004,0.027-3.008,0.04
			c-2.471-1.035-4.941-2.07-7.409-3.104c-0.008-3.294-0.016-6.59-0.023-9.885C321.245,24.309,321.254,23.302,321.265,22.295z"/>
		<path fill="#5D130E" d="M331.668,38.266c0.013-0.339,0.023-0.678,0.035-1.017c1.134,0,2.269,0,3.4-0.002
			c3.612,4.339,7.222,8.678,10.833,13.017c-1.882-0.31-3.761-0.618-5.64-0.929c-1-0.422-2.002-0.844-3.006-1.269
			c-1.423-0.637-2.847-1.271-4.269-1.905c-0.697-1.924-1.396-3.846-2.091-5.768C331.176,39.685,331.425,38.975,331.668,38.266z"/>
		<path fill="#8A1D1A" d="M311.694,32.277c1.766-0.326,3.534-0.653,5.303-0.98c0.389,1.269,0.781,2.537,1.17,3.804
			c-4.99,0.038-9.976,0.076-14.967,0.114c0.711-0.977,1.424-1.954,2.139-2.931c0.709,0.003,1.415,0.006,2.125,0.009
			C308.874,32.288,310.286,32.282,311.694,32.277z"/>
		<path fill="#98211D" d="M318.167,35.101c-0.389-1.268-0.781-2.535-1.17-3.804c1.41-1.993,2.825-3.987,4.236-5.981
			c0.005,3.295,0.015,6.591,0.021,9.885C320.223,35.167,319.196,35.134,318.167,35.101z"/>
		<path fill="#801B17" d="M331.668,38.266c-0.243,0.709-0.492,1.419-0.737,2.13c-0.756-0.695-1.512-1.393-2.269-2.09
			C329.666,38.293,330.668,38.28,331.668,38.266z"/>
		<path fill="#6D1713" d="M442.162,25.365c-0.354,3.333-0.709,6.665-1.06,9.998c-7.089,11.659-14.175,23.317-21.264,34.977
			c2.851-9.332,5.701-18.66,8.55-27.99c-1.747-1.638-3.492-3.275-5.238-4.913c-0.372-4.032-0.749-8.063-1.122-12.095
			C428.74,25.349,435.451,25.356,442.162,25.365z"/>
		<path fill="#821C18" d="M428.388,42.346c-2.849,9.331-5.699,18.661-8.55,27.991c-0.717,0-1.434-0.004-2.15-0.004
			c0.713-4.334,1.428-8.666,2.141-12.998c0.396-3.651,0.789-7.306,1.182-10.957C423.47,45.035,425.93,43.691,428.388,42.346z"/>
		<path fill="#6C1713" d="M421.01,46.378c-0.393,3.651-0.786,7.306-1.182,10.957c-5.633-7-11.271-14-16.908-21
			c6.013,1.671,12.022,3.344,18.027,5.015C420.969,43.027,420.992,44.704,421.01,46.378z"/>
		<path fill="#8F1F1B" d="M307.466,32.293c-0.711-0.003-1.418-0.006-2.126-0.009C306.048,32.288,306.755,32.29,307.466,32.293z"/>
		<path fill="#8A1D1A" d="M71.095,24.215c2.068,0.312,4.135,0.625,6.202,0.937c0.703,1.373,1.403,2.745,2.105,4.117
			c0.017,0.635,0.033,1.271,0.05,1.908l-0.004-0.036c-0.018,0.654-0.038,1.309-0.057,1.962c0.014,1.009,0.026,2.017,0.039,3.026
			c0,0-0.091,0.175-0.09,0.173c-2.11,1.298-4.22,2.598-6.329,3.897c-0.056-1.657-0.112-3.315-0.167-4.972
			c-0.24-1.041-0.481-2.082-0.721-3.122C71.78,29.475,71.438,26.845,71.095,24.215z"/>
		<path fill="#9E221E" d="M73.01,40.199c2.11-1.3,4.22-2.599,6.329-3.897c0.337,1.334,0.676,2.665,1.016,3.996
			c-3.498,4.283-6.996,8.567-10.495,12.849l-0.038-0.04c0.333-1.639,0.665-3.275,0.998-4.912
			C71.547,45.529,72.279,42.864,73.01,40.199z"/>
		<path fill="#9E221E" d="M72.123,32.104c0.24,1.04,0.481,2.081,0.721,3.122c-0.529-0.382-1.056-0.763-1.703-1.232
			C71.526,33.25,71.825,32.677,72.123,32.104z"/>
		<path fill="#781916" d="M421.01,46.378c-0.019-1.674-0.041-3.353-0.063-5.027c0.735-1.306,1.468-2.613,2.203-3.918
			c1.745,1.639,3.49,3.276,5.237,4.914C425.93,43.691,423.47,45.035,421.01,46.378z"/>
		<path fill="#94201C" d="M79.428,36.128c-0.013-1.009-0.024-2.017-0.038-3.025c0.02-0.654,0.038-1.309,0.057-1.963l0.003,0.036
			c1.036-0.017,2.072-0.034,3.109-0.051c-0.343,1.678-0.687,3.356-1.029,5.035C80.831,36.15,80.128,36.139,79.428,36.128z"/>
		<path fill="#851C19" d="M82.56,31.126c-1.036,0.017-2.073,0.034-3.109,0.051c-0.015-0.636-0.033-1.273-0.049-1.908
			c1.019-0.712,2.038-1.424,3.057-2.137C82.492,28.463,82.525,29.794,82.56,31.126z"/>
		<path fill="#AC2522" d="M69.86,53.146c3.499-4.281,6.997-8.566,10.495-12.849c0.765,1.277,1.533,2.552,2.297,3.828
			c-0.032,0.342-0.063,0.684-0.094,1.025c-2.458,7.661-4.915,15.322-7.372,22.982c-2.127-1.991-4.254-3.983-6.38-5.975
			C69.157,59.155,69.508,56.151,69.86,53.146z"/>
		<path fill="#98211D" d="M82.559,45.151c0.03-0.342,0.062-0.684,0.094-1.025c0.639,0.702,1.277,1.405,1.915,2.107
			C83.896,45.873,83.227,45.511,82.559,45.151z"/>
		<path fill="#791A16" d="M352.013,59.3c4.943,2.656,9.89,5.314,14.83,7.969c-2.829,1.339-5.657,2.677-8.486,4.016
			C356.244,67.291,354.129,63.294,352.013,59.3z"/>
		<path fill="#721814" d="M340.297,49.335c1.879,0.311,3.758,0.619,5.64,0.929c0.601,0.682,1.202,1.362,1.803,2.042
			C345.259,51.317,342.779,50.328,340.297,49.335z"/>
		<path fill="#6C1713" d="M335.104,37.247c-1.132,0.001-2.267,0.002-3.4,0.002c-0.304-2.328-0.611-4.655-0.913-6.983
			c0.715-0.067,1.428-0.133,2.139-0.202C333.657,32.458,334.379,34.853,335.104,37.247z"/>
		<path fill="#801B17" d="M273.549,41.25c2.803,4.354,5.605,8.707,8.408,13.06c0.012,0.967,0.025,1.934,0.037,2.898l-0.073,0.068
			c-8.699-4.521-17.403-9.044-26.104-13.566c2.955-2.849,5.91-5.697,8.868-8.545C267.643,37.195,270.595,39.223,273.549,41.25z"/>
		<polygon fill="#8A1D1A" points="281.995,57.208 282.112,57.477 281.921,57.278 		"/>
		<path fill="#AC2522" d="M68.771,53.08c-0.666,0.379-1.332,0.76-1.997,1.139C67.441,53.837,68.106,53.458,68.771,53.08z"/>
		<path fill="#791A16" d="M79.447,31.141c-0.019,0.654-0.037,1.309-0.057,1.963C79.41,32.449,79.428,31.795,79.447,31.141z"/>
	</g>
</g>
<text transform="matrix(1 0 0 1 10.7632 38.7964)"><tspan x="0" y="0" fill="#FFFFFF" font-family="'Verdana'" font-size="21">Between 14,500 and 17,500 are trafficked into </tspan><tspan x="0" y="25.2" fill="#FFFFFF" font-family="'Verdana'" font-size="21">the U.S each year.</tspan></text>
</svg>
