<?xml version="1.0" encoding="utf-8"?>
<!-- Generator: Adobe Illustrator 16.0.0, SVG Export Plug-In . SVG Version: 6.00 Build 0)  -->
<!DOCTYPE svg PUBLIC "-//W3C//DTD SVG 1.1//EN" "http://www.w3.org/Graphics/SVG/1.1/DTD/svg11.dtd">
<svg version="1.1" id="Layer_1" xmlns="http://www.w3.org/2000/svg" xmlns:xlink="http://www.w3.org/1999/xlink" x="0px" y="0px"
	 width="466.731px" height="90.542px" viewBox="0 0 466.731 90.542" enable-background="new 0 0 466.731 90.542"
	 xml:space="preserve">
<g opacity="0.5">
	<g>
		<path fill="#BF2A26" d="M13.405,19.115c10.563,0.008,21.128,0.015,31.692,0.022c-0.011,1.005-0.023,2.01-0.034,3.015
			c-6.504,1.417-13.008,2.836-23.224,5.062c8.467,6.025,15.208,10.822,23.384,16.639c0,0.144-0.002,3.032-0.005,6.156
			c1.807,0.188,3.326,0.347,5.671,0.59c0.618,7.54,1.232,15.038,1.846,22.538c-7.683-0.006-15.366-0.012-23.047-0.017
			c-4.476-2.681-8.951-5.358-13.426-8.037c-1.147-12.152-2.293-24.303-3.757-39.831c4.627,1.555,2.875,0.966,0.896,0.302
			C13.401,23.322,13.402,21.219,13.405,19.115z M50.682,69.257c-3.314-5.563-4.251-9.2-5.945-9.634
			c-8.479-2.164-17.153-3.487-25.758-5.107c-0.246,1.197-0.492,2.396-0.738,3.592C27.833,61.404,37.425,64.699,50.682,69.257z"/>
		<path fill="#761915" d="M313.993,19.332c0.639,0,1.277,0.001,1.92,0.001c0.454,1.238,0.911,2.476,1.486,4.045
			c2.515-2.372,3.395-3.208,4.276-4.042c14.089,0.01,28.166,0.021,42.257,0.031c-2.562,8.004-5.13,16.009-7.69,24.012
			c-1.275-0.699-2.556-1.399-3.832-2.099c-0.012-1.284-0.021-2.569-0.032-3.854c-0.356-4.741-0.711-9.482-1.065-14.222
			c-3.132,0.795-6.261,1.588-9.39,2.382c2.221,3.568,4.439,7.136,6.656,10.705c0.308,1.686,0.614,3.371,0.92,5.058
			c-0.005,0.667-0.005,1.334-0.007,2.002c-3.518,5.333-7.038,10.665-10.56,15.996c-0.003,2.332-0.005,4.662-0.009,6.994
			c-0.978,0.348-1.954,0.69-2.935,1.036c-0.625-0.021-1.252-0.045-1.877-0.063c0.529-3.364,1.06-6.729,1.561-9.907
			c-5.046-2.645-9.387-4.918-14.234-7.456c-0.74,1.854-1.269,3.163-1.791,4.476c-1.21-0.709-2.419-1.419-3.628-2.128
			c-0.668-7.326-1.336-14.648-2.004-21.973c-1.269-1.692-2.536-3.384-3.805-5.076C311.466,23.276,312.728,21.303,313.993,19.332z"/>
		<path fill="#8A1D1A" d="M136.328,19.204c9.284,0.006,18.566,0.014,27.85,0.02c0.623,2.672,1.246,5.344,1.869,8.015
			c-6.601,2.014-13.2,4.028-22.049,6.728c-0.011,12.21-0.021,25.724-0.032,39.236c-3.521-0.002-7.042-0.005-10.563-0.009
			c-3.854-7.025-7.709-14.054-11.562-21.077c0.341-2.977,0.681-5.949,1.02-8.923C127.352,35.198,131.839,27.201,136.328,19.204z"/>
		<path fill="#791A16" d="M166.047,27.239c-0.623-2.671-1.247-5.343-1.869-8.015c2.241,0.001,4.481,0.002,6.723,0.004
			c3.52,1.002,7.041,2.003,10.56,3.006c2.873,0.687,5.744,1.373,8.618,2.06c0.969,0.323,1.939,0.646,2.911,0.968
			c1.604,12.327,3.208,24.652,4.814,36.98c-0.012,0.662-0.023,1.323-0.033,1.986c-1.609,3.002-3.217,6.003-4.827,9.007
			c-4.481-0.005-8.963-0.008-13.444-0.012c0.021-0.674,0.042-1.351,0.064-2.021c-0.646-2-1.289-3.996-1.932-5.994
			c-0.648-2.664-1.296-5.327-1.944-7.99c-3.172-8.688-6.345-17.38-9.515-26.069C166.13,29.848,166.089,28.544,166.047,27.239z"/>
		<path fill="#681611" d="M197.771,64.233c0.01-0.662,0.021-1.326,0.031-1.988c-0.298-7.213-0.598-14.424-0.884-21.354
			c7.049-1.041,12.577-1.855,19.426-2.866c2.92,2.156,7.048,5.207,11.176,8.254c2.559,4.339,5.113,8.675,7.673,13.011
			c0.008,0.66,0.016,1.321,0.022,1.982c-4.158,0.52-8.313,1.036-12.467,1.556c-0.335-1.393-0.67-2.783-1.002-4.176
			c-4.172,2.414-8.345,4.827-19.931,11.535c11.047-2.392,13.941-3.019,18.693-4.045c0.349,1.988,0.798,4.555,1.244,7.118
			c-7.042-0.008-14.084-0.012-21.127-0.016C199.674,70.241,198.723,67.237,197.771,64.233z"/>
		<path fill="#9E221E" d="M88.311,19.169c3.52,0.002,7.042,0.004,10.563,0.007c3.835,4.664,7.67,9.327,11.507,13.992
			c-5.808,8.687-11.616,17.374-18.452,27.594c-0.384-0.865,0.392,0.885,0.252,0.57c0.404,5.388,0.645,8.609,0.886,11.832
			c-3.521-0.002-7.042-0.006-10.564-0.009c0.212-3.758,0.427-7.519,0.593-10.451c-2.001-3.956-3.675-7.269-5.349-10.577
			c1.381,0.607,2.762,1.215,11.625,5.119c-7.011-5.689-7.876-6.392-8.743-7.094c0.017-2.01,0.033-4.02,0.048-6.023
			c4.218-2.13,8.434-4.26,8.625-4.355C88.816,29.62,88.563,24.395,88.311,19.169z"/>
		<path fill="#5A130F" d="M461.837,73.433c-4.478-0.004-8.96-0.006-13.442-0.011c-1.81-2.836-3.621-5.672-5.258-8.234
			c-3.606,0.876-6.376,1.555-9.145,2.229c-0.317-1.001-0.638-2.001-0.958-3.003c-0.006-1.663-0.013-3.328-0.021-4.992
			c-0.638-6.002-1.275-12.004-1.917-18.006c-0.022-2.317-0.045-4.635-0.068-6.953c-0.916-5.015-1.842-10.03-2.762-15.045
			c3.521,0.002,7.042,0.004,10.567,0.008c0.335,2.007,0.669,4.016,1.002,6.022c-0.006,0.989-0.01,1.978-0.015,2.966
			c1.267,3.67,2.532,7.339,3.801,11.011c0.005,0.664,0.011,1.327,0.019,1.991c0.632,0.674,1.26,1.348,1.888,2.023
			c0.011,0.659,0.021,1.319,0.032,1.979C450.986,54.754,456.412,64.095,461.837,73.433z"/>
		<path fill="#98211D" d="M175.688,57.221c0.647,2.663,1.296,5.327,1.942,7.99c0.645,1.998,1.288,3.996,1.934,5.994
			c-0.021,0.674-0.043,1.349-0.064,2.021c-6.724-0.004-13.446-0.009-20.169-0.017c-2.005-11.521-4.012-23.045-6.567-37.715
			c9.293,1.914,11.3,2.328,13.306,2.741C169.276,44.563,172.481,50.894,175.688,57.221z"/>
		<path fill="#8A1D1A" d="M271.692,73.296c-7.04-0.004-14.085-0.011-21.128-0.018c0.949-4.009,1.895-8.021,2.845-12.026
			c1.388,0.059,2.777,0.115,4.163,0.174c3.686,3.176,7.374,6.352,11.063,9.526c0.866-1.111,1.733-2.225,2.602-3.332
			c-4.625-3.758-9.251-7.513-13.879-11.269c-0.072-0.725-0.153-1.441-0.229-2.166c1.693-4.938,3.385-9.881,5.075-14.821
			c1.529-1.651,3.06-3.301,4.591-4.952c1.63,0.286,3.26,0.572,4.893,0.858c1.938,2.671,3.873,5.341,5.81,8.012
			c1.271,5.006,2.544,10.01,3.814,15.016C278.104,63.301,274.897,68.299,271.692,73.296z"/>
		<path fill="#99211D" d="M93.068,73.166c-0.241-3.224-0.482-6.444-0.886-11.832c0.141,0.313-0.637-1.437-0.252-0.57
			c6.836-10.222,12.645-18.909,18.452-27.594c0.641,0.002,1.282,0.005,1.922,0.008c1.012,3.439,2.024,6.878,2.979,10.12
			c-1.605,1.523-2.761,2.623-4.851,4.604c2.19,1.65,4.009,3.022,5.813,4.385c2.672-3.673,4.644-6.382,6.615-9.091
			c-0.339,2.974-0.679,5.949-1.02,8.924c-0.336,2.039-0.674,4.078-1.014,6.115c-2.096-0.555-4.197-1.105-6.827-1.802
			c-2.247,5.766-4.387,11.256-6.528,16.742C102.671,73.172,97.87,73.169,93.068,73.166z"/>
		<path fill="#5D130E" d="M192.989,25.264c-0.971-0.323-1.94-0.646-2.911-0.97c-0.951-1.685-1.901-3.369-2.852-5.054
			c23.688,0.017,47.375,0.034,71.064,0.051c0.717,1.92,1.432,3.84,2.146,5.759c0.53,0.76,1.063,1.52,1.593,2.28
			c0.053,0.296,0.104,0.593,0.147,0.891c0.559,0.711,1.121,1.422,1.679,2.133c-0.013,0.999-0.023,1.998-0.037,2.996
			c-6.955-1.37-13.91-2.738-20.862-4.107c-8.967-0.979-17.93-1.959-26.895-2.94c-7.046-0.363-14.093-0.727-21.138-1.089
			c-0.646-0.006-1.295-0.014-1.943-0.02L192.989,25.264z"/>
		<path fill="#C62C28" d="M52.734,73.137c-0.614-7.5-1.229-14.998-1.846-22.538c-2.345-0.243-3.864-0.401-5.671-0.59
			c0.003-3.124,0.005-6.012,0.005-6.156c-8.175-5.817-14.917-10.613-23.384-16.639c10.216-2.227,16.72-3.645,23.224-5.062
			c0.992,2.632,1.983,5.265,2.973,7.897c3.491,9.03,6.982,18.061,10.474,27.092c0.954,2.686,1.907,5.37,2.86,8.058
			c0.642,2.648,1.286,5.299,1.929,7.945C59.777,73.142,56.256,73.139,52.734,73.137z"/>
		<path fill="#921F1B" d="M166.07,38.237c-2.005-0.414-4.012-0.827-13.306-2.741c2.555,14.672,4.562,26.196,6.567,37.717
			c-5.121-0.004-10.242-0.007-15.365-0.011c0.012-13.516,0.021-27.025,0.032-39.236c8.85-2.7,15.449-4.714,22.049-6.728
			c0.042,1.305,0.082,2.609,0.123,3.914C166.137,33.515,166.105,35.876,166.07,38.237z"/>
		<path fill="#B72824" d="M13.405,19.115c-0.001,2.104-0.003,4.207-0.005,6.439c1.98,0.665,3.732,1.253-0.896-0.302
			c1.465,15.528,2.609,27.679,3.756,39.831c-5.124-1.661-10.249-3.32-15.372-4.981c0.01-13.666,0.022-27.331,0.033-40.996
			C5.082,19.109,9.243,19.112,13.405,19.115z"/>
		<path fill="#721814" d="M433.039,64.412c0.319,1.002,0.639,2.002,0.956,3.003c-0.002,1.998-0.002,3.998-0.004,5.998
			c-3.844-0.003-7.685-0.006-11.524-0.009c-22.643-15.615-9.247-35.373-5.718-53.998c1.922,0.001,3.846,0.002,5.766,0.004
			c-1.793,8.863-3.586,17.727-5.373,26.59c1.563,0.393,3.128,0.784,4.693,1.176c-0.457,1.73-0.913,3.461-2.03,7.682
			C423.807,57.75,428.424,61.081,433.039,64.412z"/>
		<path fill="#651511" d="M439.836,25.446c-0.333-2.008-0.667-4.016-1.002-6.023c3.843,0.002,7.682,0.006,11.52,0.009
			c5.436,8.335,10.875,16.673,16.31,25.008c-0.011,7.999,0.271,16.018-0.241,23.982c-0.11,1.767-2.984,3.345-4.589,5.01
			c-5.427-9.338-10.848-18.678-16.274-28.016c4.131,4.771,8.26,9.542,12.4,14.313c1.881-1.586,3.761-3.172,5.639-4.757
			C455.678,45.129,447.758,35.289,439.836,25.446z"/>
		<path fill="#791A16" d="M277.495,43.287c-1.938-2.672-3.873-5.342-5.81-8.013c0.968-0.013,1.937-0.027,2.906-0.04
			c4.518-0.038,9.032-0.075,13.552-0.112c0.928,0.033,1.859,0.066,2.79,0.099c2.239,1.037,4.476,2.071,6.71,3.105
			c0.686,0.698,1.367,1.396,2.054,2.092c0.63,1.921,1.262,3.843,1.895,5.764c-0.676,2.387-1.349,4.771-2.023,7.158
			c-4.489,6.651-8.98,13.311-13.472,19.966c-4.802-0.003-9.604-0.007-14.404-0.012c3.205-4.995,6.41-9.993,9.617-14.991
			c2.719-2.51,5.442-5.021,9.74-8.985C285.316,46.765,281.404,45.025,277.495,43.287z"/>
		<path fill="#781916" d="M416.746,19.407c-3.531,18.625-16.925,38.381,5.719,53.998c-0.959,0-1.919-0.001-2.881-0.001
			c-0.536-0.97-1.072-1.938-2.34-4.229c-1.352,2.316-1.905,3.271-2.46,4.223c-3.522-0.002-7.043-0.004-10.566-0.008
			c-1.208-5.916-2.417-11.832-3.818-18.685c0.646-5.798,1.287-11.557,1.927-17.316c1.573,1.434,3.144,2.869,6.719,6.129
			c0.009-9.654,0.016-16.888,0.021-24.12C411.625,19.404,414.186,19.405,416.746,19.407z"/>
		<path fill="#7E1B17" d="M402.326,37.391c-0.64,5.76-1.28,11.519-1.927,17.316c1.401,6.85,2.61,12.768,3.818,18.684
			c-8.963-0.007-17.926-0.013-26.889-0.021c0.306-1.004,0.611-2.006,0.917-3.01c0.647,0.001,1.299,0.004,1.944,0.005
			c6.422-11.658,12.84-23.315,19.26-34.973C400.41,36.058,401.368,36.725,402.326,37.391z"/>
		<path fill="#6C1713" d="M433.039,64.412c-4.614-3.331-9.231-6.661-13.24-9.554c1.116-4.221,1.573-5.95,2.026-7.682
			c-1.563-0.394-3.13-0.783-4.693-1.178c1.792-8.863,3.584-17.728,5.375-26.59c0.958,0,1.92,0.001,2.881,0.001
			c1.879,5.017,3.76,10.032,5.64,15.047c0.024,2.318,0.045,4.636,0.068,6.953c0.642,6.002,1.276,12.004,1.915,18.006
			C433.026,61.083,433.031,62.749,433.039,64.412z"/>
		<path fill="#721814" d="M378.246,70.361c-0.304,1.004-0.607,2.006-0.912,3.01c-4.479-0.004-8.967-0.007-13.445-0.01
			c-0.625-8.669-1.25-17.338-1.874-26.01c-0.635-0.67-1.265-1.342-1.893-2.01c1.257-3.99,2.514-7.98,3.767-11.97
			c0.334,0.997,0.664,1.995,0.996,2.993c5.101,7,10.205,14,15.305,20.999C379.539,61.696,378.893,66.028,378.246,70.361z"/>
		<path fill="#94201C" d="M274.591,35.234c-0.97,0.013-1.939,0.027-2.906,0.04c-1.633-0.287-3.264-0.572-4.891-0.859
			c-0.904-0.384-1.804-0.768-2.705-1.15l-0.274,0.088c0.015-0.998,0.025-1.997,0.041-2.996c-0.56-0.711-1.121-1.422-1.681-2.133
			c-0.044-0.298-0.095-0.595-0.146-0.891c-0.532-0.76-1.062-1.52-1.595-2.28c-0.714-1.919-1.429-3.839-2.146-5.759
			c8.962,0.007,17.924,0.013,26.891,0.02c-0.967,4.329-1.936,8.656-2.903,12.985c-1.273,0.004-2.553,0.01-3.828,0.016
			c-0.645-0.003-1.281-0.006-1.925-0.009C275.878,33.28,275.233,34.257,274.591,35.234z"/>
		<path fill="#AC2522" d="M48.035,30.05c-0.99-2.633-1.982-5.267-2.973-7.897c0.012-1.005,0.022-2.01,0.034-3.015
			c6.722,0.005,13.445,0.011,20.167,0.015c-0.276,1.688-0.551,3.375-0.827,5.063c0.311,2.63,0.62,5.26,0.93,7.89
			c-0.27,0.573-0.541,1.146-0.891,1.89c0.585,0.469,1.064,0.85,1.541,1.232c0.051,1.657,0.102,3.315,0.152,4.972
			c-0.662,2.665-1.325,5.33-1.986,7.995c-4.132-6.687-8.265-13.375-12.57-20.344C50.423,28.58,49.229,29.315,48.035,30.05z"/>
		<path fill="#681611" d="M364.88,36.365c-0.332-0.998-0.661-1.996-0.995-2.993c0.977-4.667,1.95-9.333,2.924-14
			c0.319,0,0.642,0,0.957,0c4.806,1.999,9.606,3.998,14.408,5.997c0.34,4.032,0.681,8.063,1.016,12.094
			c-0.663,1.305-1.329,2.612-1.992,3.917C375.761,39.708,370.323,38.036,364.88,36.365z"/>
		<path fill="#A72421" d="M88.311,19.169c0.251,5.225,0.504,10.451,0.994,20.606c-0.191,0.096-4.407,2.226-8.625,4.355
			c-2.266-2.657-4.53-5.313-6.796-7.969c0.311-1.679,0.622-3.357,0.933-5.034c-0.031-1.332-0.062-2.663-0.092-3.994
			c0.024-0.671,0.048-1.341,0.071-2.01c0.664-1.988,1.328-3.976,1.992-5.963C80.628,19.164,84.47,19.167,88.311,19.169z"/>
		<path fill="#8F1F1B" d="M299.57,53.34c0.673-2.389,1.348-4.771,2.021-7.156c1.287,0.636,2.577,1.271,3.866,1.906
			c2.677,5.231,5.354,10.468,7.697,15.055c-2.259,3.88-4.094,7.028-5.93,10.177c-3.844-0.003-7.684-0.006-11.525-0.008
			C296.99,66.657,298.281,59.999,299.57,53.34z"/>
		<path fill="#791A16" d="M338.932,59.349c3.519-5.333,7.038-10.665,10.56-15.999c1.882,2.386,3.763,4.776,5.907,7.497
			c-0.659,7.127-1.368,14.814-2.078,22.506c-4.482-0.003-8.964-0.007-13.445-0.01c0.02-0.685,0.036-1.364,0.056-2.048
			c3.062-5.838,6.124-11.678,9.185-17.515c-1.239-0.776-2.484-1.56-3.724-2.336C343.239,54.083,341.086,56.717,338.932,59.349z"/>
		<path fill="#94201C" d="M122.86,43.194c-1.972,2.71-3.942,5.419-6.615,9.09c-1.804-1.358-3.623-2.73-5.813-4.383
			c2.088-1.982,3.244-3.084,4.851-4.605c-0.954-3.241-1.967-6.681-2.979-10.12c1.597,0.363,3.194,0.728,4.792,1.091
			c1.386,0.716,2.773,1.434,3.863,1.997c1.74-6.185,3.273-11.625,4.805-17.067c3.521,0.002,7.042,0.005,10.564,0.008
			C131.839,27.201,127.352,35.198,122.86,43.194z"/>
		<path fill="#A72421" d="M77.75,52.127c1.672,3.311,3.347,6.622,5.348,10.577c-0.166,2.937-0.379,6.695-0.594,10.453
			c-4.482-0.005-8.963-0.007-13.444-0.012c-0.314-0.998-0.629-1.996-0.943-2.992c0.007-0.674,0.012-1.35,0.018-2.021
			c2.226-7.66,4.452-15.319,6.678-22.98c0.604,0.36,1.212,0.721,1.818,1.081c0.431,1.282,0.86,2.564,1.29,3.846
			C77.863,50.762,77.806,51.444,77.75,52.127z"/>
		<path fill="#57120E" d="M466.664,44.439c-5.435-8.335-10.87-16.673-16.305-25.008c3.52,0.002,7.045,0.004,10.563,0.008
			c1.92,2.001,3.839,4.002,5.758,6.003C466.674,31.774,466.668,38.107,466.664,44.439z"/>
		<path fill="#6C1713" d="M221.753,73.257c-0.446-2.563-0.895-5.129-1.244-7.117c-4.752,1.028-7.646,1.653-18.692,4.045
			c11.587-6.708,15.758-9.121,19.93-11.535c0.332,1.393,0.667,2.783,1.002,4.176c4.155-0.52,8.309-1.038,12.464-1.556
			c1.274,3.999,2.552,8,3.826,12C233.279,73.266,227.517,73.262,221.753,73.257z"/>
		<path fill="#851C19" d="M307.225,73.322c1.836-3.148,3.674-6.297,5.931-10.177c-2.341-4.587-5.02-9.82-7.698-15.055
			c0.908,0.424,1.813,0.848,2.725,1.27c2.248,0.989,4.489,1.979,6.735,2.97c0.369-0.012,0.735-0.021,1.104-0.033
			c1.209,0.709,2.42,1.417,3.628,2.126c-0.29,1.635-0.575,3.271-0.863,4.903c1.913,3.993,3.828,7.987,5.741,11.98
			c-0.005,0.677-0.012,1.352-0.019,2.027C318.749,73.331,312.987,73.326,307.225,73.322z"/>
		<path fill="#851C19" d="M353.321,73.353c0.71-7.688,1.419-15.379,2.078-22.506c-2.147-2.721-4.028-5.108-5.907-7.497
			c0-0.668,0.002-1.335,0.002-2.002c0.97-0.024,1.941-0.046,2.913-0.069c1.276,0.699,2.555,1.399,3.831,2.099
			c1.293,0.653,2.587,1.306,3.879,1.961c0.633,0.666,1.263,1.338,1.893,2.008c-1.295,8.668-2.592,17.34-3.886,26.008
			C356.522,73.356,354.919,73.353,353.321,73.353z"/>
		<path fill="#821C18" d="M299.57,53.34c-1.289,6.656-2.58,13.313-3.87,19.974c-3.198-0.003-6.4-0.005-9.603-0.008
			C290.588,66.651,295.079,59.996,299.57,53.34z"/>
		<path fill="#791A16" d="M239.042,73.27c-1.276-4-2.552-8.001-3.826-12c-0.008-0.661-0.017-1.322-0.021-1.984
			c6.071,0.656,12.143,1.314,18.217,1.967c-0.949,4.01-1.894,8.021-2.845,12.028C246.722,73.278,242.881,73.276,239.042,73.27z"/>
		<path fill="#801B17" d="M120.829,58.234c0.337-2.037,0.675-4.076,1.013-6.115c3.853,7.024,7.708,14.054,11.562,21.077
			c-4.482-0.004-8.963-0.007-13.445-0.01C120.248,68.201,120.539,63.217,120.829,58.234z"/>
		<path fill="#781916" d="M382.179,25.368c-4.802-2-9.604-3.998-14.41-5.997c11.844,0.009,23.69,0.017,35.533,0.025
			c-0.964,1.999-1.929,3.999-2.893,5.998C394.333,25.386,388.255,25.378,382.179,25.368z"/>
		<path fill="#A52420" d="M120.829,58.234c-0.291,4.983-0.581,9.969-0.871,14.952c-4.161-0.004-8.323-0.007-12.484-0.01
			c2.14-5.488,4.28-10.979,6.527-16.742C116.63,57.127,118.731,57.681,120.829,58.234z"/>
		<path fill="#9E221E" d="M0.888,60.102c5.124,1.661,10.248,3.32,15.372,4.981c4.475,2.679,8.95,5.356,13.427,8.037
			c-6.083-0.005-12.165-0.009-18.246-0.014c-3.519-2.67-7.039-5.339-10.558-8.007C0.883,63.434,0.886,61.768,0.888,60.102z"/>
		<path fill="#801B17" d="M400.41,25.395c0.964-1.999,1.929-3.999,2.893-5.998c1.92,0.001,3.843,0.002,5.763,0.003
			c-0.005,7.232-0.012,14.466-0.021,24.12c-3.575-3.262-5.146-4.696-6.719-6.129c-0.958-0.667-1.916-1.333-2.874-1.999
			C399.768,32.06,400.089,28.728,400.41,25.395z"/>
		<path fill="#99211D" d="M125.764,19.197c-1.532,5.441-3.065,10.883-4.805,17.067c-1.091-0.563-2.477-1.281-3.863-1.998
			c-1.592-5.027-3.185-10.053-4.777-15.081C116.801,19.189,121.282,19.193,125.764,19.197z"/>
		<path fill="#A52420" d="M112.32,19.186c1.591,5.028,3.184,10.054,4.777,15.081c-1.598-0.363-3.196-0.727-4.792-1.09
			c-0.642-0.003-1.282-0.005-1.922-0.008c-3.834-4.665-7.671-9.328-11.507-13.992C103.357,19.179,107.837,19.182,112.32,19.186z"/>
		<path fill="#791A16" d="M358.124,73.357c1.294-8.668,2.591-17.338,3.887-26.006c0.626,8.672,1.249,17.341,1.874,26.01
			C361.964,73.359,360.043,73.358,358.124,73.357z"/>
		<path fill="#801B17" d="M360.117,45.341c-1.292-0.655-2.586-1.308-3.879-1.961c2.563-8.003,5.129-16.007,7.689-24.012
			c0.96,0.001,1.922,0.002,2.882,0.003c-0.974,4.667-1.947,9.333-2.924,14C362.628,37.361,361.373,41.351,360.117,45.341z"/>
		<path fill="#651511" d="M433.991,73.413c0.002-2,0.002-4,0.004-5.998c2.767-0.675,5.538-1.351,9.145-2.229
			c1.637,2.563,3.453,5.399,5.256,8.235C443.593,73.419,438.791,73.416,433.991,73.413z"/>
		<path fill="#651511" d="M431.034,34.46c-1.883-5.015-3.762-10.031-5.643-15.047c0.957,0.001,1.919,0.001,2.881,0.002
			C429.191,24.43,430.113,29.445,431.034,34.46z"/>
		<path fill="#8F1F1B" d="M293.823,19.318c2.243,0.001,4.482,0.003,6.722,0.004c0.308,2.731,0.613,5.463,0.921,8.193
			c0.017,0.855,0.027,1.712,0.043,2.57c-0.646,0.069-1.291,0.135-1.938,0.202c-1.914-2.656-3.836-5.313-5.751-7.968
			C293.821,21.319,293.823,20.318,293.823,19.318z"/>
		<path fill="#801B17" d="M197.771,64.233c0.953,3.004,1.903,6.008,2.856,9.012c-2.561-0.002-5.12-0.004-7.682-0.007
			C194.553,70.236,196.16,67.235,197.771,64.233z"/>
		<path fill="#8F1F1B" d="M282.281,32.297c0.967-4.329,1.935-8.657,2.901-12.985c1.279,0.001,2.561,0.001,3.84,0.002
			c0.644,1,1.284,2,1.929,3.001c-0.013,1.007-0.022,2.014-0.029,3.021c-1.277,1.994-2.562,3.988-3.839,5.981
			C285.48,31.645,283.88,31.971,282.281,32.297z"/>
		<path fill="#821C18" d="M324.509,73.333c0.006-0.676,0.013-1.351,0.018-2.025c2.563-1.338,5.125-2.675,7.684-4.015
			c0.635,0.008,1.269,0.014,1.901,0.021c0.625,0.021,1.252,0.044,1.875,0.064c0.335,1.986,0.673,3.977,1.005,5.963
			C332.833,73.34,328.672,73.335,324.509,73.333z"/>
		<path fill="#B72824" d="M0.882,65.1c3.519,2.67,7.039,5.339,10.557,8.007C7.922,70.439,4.401,67.77,0.882,65.1z"/>
		<path fill="#B72824" d="M68.135,68.133c-0.006,0.675-0.011,1.347-0.018,2.021c-0.325,0.999-0.652,1.997-0.979,2.993
			c-1.279,0-2.56,0-3.841-0.002c-0.643-2.646-1.287-5.295-1.929-7.945c0.331-1.014,0.661-2.023,0.99-3.039
			C64.286,64.151,66.211,66.143,68.135,68.133z"/>
		<path fill="#791A16" d="M74.795,25.125c-0.023,0.669-0.047,1.339-0.07,2.01c-0.922,0.711-1.845,1.423-2.768,2.138
			c-0.636-1.374-1.27-2.746-1.905-4.118c-0.636-2-1.273-4-1.91-6c1.921,0.001,3.842,0.002,5.762,0.004
			C74.202,21.147,74.5,23.135,74.795,25.125z"/>
		<path fill="#761915" d="M301.463,27.518c-0.306-2.731-0.611-5.463-0.919-8.195c1.603,0.001,3.203,0.002,4.805,0.003
			c-0.018,1.339-0.03,2.678-0.047,4.016C304.023,24.735,302.745,26.126,301.463,27.518z"/>
		<path fill="#6C1713" d="M181.461,22.235c-3.52-1.003-7.04-2.004-10.56-3.006c3.521,0.002,7.041,0.005,10.563,0.008
			c0.006,0.66,0.011,1.319,0.015,1.979C181.475,21.555,181.468,21.895,181.461,22.235z"/>
		<path fill="#6D1713" d="M466.68,25.442c-1.919-2.001-3.838-4.002-5.758-6.003C462.842,21.44,464.761,23.441,466.68,25.442z"/>
		<path fill="#651511" d="M181.461,22.235c0.007-0.34,0.014-0.68,0.018-1.02c0.957-0.658,1.912-1.318,2.867-1.977
			c0.96,0,1.922,0.001,2.881,0.001c0.951,1.685,1.901,3.369,2.853,5.054C187.205,23.607,184.333,22.921,181.461,22.235z"/>
		<path fill="#94201C" d="M68.143,19.154c0.637,2,1.273,4,1.91,6c-1.873-0.313-3.743-0.625-5.616-0.938
			c0.276-1.688,0.551-3.375,0.827-5.063C66.224,19.153,67.184,19.153,68.143,19.154z"/>
		<path fill="#721814" d="M336.996,73.342c-0.336-1.988-0.672-3.979-1.007-5.965c0.98-0.347,1.957-0.689,2.935-1.036
			c0.337,1.648,0.674,3.303,1.008,4.954c-0.02,0.684-0.036,1.363-0.056,2.048C338.916,73.342,337.957,73.342,336.996,73.342z"/>
		<path fill="#821C18" d="M313.993,19.332c-1.265,1.972-2.523,3.944-3.786,5.917c-0.651-0.354-1.305-0.708-1.954-1.063
			c0.002-0.271,0.003-0.541,0.002-0.812c0.632-1.348,1.266-2.697,1.896-4.045C311.428,19.331,312.71,19.332,313.993,19.332z"/>
		<path fill="#94201C" d="M310.151,19.33c-0.634,1.348-1.267,2.696-1.896,4.044c-0.984-0.011-1.969-0.022-2.952-0.032
			c0.017-1.338,0.029-2.677,0.047-4.016C306.948,19.327,308.549,19.328,310.151,19.33z"/>
		<path fill="#851C19" d="M74.795,25.125c-0.296-1.989-0.595-3.978-0.89-5.966c0.96,0,1.921,0.001,2.882,0.002
			C76.123,21.148,75.46,23.136,74.795,25.125z"/>
		<path fill="#821C18" d="M321.672,19.337c-0.882,0.834-1.766,1.669-4.276,4.042c-0.576-1.569-1.029-2.807-1.486-4.045
			C317.831,19.335,319.752,19.336,321.672,19.337z"/>
		<path fill="#8A1D1A" d="M290.948,22.316c-0.642-1-1.285-2-1.929-3.001c1.602,0.001,3.203,0.002,4.804,0.003
			c-0.002,1.001-0.004,2.002-0.004,3.002C292.862,22.318,291.904,22.317,290.948,22.316z"/>
		<path fill="#791A16" d="M414.784,73.398c0.555-0.951,1.108-1.904,2.46-4.225c1.268,2.288,1.805,3.259,2.34,4.229
			C417.983,73.4,416.382,73.398,414.784,73.398z"/>
		<path fill="#5D130E" d="M184.345,19.238c-0.956,0.659-1.911,1.319-2.867,1.977c-0.005-0.66-0.009-1.319-0.015-1.979
			C182.424,19.237,183.385,19.237,184.345,19.238z"/>
		<path fill="#AC2522" d="M67.139,73.147c0.327-0.996,0.654-1.994,0.979-2.993c0.314,0.998,0.629,1.996,0.943,2.994
			C68.421,73.148,67.779,73.149,67.139,73.147z"/>
		<path fill="#C62C28" d="M50.682,69.257c-13.259-4.559-22.85-7.854-32.441-11.149c0.246-1.193,0.492-2.395,0.738-3.592
			c8.605,1.62,17.28,2.943,25.758,5.107C46.431,60.057,47.368,63.694,50.682,69.257z"/>
		<path fill="#8A1D1A" d="M305.302,23.342c0.983,0.01,1.968,0.021,2.952,0.032c0.001,0.271,0,0.541-0.002,0.813
			c0.354,1.944,0.711,3.888,1.122,6.133c1.955,0.001,3.298,0.002,4.642,0.003c0.669,7.324,1.335,14.647,2.005,21.971
			c-0.37,0.012-0.736,0.022-1.104,0.034c-0.542-0.68-1.088-1.36-1.626-2.041c-3.274-4.34-6.539-8.681-9.811-13.02
			c-0.654-2.395-1.313-4.789-1.971-7.185c-0.015-0.856-0.025-1.712-0.041-2.568C302.745,26.126,304.023,24.735,305.302,23.342z"/>
		<path fill="#681611" d="M348.577,36.294c-2.218-3.569-4.439-7.137-6.658-10.705c3.13-0.794,6.259-1.587,9.388-2.382
			c0.356,4.74,0.711,9.481,1.065,14.222C351.107,37.049,349.84,36.672,348.577,36.294z"/>
		<path fill="#721814" d="M334.112,67.313c-0.633-0.008-1.267-0.014-1.898-0.02c-4.474-2.657-8.953-5.314-13.425-7.971
			c0.288-1.636,0.574-3.271,0.864-4.902c0.52-1.311,1.047-2.616,1.791-4.474c4.846,2.538,9.188,4.813,14.233,7.456
			C335.171,60.586,334.641,63.949,334.112,67.313z"/>
		<path fill="#821C18" d="M339.931,71.297c-0.334-1.65-0.671-3.305-1.008-4.954c0.004-2.332,0.006-4.662,0.009-6.994
			c2.156-2.632,4.307-5.267,6.46-7.898c1.239,0.776,2.484,1.56,3.724,2.336C346.055,59.621,342.993,65.459,339.931,71.297z"/>
		<path fill="#94201C" d="M314.013,30.323c-1.341-0.001-2.684-0.002-4.639-0.003c-0.411-2.246-0.768-4.188-1.125-6.133
			c0.649,0.353,1.306,0.708,1.957,1.062C311.477,26.939,312.746,28.631,314.013,30.323z"/>
		<path fill="#791A16" d="M348.577,36.294c1.264,0.378,2.53,0.755,3.795,1.134c0.012,1.285,0.023,2.57,0.035,3.854
			c-0.97,0.023-1.941,0.045-2.913,0.069C349.19,39.665,348.882,37.979,348.577,36.294z"/>
		<path fill="#6D1713" d="M194.92,25.216c7.045,0.362,14.092,0.727,21.137,1.087c0.787,2.833,1.577,5.667,2.367,8.5
			c1.559-1.382,3.117-2.765,4.679-4.147c1.475,5.208,2.943,10.415,4.417,15.621c-4.128-3.048-8.256-6.098-11.176-8.254
			c-6.85,1.011-12.377,1.826-19.426,2.866c0.288,6.933,0.585,14.144,0.884,21.354c-1.604-12.326-3.208-24.654-4.813-36.979
			c0,0.001-0.013-0.067-0.013-0.067C193.624,25.203,194.271,25.209,194.92,25.216z"/>
		<path fill="#8F1F1B" d="M166.07,38.237c0.035-2.361,0.066-4.722,0.101-7.084c3.172,8.688,6.345,17.378,9.517,26.068
			C172.481,50.894,169.276,44.563,166.07,38.237z"/>
		<path fill="#851C19" d="M179.563,71.206c-0.645-1.998-1.289-3.996-1.934-5.994C178.274,67.209,178.918,69.208,179.563,71.206z"/>
		<path fill="#761915" d="M227.52,46.277c-1.474-5.207-2.942-10.414-4.417-15.621c-1.562,1.383-3.12,2.766-4.679,4.147
			c-0.79-2.833-1.58-5.666-2.367-8.5c8.964,0.98,17.93,1.96,26.895,2.94c1.596,4.009,3.192,8.015,4.789,12.022
			c-2.675-2.028-5.348-4.056-8.022-6.083c-2.676,2.849-5.356,5.697-8.033,8.545c7.877,4.522,15.755,9.046,23.634,13.568l0.17,0.199
			l-0.109-0.271c-0.01-0.97-0.021-1.935-0.029-2.896c0.592-0.051,1.179-0.097,1.771-0.145c0.076,0.722,0.156,1.441,0.232,2.165
			c0.07,1.688,0.142,3.382,0.213,5.069c-1.388-0.058-2.776-0.112-4.164-0.174c-6.071-0.653-12.145-1.31-18.216-1.965
			C232.633,54.95,230.078,50.614,227.52,46.277z"/>
		<path fill="#851C19" d="M77.92,50.079c-0.429-1.28-0.859-2.563-1.289-3.846c-0.577-0.704-1.155-1.406-1.732-2.105
			c-0.692-1.276-1.388-2.552-2.081-3.828c-0.307-1.332-0.613-2.663-0.92-3.995l0.083-0.175c0.634,0.01,1.269,0.021,1.903,0.033
			c2.266,2.657,4.53,5.314,6.796,7.969c-0.016,2.005-0.031,4.013-0.048,6.023C79.728,50.128,78.824,50.106,77.92,50.079z"/>
		<path fill="#8F1F1B" d="M77.92,50.079c0.904,0.025,1.808,0.05,2.711,0.074c0.867,0.704,1.732,1.407,8.743,7.096
			c-8.864-3.905-10.245-4.512-11.626-5.12C77.806,51.444,77.863,50.762,77.92,50.079z"/>
		<path fill="#6D1713" d="M439.836,25.446c7.919,9.843,15.842,19.684,23.762,29.525c-1.878,1.585-3.763,3.171-5.639,4.757
			c-4.135-4.771-8.267-9.542-12.4-14.315c-0.016-0.66-0.022-1.319-0.032-1.979c-0.629-0.675-1.256-1.351-1.886-2.023
			c-0.009-0.664-0.016-1.327-0.021-1.991c-1.269-3.67-2.534-7.339-3.801-11.01C439.83,27.424,439.833,26.435,439.836,25.446z"/>
		<path fill="#651511" d="M433.02,59.419c-0.641-6.002-1.277-12.004-1.916-18.006C431.741,47.416,432.379,53.417,433.02,59.419z"/>
		<path fill="#651511" d="M439.824,28.413c1.267,3.67,2.533,7.339,3.801,11.01C442.357,35.751,441.09,32.083,439.824,28.413z"/>
		<path fill="#651511" d="M443.641,41.414c0.63,0.674,1.257,1.348,1.886,2.023C444.898,42.762,444.271,42.087,443.641,41.414z"/>
		<path fill="#681611" d="M257.128,54.188c-0.593,0.048-1.18,0.094-1.772,0.141c-2.537-4.354-5.076-8.708-7.614-13.062
			c-1.597-4.007-3.19-8.014-4.786-12.022c6.957,1.369,13.912,2.738,20.863,4.107c-0.002,0,0.271-0.088,0.271-0.088
			c-0.629,2.035-1.257,4.069-1.886,6.104C260.513,44.307,258.822,49.249,257.128,54.188z"/>
		<path fill="#821C18" d="M277.495,43.287c3.909,1.738,7.819,3.479,13.559,6.031c-4.3,3.967-7.022,6.478-9.742,8.985
			C280.039,53.297,278.767,48.293,277.495,43.287z"/>
		<path fill="#9E221E" d="M257.572,61.424c-0.066-1.689-0.142-3.381-0.214-5.071c4.628,3.757,9.254,7.512,13.879,11.268
			c-0.868,1.109-1.735,2.221-2.602,3.332C264.948,67.777,261.259,64.601,257.572,61.424z"/>
		<path fill="#791A16" d="M262.204,39.367c0.629-2.035,1.257-4.069,1.886-6.104c0.906,0.383,1.804,0.767,2.705,1.151
			C265.263,36.065,263.731,37.716,262.204,39.367z"/>
		<path fill="#721814" d="M262.175,28.222c0.558,0.711,1.121,1.422,1.681,2.133C263.293,29.645,262.735,28.933,262.175,28.222z"/>
		<path fill="#651511" d="M194.92,25.216c-0.648-0.006-1.296-0.013-1.944-0.02C193.624,25.202,194.272,25.209,194.92,25.216z"/>
		<path fill="#721814" d="M260.435,25.051c0.533,0.76,1.063,1.52,1.595,2.28C261.498,26.571,260.965,25.812,260.435,25.051z"/>
		<path fill="#B72824" d="M48.035,30.05c1.194-0.736,2.388-1.47,3.578-2.202c4.305,6.971,8.438,13.659,12.571,20.346
			c-0.302,1.638-0.602,3.272-0.905,4.912c-0.316-0.021-0.632-0.029-0.95-0.025c-0.602,0.379-1.205,0.759-1.807,1.137
			c-0.671,0.976-1.344,1.95-2.015,2.927C55.018,48.111,51.526,39.081,48.035,30.05z"/>
		<path fill="#9E221E" d="M62.33,53.081c0.317-0.004,0.634,0.006,0.95,0.025l0.035,0.041c-0.319,3.004-0.637,6.008-0.956,9.012
			c-0.33,1.015-0.661,2.027-0.991,3.039c-0.954-2.688-1.908-5.37-2.86-8.056c0.67-0.978,1.344-1.949,2.015-2.928
			C61.124,53.839,61.727,53.459,62.33,53.081z"/>
		<path fill="#851C19" d="M290.948,22.316c0.956,0.001,1.914,0.003,2.871,0.004c1.917,2.655,3.837,5.312,5.753,7.968
			c0.277,2.328,0.551,4.655,0.825,6.982c-0.01,0.34-0.021,0.679-0.03,1.018c-0.908,0.014-1.815,0.027-2.722,0.039
			c-2.238-1.035-4.475-2.07-6.712-3.104c-0.004-3.294-0.009-6.59-0.017-9.885C290.928,24.33,290.935,23.323,290.948,22.316z"/>
		<path fill="#5D130E" d="M300.367,38.287c0.011-0.339,0.022-0.678,0.031-1.017c1.027,0,2.053,0,3.077-0.002
			c3.269,4.339,6.539,8.68,9.809,13.019c-1.702-0.311-3.404-0.617-5.102-0.928c-0.911-0.422-1.816-0.845-2.723-1.269
			c-1.287-0.64-2.578-1.271-3.866-1.908c-0.633-1.922-1.265-3.844-1.893-5.766C299.919,39.707,300.144,38.997,300.367,38.287z"/>
		<path fill="#8A1D1A" d="M282.281,32.297c1.6-0.326,3.199-0.652,4.799-0.979c0.354,1.269,0.707,2.537,1.061,3.804
			c-4.517,0.037-9.032,0.074-13.549,0.112c0.642-0.977,1.287-1.954,1.936-2.931c0.643,0.003,1.282,0.006,1.925,0.009
			C279.727,32.307,281.003,32.301,282.281,32.297z"/>
		<path fill="#98211D" d="M288.14,35.122c-0.354-1.268-0.707-2.535-1.061-3.804c1.278-1.993,2.561-3.987,3.838-5.981
			c0.007,3.295,0.012,6.591,0.016,9.885C290.002,35.188,289.071,35.154,288.14,35.122z"/>
		<path fill="#801B17" d="M300.367,38.287c-0.223,0.709-0.447,1.419-0.67,2.13c-0.685-0.695-1.366-1.393-2.052-2.091
			C298.551,38.315,299.458,38.301,300.367,38.287z"/>
		<path fill="#6D1713" d="M400.41,25.395c-0.32,3.333-0.641,6.665-0.958,9.998c-6.42,11.657-12.84,23.315-19.261,34.973
			c2.583-9.331,5.165-18.66,7.743-27.989c-1.579-1.638-3.158-3.275-4.741-4.913c-0.336-4.032-0.677-8.063-1.016-12.095
			C388.255,25.378,394.333,25.386,400.41,25.395z"/>
		<path fill="#821C18" d="M387.938,42.375c-2.58,9.33-5.162,18.659-7.745,27.99c-0.648-0.001-1.297-0.004-1.947-0.005
			c0.647-4.333,1.293-8.665,1.939-12.997c0.358-3.651,0.716-7.306,1.071-10.957C383.485,45.064,385.711,43.72,387.938,42.375z"/>
		<path fill="#6C1713" d="M381.256,46.407c-0.355,3.651-0.713,7.306-1.071,10.957c-5.099-7-10.203-14-15.305-21
			c5.442,1.671,10.881,3.344,16.321,5.016C381.219,43.056,381.24,44.733,381.256,46.407z"/>
		<path fill="#8F1F1B" d="M278.452,32.313c-0.643-0.003-1.282-0.006-1.925-0.009C277.169,32.307,277.809,32.31,278.452,32.313z"/>
		<path fill="#8A1D1A" d="M64.437,24.215c1.873,0.312,3.744,0.625,5.616,0.938c0.635,1.373,1.269,2.745,1.905,4.117
			c0.015,0.635,0.03,1.271,0.044,1.908L72,31.142c-0.018,0.654-0.035,1.309-0.053,1.962c0.013,1.009,0.024,2.017,0.035,3.026
			c0,0-0.083,0.175-0.082,0.173c-1.91,1.298-3.821,2.598-5.73,3.896c-0.05-1.657-0.101-3.315-0.15-4.972
			c-0.217-1.041-0.436-2.082-0.653-3.122C65.056,29.476,64.747,26.845,64.437,24.215z"/>
		<path fill="#9E221E" d="M66.169,40.199c1.91-1.3,3.821-2.598,5.73-3.896c0.306,1.334,0.613,2.665,0.92,3.996
			c-3.168,4.283-6.336,8.565-9.503,12.848l-0.035-0.039c0.302-1.639,0.603-3.273,0.904-4.912
			C64.844,45.529,65.507,42.864,66.169,40.199z"/>
		<path fill="#9E221E" d="M65.366,32.105c0.217,1.04,0.435,2.081,0.653,3.122c-0.479-0.382-0.957-0.763-1.542-1.232
			C64.825,33.251,65.096,32.678,65.366,32.105z"/>
		<path fill="#781916" d="M381.256,46.407c-0.017-1.674-0.037-3.351-0.055-5.027c0.665-1.306,1.328-2.613,1.993-3.917
			c1.582,1.639,3.16,3.276,4.743,4.914C385.711,43.72,383.485,45.064,381.256,46.407z"/>
		<path fill="#94201C" d="M71.981,36.13c-0.012-1.009-0.022-2.017-0.035-3.025c0.018-0.654,0.035-1.309,0.052-1.963l0.003,0.036
			c0.938-0.017,1.875-0.034,2.814-0.05c-0.312,1.677-0.623,3.355-0.933,5.034C73.25,36.152,72.615,36.14,71.981,36.13z"/>
		<path fill="#851C19" d="M74.816,31.128c-0.938,0.017-1.876,0.033-2.814,0.05c-0.014-0.636-0.03-1.273-0.045-1.908
			c0.922-0.712,1.845-1.424,2.767-2.137C74.755,28.465,74.786,29.796,74.816,31.128z"/>
		<path fill="#AC2522" d="M63.316,53.147c3.167-4.281,6.335-8.563,9.503-12.848c0.692,1.277,1.387,2.552,2.079,3.829
			c-0.029,0.342-0.057,0.684-0.085,1.025c-2.227,7.661-4.452,15.32-6.678,22.98c-1.925-1.989-3.851-3.981-5.776-5.974
			C62.678,59.155,62.996,56.153,63.316,53.147z"/>
		<path fill="#98211D" d="M74.814,45.153c0.027-0.342,0.057-0.684,0.085-1.025c0.579,0.702,1.157,1.405,1.733,2.106
			C76.026,45.874,75.418,45.513,74.814,45.153z"/>
		<path fill="#791A16" d="M318.786,59.326c4.475,2.654,8.952,5.313,13.425,7.968c-2.56,1.34-5.121,2.677-7.684,4.015
			C322.614,67.313,320.699,63.319,318.786,59.326z"/>
		<path fill="#721814" d="M308.178,49.36c1.701,0.31,3.403,0.618,5.104,0.928c0.546,0.683,1.09,1.362,1.631,2.042
			C312.669,51.341,310.424,50.349,308.178,49.36z"/>
		<path fill="#6C1713" d="M303.475,37.269c-1.024,0.001-2.05,0.002-3.077,0.002c-0.278-2.328-0.552-4.655-0.826-6.983
			c0.646-0.067,1.29-0.133,1.938-0.202C302.165,32.48,302.82,34.874,303.475,37.269z"/>
		<path fill="#801B17" d="M247.742,41.267c2.536,4.354,5.074,8.708,7.612,13.062c0.012,0.967,0.022,1.934,0.033,2.899l-0.066,0.069
			c-7.877-4.523-15.756-9.048-23.633-13.569c2.677-2.849,5.355-5.697,8.031-8.545C242.394,37.21,245.067,39.238,247.742,41.267z"/>
		<polygon fill="#8A1D1A" points="255.387,57.228 255.494,57.497 255.323,57.295 		"/>
		<path fill="#AC2522" d="M62.33,53.081c-0.603,0.379-1.206,0.759-1.807,1.137C61.125,53.839,61.728,53.459,62.33,53.081z"/>
		<path fill="#791A16" d="M71.999,31.142c-0.017,0.654-0.034,1.309-0.052,1.963C71.964,32.451,71.981,31.797,71.999,31.142z"/>
	</g>
</g>
<g opacity="0.5">
	<g>
		<path fill="#BF2A26" d="M13.425,19.1c10.563,0.007,21.128,0.015,31.691,0.022c-0.01,1.005-0.022,2.01-0.033,3.015
			c-6.504,1.417-13.008,2.836-23.225,5.062c8.467,6.025,15.209,10.822,23.384,16.639c0,0.144-0.001,3.032-0.004,6.156
			c1.806,0.188,3.326,0.346,5.671,0.59c0.619,7.54,1.232,15.038,1.846,22.538c-7.682-0.007-15.366-0.012-23.048-0.018
			c-4.475-2.682-8.951-5.357-13.425-8.036c-1.148-12.152-2.292-24.303-3.757-39.833c4.627,1.555,2.876,0.967,0.896,0.302
			C13.422,23.306,13.423,21.203,13.425,19.1z M50.703,69.242c-3.314-5.564-4.252-9.201-5.946-9.634
			C36.279,57.443,27.605,56.121,19,54.5c-0.246,1.197-0.493,2.396-0.739,3.592C27.854,61.39,37.445,64.685,50.703,69.242z"/>
		<path fill="#761915" d="M314.01,19.316c0.641,0,1.279,0.001,1.921,0.001c0.454,1.238,0.909,2.476,1.484,4.045
			c2.512-2.372,3.396-3.208,4.279-4.042c14.084,0.01,28.168,0.021,42.254,0.031c-2.564,8.004-5.128,16.009-7.689,24.012
			c-1.274-0.699-2.556-1.399-3.833-2.099c-0.01-1.284-0.02-2.569-0.031-3.854c-0.357-4.741-0.71-9.482-1.066-14.222
			c-3.13,0.794-6.255,1.587-9.39,2.382c2.221,3.568,4.438,7.137,6.659,10.705c0.306,1.686,0.613,3.371,0.916,5.058
			c0,0.667-0.002,1.334-0.004,2.002c-3.519,5.332-7.039,10.664-10.558,15.997c-0.002,2.33-0.005,4.66-0.007,6.992
			c-0.981,0.347-1.959,0.69-2.937,1.036c-0.625-0.021-1.251-0.044-1.878-0.064c0.529-3.365,1.061-6.728,1.561-9.908
			c-5.045-2.641-9.389-4.917-14.235-7.456c-0.742,1.854-1.268,3.165-1.789,4.476c-1.209-0.709-2.42-1.418-3.63-2.127
			c-0.668-7.324-1.335-14.647-2.003-21.971c-1.269-1.692-2.539-3.384-3.806-5.076C311.488,23.26,312.747,21.288,314.01,19.316z"/>
		<path fill="#8A1D1A" d="M136.348,19.189c9.285,0.007,18.567,0.014,27.85,0.02c0.624,2.672,1.247,5.344,1.87,8.015
			c-6.601,2.014-13.2,4.028-22.049,6.728c-0.01,12.21-0.021,25.724-0.032,39.235c-3.52-0.002-7.041-0.005-10.563-0.008
			c-3.854-7.024-7.708-14.052-11.561-21.078c0.34-2.974,0.68-5.947,1.02-8.922C127.372,35.182,131.858,27.186,136.348,19.189z"/>
		<path fill="#791A16" d="M166.067,27.223c-0.623-2.671-1.246-5.343-1.87-8.015c2.241,0.001,4.482,0.002,6.724,0.004
			c3.521,1.002,7.041,2.004,10.562,3.006c2.873,0.687,5.744,1.374,8.617,2.061c0.97,0.323,1.939,0.646,2.911,0.967
			c1.604,12.327,3.208,24.653,4.813,36.98c-0.011,0.663-0.022,1.326-0.032,1.989c-1.609,3.002-3.217,6.003-4.826,9.005
			c-4.482-0.003-8.964-0.006-13.445-0.011c0.021-0.674,0.043-1.348,0.064-2.021c-0.644-1.999-1.29-3.994-1.933-5.992
			c-0.647-2.664-1.296-5.328-1.943-7.992c-3.172-8.688-6.344-17.379-9.515-26.067C166.15,29.832,166.109,28.528,166.067,27.223z"/>
		<path fill="#681611" d="M197.791,64.217c0.011-0.663,0.021-1.326,0.031-1.989c-0.298-7.212-0.598-14.423-0.885-21.355
			c7.05-1.041,12.577-1.855,19.426-2.866c2.92,2.156,7.048,5.207,11.175,8.255c2.559,4.337,5.115,8.673,7.674,13.009
			c0.005,0.661,0.014,1.323,0.02,1.983c-4.15,0.519-8.308,1.036-12.461,1.556c-0.334-1.393-0.669-2.783-1.003-4.175
			c-4.171,2.413-8.342,4.826-19.931,11.535c11.048-2.391,13.94-3.02,18.693-4.046c0.348,1.99,0.797,4.555,1.245,7.119
			c-7.042-0.007-14.086-0.013-21.129-0.018C199.694,70.225,198.743,67.221,197.791,64.217z"/>
		<path fill="#9E221E" d="M88.331,19.154c3.521,0.002,7.042,0.004,10.563,0.007c3.835,4.664,7.671,9.327,11.507,13.992
			c-5.806,8.687-11.615,17.374-18.451,27.594c-0.385-0.864,0.392,0.886,0.251,0.57c0.404,5.389,0.646,8.607,0.886,11.832
			c-3.521-0.002-7.042-0.004-10.564-0.01c0.214-3.758,0.427-7.517,0.594-10.449c-2.001-3.956-3.675-7.271-5.349-10.578
			c1.381,0.606,2.762,1.215,11.625,5.121c-7.011-5.689-7.876-6.395-8.743-7.098c0.018-2.009,0.033-4.02,0.048-6.022
			c4.218-2.13,8.434-4.259,8.625-4.355C88.836,29.605,88.583,24.379,88.331,19.154z"/>
		<path fill="#5A130F" d="M461.86,73.417c-4.481-0.003-8.963-0.006-13.445-0.01c-1.812-2.836-3.621-5.672-5.257-8.235
			c-3.606,0.877-6.374,1.553-9.144,2.229c-0.318-1.002-0.637-2.002-0.954-3.004c-0.008-1.662-0.015-3.328-0.023-4.991
			c-0.637-6.003-1.275-12.005-1.914-18.007c-0.022-2.317-0.044-4.635-0.068-6.953c-0.92-5.015-1.843-10.03-2.762-15.045
			c3.521,0.002,7.04,0.005,10.563,0.008c0.336,2.008,0.667,4.017,1.004,6.023c-0.007,0.989-0.011,1.978-0.015,2.966
			c1.268,3.67,2.532,7.339,3.802,11.011c0.006,0.664,0.012,1.327,0.016,1.991c0.63,0.674,1.259,1.348,1.887,2.023
			c0.016,0.659,0.022,1.319,0.033,1.979C451.006,54.739,456.433,64.079,461.86,73.417z"/>
		<path fill="#98211D" d="M175.708,57.206c0.647,2.662,1.296,5.326,1.943,7.99c0.644,1.998,1.289,3.993,1.934,5.992
			c-0.022,0.676-0.043,1.35-0.064,2.021c-6.722-0.004-13.446-0.009-20.167-0.016c-2.006-11.521-4.012-23.046-6.567-37.718
			c9.293,1.914,11.3,2.328,13.307,2.741C169.297,44.549,172.502,50.877,175.708,57.206z"/>
		<path fill="#8A1D1A" d="M271.712,73.28c-7.043-0.004-14.085-0.01-21.127-0.014c0.946-4.01,1.892-8.02,2.843-12.029
			c1.391,0.059,2.775,0.115,4.164,0.174c3.687,3.176,7.374,6.351,11.064,9.525c0.865-1.111,1.729-2.222,2.599-3.332
			c-4.625-3.755-9.249-7.511-13.875-11.266c-0.078-0.726-0.155-1.444-0.232-2.166c1.692-4.939,3.383-9.881,5.077-14.821
			c1.527-1.651,3.057-3.302,4.587-4.953c1.634,0.286,3.263,0.572,4.894,0.858c1.938,2.671,3.874,5.341,5.811,8.013
			c1.271,5.007,2.543,10.012,3.813,15.018C278.124,63.288,274.918,68.284,271.712,73.28z"/>
		<path fill="#99211D" d="M93.088,73.151c-0.241-3.224-0.482-6.445-0.886-11.832c0.14,0.313-0.637-1.437-0.251-0.568
			c6.836-10.224,12.645-18.909,18.452-27.595c0.641,0.002,1.282,0.005,1.922,0.008c1.011,3.439,2.024,6.879,2.978,10.12
			c-1.605,1.523-2.761,2.625-4.851,4.605c2.191,1.649,4.01,3.022,5.814,4.386c2.672-3.674,4.643-6.383,6.615-9.092
			c-0.34,2.976-0.68,5.95-1.02,8.925c-0.337,2.038-0.675,4.076-1.014,6.114c-2.098-0.556-4.197-1.104-6.828-1.8
			c-2.247,5.764-4.386,11.253-6.527,16.739C102.691,73.156,97.891,73.154,93.088,73.151z"/>
		<path fill="#5D130E" d="M193.009,25.248c-0.971-0.323-1.941-0.646-2.91-0.969c-0.951-1.685-1.902-3.369-2.853-5.054
			c23.689,0.018,47.377,0.034,71.064,0.051c0.716,1.92,1.432,3.841,2.146,5.76c0.53,0.76,1.063,1.52,1.593,2.28
			c0.052,0.296,0.102,0.593,0.145,0.891c0.562,0.711,1.121,1.422,1.683,2.133c-0.013,0.999-0.026,1.998-0.037,2.996
			c-6.956-1.37-13.912-2.738-20.865-4.107c-8.966-0.979-17.928-1.959-26.895-2.94c-7.046-0.363-14.092-0.727-21.138-1.088
			c-0.647-0.006-1.295-0.014-1.942-0.02L193.009,25.248z"/>
		<path fill="#C62C28" d="M52.755,73.122c-0.614-7.5-1.229-14.998-1.846-22.538c-2.345-0.244-3.865-0.401-5.671-0.591
			c0.003-3.123,0.004-6.011,0.004-6.155c-8.174-5.817-14.917-10.613-23.384-16.639c10.216-2.227,16.72-3.645,23.225-5.062
			c0.991,2.632,1.981,5.265,2.972,7.897c3.492,9.03,6.982,18.062,10.474,27.093c0.952,2.686,1.907,5.37,2.861,8.058
			c0.642,2.648,1.286,5.297,1.928,7.944C59.798,73.125,56.276,73.124,52.755,73.122z"/>
		<path fill="#921F1B" d="M166.091,38.221c-2.006-0.413-4.012-0.828-13.307-2.741c2.555,14.673,4.561,26.195,6.567,37.718
			c-5.121-0.004-10.243-0.007-15.366-0.012c0.012-13.513,0.022-27.024,0.032-39.235c8.85-2.7,15.45-4.713,22.049-6.728
			c0.042,1.305,0.082,2.609,0.123,3.914C166.157,33.499,166.125,35.86,166.091,38.221z"/>
		<path fill="#B72824" d="M13.425,19.1c-0.001,2.104-0.003,4.207-0.005,6.439c1.98,0.665,3.732,1.253-0.896-0.302
			c1.464,15.529,2.609,27.679,3.757,39.832c-5.125-1.659-10.249-3.319-15.373-4.98c0.01-13.666,0.021-27.33,0.033-40.995
			C5.103,19.093,9.264,19.097,13.425,19.1z"/>
		<path fill="#721814" d="M433.06,64.396c0.317,1.002,0.636,2.002,0.954,3.002c0,1.998-0.002,3.998-0.005,5.998
			c-3.841-0.002-7.682-0.005-11.521-0.009c-22.644-15.614-9.251-35.374-5.719-53.998c1.922,0.001,3.844,0.002,5.766,0.004
			c-1.793,8.864-3.586,17.727-5.376,26.586c1.564,0.396,3.13,0.786,4.693,1.18c-0.454,1.729-0.912,3.461-2.024,7.683
			C423.828,57.735,428.444,61.065,433.06,64.396z"/>
		<path fill="#651511" d="M439.858,25.431c-0.335-2.008-0.668-4.016-1.002-6.023c3.84,0.002,7.682,0.006,11.523,0.008
			c5.436,8.335,10.869,16.673,16.306,25.008c-0.008,7.999,0.268,16.018-0.238,23.982c-0.113,1.767-2.983,3.345-4.587,5.01
			c-5.427-9.338-10.854-18.678-16.278-28.016c4.132,4.771,8.263,9.542,12.399,14.313c1.879-1.586,3.76-3.172,5.639-4.757
			C455.7,45.115,447.777,35.272,439.858,25.431z"/>
		<path fill="#791A16" d="M277.516,43.271c-1.937-2.671-3.873-5.342-5.811-8.013c0.969-0.013,1.938-0.027,2.905-0.04
			c4.518-0.038,9.033-0.074,13.551-0.112c0.932,0.033,1.861,0.066,2.793,0.099c2.237,1.036,4.473,2.07,6.711,3.105
			c0.685,0.697,1.368,1.396,2.052,2.091c0.63,1.921,1.263,3.843,1.893,5.765c-0.672,2.387-1.349,4.771-2.023,7.157
			c-4.49,6.654-8.979,13.311-13.469,19.967c-4.802-0.003-9.605-0.008-14.406-0.012c3.206-4.996,6.411-9.993,9.616-14.991
			c2.721-2.51,5.442-5.02,9.742-8.985C285.333,46.751,281.424,45.009,277.516,43.271z"/>
		<path fill="#781916" d="M416.766,19.391c-3.53,18.625-16.925,38.382,5.718,53.998c-0.958,0-1.92-0.002-2.878-0.002
			c-0.537-0.97-1.074-1.938-2.339-4.228c-1.354,2.318-1.906,3.271-2.465,4.223c-3.521-0.002-7.04-0.004-10.564-0.008
			c-1.209-5.916-2.419-11.833-3.817-18.683c0.645-5.798,1.287-11.557,1.927-17.316c1.573,1.434,3.142,2.869,6.718,6.13
			c0.01-9.654,0.017-16.888,0.021-24.12C411.646,19.388,414.206,19.39,416.766,19.391z"/>
		<path fill="#7E1B17" d="M402.347,37.375c-0.64,5.76-1.282,11.519-1.927,17.316c1.399,6.85,2.606,12.767,3.813,18.683
			c-8.96-0.007-17.921-0.013-26.883-0.02c0.301-1.004,0.606-2.006,0.913-3.01c0.646,0,1.297,0.004,1.944,0.004
			c6.421-11.657,12.838-23.315,19.258-34.975C400.43,36.042,401.388,36.708,402.347,37.375z"/>
		<path fill="#6C1713" d="M433.06,64.396c-4.616-3.331-9.232-6.661-13.241-9.554c1.116-4.223,1.572-5.951,2.028-7.684
			c-1.564-0.395-3.129-0.784-4.696-1.179c1.796-8.861,3.588-17.725,5.375-26.587c0.957,0,1.923,0.001,2.876,0.001
			c1.885,5.017,3.763,10.033,5.646,15.047c0.021,2.318,0.046,4.636,0.068,6.953c0.641,6,1.275,12.002,1.914,18.004
			C433.045,61.068,433.052,62.732,433.06,64.396z"/>
		<path fill="#721814" d="M378.265,70.345c-0.305,1.004-0.61,2.006-0.914,3.01c-4.483-0.005-8.963-0.007-13.447-0.011
			c-0.623-8.668-1.249-17.338-1.871-26.009c-0.633-0.673-1.265-1.344-1.896-2.012c1.26-3.99,2.515-7.98,3.768-11.97
			c0.337,0.998,0.664,1.996,0.993,2.993c5.104,7,10.21,14,15.31,21C379.56,61.679,378.912,66.011,378.265,70.345z"/>
		<path fill="#94201C" d="M274.611,35.218c-0.968,0.013-1.937,0.027-2.905,0.04c-1.631-0.287-3.26-0.572-4.892-0.859
			c-0.9-0.384-1.804-0.768-2.704-1.15l-0.272,0.088c0.011-0.998,0.027-1.997,0.041-2.996c-0.563-0.711-1.122-1.422-1.685-2.133
			c-0.043-0.298-0.093-0.595-0.143-0.891c-0.532-0.76-1.063-1.52-1.595-2.28c-0.715-1.919-1.431-3.839-2.146-5.76
			c8.964,0.007,17.928,0.013,26.89,0.02c-0.966,4.329-1.933,8.657-2.899,12.985c-1.276,0.005-2.552,0.01-3.828,0.016
			c-0.646-0.003-1.283-0.006-1.925-0.009C275.901,33.264,275.255,34.241,274.611,35.218z"/>
		<path fill="#AC2522" d="M48.055,30.035c-0.99-2.633-1.981-5.266-2.972-7.897c0.012-1.005,0.022-2.01,0.033-3.015
			c6.723,0.004,13.445,0.01,20.167,0.015c-0.276,1.688-0.551,3.375-0.827,5.063c0.311,2.63,0.621,5.26,0.93,7.89
			c-0.27,0.573-0.541,1.146-0.89,1.89c0.585,0.469,1.064,0.85,1.541,1.232c0.05,1.657,0.101,3.315,0.151,4.972
			c-0.662,2.665-1.324,5.33-1.986,7.995c-4.131-6.688-8.264-13.375-12.57-20.346C50.443,28.565,49.25,29.299,48.055,30.035z"/>
		<path fill="#681611" d="M364.898,36.349c-0.329-0.997-0.662-1.995-0.993-2.992c0.975-4.667,1.949-9.333,2.921-14
			c0.32,0,0.645,0,0.956,0c4.806,1.999,9.609,3.998,14.413,5.997c0.336,4.032,0.678,8.063,1.017,12.094
			c-0.668,1.305-1.331,2.612-1.998,3.917C375.782,39.693,370.339,38.02,364.898,36.349z"/>
		<path fill="#A72421" d="M88.331,19.154c0.251,5.225,0.504,10.451,0.994,20.606c-0.191,0.096-4.407,2.226-8.625,4.355
			c-2.266-2.656-4.53-5.313-6.796-7.969c0.312-1.679,0.623-3.357,0.933-5.035c-0.031-1.332-0.061-2.663-0.091-3.995
			c0.024-0.67,0.047-1.34,0.071-2.009c0.664-1.988,1.328-3.976,1.991-5.963C80.649,19.149,84.491,19.151,88.331,19.154z"/>
		<path fill="#8F1F1B" d="M299.59,53.325c0.674-2.386,1.348-4.771,2.02-7.156c1.288,0.637,2.579,1.271,3.869,1.906
			c2.676,5.233,5.352,10.47,7.698,15.056c-2.261,3.879-4.097,7.027-5.93,10.176c-3.844-0.003-7.686-0.005-11.528-0.007
			C297.011,66.641,298.301,59.982,299.59,53.325z"/>
		<path fill="#791A16" d="M338.953,59.333c3.519-5.331,7.039-10.663,10.56-15.996c1.881,2.386,3.763,4.773,5.907,7.496
			c-0.658,7.127-1.368,14.815-2.078,22.504c-4.482-0.003-8.964-0.005-13.444-0.009c0.019-0.683,0.036-1.365,0.054-2.048
			c3.063-5.838,6.124-11.676,9.185-17.513c-1.237-0.779-2.48-1.557-3.721-2.336C343.257,54.066,341.104,56.701,338.953,59.333z"/>
		<path fill="#94201C" d="M122.883,43.179c-1.974,2.709-3.943,5.418-6.616,9.09c-1.804-1.358-3.623-2.731-5.814-4.384
			c2.088-1.982,3.245-3.082,4.851-4.605c-0.954-3.241-1.967-6.681-2.978-10.12c1.597,0.364,3.195,0.728,4.792,1.092
			c1.386,0.716,2.773,1.434,3.863,1.996c1.74-6.184,3.273-11.625,4.805-17.066c3.521,0.002,7.042,0.005,10.564,0.008
			C131.858,27.186,127.372,35.182,122.883,43.179z"/>
		<path fill="#A72421" d="M77.77,52.112c1.673,3.311,3.348,6.622,5.348,10.578c-0.166,2.936-0.379,6.691-0.594,10.449
			c-4.481-0.004-8.962-0.007-13.444-0.011c-0.314-0.998-0.628-1.996-0.942-2.993c0.007-0.674,0.012-1.347,0.018-2.021
			c2.226-7.659,4.452-15.319,6.678-22.979c0.604,0.36,1.211,0.721,1.817,1.081c0.432,1.282,0.861,2.563,1.29,3.847
			C77.883,50.747,77.827,51.429,77.77,52.112z"/>
		<path fill="#57120E" d="M466.685,44.424c-5.437-8.335-10.87-16.673-16.306-25.008c3.521,0.002,7.043,0.004,10.564,0.008
			c1.918,2.001,3.838,4.002,5.756,6.004C466.695,31.758,466.691,38.091,466.685,44.424z"/>
		<path fill="#6C1713" d="M221.775,73.244c-0.448-2.563-0.897-5.129-1.245-7.119c-4.754,1.028-7.646,1.655-18.693,4.046
			c11.588-6.709,15.76-9.122,19.931-11.533c0.335,1.392,0.668,2.78,1.003,4.175c4.154-0.521,8.31-1.037,12.465-1.558
			c1.275,4,2.552,8,3.826,12C233.299,73.25,227.537,73.248,221.775,73.244z"/>
		<path fill="#851C19" d="M307.248,73.306c1.833-3.148,3.669-6.297,5.93-10.178c-2.347-4.586-5.022-9.82-7.7-15.056
			c0.907,0.426,1.815,0.849,2.721,1.271c2.247,0.99,4.49,1.979,6.736,2.971c0.371-0.012,0.736-0.021,1.105-0.034
			c1.208,0.709,2.419,1.418,3.628,2.125c-0.286,1.637-0.576,3.27-0.864,4.904c1.916,3.994,3.832,7.987,5.743,11.981
			c-0.003,0.676-0.009,1.352-0.02,2.024C318.77,73.315,313.007,73.31,307.248,73.306z"/>
		<path fill="#851C19" d="M353.341,73.337c0.71-7.688,1.42-15.377,2.078-22.504c-2.145-2.723-4.026-5.11-5.907-7.496
			c0-0.668,0.002-1.335,0.002-2.002c0.972-0.024,1.94-0.046,2.912-0.069c1.277,0.699,2.559,1.4,3.833,2.099
			c1.292,0.653,2.586,1.307,3.878,1.961c0.634,0.668,1.265,1.339,1.893,2.011c-1.295,8.668-2.592,17.336-3.886,26.004
			C356.542,73.341,354.942,73.339,353.341,73.337z"/>
		<path fill="#821C18" d="M299.59,53.325c-1.289,6.657-2.579,13.316-3.871,19.975c-3.198-0.003-6.4-0.005-9.602-0.007
			C290.608,66.634,295.099,59.979,299.59,53.325z"/>
		<path fill="#791A16" d="M239.061,73.254c-1.274-4-2.551-8.002-3.826-12c-0.009-0.662-0.018-1.323-0.022-1.984
			c6.072,0.656,12.144,1.312,18.216,1.967c-0.95,4.01-1.894,8.02-2.843,12.029C246.743,73.261,242.904,73.259,239.061,73.254z"/>
		<path fill="#801B17" d="M120.85,58.218c0.337-2.038,0.675-4.076,1.013-6.116c3.853,7.025,7.708,14.053,11.561,21.077
			c-4.482-0.003-8.963-0.007-13.445-0.009C120.269,68.186,120.559,63.201,120.85,58.218z"/>
		<path fill="#781916" d="M382.202,25.353c-4.805-2-9.608-3.998-14.413-5.997c11.845,0.009,23.691,0.017,35.533,0.026
			c-0.96,1.999-1.928,3.999-2.893,5.998C394.353,25.37,388.278,25.363,382.202,25.353z"/>
		<path fill="#A52420" d="M120.85,58.218c-0.291,4.982-0.581,9.968-0.871,14.952c-4.16-0.004-8.323-0.008-12.483-0.01
			c2.14-5.489,4.279-10.979,6.526-16.742C116.651,57.113,118.75,57.666,120.85,58.218z"/>
		<path fill="#9E221E" d="M0.908,60.085c5.124,1.661,10.248,3.32,15.372,4.981c4.475,2.68,8.95,5.355,13.427,8.038
			c-6.083-0.005-12.164-0.009-18.246-0.017c-3.519-2.669-7.039-5.338-10.558-8.007C0.904,63.417,0.906,61.752,0.908,60.085z"/>
		<path fill="#801B17" d="M400.429,25.38c0.961-1.999,1.93-3.999,2.893-5.998c1.921,0.001,3.84,0.002,5.763,0.003
			c-0.005,7.232-0.01,14.466-0.02,24.12c-3.578-3.262-5.146-4.697-6.718-6.13c-0.959-0.667-1.917-1.333-2.878-1.999
			C399.79,32.044,400.111,28.711,400.429,25.38z"/>
		<path fill="#99211D" d="M125.784,19.181c-1.532,5.441-3.064,10.884-4.805,17.066c-1.09-0.563-2.476-1.28-3.862-1.998
			c-1.592-5.027-3.185-10.053-4.778-15.08C116.821,19.174,121.304,19.178,125.784,19.181z"/>
		<path fill="#A52420" d="M112.339,19.171c1.591,5.027,3.183,10.053,4.778,15.081c-1.597-0.363-3.195-0.727-4.792-1.091
			c-0.642-0.003-1.282-0.005-1.922-0.008c-3.835-4.665-7.671-9.328-11.507-13.992C103.378,19.164,107.857,19.167,112.339,19.171z"/>
		<path fill="#791A16" d="M358.144,73.341c1.294-8.668,2.591-17.336,3.886-26.004c0.625,8.671,1.251,17.339,1.874,26.009
			C361.984,73.343,360.064,73.343,358.144,73.341z"/>
		<path fill="#801B17" d="M360.137,45.325c-1.292-0.654-2.586-1.308-3.878-1.961c2.561-8.003,5.125-16.007,7.689-24.012
			c0.956,0.001,1.921,0.002,2.877,0.003c-0.972,4.667-1.946,9.333-2.921,14C362.649,37.345,361.393,41.336,360.137,45.325z"/>
		<path fill="#651511" d="M434.009,73.396c0.003-2,0.005-4,0.005-5.998c2.77-0.674,5.537-1.353,9.144-2.229
			c1.636,2.563,3.445,5.397,5.257,8.235C443.613,73.403,438.812,73.4,434.009,73.396z"/>
		<path fill="#651511" d="M431.054,34.444c-1.881-5.015-3.762-10.031-5.644-15.047c0.96,0.001,1.92,0.001,2.882,0.002
			C429.211,24.414,430.134,29.43,431.054,34.444z"/>
		<path fill="#8F1F1B" d="M293.844,19.302c2.24,0.001,4.481,0.003,6.723,0.004c0.308,2.731,0.611,5.463,0.918,8.193
			c0.015,0.855,0.026,1.712,0.043,2.57c-0.646,0.069-1.291,0.135-1.938,0.202c-1.914-2.656-3.834-5.313-5.753-7.968
			C293.838,21.304,293.841,20.303,293.844,19.302z"/>
		<path fill="#801B17" d="M197.791,64.217c0.952,3.004,1.903,6.008,2.856,9.011c-2.56-0.002-5.121-0.003-7.681-0.006
			C194.573,70.22,196.18,67.219,197.791,64.217z"/>
		<path fill="#8F1F1B" d="M282.3,32.281c0.967-4.329,1.934-8.657,2.899-12.985c1.28,0.001,2.561,0.001,3.841,0.002
			c0.644,1,1.286,2,1.928,3.001c-0.011,1.007-0.021,2.014-0.03,3.021c-1.276,1.994-2.56,3.988-3.838,5.981
			C285.5,31.628,283.898,31.956,282.3,32.281z"/>
		<path fill="#821C18" d="M324.53,73.318c0.008-0.676,0.014-1.352,0.017-2.025c2.564-1.339,5.126-2.676,7.687-4.015
			c0.635,0.007,1.267,0.014,1.898,0.02c0.627,0.021,1.253,0.045,1.878,0.065c0.335,1.987,0.67,3.976,1.007,5.964
			C332.855,73.324,328.693,73.32,324.53,73.318z"/>
		<path fill="#B72824" d="M0.903,65.084c3.519,2.669,7.039,5.338,10.558,8.007C7.942,70.422,4.421,67.753,0.903,65.084z"/>
		<path fill="#B72824" d="M68.156,68.117c-0.006,0.675-0.011,1.348-0.018,2.021c-0.325,0.998-0.652,1.996-0.978,2.993
			c-1.28-0.001-2.561-0.001-3.842-0.002c-0.643-2.647-1.287-5.296-1.928-7.944c0.331-1.015,0.661-2.025,0.99-3.039
			C64.306,64.135,66.231,66.127,68.156,68.117z"/>
		<path fill="#791A16" d="M74.816,25.108c-0.023,0.669-0.047,1.339-0.069,2.009c-0.924,0.712-1.846,1.424-2.769,2.138
			c-0.635-1.374-1.269-2.746-1.905-4.118c-0.636-2-1.273-4-1.91-6c1.92,0.001,3.843,0.002,5.763,0.005
			C74.223,21.132,74.52,23.12,74.816,25.108z"/>
		<path fill="#761915" d="M301.485,27.502c-0.307-2.731-0.608-5.463-0.916-8.195c1.603,0.001,3.197,0.002,4.799,0.003
			c-0.014,1.339-0.025,2.678-0.046,4.016C304.045,24.719,302.764,26.11,301.485,27.502z"/>
		<path fill="#6C1713" d="M181.482,22.219c-3.52-1.002-7.04-2.004-10.562-3.006c3.522,0.002,7.042,0.005,10.563,0.008
			c0.005,0.66,0.011,1.319,0.016,1.979C181.494,21.539,181.488,21.879,181.482,22.219z"/>
		<path fill="#6D1713" d="M466.7,25.427c-1.918-2.002-3.838-4.003-5.756-6.004C462.862,21.424,464.782,23.425,466.7,25.427z"/>
		<path fill="#651511" d="M181.482,22.219c0.006-0.34,0.012-0.68,0.017-1.02c0.956-0.658,1.913-1.318,2.866-1.977
			c0.96,0,1.921,0.001,2.881,0.001c0.95,1.685,1.902,3.369,2.852,5.054C187.226,23.593,184.354,22.906,181.482,22.219z"/>
		<path fill="#94201C" d="M68.163,19.138c0.637,2,1.273,4,1.91,6c-1.873-0.313-3.744-0.625-5.616-0.938
			c0.275-1.688,0.551-3.375,0.827-5.063C66.244,19.137,67.204,19.138,68.163,19.138z"/>
		<path fill="#721814" d="M337.016,73.327c-0.337-1.988-0.672-3.977-1.007-5.964c0.978-0.345,1.955-0.69,2.937-1.035
			c0.336,1.648,0.668,3.301,1.005,4.953c-0.021,0.683-0.035,1.365-0.057,2.048C338.937,73.328,337.976,73.327,337.016,73.327z"/>
		<path fill="#821C18" d="M314.01,19.316c-1.264,1.972-2.522,3.944-3.785,5.917c-0.649-0.354-1.303-0.708-1.955-1.063
			c0.005-0.271,0.005-0.541,0.003-0.812c0.632-1.348,1.266-2.697,1.896-4.044C311.451,19.314,312.731,19.315,314.01,19.316z"/>
		<path fill="#94201C" d="M310.169,19.313c-0.631,1.348-1.268,2.696-1.896,4.044c-0.982-0.011-1.966-0.022-2.951-0.032
			c0.016-1.338,0.032-2.677,0.046-4.016C306.969,19.311,308.57,19.312,310.169,19.313z"/>
		<path fill="#851C19" d="M74.816,25.108c-0.297-1.989-0.594-3.978-0.89-5.965c0.96,0,1.92,0.001,2.88,0.002
			C76.144,21.132,75.48,23.12,74.816,25.108z"/>
		<path fill="#821C18" d="M321.695,19.321c-0.884,0.834-1.768,1.669-4.279,4.042c-0.575-1.569-1.03-2.807-1.484-4.045
			C317.852,19.319,319.773,19.32,321.695,19.321z"/>
		<path fill="#8A1D1A" d="M290.968,22.3c-0.642-1-1.284-2-1.928-3.001c1.602,0.001,3.203,0.002,4.804,0.003
			c-0.003,1.001-0.006,2.002-0.006,3.002C292.881,22.303,291.926,22.301,290.968,22.3z"/>
		<path fill="#791A16" d="M414.802,73.382c0.559-0.951,1.111-1.904,2.463-4.223c1.271,2.289,1.805,3.258,2.341,4.228
			C418.002,73.386,416.403,73.384,414.802,73.382z"/>
		<path fill="#5D130E" d="M184.365,19.223c-0.955,0.659-1.911,1.319-2.866,1.977c-0.004-0.66-0.01-1.319-0.016-1.979
			C182.445,19.221,183.405,19.222,184.365,19.223z"/>
		<path fill="#AC2522" d="M67.16,73.131c0.326-0.997,0.653-1.995,0.978-2.993c0.314,0.997,0.628,1.995,0.942,2.993
			C68.441,73.131,67.799,73.132,67.16,73.131z"/>
		<path fill="#C62C28" d="M50.703,69.242c-13.259-4.559-22.851-7.855-32.442-11.149c0.246-1.195,0.493-2.395,0.739-3.592
			c8.604,1.62,17.279,2.942,25.757,5.107C46.451,60.041,47.389,63.679,50.703,69.242z"/>
		<path fill="#8A1D1A" d="M305.322,23.326c0.985,0.01,1.969,0.021,2.951,0.032c0.002,0.271,0.002,0.541-0.003,0.813
			c0.357,1.944,0.715,3.888,1.124,6.133c1.958,0.001,3.298,0.002,4.641,0.003c0.668,7.324,1.335,14.648,2.003,21.972
			c-0.369,0.012-0.736,0.021-1.104,0.034c-0.541-0.681-1.087-1.36-1.626-2.041c-3.273-4.339-6.54-8.681-9.812-13.02
			c-0.653-2.395-1.311-4.789-1.969-7.185c-0.014-0.856-0.025-1.712-0.043-2.568C302.764,26.11,304.045,24.719,305.322,23.326z"/>
		<path fill="#681611" d="M348.598,36.278c-2.222-3.568-4.441-7.137-6.662-10.705c3.13-0.794,6.263-1.587,9.39-2.382
			c0.355,4.74,0.709,9.481,1.067,14.222C351.126,37.033,349.862,36.656,348.598,36.278z"/>
		<path fill="#721814" d="M334.131,67.297c-0.632-0.006-1.264-0.013-1.898-0.02c-4.477-2.655-8.95-5.313-13.43-7.969
			c0.292-1.635,0.578-3.271,0.867-4.904c0.519-1.307,1.048-2.616,1.788-4.472c4.848,2.539,9.194,4.815,14.235,7.456
			C335.192,60.571,334.661,63.932,334.131,67.297z"/>
		<path fill="#821C18" d="M339.951,71.281c-0.334-1.652-0.669-3.305-1.002-4.953c0.002-2.333,0.005-4.662,0.006-6.994
			c2.156-2.633,4.303-5.268,6.46-7.901c1.24,0.779,2.483,1.56,3.721,2.336C346.074,59.605,343.013,65.443,339.951,71.281z"/>
		<path fill="#94201C" d="M314.035,30.308c-1.343-0.001-2.683-0.002-4.641-0.003c-0.409-2.245-0.767-4.188-1.124-6.133
			c0.652,0.353,1.306,0.708,1.955,1.062C311.496,26.923,312.766,28.615,314.035,30.308z"/>
		<path fill="#791A16" d="M348.598,36.278c1.264,0.378,2.528,0.755,3.795,1.134c0.01,1.285,0.023,2.57,0.033,3.854
			c-0.972,0.023-1.94,0.045-2.915,0.069C349.211,39.649,348.904,37.964,348.598,36.278z"/>
		<path fill="#6D1713" d="M194.939,25.2c7.045,0.362,14.092,0.727,21.139,1.087c0.789,2.833,1.576,5.667,2.364,8.5
			c1.56-1.381,3.12-2.765,4.68-4.147c1.475,5.208,2.944,10.416,4.417,15.621c-4.127-3.048-8.255-6.099-11.175-8.255
			c-6.851,1.011-12.376,1.826-19.426,2.866c0.289,6.933,0.586,14.144,0.885,21.355c-1.605-12.327-3.208-24.654-4.813-36.98
			c0,0.001-0.013-0.067-0.013-0.067C193.643,25.187,194.291,25.194,194.939,25.2z"/>
		<path fill="#8F1F1B" d="M166.091,38.221c0.035-2.361,0.066-4.722,0.101-7.084c3.173,8.688,6.345,17.379,9.517,26.068
			C172.502,50.877,169.297,44.549,166.091,38.221z"/>
		<path fill="#851C19" d="M179.584,71.191c-0.645-1.999-1.29-3.995-1.934-5.993C178.294,67.196,178.94,69.192,179.584,71.191z"/>
		<path fill="#761915" d="M227.54,46.261c-1.473-5.207-2.941-10.414-4.417-15.621c-1.56,1.383-3.12,2.766-4.679,4.147
			c-0.79-2.833-1.577-5.666-2.366-8.5c8.966,0.98,17.931,1.96,26.895,2.94c1.596,4.009,3.192,8.015,4.787,12.022
			c-2.671-2.028-5.346-4.056-8.021-6.083c-2.675,2.849-5.352,5.697-8.031,8.545c7.879,4.523,15.757,9.046,23.633,13.568l0.175,0.199
			l-0.106-0.269c-0.011-0.967-0.022-1.935-0.033-2.897c0.59-0.048,1.18-0.095,1.772-0.142c0.077,0.722,0.154,1.44,0.232,2.164
			c0.071,1.688,0.141,3.383,0.213,5.07c-1.39-0.059-2.774-0.113-4.165-0.173c-6.072-0.652-12.144-1.313-18.216-1.967
			C232.655,54.934,230.097,50.598,227.54,46.261z"/>
		<path fill="#851C19" d="M77.94,50.065c-0.429-1.281-0.858-2.563-1.288-3.847c-0.577-0.702-1.155-1.404-1.732-2.106
			c-0.693-1.276-1.388-2.551-2.081-3.828c-0.307-1.332-0.613-2.663-0.919-3.995l0.083-0.175c0.633,0.01,1.269,0.021,1.902,0.033
			c2.266,2.656,4.53,5.313,6.796,7.969c-0.016,2.006-0.03,4.014-0.048,6.022C79.749,50.112,78.844,50.089,77.94,50.065z"/>
		<path fill="#8F1F1B" d="M77.94,50.065c0.904,0.024,1.809,0.049,2.712,0.073c0.867,0.703,1.732,1.406,8.743,7.095
			c-8.864-3.904-10.245-4.512-11.625-5.119C77.827,51.429,77.883,50.747,77.94,50.065z"/>
		<path fill="#6D1713" d="M439.858,25.431c7.919,9.843,15.842,19.684,23.762,29.526c-1.879,1.585-3.76,3.171-5.639,4.757
			c-4.137-4.771-8.268-9.542-12.399-14.313c-0.013-0.66-0.023-1.32-0.034-1.979c-0.628-0.675-1.257-1.35-1.887-2.023
			c-0.004-0.664-0.01-1.327-0.017-1.991c-1.271-3.671-2.533-7.34-3.805-11.011C439.849,27.409,439.853,26.418,439.858,25.431z"/>
		<path fill="#651511" d="M433.037,59.404c-0.637-6.002-1.273-12.004-1.914-18.007C431.761,47.4,432.4,53.402,433.037,59.404z"/>
		<path fill="#651511" d="M439.845,28.396c1.266,3.67,2.532,7.339,3.799,11.011C442.377,35.735,441.111,32.066,439.845,28.396z"/>
		<path fill="#651511" d="M443.661,41.398c0.63,0.674,1.259,1.348,1.887,2.023C444.919,42.746,444.291,42.072,443.661,41.398z"/>
		<path fill="#681611" d="M257.148,54.172c-0.593,0.047-1.183,0.094-1.772,0.141c-2.538-4.354-5.076-8.708-7.615-13.063
			c-1.595-4.007-3.191-8.014-4.787-12.022c6.955,1.37,13.913,2.738,20.866,4.107c-0.002,0,0.271-0.088,0.271-0.088
			c-0.629,2.035-1.259,4.069-1.885,6.104C260.531,44.291,258.84,49.233,257.148,54.172z"/>
		<path fill="#821C18" d="M277.516,43.271c3.908,1.738,7.817,3.481,13.556,6.032c-4.297,3.967-7.019,6.477-9.739,8.985
			C280.059,53.283,278.787,48.278,277.516,43.271z"/>
		<path fill="#9E221E" d="M257.593,61.411c-0.072-1.691-0.142-3.383-0.213-5.072c4.626,3.757,9.25,7.514,13.875,11.269
			c-0.87,1.107-1.733,2.223-2.599,3.332C264.968,67.761,261.281,64.586,257.593,61.411z"/>
		<path fill="#791A16" d="M262.225,39.352c0.626-2.035,1.256-4.069,1.885-6.104c0.9,0.382,1.804,0.767,2.704,1.15
			C265.282,36.049,263.752,37.7,262.225,39.352z"/>
		<path fill="#721814" d="M262.194,28.207c0.563,0.711,1.122,1.422,1.685,2.133C263.314,29.629,262.756,28.918,262.194,28.207z"/>
		<path fill="#651511" d="M194.939,25.2c-0.648-0.006-1.296-0.013-1.943-0.02C193.643,25.186,194.292,25.194,194.939,25.2z"/>
		<path fill="#721814" d="M260.457,25.036c0.532,0.76,1.063,1.52,1.595,2.28C261.519,26.556,260.986,25.796,260.457,25.036z"/>
		<path fill="#B72824" d="M48.055,30.035c1.195-0.736,2.388-1.47,3.578-2.202c4.306,6.971,8.439,13.659,12.571,20.346
			c-0.302,1.638-0.602,3.274-0.904,4.911c-0.316-0.02-0.633-0.027-0.95-0.025c-0.602,0.379-1.205,0.76-1.806,1.138
			c-0.672,0.978-1.345,1.949-2.016,2.928C55.038,48.096,51.546,39.065,48.055,30.035z"/>
		<path fill="#9E221E" d="M62.35,53.065c0.316-0.002,0.634,0.006,0.95,0.026l0.034,0.04c-0.318,3.005-0.636,6.009-0.955,9.014
			c-0.33,1.014-0.66,2.025-0.991,3.039c-0.955-2.687-1.908-5.37-2.861-8.057c0.671-0.976,1.344-1.95,2.016-2.927
			C61.145,53.823,61.748,53.444,62.35,53.065z"/>
		<path fill="#851C19" d="M290.968,22.3c0.958,0.001,1.913,0.003,2.872,0.004c1.917,2.655,3.838,5.312,5.751,7.968
			c0.275,2.328,0.553,4.655,0.825,6.982c-0.011,0.34-0.022,0.679-0.029,1.018c-0.906,0.014-1.813,0.027-2.722,0.04
			c-2.238-1.035-4.478-2.07-6.71-3.104c-0.008-3.294-0.014-6.59-0.021-9.885C290.948,24.314,290.958,23.307,290.968,22.3z"/>
		<path fill="#5D130E" d="M300.386,38.272c0.011-0.339,0.02-0.678,0.03-1.017c1.027,0,2.055,0,3.08-0.002
			c3.27,4.339,6.538,8.68,9.807,13.019c-1.703-0.31-3.404-0.618-5.105-0.929c-0.905-0.422-1.813-0.845-2.721-1.271
			c-1.288-0.637-2.579-1.271-3.867-1.904c-0.63-1.926-1.263-3.848-1.89-5.77C299.94,39.691,300.164,38.981,300.386,38.272z"/>
		<path fill="#8A1D1A" d="M282.3,32.281c1.598-0.325,3.2-0.652,4.8-0.979c0.354,1.269,0.708,2.537,1.062,3.804
			c-4.521,0.038-9.033,0.074-13.554,0.112c0.646-0.977,1.288-1.954,1.937-2.93c0.643,0.003,1.281,0.006,1.926,0.009
			C279.749,32.292,281.024,32.286,282.3,32.281z"/>
		<path fill="#98211D" d="M288.162,35.106c-0.354-1.268-0.708-2.535-1.062-3.804c1.278-1.993,2.562-3.987,3.838-5.981
			c0.004,3.295,0.013,6.591,0.02,9.885C290.023,35.172,289.093,35.139,288.162,35.106z"/>
		<path fill="#801B17" d="M300.386,38.272c-0.223,0.709-0.446,1.419-0.669,2.13c-0.684-0.695-1.367-1.393-2.052-2.09
			C298.573,38.299,299.481,38.286,300.386,38.272z"/>
		<path fill="#6D1713" d="M400.429,25.38c-0.318,3.333-0.643,6.665-0.96,9.998c-6.419,11.657-12.837,23.315-19.255,34.974
			c2.581-9.332,5.165-18.658,7.743-27.987c-1.582-1.639-3.16-3.275-4.742-4.914c-0.337-4.032-0.678-8.063-1.015-12.095
			C388.278,25.363,394.353,25.37,400.429,25.38z"/>
		<path fill="#821C18" d="M387.958,42.36c-2.578,9.33-5.162,18.659-7.743,27.989c-0.649,0-1.298-0.004-1.946-0.004
			c0.644-4.334,1.292-8.666,1.939-12.998c0.355-3.651,0.715-7.307,1.068-10.957C383.503,45.048,385.73,43.704,387.958,42.36z"/>
		<path fill="#6C1713" d="M381.276,46.39c-0.354,3.65-0.713,7.306-1.068,10.957c-5.1-7-10.206-14-15.31-21
			c5.445,1.671,10.888,3.345,16.322,5.016C381.24,43.04,381.26,44.717,381.276,46.39z"/>
		<path fill="#8F1F1B" d="M278.472,32.296c-0.643-0.003-1.283-0.006-1.925-0.009C277.189,32.292,277.83,32.293,278.472,32.296z"/>
		<path fill="#8A1D1A" d="M64.457,24.2c1.873,0.312,3.744,0.625,5.616,0.938c0.636,1.373,1.269,2.745,1.905,4.117
			c0.015,0.635,0.029,1.271,0.045,1.908l-0.003-0.036c-0.017,0.654-0.035,1.309-0.053,1.962c0.013,1.009,0.024,2.017,0.036,3.026
			c0,0-0.083,0.175-0.082,0.173c-1.91,1.298-3.821,2.598-5.73,3.897c-0.05-1.657-0.101-3.315-0.15-4.972
			c-0.217-1.041-0.436-2.082-0.653-3.122C65.077,29.46,64.767,26.831,64.457,24.2z"/>
		<path fill="#9E221E" d="M66.189,40.185c1.91-1.3,3.821-2.599,5.73-3.897c0.306,1.334,0.612,2.665,0.92,3.996
			c-3.169,4.283-6.336,8.566-9.503,12.849l-0.035-0.04c0.302-1.639,0.603-3.275,0.903-4.912
			C64.864,45.514,65.527,42.85,66.189,40.185z"/>
		<path fill="#9E221E" d="M65.386,32.089c0.217,1.04,0.436,2.081,0.653,3.122c-0.479-0.382-0.958-0.763-1.542-1.232
			C64.846,33.235,65.116,32.662,65.386,32.089z"/>
		<path fill="#781916" d="M381.276,46.39c-0.016-1.673-0.036-3.353-0.056-5.026c0.667-1.306,1.331-2.613,1.996-3.917
			c1.581,1.639,3.159,3.276,4.741,4.915C385.73,43.704,383.503,45.048,381.276,46.39z"/>
		<path fill="#94201C" d="M72.001,36.114c-0.013-1.009-0.023-2.017-0.035-3.025c0.018-0.654,0.035-1.309,0.052-1.963l0.003,0.036
			c0.938-0.017,1.875-0.034,2.814-0.05c-0.311,1.678-0.622,3.355-0.933,5.035C73.271,36.136,72.635,36.125,72.001,36.114z"/>
		<path fill="#851C19" d="M74.836,31.112c-0.938,0.017-1.876,0.034-2.814,0.05c-0.015-0.636-0.03-1.273-0.045-1.908
			c0.922-0.712,1.845-1.424,2.768-2.137C74.776,28.449,74.806,29.78,74.836,31.112z"/>
		<path fill="#AC2522" d="M63.336,53.131c3.167-4.281,6.334-8.565,9.503-12.849c0.691,1.277,1.387,2.552,2.079,3.829
			c-0.029,0.342-0.057,0.684-0.085,1.025c-2.227,7.66-4.452,15.32-6.678,22.98c-1.925-1.99-3.851-3.982-5.776-5.974
			C62.7,59.14,63.017,56.136,63.336,53.131z"/>
		<path fill="#98211D" d="M74.834,45.137c0.028-0.342,0.057-0.684,0.085-1.025c0.579,0.702,1.157,1.405,1.733,2.106
			C76.046,45.858,75.438,45.497,74.834,45.137z"/>
		<path fill="#791A16" d="M318.803,59.309c4.477,2.655,8.953,5.313,13.428,7.969c-2.561,1.339-5.124,2.676-7.685,4.015
			C322.635,67.298,320.719,63.303,318.803,59.309z"/>
		<path fill="#721814" d="M308.198,49.343c1.701,0.311,3.402,0.619,5.105,0.929c0.544,0.682,1.09,1.362,1.631,2.042
			C312.688,51.325,310.445,50.335,308.198,49.343z"/>
		<path fill="#6C1713" d="M303.497,37.253c-1.025,0.001-2.053,0.002-3.08,0.002c-0.274-2.328-0.554-4.655-0.826-6.983
			c0.646-0.067,1.292-0.133,1.938-0.202C302.186,32.464,302.841,34.859,303.497,37.253z"/>
		<path fill="#801B17" d="M247.76,41.25c2.539,4.354,5.077,8.709,7.615,13.063c0.011,0.967,0.022,1.934,0.033,2.898l-0.068,0.067
			c-7.876-4.521-15.754-9.047-23.636-13.569c2.676-2.849,5.353-5.697,8.031-8.545C242.415,37.195,245.089,39.224,247.76,41.25z"/>
		<polygon fill="#8A1D1A" points="255.409,57.211 255.515,57.48 255.34,57.281 		"/>
		<path fill="#AC2522" d="M62.35,53.065c-0.603,0.379-1.206,0.76-1.806,1.138C61.146,53.823,61.749,53.444,62.35,53.065z"/>
		<path fill="#791A16" d="M72.019,31.127c-0.017,0.654-0.034,1.309-0.052,1.963C71.984,32.435,72.002,31.781,72.019,31.127z"/>
	</g>
</g>
<text transform="matrix(1 0 0 1 5.8423 51.4419)" fill="#FFFFFF" font-family="'Verdana'" font-size="21">Globally, the average cost of a slave is $90</text>
</svg>
