<?xml version="1.0" encoding="utf-8"?>
<!-- Generator: Adobe Illustrator 16.0.0, SVG Export Plug-In . SVG Version: 6.00 Build 0)  -->
<!DOCTYPE svg PUBLIC "-//W3C//DTD SVG 1.1//EN" "http://www.w3.org/Graphics/SVG/1.1/DTD/svg11.dtd">
<svg version="1.1" id="Layer_1" xmlns="http://www.w3.org/2000/svg" xmlns:xlink="http://www.w3.org/1999/xlink" x="0px" y="0px"
	 width="599.925px" height="799.9px" viewBox="0 0 599.925 799.9" enable-background="new 0 0 599.925 799.9" xml:space="preserve">
<g>
	<g>
		<path fill-rule="evenodd" clip-rule="evenodd" fill="none" d="M382.952,1c72.991,0,145.981,0,218.973,0
			c0,266.966,0,533.933,0,800.899c-200.309,0-400.617,0-600.925,0C1,534.933,1,267.966,1,1c87.656,0,175.311,0,262.967,0
			c-0.097,6.736-0.582,13.426-0.234,20.22c0.642,12.551,1.712,25.03,3.174,37.501c1.472,12.577,3.556,25.042,5.861,37.487
			c2.785,15.028,6.225,29.895,10.284,44.625c-0.972,2.219-2.919,1.079-4.361,1.085c-22.491,0.079-44.983,0.101-67.475,0.004
			c-3.208-0.014-5.692,0.903-7.929,3.172c-2.36,2.394-2.337,5.259-2.337,8.261c0.018,169.772,0.016,339.544,0.016,509.317
			c0,0.5-0.005,0.999,0,1.499c0.062,6.023,3.791,9.747,9.877,9.747c69.308,0.01,138.616,0.01,207.925,0.002
			c6.674,0,10.183-3.614,10.186-10.438c0.007-20.992,0.002-41.985,0.002-62.978c0-148.946,0-297.893,0-446.838
			c0-8.587-3.037-11.691-11.437-11.692c-19.826-0.003-39.651-0.005-59.479-0.008c1.899-5.248,3.877-10.468,5.684-15.746
			c4.952-14.457,9.067-29.134,12.493-44.042c5.147-22.402,8.737-44.955,8.297-68C384.43,9.777,383.494,5.392,382.952,1z"/>
		<path fill-rule="evenodd" clip-rule="evenodd" fill="none" d="M266.967,1c35.328,0,70.658,0,105.986,0
			c0.055,0.986-0.022,2.001,0.184,2.955c1.51,6.969,2.146,14.025,1.972,21.137c-0.134,5.435-0.384,10.875-0.831,16.292
			c-0.678,8.199-1.094,16.462-2.482,24.551c-2.225,12.96-4.904,25.857-7.858,38.674c-2.945,12.79-6.741,25.36-11.62,37.574
			c-1.827-0.069-3.653-0.197-5.479-0.199c-17.152-0.016-34.304,0.01-51.456-0.053c-1.144-0.004-2.734,0.907-3.426-0.962
			c-0.05-0.818,0.053-1.682-0.176-2.446c-1.414-4.719-3.086-9.369-4.331-14.131c-3.619-13.855-7.394-27.682-10.504-41.655
			c-3.145-14.123-5.702-28.357-7.475-42.766C267.873,26.992,266.452,14.079,266.967,1z"/>
		<path fill-rule="evenodd" clip-rule="evenodd" fill="#070707" d="M352.316,142.182c4.879-12.213,8.675-24.784,11.62-37.574
			c2.954-12.817,5.634-25.713,7.858-38.674c1.389-8.089,1.805-16.352,2.482-24.551c0.447-5.417,0.697-10.857,0.831-16.292
			c0.175-7.112-0.462-14.168-1.972-21.137c-0.206-0.953-0.129-1.968-0.184-2.955c3.333,0,6.666,0,9.999,0
			c0.542,4.392,1.478,8.777,1.562,13.178c0.44,23.045-3.149,45.597-8.297,68c-3.426,14.908-7.541,29.586-12.493,44.042
			c-1.807,5.278-3.784,10.499-5.684,15.746c-1.848,4.163-3.493,8.432-5.586,12.468c-4.059,7.825-8.368,15.52-12.574,23.268
			c-1.733,2.188-3.426,4.411-5.209,6.558c-3.837,4.622-8.07,8.79-13.674,11.264c-5.816,2.567-9.922,1.928-14.415-2.67
			c-2.177-2.226-4.18-4.757-5.69-7.469c-3.035-5.451-5.68-11.121-8.485-16.699c-0.1-0.307-0.383-0.754-0.271-0.899
			c2.208-2.897,4.381-5.86,8.248-6.728c2.478,7.069,5.942,13.619,10.393,19.64c0.883,1.195,1.809,2.395,2.899,3.392
			c4.234,3.871,8.796,4.26,13.579,1.119c4.979-3.267,8.375-7.922,11.102-13.12C344.54,162.835,348.513,152.548,352.316,142.182z"/>
		<path fill-rule="evenodd" clip-rule="evenodd" fill="#090909" d="M266.967,1c-0.515,13.079,0.906,25.992,2.503,38.97
			c1.773,14.409,4.33,28.644,7.475,42.766c3.111,13.973,6.886,27.799,10.504,41.655c1.244,4.762,2.917,9.412,4.331,14.131
			c0.229,0.765,0.126,1.628,0.176,2.446c-2.968-0.045-5.936-0.09-8.904-0.135c-4.059-14.729-7.499-29.596-10.284-44.625
			c-2.305-12.446-4.389-24.911-5.861-37.487c-1.462-12.471-2.532-24.95-3.174-37.501c-0.348-6.794,0.138-13.484,0.234-20.22
			C264.967,1,265.967,1,266.967,1z"/>
		<path fill-rule="evenodd" clip-rule="evenodd" fill="#D5D4D4" d="M283.051,140.833c2.969,0.045,5.936,0.09,8.904,0.135
			c0.692,1.869,2.283,0.958,3.426,0.962c17.152,0.063,34.304,0.037,51.456,0.053c1.825,0.002,3.651,0.13,5.479,0.199
			c-3.804,10.367-7.776,20.653-13.961,29.908c-2.355-2.427-4.526-5.074-7.107-7.23c-4.159-3.478-8.897-5.733-14.521-5.919
			c-5.587-0.187-11.056,0.168-16.345,2.119c-3.866,0.868-6.039,3.831-8.248,6.728c-0.111,0.146,0.172,0.593,0.271,0.899
			c-0.556,0.345-1.284,0.563-1.642,1.052c-5.289,7.258-6.572,15.825-4.252,23.872c5.123,17.771,18.575,22.63,33.809,19.999
			c9.504-1.64,16.097-8.402,19.551-17.547c2.021-5.351,1.103-11.042,0.833-16.606c-0.029-0.597-0.539-1.17-0.825-1.754
			c4.206-7.748,8.516-15.442,12.574-23.268c2.093-4.036,3.738-8.305,5.586-12.468c19.827,0.003,39.652,0.005,59.479,0.008
			c8.399,0.001,11.437,3.105,11.437,11.692c0,148.946,0,297.892,0,446.838c0,20.992,0.005,41.985-0.002,62.978
			c-0.003,6.824-3.512,10.438-10.186,10.438c-69.309,0.008-138.617,0.008-207.925-0.002c-6.086,0-9.815-3.724-9.877-9.747
			c-0.005-0.5,0-0.999,0-1.499c0-169.772,0.002-339.544-0.016-509.317c0-3.002-0.023-5.867,2.337-8.261
			c2.237-2.27,4.721-3.186,7.929-3.172c22.491,0.097,44.983,0.075,67.475-0.004C280.132,141.912,282.079,143.052,283.051,140.833z"
			/>
		<path fill-rule="evenodd" clip-rule="evenodd" fill="none" d="M339.88,177.701c0.286,0.584,0.796,1.157,0.825,1.754
			c0.27,5.564,1.188,11.255-0.833,16.606c-3.454,9.145-10.047,15.907-19.551,17.547c-15.233,2.631-28.686-2.227-33.809-19.999
			c-2.32-8.047-1.037-16.614,4.252-23.872c0.357-0.489,1.086-0.708,1.642-1.052c2.805,5.578,5.45,11.248,8.485,16.699
			c1.511,2.712,3.514,5.243,5.69,7.469c4.493,4.598,8.599,5.237,14.415,2.67c5.604-2.475,9.837-6.643,13.674-11.264
			C336.454,182.112,338.146,179.89,339.88,177.701z"/>
		<path fill-rule="evenodd" clip-rule="evenodd" fill="none" d="M300.383,161.059c5.289-1.951,10.758-2.306,16.345-2.119
			c5.623,0.187,10.361,2.441,14.521,5.919c2.581,2.157,4.752,4.804,7.107,7.23c-2.727,5.198-6.123,9.853-11.102,13.12
			c-4.783,3.142-9.345,2.752-13.579-1.119c-1.091-0.997-2.017-2.197-2.899-3.392C306.325,174.678,302.86,168.128,300.383,161.059z"
			/>
	</g>
</g>
<text transform="matrix(1 0 0 1 198.5889 268.5947)" font-family="'BodoniMT'" font-size="72">Human </text>
<text transform="matrix(1 0 0 1 235.5889 312.0928)" font-family="'BodoniMT'" font-size="36">Trafficking</text>
<rect x="201.091" y="329.341" width="227.659" height="7.5"/>
<text transform="matrix(1 0 0 1 284.0908 655.5781)" font-family="'BodoniMT'" font-size="60">90</text>
<text transform="matrix(1 0 0 1 255.0879 643.5762)" font-family="'BodoniMT'" font-size="42.53">$</text>
<text transform="matrix(1 0 0 1 345.5889 627.0771)" font-family="'BodoniMT'" font-size="33.48">00</text>
<rect x="345.001" y="628.417" width="35.416" height="2.583"/>
<rect x="202" y="567.333" width="33.589" height="4"/>
<rect x="395" y="567.333" width="33.589" height="4"/>
<rect x="349" y="567.333" width="33.589" height="4"/>
<rect x="304" y="567.333" width="33.589" height="4"/>
<rect x="254" y="567.333" width="33.589" height="4"/>
<text transform="matrix(1 0 0 1 218.7944 438.668)"><tspan x="0" y="0" font-family="'BodoniMT'" font-size="21">AGE:</tspan><tspan x="50.09" y="0" font-family="'BodoniMT'" font-size="21" letter-spacing="16">	</tspan><tspan x="72" y="0" font-family="'BodoniMT'" font-size="21" letter-spacing="30">	</tspan><tspan x="108" y="0" font-family="'BodoniMT'" font-size="21">14</tspan></text>
<text transform="matrix(1 0 0 1 215.3335 486.001)"><tspan x="0" y="0" font-family="'BodoniMT'" font-size="21">GENDER:</tspan><tspan x="97.75" y="0" font-family="'BodoniMT'" font-size="21" letter-spacing="5">	</tspan><tspan x="108" y="0" font-family="'BodoniMT'" font-size="21">FEMALE</tspan></text>
<text transform="matrix(1 0 0 1 215.3335 535.334)"><tspan x="0" y="0" font-family="'BodoniMT'" font-size="21">SIZE:</tspan><tspan x="53.177" y="0" font-family="'BodoniMT'" font-size="21" letter-spacing="13">	</tspan><tspan x="72" y="0" font-family="'BodoniMT'" font-size="21" letter-spacing="30">	</tspan><tspan x="108" y="0" font-family="'BodoniMT'" font-size="21">5’3”</tspan></text>
</svg>
